<?xml version="1.0" encoding="utf-8" standalone="no"?>
<!DOCTYPE svg PUBLIC "-//W3C//DTD SVG 1.1//EN"
  "http://www.w3.org/Graphics/SVG/1.1/DTD/svg11.dtd">
<svg xmlns:xlink="http://www.w3.org/1999/xlink" width="1000.280625pt" height="330.541644pt" viewBox="0 0 1000.280625 330.541644" xmlns="http://www.w3.org/2000/svg" version="1.1">
 <metadata>
  <rdf:RDF xmlns:dc="http://purl.org/dc/elements/1.1/" xmlns:cc="http://creativecommons.org/ns#" xmlns:rdf="http://www.w3.org/1999/02/22-rdf-syntax-ns#">
   <cc:Work>
    <dc:type rdf:resource="http://purl.org/dc/dcmitype/StillImage"/>
    <dc:date>2023-11-29T15:17:54.223444</dc:date>
    <dc:format>image/svg+xml</dc:format>
    <dc:creator>
     <cc:Agent>
      <dc:title>Matplotlib v3.6.2, https://matplotlib.org/</dc:title>
     </cc:Agent>
    </dc:creator>
   </cc:Work>
  </rdf:RDF>
 </metadata>
 <defs>
  <style type="text/css">*{stroke-linejoin: round; stroke-linecap: butt}</style>
 </defs>
 <g id="figure_1">
  <g id="axes_1">
   <g id="patch_1">
    <path d="M 40.600625 273.99006 
L 985.445625 273.99006 
L 985.445625 31.48286 
L 40.600625 31.48286 
z
" style="fill: #ffffff"/>
   </g>
   <g id="matplotlib.axis_1">
    <g id="xtick_1">
     <g id="text_1">
      <!-- 0 -->
      <g transform="translate(38.055625 287.06881) scale(0.08 -0.08)">
       <defs>
        <path id="DejaVuSans-30" d="M 2034 4250 
Q 1547 4250 1301 3770 
Q 1056 3291 1056 2328 
Q 1056 1369 1301 889 
Q 1547 409 2034 409 
Q 2525 409 2770 889 
Q 3016 1369 3016 2328 
Q 3016 3291 2770 3770 
Q 2525 4250 2034 4250 
z
M 2034 4750 
Q 2819 4750 3233 4129 
Q 3647 3509 3647 2328 
Q 3647 1150 3233 529 
Q 2819 -91 2034 -91 
Q 1250 -91 836 529 
Q 422 1150 422 2328 
Q 422 3509 836 4129 
Q 1250 4750 2034 4750 
z
" transform="scale(0.015625)"/>
       </defs>
       <use xlink:href="#DejaVuSans-30"/>
      </g>
     </g>
    </g>
    <g id="xtick_2">
     <g id="text_2">
      <!-- 20 -->
      <g transform="translate(224.479625 287.06881) scale(0.08 -0.08)">
       <defs>
        <path id="DejaVuSans-32" d="M 1228 531 
L 3431 531 
L 3431 0 
L 469 0 
L 469 531 
Q 828 903 1448 1529 
Q 2069 2156 2228 2338 
Q 2531 2678 2651 2914 
Q 2772 3150 2772 3378 
Q 2772 3750 2511 3984 
Q 2250 4219 1831 4219 
Q 1534 4219 1204 4116 
Q 875 4013 500 3803 
L 500 4441 
Q 881 4594 1212 4672 
Q 1544 4750 1819 4750 
Q 2544 4750 2975 4387 
Q 3406 4025 3406 3419 
Q 3406 3131 3298 2873 
Q 3191 2616 2906 2266 
Q 2828 2175 2409 1742 
Q 1991 1309 1228 531 
z
" transform="scale(0.015625)"/>
       </defs>
       <use xlink:href="#DejaVuSans-32"/>
       <use xlink:href="#DejaVuSans-30" x="63.623047"/>
      </g>
     </g>
    </g>
    <g id="xtick_3">
     <g id="text_3">
      <!-- 40 -->
      <g transform="translate(413.448625 287.06881) scale(0.08 -0.08)">
       <defs>
        <path id="DejaVuSans-34" d="M 2419 4116 
L 825 1625 
L 2419 1625 
L 2419 4116 
z
M 2253 4666 
L 3047 4666 
L 3047 1625 
L 3713 1625 
L 3713 1100 
L 3047 1100 
L 3047 0 
L 2419 0 
L 2419 1100 
L 313 1100 
L 313 1709 
L 2253 4666 
z
" transform="scale(0.015625)"/>
       </defs>
       <use xlink:href="#DejaVuSans-34"/>
       <use xlink:href="#DejaVuSans-30" x="63.623047"/>
      </g>
     </g>
    </g>
    <g id="xtick_4">
     <g id="text_4">
      <!-- 60 -->
      <g transform="translate(602.417625 287.06881) scale(0.08 -0.08)">
       <defs>
        <path id="DejaVuSans-36" d="M 2113 2584 
Q 1688 2584 1439 2293 
Q 1191 2003 1191 1497 
Q 1191 994 1439 701 
Q 1688 409 2113 409 
Q 2538 409 2786 701 
Q 3034 994 3034 1497 
Q 3034 2003 2786 2293 
Q 2538 2584 2113 2584 
z
M 3366 4563 
L 3366 3988 
Q 3128 4100 2886 4159 
Q 2644 4219 2406 4219 
Q 1781 4219 1451 3797 
Q 1122 3375 1075 2522 
Q 1259 2794 1537 2939 
Q 1816 3084 2150 3084 
Q 2853 3084 3261 2657 
Q 3669 2231 3669 1497 
Q 3669 778 3244 343 
Q 2819 -91 2113 -91 
Q 1303 -91 875 529 
Q 447 1150 447 2328 
Q 447 3434 972 4092 
Q 1497 4750 2381 4750 
Q 2619 4750 2861 4703 
Q 3103 4656 3366 4563 
z
" transform="scale(0.015625)"/>
       </defs>
       <use xlink:href="#DejaVuSans-36"/>
       <use xlink:href="#DejaVuSans-30" x="63.623047"/>
      </g>
     </g>
    </g>
    <g id="xtick_5">
     <g id="text_5">
      <!-- 80 -->
      <g transform="translate(791.386625 287.06881) scale(0.08 -0.08)">
       <defs>
        <path id="DejaVuSans-38" d="M 2034 2216 
Q 1584 2216 1326 1975 
Q 1069 1734 1069 1313 
Q 1069 891 1326 650 
Q 1584 409 2034 409 
Q 2484 409 2743 651 
Q 3003 894 3003 1313 
Q 3003 1734 2745 1975 
Q 2488 2216 2034 2216 
z
M 1403 2484 
Q 997 2584 770 2862 
Q 544 3141 544 3541 
Q 544 4100 942 4425 
Q 1341 4750 2034 4750 
Q 2731 4750 3128 4425 
Q 3525 4100 3525 3541 
Q 3525 3141 3298 2862 
Q 3072 2584 2669 2484 
Q 3125 2378 3379 2068 
Q 3634 1759 3634 1313 
Q 3634 634 3220 271 
Q 2806 -91 2034 -91 
Q 1263 -91 848 271 
Q 434 634 434 1313 
Q 434 1759 690 2068 
Q 947 2378 1403 2484 
z
M 1172 3481 
Q 1172 3119 1398 2916 
Q 1625 2713 2034 2713 
Q 2441 2713 2670 2916 
Q 2900 3119 2900 3481 
Q 2900 3844 2670 4047 
Q 2441 4250 2034 4250 
Q 1625 4250 1398 4047 
Q 1172 3844 1172 3481 
z
" transform="scale(0.015625)"/>
       </defs>
       <use xlink:href="#DejaVuSans-38"/>
       <use xlink:href="#DejaVuSans-30" x="63.623047"/>
      </g>
     </g>
    </g>
    <g id="xtick_6">
     <g id="text_6">
      <!-- 100 -->
      <g transform="translate(977.810625 287.06881) scale(0.08 -0.08)">
       <defs>
        <path id="DejaVuSans-31" d="M 794 531 
L 1825 531 
L 1825 4091 
L 703 3866 
L 703 4441 
L 1819 4666 
L 2450 4666 
L 2450 531 
L 3481 531 
L 3481 0 
L 794 0 
L 794 531 
z
" transform="scale(0.015625)"/>
       </defs>
       <use xlink:href="#DejaVuSans-31"/>
       <use xlink:href="#DejaVuSans-30" x="63.623047"/>
       <use xlink:href="#DejaVuSans-30" x="127.246094"/>
      </g>
     </g>
    </g>
    <g id="text_7">
     <!-- % GC -->
     <g transform="translate(499.317656 300.330997) scale(0.1 -0.1)">
      <defs>
       <path id="DejaVuSans-25" d="M 4653 2053 
Q 4381 2053 4226 1822 
Q 4072 1591 4072 1178 
Q 4072 772 4226 539 
Q 4381 306 4653 306 
Q 4919 306 5073 539 
Q 5228 772 5228 1178 
Q 5228 1588 5073 1820 
Q 4919 2053 4653 2053 
z
M 4653 2450 
Q 5147 2450 5437 2106 
Q 5728 1763 5728 1178 
Q 5728 594 5436 251 
Q 5144 -91 4653 -91 
Q 4153 -91 3862 251 
Q 3572 594 3572 1178 
Q 3572 1766 3864 2108 
Q 4156 2450 4653 2450 
z
M 1428 4353 
Q 1159 4353 1004 4120 
Q 850 3888 850 3481 
Q 850 3069 1003 2837 
Q 1156 2606 1428 2606 
Q 1700 2606 1854 2837 
Q 2009 3069 2009 3481 
Q 2009 3884 1853 4118 
Q 1697 4353 1428 4353 
z
M 4250 4750 
L 4750 4750 
L 1831 -91 
L 1331 -91 
L 4250 4750 
z
M 1428 4750 
Q 1922 4750 2215 4408 
Q 2509 4066 2509 3481 
Q 2509 2891 2217 2550 
Q 1925 2209 1428 2209 
Q 931 2209 642 2551 
Q 353 2894 353 3481 
Q 353 4063 643 4406 
Q 934 4750 1428 4750 
z
" transform="scale(0.015625)"/>
       <path id="DejaVuSans-20" transform="scale(0.015625)"/>
       <path id="DejaVuSans-47" d="M 3809 666 
L 3809 1919 
L 2778 1919 
L 2778 2438 
L 4434 2438 
L 4434 434 
Q 4069 175 3628 42 
Q 3188 -91 2688 -91 
Q 1594 -91 976 548 
Q 359 1188 359 2328 
Q 359 3472 976 4111 
Q 1594 4750 2688 4750 
Q 3144 4750 3555 4637 
Q 3966 4525 4313 4306 
L 4313 3634 
Q 3963 3931 3569 4081 
Q 3175 4231 2741 4231 
Q 1884 4231 1454 3753 
Q 1025 3275 1025 2328 
Q 1025 1384 1454 906 
Q 1884 428 2741 428 
Q 3075 428 3337 486 
Q 3600 544 3809 666 
z
" transform="scale(0.015625)"/>
       <path id="DejaVuSans-43" d="M 4122 4306 
L 4122 3641 
Q 3803 3938 3442 4084 
Q 3081 4231 2675 4231 
Q 1875 4231 1450 3742 
Q 1025 3253 1025 2328 
Q 1025 1406 1450 917 
Q 1875 428 2675 428 
Q 3081 428 3442 575 
Q 3803 722 4122 1019 
L 4122 359 
Q 3791 134 3420 21 
Q 3050 -91 2638 -91 
Q 1578 -91 968 557 
Q 359 1206 359 2328 
Q 359 3453 968 4101 
Q 1578 4750 2638 4750 
Q 3056 4750 3426 4639 
Q 3797 4528 4122 4306 
z
" transform="scale(0.015625)"/>
      </defs>
      <use xlink:href="#DejaVuSans-25"/>
      <use xlink:href="#DejaVuSans-20" x="95.019531"/>
      <use xlink:href="#DejaVuSans-47" x="126.806641"/>
      <use xlink:href="#DejaVuSans-43" x="204.296875"/>
     </g>
    </g>
   </g>
   <g id="matplotlib.axis_2">
    <g id="ytick_1">
     <g id="line2d_1">
      <path d="M 40.600625 273.99006 
L 985.445625 273.99006 
" clip-path="url(#p31226549df)" style="fill: none; stroke: #dedede; stroke-linecap: square"/>
     </g>
     <g id="text_8">
      <!-- 0.0 -->
      <g transform="translate(20.878125 277.029435) scale(0.08 -0.08)">
       <defs>
        <path id="DejaVuSans-2e" d="M 684 794 
L 1344 794 
L 1344 0 
L 684 0 
L 684 794 
z
" transform="scale(0.015625)"/>
       </defs>
       <use xlink:href="#DejaVuSans-30"/>
       <use xlink:href="#DejaVuSans-2e" x="63.623047"/>
       <use xlink:href="#DejaVuSans-30" x="95.410156"/>
      </g>
     </g>
    </g>
    <g id="ytick_2">
     <g id="line2d_2">
      <path d="M 40.600625 244.626113 
L 985.445625 244.626113 
" clip-path="url(#p31226549df)" style="fill: none; stroke: #dedede; stroke-linecap: square"/>
     </g>
     <g id="text_9">
      <!-- 0.2 -->
      <g transform="translate(20.878125 247.665488) scale(0.08 -0.08)">
       <use xlink:href="#DejaVuSans-30"/>
       <use xlink:href="#DejaVuSans-2e" x="63.623047"/>
       <use xlink:href="#DejaVuSans-32" x="95.410156"/>
      </g>
     </g>
    </g>
    <g id="ytick_3">
     <g id="line2d_3">
      <path d="M 40.600625 215.262167 
L 985.445625 215.262167 
" clip-path="url(#p31226549df)" style="fill: none; stroke: #dedede; stroke-linecap: square"/>
     </g>
     <g id="text_10">
      <!-- 0.4 -->
      <g transform="translate(20.878125 218.301542) scale(0.08 -0.08)">
       <use xlink:href="#DejaVuSans-30"/>
       <use xlink:href="#DejaVuSans-2e" x="63.623047"/>
       <use xlink:href="#DejaVuSans-34" x="95.410156"/>
      </g>
     </g>
    </g>
    <g id="ytick_4">
     <g id="line2d_4">
      <path d="M 40.600625 185.89822 
L 985.445625 185.89822 
" clip-path="url(#p31226549df)" style="fill: none; stroke: #dedede; stroke-linecap: square"/>
     </g>
     <g id="text_11">
      <!-- 0.6 -->
      <g transform="translate(20.878125 188.937595) scale(0.08 -0.08)">
       <use xlink:href="#DejaVuSans-30"/>
       <use xlink:href="#DejaVuSans-2e" x="63.623047"/>
       <use xlink:href="#DejaVuSans-36" x="95.410156"/>
      </g>
     </g>
    </g>
    <g id="ytick_5">
     <g id="line2d_5">
      <path d="M 40.600625 156.534274 
L 985.445625 156.534274 
" clip-path="url(#p31226549df)" style="fill: none; stroke: #dedede; stroke-linecap: square"/>
     </g>
     <g id="text_12">
      <!-- 0.8 -->
      <g transform="translate(20.878125 159.573649) scale(0.08 -0.08)">
       <use xlink:href="#DejaVuSans-30"/>
       <use xlink:href="#DejaVuSans-2e" x="63.623047"/>
       <use xlink:href="#DejaVuSans-38" x="95.410156"/>
      </g>
     </g>
    </g>
    <g id="ytick_6">
     <g id="line2d_6">
      <path d="M 40.600625 127.170327 
L 985.445625 127.170327 
" clip-path="url(#p31226549df)" style="fill: none; stroke: #dedede; stroke-linecap: square"/>
     </g>
     <g id="text_13">
      <!-- 1.0 -->
      <g transform="translate(20.878125 130.209702) scale(0.08 -0.08)">
       <use xlink:href="#DejaVuSans-31"/>
       <use xlink:href="#DejaVuSans-2e" x="63.623047"/>
       <use xlink:href="#DejaVuSans-30" x="95.410156"/>
      </g>
     </g>
    </g>
    <g id="ytick_7">
     <g id="line2d_7">
      <path d="M 40.600625 97.80638 
L 985.445625 97.80638 
" clip-path="url(#p31226549df)" style="fill: none; stroke: #dedede; stroke-linecap: square"/>
     </g>
     <g id="text_14">
      <!-- 1.2 -->
      <g transform="translate(20.878125 100.845755) scale(0.08 -0.08)">
       <use xlink:href="#DejaVuSans-31"/>
       <use xlink:href="#DejaVuSans-2e" x="63.623047"/>
       <use xlink:href="#DejaVuSans-32" x="95.410156"/>
      </g>
     </g>
    </g>
    <g id="ytick_8">
     <g id="line2d_8">
      <path d="M 40.600625 68.442434 
L 985.445625 68.442434 
" clip-path="url(#p31226549df)" style="fill: none; stroke: #dedede; stroke-linecap: square"/>
     </g>
     <g id="text_15">
      <!-- 1.4 -->
      <g transform="translate(20.878125 71.481809) scale(0.08 -0.08)">
       <use xlink:href="#DejaVuSans-31"/>
       <use xlink:href="#DejaVuSans-2e" x="63.623047"/>
       <use xlink:href="#DejaVuSans-34" x="95.410156"/>
      </g>
     </g>
    </g>
    <g id="ytick_9">
     <g id="line2d_9">
      <path d="M 40.600625 39.078487 
L 985.445625 39.078487 
" clip-path="url(#p31226549df)" style="fill: none; stroke: #dedede; stroke-linecap: square"/>
     </g>
     <g id="text_16">
      <!-- 1.6 -->
      <g transform="translate(20.878125 42.117862) scale(0.08 -0.08)">
       <use xlink:href="#DejaVuSans-31"/>
       <use xlink:href="#DejaVuSans-2e" x="63.623047"/>
       <use xlink:href="#DejaVuSans-36" x="95.410156"/>
      </g>
     </g>
    </g>
    <g id="text_17">
     <!-- Count -->
     <g transform="translate(14.798438 167.584897) rotate(-90) scale(0.1 -0.1)">
      <defs>
       <path id="DejaVuSans-6f" d="M 1959 3097 
Q 1497 3097 1228 2736 
Q 959 2375 959 1747 
Q 959 1119 1226 758 
Q 1494 397 1959 397 
Q 2419 397 2687 759 
Q 2956 1122 2956 1747 
Q 2956 2369 2687 2733 
Q 2419 3097 1959 3097 
z
M 1959 3584 
Q 2709 3584 3137 3096 
Q 3566 2609 3566 1747 
Q 3566 888 3137 398 
Q 2709 -91 1959 -91 
Q 1206 -91 779 398 
Q 353 888 353 1747 
Q 353 2609 779 3096 
Q 1206 3584 1959 3584 
z
" transform="scale(0.015625)"/>
       <path id="DejaVuSans-75" d="M 544 1381 
L 544 3500 
L 1119 3500 
L 1119 1403 
Q 1119 906 1312 657 
Q 1506 409 1894 409 
Q 2359 409 2629 706 
Q 2900 1003 2900 1516 
L 2900 3500 
L 3475 3500 
L 3475 0 
L 2900 0 
L 2900 538 
Q 2691 219 2414 64 
Q 2138 -91 1772 -91 
Q 1169 -91 856 284 
Q 544 659 544 1381 
z
M 1991 3584 
L 1991 3584 
z
" transform="scale(0.015625)"/>
       <path id="DejaVuSans-6e" d="M 3513 2113 
L 3513 0 
L 2938 0 
L 2938 2094 
Q 2938 2591 2744 2837 
Q 2550 3084 2163 3084 
Q 1697 3084 1428 2787 
Q 1159 2491 1159 1978 
L 1159 0 
L 581 0 
L 581 3500 
L 1159 3500 
L 1159 2956 
Q 1366 3272 1645 3428 
Q 1925 3584 2291 3584 
Q 2894 3584 3203 3211 
Q 3513 2838 3513 2113 
z
" transform="scale(0.015625)"/>
       <path id="DejaVuSans-74" d="M 1172 4494 
L 1172 3500 
L 2356 3500 
L 2356 3053 
L 1172 3053 
L 1172 1153 
Q 1172 725 1289 603 
Q 1406 481 1766 481 
L 2356 481 
L 2356 0 
L 1766 0 
Q 1100 0 847 248 
Q 594 497 594 1153 
L 594 3053 
L 172 3053 
L 172 3500 
L 594 3500 
L 594 4494 
L 1172 4494 
z
" transform="scale(0.015625)"/>
      </defs>
      <use xlink:href="#DejaVuSans-43"/>
      <use xlink:href="#DejaVuSans-6f" x="69.824219"/>
      <use xlink:href="#DejaVuSans-75" x="131.005859"/>
      <use xlink:href="#DejaVuSans-6e" x="194.384766"/>
      <use xlink:href="#DejaVuSans-74" x="257.763672"/>
     </g>
    </g>
    <g id="text_18">
     <!-- 1e6 -->
     <g transform="translate(40.600625 28.48286) scale(0.1 -0.1)">
      <defs>
       <path id="DejaVuSans-65" d="M 3597 1894 
L 3597 1613 
L 953 1613 
Q 991 1019 1311 708 
Q 1631 397 2203 397 
Q 2534 397 2845 478 
Q 3156 559 3463 722 
L 3463 178 
Q 3153 47 2828 -22 
Q 2503 -91 2169 -91 
Q 1331 -91 842 396 
Q 353 884 353 1716 
Q 353 2575 817 3079 
Q 1281 3584 2069 3584 
Q 2775 3584 3186 3129 
Q 3597 2675 3597 1894 
z
M 3022 2063 
Q 3016 2534 2758 2815 
Q 2500 3097 2075 3097 
Q 1594 3097 1305 2825 
Q 1016 2553 972 2059 
L 3022 2063 
z
" transform="scale(0.015625)"/>
      </defs>
      <use xlink:href="#DejaVuSans-31"/>
      <use xlink:href="#DejaVuSans-65" x="63.623047"/>
      <use xlink:href="#DejaVuSans-36" x="125.146484"/>
     </g>
    </g>
   </g>
   <g id="line2d_10">
    <path d="M 40.600625 273.975672 
L 50.049075 273.968404 
L 59.497525 273.954603 
L 68.945975 273.941463 
L 78.394425 273.925019 
L 87.842875 273.908942 
L 97.291325 273.894554 
L 106.739775 273.873191 
L 116.188225 273.837881 
L 125.636675 273.802424 
L 135.085125 273.774749 
L 144.533575 273.743256 
L 153.982025 273.706037 
L 163.430475 273.661037 
L 172.878925 273.606126 
L 182.327375 273.543801 
L 191.775825 273.433173 
L 201.224275 273.226304 
L 210.672725 272.958651 
L 220.121175 272.596888 
L 229.569625 272.012765 
L 239.018075 270.059916 
L 248.466525 268.480723 
L 257.914975 267.775034 
L 267.363425 265.426726 
L 276.811875 262.358487 
L 286.260325 258.773589 
L 295.708775 253.543136 
L 305.157225 246.783556 
L 314.605675 238.927232 
L 324.054125 228.842625 
L 333.502575 218.582568 
L 342.951025 209.793205 
L 352.399475 199.847636 
L 361.847925 187.532617 
L 371.296375 176.966956 
L 380.744825 169.99177 
L 390.193275 162.837392 
L 399.641725 156.419387 
L 409.090175 149.791357 
L 418.538625 142.782623 
L 427.987075 137.291933 
L 437.435525 131.223212 
L 446.883975 125.730246 
L 456.332425 124.354692 
L 465.780875 125.746029 
L 475.229325 126.458325 
L 484.677775 124.35359 
L 494.126225 122.9243 
L 503.574675 121.984801 
L 513.023125 122.721028 
L 522.471575 118.729807 
L 531.920025 116.877823 
L 541.368475 121.244756 
L 550.816925 116.166482 
L 560.265375 110.288113 
L 569.713825 107.990091 
L 579.162275 112.723559 
L 588.610725 120.594638 
L 598.059175 110.397127 
L 607.507625 94.094557 
L 616.956075 114.536783 
L 626.404525 141.492078 
L 635.852975 154.122906 
L 645.301425 176.191821 
L 654.749875 194.817592 
L 664.198325 207.076673 
L 673.646775 215.605431 
L 683.095225 223.015937 
L 692.543675 231.927675 
L 701.992125 239.572064 
L 711.440575 243.370805 
L 720.889025 246.177264 
L 730.337475 248.571086 
L 739.785925 248.643542 
L 749.234375 247.722028 
L 758.682825 246.917235 
L 768.131275 239.955925 
L 777.579725 235.737133 
L 787.028175 244.852803 
L 796.476625 249.832488 
L 805.925075 243.569085 
L 815.373525 235.80188 
L 824.821975 240.107516 
L 834.270425 250.485689 
L 843.718875 254.748453 
L 853.167325 252.89089 
L 862.615775 251.366093 
L 872.064225 257.011239 
L 881.512675 265.364254 
L 890.961125 271.135958 
L 900.409575 272.807868 
L 909.858025 273.362185 
L 919.306475 273.632627 
L 928.754925 273.774969 
L 938.203375 273.877816 
L 947.651825 273.93537 
L 957.100275 273.955411 
L 966.548725 273.967083 
L 975.997175 273.977213 
L 985.445625 273.979489 
" clip-path="url(#p31226549df)" style="fill: none; stroke: #d9534f; stroke-linecap: square"/>
   </g>
   <g id="line2d_11">
    <path d="M 40.600625 273.94205 
L 50.049075 273.952034 
L 59.497525 273.960769 
L 68.945975 273.958347 
L 78.394425 273.953942 
L 87.842875 273.943004 
L 97.291325 273.933975 
L 106.739775 273.926487 
L 116.188225 273.902922 
L 125.636675 273.874513 
L 135.085125 273.847938 
L 144.533575 273.816372 
L 153.982025 273.771445 
L 163.430475 273.726812 
L 172.878925 273.677774 
L 182.327375 273.596583 
L 191.775825 273.486615 
L 201.224275 273.325407 
L 210.672725 273.068179 
L 220.121175 272.636382 
L 229.569625 271.991036 
L 239.018075 271.021145 
L 248.466525 269.598315 
L 257.914975 267.27592 
L 267.363425 263.978276 
L 276.811875 260.623298 
L 286.260325 256.470061 
L 295.708775 250.215761 
L 305.157225 242.075121 
L 314.605675 233.962743 
L 324.054125 225.928914 
L 333.502575 216.839745 
L 342.951025 207.615722 
L 352.399475 198.084258 
L 361.847925 189.590369 
L 371.296375 181.289916 
L 380.744825 173.122187 
L 390.193275 165.582333 
L 399.641725 158.706472 
L 409.090175 152.497979 
L 418.538625 146.250359 
L 427.987075 139.324064 
L 437.435525 132.039457 
L 446.883975 128.159305 
L 456.332425 129.26449 
L 465.780875 130.008499 
L 475.229325 129.562828 
L 484.677775 129.724036 
L 494.126225 129.378422 
L 503.574675 130.275344 
L 513.023125 131.714985 
L 522.471575 130.816228 
L 531.920025 124.846464 
L 541.368475 121.348044 
L 550.816925 122.139329 
L 560.265375 122.15335 
L 569.713825 119.813043 
L 579.162275 117.603847 
L 588.610725 115.60541 
L 598.059175 105.488429 
L 607.507625 97.764023 
L 616.956075 102.155401 
L 626.404525 120.961027 
L 635.852975 149.671038 
L 645.301425 172.429198 
L 654.749875 190.763092 
L 664.198325 205.472154 
L 673.646775 213.686497 
L 683.095225 219.580209 
L 692.543675 227.259541 
L 701.992125 235.311502 
L 711.440575 240.046365 
L 720.889025 243.592649 
L 730.337475 246.847202 
L 739.785925 247.602443 
L 749.234375 244.257449 
L 758.682825 242.291606 
L 768.131275 239.192976 
L 777.579725 234.119987 
L 787.028175 240.580275 
L 796.476625 248.304682 
L 805.925075 247.385297 
L 815.373525 245.816748 
L 824.821975 247.057815 
L 834.270425 249.242713 
L 843.718875 250.779916 
L 853.167325 250.105059 
L 862.615775 246.80389 
L 872.064225 247.584311 
L 881.512675 251.62824 
L 890.961125 254.650451 
L 900.409575 258.257371 
L 909.858025 263.783666 
L 919.306475 268.66366 
L 928.754925 271.459402 
L 938.203375 272.876579 
L 947.651825 273.466648 
L 957.100275 273.675719 
L 966.548725 273.444551 
L 975.997175 272.128679 
L 985.445625 267.741412 
" clip-path="url(#p31226549df)" style="fill: none; stroke: #d9534f; stroke-linecap: square"/>
   </g>
   <g id="line2d_12">
    <path d="M 40.600625 273.97714 
L 50.049075 273.970166 
L 59.497525 273.95497 
L 68.945975 273.942637 
L 78.394425 273.930084 
L 87.842875 273.91342 
L 97.291325 273.899692 
L 106.739775 273.883395 
L 116.188225 273.850948 
L 125.636675 273.812188 
L 135.085125 273.7793 
L 144.533575 273.742962 
L 153.982025 273.708533 
L 163.430475 273.672122 
L 172.878925 273.617211 
L 182.327375 273.553859 
L 191.775825 273.447047 
L 201.224275 273.250602 
L 210.672725 272.981408 
L 220.121175 272.617736 
L 229.569625 272.065694 
L 239.018075 270.201817 
L 248.466525 268.676874 
L 257.914975 267.983591 
L 267.363425 265.748041 
L 276.811875 262.816124 
L 286.260325 259.352573 
L 295.708775 254.292578 
L 305.157225 247.715788 
L 314.605675 240.129539 
L 324.054125 230.39517 
L 333.502575 220.406363 
L 342.951025 211.883037 
L 352.399475 202.292846 
L 361.847925 190.382168 
L 371.296375 180.202716 
L 380.744825 173.303436 
L 390.193275 166.220779 
L 399.641725 159.886609 
L 409.090175 153.362527 
L 418.538625 146.619684 
L 427.987075 141.404867 
L 437.435525 135.482453 
L 446.883975 130.135719 
L 456.332425 128.788134 
L 465.780875 130.029935 
L 475.229325 130.758895 
L 484.677775 128.675596 
L 494.126225 127.234634 
L 503.574675 126.412811 
L 513.023125 127.360091 
L 522.471575 123.358373 
L 531.920025 121.418003 
L 541.368475 125.569845 
L 550.816925 120.345045 
L 560.265375 114.700487 
L 569.713825 112.650296 
L 579.162275 117.234228 
L 588.610725 124.774963 
L 598.059175 114.811629 
L 607.507625 99.057064 
L 616.956075 118.938879 
L 626.404525 144.932358 
L 635.852975 157.240036 
L 645.301425 178.872162 
L 654.749875 196.98032 
L 664.198325 208.801805 
L 673.646775 217.090807 
L 683.095225 224.266107 
L 692.543675 232.874515 
L 701.992125 240.267329 
L 711.440575 243.878434 
L 720.889025 246.687242 
L 730.337475 249.021089 
L 739.785925 249.023511 
L 749.234375 248.11477 
L 758.682825 247.295076 
L 768.131275 240.477942 
L 777.579725 236.289175 
L 787.028175 245.151655 
L 796.476625 249.995238 
L 805.925075 243.846134 
L 815.373525 236.30048 
L 824.821975 240.609272 
L 834.270425 250.779769 
L 843.718875 254.871268 
L 853.167325 253.122278 
L 862.615775 251.619945 
L 872.064225 257.086778 
L 881.512675 265.374164 
L 890.961125 271.136839 
L 900.409575 272.802068 
L 909.858025 273.353523 
L 919.306475 273.632334 
L 928.754925 273.774235 
L 938.203375 273.876642 
L 947.651825 273.937792 
L 957.100275 273.956659 
L 966.548725 273.968624 
L 975.997175 273.978828 
L 985.445625 273.980664 
" clip-path="url(#p31226549df)" style="fill: none; stroke: #d9534f; stroke-linecap: square"/>
   </g>
   <g id="line2d_13">
    <path d="M 40.600625 273.946455 
L 50.049075 273.957833 
L 59.497525 273.965468 
L 68.945975 273.961577 
L 78.394425 273.954897 
L 87.842875 273.941169 
L 97.291325 273.931552 
L 106.739775 273.921642 
L 116.188225 273.899692 
L 125.636675 273.8751 
L 135.085125 273.857188 
L 144.533575 273.832816 
L 153.982025 273.787816 
L 163.430475 273.740687 
L 172.878925 273.692163 
L 182.327375 273.614055 
L 191.775825 273.501811 
L 201.224275 273.343246 
L 210.672725 273.091523 
L 220.121175 272.674482 
L 229.569625 272.06173 
L 239.018075 271.132728 
L 248.466525 269.785657 
L 257.914975 267.574405 
L 267.363425 264.400529 
L 276.811875 261.166311 
L 286.260325 257.156957 
L 295.708775 251.113637 
L 305.157225 243.18449 
L 314.605675 235.262979 
L 324.054125 227.553621 
L 333.502575 218.732912 
L 342.951025 209.86478 
L 352.399475 200.495846 
L 361.847925 192.053124 
L 371.296375 184.254647 
L 380.744825 176.249007 
L 390.193275 168.74439 
L 399.641725 162.079361 
L 409.090175 156.17963 
L 418.538625 150.248187 
L 427.987075 143.392806 
L 437.435525 136.087056 
L 446.883975 132.187157 
L 456.332425 133.477923 
L 465.780875 134.491493 
L 475.229325 134.009043 
L 484.677775 134.046482 
L 494.126225 133.560436 
L 503.574675 134.492227 
L 513.023125 136.013206 
L 522.471575 135.001838 
L 531.920025 129.135582 
L 541.368475 125.658524 
L 550.816925 126.273992 
L 560.265375 126.463977 
L 569.713825 124.310719 
L 579.162275 122.255757 
L 588.610725 120.524605 
L 598.059175 110.47685 
L 607.507625 102.59586 
L 616.956075 106.724578 
L 626.404525 125.250292 
L 635.852975 153.189793 
L 645.301425 175.260837 
L 654.749875 193.090332 
L 664.198325 207.205874 
L 673.646775 215.028063 
L 683.095225 220.745884 
L 692.543675 228.389833 
L 701.992125 236.274934 
L 711.440575 240.822381 
L 720.889025 244.234619 
L 730.337475 247.399098 
L 739.785925 248.205065 
L 749.234375 244.822338 
L 758.682825 242.805328 
L 768.131275 239.707359 
L 777.579725 234.725398 
L 787.028175 241.108459 
L 796.476625 248.647653 
L 805.925075 247.751025 
L 815.373525 246.223365 
L 824.821975 247.556635 
L 834.270425 249.681043 
L 843.718875 251.049403 
L 853.167325 250.184929 
L 862.615775 246.745676 
L 872.064225 247.565224 
L 881.512675 251.958144 
L 890.961125 255.307689 
L 900.409575 258.818737 
L 909.858025 264.208342 
L 919.306475 268.990848 
L 928.754925 271.639256 
L 938.203375 272.95131 
L 947.651825 273.493809 
L 957.100275 273.690841 
L 966.548725 273.475163 
L 975.997175 272.271829 
L 985.445625 268.18077 
" clip-path="url(#p31226549df)" style="fill: none; stroke: #d9534f; stroke-linecap: square"/>
   </g>
   <g id="line2d_14">
    <path d="M 40.600625 273.970827 
L 50.049075 273.964954 
L 59.497525 273.949905 
L 68.945975 273.93537 
L 78.394425 273.922743 
L 87.842875 273.905859 
L 97.291325 273.886405 
L 106.739775 273.85873 
L 116.188225 273.810059 
L 125.636675 273.761021 
L 135.085125 273.722187 
L 144.533575 273.670287 
L 153.982025 273.615082 
L 163.430475 273.55518 
L 172.878925 273.479935 
L 182.327375 273.405497 
L 191.775825 273.2738 
L 201.224275 273.028538 
L 210.672725 272.685713 
L 220.121175 272.246502 
L 229.569625 271.584565 
L 239.018075 269.199479 
L 248.466525 267.3392 
L 257.914975 266.611047 
L 267.363425 263.893707 
L 276.811875 260.338688 
L 286.260325 256.1359 
L 295.708775 250.089129 
L 305.157225 242.466028 
L 314.605675 233.530799 
L 324.054125 221.73053 
L 333.502575 209.389671 
L 342.951025 198.61413 
L 352.399475 186.13761 
L 361.847925 170.850886 
L 371.296375 157.770129 
L 380.744825 147.887472 
L 390.193275 138.380234 
L 399.641725 130.624481 
L 409.090175 122.458955 
L 418.538625 114.075915 
L 427.987075 107.08414 
L 437.435525 98.295951 
L 446.883975 90.408354 
L 456.332425 87.976726 
L 465.780875 89.348536 
L 475.229325 90.799555 
L 484.677775 87.853471 
L 494.126225 85.960377 
L 503.574675 83.388462 
L 513.023125 83.118314 
L 522.471575 77.366284 
L 531.920025 74.849353 
L 541.368475 82.533384 
L 550.816925 74.013068 
L 560.265375 64.760342 
L 569.713825 57.397405 
L 579.162275 59.538404 
L 588.610725 74.494417 
L 598.059175 69.589022 
L 607.507625 45.080551 
L 616.956075 66.670026 
L 626.404525 106.450979 
L 635.852975 122.706787 
L 645.301425 148.244244 
L 654.749875 171.272038 
L 664.198325 187.688026 
L 673.646775 199.415766 
L 683.095225 209.772724 
L 692.543675 220.837279 
L 701.992125 230.165691 
L 711.440575 235.007292 
L 720.889025 238.529938 
L 730.337475 241.494081 
L 739.785925 242.26628 
L 749.234375 242.552945 
L 758.682825 241.702859 
L 768.131275 233.974415 
L 777.579725 229.556536 
L 787.028175 239.81439 
L 796.476625 246.399696 
L 805.925075 241.186421 
L 815.373525 233.901299 
L 824.821975 237.358316 
L 834.270425 246.697373 
L 843.718875 250.190214 
L 853.167325 246.60539 
L 862.615775 244.358681 
L 872.064225 251.866969 
L 881.512675 262.590095 
L 890.961125 270.041931 
L 900.409575 272.325491 
L 909.858025 273.139093 
L 919.306475 273.473695 
L 928.754925 273.656339 
L 938.203375 273.818575 
L 947.651825 273.925753 
L 957.100275 273.956145 
L 966.548725 273.967743 
L 975.997175 273.97758 
L 985.445625 273.979195 
" clip-path="url(#p31226549df)" style="fill: none; stroke: #d9534f; stroke-linecap: square"/>
   </g>
   <g id="line2d_15">
    <path d="M 40.600625 273.938379 
L 50.049075 273.948877 
L 59.497525 273.955778 
L 68.945975 273.952548 
L 78.394425 273.947849 
L 87.842875 273.931112 
L 97.291325 273.918265 
L 106.739775 273.908355 
L 116.188225 273.879505 
L 125.636675 273.848819 
L 135.085125 273.822318 
L 144.533575 273.781503 
L 153.982025 273.724169 
L 163.430475 273.66992 
L 172.878925 273.602015 
L 182.327375 273.486028 
L 191.775825 273.331133 
L 201.224275 273.123897 
L 210.672725 272.80038 
L 220.121175 272.271168 
L 229.569625 271.499116 
L 239.018075 270.368091 
L 248.466525 268.701466 
L 257.914975 265.968417 
L 267.363425 262.429107 
L 276.811875 258.587642 
L 286.260325 253.531905 
L 295.708775 246.384867 
L 305.157225 237.083103 
L 314.605675 227.365178 
L 324.054125 217.638151 
L 333.502575 206.663669 
L 342.951025 194.88256 
L 352.399475 182.16665 
L 361.847925 171.302577 
L 371.296375 160.894453 
L 380.744825 150.168904 
L 390.193275 140.594202 
L 399.641725 132.017067 
L 409.090175 124.695313 
L 418.538625 117.011136 
L 427.987075 107.785351 
L 437.435525 97.292658 
L 446.883975 91.007526 
L 456.332425 92.820456 
L 465.780875 95.013796 
L 475.229325 95.131839 
L 484.677775 95.08882 
L 494.126225 93.735803 
L 503.574675 94.09118 
L 513.023125 95.273006 
L 522.471575 94.032673 
L 531.920025 87.824841 
L 541.368475 84.163744 
L 550.816925 83.269832 
L 560.265375 82.052183 
L 569.713825 79.16578 
L 579.162275 73.711721 
L 588.610725 69.809986 
L 598.059175 57.914284 
L 607.507625 43.030434 
L 616.956075 49.648407 
L 626.404525 78.461853 
L 635.852975 114.582444 
L 645.301425 143.651576 
L 654.749875 167.653005 
L 664.198325 187.40092 
L 673.646775 197.113486 
L 683.095225 205.255301 
L 692.543675 215.958826 
L 701.992125 226.179609 
L 711.440575 232.34523 
L 720.889025 237.000076 
L 730.337475 241.279651 
L 739.785925 241.933586 
L 749.234375 237.119514 
L 758.682825 235.572328 
L 768.131275 233.332372 
L 777.579725 228.397541 
L 787.028175 235.911922 
L 796.476625 244.684034 
L 805.925075 244.659882 
L 815.373525 242.84152 
L 824.821975 243.021741 
L 834.270425 244.464832 
L 843.718875 245.595637 
L 853.167325 244.407205 
L 862.615775 241.348436 
L 872.064225 243.457502 
L 881.512675 248.816275 
L 890.961125 253.028019 
L 900.409575 257.391649 
L 909.858025 262.929469 
L 919.306475 267.607806 
L 928.754925 270.205635 
L 938.203375 271.65893 
L 947.651825 272.703552 
L 957.100275 273.224982 
L 966.548725 273.048505 
L 975.997175 271.542061 
L 985.445625 266.142105 
" clip-path="url(#p31226549df)" style="fill: none; stroke: #d9534f; stroke-linecap: square"/>
   </g>
   <g id="line2d_16">
    <path d="M 40.600625 273.973176 
L 50.049075 273.967523 
L 59.497525 273.954676 
L 68.945975 273.936544 
L 78.394425 273.9201 
L 87.842875 273.902335 
L 97.291325 273.880532 
L 106.739775 273.8555 
L 116.188225 273.81072 
L 125.636675 273.76293 
L 135.085125 273.723362 
L 144.533575 273.67638 
L 153.982025 273.621983 
L 163.430475 273.561787 
L 172.878925 273.492415 
L 182.327375 273.412471 
L 191.775825 273.272625 
L 201.224275 273.026923 
L 210.672725 272.686741 
L 220.121175 272.232408 
L 229.569625 271.576857 
L 239.018075 269.282432 
L 248.466525 267.458197 
L 257.914975 266.692238 
L 267.363425 264.008667 
L 276.811875 260.474202 
L 286.260325 256.31524 
L 295.708775 250.407214 
L 305.157225 242.730083 
L 314.605675 233.787807 
L 324.054125 222.192352 
L 333.502575 209.802528 
L 342.951025 198.882884 
L 352.399475 186.494675 
L 361.847925 171.486248 
L 371.296375 158.433607 
L 380.744825 148.32984 
L 390.193275 138.800285 
L 399.641725 131.213596 
L 409.090175 123.244147 
L 418.538625 114.784614 
L 427.987075 107.471597 
L 437.435525 98.511849 
L 446.883975 90.533078 
L 456.332425 88.127656 
L 465.780875 89.416734 
L 475.229325 90.681145 
L 484.677775 87.773821 
L 494.126225 85.892546 
L 503.574675 83.402557 
L 513.023125 83.418854 
L 522.471575 77.786409 
L 531.920025 74.911898 
L 541.368475 82.558123 
L 550.816925 74.335925 
L 560.265375 65.149854 
L 569.713825 57.914211 
L 579.162275 59.898113 
L 588.610725 74.666416 
L 598.059175 69.852344 
L 607.507625 45.663426 
L 616.956075 67.050069 
L 626.404525 106.381534 
L 635.852975 122.564886 
L 645.301425 148.257091 
L 654.749875 171.328858 
L 664.198325 187.551484 
L 673.646775 199.205814 
L 683.095225 209.502796 
L 692.543675 220.645165 
L 701.992125 229.954785 
L 711.440575 234.731711 
L 720.889025 238.123174 
L 730.337475 241.010531 
L 739.785925 241.846375 
L 749.234375 242.142878 
L 758.682825 241.21439 
L 768.131275 233.298971 
L 777.579725 228.820382 
L 787.028175 239.152527 
L 796.476625 245.755304 
L 805.925075 240.556491 
L 815.373525 233.285831 
L 824.821975 236.789904 
L 834.270425 246.097321 
L 843.718875 249.47601 
L 853.167325 245.893828 
L 862.615775 243.712674 
L 872.064225 251.36279 
L 881.512675 262.34219 
L 890.961125 269.958537 
L 900.409575 272.304056 
L 909.858025 273.141001 
L 919.306475 273.473622 
L 928.754925 273.657954 
L 938.203375 273.823566 
L 947.651825 273.92267 
L 957.100275 273.951079 
L 966.548725 273.964293 
L 975.997175 273.977213 
L 985.445625 273.981912 
" clip-path="url(#p31226549df)" style="fill: none; stroke: #d9534f; stroke-linecap: square"/>
   </g>
   <g id="line2d_17">
    <path d="M 40.600625 273.938379 
L 50.049075 273.951153 
L 59.497525 273.960256 
L 68.945975 273.956365 
L 78.394425 273.949391 
L 87.842875 273.929644 
L 97.291325 273.916136 
L 106.739775 273.905198 
L 116.188225 273.878917 
L 125.636675 273.853297 
L 135.085125 273.827751 
L 144.533575 273.787449 
L 153.982025 273.729822 
L 163.430475 273.678288 
L 172.878925 273.601648 
L 182.327375 273.486175 
L 191.775825 273.347577 
L 201.224275 273.14614 
L 210.672725 272.814695 
L 220.121175 272.272343 
L 229.569625 271.496253 
L 239.018075 270.380497 
L 248.466525 268.790953 
L 257.914975 266.122358 
L 267.363425 262.510959 
L 276.811875 258.649527 
L 286.260325 253.686506 
L 295.708775 246.652446 
L 305.157225 237.465054 
L 314.605675 227.834341 
L 324.054125 218.140201 
L 333.502575 207.080564 
L 342.951025 195.319642 
L 352.399475 182.706139 
L 361.847925 171.809325 
L 371.296375 161.339096 
L 380.744825 150.56429 
L 390.193275 141.059988 
L 399.641725 132.722829 
L 409.090175 125.182388 
L 418.538625 117.308299 
L 427.987075 108.151666 
L 437.435525 97.99497 
L 446.883975 91.714242 
L 456.332425 93.069535 
L 465.780875 95.273079 
L 475.229325 95.347884 
L 484.677775 95.30582 
L 494.126225 93.908243 
L 503.574675 94.272796 
L 513.023125 95.494997 
L 522.471575 94.129354 
L 531.920025 87.773968 
L 541.368475 84.026835 
L 550.816925 83.237458 
L 560.265375 82.159214 
L 569.713825 79.458759 
L 579.162275 74.146674 
L 588.610725 70.162353 
L 598.059175 58.331913 
L 607.507625 43.532631 
L 616.956075 50.123295 
L 626.404525 79.05985 
L 635.852975 114.983335 
L 645.301425 143.707514 
L 654.749875 167.573282 
L 664.198325 187.309158 
L 673.646775 197.225363 
L 683.095225 205.318066 
L 692.543675 215.8504 
L 701.992125 226.191354 
L 711.440575 232.424953 
L 720.889025 236.958526 
L 730.337475 241.15669 
L 739.785925 241.811506 
L 749.234375 236.784838 
L 758.682825 235.028801 
L 768.131275 232.758454 
L 777.579725 227.787652 
L 787.028175 235.309594 
L 796.476625 244.075539 
L 805.925075 244.064895 
L 815.373525 242.37478 
L 824.821975 242.633403 
L 834.270425 244.070327 
L 843.718875 245.167364 
L 853.167325 243.693955 
L 862.615775 240.27812 
L 872.064225 242.662546 
L 881.512675 248.702196 
L 890.961125 253.344269 
L 900.409575 257.787695 
L 909.858025 263.236909 
L 919.306475 267.795956 
L 928.754925 270.291671 
L 938.203375 271.708848 
L 947.651825 272.739303 
L 957.100275 273.241353 
L 966.548725 273.057461 
L 975.997175 271.564892 
L 985.445625 266.118907 
" clip-path="url(#p31226549df)" style="fill: none; stroke: #d9534f; stroke-linecap: square"/>
   </g>
   <g id="line2d_18">
    <path d="M 40.600625 273.968037 
L 50.049075 273.959008 
L 59.497525 273.942123 
L 68.945975 273.926928 
L 78.394425 273.912759 
L 87.842875 273.893379 
L 97.291325 273.875981 
L 106.739775 273.860125 
L 116.188225 273.828632 
L 125.636675 273.795377 
L 135.085125 273.768509 
L 144.533575 273.731143 
L 153.982025 273.67983 
L 163.430475 273.608989 
L 172.878925 273.515392 
L 182.327375 273.39867 
L 191.775825 273.158326 
L 201.224275 272.634033 
L 210.672725 272.140498 
L 220.121175 271.422477 
L 229.569625 270.14008 
L 239.018075 266.980445 
L 248.466525 264.225226 
L 257.914975 262.676572 
L 267.363425 258.831143 
L 276.811875 253.989982 
L 286.260325 248.765329 
L 295.708775 241.813194 
L 305.157225 233.381557 
L 314.605675 224.582944 
L 324.054125 214.615793 
L 333.502575 204.57993 
L 342.951025 196.399722 
L 352.399475 187.820164 
L 361.847925 177.365278 
L 371.296375 169.364043 
L 380.744825 164.799857 
L 390.193275 158.795665 
L 399.641725 152.660215 
L 409.090175 147.084368 
L 418.538625 141.066448 
L 427.987075 135.967031 
L 437.435525 129.899192 
L 446.883975 124.471927 
L 456.332425 124.549521 
L 465.780875 126.937691 
L 475.229325 126.921908 
L 484.677775 124.769237 
L 494.126225 124.252945 
L 503.574675 123.872462 
L 513.023125 124.04292 
L 522.471575 117.946891 
L 531.920025 115.537212 
L 541.368475 120.667828 
L 550.816925 111.192229 
L 560.265375 104.430593 
L 569.713825 106.876316 
L 579.162275 110.169483 
L 588.610725 117.805137 
L 598.059175 114.269204 
L 607.507625 100.65784 
L 616.956075 116.995426 
L 626.404525 137.862547 
L 635.852975 151.299856 
L 645.301425 175.022181 
L 654.749875 191.52494 
L 664.198325 203.693653 
L 673.646775 213.358062 
L 683.095225 221.956192 
L 692.543675 230.46858 
L 701.992125 238.719115 
L 711.440575 242.979163 
L 720.889025 245.818143 
L 730.337475 247.163819 
L 739.785925 247.034324 
L 749.234375 246.893964 
L 758.682825 246.211546 
L 768.131275 238.464456 
L 777.579725 236.160414 
L 787.028175 247.177914 
L 796.476625 252.084042 
L 805.925075 248.23854 
L 815.373525 242.949946 
L 824.821975 248.53328 
L 834.270425 257.919099 
L 843.718875 261.479404 
L 853.167325 262.154481 
L 862.615775 261.075356 
L 872.064225 263.683021 
L 881.512675 268.516033 
L 890.961125 272.027888 
L 900.409575 273.197527 
L 909.858025 273.527945 
L 919.306475 273.726005 
L 928.754925 273.830394 
L 938.203375 273.900206 
L 947.651825 273.942784 
L 957.100275 273.958641 
L 966.548725 273.964587 
L 975.997175 273.966716 
L 985.445625 273.966862 
" clip-path="url(#p31226549df)" style="fill: none; stroke: #d9534f; stroke-linecap: square"/>
   </g>
   <g id="line2d_19">
    <path d="M 40.600625 273.941756 
L 50.049075 273.950639 
L 59.497525 273.957539 
L 68.945975 273.954823 
L 78.394425 273.946528 
L 87.842875 273.928763 
L 97.291325 273.917237 
L 106.739775 273.908061 
L 116.188225 273.883102 
L 125.636675 273.853811 
L 135.085125 273.825842 
L 144.533575 273.787522 
L 153.982025 273.718517 
L 163.430475 273.654136 
L 172.878925 273.588581 
L 182.327375 273.468189 
L 191.775825 273.305953 
L 201.224275 273.061132 
L 210.672725 272.620452 
L 220.121175 271.868808 
L 229.569625 270.681037 
L 239.018075 268.883082 
L 248.466525 266.282464 
L 257.914975 262.225542 
L 267.363425 256.793725 
L 276.811875 251.764048 
L 286.260325 246.63424 
L 295.708775 239.653696 
L 305.157225 230.465644 
L 314.605675 222.062196 
L 324.054125 215.225462 
L 333.502575 207.494449 
L 342.951025 199.839341 
L 352.399475 191.798171 
L 361.847925 185.113983 
L 371.296375 178.356604 
L 380.744825 170.741358 
L 390.193275 163.933327 
L 399.641725 157.654802 
L 409.090175 151.70897 
L 418.538625 145.852257 
L 427.987075 139.495183 
L 437.435525 131.612798 
L 446.883975 127.270678 
L 456.332425 128.926218 
L 465.780875 130.280776 
L 475.229325 130.528461 
L 484.677775 130.368501 
L 494.126225 128.755907 
L 503.574675 128.937082 
L 513.023125 130.813805 
L 522.471575 130.188941 
L 531.920025 125.491884 
L 541.368475 121.522906 
L 550.816925 121.48811 
L 560.265375 122.812644 
L 569.713825 120.360387 
L 579.162275 116.500056 
L 588.610725 113.852603 
L 598.059175 108.276242 
L 607.507625 97.147013 
L 616.956075 96.312123 
L 626.404525 112.897981 
L 635.852975 138.59393 
L 645.301425 165.073676 
L 654.749875 186.521323 
L 664.198325 201.592662 
L 673.646775 208.436371 
L 683.095225 214.215856 
L 692.543675 223.753339 
L 701.992125 232.78679 
L 711.440575 237.36507 
L 720.889025 240.305135 
L 730.337475 243.869184 
L 739.785925 246.312778 
L 749.234375 244.755388 
L 758.682825 242.661225 
L 768.131275 236.800989 
L 777.579725 230.512846 
L 787.028175 239.067518 
L 796.476625 248.421624 
L 805.925075 248.153751 
L 815.373525 247.549221 
L 824.821975 248.917581 
L 834.270425 252.43105 
L 843.718875 256.801727 
L 853.167325 258.863223 
L 862.615775 259.328128 
L 872.064225 262.205794 
L 881.512675 266.184389 
L 890.961125 269.111754 
L 900.409575 270.783223 
L 909.858025 271.881435 
L 919.306475 272.748479 
L 928.754925 273.238123 
L 938.203375 273.46217 
L 947.651825 273.591518 
L 957.100275 273.618533 
L 966.548725 273.191361 
L 975.997175 271.131847 
L 985.445625 264.514168 
" clip-path="url(#p31226549df)" style="fill: none; stroke: #d9534f; stroke-linecap: square"/>
   </g>
   <g id="line2d_20">
    <path d="M 40.600625 273.971854 
L 50.049075 273.964146 
L 59.497525 273.945574 
L 68.945975 273.930671 
L 78.394425 273.915549 
L 87.842875 273.897564 
L 97.291325 273.882515 
L 106.739775 273.862767 
L 116.188225 273.834945 
L 125.636675 273.802718 
L 135.085125 273.771666 
L 144.533575 273.737824 
L 153.982025 273.694806 
L 163.430475 273.623304 
L 172.878925 273.525302 
L 182.327375 273.406745 
L 191.775825 273.185708 
L 201.224275 272.693495 
L 210.672725 272.201869 
L 220.121175 271.492216 
L 229.569625 270.222299 
L 239.018075 267.165145 
L 248.466525 264.477242 
L 257.914975 262.963237 
L 267.363425 259.312932 
L 276.811875 254.660214 
L 286.260325 249.546703 
L 295.708775 242.665923 
L 305.157225 234.414801 
L 314.605675 225.951671 
L 324.054125 216.181258 
L 333.502575 206.351457 
L 342.951025 198.481038 
L 352.399475 190.146082 
L 361.847925 179.965822 
L 371.296375 172.230331 
L 380.744825 167.526006 
L 390.193275 161.557931 
L 399.641725 155.912125 
L 409.090175 150.33437 
L 418.538625 144.267191 
L 427.987075 139.307841 
L 437.435525 133.280524 
L 446.883975 128.041702 
L 456.332425 128.120764 
L 465.780875 130.288925 
L 475.229325 130.378632 
L 484.677775 128.278596 
L 494.126225 127.550296 
L 503.574675 127.233753 
L 513.023125 127.461984 
L 522.471575 121.66077 
L 531.920025 119.348652 
L 541.368475 124.343019 
L 550.816925 115.060342 
L 560.265375 108.253852 
L 569.713825 110.561051 
L 579.162275 113.89173 
L 588.610725 121.391649 
L 598.059175 117.837217 
L 607.507625 104.630562 
L 616.956075 120.603447 
L 626.404525 140.78448 
L 635.852975 153.795351 
L 645.301425 176.965194 
L 654.749875 193.011049 
L 664.198325 204.867403 
L 673.646775 214.224592 
L 683.095225 222.707983 
L 692.543675 231.225436 
L 701.992125 239.233425 
L 711.440575 243.447004 
L 720.889025 246.316229 
L 730.337475 247.425599 
L 739.785925 247.156184 
L 749.234375 247.114267 
L 758.682825 246.432437 
L 768.131275 238.660901 
L 777.579725 236.400024 
L 787.028175 247.28333 
L 796.476625 252.045722 
L 805.925075 248.276272 
L 815.373525 243.128846 
L 824.821975 248.642514 
L 834.270425 257.893625 
L 843.718875 261.410912 
L 853.167325 262.116748 
L 862.615775 261.071979 
L 872.064225 263.644554 
L 881.512675 268.505389 
L 890.961125 272.063198 
L 900.409575 273.238563 
L 909.858025 273.55885 
L 919.306475 273.74076 
L 928.754925 273.835899 
L 938.203375 273.896169 
L 947.651825 273.937866 
L 957.100275 273.955117 
L 966.548725 273.962017 
L 975.997175 273.966569 
L 985.445625 273.968404 
" clip-path="url(#p31226549df)" style="fill: none; stroke: #d9534f; stroke-linecap: square"/>
   </g>
   <g id="line2d_21">
    <path d="M 40.600625 273.938379 
L 50.049075 273.949244 
L 59.497525 273.958274 
L 68.945975 273.95519 
L 78.394425 273.948804 
L 87.842875 273.934269 
L 97.291325 273.92289 
L 106.739775 273.911071 
L 116.188225 273.885745 
L 125.636675 273.857702 
L 135.085125 273.829806 
L 144.533575 273.796919 
L 153.982025 273.729235 
L 163.430475 273.656632 
L 172.878925 273.59673 
L 182.327375 273.502986 
L 191.775825 273.354037 
L 201.224275 273.100259 
L 210.672725 272.670518 
L 220.121175 271.923425 
L 229.569625 270.777351 
L 239.018075 269.031224 
L 248.466525 266.464741 
L 257.914975 262.584663 
L 267.363425 257.312366 
L 276.811875 252.385683 
L 286.260325 247.456798 
L 295.708775 240.583138 
L 305.157225 231.644753 
L 314.605675 223.556381 
L 324.054125 216.912494 
L 333.502575 209.358252 
L 342.951025 201.826326 
L 352.399475 194.002669 
L 361.847925 187.317527 
L 371.296375 180.719888 
L 380.744825 173.510012 
L 390.193275 166.799469 
L 399.641725 160.551996 
L 409.090175 154.868824 
L 418.538625 149.099689 
L 427.987075 142.605412 
L 437.435525 134.873151 
L 446.883975 130.639677 
L 456.332425 132.390943 
L 465.780875 133.836677 
L 475.229325 133.834768 
L 484.677775 133.57086 
L 494.126225 132.103543 
L 503.574675 132.328912 
L 513.023125 133.980634 
L 522.471575 133.492238 
L 531.920025 129.329458 
L 541.368475 125.319517 
L 550.816925 125.003047 
L 560.265375 126.16006 
L 569.713825 123.90256 
L 579.162275 120.291749 
L 588.610725 117.465176 
L 598.059175 112.084893 
L 607.507625 101.215388 
L 616.956075 100.264363 
L 626.404525 116.463425 
L 635.852975 141.585969 
L 645.301425 167.462947 
L 654.749875 188.335721 
L 664.198325 203.010574 
L 673.646775 209.820367 
L 683.095225 215.574966 
L 692.543675 224.748337 
L 701.992125 233.539462 
L 711.440575 238.098949 
L 720.889025 240.887716 
L 730.337475 244.302302 
L 739.785925 246.744796 
L 749.234375 245.136679 
L 758.682825 243.03745 
L 768.131275 237.25011 
L 777.579725 230.905075 
L 787.028175 239.306908 
L 796.476625 248.670557 
L 805.925075 248.321052 
L 815.373525 247.624099 
L 824.821975 249.06418 
L 834.270425 252.572438 
L 843.718875 256.865227 
L 853.167325 258.865645 
L 862.615775 259.250827 
L 872.064225 262.170044 
L 881.512675 266.337375 
L 890.961125 269.372139 
L 900.409575 271.03245 
L 909.858025 272.056004 
L 919.306475 272.846261 
L 928.754925 273.304045 
L 938.203375 273.519429 
L 947.651825 273.641363 
L 957.100275 273.656045 
L 966.548725 273.23893 
L 975.997175 271.22772 
L 985.445625 264.797016 
" clip-path="url(#p31226549df)" style="fill: none; stroke: #d9534f; stroke-linecap: square"/>
   </g>
   <g id="line2d_22">
    <path d="M 40.600625 273.99006 
L 985.445625 273.99006 
" clip-path="url(#p31226549df)" style="fill: none; stroke: #dedede; stroke-width: 2; stroke-linecap: square"/>
   </g>
   <g id="text_19">
    <!-- FastQC: Per Sequence GC Content -->
    <g transform="translate(376.386875 19.3575) scale(0.16 -0.16)">
     <defs>
      <path id="DejaVuSans-46" d="M 628 4666 
L 3309 4666 
L 3309 4134 
L 1259 4134 
L 1259 2759 
L 3109 2759 
L 3109 2228 
L 1259 2228 
L 1259 0 
L 628 0 
L 628 4666 
z
" transform="scale(0.015625)"/>
      <path id="DejaVuSans-61" d="M 2194 1759 
Q 1497 1759 1228 1600 
Q 959 1441 959 1056 
Q 959 750 1161 570 
Q 1363 391 1709 391 
Q 2188 391 2477 730 
Q 2766 1069 2766 1631 
L 2766 1759 
L 2194 1759 
z
M 3341 1997 
L 3341 0 
L 2766 0 
L 2766 531 
Q 2569 213 2275 61 
Q 1981 -91 1556 -91 
Q 1019 -91 701 211 
Q 384 513 384 1019 
Q 384 1609 779 1909 
Q 1175 2209 1959 2209 
L 2766 2209 
L 2766 2266 
Q 2766 2663 2505 2880 
Q 2244 3097 1772 3097 
Q 1472 3097 1187 3025 
Q 903 2953 641 2809 
L 641 3341 
Q 956 3463 1253 3523 
Q 1550 3584 1831 3584 
Q 2591 3584 2966 3190 
Q 3341 2797 3341 1997 
z
" transform="scale(0.015625)"/>
      <path id="DejaVuSans-73" d="M 2834 3397 
L 2834 2853 
Q 2591 2978 2328 3040 
Q 2066 3103 1784 3103 
Q 1356 3103 1142 2972 
Q 928 2841 928 2578 
Q 928 2378 1081 2264 
Q 1234 2150 1697 2047 
L 1894 2003 
Q 2506 1872 2764 1633 
Q 3022 1394 3022 966 
Q 3022 478 2636 193 
Q 2250 -91 1575 -91 
Q 1294 -91 989 -36 
Q 684 19 347 128 
L 347 722 
Q 666 556 975 473 
Q 1284 391 1588 391 
Q 1994 391 2212 530 
Q 2431 669 2431 922 
Q 2431 1156 2273 1281 
Q 2116 1406 1581 1522 
L 1381 1569 
Q 847 1681 609 1914 
Q 372 2147 372 2553 
Q 372 3047 722 3315 
Q 1072 3584 1716 3584 
Q 2034 3584 2315 3537 
Q 2597 3491 2834 3397 
z
" transform="scale(0.015625)"/>
      <path id="DejaVuSans-51" d="M 2522 4238 
Q 1834 4238 1429 3725 
Q 1025 3213 1025 2328 
Q 1025 1447 1429 934 
Q 1834 422 2522 422 
Q 3209 422 3611 934 
Q 4013 1447 4013 2328 
Q 4013 3213 3611 3725 
Q 3209 4238 2522 4238 
z
M 3406 84 
L 4238 -825 
L 3475 -825 
L 2784 -78 
Q 2681 -84 2626 -87 
Q 2572 -91 2522 -91 
Q 1538 -91 948 567 
Q 359 1225 359 2328 
Q 359 3434 948 4092 
Q 1538 4750 2522 4750 
Q 3503 4750 4090 4092 
Q 4678 3434 4678 2328 
Q 4678 1516 4351 937 
Q 4025 359 3406 84 
z
" transform="scale(0.015625)"/>
      <path id="DejaVuSans-3a" d="M 750 794 
L 1409 794 
L 1409 0 
L 750 0 
L 750 794 
z
M 750 3309 
L 1409 3309 
L 1409 2516 
L 750 2516 
L 750 3309 
z
" transform="scale(0.015625)"/>
      <path id="DejaVuSans-50" d="M 1259 4147 
L 1259 2394 
L 2053 2394 
Q 2494 2394 2734 2622 
Q 2975 2850 2975 3272 
Q 2975 3691 2734 3919 
Q 2494 4147 2053 4147 
L 1259 4147 
z
M 628 4666 
L 2053 4666 
Q 2838 4666 3239 4311 
Q 3641 3956 3641 3272 
Q 3641 2581 3239 2228 
Q 2838 1875 2053 1875 
L 1259 1875 
L 1259 0 
L 628 0 
L 628 4666 
z
" transform="scale(0.015625)"/>
      <path id="DejaVuSans-72" d="M 2631 2963 
Q 2534 3019 2420 3045 
Q 2306 3072 2169 3072 
Q 1681 3072 1420 2755 
Q 1159 2438 1159 1844 
L 1159 0 
L 581 0 
L 581 3500 
L 1159 3500 
L 1159 2956 
Q 1341 3275 1631 3429 
Q 1922 3584 2338 3584 
Q 2397 3584 2469 3576 
Q 2541 3569 2628 3553 
L 2631 2963 
z
" transform="scale(0.015625)"/>
      <path id="DejaVuSans-53" d="M 3425 4513 
L 3425 3897 
Q 3066 4069 2747 4153 
Q 2428 4238 2131 4238 
Q 1616 4238 1336 4038 
Q 1056 3838 1056 3469 
Q 1056 3159 1242 3001 
Q 1428 2844 1947 2747 
L 2328 2669 
Q 3034 2534 3370 2195 
Q 3706 1856 3706 1288 
Q 3706 609 3251 259 
Q 2797 -91 1919 -91 
Q 1588 -91 1214 -16 
Q 841 59 441 206 
L 441 856 
Q 825 641 1194 531 
Q 1563 422 1919 422 
Q 2459 422 2753 634 
Q 3047 847 3047 1241 
Q 3047 1584 2836 1778 
Q 2625 1972 2144 2069 
L 1759 2144 
Q 1053 2284 737 2584 
Q 422 2884 422 3419 
Q 422 4038 858 4394 
Q 1294 4750 2059 4750 
Q 2388 4750 2728 4690 
Q 3069 4631 3425 4513 
z
" transform="scale(0.015625)"/>
      <path id="DejaVuSans-71" d="M 947 1747 
Q 947 1113 1208 752 
Q 1469 391 1925 391 
Q 2381 391 2643 752 
Q 2906 1113 2906 1747 
Q 2906 2381 2643 2742 
Q 2381 3103 1925 3103 
Q 1469 3103 1208 2742 
Q 947 2381 947 1747 
z
M 2906 525 
Q 2725 213 2448 61 
Q 2172 -91 1784 -91 
Q 1150 -91 751 415 
Q 353 922 353 1747 
Q 353 2572 751 3078 
Q 1150 3584 1784 3584 
Q 2172 3584 2448 3432 
Q 2725 3281 2906 2969 
L 2906 3500 
L 3481 3500 
L 3481 -1331 
L 2906 -1331 
L 2906 525 
z
" transform="scale(0.015625)"/>
      <path id="DejaVuSans-63" d="M 3122 3366 
L 3122 2828 
Q 2878 2963 2633 3030 
Q 2388 3097 2138 3097 
Q 1578 3097 1268 2742 
Q 959 2388 959 1747 
Q 959 1106 1268 751 
Q 1578 397 2138 397 
Q 2388 397 2633 464 
Q 2878 531 3122 666 
L 3122 134 
Q 2881 22 2623 -34 
Q 2366 -91 2075 -91 
Q 1284 -91 818 406 
Q 353 903 353 1747 
Q 353 2603 823 3093 
Q 1294 3584 2113 3584 
Q 2378 3584 2631 3529 
Q 2884 3475 3122 3366 
z
" transform="scale(0.015625)"/>
     </defs>
     <use xlink:href="#DejaVuSans-46"/>
     <use xlink:href="#DejaVuSans-61" x="48.394531"/>
     <use xlink:href="#DejaVuSans-73" x="109.673828"/>
     <use xlink:href="#DejaVuSans-74" x="161.773438"/>
     <use xlink:href="#DejaVuSans-51" x="200.982422"/>
     <use xlink:href="#DejaVuSans-43" x="279.693359"/>
     <use xlink:href="#DejaVuSans-3a" x="349.517578"/>
     <use xlink:href="#DejaVuSans-20" x="383.208984"/>
     <use xlink:href="#DejaVuSans-50" x="414.996094"/>
     <use xlink:href="#DejaVuSans-65" x="471.673828"/>
     <use xlink:href="#DejaVuSans-72" x="533.197266"/>
     <use xlink:href="#DejaVuSans-20" x="574.310547"/>
     <use xlink:href="#DejaVuSans-53" x="606.097656"/>
     <use xlink:href="#DejaVuSans-65" x="669.574219"/>
     <use xlink:href="#DejaVuSans-71" x="731.097656"/>
     <use xlink:href="#DejaVuSans-75" x="794.574219"/>
     <use xlink:href="#DejaVuSans-65" x="857.953125"/>
     <use xlink:href="#DejaVuSans-6e" x="919.476562"/>
     <use xlink:href="#DejaVuSans-63" x="982.855469"/>
     <use xlink:href="#DejaVuSans-65" x="1037.835938"/>
     <use xlink:href="#DejaVuSans-20" x="1099.359375"/>
     <use xlink:href="#DejaVuSans-47" x="1131.146484"/>
     <use xlink:href="#DejaVuSans-43" x="1208.636719"/>
     <use xlink:href="#DejaVuSans-20" x="1278.460938"/>
     <use xlink:href="#DejaVuSans-43" x="1310.248047"/>
     <use xlink:href="#DejaVuSans-6f" x="1380.072266"/>
     <use xlink:href="#DejaVuSans-6e" x="1441.253906"/>
     <use xlink:href="#DejaVuSans-74" x="1504.632812"/>
     <use xlink:href="#DejaVuSans-65" x="1543.841797"/>
     <use xlink:href="#DejaVuSans-6e" x="1605.365234"/>
     <use xlink:href="#DejaVuSans-74" x="1668.744141"/>
    </g>
   </g>
   <g id="legend_1">
    <g id="line2d_23">
     <path d="M 47.800625 291.525394 
L 55.800625 291.525394 
L 63.800625 291.525394 
" style="fill: none; stroke: #d9534f; stroke-linecap: square"/>
    </g>
    <g id="text_20">
     <!-- TK9_1_22GH5GLT3_AGAGAACCTA-GGTTATGCTA_L002_T1_1 -->
     <g transform="translate(70.200625 294.325394) scale(0.08 -0.08)">
      <defs>
       <path id="DejaVuSans-54" d="M -19 4666 
L 3928 4666 
L 3928 4134 
L 2272 4134 
L 2272 0 
L 1638 0 
L 1638 4134 
L -19 4134 
L -19 4666 
z
" transform="scale(0.015625)"/>
       <path id="DejaVuSans-4b" d="M 628 4666 
L 1259 4666 
L 1259 2694 
L 3353 4666 
L 4166 4666 
L 1850 2491 
L 4331 0 
L 3500 0 
L 1259 2247 
L 1259 0 
L 628 0 
L 628 4666 
z
" transform="scale(0.015625)"/>
       <path id="DejaVuSans-39" d="M 703 97 
L 703 672 
Q 941 559 1184 500 
Q 1428 441 1663 441 
Q 2288 441 2617 861 
Q 2947 1281 2994 2138 
Q 2813 1869 2534 1725 
Q 2256 1581 1919 1581 
Q 1219 1581 811 2004 
Q 403 2428 403 3163 
Q 403 3881 828 4315 
Q 1253 4750 1959 4750 
Q 2769 4750 3195 4129 
Q 3622 3509 3622 2328 
Q 3622 1225 3098 567 
Q 2575 -91 1691 -91 
Q 1453 -91 1209 -44 
Q 966 3 703 97 
z
M 1959 2075 
Q 2384 2075 2632 2365 
Q 2881 2656 2881 3163 
Q 2881 3666 2632 3958 
Q 2384 4250 1959 4250 
Q 1534 4250 1286 3958 
Q 1038 3666 1038 3163 
Q 1038 2656 1286 2365 
Q 1534 2075 1959 2075 
z
" transform="scale(0.015625)"/>
       <path id="DejaVuSans-5f" d="M 3263 -1063 
L 3263 -1509 
L -63 -1509 
L -63 -1063 
L 3263 -1063 
z
" transform="scale(0.015625)"/>
       <path id="DejaVuSans-48" d="M 628 4666 
L 1259 4666 
L 1259 2753 
L 3553 2753 
L 3553 4666 
L 4184 4666 
L 4184 0 
L 3553 0 
L 3553 2222 
L 1259 2222 
L 1259 0 
L 628 0 
L 628 4666 
z
" transform="scale(0.015625)"/>
       <path id="DejaVuSans-35" d="M 691 4666 
L 3169 4666 
L 3169 4134 
L 1269 4134 
L 1269 2991 
Q 1406 3038 1543 3061 
Q 1681 3084 1819 3084 
Q 2600 3084 3056 2656 
Q 3513 2228 3513 1497 
Q 3513 744 3044 326 
Q 2575 -91 1722 -91 
Q 1428 -91 1123 -41 
Q 819 9 494 109 
L 494 744 
Q 775 591 1075 516 
Q 1375 441 1709 441 
Q 2250 441 2565 725 
Q 2881 1009 2881 1497 
Q 2881 1984 2565 2268 
Q 2250 2553 1709 2553 
Q 1456 2553 1204 2497 
Q 953 2441 691 2322 
L 691 4666 
z
" transform="scale(0.015625)"/>
       <path id="DejaVuSans-4c" d="M 628 4666 
L 1259 4666 
L 1259 531 
L 3531 531 
L 3531 0 
L 628 0 
L 628 4666 
z
" transform="scale(0.015625)"/>
       <path id="DejaVuSans-33" d="M 2597 2516 
Q 3050 2419 3304 2112 
Q 3559 1806 3559 1356 
Q 3559 666 3084 287 
Q 2609 -91 1734 -91 
Q 1441 -91 1130 -33 
Q 819 25 488 141 
L 488 750 
Q 750 597 1062 519 
Q 1375 441 1716 441 
Q 2309 441 2620 675 
Q 2931 909 2931 1356 
Q 2931 1769 2642 2001 
Q 2353 2234 1838 2234 
L 1294 2234 
L 1294 2753 
L 1863 2753 
Q 2328 2753 2575 2939 
Q 2822 3125 2822 3475 
Q 2822 3834 2567 4026 
Q 2313 4219 1838 4219 
Q 1578 4219 1281 4162 
Q 984 4106 628 3988 
L 628 4550 
Q 988 4650 1302 4700 
Q 1616 4750 1894 4750 
Q 2613 4750 3031 4423 
Q 3450 4097 3450 3541 
Q 3450 3153 3228 2886 
Q 3006 2619 2597 2516 
z
" transform="scale(0.015625)"/>
       <path id="DejaVuSans-41" d="M 2188 4044 
L 1331 1722 
L 3047 1722 
L 2188 4044 
z
M 1831 4666 
L 2547 4666 
L 4325 0 
L 3669 0 
L 3244 1197 
L 1141 1197 
L 716 0 
L 50 0 
L 1831 4666 
z
" transform="scale(0.015625)"/>
       <path id="DejaVuSans-2d" d="M 313 2009 
L 1997 2009 
L 1997 1497 
L 313 1497 
L 313 2009 
z
" transform="scale(0.015625)"/>
      </defs>
      <use xlink:href="#DejaVuSans-54"/>
      <use xlink:href="#DejaVuSans-4b" x="61.083984"/>
      <use xlink:href="#DejaVuSans-39" x="126.660156"/>
      <use xlink:href="#DejaVuSans-5f" x="190.283203"/>
      <use xlink:href="#DejaVuSans-31" x="240.283203"/>
      <use xlink:href="#DejaVuSans-5f" x="303.90625"/>
      <use xlink:href="#DejaVuSans-32" x="353.90625"/>
      <use xlink:href="#DejaVuSans-32" x="417.529297"/>
      <use xlink:href="#DejaVuSans-47" x="481.152344"/>
      <use xlink:href="#DejaVuSans-48" x="558.642578"/>
      <use xlink:href="#DejaVuSans-35" x="633.837891"/>
      <use xlink:href="#DejaVuSans-47" x="697.460938"/>
      <use xlink:href="#DejaVuSans-4c" x="774.951172"/>
      <use xlink:href="#DejaVuSans-54" x="816.914062"/>
      <use xlink:href="#DejaVuSans-33" x="877.998047"/>
      <use xlink:href="#DejaVuSans-5f" x="941.621094"/>
      <use xlink:href="#DejaVuSans-41" x="991.621094"/>
      <use xlink:href="#DejaVuSans-47" x="1058.279297"/>
      <use xlink:href="#DejaVuSans-41" x="1135.769531"/>
      <use xlink:href="#DejaVuSans-47" x="1202.427734"/>
      <use xlink:href="#DejaVuSans-41" x="1279.917969"/>
      <use xlink:href="#DejaVuSans-41" x="1351.076172"/>
      <use xlink:href="#DejaVuSans-43" x="1417.734375"/>
      <use xlink:href="#DejaVuSans-43" x="1487.558594"/>
      <use xlink:href="#DejaVuSans-54" x="1557.382812"/>
      <use xlink:href="#DejaVuSans-41" x="1610.716797"/>
      <use xlink:href="#DejaVuSans-2d" x="1676.875"/>
      <use xlink:href="#DejaVuSans-47" x="1716.583984"/>
      <use xlink:href="#DejaVuSans-47" x="1794.074219"/>
      <use xlink:href="#DejaVuSans-54" x="1867.939453"/>
      <use xlink:href="#DejaVuSans-54" x="1927.273438"/>
      <use xlink:href="#DejaVuSans-41" x="1980.607422"/>
      <use xlink:href="#DejaVuSans-54" x="2041.265625"/>
      <use xlink:href="#DejaVuSans-47" x="2102.349609"/>
      <use xlink:href="#DejaVuSans-43" x="2179.839844"/>
      <use xlink:href="#DejaVuSans-54" x="2249.664062"/>
      <use xlink:href="#DejaVuSans-41" x="2302.998047"/>
      <use xlink:href="#DejaVuSans-5f" x="2371.40625"/>
      <use xlink:href="#DejaVuSans-4c" x="2421.40625"/>
      <use xlink:href="#DejaVuSans-30" x="2477.119141"/>
      <use xlink:href="#DejaVuSans-30" x="2540.742188"/>
      <use xlink:href="#DejaVuSans-32" x="2604.365234"/>
      <use xlink:href="#DejaVuSans-5f" x="2667.988281"/>
      <use xlink:href="#DejaVuSans-54" x="2717.988281"/>
      <use xlink:href="#DejaVuSans-31" x="2779.072266"/>
      <use xlink:href="#DejaVuSans-5f" x="2842.695312"/>
      <use xlink:href="#DejaVuSans-31" x="2892.695312"/>
     </g>
    </g>
    <g id="line2d_24">
     <path d="M 47.800625 303.490394 
L 55.800625 303.490394 
L 63.800625 303.490394 
" style="fill: none; stroke: #d9534f; stroke-linecap: square"/>
    </g>
    <g id="text_21">
     <!-- TK9_1_22GH5GLT3_AGAGAACCTA-GGTTATGCTA_L002_T1_2 -->
     <g transform="translate(70.200625 306.290394) scale(0.08 -0.08)">
      <use xlink:href="#DejaVuSans-54"/>
      <use xlink:href="#DejaVuSans-4b" x="61.083984"/>
      <use xlink:href="#DejaVuSans-39" x="126.660156"/>
      <use xlink:href="#DejaVuSans-5f" x="190.283203"/>
      <use xlink:href="#DejaVuSans-31" x="240.283203"/>
      <use xlink:href="#DejaVuSans-5f" x="303.90625"/>
      <use xlink:href="#DejaVuSans-32" x="353.90625"/>
      <use xlink:href="#DejaVuSans-32" x="417.529297"/>
      <use xlink:href="#DejaVuSans-47" x="481.152344"/>
      <use xlink:href="#DejaVuSans-48" x="558.642578"/>
      <use xlink:href="#DejaVuSans-35" x="633.837891"/>
      <use xlink:href="#DejaVuSans-47" x="697.460938"/>
      <use xlink:href="#DejaVuSans-4c" x="774.951172"/>
      <use xlink:href="#DejaVuSans-54" x="816.914062"/>
      <use xlink:href="#DejaVuSans-33" x="877.998047"/>
      <use xlink:href="#DejaVuSans-5f" x="941.621094"/>
      <use xlink:href="#DejaVuSans-41" x="991.621094"/>
      <use xlink:href="#DejaVuSans-47" x="1058.279297"/>
      <use xlink:href="#DejaVuSans-41" x="1135.769531"/>
      <use xlink:href="#DejaVuSans-47" x="1202.427734"/>
      <use xlink:href="#DejaVuSans-41" x="1279.917969"/>
      <use xlink:href="#DejaVuSans-41" x="1351.076172"/>
      <use xlink:href="#DejaVuSans-43" x="1417.734375"/>
      <use xlink:href="#DejaVuSans-43" x="1487.558594"/>
      <use xlink:href="#DejaVuSans-54" x="1557.382812"/>
      <use xlink:href="#DejaVuSans-41" x="1610.716797"/>
      <use xlink:href="#DejaVuSans-2d" x="1676.875"/>
      <use xlink:href="#DejaVuSans-47" x="1716.583984"/>
      <use xlink:href="#DejaVuSans-47" x="1794.074219"/>
      <use xlink:href="#DejaVuSans-54" x="1867.939453"/>
      <use xlink:href="#DejaVuSans-54" x="1927.273438"/>
      <use xlink:href="#DejaVuSans-41" x="1980.607422"/>
      <use xlink:href="#DejaVuSans-54" x="2041.265625"/>
      <use xlink:href="#DejaVuSans-47" x="2102.349609"/>
      <use xlink:href="#DejaVuSans-43" x="2179.839844"/>
      <use xlink:href="#DejaVuSans-54" x="2249.664062"/>
      <use xlink:href="#DejaVuSans-41" x="2302.998047"/>
      <use xlink:href="#DejaVuSans-5f" x="2371.40625"/>
      <use xlink:href="#DejaVuSans-4c" x="2421.40625"/>
      <use xlink:href="#DejaVuSans-30" x="2477.119141"/>
      <use xlink:href="#DejaVuSans-30" x="2540.742188"/>
      <use xlink:href="#DejaVuSans-32" x="2604.365234"/>
      <use xlink:href="#DejaVuSans-5f" x="2667.988281"/>
      <use xlink:href="#DejaVuSans-54" x="2717.988281"/>
      <use xlink:href="#DejaVuSans-31" x="2779.072266"/>
      <use xlink:href="#DejaVuSans-5f" x="2842.695312"/>
      <use xlink:href="#DejaVuSans-32" x="2892.695312"/>
     </g>
    </g>
    <g id="line2d_25">
     <path d="M 47.800625 315.455394 
L 55.800625 315.455394 
L 63.800625 315.455394 
" style="fill: none; stroke: #d9534f; stroke-linecap: square"/>
    </g>
    <g id="text_22">
     <!-- TK9_1_22GH5GLT3_AGAGAACCTA-GGTTATGCTA_L003_T1_1 -->
     <g transform="translate(70.200625 318.255394) scale(0.08 -0.08)">
      <use xlink:href="#DejaVuSans-54"/>
      <use xlink:href="#DejaVuSans-4b" x="61.083984"/>
      <use xlink:href="#DejaVuSans-39" x="126.660156"/>
      <use xlink:href="#DejaVuSans-5f" x="190.283203"/>
      <use xlink:href="#DejaVuSans-31" x="240.283203"/>
      <use xlink:href="#DejaVuSans-5f" x="303.90625"/>
      <use xlink:href="#DejaVuSans-32" x="353.90625"/>
      <use xlink:href="#DejaVuSans-32" x="417.529297"/>
      <use xlink:href="#DejaVuSans-47" x="481.152344"/>
      <use xlink:href="#DejaVuSans-48" x="558.642578"/>
      <use xlink:href="#DejaVuSans-35" x="633.837891"/>
      <use xlink:href="#DejaVuSans-47" x="697.460938"/>
      <use xlink:href="#DejaVuSans-4c" x="774.951172"/>
      <use xlink:href="#DejaVuSans-54" x="816.914062"/>
      <use xlink:href="#DejaVuSans-33" x="877.998047"/>
      <use xlink:href="#DejaVuSans-5f" x="941.621094"/>
      <use xlink:href="#DejaVuSans-41" x="991.621094"/>
      <use xlink:href="#DejaVuSans-47" x="1058.279297"/>
      <use xlink:href="#DejaVuSans-41" x="1135.769531"/>
      <use xlink:href="#DejaVuSans-47" x="1202.427734"/>
      <use xlink:href="#DejaVuSans-41" x="1279.917969"/>
      <use xlink:href="#DejaVuSans-41" x="1351.076172"/>
      <use xlink:href="#DejaVuSans-43" x="1417.734375"/>
      <use xlink:href="#DejaVuSans-43" x="1487.558594"/>
      <use xlink:href="#DejaVuSans-54" x="1557.382812"/>
      <use xlink:href="#DejaVuSans-41" x="1610.716797"/>
      <use xlink:href="#DejaVuSans-2d" x="1676.875"/>
      <use xlink:href="#DejaVuSans-47" x="1716.583984"/>
      <use xlink:href="#DejaVuSans-47" x="1794.074219"/>
      <use xlink:href="#DejaVuSans-54" x="1867.939453"/>
      <use xlink:href="#DejaVuSans-54" x="1927.273438"/>
      <use xlink:href="#DejaVuSans-41" x="1980.607422"/>
      <use xlink:href="#DejaVuSans-54" x="2041.265625"/>
      <use xlink:href="#DejaVuSans-47" x="2102.349609"/>
      <use xlink:href="#DejaVuSans-43" x="2179.839844"/>
      <use xlink:href="#DejaVuSans-54" x="2249.664062"/>
      <use xlink:href="#DejaVuSans-41" x="2302.998047"/>
      <use xlink:href="#DejaVuSans-5f" x="2371.40625"/>
      <use xlink:href="#DejaVuSans-4c" x="2421.40625"/>
      <use xlink:href="#DejaVuSans-30" x="2477.119141"/>
      <use xlink:href="#DejaVuSans-30" x="2540.742188"/>
      <use xlink:href="#DejaVuSans-33" x="2604.365234"/>
      <use xlink:href="#DejaVuSans-5f" x="2667.988281"/>
      <use xlink:href="#DejaVuSans-54" x="2717.988281"/>
      <use xlink:href="#DejaVuSans-31" x="2779.072266"/>
      <use xlink:href="#DejaVuSans-5f" x="2842.695312"/>
      <use xlink:href="#DejaVuSans-31" x="2892.695312"/>
     </g>
    </g>
    <g id="line2d_26">
     <path d="M 214.167812 291.525394 
L 222.167812 291.525394 
L 230.167812 291.525394 
" style="fill: none; stroke: #d9534f; stroke-linecap: square"/>
    </g>
    <g id="text_23">
     <!-- TK9_1_22GH5GLT3_AGAGAACCTA-GGTTATGCTA_L003_T1_2 -->
     <g transform="translate(236.567812 294.325394) scale(0.08 -0.08)">
      <use xlink:href="#DejaVuSans-54"/>
      <use xlink:href="#DejaVuSans-4b" x="61.083984"/>
      <use xlink:href="#DejaVuSans-39" x="126.660156"/>
      <use xlink:href="#DejaVuSans-5f" x="190.283203"/>
      <use xlink:href="#DejaVuSans-31" x="240.283203"/>
      <use xlink:href="#DejaVuSans-5f" x="303.90625"/>
      <use xlink:href="#DejaVuSans-32" x="353.90625"/>
      <use xlink:href="#DejaVuSans-32" x="417.529297"/>
      <use xlink:href="#DejaVuSans-47" x="481.152344"/>
      <use xlink:href="#DejaVuSans-48" x="558.642578"/>
      <use xlink:href="#DejaVuSans-35" x="633.837891"/>
      <use xlink:href="#DejaVuSans-47" x="697.460938"/>
      <use xlink:href="#DejaVuSans-4c" x="774.951172"/>
      <use xlink:href="#DejaVuSans-54" x="816.914062"/>
      <use xlink:href="#DejaVuSans-33" x="877.998047"/>
      <use xlink:href="#DejaVuSans-5f" x="941.621094"/>
      <use xlink:href="#DejaVuSans-41" x="991.621094"/>
      <use xlink:href="#DejaVuSans-47" x="1058.279297"/>
      <use xlink:href="#DejaVuSans-41" x="1135.769531"/>
      <use xlink:href="#DejaVuSans-47" x="1202.427734"/>
      <use xlink:href="#DejaVuSans-41" x="1279.917969"/>
      <use xlink:href="#DejaVuSans-41" x="1351.076172"/>
      <use xlink:href="#DejaVuSans-43" x="1417.734375"/>
      <use xlink:href="#DejaVuSans-43" x="1487.558594"/>
      <use xlink:href="#DejaVuSans-54" x="1557.382812"/>
      <use xlink:href="#DejaVuSans-41" x="1610.716797"/>
      <use xlink:href="#DejaVuSans-2d" x="1676.875"/>
      <use xlink:href="#DejaVuSans-47" x="1716.583984"/>
      <use xlink:href="#DejaVuSans-47" x="1794.074219"/>
      <use xlink:href="#DejaVuSans-54" x="1867.939453"/>
      <use xlink:href="#DejaVuSans-54" x="1927.273438"/>
      <use xlink:href="#DejaVuSans-41" x="1980.607422"/>
      <use xlink:href="#DejaVuSans-54" x="2041.265625"/>
      <use xlink:href="#DejaVuSans-47" x="2102.349609"/>
      <use xlink:href="#DejaVuSans-43" x="2179.839844"/>
      <use xlink:href="#DejaVuSans-54" x="2249.664062"/>
      <use xlink:href="#DejaVuSans-41" x="2302.998047"/>
      <use xlink:href="#DejaVuSans-5f" x="2371.40625"/>
      <use xlink:href="#DejaVuSans-4c" x="2421.40625"/>
      <use xlink:href="#DejaVuSans-30" x="2477.119141"/>
      <use xlink:href="#DejaVuSans-30" x="2540.742188"/>
      <use xlink:href="#DejaVuSans-33" x="2604.365234"/>
      <use xlink:href="#DejaVuSans-5f" x="2667.988281"/>
      <use xlink:href="#DejaVuSans-54" x="2717.988281"/>
      <use xlink:href="#DejaVuSans-31" x="2779.072266"/>
      <use xlink:href="#DejaVuSans-5f" x="2842.695312"/>
      <use xlink:href="#DejaVuSans-32" x="2892.695312"/>
     </g>
    </g>
    <g id="line2d_27">
     <path d="M 214.167812 303.490394 
L 222.167812 303.490394 
L 230.167812 303.490394 
" style="fill: none; stroke: #d9534f; stroke-linecap: square"/>
    </g>
    <g id="text_24">
     <!-- TK9_2_22GH5GLT3_GATATTGTGT-ACCACACGGT_L002_T1_1 -->
     <g transform="translate(236.567812 306.290394) scale(0.08 -0.08)">
      <use xlink:href="#DejaVuSans-54"/>
      <use xlink:href="#DejaVuSans-4b" x="61.083984"/>
      <use xlink:href="#DejaVuSans-39" x="126.660156"/>
      <use xlink:href="#DejaVuSans-5f" x="190.283203"/>
      <use xlink:href="#DejaVuSans-32" x="240.283203"/>
      <use xlink:href="#DejaVuSans-5f" x="303.90625"/>
      <use xlink:href="#DejaVuSans-32" x="353.90625"/>
      <use xlink:href="#DejaVuSans-32" x="417.529297"/>
      <use xlink:href="#DejaVuSans-47" x="481.152344"/>
      <use xlink:href="#DejaVuSans-48" x="558.642578"/>
      <use xlink:href="#DejaVuSans-35" x="633.837891"/>
      <use xlink:href="#DejaVuSans-47" x="697.460938"/>
      <use xlink:href="#DejaVuSans-4c" x="774.951172"/>
      <use xlink:href="#DejaVuSans-54" x="816.914062"/>
      <use xlink:href="#DejaVuSans-33" x="877.998047"/>
      <use xlink:href="#DejaVuSans-5f" x="941.621094"/>
      <use xlink:href="#DejaVuSans-47" x="991.621094"/>
      <use xlink:href="#DejaVuSans-41" x="1069.111328"/>
      <use xlink:href="#DejaVuSans-54" x="1129.769531"/>
      <use xlink:href="#DejaVuSans-41" x="1183.103516"/>
      <use xlink:href="#DejaVuSans-54" x="1243.761719"/>
      <use xlink:href="#DejaVuSans-54" x="1303.095703"/>
      <use xlink:href="#DejaVuSans-47" x="1364.179688"/>
      <use xlink:href="#DejaVuSans-54" x="1438.044922"/>
      <use xlink:href="#DejaVuSans-47" x="1499.128906"/>
      <use xlink:href="#DejaVuSans-54" x="1572.994141"/>
      <use xlink:href="#DejaVuSans-2d" x="1624.953125"/>
      <use xlink:href="#DejaVuSans-41" x="1658.787109"/>
      <use xlink:href="#DejaVuSans-43" x="1725.445312"/>
      <use xlink:href="#DejaVuSans-43" x="1795.269531"/>
      <use xlink:href="#DejaVuSans-41" x="1865.09375"/>
      <use xlink:href="#DejaVuSans-43" x="1931.751953"/>
      <use xlink:href="#DejaVuSans-41" x="2001.576172"/>
      <use xlink:href="#DejaVuSans-43" x="2068.234375"/>
      <use xlink:href="#DejaVuSans-47" x="2138.058594"/>
      <use xlink:href="#DejaVuSans-47" x="2215.548828"/>
      <use xlink:href="#DejaVuSans-54" x="2289.414062"/>
      <use xlink:href="#DejaVuSans-5f" x="2350.498047"/>
      <use xlink:href="#DejaVuSans-4c" x="2400.498047"/>
      <use xlink:href="#DejaVuSans-30" x="2456.210938"/>
      <use xlink:href="#DejaVuSans-30" x="2519.833984"/>
      <use xlink:href="#DejaVuSans-32" x="2583.457031"/>
      <use xlink:href="#DejaVuSans-5f" x="2647.080078"/>
      <use xlink:href="#DejaVuSans-54" x="2697.080078"/>
      <use xlink:href="#DejaVuSans-31" x="2758.164062"/>
      <use xlink:href="#DejaVuSans-5f" x="2821.787109"/>
      <use xlink:href="#DejaVuSans-31" x="2871.787109"/>
     </g>
    </g>
    <g id="line2d_28">
     <path d="M 214.167812 315.455394 
L 222.167812 315.455394 
L 230.167812 315.455394 
" style="fill: none; stroke: #d9534f; stroke-linecap: square"/>
    </g>
    <g id="text_25">
     <!-- TK9_2_22GH5GLT3_GATATTGTGT-ACCACACGGT_L002_T1_2 -->
     <g transform="translate(236.567812 318.255394) scale(0.08 -0.08)">
      <use xlink:href="#DejaVuSans-54"/>
      <use xlink:href="#DejaVuSans-4b" x="61.083984"/>
      <use xlink:href="#DejaVuSans-39" x="126.660156"/>
      <use xlink:href="#DejaVuSans-5f" x="190.283203"/>
      <use xlink:href="#DejaVuSans-32" x="240.283203"/>
      <use xlink:href="#DejaVuSans-5f" x="303.90625"/>
      <use xlink:href="#DejaVuSans-32" x="353.90625"/>
      <use xlink:href="#DejaVuSans-32" x="417.529297"/>
      <use xlink:href="#DejaVuSans-47" x="481.152344"/>
      <use xlink:href="#DejaVuSans-48" x="558.642578"/>
      <use xlink:href="#DejaVuSans-35" x="633.837891"/>
      <use xlink:href="#DejaVuSans-47" x="697.460938"/>
      <use xlink:href="#DejaVuSans-4c" x="774.951172"/>
      <use xlink:href="#DejaVuSans-54" x="816.914062"/>
      <use xlink:href="#DejaVuSans-33" x="877.998047"/>
      <use xlink:href="#DejaVuSans-5f" x="941.621094"/>
      <use xlink:href="#DejaVuSans-47" x="991.621094"/>
      <use xlink:href="#DejaVuSans-41" x="1069.111328"/>
      <use xlink:href="#DejaVuSans-54" x="1129.769531"/>
      <use xlink:href="#DejaVuSans-41" x="1183.103516"/>
      <use xlink:href="#DejaVuSans-54" x="1243.761719"/>
      <use xlink:href="#DejaVuSans-54" x="1303.095703"/>
      <use xlink:href="#DejaVuSans-47" x="1364.179688"/>
      <use xlink:href="#DejaVuSans-54" x="1438.044922"/>
      <use xlink:href="#DejaVuSans-47" x="1499.128906"/>
      <use xlink:href="#DejaVuSans-54" x="1572.994141"/>
      <use xlink:href="#DejaVuSans-2d" x="1624.953125"/>
      <use xlink:href="#DejaVuSans-41" x="1658.787109"/>
      <use xlink:href="#DejaVuSans-43" x="1725.445312"/>
      <use xlink:href="#DejaVuSans-43" x="1795.269531"/>
      <use xlink:href="#DejaVuSans-41" x="1865.09375"/>
      <use xlink:href="#DejaVuSans-43" x="1931.751953"/>
      <use xlink:href="#DejaVuSans-41" x="2001.576172"/>
      <use xlink:href="#DejaVuSans-43" x="2068.234375"/>
      <use xlink:href="#DejaVuSans-47" x="2138.058594"/>
      <use xlink:href="#DejaVuSans-47" x="2215.548828"/>
      <use xlink:href="#DejaVuSans-54" x="2289.414062"/>
      <use xlink:href="#DejaVuSans-5f" x="2350.498047"/>
      <use xlink:href="#DejaVuSans-4c" x="2400.498047"/>
      <use xlink:href="#DejaVuSans-30" x="2456.210938"/>
      <use xlink:href="#DejaVuSans-30" x="2519.833984"/>
      <use xlink:href="#DejaVuSans-32" x="2583.457031"/>
      <use xlink:href="#DejaVuSans-5f" x="2647.080078"/>
      <use xlink:href="#DejaVuSans-54" x="2697.080078"/>
      <use xlink:href="#DejaVuSans-31" x="2758.164062"/>
      <use xlink:href="#DejaVuSans-5f" x="2821.787109"/>
      <use xlink:href="#DejaVuSans-32" x="2871.787109"/>
     </g>
    </g>
    <g id="line2d_29">
     <path d="M 380.535 291.525394 
L 388.535 291.525394 
L 396.535 291.525394 
" style="fill: none; stroke: #d9534f; stroke-linecap: square"/>
    </g>
    <g id="text_26">
     <!-- TK9_2_22GH5GLT3_GATATTGTGT-ACCACACGGT_L003_T1_1 -->
     <g transform="translate(402.935 294.325394) scale(0.08 -0.08)">
      <use xlink:href="#DejaVuSans-54"/>
      <use xlink:href="#DejaVuSans-4b" x="61.083984"/>
      <use xlink:href="#DejaVuSans-39" x="126.660156"/>
      <use xlink:href="#DejaVuSans-5f" x="190.283203"/>
      <use xlink:href="#DejaVuSans-32" x="240.283203"/>
      <use xlink:href="#DejaVuSans-5f" x="303.90625"/>
      <use xlink:href="#DejaVuSans-32" x="353.90625"/>
      <use xlink:href="#DejaVuSans-32" x="417.529297"/>
      <use xlink:href="#DejaVuSans-47" x="481.152344"/>
      <use xlink:href="#DejaVuSans-48" x="558.642578"/>
      <use xlink:href="#DejaVuSans-35" x="633.837891"/>
      <use xlink:href="#DejaVuSans-47" x="697.460938"/>
      <use xlink:href="#DejaVuSans-4c" x="774.951172"/>
      <use xlink:href="#DejaVuSans-54" x="816.914062"/>
      <use xlink:href="#DejaVuSans-33" x="877.998047"/>
      <use xlink:href="#DejaVuSans-5f" x="941.621094"/>
      <use xlink:href="#DejaVuSans-47" x="991.621094"/>
      <use xlink:href="#DejaVuSans-41" x="1069.111328"/>
      <use xlink:href="#DejaVuSans-54" x="1129.769531"/>
      <use xlink:href="#DejaVuSans-41" x="1183.103516"/>
      <use xlink:href="#DejaVuSans-54" x="1243.761719"/>
      <use xlink:href="#DejaVuSans-54" x="1303.095703"/>
      <use xlink:href="#DejaVuSans-47" x="1364.179688"/>
      <use xlink:href="#DejaVuSans-54" x="1438.044922"/>
      <use xlink:href="#DejaVuSans-47" x="1499.128906"/>
      <use xlink:href="#DejaVuSans-54" x="1572.994141"/>
      <use xlink:href="#DejaVuSans-2d" x="1624.953125"/>
      <use xlink:href="#DejaVuSans-41" x="1658.787109"/>
      <use xlink:href="#DejaVuSans-43" x="1725.445312"/>
      <use xlink:href="#DejaVuSans-43" x="1795.269531"/>
      <use xlink:href="#DejaVuSans-41" x="1865.09375"/>
      <use xlink:href="#DejaVuSans-43" x="1931.751953"/>
      <use xlink:href="#DejaVuSans-41" x="2001.576172"/>
      <use xlink:href="#DejaVuSans-43" x="2068.234375"/>
      <use xlink:href="#DejaVuSans-47" x="2138.058594"/>
      <use xlink:href="#DejaVuSans-47" x="2215.548828"/>
      <use xlink:href="#DejaVuSans-54" x="2289.414062"/>
      <use xlink:href="#DejaVuSans-5f" x="2350.498047"/>
      <use xlink:href="#DejaVuSans-4c" x="2400.498047"/>
      <use xlink:href="#DejaVuSans-30" x="2456.210938"/>
      <use xlink:href="#DejaVuSans-30" x="2519.833984"/>
      <use xlink:href="#DejaVuSans-33" x="2583.457031"/>
      <use xlink:href="#DejaVuSans-5f" x="2647.080078"/>
      <use xlink:href="#DejaVuSans-54" x="2697.080078"/>
      <use xlink:href="#DejaVuSans-31" x="2758.164062"/>
      <use xlink:href="#DejaVuSans-5f" x="2821.787109"/>
      <use xlink:href="#DejaVuSans-31" x="2871.787109"/>
     </g>
    </g>
    <g id="line2d_30">
     <path d="M 380.535 303.490394 
L 388.535 303.490394 
L 396.535 303.490394 
" style="fill: none; stroke: #d9534f; stroke-linecap: square"/>
    </g>
    <g id="text_27">
     <!-- TK9_2_22GH5GLT3_GATATTGTGT-ACCACACGGT_L003_T1_2 -->
     <g transform="translate(402.935 306.290394) scale(0.08 -0.08)">
      <use xlink:href="#DejaVuSans-54"/>
      <use xlink:href="#DejaVuSans-4b" x="61.083984"/>
      <use xlink:href="#DejaVuSans-39" x="126.660156"/>
      <use xlink:href="#DejaVuSans-5f" x="190.283203"/>
      <use xlink:href="#DejaVuSans-32" x="240.283203"/>
      <use xlink:href="#DejaVuSans-5f" x="303.90625"/>
      <use xlink:href="#DejaVuSans-32" x="353.90625"/>
      <use xlink:href="#DejaVuSans-32" x="417.529297"/>
      <use xlink:href="#DejaVuSans-47" x="481.152344"/>
      <use xlink:href="#DejaVuSans-48" x="558.642578"/>
      <use xlink:href="#DejaVuSans-35" x="633.837891"/>
      <use xlink:href="#DejaVuSans-47" x="697.460938"/>
      <use xlink:href="#DejaVuSans-4c" x="774.951172"/>
      <use xlink:href="#DejaVuSans-54" x="816.914062"/>
      <use xlink:href="#DejaVuSans-33" x="877.998047"/>
      <use xlink:href="#DejaVuSans-5f" x="941.621094"/>
      <use xlink:href="#DejaVuSans-47" x="991.621094"/>
      <use xlink:href="#DejaVuSans-41" x="1069.111328"/>
      <use xlink:href="#DejaVuSans-54" x="1129.769531"/>
      <use xlink:href="#DejaVuSans-41" x="1183.103516"/>
      <use xlink:href="#DejaVuSans-54" x="1243.761719"/>
      <use xlink:href="#DejaVuSans-54" x="1303.095703"/>
      <use xlink:href="#DejaVuSans-47" x="1364.179688"/>
      <use xlink:href="#DejaVuSans-54" x="1438.044922"/>
      <use xlink:href="#DejaVuSans-47" x="1499.128906"/>
      <use xlink:href="#DejaVuSans-54" x="1572.994141"/>
      <use xlink:href="#DejaVuSans-2d" x="1624.953125"/>
      <use xlink:href="#DejaVuSans-41" x="1658.787109"/>
      <use xlink:href="#DejaVuSans-43" x="1725.445312"/>
      <use xlink:href="#DejaVuSans-43" x="1795.269531"/>
      <use xlink:href="#DejaVuSans-41" x="1865.09375"/>
      <use xlink:href="#DejaVuSans-43" x="1931.751953"/>
      <use xlink:href="#DejaVuSans-41" x="2001.576172"/>
      <use xlink:href="#DejaVuSans-43" x="2068.234375"/>
      <use xlink:href="#DejaVuSans-47" x="2138.058594"/>
      <use xlink:href="#DejaVuSans-47" x="2215.548828"/>
      <use xlink:href="#DejaVuSans-54" x="2289.414062"/>
      <use xlink:href="#DejaVuSans-5f" x="2350.498047"/>
      <use xlink:href="#DejaVuSans-4c" x="2400.498047"/>
      <use xlink:href="#DejaVuSans-30" x="2456.210938"/>
      <use xlink:href="#DejaVuSans-30" x="2519.833984"/>
      <use xlink:href="#DejaVuSans-33" x="2583.457031"/>
      <use xlink:href="#DejaVuSans-5f" x="2647.080078"/>
      <use xlink:href="#DejaVuSans-54" x="2697.080078"/>
      <use xlink:href="#DejaVuSans-31" x="2758.164062"/>
      <use xlink:href="#DejaVuSans-5f" x="2821.787109"/>
      <use xlink:href="#DejaVuSans-32" x="2871.787109"/>
     </g>
    </g>
    <g id="line2d_31">
     <path d="M 545.229687 291.525394 
L 553.229687 291.525394 
L 561.229687 291.525394 
" style="fill: none; stroke: #d9534f; stroke-linecap: square"/>
    </g>
    <g id="text_28">
     <!-- TK9_3_22GH5GLT3_GGCGCCATTG-ACCGCGCAAT_L002_T1_1 -->
     <g transform="translate(567.629687 294.325394) scale(0.08 -0.08)">
      <use xlink:href="#DejaVuSans-54"/>
      <use xlink:href="#DejaVuSans-4b" x="61.083984"/>
      <use xlink:href="#DejaVuSans-39" x="126.660156"/>
      <use xlink:href="#DejaVuSans-5f" x="190.283203"/>
      <use xlink:href="#DejaVuSans-33" x="240.283203"/>
      <use xlink:href="#DejaVuSans-5f" x="303.90625"/>
      <use xlink:href="#DejaVuSans-32" x="353.90625"/>
      <use xlink:href="#DejaVuSans-32" x="417.529297"/>
      <use xlink:href="#DejaVuSans-47" x="481.152344"/>
      <use xlink:href="#DejaVuSans-48" x="558.642578"/>
      <use xlink:href="#DejaVuSans-35" x="633.837891"/>
      <use xlink:href="#DejaVuSans-47" x="697.460938"/>
      <use xlink:href="#DejaVuSans-4c" x="774.951172"/>
      <use xlink:href="#DejaVuSans-54" x="816.914062"/>
      <use xlink:href="#DejaVuSans-33" x="877.998047"/>
      <use xlink:href="#DejaVuSans-5f" x="941.621094"/>
      <use xlink:href="#DejaVuSans-47" x="991.621094"/>
      <use xlink:href="#DejaVuSans-47" x="1069.111328"/>
      <use xlink:href="#DejaVuSans-43" x="1146.601562"/>
      <use xlink:href="#DejaVuSans-47" x="1216.425781"/>
      <use xlink:href="#DejaVuSans-43" x="1293.916016"/>
      <use xlink:href="#DejaVuSans-43" x="1363.740234"/>
      <use xlink:href="#DejaVuSans-41" x="1433.564453"/>
      <use xlink:href="#DejaVuSans-54" x="1494.222656"/>
      <use xlink:href="#DejaVuSans-54" x="1553.556641"/>
      <use xlink:href="#DejaVuSans-47" x="1614.640625"/>
      <use xlink:href="#DejaVuSans-2d" x="1692.130859"/>
      <use xlink:href="#DejaVuSans-41" x="1725.964844"/>
      <use xlink:href="#DejaVuSans-43" x="1792.623047"/>
      <use xlink:href="#DejaVuSans-43" x="1862.447266"/>
      <use xlink:href="#DejaVuSans-47" x="1932.271484"/>
      <use xlink:href="#DejaVuSans-43" x="2009.761719"/>
      <use xlink:href="#DejaVuSans-47" x="2079.585938"/>
      <use xlink:href="#DejaVuSans-43" x="2157.076172"/>
      <use xlink:href="#DejaVuSans-41" x="2226.900391"/>
      <use xlink:href="#DejaVuSans-41" x="2298.058594"/>
      <use xlink:href="#DejaVuSans-54" x="2358.716797"/>
      <use xlink:href="#DejaVuSans-5f" x="2419.800781"/>
      <use xlink:href="#DejaVuSans-4c" x="2469.800781"/>
      <use xlink:href="#DejaVuSans-30" x="2525.513672"/>
      <use xlink:href="#DejaVuSans-30" x="2589.136719"/>
      <use xlink:href="#DejaVuSans-32" x="2652.759766"/>
      <use xlink:href="#DejaVuSans-5f" x="2716.382812"/>
      <use xlink:href="#DejaVuSans-54" x="2766.382812"/>
      <use xlink:href="#DejaVuSans-31" x="2827.466797"/>
      <use xlink:href="#DejaVuSans-5f" x="2891.089844"/>
      <use xlink:href="#DejaVuSans-31" x="2941.089844"/>
     </g>
    </g>
    <g id="line2d_32">
     <path d="M 545.229687 303.490394 
L 553.229687 303.490394 
L 561.229687 303.490394 
" style="fill: none; stroke: #d9534f; stroke-linecap: square"/>
    </g>
    <g id="text_29">
     <!-- TK9_3_22GH5GLT3_GGCGCCATTG-ACCGCGCAAT_L002_T1_2 -->
     <g transform="translate(567.629687 306.290394) scale(0.08 -0.08)">
      <use xlink:href="#DejaVuSans-54"/>
      <use xlink:href="#DejaVuSans-4b" x="61.083984"/>
      <use xlink:href="#DejaVuSans-39" x="126.660156"/>
      <use xlink:href="#DejaVuSans-5f" x="190.283203"/>
      <use xlink:href="#DejaVuSans-33" x="240.283203"/>
      <use xlink:href="#DejaVuSans-5f" x="303.90625"/>
      <use xlink:href="#DejaVuSans-32" x="353.90625"/>
      <use xlink:href="#DejaVuSans-32" x="417.529297"/>
      <use xlink:href="#DejaVuSans-47" x="481.152344"/>
      <use xlink:href="#DejaVuSans-48" x="558.642578"/>
      <use xlink:href="#DejaVuSans-35" x="633.837891"/>
      <use xlink:href="#DejaVuSans-47" x="697.460938"/>
      <use xlink:href="#DejaVuSans-4c" x="774.951172"/>
      <use xlink:href="#DejaVuSans-54" x="816.914062"/>
      <use xlink:href="#DejaVuSans-33" x="877.998047"/>
      <use xlink:href="#DejaVuSans-5f" x="941.621094"/>
      <use xlink:href="#DejaVuSans-47" x="991.621094"/>
      <use xlink:href="#DejaVuSans-47" x="1069.111328"/>
      <use xlink:href="#DejaVuSans-43" x="1146.601562"/>
      <use xlink:href="#DejaVuSans-47" x="1216.425781"/>
      <use xlink:href="#DejaVuSans-43" x="1293.916016"/>
      <use xlink:href="#DejaVuSans-43" x="1363.740234"/>
      <use xlink:href="#DejaVuSans-41" x="1433.564453"/>
      <use xlink:href="#DejaVuSans-54" x="1494.222656"/>
      <use xlink:href="#DejaVuSans-54" x="1553.556641"/>
      <use xlink:href="#DejaVuSans-47" x="1614.640625"/>
      <use xlink:href="#DejaVuSans-2d" x="1692.130859"/>
      <use xlink:href="#DejaVuSans-41" x="1725.964844"/>
      <use xlink:href="#DejaVuSans-43" x="1792.623047"/>
      <use xlink:href="#DejaVuSans-43" x="1862.447266"/>
      <use xlink:href="#DejaVuSans-47" x="1932.271484"/>
      <use xlink:href="#DejaVuSans-43" x="2009.761719"/>
      <use xlink:href="#DejaVuSans-47" x="2079.585938"/>
      <use xlink:href="#DejaVuSans-43" x="2157.076172"/>
      <use xlink:href="#DejaVuSans-41" x="2226.900391"/>
      <use xlink:href="#DejaVuSans-41" x="2298.058594"/>
      <use xlink:href="#DejaVuSans-54" x="2358.716797"/>
      <use xlink:href="#DejaVuSans-5f" x="2419.800781"/>
      <use xlink:href="#DejaVuSans-4c" x="2469.800781"/>
      <use xlink:href="#DejaVuSans-30" x="2525.513672"/>
      <use xlink:href="#DejaVuSans-30" x="2589.136719"/>
      <use xlink:href="#DejaVuSans-32" x="2652.759766"/>
      <use xlink:href="#DejaVuSans-5f" x="2716.382812"/>
      <use xlink:href="#DejaVuSans-54" x="2766.382812"/>
      <use xlink:href="#DejaVuSans-31" x="2827.466797"/>
      <use xlink:href="#DejaVuSans-5f" x="2891.089844"/>
      <use xlink:href="#DejaVuSans-32" x="2941.089844"/>
     </g>
    </g>
    <g id="line2d_33">
     <path d="M 715.470625 291.525394 
L 723.470625 291.525394 
L 731.470625 291.525394 
" style="fill: none; stroke: #d9534f; stroke-linecap: square"/>
    </g>
    <g id="text_30">
     <!-- TK9_3_22GH5GLT3_GGCGCCATTG-ACCGCGCAAT_L003_T1_1 -->
     <g transform="translate(737.870625 294.325394) scale(0.08 -0.08)">
      <use xlink:href="#DejaVuSans-54"/>
      <use xlink:href="#DejaVuSans-4b" x="61.083984"/>
      <use xlink:href="#DejaVuSans-39" x="126.660156"/>
      <use xlink:href="#DejaVuSans-5f" x="190.283203"/>
      <use xlink:href="#DejaVuSans-33" x="240.283203"/>
      <use xlink:href="#DejaVuSans-5f" x="303.90625"/>
      <use xlink:href="#DejaVuSans-32" x="353.90625"/>
      <use xlink:href="#DejaVuSans-32" x="417.529297"/>
      <use xlink:href="#DejaVuSans-47" x="481.152344"/>
      <use xlink:href="#DejaVuSans-48" x="558.642578"/>
      <use xlink:href="#DejaVuSans-35" x="633.837891"/>
      <use xlink:href="#DejaVuSans-47" x="697.460938"/>
      <use xlink:href="#DejaVuSans-4c" x="774.951172"/>
      <use xlink:href="#DejaVuSans-54" x="816.914062"/>
      <use xlink:href="#DejaVuSans-33" x="877.998047"/>
      <use xlink:href="#DejaVuSans-5f" x="941.621094"/>
      <use xlink:href="#DejaVuSans-47" x="991.621094"/>
      <use xlink:href="#DejaVuSans-47" x="1069.111328"/>
      <use xlink:href="#DejaVuSans-43" x="1146.601562"/>
      <use xlink:href="#DejaVuSans-47" x="1216.425781"/>
      <use xlink:href="#DejaVuSans-43" x="1293.916016"/>
      <use xlink:href="#DejaVuSans-43" x="1363.740234"/>
      <use xlink:href="#DejaVuSans-41" x="1433.564453"/>
      <use xlink:href="#DejaVuSans-54" x="1494.222656"/>
      <use xlink:href="#DejaVuSans-54" x="1553.556641"/>
      <use xlink:href="#DejaVuSans-47" x="1614.640625"/>
      <use xlink:href="#DejaVuSans-2d" x="1692.130859"/>
      <use xlink:href="#DejaVuSans-41" x="1725.964844"/>
      <use xlink:href="#DejaVuSans-43" x="1792.623047"/>
      <use xlink:href="#DejaVuSans-43" x="1862.447266"/>
      <use xlink:href="#DejaVuSans-47" x="1932.271484"/>
      <use xlink:href="#DejaVuSans-43" x="2009.761719"/>
      <use xlink:href="#DejaVuSans-47" x="2079.585938"/>
      <use xlink:href="#DejaVuSans-43" x="2157.076172"/>
      <use xlink:href="#DejaVuSans-41" x="2226.900391"/>
      <use xlink:href="#DejaVuSans-41" x="2298.058594"/>
      <use xlink:href="#DejaVuSans-54" x="2358.716797"/>
      <use xlink:href="#DejaVuSans-5f" x="2419.800781"/>
      <use xlink:href="#DejaVuSans-4c" x="2469.800781"/>
      <use xlink:href="#DejaVuSans-30" x="2525.513672"/>
      <use xlink:href="#DejaVuSans-30" x="2589.136719"/>
      <use xlink:href="#DejaVuSans-33" x="2652.759766"/>
      <use xlink:href="#DejaVuSans-5f" x="2716.382812"/>
      <use xlink:href="#DejaVuSans-54" x="2766.382812"/>
      <use xlink:href="#DejaVuSans-31" x="2827.466797"/>
      <use xlink:href="#DejaVuSans-5f" x="2891.089844"/>
      <use xlink:href="#DejaVuSans-31" x="2941.089844"/>
     </g>
    </g>
    <g id="line2d_34">
     <path d="M 715.470625 303.490394 
L 723.470625 303.490394 
L 731.470625 303.490394 
" style="fill: none; stroke: #d9534f; stroke-linecap: square"/>
    </g>
    <g id="text_31">
     <!-- TK9_3_22GH5GLT3_GGCGCCATTG-ACCGCGCAAT_L003_T1_2 -->
     <g transform="translate(737.870625 306.290394) scale(0.08 -0.08)">
      <use xlink:href="#DejaVuSans-54"/>
      <use xlink:href="#DejaVuSans-4b" x="61.083984"/>
      <use xlink:href="#DejaVuSans-39" x="126.660156"/>
      <use xlink:href="#DejaVuSans-5f" x="190.283203"/>
      <use xlink:href="#DejaVuSans-33" x="240.283203"/>
      <use xlink:href="#DejaVuSans-5f" x="303.90625"/>
      <use xlink:href="#DejaVuSans-32" x="353.90625"/>
      <use xlink:href="#DejaVuSans-32" x="417.529297"/>
      <use xlink:href="#DejaVuSans-47" x="481.152344"/>
      <use xlink:href="#DejaVuSans-48" x="558.642578"/>
      <use xlink:href="#DejaVuSans-35" x="633.837891"/>
      <use xlink:href="#DejaVuSans-47" x="697.460938"/>
      <use xlink:href="#DejaVuSans-4c" x="774.951172"/>
      <use xlink:href="#DejaVuSans-54" x="816.914062"/>
      <use xlink:href="#DejaVuSans-33" x="877.998047"/>
      <use xlink:href="#DejaVuSans-5f" x="941.621094"/>
      <use xlink:href="#DejaVuSans-47" x="991.621094"/>
      <use xlink:href="#DejaVuSans-47" x="1069.111328"/>
      <use xlink:href="#DejaVuSans-43" x="1146.601562"/>
      <use xlink:href="#DejaVuSans-47" x="1216.425781"/>
      <use xlink:href="#DejaVuSans-43" x="1293.916016"/>
      <use xlink:href="#DejaVuSans-43" x="1363.740234"/>
      <use xlink:href="#DejaVuSans-41" x="1433.564453"/>
      <use xlink:href="#DejaVuSans-54" x="1494.222656"/>
      <use xlink:href="#DejaVuSans-54" x="1553.556641"/>
      <use xlink:href="#DejaVuSans-47" x="1614.640625"/>
      <use xlink:href="#DejaVuSans-2d" x="1692.130859"/>
      <use xlink:href="#DejaVuSans-41" x="1725.964844"/>
      <use xlink:href="#DejaVuSans-43" x="1792.623047"/>
      <use xlink:href="#DejaVuSans-43" x="1862.447266"/>
      <use xlink:href="#DejaVuSans-47" x="1932.271484"/>
      <use xlink:href="#DejaVuSans-43" x="2009.761719"/>
      <use xlink:href="#DejaVuSans-47" x="2079.585938"/>
      <use xlink:href="#DejaVuSans-43" x="2157.076172"/>
      <use xlink:href="#DejaVuSans-41" x="2226.900391"/>
      <use xlink:href="#DejaVuSans-41" x="2298.058594"/>
      <use xlink:href="#DejaVuSans-54" x="2358.716797"/>
      <use xlink:href="#DejaVuSans-5f" x="2419.800781"/>
      <use xlink:href="#DejaVuSans-4c" x="2469.800781"/>
      <use xlink:href="#DejaVuSans-30" x="2525.513672"/>
      <use xlink:href="#DejaVuSans-30" x="2589.136719"/>
      <use xlink:href="#DejaVuSans-33" x="2652.759766"/>
      <use xlink:href="#DejaVuSans-5f" x="2716.382812"/>
      <use xlink:href="#DejaVuSans-54" x="2766.382812"/>
      <use xlink:href="#DejaVuSans-31" x="2827.466797"/>
      <use xlink:href="#DejaVuSans-5f" x="2891.089844"/>
      <use xlink:href="#DejaVuSans-32" x="2941.089844"/>
     </g>
    </g>
   </g>
  </g>
 </g>
 <defs>
  <clipPath id="p31226549df">
   <rect x="40.600625" y="31.48286" width="944.845" height="242.5072"/>
  </clipPath>
 </defs>
</svg>
