<?xml version="1.0" encoding="utf-8" standalone="no"?>
<!DOCTYPE svg PUBLIC "-//W3C//DTD SVG 1.1//EN"
  "http://www.w3.org/Graphics/SVG/1.1/DTD/svg11.dtd">
<svg xmlns:xlink="http://www.w3.org/1999/xlink" width="1000.280625pt" height="330.541644pt" viewBox="0 0 1000.280625 330.541644" xmlns="http://www.w3.org/2000/svg" version="1.1">
 <metadata>
  <rdf:RDF xmlns:dc="http://purl.org/dc/elements/1.1/" xmlns:cc="http://creativecommons.org/ns#" xmlns:rdf="http://www.w3.org/1999/02/22-rdf-syntax-ns#">
   <cc:Work>
    <dc:type rdf:resource="http://purl.org/dc/dcmitype/StillImage"/>
    <dc:date>2023-11-29T15:17:52.322561</dc:date>
    <dc:format>image/svg+xml</dc:format>
    <dc:creator>
     <cc:Agent>
      <dc:title>Matplotlib v3.6.2, https://matplotlib.org/</dc:title>
     </cc:Agent>
    </dc:creator>
   </cc:Work>
  </rdf:RDF>
 </metadata>
 <defs>
  <style type="text/css">*{stroke-linejoin: round; stroke-linecap: butt}</style>
 </defs>
 <g id="figure_1">
  <g id="axes_1">
   <g id="patch_1">
    <path d="M 40.600625 273.99006 
L 985.445625 273.99006 
L 985.445625 31.48286 
L 40.600625 31.48286 
z
" style="fill: #ffffff"/>
   </g>
   <g id="matplotlib.axis_1">
    <g id="xtick_1">
     <g id="text_1">
      <!-- 0 -->
      <g transform="translate(38.055625 287.06881) scale(0.08 -0.08)">
       <defs>
        <path id="DejaVuSans-30" d="M 2034 4250 
Q 1547 4250 1301 3770 
Q 1056 3291 1056 2328 
Q 1056 1369 1301 889 
Q 1547 409 2034 409 
Q 2525 409 2770 889 
Q 3016 1369 3016 2328 
Q 3016 3291 2770 3770 
Q 2525 4250 2034 4250 
z
M 2034 4750 
Q 2819 4750 3233 4129 
Q 3647 3509 3647 2328 
Q 3647 1150 3233 529 
Q 2819 -91 2034 -91 
Q 1250 -91 836 529 
Q 422 1150 422 2328 
Q 422 3509 836 4129 
Q 1250 4750 2034 4750 
z
" transform="scale(0.015625)"/>
       </defs>
       <use xlink:href="#DejaVuSans-30"/>
      </g>
     </g>
    </g>
    <g id="xtick_2">
     <g id="text_2">
      <!-- 20 -->
      <g transform="translate(224.479625 287.06881) scale(0.08 -0.08)">
       <defs>
        <path id="DejaVuSans-32" d="M 1228 531 
L 3431 531 
L 3431 0 
L 469 0 
L 469 531 
Q 828 903 1448 1529 
Q 2069 2156 2228 2338 
Q 2531 2678 2651 2914 
Q 2772 3150 2772 3378 
Q 2772 3750 2511 3984 
Q 2250 4219 1831 4219 
Q 1534 4219 1204 4116 
Q 875 4013 500 3803 
L 500 4441 
Q 881 4594 1212 4672 
Q 1544 4750 1819 4750 
Q 2544 4750 2975 4387 
Q 3406 4025 3406 3419 
Q 3406 3131 3298 2873 
Q 3191 2616 2906 2266 
Q 2828 2175 2409 1742 
Q 1991 1309 1228 531 
z
" transform="scale(0.015625)"/>
       </defs>
       <use xlink:href="#DejaVuSans-32"/>
       <use xlink:href="#DejaVuSans-30" x="63.623047"/>
      </g>
     </g>
    </g>
    <g id="xtick_3">
     <g id="text_3">
      <!-- 40 -->
      <g transform="translate(413.448625 287.06881) scale(0.08 -0.08)">
       <defs>
        <path id="DejaVuSans-34" d="M 2419 4116 
L 825 1625 
L 2419 1625 
L 2419 4116 
z
M 2253 4666 
L 3047 4666 
L 3047 1625 
L 3713 1625 
L 3713 1100 
L 3047 1100 
L 3047 0 
L 2419 0 
L 2419 1100 
L 313 1100 
L 313 1709 
L 2253 4666 
z
" transform="scale(0.015625)"/>
       </defs>
       <use xlink:href="#DejaVuSans-34"/>
       <use xlink:href="#DejaVuSans-30" x="63.623047"/>
      </g>
     </g>
    </g>
    <g id="xtick_4">
     <g id="text_4">
      <!-- 60 -->
      <g transform="translate(602.417625 287.06881) scale(0.08 -0.08)">
       <defs>
        <path id="DejaVuSans-36" d="M 2113 2584 
Q 1688 2584 1439 2293 
Q 1191 2003 1191 1497 
Q 1191 994 1439 701 
Q 1688 409 2113 409 
Q 2538 409 2786 701 
Q 3034 994 3034 1497 
Q 3034 2003 2786 2293 
Q 2538 2584 2113 2584 
z
M 3366 4563 
L 3366 3988 
Q 3128 4100 2886 4159 
Q 2644 4219 2406 4219 
Q 1781 4219 1451 3797 
Q 1122 3375 1075 2522 
Q 1259 2794 1537 2939 
Q 1816 3084 2150 3084 
Q 2853 3084 3261 2657 
Q 3669 2231 3669 1497 
Q 3669 778 3244 343 
Q 2819 -91 2113 -91 
Q 1303 -91 875 529 
Q 447 1150 447 2328 
Q 447 3434 972 4092 
Q 1497 4750 2381 4750 
Q 2619 4750 2861 4703 
Q 3103 4656 3366 4563 
z
" transform="scale(0.015625)"/>
       </defs>
       <use xlink:href="#DejaVuSans-36"/>
       <use xlink:href="#DejaVuSans-30" x="63.623047"/>
      </g>
     </g>
    </g>
    <g id="xtick_5">
     <g id="text_5">
      <!-- 80 -->
      <g transform="translate(791.386625 287.06881) scale(0.08 -0.08)">
       <defs>
        <path id="DejaVuSans-38" d="M 2034 2216 
Q 1584 2216 1326 1975 
Q 1069 1734 1069 1313 
Q 1069 891 1326 650 
Q 1584 409 2034 409 
Q 2484 409 2743 651 
Q 3003 894 3003 1313 
Q 3003 1734 2745 1975 
Q 2488 2216 2034 2216 
z
M 1403 2484 
Q 997 2584 770 2862 
Q 544 3141 544 3541 
Q 544 4100 942 4425 
Q 1341 4750 2034 4750 
Q 2731 4750 3128 4425 
Q 3525 4100 3525 3541 
Q 3525 3141 3298 2862 
Q 3072 2584 2669 2484 
Q 3125 2378 3379 2068 
Q 3634 1759 3634 1313 
Q 3634 634 3220 271 
Q 2806 -91 2034 -91 
Q 1263 -91 848 271 
Q 434 634 434 1313 
Q 434 1759 690 2068 
Q 947 2378 1403 2484 
z
M 1172 3481 
Q 1172 3119 1398 2916 
Q 1625 2713 2034 2713 
Q 2441 2713 2670 2916 
Q 2900 3119 2900 3481 
Q 2900 3844 2670 4047 
Q 2441 4250 2034 4250 
Q 1625 4250 1398 4047 
Q 1172 3844 1172 3481 
z
" transform="scale(0.015625)"/>
       </defs>
       <use xlink:href="#DejaVuSans-38"/>
       <use xlink:href="#DejaVuSans-30" x="63.623047"/>
      </g>
     </g>
    </g>
    <g id="xtick_6">
     <g id="text_6">
      <!-- 100 -->
      <g transform="translate(977.810625 287.06881) scale(0.08 -0.08)">
       <defs>
        <path id="DejaVuSans-31" d="M 794 531 
L 1825 531 
L 1825 4091 
L 703 3866 
L 703 4441 
L 1819 4666 
L 2450 4666 
L 2450 531 
L 3481 531 
L 3481 0 
L 794 0 
L 794 531 
z
" transform="scale(0.015625)"/>
       </defs>
       <use xlink:href="#DejaVuSans-31"/>
       <use xlink:href="#DejaVuSans-30" x="63.623047"/>
       <use xlink:href="#DejaVuSans-30" x="127.246094"/>
      </g>
     </g>
    </g>
    <g id="text_7">
     <!-- % GC -->
     <g transform="translate(499.317656 300.330997) scale(0.1 -0.1)">
      <defs>
       <path id="DejaVuSans-25" d="M 4653 2053 
Q 4381 2053 4226 1822 
Q 4072 1591 4072 1178 
Q 4072 772 4226 539 
Q 4381 306 4653 306 
Q 4919 306 5073 539 
Q 5228 772 5228 1178 
Q 5228 1588 5073 1820 
Q 4919 2053 4653 2053 
z
M 4653 2450 
Q 5147 2450 5437 2106 
Q 5728 1763 5728 1178 
Q 5728 594 5436 251 
Q 5144 -91 4653 -91 
Q 4153 -91 3862 251 
Q 3572 594 3572 1178 
Q 3572 1766 3864 2108 
Q 4156 2450 4653 2450 
z
M 1428 4353 
Q 1159 4353 1004 4120 
Q 850 3888 850 3481 
Q 850 3069 1003 2837 
Q 1156 2606 1428 2606 
Q 1700 2606 1854 2837 
Q 2009 3069 2009 3481 
Q 2009 3884 1853 4118 
Q 1697 4353 1428 4353 
z
M 4250 4750 
L 4750 4750 
L 1831 -91 
L 1331 -91 
L 4250 4750 
z
M 1428 4750 
Q 1922 4750 2215 4408 
Q 2509 4066 2509 3481 
Q 2509 2891 2217 2550 
Q 1925 2209 1428 2209 
Q 931 2209 642 2551 
Q 353 2894 353 3481 
Q 353 4063 643 4406 
Q 934 4750 1428 4750 
z
" transform="scale(0.015625)"/>
       <path id="DejaVuSans-20" transform="scale(0.015625)"/>
       <path id="DejaVuSans-47" d="M 3809 666 
L 3809 1919 
L 2778 1919 
L 2778 2438 
L 4434 2438 
L 4434 434 
Q 4069 175 3628 42 
Q 3188 -91 2688 -91 
Q 1594 -91 976 548 
Q 359 1188 359 2328 
Q 359 3472 976 4111 
Q 1594 4750 2688 4750 
Q 3144 4750 3555 4637 
Q 3966 4525 4313 4306 
L 4313 3634 
Q 3963 3931 3569 4081 
Q 3175 4231 2741 4231 
Q 1884 4231 1454 3753 
Q 1025 3275 1025 2328 
Q 1025 1384 1454 906 
Q 1884 428 2741 428 
Q 3075 428 3337 486 
Q 3600 544 3809 666 
z
" transform="scale(0.015625)"/>
       <path id="DejaVuSans-43" d="M 4122 4306 
L 4122 3641 
Q 3803 3938 3442 4084 
Q 3081 4231 2675 4231 
Q 1875 4231 1450 3742 
Q 1025 3253 1025 2328 
Q 1025 1406 1450 917 
Q 1875 428 2675 428 
Q 3081 428 3442 575 
Q 3803 722 4122 1019 
L 4122 359 
Q 3791 134 3420 21 
Q 3050 -91 2638 -91 
Q 1578 -91 968 557 
Q 359 1206 359 2328 
Q 359 3453 968 4101 
Q 1578 4750 2638 4750 
Q 3056 4750 3426 4639 
Q 3797 4528 4122 4306 
z
" transform="scale(0.015625)"/>
      </defs>
      <use xlink:href="#DejaVuSans-25"/>
      <use xlink:href="#DejaVuSans-20" x="95.019531"/>
      <use xlink:href="#DejaVuSans-47" x="126.806641"/>
      <use xlink:href="#DejaVuSans-43" x="204.296875"/>
     </g>
    </g>
   </g>
   <g id="matplotlib.axis_2">
    <g id="ytick_1">
     <g id="line2d_1">
      <path d="M 40.600625 273.99006 
L 985.445625 273.99006 
" clip-path="url(#p9c83280d5f)" style="fill: none; stroke: #dedede; stroke-linecap: square"/>
     </g>
     <g id="text_8">
      <!-- 0.0 -->
      <g transform="translate(20.878125 277.029435) scale(0.08 -0.08)">
       <defs>
        <path id="DejaVuSans-2e" d="M 684 794 
L 1344 794 
L 1344 0 
L 684 0 
L 684 794 
z
" transform="scale(0.015625)"/>
       </defs>
       <use xlink:href="#DejaVuSans-30"/>
       <use xlink:href="#DejaVuSans-2e" x="63.623047"/>
       <use xlink:href="#DejaVuSans-30" x="95.410156"/>
      </g>
     </g>
    </g>
    <g id="ytick_2">
     <g id="line2d_2">
      <path d="M 40.600625 238.86404 
L 985.445625 238.86404 
" clip-path="url(#p9c83280d5f)" style="fill: none; stroke: #dedede; stroke-linecap: square"/>
     </g>
     <g id="text_9">
      <!-- 0.5 -->
      <g transform="translate(20.878125 241.903415) scale(0.08 -0.08)">
       <defs>
        <path id="DejaVuSans-35" d="M 691 4666 
L 3169 4666 
L 3169 4134 
L 1269 4134 
L 1269 2991 
Q 1406 3038 1543 3061 
Q 1681 3084 1819 3084 
Q 2600 3084 3056 2656 
Q 3513 2228 3513 1497 
Q 3513 744 3044 326 
Q 2575 -91 1722 -91 
Q 1428 -91 1123 -41 
Q 819 9 494 109 
L 494 744 
Q 775 591 1075 516 
Q 1375 441 1709 441 
Q 2250 441 2565 725 
Q 2881 1009 2881 1497 
Q 2881 1984 2565 2268 
Q 2250 2553 1709 2553 
Q 1456 2553 1204 2497 
Q 953 2441 691 2322 
L 691 4666 
z
" transform="scale(0.015625)"/>
       </defs>
       <use xlink:href="#DejaVuSans-30"/>
       <use xlink:href="#DejaVuSans-2e" x="63.623047"/>
       <use xlink:href="#DejaVuSans-35" x="95.410156"/>
      </g>
     </g>
    </g>
    <g id="ytick_3">
     <g id="line2d_3">
      <path d="M 40.600625 203.73802 
L 985.445625 203.73802 
" clip-path="url(#p9c83280d5f)" style="fill: none; stroke: #dedede; stroke-linecap: square"/>
     </g>
     <g id="text_10">
      <!-- 1.0 -->
      <g transform="translate(20.878125 206.777395) scale(0.08 -0.08)">
       <use xlink:href="#DejaVuSans-31"/>
       <use xlink:href="#DejaVuSans-2e" x="63.623047"/>
       <use xlink:href="#DejaVuSans-30" x="95.410156"/>
      </g>
     </g>
    </g>
    <g id="ytick_4">
     <g id="line2d_4">
      <path d="M 40.600625 168.612001 
L 985.445625 168.612001 
" clip-path="url(#p9c83280d5f)" style="fill: none; stroke: #dedede; stroke-linecap: square"/>
     </g>
     <g id="text_11">
      <!-- 1.5 -->
      <g transform="translate(20.878125 171.651376) scale(0.08 -0.08)">
       <use xlink:href="#DejaVuSans-31"/>
       <use xlink:href="#DejaVuSans-2e" x="63.623047"/>
       <use xlink:href="#DejaVuSans-35" x="95.410156"/>
      </g>
     </g>
    </g>
    <g id="ytick_5">
     <g id="line2d_5">
      <path d="M 40.600625 133.485981 
L 985.445625 133.485981 
" clip-path="url(#p9c83280d5f)" style="fill: none; stroke: #dedede; stroke-linecap: square"/>
     </g>
     <g id="text_12">
      <!-- 2.0 -->
      <g transform="translate(20.878125 136.525356) scale(0.08 -0.08)">
       <use xlink:href="#DejaVuSans-32"/>
       <use xlink:href="#DejaVuSans-2e" x="63.623047"/>
       <use xlink:href="#DejaVuSans-30" x="95.410156"/>
      </g>
     </g>
    </g>
    <g id="ytick_6">
     <g id="line2d_6">
      <path d="M 40.600625 98.359961 
L 985.445625 98.359961 
" clip-path="url(#p9c83280d5f)" style="fill: none; stroke: #dedede; stroke-linecap: square"/>
     </g>
     <g id="text_13">
      <!-- 2.5 -->
      <g transform="translate(20.878125 101.399336) scale(0.08 -0.08)">
       <use xlink:href="#DejaVuSans-32"/>
       <use xlink:href="#DejaVuSans-2e" x="63.623047"/>
       <use xlink:href="#DejaVuSans-35" x="95.410156"/>
      </g>
     </g>
    </g>
    <g id="ytick_7">
     <g id="line2d_7">
      <path d="M 40.600625 63.233941 
L 985.445625 63.233941 
" clip-path="url(#p9c83280d5f)" style="fill: none; stroke: #dedede; stroke-linecap: square"/>
     </g>
     <g id="text_14">
      <!-- 3.0 -->
      <g transform="translate(20.878125 66.273316) scale(0.08 -0.08)">
       <defs>
        <path id="DejaVuSans-33" d="M 2597 2516 
Q 3050 2419 3304 2112 
Q 3559 1806 3559 1356 
Q 3559 666 3084 287 
Q 2609 -91 1734 -91 
Q 1441 -91 1130 -33 
Q 819 25 488 141 
L 488 750 
Q 750 597 1062 519 
Q 1375 441 1716 441 
Q 2309 441 2620 675 
Q 2931 909 2931 1356 
Q 2931 1769 2642 2001 
Q 2353 2234 1838 2234 
L 1294 2234 
L 1294 2753 
L 1863 2753 
Q 2328 2753 2575 2939 
Q 2822 3125 2822 3475 
Q 2822 3834 2567 4026 
Q 2313 4219 1838 4219 
Q 1578 4219 1281 4162 
Q 984 4106 628 3988 
L 628 4550 
Q 988 4650 1302 4700 
Q 1616 4750 1894 4750 
Q 2613 4750 3031 4423 
Q 3450 4097 3450 3541 
Q 3450 3153 3228 2886 
Q 3006 2619 2597 2516 
z
" transform="scale(0.015625)"/>
       </defs>
       <use xlink:href="#DejaVuSans-33"/>
       <use xlink:href="#DejaVuSans-2e" x="63.623047"/>
       <use xlink:href="#DejaVuSans-30" x="95.410156"/>
      </g>
     </g>
    </g>
    <g id="text_15">
     <!-- Percentage -->
     <g transform="translate(14.798438 180.859116) rotate(-90) scale(0.1 -0.1)">
      <defs>
       <path id="DejaVuSans-50" d="M 1259 4147 
L 1259 2394 
L 2053 2394 
Q 2494 2394 2734 2622 
Q 2975 2850 2975 3272 
Q 2975 3691 2734 3919 
Q 2494 4147 2053 4147 
L 1259 4147 
z
M 628 4666 
L 2053 4666 
Q 2838 4666 3239 4311 
Q 3641 3956 3641 3272 
Q 3641 2581 3239 2228 
Q 2838 1875 2053 1875 
L 1259 1875 
L 1259 0 
L 628 0 
L 628 4666 
z
" transform="scale(0.015625)"/>
       <path id="DejaVuSans-65" d="M 3597 1894 
L 3597 1613 
L 953 1613 
Q 991 1019 1311 708 
Q 1631 397 2203 397 
Q 2534 397 2845 478 
Q 3156 559 3463 722 
L 3463 178 
Q 3153 47 2828 -22 
Q 2503 -91 2169 -91 
Q 1331 -91 842 396 
Q 353 884 353 1716 
Q 353 2575 817 3079 
Q 1281 3584 2069 3584 
Q 2775 3584 3186 3129 
Q 3597 2675 3597 1894 
z
M 3022 2063 
Q 3016 2534 2758 2815 
Q 2500 3097 2075 3097 
Q 1594 3097 1305 2825 
Q 1016 2553 972 2059 
L 3022 2063 
z
" transform="scale(0.015625)"/>
       <path id="DejaVuSans-72" d="M 2631 2963 
Q 2534 3019 2420 3045 
Q 2306 3072 2169 3072 
Q 1681 3072 1420 2755 
Q 1159 2438 1159 1844 
L 1159 0 
L 581 0 
L 581 3500 
L 1159 3500 
L 1159 2956 
Q 1341 3275 1631 3429 
Q 1922 3584 2338 3584 
Q 2397 3584 2469 3576 
Q 2541 3569 2628 3553 
L 2631 2963 
z
" transform="scale(0.015625)"/>
       <path id="DejaVuSans-63" d="M 3122 3366 
L 3122 2828 
Q 2878 2963 2633 3030 
Q 2388 3097 2138 3097 
Q 1578 3097 1268 2742 
Q 959 2388 959 1747 
Q 959 1106 1268 751 
Q 1578 397 2138 397 
Q 2388 397 2633 464 
Q 2878 531 3122 666 
L 3122 134 
Q 2881 22 2623 -34 
Q 2366 -91 2075 -91 
Q 1284 -91 818 406 
Q 353 903 353 1747 
Q 353 2603 823 3093 
Q 1294 3584 2113 3584 
Q 2378 3584 2631 3529 
Q 2884 3475 3122 3366 
z
" transform="scale(0.015625)"/>
       <path id="DejaVuSans-6e" d="M 3513 2113 
L 3513 0 
L 2938 0 
L 2938 2094 
Q 2938 2591 2744 2837 
Q 2550 3084 2163 3084 
Q 1697 3084 1428 2787 
Q 1159 2491 1159 1978 
L 1159 0 
L 581 0 
L 581 3500 
L 1159 3500 
L 1159 2956 
Q 1366 3272 1645 3428 
Q 1925 3584 2291 3584 
Q 2894 3584 3203 3211 
Q 3513 2838 3513 2113 
z
" transform="scale(0.015625)"/>
       <path id="DejaVuSans-74" d="M 1172 4494 
L 1172 3500 
L 2356 3500 
L 2356 3053 
L 1172 3053 
L 1172 1153 
Q 1172 725 1289 603 
Q 1406 481 1766 481 
L 2356 481 
L 2356 0 
L 1766 0 
Q 1100 0 847 248 
Q 594 497 594 1153 
L 594 3053 
L 172 3053 
L 172 3500 
L 594 3500 
L 594 4494 
L 1172 4494 
z
" transform="scale(0.015625)"/>
       <path id="DejaVuSans-61" d="M 2194 1759 
Q 1497 1759 1228 1600 
Q 959 1441 959 1056 
Q 959 750 1161 570 
Q 1363 391 1709 391 
Q 2188 391 2477 730 
Q 2766 1069 2766 1631 
L 2766 1759 
L 2194 1759 
z
M 3341 1997 
L 3341 0 
L 2766 0 
L 2766 531 
Q 2569 213 2275 61 
Q 1981 -91 1556 -91 
Q 1019 -91 701 211 
Q 384 513 384 1019 
Q 384 1609 779 1909 
Q 1175 2209 1959 2209 
L 2766 2209 
L 2766 2266 
Q 2766 2663 2505 2880 
Q 2244 3097 1772 3097 
Q 1472 3097 1187 3025 
Q 903 2953 641 2809 
L 641 3341 
Q 956 3463 1253 3523 
Q 1550 3584 1831 3584 
Q 2591 3584 2966 3190 
Q 3341 2797 3341 1997 
z
" transform="scale(0.015625)"/>
       <path id="DejaVuSans-67" d="M 2906 1791 
Q 2906 2416 2648 2759 
Q 2391 3103 1925 3103 
Q 1463 3103 1205 2759 
Q 947 2416 947 1791 
Q 947 1169 1205 825 
Q 1463 481 1925 481 
Q 2391 481 2648 825 
Q 2906 1169 2906 1791 
z
M 3481 434 
Q 3481 -459 3084 -895 
Q 2688 -1331 1869 -1331 
Q 1566 -1331 1297 -1286 
Q 1028 -1241 775 -1147 
L 775 -588 
Q 1028 -725 1275 -790 
Q 1522 -856 1778 -856 
Q 2344 -856 2625 -561 
Q 2906 -266 2906 331 
L 2906 616 
Q 2728 306 2450 153 
Q 2172 0 1784 0 
Q 1141 0 747 490 
Q 353 981 353 1791 
Q 353 2603 747 3093 
Q 1141 3584 1784 3584 
Q 2172 3584 2450 3431 
Q 2728 3278 2906 2969 
L 2906 3500 
L 3481 3500 
L 3481 434 
z
" transform="scale(0.015625)"/>
      </defs>
      <use xlink:href="#DejaVuSans-50"/>
      <use xlink:href="#DejaVuSans-65" x="56.677734"/>
      <use xlink:href="#DejaVuSans-72" x="118.201172"/>
      <use xlink:href="#DejaVuSans-63" x="157.064453"/>
      <use xlink:href="#DejaVuSans-65" x="212.044922"/>
      <use xlink:href="#DejaVuSans-6e" x="273.568359"/>
      <use xlink:href="#DejaVuSans-74" x="336.947266"/>
      <use xlink:href="#DejaVuSans-61" x="376.15625"/>
      <use xlink:href="#DejaVuSans-67" x="437.435547"/>
      <use xlink:href="#DejaVuSans-65" x="500.912109"/>
     </g>
    </g>
   </g>
   <g id="line2d_8">
    <path d="M 40.600625 273.971979 
L 50.049075 273.962846 
L 59.497525 273.945502 
L 68.945975 273.928989 
L 78.394425 273.908325 
L 87.842875 273.888122 
L 97.291325 273.870041 
L 106.739775 273.843195 
L 116.188225 273.798822 
L 125.636675 273.754265 
L 135.085125 273.719486 
L 144.533575 273.67991 
L 153.982025 273.633138 
L 163.430475 273.576588 
L 172.878925 273.507584 
L 182.327375 273.429262 
L 191.775825 273.290239 
L 201.224275 273.030273 
L 210.672725 272.693923 
L 220.121175 272.239307 
L 229.569625 271.50526 
L 239.018075 269.05118 
L 248.466525 267.066661 
L 257.914975 266.179845 
L 267.363425 263.228805 
L 276.811875 259.373053 
L 286.260325 254.868033 
L 295.708775 248.295098 
L 305.157225 239.80056 
L 314.605675 229.927782 
L 324.054125 217.254795 
L 333.502575 204.361327 
L 342.951025 193.316029 
L 352.399475 180.817767 
L 361.847925 165.341896 
L 371.296375 152.064384 
L 380.744825 143.298903 
L 390.193275 134.308235 
L 399.641725 126.242945 
L 409.090175 117.913722 
L 418.538625 109.106082 
L 427.987075 102.206115 
L 437.435525 94.579758 
L 446.883975 87.676931 
L 456.332425 85.948319 
L 465.780875 87.696765 
L 475.229325 88.591884 
L 484.677775 85.946935 
L 494.126225 84.150794 
L 503.574675 82.970157 
L 513.023125 83.895349 
L 522.471575 78.879716 
L 531.920025 76.552389 
L 541.368475 82.040167 
L 550.816925 75.65847 
L 560.265375 68.271322 
L 569.713825 65.383474 
L 579.162275 71.331865 
L 588.610725 81.223186 
L 598.059175 68.408316 
L 607.507625 47.921424 
L 616.956075 73.610482 
L 626.404525 107.484297 
L 635.852975 123.357034 
L 645.301425 151.090298 
L 654.749875 174.496679 
L 664.198325 189.902254 
L 673.646775 200.620058 
L 683.095225 209.932592 
L 692.543675 221.131673 
L 701.992125 230.738121 
L 711.440575 235.51187 
L 720.889025 239.038653 
L 730.337475 242.046889 
L 739.785925 242.137942 
L 749.234375 240.979906 
L 758.682825 239.968551 
L 768.131275 231.220505 
L 777.579725 225.918891 
L 787.028175 237.374248 
L 796.476625 243.632051 
L 805.925075 235.761042 
L 815.373525 226.000257 
L 824.821975 231.411005 
L 834.270425 244.452906 
L 843.718875 249.809779 
L 853.167325 247.475442 
L 862.615775 245.559281 
L 872.064225 252.653346 
L 881.512675 263.150299 
L 890.961125 270.403406 
L 900.409575 272.504438 
L 909.858025 273.201031 
L 919.306475 273.540886 
L 928.754925 273.719762 
L 938.203375 273.849007 
L 947.651825 273.921332 
L 957.100275 273.946517 
L 966.548725 273.961185 
L 975.997175 273.973916 
L 985.445625 273.976776 
" clip-path="url(#p9c83280d5f)" style="fill: none; stroke: #d9534f; stroke-linecap: square"/>
   </g>
   <g id="line2d_9">
    <path d="M 40.600625 273.930452 
L 50.049075 273.942847 
L 59.497525 273.953693 
L 68.945975 273.950686 
L 78.394425 273.945217 
L 87.842875 273.931636 
L 97.291325 273.920426 
L 106.739775 273.911129 
L 116.188225 273.881872 
L 125.636675 273.846599 
L 135.085125 273.813604 
L 144.533575 273.774412 
L 153.982025 273.718632 
L 163.430475 273.663216 
L 172.878925 273.602332 
L 182.327375 273.501526 
L 191.775825 273.364992 
L 201.224275 273.164839 
L 210.672725 272.845469 
L 220.121175 272.309358 
L 229.569625 271.508107 
L 239.018075 270.303908 
L 248.466525 268.537348 
L 257.914975 265.653904 
L 267.363425 261.559607 
L 276.811875 257.394127 
L 286.260325 252.237542 
L 295.708775 244.472315 
L 305.157225 234.365041 
L 314.605675 224.292858 
L 324.054125 214.318199 
L 333.502575 203.033249 
L 342.951025 191.580867 
L 352.399475 179.746772 
L 361.847925 169.200911 
L 371.296375 158.895216 
L 380.744825 148.75431 
L 390.193275 139.392962 
L 399.641725 130.856015 
L 409.090175 123.147662 
L 418.538625 115.390728 
L 427.987075 106.791165 
L 437.435525 97.746726 
L 446.883975 92.929198 
L 456.332425 94.301377 
L 465.780875 95.225125 
L 475.229325 94.671788 
L 484.677775 94.871941 
L 494.126225 94.442833 
L 503.574675 95.556435 
L 513.023125 97.343868 
L 522.471575 96.227987 
L 531.920025 88.816035 
L 541.368475 84.472458 
L 550.816925 85.454904 
L 560.265375 85.472312 
L 569.713825 82.566629 
L 579.162275 79.82373 
L 588.610725 77.342507 
L 598.059175 64.781444 
L 607.507625 55.190959 
L 616.956075 60.643216 
L 626.404525 83.991945 
L 635.852975 119.637783 
L 645.301425 147.893908 
L 654.749875 170.656943 
L 664.198325 188.919451 
L 673.646775 199.118234 
L 683.095225 206.43576 
L 692.543675 215.970282 
L 701.992125 225.967454 
L 711.440575 231.846175 
L 720.889025 236.249178 
L 730.337475 240.289973 
L 739.785925 241.227666 
L 749.234375 237.074581 
L 758.682825 234.633826 
L 768.131275 230.786622 
L 777.579725 224.488089 
L 787.028175 232.509068 
L 796.476625 242.099553 
L 805.925075 240.958061 
L 815.373525 239.010579 
L 824.821975 240.551466 
L 834.270425 243.264196 
L 843.718875 245.172759 
L 853.167325 244.334869 
L 862.615775 240.236197 
L 872.064225 241.205153 
L 881.512675 246.226024 
L 890.961125 249.978347 
L 900.409575 254.456635 
L 909.858025 261.317984 
L 919.306475 267.376897 
L 928.754925 270.84804 
L 938.203375 272.607582 
L 947.651825 273.340201 
L 957.100275 273.59978 
L 966.548725 273.312766 
L 975.997175 271.679003 
L 985.445625 266.23185 
" clip-path="url(#p9c83280d5f)" style="fill: none; stroke: #d9534f; stroke-linecap: square"/>
   </g>
   <g id="line2d_10">
    <path d="M 40.600625 273.973366 
L 50.049075 273.964355 
L 59.497525 273.944721 
L 68.945975 273.928786 
L 78.394425 273.912567 
L 87.842875 273.891035 
L 97.291325 273.873298 
L 106.739775 273.852241 
L 116.188225 273.810317 
L 125.636675 273.760236 
L 135.085125 273.717742 
L 144.533575 273.670791 
L 153.982025 273.626306 
L 163.430475 273.57926 
L 172.878925 273.508311 
L 182.327375 273.426454 
L 191.775825 273.288446 
L 201.224275 273.034624 
L 210.672725 272.686805 
L 220.121175 272.216912 
L 229.569625 271.503632 
L 239.018075 269.095361 
L 248.466525 267.125018 
L 257.914975 266.229244 
L 267.363425 263.340741 
L 276.811875 259.552481 
L 286.260325 255.077309 
L 295.708775 248.539408 
L 305.157225 240.041693 
L 314.605675 230.23968 
L 324.054125 217.662132 
L 333.502575 204.75583 
L 342.951025 193.743042 
L 352.399475 181.351782 
L 361.847925 165.962277 
L 371.296375 152.809646 
L 380.744825 143.89525 
L 390.193275 134.743916 
L 399.641725 126.559684 
L 409.090175 118.130072 
L 418.538625 109.417804 
L 427.987075 102.679862 
L 437.435525 95.02765 
L 446.883975 88.119261 
L 456.332425 86.378079 
L 465.780875 87.982581 
L 475.229325 88.924453 
L 484.677775 86.232672 
L 494.126225 84.370838 
L 503.574675 83.30898 
L 513.023125 84.532939 
L 522.471575 79.362413 
L 531.920025 76.855307 
L 541.368475 82.219804 
L 550.816925 75.468963 
L 560.265375 68.175762 
L 569.713825 65.526759 
L 579.162275 71.44955 
L 588.610725 81.192756 
L 598.059175 68.319367 
L 607.507625 47.963266 
L 616.956075 73.652089 
L 626.404525 107.23765 
L 635.852975 123.14011 
L 645.301425 151.090469 
L 654.749875 174.487593 
L 664.198325 189.761854 
L 673.646775 200.471878 
L 683.095225 209.742914 
L 692.543675 220.865635 
L 701.992125 230.417716 
L 711.440575 235.083539 
L 720.889025 238.712734 
L 730.337475 241.728242 
L 739.785925 241.731372 
L 749.234375 240.557209 
L 758.682825 239.498101 
L 768.131275 230.689844 
L 777.579725 225.277637 
L 787.028175 236.728637 
L 796.476625 242.986916 
L 805.925075 235.041804 
L 815.373525 225.292244 
L 824.821975 230.859532 
L 834.270425 244.000591 
L 843.718875 249.28712 
L 853.167325 247.027291 
L 862.615775 245.086162 
L 872.064225 252.149728 
L 881.512675 262.857664 
L 890.961125 270.30348 
L 900.409575 272.455084 
L 909.858025 273.167606 
L 919.306475 273.52785 
L 928.754925 273.711198 
L 938.203375 273.843515 
L 947.651825 273.922526 
L 957.100275 273.946903 
L 966.548725 273.962363 
L 975.997175 273.975548 
L 985.445625 273.977919 
" clip-path="url(#p9c83280d5f)" style="fill: none; stroke: #d9534f; stroke-linecap: square"/>
   </g>
   <g id="line2d_11">
    <path d="M 40.600625 273.934356 
L 50.049075 273.948892 
L 59.497525 273.958644 
L 68.945975 273.953674 
L 78.394425 273.94514 
L 87.842875 273.927604 
L 97.291325 273.915319 
L 106.739775 273.902659 
L 116.188225 273.874619 
L 125.636675 273.843204 
L 135.085125 273.820322 
L 144.533575 273.789188 
L 153.982025 273.731702 
L 163.430475 273.671497 
L 172.878925 273.60951 
L 182.327375 273.50973 
L 191.775825 273.366344 
L 201.224275 273.163783 
L 210.672725 272.842219 
L 220.121175 272.309467 
L 229.569625 271.526704 
L 239.018075 270.339945 
L 248.466525 268.619121 
L 257.914975 265.794345 
L 267.363425 261.73986 
L 276.811875 257.608289 
L 286.260325 252.486519 
L 295.708775 244.766445 
L 305.157225 234.637312 
L 314.605675 224.517933 
L 324.054125 214.669571 
L 333.502575 203.401506 
L 342.951025 192.072861 
L 352.399475 180.104463 
L 361.847925 169.319261 
L 371.296375 159.357053 
L 380.744825 149.130204 
L 390.193275 139.543388 
L 399.641725 131.02911 
L 409.090175 123.492466 
L 418.538625 115.91531 
L 427.987075 107.157866 
L 437.435525 97.825094 
L 446.883975 92.843146 
L 456.332425 94.492042 
L 465.780875 95.786833 
L 475.229325 95.170525 
L 484.677775 95.218352 
L 494.126225 94.597449 
L 503.574675 95.787771 
L 513.023125 97.730754 
L 522.471575 96.438777 
L 531.920025 88.944895 
L 541.368475 84.503107 
L 550.816925 85.289341 
L 560.265375 85.532038 
L 569.713825 82.781346 
L 579.162275 80.156223 
L 588.610725 77.944754 
L 598.059175 65.109192 
L 607.507625 55.041578 
L 616.956075 60.315832 
L 626.404525 83.981609 
L 635.852975 119.673082 
L 645.301425 147.86786 
L 654.749875 170.644248 
L 664.198325 188.676227 
L 673.646775 198.668726 
L 683.095225 205.972988 
L 692.543675 215.737794 
L 701.992125 225.81066 
L 711.440575 231.619823 
L 720.889025 235.978804 
L 730.337475 240.021286 
L 739.785925 241.050873 
L 749.234375 236.72959 
L 758.682825 234.15295 
L 768.131275 230.195431 
L 777.579725 223.831197 
L 787.028175 231.985275 
L 796.476625 241.61626 
L 805.925075 240.470857 
L 815.373525 238.51934 
L 824.821975 240.222533 
L 834.270425 242.93637 
L 843.718875 244.684389 
L 853.167325 243.580061 
L 862.615775 239.186569 
L 872.064225 240.233505 
L 881.512675 245.845265 
L 890.961125 250.124161 
L 900.409575 254.609368 
L 909.858025 261.49435 
L 919.306475 267.603789 
L 928.754925 270.987012 
L 938.203375 272.663103 
L 947.651825 273.356122 
L 957.100275 273.607822 
L 966.548725 273.332302 
L 975.997175 271.795096 
L 985.445625 266.56895 
" clip-path="url(#p9c83280d5f)" style="fill: none; stroke: #d9534f; stroke-linecap: square"/>
   </g>
   <g id="line2d_12">
    <path d="M 40.600625 273.970654 
L 50.049075 273.964729 
L 59.497525 273.949545 
L 68.945975 273.93488 
L 78.394425 273.92214 
L 87.842875 273.905105 
L 97.291325 273.885477 
L 106.739775 273.857554 
L 116.188225 273.808447 
L 125.636675 273.75897 
L 135.085125 273.719788 
L 144.533575 273.667423 
L 153.982025 273.611724 
L 163.430475 273.551285 
L 172.878925 273.475366 
L 182.327375 273.400262 
L 191.775825 273.267385 
L 201.224275 273.019926 
L 210.672725 272.674032 
L 220.121175 272.230887 
L 229.569625 271.563022 
L 239.018075 269.156574 
L 248.466525 267.279634 
L 257.914975 266.54496 
L 267.363425 263.803284 
L 276.811875 260.216426 
L 286.260325 255.975997 
L 295.708775 249.875071 
L 305.157225 242.183698 
L 314.605675 233.168445 
L 324.054125 221.262492 
L 333.502575 208.811108 
L 342.951025 197.939061 
L 352.399475 185.3508 
L 361.847925 169.927168 
L 371.296375 156.729259 
L 380.744825 146.758093 
L 390.193275 137.165708 
L 399.641725 129.340495 
L 409.090175 121.101838 
L 418.538625 112.643719 
L 427.987075 105.589325 
L 437.435525 96.722429 
L 446.883975 88.764191 
L 456.332425 86.310784 
L 465.780875 87.694881 
L 475.229325 89.158895 
L 484.677775 86.186425 
L 494.126225 84.276377 
L 503.574675 81.681428 
L 513.023125 81.408861 
L 522.471575 75.605315 
L 531.920025 73.065843 
L 541.368475 80.818692 
L 550.816925 72.222068 
L 560.265375 62.886474 
L 569.713825 55.457595 
L 579.162275 57.617768 
L 588.610725 72.707727 
L 598.059175 67.7584 
L 607.507625 43.03043 
L 616.956075 64.813261 
L 626.404525 104.950494 
L 635.852975 121.351889 
L 645.301425 147.118061 
L 654.749875 170.352093 
L 664.198325 186.915102 
L 673.646775 198.747876 
L 683.095225 209.197591 
L 692.543675 220.361241 
L 701.992125 229.773199 
L 711.440575 234.658161 
L 720.889025 238.212356 
L 730.337475 241.203046 
L 739.785925 241.982161 
L 749.234375 242.271394 
L 758.682825 241.413694 
L 768.131275 233.616034 
L 777.579725 229.158588 
L 787.028175 239.508312 
L 796.476625 246.152596 
L 805.925075 240.89263 
L 815.373525 233.542263 
L 824.821975 237.030241 
L 834.270425 246.452939 
L 843.718875 249.977062 
L 853.167325 246.360132 
L 862.615775 244.093302 
L 872.064225 251.668834 
L 881.512675 262.487997 
L 890.961125 270.006571 
L 900.409575 272.310583 
L 909.858025 273.131472 
L 919.306475 273.46907 
L 928.754925 273.65335 
L 938.203375 273.817039 
L 947.651825 273.925177 
L 957.100275 273.955841 
L 966.548725 273.967544 
L 975.997175 273.977469 
L 985.445625 273.979098 
" clip-path="url(#p9c83280d5f)" style="fill: none; stroke: #d9534f; stroke-linecap: square"/>
   </g>
   <g id="line2d_13">
    <path d="M 40.600625 273.938462 
L 50.049075 273.948943 
L 59.497525 273.955832 
L 68.945975 273.952607 
L 78.394425 273.947917 
L 87.842875 273.931206 
L 97.291325 273.918379 
L 106.739775 273.908485 
L 116.188225 273.879681 
L 125.636675 273.849044 
L 135.085125 273.822586 
L 144.533575 273.781835 
L 153.982025 273.724593 
L 163.430475 273.670429 
L 172.878925 273.602633 
L 182.327375 273.48683 
L 191.775825 273.332182 
L 201.224275 273.125276 
L 210.672725 272.802274 
L 220.121175 272.273905 
L 229.569625 271.503082 
L 239.018075 270.373857 
L 248.466525 268.709887 
L 257.914975 265.981189 
L 267.363425 262.447514 
L 276.811875 258.612166 
L 286.260325 253.564478 
L 295.708775 246.428819 
L 305.157225 237.141865 
L 314.605675 227.439413 
L 324.054125 217.727873 
L 333.502575 206.770864 
L 342.951025 195.008513 
L 352.399475 182.312849 
L 361.847925 171.466073 
L 371.296375 161.07452 
L 380.744825 150.366049 
L 390.193275 140.806591 
L 399.641725 132.243112 
L 409.090175 124.933016 
L 418.538625 117.261073 
L 427.987075 108.049977 
L 437.435525 97.573991 
L 446.883975 91.298865 
L 456.332425 93.108909 
L 465.780875 95.298757 
L 475.229325 95.416612 
L 484.677775 95.373662 
L 494.126225 94.022799 
L 503.574675 94.377611 
L 513.023125 95.557554 
L 522.471575 94.319196 
L 531.920025 88.121248 
L 541.368475 84.46598 
L 550.816925 83.573492 
L 560.265375 82.357781 
L 569.713825 79.475974 
L 579.162275 74.030598 
L 588.610725 70.135076 
L 598.059175 58.258314 
L 607.507625 43.398162 
L 616.956075 50.005597 
L 626.404525 78.773167 
L 635.852975 114.836248 
L 645.301425 143.859097 
L 654.749875 167.822312 
L 664.198325 187.538785 
L 673.646775 197.235887 
L 683.095225 205.364738 
L 692.543675 216.051222 
L 701.992125 226.255731 
L 711.440575 232.411536 
L 720.889025 237.058971 
L 730.337475 241.331732 
L 739.785925 241.984626 
L 749.234375 237.178218 
L 758.682825 235.633495 
L 768.131275 233.397107 
L 777.579725 228.470132 
L 787.028175 235.972549 
L 796.476625 244.730694 
L 805.925075 244.706581 
L 815.373525 242.891113 
L 824.821975 243.071048 
L 834.270425 244.511841 
L 843.718875 245.640846 
L 853.167325 244.454306 
L 862.615775 241.400407 
L 872.064225 243.506115 
L 881.512675 248.856356 
L 890.961125 253.061395 
L 900.409575 257.418076 
L 909.858025 262.947079 
L 919.306475 267.617968 
L 928.754925 270.21166 
L 938.203375 271.662641 
L 947.651825 272.7056 
L 957.100275 273.226201 
L 966.548725 273.050004 
L 975.997175 271.545959 
L 985.445625 266.1546 
" clip-path="url(#p9c83280d5f)" style="fill: none; stroke: #d9534f; stroke-linecap: square"/>
   </g>
   <g id="line2d_14">
    <path d="M 40.600625 273.973024 
L 50.049075 273.967321 
L 59.497525 273.954359 
L 68.945975 273.936064 
L 78.394425 273.919473 
L 87.842875 273.901548 
L 97.291325 273.87955 
L 106.739775 273.854293 
L 116.188225 273.809111 
L 125.636675 273.760893 
L 135.085125 273.72097 
L 144.533575 273.673566 
L 153.982025 273.618681 
L 163.430475 273.557945 
L 172.878925 273.487951 
L 182.327375 273.40729 
L 191.775825 273.26619 
L 201.224275 273.018283 
L 210.672725 272.675051 
L 220.121175 272.216642 
L 229.569625 271.555211 
L 239.018075 269.240205 
L 248.466525 267.399607 
L 257.914975 266.626778 
L 267.363425 263.919135 
L 276.811875 260.352967 
L 286.260325 256.156699 
L 295.708775 250.195679 
L 305.157225 242.449685 
L 314.605675 233.427198 
L 324.054125 221.727733 
L 333.502575 209.226774 
L 342.951025 198.209182 
L 352.399475 185.709853 
L 361.847925 170.566802 
L 371.296375 157.397081 
L 380.744825 147.202684 
L 390.193275 137.58765 
L 399.641725 129.932909 
L 409.090175 121.891976 
L 418.538625 113.356562 
L 427.987075 105.977948 
L 437.435525 96.937832 
L 446.883975 88.887492 
L 456.332425 86.460495 
L 465.780875 87.761135 
L 475.229325 89.036888 
L 484.677775 86.103485 
L 494.126225 84.205336 
L 503.574675 81.693012 
L 513.023125 81.709455 
L 522.471575 76.026487 
L 531.920025 73.126193 
L 541.368475 80.841003 
L 550.816925 72.545053 
L 560.265375 63.276585 
L 569.713825 55.976038 
L 579.162275 57.977735 
L 588.610725 72.878508 
L 598.059175 68.021255 
L 607.507625 43.615365 
L 616.956075 65.193844 
L 626.404525 104.878107 
L 635.852975 121.206621 
L 645.301425 147.129282 
L 654.749875 170.408 
L 664.198325 186.776141 
L 673.646775 198.535009 
L 683.095225 208.924353 
L 692.543675 220.166669 
L 701.992125 229.559794 
L 711.440575 234.379569 
L 720.889025 237.801452 
L 730.337475 240.714709 
L 739.785925 241.558051 
L 749.234375 241.857213 
L 758.682825 240.920396 
L 768.131275 232.933977 
L 777.579725 228.415216 
L 787.028175 238.840039 
L 796.476625 245.502042 
L 805.925075 240.256596 
L 815.373525 232.920719 
L 824.821975 236.456223 
L 834.270425 245.847126 
L 843.718875 249.256122 
L 853.167325 245.641809 
L 862.615775 243.44109 
L 872.064225 251.159826 
L 881.512675 262.23771 
L 890.961125 269.922375 
L 900.409575 272.288932 
L 909.858025 273.133386 
L 919.306475 273.468989 
L 928.754925 273.654975 
L 938.203375 273.822073 
L 947.651825 273.922065 
L 957.100275 273.95073 
L 966.548725 273.964062 
L 975.997175 273.977098 
L 985.445625 273.981838 
" clip-path="url(#p9c83280d5f)" style="fill: none; stroke: #d9534f; stroke-linecap: square"/>
   </g>
   <g id="line2d_15">
    <path d="M 40.600625 273.938413 
L 50.049075 273.951178 
L 59.497525 273.960275 
L 68.945975 273.956387 
L 78.394425 273.949417 
L 87.842875 273.929683 
L 97.291325 273.916184 
L 106.739775 273.905253 
L 116.188225 273.87899 
L 125.636675 273.853386 
L 135.085125 273.827856 
L 144.533575 273.787581 
L 153.982025 273.729991 
L 163.430475 273.678491 
L 172.878925 273.601901 
L 182.327375 273.486503 
L 191.775825 273.347995 
L 201.224275 273.146689 
L 210.672725 272.815459 
L 220.121175 272.27346 
L 229.569625 271.497876 
L 239.018075 270.382846 
L 248.466525 268.794336 
L 257.914975 266.127477 
L 267.363425 262.518429 
L 276.811875 258.659509 
L 286.260325 253.699718 
L 295.708775 246.670235 
L 305.157225 237.488822 
L 314.605675 227.864375 
L 324.054125 218.176543 
L 333.502575 207.124103 
L 342.951025 195.370835 
L 352.399475 182.765539 
L 361.847925 171.875816 
L 371.296375 161.4124 
L 380.744825 150.644605 
L 390.193275 141.146488 
L 399.641725 132.814754 
L 409.090175 125.27922 
L 418.538625 117.410255 
L 427.987075 108.25958 
L 437.435525 98.109494 
L 446.883975 91.832853 
L 456.332425 93.187264 
L 465.780875 95.389374 
L 475.229325 95.46413 
L 484.677775 95.422093 
L 494.126225 94.025426 
L 503.574675 94.389742 
L 513.023125 95.611147 
L 522.471575 94.246392 
L 531.920025 87.895142 
L 541.368475 84.150447 
L 550.816925 83.361585 
L 560.265375 82.284042 
L 569.713825 79.585344 
L 579.162275 74.276716 
L 588.610725 70.294988 
L 598.059175 58.472246 
L 607.507625 43.682594 
L 616.956075 50.26897 
L 626.404525 79.186694 
L 635.852975 115.086804 
L 645.301425 143.792292 
L 654.749875 167.64253 
L 664.198325 187.365563 
L 673.646775 197.275315 
L 683.095225 205.362752 
L 692.543675 215.888233 
L 701.992125 226.222458 
L 711.440575 232.452 
L 720.889025 236.982623 
L 730.337475 241.178055 
L 739.785925 241.832445 
L 749.234375 236.809049 
L 758.682825 235.054154 
L 768.131275 232.785284 
L 777.579725 227.817717 
L 787.028175 235.334764 
L 796.476625 244.095005 
L 805.925075 244.084368 
L 815.373525 242.395352 
L 824.821975 242.653807 
L 834.270425 244.089797 
L 843.718875 245.18612 
L 853.167325 243.713669 
L 862.615775 240.300057 
L 872.064225 242.682932 
L 881.512675 248.718652 
L 890.961125 253.357704 
L 900.409575 257.798238 
L 909.858025 263.243907 
L 919.306475 267.799986 
L 928.754925 270.294078 
L 938.203375 271.710333 
L 947.651825 272.740117 
L 957.100275 273.24184 
L 966.548725 273.058068 
L 975.997175 271.56647 
L 985.445625 266.124029 
" clip-path="url(#p9c83280d5f)" style="fill: none; stroke: #d9534f; stroke-linecap: square"/>
   </g>
   <g id="line2d_16">
    <path d="M 40.600625 273.963023 
L 50.049075 273.951938 
L 59.497525 273.931209 
L 68.945975 273.912554 
L 78.394425 273.89516 
L 87.842875 273.871367 
L 97.291325 273.850008 
L 106.739775 273.830541 
L 116.188225 273.791878 
L 125.636675 273.751052 
L 135.085125 273.718067 
L 144.533575 273.672194 
L 153.982025 273.609198 
L 163.430475 273.522228 
L 172.878925 273.407321 
L 182.327375 273.264024 
L 191.775825 272.968959 
L 201.224275 272.325296 
L 210.672725 271.719395 
L 220.121175 270.837896 
L 229.569625 269.263526 
L 239.018075 265.384514 
L 248.466525 262.001994 
L 257.914975 260.100746 
L 267.363425 255.379799 
L 276.811875 249.436416 
L 286.260325 243.022227 
L 295.708775 234.487248 
L 305.157225 224.135918 
L 314.605675 213.334059 
L 324.054125 201.097612 
L 333.502575 188.77681 
L 342.951025 178.734153 
L 352.399475 168.201223 
L 361.847925 155.365995 
L 371.296375 145.54306 
L 380.744825 139.939713 
L 390.193275 132.568501 
L 399.641725 125.036147 
L 409.090175 118.190807 
L 418.538625 110.802741 
L 427.987075 104.542303 
L 437.435525 97.092953 
L 446.883975 90.430023 
L 456.332425 90.525284 
L 465.780875 93.457186 
L 475.229325 93.437809 
L 484.677775 90.795024 
L 494.126225 90.161184 
L 503.574675 89.694073 
L 513.023125 89.90334 
L 522.471575 82.419383 
L 531.920025 79.461075 
L 541.368475 85.759816 
L 550.816925 74.126837 
L 560.265375 65.825729 
L 569.713825 68.828288 
L 579.162275 72.871235 
L 588.610725 82.245355 
L 598.059175 77.90437 
L 607.507625 61.194005 
L 616.956075 81.251291 
L 626.404525 106.869385 
L 635.852975 123.366066 
L 645.301425 152.489429 
L 654.749875 172.749493 
L 664.198325 187.688747 
L 673.646775 199.553524 
L 683.095225 210.109255 
L 692.543675 220.559722 
L 701.992125 230.688717 
L 711.440575 235.918682 
L 720.889025 239.404033 
L 730.337475 241.056089 
L 739.785925 240.897111 
L 749.234375 240.724795 
L 758.682825 239.887006 
L 768.131275 230.376078 
L 777.579725 227.547458 
L 787.028175 241.073393 
L 796.476625 247.096536 
L 805.925075 242.3755 
L 815.373525 235.882813 
L 824.821975 242.737346 
L 834.270425 254.260103 
L 843.718875 258.63101 
L 853.167325 259.459787 
L 862.615775 258.134969 
L 872.064225 261.336341 
L 881.512675 267.269721 
L 890.961125 271.581145 
L 900.409575 273.017085 
L 909.858025 273.422732 
L 919.306475 273.665885 
L 928.754925 273.794041 
L 938.203375 273.879749 
L 947.651825 273.93202 
L 957.100275 273.951487 
L 966.548725 273.958787 
L 975.997175 273.961401 
L 985.445625 273.961581 
" clip-path="url(#p9c83280d5f)" style="fill: none; stroke: #d9534f; stroke-linecap: square"/>
   </g>
   <g id="line2d_17">
    <path d="M 40.600625 273.931096 
L 50.049075 273.941939 
L 59.497525 273.950362 
L 68.945975 273.947047 
L 78.394425 273.936921 
L 87.842875 273.915235 
L 97.291325 273.901166 
L 106.739775 273.889965 
L 116.188225 273.859497 
L 125.636675 273.823742 
L 135.085125 273.7896 
L 144.533575 273.742824 
L 153.982025 273.658589 
L 163.430475 273.580001 
L 172.878925 273.499978 
L 182.327375 273.353016 
L 191.775825 273.154976 
L 201.224275 272.856124 
L 210.672725 272.31819 
L 220.121175 271.400664 
L 229.569625 269.95076 
L 239.018075 267.75601 
L 248.466525 264.581455 
L 257.914975 259.6292 
L 267.363425 252.998622 
L 276.811875 246.858932 
L 286.260325 240.597014 
L 295.708775 232.075915 
L 305.157225 220.860128 
L 314.605675 210.602102 
L 324.054125 202.256551 
L 333.502575 192.81936 
L 342.951025 183.474828 
L 352.399475 173.659031 
L 361.847925 165.499692 
L 371.296375 157.25101 
L 380.744825 147.955136 
L 390.193275 139.644623 
L 399.641725 131.980473 
L 409.090175 124.72244 
L 418.538625 117.573194 
L 427.987075 109.813161 
L 437.435525 100.191193 
L 446.883975 94.890799 
L 456.332425 96.911704 
L 465.780875 98.565204 
L 475.229325 98.867551 
L 484.677775 98.672289 
L 494.126225 96.703806 
L 503.574675 96.924966 
L 513.023125 99.215868 
L 522.471575 98.4531 
L 531.920025 92.719438 
L 541.368475 87.874536 
L 550.816925 87.83206 
L 560.265375 89.44891 
L 569.713825 86.455458 
L 579.162275 81.74318 
L 588.610725 78.511454 
L 598.059175 71.704432 
L 607.507625 58.119064 
L 616.956075 57.09992 
L 626.404525 77.346154 
L 635.852975 108.713008 
L 645.301425 141.036638 
L 654.749875 167.217622 
L 664.198325 185.615094 
L 673.646775 193.969158 
L 683.095225 201.024133 
L 692.543675 212.666468 
L 701.992125 223.693534 
L 711.440575 229.282206 
L 720.889025 232.871122 
L 730.337475 237.22173 
L 739.785925 240.204608 
L 749.234375 238.303513 
L 758.682825 235.747183 
L 768.131275 228.593636 
L 777.579725 220.917748 
L 787.028175 231.360372 
L 796.476625 242.77886 
L 805.925075 242.451869 
L 815.373525 241.713924 
L 824.821975 243.384271 
L 834.270425 247.673137 
L 843.718875 253.008389 
L 853.167325 255.524842 
L 862.615775 256.092348 
L 872.064225 259.605094 
L 881.512675 264.461735 
L 890.961125 268.035148 
L 900.409575 270.075498 
L 909.858025 271.416077 
L 919.306475 272.474471 
L 928.754925 273.072176 
L 938.203375 273.345668 
L 947.651825 273.503563 
L 957.100275 273.536539 
L 966.548725 273.015094 
L 975.997175 270.50106 
L 985.445625 262.422908 
" clip-path="url(#p9c83280d5f)" style="fill: none; stroke: #d9534f; stroke-linecap: square"/>
   </g>
   <g id="line2d_18">
    <path d="M 40.600625 273.967208 
L 50.049075 273.957533 
L 59.497525 273.934221 
L 68.945975 273.915516 
L 78.394425 273.896534 
L 87.842875 273.873959 
L 97.291325 273.855069 
L 106.739775 273.830282 
L 116.188225 273.79536 
L 125.636675 273.754909 
L 135.085125 273.715932 
L 144.533575 273.673453 
L 153.982025 273.619457 
L 163.430475 273.529709 
L 172.878925 273.406696 
L 182.327375 273.257884 
L 191.775825 272.980438 
L 201.224275 272.362613 
L 210.672725 271.745525 
L 220.121175 270.854769 
L 229.569625 269.26077 
L 239.018075 265.423434 
L 248.466525 262.049581 
L 257.914975 260.149204 
L 267.363425 255.567344 
L 276.811875 249.727258 
L 286.260325 243.308785 
L 295.708775 234.672037 
L 305.157225 224.315237 
L 314.605675 213.692325 
L 324.054125 201.428513 
L 333.502575 189.090157 
L 342.951025 179.211216 
L 352.399475 168.749188 
L 361.847925 155.970936 
L 371.296375 146.261356 
L 380.744825 140.356493 
L 390.193275 132.865371 
L 399.641725 125.778761 
L 409.090175 118.777569 
L 418.538625 111.162053 
L 427.987075 104.937081 
L 437.435525 97.371599 
L 446.883975 90.795836 
L 456.332425 90.895075 
L 465.780875 93.616548 
L 475.229325 93.729148 
L 484.677775 91.093184 
L 494.126225 90.179024 
L 503.574675 89.781699 
L 513.023125 90.068175 
L 522.471575 82.786496 
L 531.920025 79.884329 
L 541.368475 86.153253 
L 550.816925 74.501646 
L 560.265375 65.958148 
L 569.713825 68.854141 
L 579.162275 73.034806 
L 588.610725 82.448696 
L 598.059175 77.987177 
L 607.507625 61.410197 
L 616.956075 81.459346 
L 626.404525 106.790558 
L 635.852975 123.121789 
L 645.301425 152.204551 
L 654.749875 172.345291 
L 664.198325 187.227374 
L 673.646775 198.972508 
L 683.095225 209.620851 
L 692.543675 220.311949 
L 701.992125 230.363568 
L 711.440575 235.652449 
L 720.889025 239.253896 
L 730.337475 240.646376 
L 739.785925 240.308208 
L 749.234375 240.255594 
L 758.682825 239.39976 
L 768.131275 229.644937 
L 777.579725 226.807087 
L 787.028175 240.467801 
L 796.476625 246.44555 
L 805.925075 241.714141 
L 815.373525 235.253097 
L 824.821975 242.173847 
L 834.270425 253.785832 
L 843.718875 258.200727 
L 853.167325 259.086692 
L 862.615775 257.775298 
L 872.064225 261.004392 
L 881.512675 267.105706 
L 890.961125 271.571465 
L 900.409575 273.046782 
L 909.858025 273.448806 
L 919.306475 273.677139 
L 928.754925 273.796558 
L 938.203375 273.872208 
L 947.651825 273.924546 
L 957.100275 273.946199 
L 966.548725 273.954861 
L 975.997175 273.960574 
L 985.445625 273.962878 
" clip-path="url(#p9c83280d5f)" style="fill: none; stroke: #d9534f; stroke-linecap: square"/>
   </g>
   <g id="line2d_19">
    <path d="M 40.600625 273.925509 
L 50.049075 273.939079 
L 59.497525 273.950357 
L 68.945975 273.946506 
L 78.394425 273.938529 
L 87.842875 273.920374 
L 97.291325 273.906162 
L 106.739775 273.891399 
L 116.188225 273.859766 
L 125.636675 273.824739 
L 135.085125 273.789896 
L 144.533575 273.748818 
L 153.982025 273.664278 
L 163.430475 273.573595 
L 172.878925 273.498774 
L 182.327375 273.381683 
L 191.775825 273.19564 
L 201.224275 272.878661 
L 210.672725 272.341896 
L 220.121175 271.408746 
L 229.569625 269.97725 
L 239.018075 267.796263 
L 248.466525 264.590618 
L 257.914975 259.744235 
L 267.363425 253.158914 
L 276.811875 247.005278 
L 286.260325 240.848891 
L 295.708775 232.263399 
L 305.157225 221.098977 
L 314.605675 210.996257 
L 324.054125 202.697761 
L 333.502575 193.262193 
L 342.951025 183.854498 
L 352.399475 174.08242 
L 361.847925 165.732393 
L 371.296375 157.491663 
L 380.744825 148.486222 
L 390.193275 140.10447 
L 399.641725 132.301111 
L 409.090175 125.202589 
L 418.538625 117.996695 
L 427.987075 109.885067 
L 437.435525 100.227146 
L 446.883975 94.939358 
L 456.332425 97.126763 
L 465.780875 98.932546 
L 475.229325 98.930162 
L 484.677775 98.600529 
L 494.126225 96.767788 
L 503.574675 97.049283 
L 513.023125 99.112354 
L 522.471575 98.502327 
L 531.920025 93.302838 
L 541.368475 88.294253 
L 550.816925 87.898968 
L 560.265375 89.344126 
L 569.713825 86.524413 
L 579.162275 82.014357 
L 588.610725 78.483847 
L 598.059175 71.763646 
L 607.507625 58.187173 
L 616.956075 56.999303 
L 626.404525 77.232617 
L 635.852975 108.61174 
L 645.301425 140.933182 
L 654.749875 167.004162 
L 664.198325 185.333674 
L 673.646775 193.839394 
L 683.095225 201.027133 
L 692.543675 212.485061 
L 701.992125 223.465549 
L 711.440575 229.160541 
L 720.889025 232.64383 
L 730.337475 236.908793 
L 739.785925 239.95957 
L 749.234375 237.950965 
L 758.682825 235.328939 
L 768.131275 228.100306 
L 777.579725 220.175088 
L 787.028175 230.669333 
L 796.476625 242.364927 
L 805.925075 241.928382 
L 815.373525 241.057857 
L 824.821975 242.85658 
L 834.270425 247.238542 
L 843.718875 252.600417 
L 853.167325 255.099025 
L 862.615775 255.580133 
L 872.064225 259.226359 
L 881.512675 264.431532 
L 890.961125 268.222081 
L 900.409575 270.29588 
L 909.858025 271.574342 
L 919.306475 272.561406 
L 928.754925 273.133198 
L 938.203375 273.402222 
L 947.651825 273.554523 
L 957.100275 273.572861 
L 966.548725 273.051867 
L 975.997175 270.53978 
L 985.445625 262.507558 
" clip-path="url(#p9c83280d5f)" style="fill: none; stroke: #d9534f; stroke-linecap: square"/>
   </g>
   <g id="line2d_20">
    <path d="M 40.600625 273.99006 
L 985.445625 273.99006 
" clip-path="url(#p9c83280d5f)" style="fill: none; stroke: #dedede; stroke-width: 2; stroke-linecap: square"/>
   </g>
   <g id="text_16">
    <!-- FastQC: Per Sequence GC Content -->
    <g transform="translate(376.386875 19.3575) scale(0.16 -0.16)">
     <defs>
      <path id="DejaVuSans-46" d="M 628 4666 
L 3309 4666 
L 3309 4134 
L 1259 4134 
L 1259 2759 
L 3109 2759 
L 3109 2228 
L 1259 2228 
L 1259 0 
L 628 0 
L 628 4666 
z
" transform="scale(0.015625)"/>
      <path id="DejaVuSans-73" d="M 2834 3397 
L 2834 2853 
Q 2591 2978 2328 3040 
Q 2066 3103 1784 3103 
Q 1356 3103 1142 2972 
Q 928 2841 928 2578 
Q 928 2378 1081 2264 
Q 1234 2150 1697 2047 
L 1894 2003 
Q 2506 1872 2764 1633 
Q 3022 1394 3022 966 
Q 3022 478 2636 193 
Q 2250 -91 1575 -91 
Q 1294 -91 989 -36 
Q 684 19 347 128 
L 347 722 
Q 666 556 975 473 
Q 1284 391 1588 391 
Q 1994 391 2212 530 
Q 2431 669 2431 922 
Q 2431 1156 2273 1281 
Q 2116 1406 1581 1522 
L 1381 1569 
Q 847 1681 609 1914 
Q 372 2147 372 2553 
Q 372 3047 722 3315 
Q 1072 3584 1716 3584 
Q 2034 3584 2315 3537 
Q 2597 3491 2834 3397 
z
" transform="scale(0.015625)"/>
      <path id="DejaVuSans-51" d="M 2522 4238 
Q 1834 4238 1429 3725 
Q 1025 3213 1025 2328 
Q 1025 1447 1429 934 
Q 1834 422 2522 422 
Q 3209 422 3611 934 
Q 4013 1447 4013 2328 
Q 4013 3213 3611 3725 
Q 3209 4238 2522 4238 
z
M 3406 84 
L 4238 -825 
L 3475 -825 
L 2784 -78 
Q 2681 -84 2626 -87 
Q 2572 -91 2522 -91 
Q 1538 -91 948 567 
Q 359 1225 359 2328 
Q 359 3434 948 4092 
Q 1538 4750 2522 4750 
Q 3503 4750 4090 4092 
Q 4678 3434 4678 2328 
Q 4678 1516 4351 937 
Q 4025 359 3406 84 
z
" transform="scale(0.015625)"/>
      <path id="DejaVuSans-3a" d="M 750 794 
L 1409 794 
L 1409 0 
L 750 0 
L 750 794 
z
M 750 3309 
L 1409 3309 
L 1409 2516 
L 750 2516 
L 750 3309 
z
" transform="scale(0.015625)"/>
      <path id="DejaVuSans-53" d="M 3425 4513 
L 3425 3897 
Q 3066 4069 2747 4153 
Q 2428 4238 2131 4238 
Q 1616 4238 1336 4038 
Q 1056 3838 1056 3469 
Q 1056 3159 1242 3001 
Q 1428 2844 1947 2747 
L 2328 2669 
Q 3034 2534 3370 2195 
Q 3706 1856 3706 1288 
Q 3706 609 3251 259 
Q 2797 -91 1919 -91 
Q 1588 -91 1214 -16 
Q 841 59 441 206 
L 441 856 
Q 825 641 1194 531 
Q 1563 422 1919 422 
Q 2459 422 2753 634 
Q 3047 847 3047 1241 
Q 3047 1584 2836 1778 
Q 2625 1972 2144 2069 
L 1759 2144 
Q 1053 2284 737 2584 
Q 422 2884 422 3419 
Q 422 4038 858 4394 
Q 1294 4750 2059 4750 
Q 2388 4750 2728 4690 
Q 3069 4631 3425 4513 
z
" transform="scale(0.015625)"/>
      <path id="DejaVuSans-71" d="M 947 1747 
Q 947 1113 1208 752 
Q 1469 391 1925 391 
Q 2381 391 2643 752 
Q 2906 1113 2906 1747 
Q 2906 2381 2643 2742 
Q 2381 3103 1925 3103 
Q 1469 3103 1208 2742 
Q 947 2381 947 1747 
z
M 2906 525 
Q 2725 213 2448 61 
Q 2172 -91 1784 -91 
Q 1150 -91 751 415 
Q 353 922 353 1747 
Q 353 2572 751 3078 
Q 1150 3584 1784 3584 
Q 2172 3584 2448 3432 
Q 2725 3281 2906 2969 
L 2906 3500 
L 3481 3500 
L 3481 -1331 
L 2906 -1331 
L 2906 525 
z
" transform="scale(0.015625)"/>
      <path id="DejaVuSans-75" d="M 544 1381 
L 544 3500 
L 1119 3500 
L 1119 1403 
Q 1119 906 1312 657 
Q 1506 409 1894 409 
Q 2359 409 2629 706 
Q 2900 1003 2900 1516 
L 2900 3500 
L 3475 3500 
L 3475 0 
L 2900 0 
L 2900 538 
Q 2691 219 2414 64 
Q 2138 -91 1772 -91 
Q 1169 -91 856 284 
Q 544 659 544 1381 
z
M 1991 3584 
L 1991 3584 
z
" transform="scale(0.015625)"/>
      <path id="DejaVuSans-6f" d="M 1959 3097 
Q 1497 3097 1228 2736 
Q 959 2375 959 1747 
Q 959 1119 1226 758 
Q 1494 397 1959 397 
Q 2419 397 2687 759 
Q 2956 1122 2956 1747 
Q 2956 2369 2687 2733 
Q 2419 3097 1959 3097 
z
M 1959 3584 
Q 2709 3584 3137 3096 
Q 3566 2609 3566 1747 
Q 3566 888 3137 398 
Q 2709 -91 1959 -91 
Q 1206 -91 779 398 
Q 353 888 353 1747 
Q 353 2609 779 3096 
Q 1206 3584 1959 3584 
z
" transform="scale(0.015625)"/>
     </defs>
     <use xlink:href="#DejaVuSans-46"/>
     <use xlink:href="#DejaVuSans-61" x="48.394531"/>
     <use xlink:href="#DejaVuSans-73" x="109.673828"/>
     <use xlink:href="#DejaVuSans-74" x="161.773438"/>
     <use xlink:href="#DejaVuSans-51" x="200.982422"/>
     <use xlink:href="#DejaVuSans-43" x="279.693359"/>
     <use xlink:href="#DejaVuSans-3a" x="349.517578"/>
     <use xlink:href="#DejaVuSans-20" x="383.208984"/>
     <use xlink:href="#DejaVuSans-50" x="414.996094"/>
     <use xlink:href="#DejaVuSans-65" x="471.673828"/>
     <use xlink:href="#DejaVuSans-72" x="533.197266"/>
     <use xlink:href="#DejaVuSans-20" x="574.310547"/>
     <use xlink:href="#DejaVuSans-53" x="606.097656"/>
     <use xlink:href="#DejaVuSans-65" x="669.574219"/>
     <use xlink:href="#DejaVuSans-71" x="731.097656"/>
     <use xlink:href="#DejaVuSans-75" x="794.574219"/>
     <use xlink:href="#DejaVuSans-65" x="857.953125"/>
     <use xlink:href="#DejaVuSans-6e" x="919.476562"/>
     <use xlink:href="#DejaVuSans-63" x="982.855469"/>
     <use xlink:href="#DejaVuSans-65" x="1037.835938"/>
     <use xlink:href="#DejaVuSans-20" x="1099.359375"/>
     <use xlink:href="#DejaVuSans-47" x="1131.146484"/>
     <use xlink:href="#DejaVuSans-43" x="1208.636719"/>
     <use xlink:href="#DejaVuSans-20" x="1278.460938"/>
     <use xlink:href="#DejaVuSans-43" x="1310.248047"/>
     <use xlink:href="#DejaVuSans-6f" x="1380.072266"/>
     <use xlink:href="#DejaVuSans-6e" x="1441.253906"/>
     <use xlink:href="#DejaVuSans-74" x="1504.632812"/>
     <use xlink:href="#DejaVuSans-65" x="1543.841797"/>
     <use xlink:href="#DejaVuSans-6e" x="1605.365234"/>
     <use xlink:href="#DejaVuSans-74" x="1668.744141"/>
    </g>
   </g>
   <g id="legend_1">
    <g id="line2d_21">
     <path d="M 47.800625 291.525394 
L 55.800625 291.525394 
L 63.800625 291.525394 
" style="fill: none; stroke: #d9534f; stroke-linecap: square"/>
    </g>
    <g id="text_17">
     <!-- TK9_1_22GH5GLT3_AGAGAACCTA-GGTTATGCTA_L002_T1_1 -->
     <g transform="translate(70.200625 294.325394) scale(0.08 -0.08)">
      <defs>
       <path id="DejaVuSans-54" d="M -19 4666 
L 3928 4666 
L 3928 4134 
L 2272 4134 
L 2272 0 
L 1638 0 
L 1638 4134 
L -19 4134 
L -19 4666 
z
" transform="scale(0.015625)"/>
       <path id="DejaVuSans-4b" d="M 628 4666 
L 1259 4666 
L 1259 2694 
L 3353 4666 
L 4166 4666 
L 1850 2491 
L 4331 0 
L 3500 0 
L 1259 2247 
L 1259 0 
L 628 0 
L 628 4666 
z
" transform="scale(0.015625)"/>
       <path id="DejaVuSans-39" d="M 703 97 
L 703 672 
Q 941 559 1184 500 
Q 1428 441 1663 441 
Q 2288 441 2617 861 
Q 2947 1281 2994 2138 
Q 2813 1869 2534 1725 
Q 2256 1581 1919 1581 
Q 1219 1581 811 2004 
Q 403 2428 403 3163 
Q 403 3881 828 4315 
Q 1253 4750 1959 4750 
Q 2769 4750 3195 4129 
Q 3622 3509 3622 2328 
Q 3622 1225 3098 567 
Q 2575 -91 1691 -91 
Q 1453 -91 1209 -44 
Q 966 3 703 97 
z
M 1959 2075 
Q 2384 2075 2632 2365 
Q 2881 2656 2881 3163 
Q 2881 3666 2632 3958 
Q 2384 4250 1959 4250 
Q 1534 4250 1286 3958 
Q 1038 3666 1038 3163 
Q 1038 2656 1286 2365 
Q 1534 2075 1959 2075 
z
" transform="scale(0.015625)"/>
       <path id="DejaVuSans-5f" d="M 3263 -1063 
L 3263 -1509 
L -63 -1509 
L -63 -1063 
L 3263 -1063 
z
" transform="scale(0.015625)"/>
       <path id="DejaVuSans-48" d="M 628 4666 
L 1259 4666 
L 1259 2753 
L 3553 2753 
L 3553 4666 
L 4184 4666 
L 4184 0 
L 3553 0 
L 3553 2222 
L 1259 2222 
L 1259 0 
L 628 0 
L 628 4666 
z
" transform="scale(0.015625)"/>
       <path id="DejaVuSans-4c" d="M 628 4666 
L 1259 4666 
L 1259 531 
L 3531 531 
L 3531 0 
L 628 0 
L 628 4666 
z
" transform="scale(0.015625)"/>
       <path id="DejaVuSans-41" d="M 2188 4044 
L 1331 1722 
L 3047 1722 
L 2188 4044 
z
M 1831 4666 
L 2547 4666 
L 4325 0 
L 3669 0 
L 3244 1197 
L 1141 1197 
L 716 0 
L 50 0 
L 1831 4666 
z
" transform="scale(0.015625)"/>
       <path id="DejaVuSans-2d" d="M 313 2009 
L 1997 2009 
L 1997 1497 
L 313 1497 
L 313 2009 
z
" transform="scale(0.015625)"/>
      </defs>
      <use xlink:href="#DejaVuSans-54"/>
      <use xlink:href="#DejaVuSans-4b" x="61.083984"/>
      <use xlink:href="#DejaVuSans-39" x="126.660156"/>
      <use xlink:href="#DejaVuSans-5f" x="190.283203"/>
      <use xlink:href="#DejaVuSans-31" x="240.283203"/>
      <use xlink:href="#DejaVuSans-5f" x="303.90625"/>
      <use xlink:href="#DejaVuSans-32" x="353.90625"/>
      <use xlink:href="#DejaVuSans-32" x="417.529297"/>
      <use xlink:href="#DejaVuSans-47" x="481.152344"/>
      <use xlink:href="#DejaVuSans-48" x="558.642578"/>
      <use xlink:href="#DejaVuSans-35" x="633.837891"/>
      <use xlink:href="#DejaVuSans-47" x="697.460938"/>
      <use xlink:href="#DejaVuSans-4c" x="774.951172"/>
      <use xlink:href="#DejaVuSans-54" x="816.914062"/>
      <use xlink:href="#DejaVuSans-33" x="877.998047"/>
      <use xlink:href="#DejaVuSans-5f" x="941.621094"/>
      <use xlink:href="#DejaVuSans-41" x="991.621094"/>
      <use xlink:href="#DejaVuSans-47" x="1058.279297"/>
      <use xlink:href="#DejaVuSans-41" x="1135.769531"/>
      <use xlink:href="#DejaVuSans-47" x="1202.427734"/>
      <use xlink:href="#DejaVuSans-41" x="1279.917969"/>
      <use xlink:href="#DejaVuSans-41" x="1351.076172"/>
      <use xlink:href="#DejaVuSans-43" x="1417.734375"/>
      <use xlink:href="#DejaVuSans-43" x="1487.558594"/>
      <use xlink:href="#DejaVuSans-54" x="1557.382812"/>
      <use xlink:href="#DejaVuSans-41" x="1610.716797"/>
      <use xlink:href="#DejaVuSans-2d" x="1676.875"/>
      <use xlink:href="#DejaVuSans-47" x="1716.583984"/>
      <use xlink:href="#DejaVuSans-47" x="1794.074219"/>
      <use xlink:href="#DejaVuSans-54" x="1867.939453"/>
      <use xlink:href="#DejaVuSans-54" x="1927.273438"/>
      <use xlink:href="#DejaVuSans-41" x="1980.607422"/>
      <use xlink:href="#DejaVuSans-54" x="2041.265625"/>
      <use xlink:href="#DejaVuSans-47" x="2102.349609"/>
      <use xlink:href="#DejaVuSans-43" x="2179.839844"/>
      <use xlink:href="#DejaVuSans-54" x="2249.664062"/>
      <use xlink:href="#DejaVuSans-41" x="2302.998047"/>
      <use xlink:href="#DejaVuSans-5f" x="2371.40625"/>
      <use xlink:href="#DejaVuSans-4c" x="2421.40625"/>
      <use xlink:href="#DejaVuSans-30" x="2477.119141"/>
      <use xlink:href="#DejaVuSans-30" x="2540.742188"/>
      <use xlink:href="#DejaVuSans-32" x="2604.365234"/>
      <use xlink:href="#DejaVuSans-5f" x="2667.988281"/>
      <use xlink:href="#DejaVuSans-54" x="2717.988281"/>
      <use xlink:href="#DejaVuSans-31" x="2779.072266"/>
      <use xlink:href="#DejaVuSans-5f" x="2842.695312"/>
      <use xlink:href="#DejaVuSans-31" x="2892.695312"/>
     </g>
    </g>
    <g id="line2d_22">
     <path d="M 47.800625 303.490394 
L 55.800625 303.490394 
L 63.800625 303.490394 
" style="fill: none; stroke: #d9534f; stroke-linecap: square"/>
    </g>
    <g id="text_18">
     <!-- TK9_1_22GH5GLT3_AGAGAACCTA-GGTTATGCTA_L002_T1_2 -->
     <g transform="translate(70.200625 306.290394) scale(0.08 -0.08)">
      <use xlink:href="#DejaVuSans-54"/>
      <use xlink:href="#DejaVuSans-4b" x="61.083984"/>
      <use xlink:href="#DejaVuSans-39" x="126.660156"/>
      <use xlink:href="#DejaVuSans-5f" x="190.283203"/>
      <use xlink:href="#DejaVuSans-31" x="240.283203"/>
      <use xlink:href="#DejaVuSans-5f" x="303.90625"/>
      <use xlink:href="#DejaVuSans-32" x="353.90625"/>
      <use xlink:href="#DejaVuSans-32" x="417.529297"/>
      <use xlink:href="#DejaVuSans-47" x="481.152344"/>
      <use xlink:href="#DejaVuSans-48" x="558.642578"/>
      <use xlink:href="#DejaVuSans-35" x="633.837891"/>
      <use xlink:href="#DejaVuSans-47" x="697.460938"/>
      <use xlink:href="#DejaVuSans-4c" x="774.951172"/>
      <use xlink:href="#DejaVuSans-54" x="816.914062"/>
      <use xlink:href="#DejaVuSans-33" x="877.998047"/>
      <use xlink:href="#DejaVuSans-5f" x="941.621094"/>
      <use xlink:href="#DejaVuSans-41" x="991.621094"/>
      <use xlink:href="#DejaVuSans-47" x="1058.279297"/>
      <use xlink:href="#DejaVuSans-41" x="1135.769531"/>
      <use xlink:href="#DejaVuSans-47" x="1202.427734"/>
      <use xlink:href="#DejaVuSans-41" x="1279.917969"/>
      <use xlink:href="#DejaVuSans-41" x="1351.076172"/>
      <use xlink:href="#DejaVuSans-43" x="1417.734375"/>
      <use xlink:href="#DejaVuSans-43" x="1487.558594"/>
      <use xlink:href="#DejaVuSans-54" x="1557.382812"/>
      <use xlink:href="#DejaVuSans-41" x="1610.716797"/>
      <use xlink:href="#DejaVuSans-2d" x="1676.875"/>
      <use xlink:href="#DejaVuSans-47" x="1716.583984"/>
      <use xlink:href="#DejaVuSans-47" x="1794.074219"/>
      <use xlink:href="#DejaVuSans-54" x="1867.939453"/>
      <use xlink:href="#DejaVuSans-54" x="1927.273438"/>
      <use xlink:href="#DejaVuSans-41" x="1980.607422"/>
      <use xlink:href="#DejaVuSans-54" x="2041.265625"/>
      <use xlink:href="#DejaVuSans-47" x="2102.349609"/>
      <use xlink:href="#DejaVuSans-43" x="2179.839844"/>
      <use xlink:href="#DejaVuSans-54" x="2249.664062"/>
      <use xlink:href="#DejaVuSans-41" x="2302.998047"/>
      <use xlink:href="#DejaVuSans-5f" x="2371.40625"/>
      <use xlink:href="#DejaVuSans-4c" x="2421.40625"/>
      <use xlink:href="#DejaVuSans-30" x="2477.119141"/>
      <use xlink:href="#DejaVuSans-30" x="2540.742188"/>
      <use xlink:href="#DejaVuSans-32" x="2604.365234"/>
      <use xlink:href="#DejaVuSans-5f" x="2667.988281"/>
      <use xlink:href="#DejaVuSans-54" x="2717.988281"/>
      <use xlink:href="#DejaVuSans-31" x="2779.072266"/>
      <use xlink:href="#DejaVuSans-5f" x="2842.695312"/>
      <use xlink:href="#DejaVuSans-32" x="2892.695312"/>
     </g>
    </g>
    <g id="line2d_23">
     <path d="M 47.800625 315.455394 
L 55.800625 315.455394 
L 63.800625 315.455394 
" style="fill: none; stroke: #d9534f; stroke-linecap: square"/>
    </g>
    <g id="text_19">
     <!-- TK9_1_22GH5GLT3_AGAGAACCTA-GGTTATGCTA_L003_T1_1 -->
     <g transform="translate(70.200625 318.255394) scale(0.08 -0.08)">
      <use xlink:href="#DejaVuSans-54"/>
      <use xlink:href="#DejaVuSans-4b" x="61.083984"/>
      <use xlink:href="#DejaVuSans-39" x="126.660156"/>
      <use xlink:href="#DejaVuSans-5f" x="190.283203"/>
      <use xlink:href="#DejaVuSans-31" x="240.283203"/>
      <use xlink:href="#DejaVuSans-5f" x="303.90625"/>
      <use xlink:href="#DejaVuSans-32" x="353.90625"/>
      <use xlink:href="#DejaVuSans-32" x="417.529297"/>
      <use xlink:href="#DejaVuSans-47" x="481.152344"/>
      <use xlink:href="#DejaVuSans-48" x="558.642578"/>
      <use xlink:href="#DejaVuSans-35" x="633.837891"/>
      <use xlink:href="#DejaVuSans-47" x="697.460938"/>
      <use xlink:href="#DejaVuSans-4c" x="774.951172"/>
      <use xlink:href="#DejaVuSans-54" x="816.914062"/>
      <use xlink:href="#DejaVuSans-33" x="877.998047"/>
      <use xlink:href="#DejaVuSans-5f" x="941.621094"/>
      <use xlink:href="#DejaVuSans-41" x="991.621094"/>
      <use xlink:href="#DejaVuSans-47" x="1058.279297"/>
      <use xlink:href="#DejaVuSans-41" x="1135.769531"/>
      <use xlink:href="#DejaVuSans-47" x="1202.427734"/>
      <use xlink:href="#DejaVuSans-41" x="1279.917969"/>
      <use xlink:href="#DejaVuSans-41" x="1351.076172"/>
      <use xlink:href="#DejaVuSans-43" x="1417.734375"/>
      <use xlink:href="#DejaVuSans-43" x="1487.558594"/>
      <use xlink:href="#DejaVuSans-54" x="1557.382812"/>
      <use xlink:href="#DejaVuSans-41" x="1610.716797"/>
      <use xlink:href="#DejaVuSans-2d" x="1676.875"/>
      <use xlink:href="#DejaVuSans-47" x="1716.583984"/>
      <use xlink:href="#DejaVuSans-47" x="1794.074219"/>
      <use xlink:href="#DejaVuSans-54" x="1867.939453"/>
      <use xlink:href="#DejaVuSans-54" x="1927.273438"/>
      <use xlink:href="#DejaVuSans-41" x="1980.607422"/>
      <use xlink:href="#DejaVuSans-54" x="2041.265625"/>
      <use xlink:href="#DejaVuSans-47" x="2102.349609"/>
      <use xlink:href="#DejaVuSans-43" x="2179.839844"/>
      <use xlink:href="#DejaVuSans-54" x="2249.664062"/>
      <use xlink:href="#DejaVuSans-41" x="2302.998047"/>
      <use xlink:href="#DejaVuSans-5f" x="2371.40625"/>
      <use xlink:href="#DejaVuSans-4c" x="2421.40625"/>
      <use xlink:href="#DejaVuSans-30" x="2477.119141"/>
      <use xlink:href="#DejaVuSans-30" x="2540.742188"/>
      <use xlink:href="#DejaVuSans-33" x="2604.365234"/>
      <use xlink:href="#DejaVuSans-5f" x="2667.988281"/>
      <use xlink:href="#DejaVuSans-54" x="2717.988281"/>
      <use xlink:href="#DejaVuSans-31" x="2779.072266"/>
      <use xlink:href="#DejaVuSans-5f" x="2842.695312"/>
      <use xlink:href="#DejaVuSans-31" x="2892.695312"/>
     </g>
    </g>
    <g id="line2d_24">
     <path d="M 214.167812 291.525394 
L 222.167812 291.525394 
L 230.167812 291.525394 
" style="fill: none; stroke: #d9534f; stroke-linecap: square"/>
    </g>
    <g id="text_20">
     <!-- TK9_1_22GH5GLT3_AGAGAACCTA-GGTTATGCTA_L003_T1_2 -->
     <g transform="translate(236.567812 294.325394) scale(0.08 -0.08)">
      <use xlink:href="#DejaVuSans-54"/>
      <use xlink:href="#DejaVuSans-4b" x="61.083984"/>
      <use xlink:href="#DejaVuSans-39" x="126.660156"/>
      <use xlink:href="#DejaVuSans-5f" x="190.283203"/>
      <use xlink:href="#DejaVuSans-31" x="240.283203"/>
      <use xlink:href="#DejaVuSans-5f" x="303.90625"/>
      <use xlink:href="#DejaVuSans-32" x="353.90625"/>
      <use xlink:href="#DejaVuSans-32" x="417.529297"/>
      <use xlink:href="#DejaVuSans-47" x="481.152344"/>
      <use xlink:href="#DejaVuSans-48" x="558.642578"/>
      <use xlink:href="#DejaVuSans-35" x="633.837891"/>
      <use xlink:href="#DejaVuSans-47" x="697.460938"/>
      <use xlink:href="#DejaVuSans-4c" x="774.951172"/>
      <use xlink:href="#DejaVuSans-54" x="816.914062"/>
      <use xlink:href="#DejaVuSans-33" x="877.998047"/>
      <use xlink:href="#DejaVuSans-5f" x="941.621094"/>
      <use xlink:href="#DejaVuSans-41" x="991.621094"/>
      <use xlink:href="#DejaVuSans-47" x="1058.279297"/>
      <use xlink:href="#DejaVuSans-41" x="1135.769531"/>
      <use xlink:href="#DejaVuSans-47" x="1202.427734"/>
      <use xlink:href="#DejaVuSans-41" x="1279.917969"/>
      <use xlink:href="#DejaVuSans-41" x="1351.076172"/>
      <use xlink:href="#DejaVuSans-43" x="1417.734375"/>
      <use xlink:href="#DejaVuSans-43" x="1487.558594"/>
      <use xlink:href="#DejaVuSans-54" x="1557.382812"/>
      <use xlink:href="#DejaVuSans-41" x="1610.716797"/>
      <use xlink:href="#DejaVuSans-2d" x="1676.875"/>
      <use xlink:href="#DejaVuSans-47" x="1716.583984"/>
      <use xlink:href="#DejaVuSans-47" x="1794.074219"/>
      <use xlink:href="#DejaVuSans-54" x="1867.939453"/>
      <use xlink:href="#DejaVuSans-54" x="1927.273438"/>
      <use xlink:href="#DejaVuSans-41" x="1980.607422"/>
      <use xlink:href="#DejaVuSans-54" x="2041.265625"/>
      <use xlink:href="#DejaVuSans-47" x="2102.349609"/>
      <use xlink:href="#DejaVuSans-43" x="2179.839844"/>
      <use xlink:href="#DejaVuSans-54" x="2249.664062"/>
      <use xlink:href="#DejaVuSans-41" x="2302.998047"/>
      <use xlink:href="#DejaVuSans-5f" x="2371.40625"/>
      <use xlink:href="#DejaVuSans-4c" x="2421.40625"/>
      <use xlink:href="#DejaVuSans-30" x="2477.119141"/>
      <use xlink:href="#DejaVuSans-30" x="2540.742188"/>
      <use xlink:href="#DejaVuSans-33" x="2604.365234"/>
      <use xlink:href="#DejaVuSans-5f" x="2667.988281"/>
      <use xlink:href="#DejaVuSans-54" x="2717.988281"/>
      <use xlink:href="#DejaVuSans-31" x="2779.072266"/>
      <use xlink:href="#DejaVuSans-5f" x="2842.695312"/>
      <use xlink:href="#DejaVuSans-32" x="2892.695312"/>
     </g>
    </g>
    <g id="line2d_25">
     <path d="M 214.167812 303.490394 
L 222.167812 303.490394 
L 230.167812 303.490394 
" style="fill: none; stroke: #d9534f; stroke-linecap: square"/>
    </g>
    <g id="text_21">
     <!-- TK9_2_22GH5GLT3_GATATTGTGT-ACCACACGGT_L002_T1_1 -->
     <g transform="translate(236.567812 306.290394) scale(0.08 -0.08)">
      <use xlink:href="#DejaVuSans-54"/>
      <use xlink:href="#DejaVuSans-4b" x="61.083984"/>
      <use xlink:href="#DejaVuSans-39" x="126.660156"/>
      <use xlink:href="#DejaVuSans-5f" x="190.283203"/>
      <use xlink:href="#DejaVuSans-32" x="240.283203"/>
      <use xlink:href="#DejaVuSans-5f" x="303.90625"/>
      <use xlink:href="#DejaVuSans-32" x="353.90625"/>
      <use xlink:href="#DejaVuSans-32" x="417.529297"/>
      <use xlink:href="#DejaVuSans-47" x="481.152344"/>
      <use xlink:href="#DejaVuSans-48" x="558.642578"/>
      <use xlink:href="#DejaVuSans-35" x="633.837891"/>
      <use xlink:href="#DejaVuSans-47" x="697.460938"/>
      <use xlink:href="#DejaVuSans-4c" x="774.951172"/>
      <use xlink:href="#DejaVuSans-54" x="816.914062"/>
      <use xlink:href="#DejaVuSans-33" x="877.998047"/>
      <use xlink:href="#DejaVuSans-5f" x="941.621094"/>
      <use xlink:href="#DejaVuSans-47" x="991.621094"/>
      <use xlink:href="#DejaVuSans-41" x="1069.111328"/>
      <use xlink:href="#DejaVuSans-54" x="1129.769531"/>
      <use xlink:href="#DejaVuSans-41" x="1183.103516"/>
      <use xlink:href="#DejaVuSans-54" x="1243.761719"/>
      <use xlink:href="#DejaVuSans-54" x="1303.095703"/>
      <use xlink:href="#DejaVuSans-47" x="1364.179688"/>
      <use xlink:href="#DejaVuSans-54" x="1438.044922"/>
      <use xlink:href="#DejaVuSans-47" x="1499.128906"/>
      <use xlink:href="#DejaVuSans-54" x="1572.994141"/>
      <use xlink:href="#DejaVuSans-2d" x="1624.953125"/>
      <use xlink:href="#DejaVuSans-41" x="1658.787109"/>
      <use xlink:href="#DejaVuSans-43" x="1725.445312"/>
      <use xlink:href="#DejaVuSans-43" x="1795.269531"/>
      <use xlink:href="#DejaVuSans-41" x="1865.09375"/>
      <use xlink:href="#DejaVuSans-43" x="1931.751953"/>
      <use xlink:href="#DejaVuSans-41" x="2001.576172"/>
      <use xlink:href="#DejaVuSans-43" x="2068.234375"/>
      <use xlink:href="#DejaVuSans-47" x="2138.058594"/>
      <use xlink:href="#DejaVuSans-47" x="2215.548828"/>
      <use xlink:href="#DejaVuSans-54" x="2289.414062"/>
      <use xlink:href="#DejaVuSans-5f" x="2350.498047"/>
      <use xlink:href="#DejaVuSans-4c" x="2400.498047"/>
      <use xlink:href="#DejaVuSans-30" x="2456.210938"/>
      <use xlink:href="#DejaVuSans-30" x="2519.833984"/>
      <use xlink:href="#DejaVuSans-32" x="2583.457031"/>
      <use xlink:href="#DejaVuSans-5f" x="2647.080078"/>
      <use xlink:href="#DejaVuSans-54" x="2697.080078"/>
      <use xlink:href="#DejaVuSans-31" x="2758.164062"/>
      <use xlink:href="#DejaVuSans-5f" x="2821.787109"/>
      <use xlink:href="#DejaVuSans-31" x="2871.787109"/>
     </g>
    </g>
    <g id="line2d_26">
     <path d="M 214.167812 315.455394 
L 222.167812 315.455394 
L 230.167812 315.455394 
" style="fill: none; stroke: #d9534f; stroke-linecap: square"/>
    </g>
    <g id="text_22">
     <!-- TK9_2_22GH5GLT3_GATATTGTGT-ACCACACGGT_L002_T1_2 -->
     <g transform="translate(236.567812 318.255394) scale(0.08 -0.08)">
      <use xlink:href="#DejaVuSans-54"/>
      <use xlink:href="#DejaVuSans-4b" x="61.083984"/>
      <use xlink:href="#DejaVuSans-39" x="126.660156"/>
      <use xlink:href="#DejaVuSans-5f" x="190.283203"/>
      <use xlink:href="#DejaVuSans-32" x="240.283203"/>
      <use xlink:href="#DejaVuSans-5f" x="303.90625"/>
      <use xlink:href="#DejaVuSans-32" x="353.90625"/>
      <use xlink:href="#DejaVuSans-32" x="417.529297"/>
      <use xlink:href="#DejaVuSans-47" x="481.152344"/>
      <use xlink:href="#DejaVuSans-48" x="558.642578"/>
      <use xlink:href="#DejaVuSans-35" x="633.837891"/>
      <use xlink:href="#DejaVuSans-47" x="697.460938"/>
      <use xlink:href="#DejaVuSans-4c" x="774.951172"/>
      <use xlink:href="#DejaVuSans-54" x="816.914062"/>
      <use xlink:href="#DejaVuSans-33" x="877.998047"/>
      <use xlink:href="#DejaVuSans-5f" x="941.621094"/>
      <use xlink:href="#DejaVuSans-47" x="991.621094"/>
      <use xlink:href="#DejaVuSans-41" x="1069.111328"/>
      <use xlink:href="#DejaVuSans-54" x="1129.769531"/>
      <use xlink:href="#DejaVuSans-41" x="1183.103516"/>
      <use xlink:href="#DejaVuSans-54" x="1243.761719"/>
      <use xlink:href="#DejaVuSans-54" x="1303.095703"/>
      <use xlink:href="#DejaVuSans-47" x="1364.179688"/>
      <use xlink:href="#DejaVuSans-54" x="1438.044922"/>
      <use xlink:href="#DejaVuSans-47" x="1499.128906"/>
      <use xlink:href="#DejaVuSans-54" x="1572.994141"/>
      <use xlink:href="#DejaVuSans-2d" x="1624.953125"/>
      <use xlink:href="#DejaVuSans-41" x="1658.787109"/>
      <use xlink:href="#DejaVuSans-43" x="1725.445312"/>
      <use xlink:href="#DejaVuSans-43" x="1795.269531"/>
      <use xlink:href="#DejaVuSans-41" x="1865.09375"/>
      <use xlink:href="#DejaVuSans-43" x="1931.751953"/>
      <use xlink:href="#DejaVuSans-41" x="2001.576172"/>
      <use xlink:href="#DejaVuSans-43" x="2068.234375"/>
      <use xlink:href="#DejaVuSans-47" x="2138.058594"/>
      <use xlink:href="#DejaVuSans-47" x="2215.548828"/>
      <use xlink:href="#DejaVuSans-54" x="2289.414062"/>
      <use xlink:href="#DejaVuSans-5f" x="2350.498047"/>
      <use xlink:href="#DejaVuSans-4c" x="2400.498047"/>
      <use xlink:href="#DejaVuSans-30" x="2456.210938"/>
      <use xlink:href="#DejaVuSans-30" x="2519.833984"/>
      <use xlink:href="#DejaVuSans-32" x="2583.457031"/>
      <use xlink:href="#DejaVuSans-5f" x="2647.080078"/>
      <use xlink:href="#DejaVuSans-54" x="2697.080078"/>
      <use xlink:href="#DejaVuSans-31" x="2758.164062"/>
      <use xlink:href="#DejaVuSans-5f" x="2821.787109"/>
      <use xlink:href="#DejaVuSans-32" x="2871.787109"/>
     </g>
    </g>
    <g id="line2d_27">
     <path d="M 380.535 291.525394 
L 388.535 291.525394 
L 396.535 291.525394 
" style="fill: none; stroke: #d9534f; stroke-linecap: square"/>
    </g>
    <g id="text_23">
     <!-- TK9_2_22GH5GLT3_GATATTGTGT-ACCACACGGT_L003_T1_1 -->
     <g transform="translate(402.935 294.325394) scale(0.08 -0.08)">
      <use xlink:href="#DejaVuSans-54"/>
      <use xlink:href="#DejaVuSans-4b" x="61.083984"/>
      <use xlink:href="#DejaVuSans-39" x="126.660156"/>
      <use xlink:href="#DejaVuSans-5f" x="190.283203"/>
      <use xlink:href="#DejaVuSans-32" x="240.283203"/>
      <use xlink:href="#DejaVuSans-5f" x="303.90625"/>
      <use xlink:href="#DejaVuSans-32" x="353.90625"/>
      <use xlink:href="#DejaVuSans-32" x="417.529297"/>
      <use xlink:href="#DejaVuSans-47" x="481.152344"/>
      <use xlink:href="#DejaVuSans-48" x="558.642578"/>
      <use xlink:href="#DejaVuSans-35" x="633.837891"/>
      <use xlink:href="#DejaVuSans-47" x="697.460938"/>
      <use xlink:href="#DejaVuSans-4c" x="774.951172"/>
      <use xlink:href="#DejaVuSans-54" x="816.914062"/>
      <use xlink:href="#DejaVuSans-33" x="877.998047"/>
      <use xlink:href="#DejaVuSans-5f" x="941.621094"/>
      <use xlink:href="#DejaVuSans-47" x="991.621094"/>
      <use xlink:href="#DejaVuSans-41" x="1069.111328"/>
      <use xlink:href="#DejaVuSans-54" x="1129.769531"/>
      <use xlink:href="#DejaVuSans-41" x="1183.103516"/>
      <use xlink:href="#DejaVuSans-54" x="1243.761719"/>
      <use xlink:href="#DejaVuSans-54" x="1303.095703"/>
      <use xlink:href="#DejaVuSans-47" x="1364.179688"/>
      <use xlink:href="#DejaVuSans-54" x="1438.044922"/>
      <use xlink:href="#DejaVuSans-47" x="1499.128906"/>
      <use xlink:href="#DejaVuSans-54" x="1572.994141"/>
      <use xlink:href="#DejaVuSans-2d" x="1624.953125"/>
      <use xlink:href="#DejaVuSans-41" x="1658.787109"/>
      <use xlink:href="#DejaVuSans-43" x="1725.445312"/>
      <use xlink:href="#DejaVuSans-43" x="1795.269531"/>
      <use xlink:href="#DejaVuSans-41" x="1865.09375"/>
      <use xlink:href="#DejaVuSans-43" x="1931.751953"/>
      <use xlink:href="#DejaVuSans-41" x="2001.576172"/>
      <use xlink:href="#DejaVuSans-43" x="2068.234375"/>
      <use xlink:href="#DejaVuSans-47" x="2138.058594"/>
      <use xlink:href="#DejaVuSans-47" x="2215.548828"/>
      <use xlink:href="#DejaVuSans-54" x="2289.414062"/>
      <use xlink:href="#DejaVuSans-5f" x="2350.498047"/>
      <use xlink:href="#DejaVuSans-4c" x="2400.498047"/>
      <use xlink:href="#DejaVuSans-30" x="2456.210938"/>
      <use xlink:href="#DejaVuSans-30" x="2519.833984"/>
      <use xlink:href="#DejaVuSans-33" x="2583.457031"/>
      <use xlink:href="#DejaVuSans-5f" x="2647.080078"/>
      <use xlink:href="#DejaVuSans-54" x="2697.080078"/>
      <use xlink:href="#DejaVuSans-31" x="2758.164062"/>
      <use xlink:href="#DejaVuSans-5f" x="2821.787109"/>
      <use xlink:href="#DejaVuSans-31" x="2871.787109"/>
     </g>
    </g>
    <g id="line2d_28">
     <path d="M 380.535 303.490394 
L 388.535 303.490394 
L 396.535 303.490394 
" style="fill: none; stroke: #d9534f; stroke-linecap: square"/>
    </g>
    <g id="text_24">
     <!-- TK9_2_22GH5GLT3_GATATTGTGT-ACCACACGGT_L003_T1_2 -->
     <g transform="translate(402.935 306.290394) scale(0.08 -0.08)">
      <use xlink:href="#DejaVuSans-54"/>
      <use xlink:href="#DejaVuSans-4b" x="61.083984"/>
      <use xlink:href="#DejaVuSans-39" x="126.660156"/>
      <use xlink:href="#DejaVuSans-5f" x="190.283203"/>
      <use xlink:href="#DejaVuSans-32" x="240.283203"/>
      <use xlink:href="#DejaVuSans-5f" x="303.90625"/>
      <use xlink:href="#DejaVuSans-32" x="353.90625"/>
      <use xlink:href="#DejaVuSans-32" x="417.529297"/>
      <use xlink:href="#DejaVuSans-47" x="481.152344"/>
      <use xlink:href="#DejaVuSans-48" x="558.642578"/>
      <use xlink:href="#DejaVuSans-35" x="633.837891"/>
      <use xlink:href="#DejaVuSans-47" x="697.460938"/>
      <use xlink:href="#DejaVuSans-4c" x="774.951172"/>
      <use xlink:href="#DejaVuSans-54" x="816.914062"/>
      <use xlink:href="#DejaVuSans-33" x="877.998047"/>
      <use xlink:href="#DejaVuSans-5f" x="941.621094"/>
      <use xlink:href="#DejaVuSans-47" x="991.621094"/>
      <use xlink:href="#DejaVuSans-41" x="1069.111328"/>
      <use xlink:href="#DejaVuSans-54" x="1129.769531"/>
      <use xlink:href="#DejaVuSans-41" x="1183.103516"/>
      <use xlink:href="#DejaVuSans-54" x="1243.761719"/>
      <use xlink:href="#DejaVuSans-54" x="1303.095703"/>
      <use xlink:href="#DejaVuSans-47" x="1364.179688"/>
      <use xlink:href="#DejaVuSans-54" x="1438.044922"/>
      <use xlink:href="#DejaVuSans-47" x="1499.128906"/>
      <use xlink:href="#DejaVuSans-54" x="1572.994141"/>
      <use xlink:href="#DejaVuSans-2d" x="1624.953125"/>
      <use xlink:href="#DejaVuSans-41" x="1658.787109"/>
      <use xlink:href="#DejaVuSans-43" x="1725.445312"/>
      <use xlink:href="#DejaVuSans-43" x="1795.269531"/>
      <use xlink:href="#DejaVuSans-41" x="1865.09375"/>
      <use xlink:href="#DejaVuSans-43" x="1931.751953"/>
      <use xlink:href="#DejaVuSans-41" x="2001.576172"/>
      <use xlink:href="#DejaVuSans-43" x="2068.234375"/>
      <use xlink:href="#DejaVuSans-47" x="2138.058594"/>
      <use xlink:href="#DejaVuSans-47" x="2215.548828"/>
      <use xlink:href="#DejaVuSans-54" x="2289.414062"/>
      <use xlink:href="#DejaVuSans-5f" x="2350.498047"/>
      <use xlink:href="#DejaVuSans-4c" x="2400.498047"/>
      <use xlink:href="#DejaVuSans-30" x="2456.210938"/>
      <use xlink:href="#DejaVuSans-30" x="2519.833984"/>
      <use xlink:href="#DejaVuSans-33" x="2583.457031"/>
      <use xlink:href="#DejaVuSans-5f" x="2647.080078"/>
      <use xlink:href="#DejaVuSans-54" x="2697.080078"/>
      <use xlink:href="#DejaVuSans-31" x="2758.164062"/>
      <use xlink:href="#DejaVuSans-5f" x="2821.787109"/>
      <use xlink:href="#DejaVuSans-32" x="2871.787109"/>
     </g>
    </g>
    <g id="line2d_29">
     <path d="M 545.229687 291.525394 
L 553.229687 291.525394 
L 561.229687 291.525394 
" style="fill: none; stroke: #d9534f; stroke-linecap: square"/>
    </g>
    <g id="text_25">
     <!-- TK9_3_22GH5GLT3_GGCGCCATTG-ACCGCGCAAT_L002_T1_1 -->
     <g transform="translate(567.629687 294.325394) scale(0.08 -0.08)">
      <use xlink:href="#DejaVuSans-54"/>
      <use xlink:href="#DejaVuSans-4b" x="61.083984"/>
      <use xlink:href="#DejaVuSans-39" x="126.660156"/>
      <use xlink:href="#DejaVuSans-5f" x="190.283203"/>
      <use xlink:href="#DejaVuSans-33" x="240.283203"/>
      <use xlink:href="#DejaVuSans-5f" x="303.90625"/>
      <use xlink:href="#DejaVuSans-32" x="353.90625"/>
      <use xlink:href="#DejaVuSans-32" x="417.529297"/>
      <use xlink:href="#DejaVuSans-47" x="481.152344"/>
      <use xlink:href="#DejaVuSans-48" x="558.642578"/>
      <use xlink:href="#DejaVuSans-35" x="633.837891"/>
      <use xlink:href="#DejaVuSans-47" x="697.460938"/>
      <use xlink:href="#DejaVuSans-4c" x="774.951172"/>
      <use xlink:href="#DejaVuSans-54" x="816.914062"/>
      <use xlink:href="#DejaVuSans-33" x="877.998047"/>
      <use xlink:href="#DejaVuSans-5f" x="941.621094"/>
      <use xlink:href="#DejaVuSans-47" x="991.621094"/>
      <use xlink:href="#DejaVuSans-47" x="1069.111328"/>
      <use xlink:href="#DejaVuSans-43" x="1146.601562"/>
      <use xlink:href="#DejaVuSans-47" x="1216.425781"/>
      <use xlink:href="#DejaVuSans-43" x="1293.916016"/>
      <use xlink:href="#DejaVuSans-43" x="1363.740234"/>
      <use xlink:href="#DejaVuSans-41" x="1433.564453"/>
      <use xlink:href="#DejaVuSans-54" x="1494.222656"/>
      <use xlink:href="#DejaVuSans-54" x="1553.556641"/>
      <use xlink:href="#DejaVuSans-47" x="1614.640625"/>
      <use xlink:href="#DejaVuSans-2d" x="1692.130859"/>
      <use xlink:href="#DejaVuSans-41" x="1725.964844"/>
      <use xlink:href="#DejaVuSans-43" x="1792.623047"/>
      <use xlink:href="#DejaVuSans-43" x="1862.447266"/>
      <use xlink:href="#DejaVuSans-47" x="1932.271484"/>
      <use xlink:href="#DejaVuSans-43" x="2009.761719"/>
      <use xlink:href="#DejaVuSans-47" x="2079.585938"/>
      <use xlink:href="#DejaVuSans-43" x="2157.076172"/>
      <use xlink:href="#DejaVuSans-41" x="2226.900391"/>
      <use xlink:href="#DejaVuSans-41" x="2298.058594"/>
      <use xlink:href="#DejaVuSans-54" x="2358.716797"/>
      <use xlink:href="#DejaVuSans-5f" x="2419.800781"/>
      <use xlink:href="#DejaVuSans-4c" x="2469.800781"/>
      <use xlink:href="#DejaVuSans-30" x="2525.513672"/>
      <use xlink:href="#DejaVuSans-30" x="2589.136719"/>
      <use xlink:href="#DejaVuSans-32" x="2652.759766"/>
      <use xlink:href="#DejaVuSans-5f" x="2716.382812"/>
      <use xlink:href="#DejaVuSans-54" x="2766.382812"/>
      <use xlink:href="#DejaVuSans-31" x="2827.466797"/>
      <use xlink:href="#DejaVuSans-5f" x="2891.089844"/>
      <use xlink:href="#DejaVuSans-31" x="2941.089844"/>
     </g>
    </g>
    <g id="line2d_30">
     <path d="M 545.229687 303.490394 
L 553.229687 303.490394 
L 561.229687 303.490394 
" style="fill: none; stroke: #d9534f; stroke-linecap: square"/>
    </g>
    <g id="text_26">
     <!-- TK9_3_22GH5GLT3_GGCGCCATTG-ACCGCGCAAT_L002_T1_2 -->
     <g transform="translate(567.629687 306.290394) scale(0.08 -0.08)">
      <use xlink:href="#DejaVuSans-54"/>
      <use xlink:href="#DejaVuSans-4b" x="61.083984"/>
      <use xlink:href="#DejaVuSans-39" x="126.660156"/>
      <use xlink:href="#DejaVuSans-5f" x="190.283203"/>
      <use xlink:href="#DejaVuSans-33" x="240.283203"/>
      <use xlink:href="#DejaVuSans-5f" x="303.90625"/>
      <use xlink:href="#DejaVuSans-32" x="353.90625"/>
      <use xlink:href="#DejaVuSans-32" x="417.529297"/>
      <use xlink:href="#DejaVuSans-47" x="481.152344"/>
      <use xlink:href="#DejaVuSans-48" x="558.642578"/>
      <use xlink:href="#DejaVuSans-35" x="633.837891"/>
      <use xlink:href="#DejaVuSans-47" x="697.460938"/>
      <use xlink:href="#DejaVuSans-4c" x="774.951172"/>
      <use xlink:href="#DejaVuSans-54" x="816.914062"/>
      <use xlink:href="#DejaVuSans-33" x="877.998047"/>
      <use xlink:href="#DejaVuSans-5f" x="941.621094"/>
      <use xlink:href="#DejaVuSans-47" x="991.621094"/>
      <use xlink:href="#DejaVuSans-47" x="1069.111328"/>
      <use xlink:href="#DejaVuSans-43" x="1146.601562"/>
      <use xlink:href="#DejaVuSans-47" x="1216.425781"/>
      <use xlink:href="#DejaVuSans-43" x="1293.916016"/>
      <use xlink:href="#DejaVuSans-43" x="1363.740234"/>
      <use xlink:href="#DejaVuSans-41" x="1433.564453"/>
      <use xlink:href="#DejaVuSans-54" x="1494.222656"/>
      <use xlink:href="#DejaVuSans-54" x="1553.556641"/>
      <use xlink:href="#DejaVuSans-47" x="1614.640625"/>
      <use xlink:href="#DejaVuSans-2d" x="1692.130859"/>
      <use xlink:href="#DejaVuSans-41" x="1725.964844"/>
      <use xlink:href="#DejaVuSans-43" x="1792.623047"/>
      <use xlink:href="#DejaVuSans-43" x="1862.447266"/>
      <use xlink:href="#DejaVuSans-47" x="1932.271484"/>
      <use xlink:href="#DejaVuSans-43" x="2009.761719"/>
      <use xlink:href="#DejaVuSans-47" x="2079.585938"/>
      <use xlink:href="#DejaVuSans-43" x="2157.076172"/>
      <use xlink:href="#DejaVuSans-41" x="2226.900391"/>
      <use xlink:href="#DejaVuSans-41" x="2298.058594"/>
      <use xlink:href="#DejaVuSans-54" x="2358.716797"/>
      <use xlink:href="#DejaVuSans-5f" x="2419.800781"/>
      <use xlink:href="#DejaVuSans-4c" x="2469.800781"/>
      <use xlink:href="#DejaVuSans-30" x="2525.513672"/>
      <use xlink:href="#DejaVuSans-30" x="2589.136719"/>
      <use xlink:href="#DejaVuSans-32" x="2652.759766"/>
      <use xlink:href="#DejaVuSans-5f" x="2716.382812"/>
      <use xlink:href="#DejaVuSans-54" x="2766.382812"/>
      <use xlink:href="#DejaVuSans-31" x="2827.466797"/>
      <use xlink:href="#DejaVuSans-5f" x="2891.089844"/>
      <use xlink:href="#DejaVuSans-32" x="2941.089844"/>
     </g>
    </g>
    <g id="line2d_31">
     <path d="M 715.470625 291.525394 
L 723.470625 291.525394 
L 731.470625 291.525394 
" style="fill: none; stroke: #d9534f; stroke-linecap: square"/>
    </g>
    <g id="text_27">
     <!-- TK9_3_22GH5GLT3_GGCGCCATTG-ACCGCGCAAT_L003_T1_1 -->
     <g transform="translate(737.870625 294.325394) scale(0.08 -0.08)">
      <use xlink:href="#DejaVuSans-54"/>
      <use xlink:href="#DejaVuSans-4b" x="61.083984"/>
      <use xlink:href="#DejaVuSans-39" x="126.660156"/>
      <use xlink:href="#DejaVuSans-5f" x="190.283203"/>
      <use xlink:href="#DejaVuSans-33" x="240.283203"/>
      <use xlink:href="#DejaVuSans-5f" x="303.90625"/>
      <use xlink:href="#DejaVuSans-32" x="353.90625"/>
      <use xlink:href="#DejaVuSans-32" x="417.529297"/>
      <use xlink:href="#DejaVuSans-47" x="481.152344"/>
      <use xlink:href="#DejaVuSans-48" x="558.642578"/>
      <use xlink:href="#DejaVuSans-35" x="633.837891"/>
      <use xlink:href="#DejaVuSans-47" x="697.460938"/>
      <use xlink:href="#DejaVuSans-4c" x="774.951172"/>
      <use xlink:href="#DejaVuSans-54" x="816.914062"/>
      <use xlink:href="#DejaVuSans-33" x="877.998047"/>
      <use xlink:href="#DejaVuSans-5f" x="941.621094"/>
      <use xlink:href="#DejaVuSans-47" x="991.621094"/>
      <use xlink:href="#DejaVuSans-47" x="1069.111328"/>
      <use xlink:href="#DejaVuSans-43" x="1146.601562"/>
      <use xlink:href="#DejaVuSans-47" x="1216.425781"/>
      <use xlink:href="#DejaVuSans-43" x="1293.916016"/>
      <use xlink:href="#DejaVuSans-43" x="1363.740234"/>
      <use xlink:href="#DejaVuSans-41" x="1433.564453"/>
      <use xlink:href="#DejaVuSans-54" x="1494.222656"/>
      <use xlink:href="#DejaVuSans-54" x="1553.556641"/>
      <use xlink:href="#DejaVuSans-47" x="1614.640625"/>
      <use xlink:href="#DejaVuSans-2d" x="1692.130859"/>
      <use xlink:href="#DejaVuSans-41" x="1725.964844"/>
      <use xlink:href="#DejaVuSans-43" x="1792.623047"/>
      <use xlink:href="#DejaVuSans-43" x="1862.447266"/>
      <use xlink:href="#DejaVuSans-47" x="1932.271484"/>
      <use xlink:href="#DejaVuSans-43" x="2009.761719"/>
      <use xlink:href="#DejaVuSans-47" x="2079.585938"/>
      <use xlink:href="#DejaVuSans-43" x="2157.076172"/>
      <use xlink:href="#DejaVuSans-41" x="2226.900391"/>
      <use xlink:href="#DejaVuSans-41" x="2298.058594"/>
      <use xlink:href="#DejaVuSans-54" x="2358.716797"/>
      <use xlink:href="#DejaVuSans-5f" x="2419.800781"/>
      <use xlink:href="#DejaVuSans-4c" x="2469.800781"/>
      <use xlink:href="#DejaVuSans-30" x="2525.513672"/>
      <use xlink:href="#DejaVuSans-30" x="2589.136719"/>
      <use xlink:href="#DejaVuSans-33" x="2652.759766"/>
      <use xlink:href="#DejaVuSans-5f" x="2716.382812"/>
      <use xlink:href="#DejaVuSans-54" x="2766.382812"/>
      <use xlink:href="#DejaVuSans-31" x="2827.466797"/>
      <use xlink:href="#DejaVuSans-5f" x="2891.089844"/>
      <use xlink:href="#DejaVuSans-31" x="2941.089844"/>
     </g>
    </g>
    <g id="line2d_32">
     <path d="M 715.470625 303.490394 
L 723.470625 303.490394 
L 731.470625 303.490394 
" style="fill: none; stroke: #d9534f; stroke-linecap: square"/>
    </g>
    <g id="text_28">
     <!-- TK9_3_22GH5GLT3_GGCGCCATTG-ACCGCGCAAT_L003_T1_2 -->
     <g transform="translate(737.870625 306.290394) scale(0.08 -0.08)">
      <use xlink:href="#DejaVuSans-54"/>
      <use xlink:href="#DejaVuSans-4b" x="61.083984"/>
      <use xlink:href="#DejaVuSans-39" x="126.660156"/>
      <use xlink:href="#DejaVuSans-5f" x="190.283203"/>
      <use xlink:href="#DejaVuSans-33" x="240.283203"/>
      <use xlink:href="#DejaVuSans-5f" x="303.90625"/>
      <use xlink:href="#DejaVuSans-32" x="353.90625"/>
      <use xlink:href="#DejaVuSans-32" x="417.529297"/>
      <use xlink:href="#DejaVuSans-47" x="481.152344"/>
      <use xlink:href="#DejaVuSans-48" x="558.642578"/>
      <use xlink:href="#DejaVuSans-35" x="633.837891"/>
      <use xlink:href="#DejaVuSans-47" x="697.460938"/>
      <use xlink:href="#DejaVuSans-4c" x="774.951172"/>
      <use xlink:href="#DejaVuSans-54" x="816.914062"/>
      <use xlink:href="#DejaVuSans-33" x="877.998047"/>
      <use xlink:href="#DejaVuSans-5f" x="941.621094"/>
      <use xlink:href="#DejaVuSans-47" x="991.621094"/>
      <use xlink:href="#DejaVuSans-47" x="1069.111328"/>
      <use xlink:href="#DejaVuSans-43" x="1146.601562"/>
      <use xlink:href="#DejaVuSans-47" x="1216.425781"/>
      <use xlink:href="#DejaVuSans-43" x="1293.916016"/>
      <use xlink:href="#DejaVuSans-43" x="1363.740234"/>
      <use xlink:href="#DejaVuSans-41" x="1433.564453"/>
      <use xlink:href="#DejaVuSans-54" x="1494.222656"/>
      <use xlink:href="#DejaVuSans-54" x="1553.556641"/>
      <use xlink:href="#DejaVuSans-47" x="1614.640625"/>
      <use xlink:href="#DejaVuSans-2d" x="1692.130859"/>
      <use xlink:href="#DejaVuSans-41" x="1725.964844"/>
      <use xlink:href="#DejaVuSans-43" x="1792.623047"/>
      <use xlink:href="#DejaVuSans-43" x="1862.447266"/>
      <use xlink:href="#DejaVuSans-47" x="1932.271484"/>
      <use xlink:href="#DejaVuSans-43" x="2009.761719"/>
      <use xlink:href="#DejaVuSans-47" x="2079.585938"/>
      <use xlink:href="#DejaVuSans-43" x="2157.076172"/>
      <use xlink:href="#DejaVuSans-41" x="2226.900391"/>
      <use xlink:href="#DejaVuSans-41" x="2298.058594"/>
      <use xlink:href="#DejaVuSans-54" x="2358.716797"/>
      <use xlink:href="#DejaVuSans-5f" x="2419.800781"/>
      <use xlink:href="#DejaVuSans-4c" x="2469.800781"/>
      <use xlink:href="#DejaVuSans-30" x="2525.513672"/>
      <use xlink:href="#DejaVuSans-30" x="2589.136719"/>
      <use xlink:href="#DejaVuSans-33" x="2652.759766"/>
      <use xlink:href="#DejaVuSans-5f" x="2716.382812"/>
      <use xlink:href="#DejaVuSans-54" x="2766.382812"/>
      <use xlink:href="#DejaVuSans-31" x="2827.466797"/>
      <use xlink:href="#DejaVuSans-5f" x="2891.089844"/>
      <use xlink:href="#DejaVuSans-32" x="2941.089844"/>
     </g>
    </g>
   </g>
  </g>
 </g>
 <defs>
  <clipPath id="p9c83280d5f">
   <rect x="40.600625" y="31.48286" width="944.845" height="242.5072"/>
  </clipPath>
 </defs>
</svg>
