<?xml version="1.0" encoding="utf-8" standalone="no"?>
<!DOCTYPE svg PUBLIC "-//W3C//DTD SVG 1.1//EN"
  "http://www.w3.org/Graphics/SVG/1.1/DTD/svg11.dtd">
<svg xmlns:xlink="http://www.w3.org/1999/xlink" width="1000.358125pt" height="330.541644pt" viewBox="0 0 1000.358125 330.541644" xmlns="http://www.w3.org/2000/svg" version="1.1">
 <metadata>
  <rdf:RDF xmlns:dc="http://purl.org/dc/elements/1.1/" xmlns:cc="http://creativecommons.org/ns#" xmlns:rdf="http://www.w3.org/1999/02/22-rdf-syntax-ns#">
   <cc:Work>
    <dc:type rdf:resource="http://purl.org/dc/dcmitype/StillImage"/>
    <dc:date>2023-11-28T12:11:12.120251</dc:date>
    <dc:format>image/svg+xml</dc:format>
    <dc:creator>
     <cc:Agent>
      <dc:title>Matplotlib v3.6.2, https://matplotlib.org/</dc:title>
     </cc:Agent>
    </dc:creator>
   </cc:Work>
  </rdf:RDF>
 </metadata>
 <defs>
  <style type="text/css">*{stroke-linejoin: round; stroke-linecap: butt}</style>
 </defs>
 <g id="figure_1">
  <g id="axes_1">
   <g id="patch_1">
    <path d="M 32.968125 273.99006 
L 993.158125 273.99006 
L 993.158125 31.48286 
L 32.968125 31.48286 
z
" style="fill: #ffffff"/>
   </g>
   <g id="patch_2">
    <path d="M 735.852308 273.99006 
L 2543.268779 273.99006 
L 2543.268779 31.48286 
L 735.852308 31.48286 
z
" clip-path="url(#p2dd35742b8)" style="fill: #c3e6c3"/>
   </g>
   <g id="patch_3">
    <path d="M 535.028256 273.99006 
L 735.852308 273.99006 
L 735.852308 31.48286 
L 535.028256 31.48286 
z
" clip-path="url(#p2dd35742b8)" style="fill: #e6dcc3"/>
   </g>
   <g id="patch_4">
    <path d="M 32.968125 273.99006 
L 535.028256 273.99006 
L 535.028256 31.48286 
L 32.968125 31.48286 
z
" clip-path="url(#p2dd35742b8)" style="fill: #e6c3c3"/>
   </g>
   <g id="matplotlib.axis_1">
    <g id="xtick_1">
     <g id="text_1">
      <!-- 0 -->
      <g transform="translate(30.423125 287.06881) scale(0.08 -0.08)">
       <defs>
        <path id="DejaVuSans-30" d="M 2034 4250 
Q 1547 4250 1301 3770 
Q 1056 3291 1056 2328 
Q 1056 1369 1301 889 
Q 1547 409 2034 409 
Q 2525 409 2770 889 
Q 3016 1369 3016 2328 
Q 3016 3291 2770 3770 
Q 2525 4250 2034 4250 
z
M 2034 4750 
Q 2819 4750 3233 4129 
Q 3647 3509 3647 2328 
Q 3647 1150 3233 529 
Q 2819 -91 2034 -91 
Q 1250 -91 836 529 
Q 422 1150 422 2328 
Q 422 3509 836 4129 
Q 1250 4750 2034 4750 
z
" transform="scale(0.015625)"/>
       </defs>
       <use xlink:href="#DejaVuSans-30"/>
      </g>
     </g>
    </g>
    <g id="xtick_2">
     <g id="text_2">
      <!-- 5 -->
      <g transform="translate(155.938158 287.06881) scale(0.08 -0.08)">
       <defs>
        <path id="DejaVuSans-35" d="M 691 4666 
L 3169 4666 
L 3169 4134 
L 1269 4134 
L 1269 2991 
Q 1406 3038 1543 3061 
Q 1681 3084 1819 3084 
Q 2600 3084 3056 2656 
Q 3513 2228 3513 1497 
Q 3513 744 3044 326 
Q 2575 -91 1722 -91 
Q 1428 -91 1123 -41 
Q 819 9 494 109 
L 494 744 
Q 775 591 1075 516 
Q 1375 441 1709 441 
Q 2250 441 2565 725 
Q 2881 1009 2881 1497 
Q 2881 1984 2565 2268 
Q 2250 2553 1709 2553 
Q 1456 2553 1204 2497 
Q 953 2441 691 2322 
L 691 4666 
z
" transform="scale(0.015625)"/>
       </defs>
       <use xlink:href="#DejaVuSans-35"/>
      </g>
     </g>
    </g>
    <g id="xtick_3">
     <g id="text_3">
      <!-- 10 -->
      <g transform="translate(278.90819 287.06881) scale(0.08 -0.08)">
       <defs>
        <path id="DejaVuSans-31" d="M 794 531 
L 1825 531 
L 1825 4091 
L 703 3866 
L 703 4441 
L 1819 4666 
L 2450 4666 
L 2450 531 
L 3481 531 
L 3481 0 
L 794 0 
L 794 531 
z
" transform="scale(0.015625)"/>
       </defs>
       <use xlink:href="#DejaVuSans-31"/>
       <use xlink:href="#DejaVuSans-30" x="63.623047"/>
      </g>
     </g>
    </g>
    <g id="xtick_4">
     <g id="text_4">
      <!-- 15 -->
      <g transform="translate(404.423223 287.06881) scale(0.08 -0.08)">
       <use xlink:href="#DejaVuSans-31"/>
       <use xlink:href="#DejaVuSans-35" x="63.623047"/>
      </g>
     </g>
    </g>
    <g id="xtick_5">
     <g id="text_5">
      <!-- 20 -->
      <g transform="translate(529.938256 287.06881) scale(0.08 -0.08)">
       <defs>
        <path id="DejaVuSans-32" d="M 1228 531 
L 3431 531 
L 3431 0 
L 469 0 
L 469 531 
Q 828 903 1448 1529 
Q 2069 2156 2228 2338 
Q 2531 2678 2651 2914 
Q 2772 3150 2772 3378 
Q 2772 3750 2511 3984 
Q 2250 4219 1831 4219 
Q 1534 4219 1204 4116 
Q 875 4013 500 3803 
L 500 4441 
Q 881 4594 1212 4672 
Q 1544 4750 1819 4750 
Q 2544 4750 2975 4387 
Q 3406 4025 3406 3419 
Q 3406 3131 3298 2873 
Q 3191 2616 2906 2266 
Q 2828 2175 2409 1742 
Q 1991 1309 1228 531 
z
" transform="scale(0.015625)"/>
       </defs>
       <use xlink:href="#DejaVuSans-32"/>
       <use xlink:href="#DejaVuSans-30" x="63.623047"/>
      </g>
     </g>
    </g>
    <g id="xtick_6">
     <g id="text_6">
      <!-- 25 -->
      <g transform="translate(655.453288 287.06881) scale(0.08 -0.08)">
       <use xlink:href="#DejaVuSans-32"/>
       <use xlink:href="#DejaVuSans-35" x="63.623047"/>
      </g>
     </g>
    </g>
    <g id="xtick_7">
     <g id="text_7">
      <!-- 30 -->
      <g transform="translate(780.968321 287.06881) scale(0.08 -0.08)">
       <defs>
        <path id="DejaVuSans-33" d="M 2597 2516 
Q 3050 2419 3304 2112 
Q 3559 1806 3559 1356 
Q 3559 666 3084 287 
Q 2609 -91 1734 -91 
Q 1441 -91 1130 -33 
Q 819 25 488 141 
L 488 750 
Q 750 597 1062 519 
Q 1375 441 1716 441 
Q 2309 441 2620 675 
Q 2931 909 2931 1356 
Q 2931 1769 2642 2001 
Q 2353 2234 1838 2234 
L 1294 2234 
L 1294 2753 
L 1863 2753 
Q 2328 2753 2575 2939 
Q 2822 3125 2822 3475 
Q 2822 3834 2567 4026 
Q 2313 4219 1838 4219 
Q 1578 4219 1281 4162 
Q 984 4106 628 3988 
L 628 4550 
Q 988 4650 1302 4700 
Q 1616 4750 1894 4750 
Q 2613 4750 3031 4423 
Q 3450 4097 3450 3541 
Q 3450 3153 3228 2886 
Q 3006 2619 2597 2516 
z
" transform="scale(0.015625)"/>
       </defs>
       <use xlink:href="#DejaVuSans-33"/>
       <use xlink:href="#DejaVuSans-30" x="63.623047"/>
      </g>
     </g>
    </g>
    <g id="xtick_8">
     <g id="text_8">
      <!-- 35 -->
      <g transform="translate(906.483354 287.06881) scale(0.08 -0.08)">
       <use xlink:href="#DejaVuSans-33"/>
       <use xlink:href="#DejaVuSans-35" x="63.623047"/>
      </g>
     </g>
    </g>
    <g id="text_9">
     <!-- Mean Sequence Quality (Phred Score) -->
     <g transform="translate(418.270938 300.330997) scale(0.1 -0.1)">
      <defs>
       <path id="DejaVuSans-4d" d="M 628 4666 
L 1569 4666 
L 2759 1491 
L 3956 4666 
L 4897 4666 
L 4897 0 
L 4281 0 
L 4281 4097 
L 3078 897 
L 2444 897 
L 1241 4097 
L 1241 0 
L 628 0 
L 628 4666 
z
" transform="scale(0.015625)"/>
       <path id="DejaVuSans-65" d="M 3597 1894 
L 3597 1613 
L 953 1613 
Q 991 1019 1311 708 
Q 1631 397 2203 397 
Q 2534 397 2845 478 
Q 3156 559 3463 722 
L 3463 178 
Q 3153 47 2828 -22 
Q 2503 -91 2169 -91 
Q 1331 -91 842 396 
Q 353 884 353 1716 
Q 353 2575 817 3079 
Q 1281 3584 2069 3584 
Q 2775 3584 3186 3129 
Q 3597 2675 3597 1894 
z
M 3022 2063 
Q 3016 2534 2758 2815 
Q 2500 3097 2075 3097 
Q 1594 3097 1305 2825 
Q 1016 2553 972 2059 
L 3022 2063 
z
" transform="scale(0.015625)"/>
       <path id="DejaVuSans-61" d="M 2194 1759 
Q 1497 1759 1228 1600 
Q 959 1441 959 1056 
Q 959 750 1161 570 
Q 1363 391 1709 391 
Q 2188 391 2477 730 
Q 2766 1069 2766 1631 
L 2766 1759 
L 2194 1759 
z
M 3341 1997 
L 3341 0 
L 2766 0 
L 2766 531 
Q 2569 213 2275 61 
Q 1981 -91 1556 -91 
Q 1019 -91 701 211 
Q 384 513 384 1019 
Q 384 1609 779 1909 
Q 1175 2209 1959 2209 
L 2766 2209 
L 2766 2266 
Q 2766 2663 2505 2880 
Q 2244 3097 1772 3097 
Q 1472 3097 1187 3025 
Q 903 2953 641 2809 
L 641 3341 
Q 956 3463 1253 3523 
Q 1550 3584 1831 3584 
Q 2591 3584 2966 3190 
Q 3341 2797 3341 1997 
z
" transform="scale(0.015625)"/>
       <path id="DejaVuSans-6e" d="M 3513 2113 
L 3513 0 
L 2938 0 
L 2938 2094 
Q 2938 2591 2744 2837 
Q 2550 3084 2163 3084 
Q 1697 3084 1428 2787 
Q 1159 2491 1159 1978 
L 1159 0 
L 581 0 
L 581 3500 
L 1159 3500 
L 1159 2956 
Q 1366 3272 1645 3428 
Q 1925 3584 2291 3584 
Q 2894 3584 3203 3211 
Q 3513 2838 3513 2113 
z
" transform="scale(0.015625)"/>
       <path id="DejaVuSans-20" transform="scale(0.015625)"/>
       <path id="DejaVuSans-53" d="M 3425 4513 
L 3425 3897 
Q 3066 4069 2747 4153 
Q 2428 4238 2131 4238 
Q 1616 4238 1336 4038 
Q 1056 3838 1056 3469 
Q 1056 3159 1242 3001 
Q 1428 2844 1947 2747 
L 2328 2669 
Q 3034 2534 3370 2195 
Q 3706 1856 3706 1288 
Q 3706 609 3251 259 
Q 2797 -91 1919 -91 
Q 1588 -91 1214 -16 
Q 841 59 441 206 
L 441 856 
Q 825 641 1194 531 
Q 1563 422 1919 422 
Q 2459 422 2753 634 
Q 3047 847 3047 1241 
Q 3047 1584 2836 1778 
Q 2625 1972 2144 2069 
L 1759 2144 
Q 1053 2284 737 2584 
Q 422 2884 422 3419 
Q 422 4038 858 4394 
Q 1294 4750 2059 4750 
Q 2388 4750 2728 4690 
Q 3069 4631 3425 4513 
z
" transform="scale(0.015625)"/>
       <path id="DejaVuSans-71" d="M 947 1747 
Q 947 1113 1208 752 
Q 1469 391 1925 391 
Q 2381 391 2643 752 
Q 2906 1113 2906 1747 
Q 2906 2381 2643 2742 
Q 2381 3103 1925 3103 
Q 1469 3103 1208 2742 
Q 947 2381 947 1747 
z
M 2906 525 
Q 2725 213 2448 61 
Q 2172 -91 1784 -91 
Q 1150 -91 751 415 
Q 353 922 353 1747 
Q 353 2572 751 3078 
Q 1150 3584 1784 3584 
Q 2172 3584 2448 3432 
Q 2725 3281 2906 2969 
L 2906 3500 
L 3481 3500 
L 3481 -1331 
L 2906 -1331 
L 2906 525 
z
" transform="scale(0.015625)"/>
       <path id="DejaVuSans-75" d="M 544 1381 
L 544 3500 
L 1119 3500 
L 1119 1403 
Q 1119 906 1312 657 
Q 1506 409 1894 409 
Q 2359 409 2629 706 
Q 2900 1003 2900 1516 
L 2900 3500 
L 3475 3500 
L 3475 0 
L 2900 0 
L 2900 538 
Q 2691 219 2414 64 
Q 2138 -91 1772 -91 
Q 1169 -91 856 284 
Q 544 659 544 1381 
z
M 1991 3584 
L 1991 3584 
z
" transform="scale(0.015625)"/>
       <path id="DejaVuSans-63" d="M 3122 3366 
L 3122 2828 
Q 2878 2963 2633 3030 
Q 2388 3097 2138 3097 
Q 1578 3097 1268 2742 
Q 959 2388 959 1747 
Q 959 1106 1268 751 
Q 1578 397 2138 397 
Q 2388 397 2633 464 
Q 2878 531 3122 666 
L 3122 134 
Q 2881 22 2623 -34 
Q 2366 -91 2075 -91 
Q 1284 -91 818 406 
Q 353 903 353 1747 
Q 353 2603 823 3093 
Q 1294 3584 2113 3584 
Q 2378 3584 2631 3529 
Q 2884 3475 3122 3366 
z
" transform="scale(0.015625)"/>
       <path id="DejaVuSans-51" d="M 2522 4238 
Q 1834 4238 1429 3725 
Q 1025 3213 1025 2328 
Q 1025 1447 1429 934 
Q 1834 422 2522 422 
Q 3209 422 3611 934 
Q 4013 1447 4013 2328 
Q 4013 3213 3611 3725 
Q 3209 4238 2522 4238 
z
M 3406 84 
L 4238 -825 
L 3475 -825 
L 2784 -78 
Q 2681 -84 2626 -87 
Q 2572 -91 2522 -91 
Q 1538 -91 948 567 
Q 359 1225 359 2328 
Q 359 3434 948 4092 
Q 1538 4750 2522 4750 
Q 3503 4750 4090 4092 
Q 4678 3434 4678 2328 
Q 4678 1516 4351 937 
Q 4025 359 3406 84 
z
" transform="scale(0.015625)"/>
       <path id="DejaVuSans-6c" d="M 603 4863 
L 1178 4863 
L 1178 0 
L 603 0 
L 603 4863 
z
" transform="scale(0.015625)"/>
       <path id="DejaVuSans-69" d="M 603 3500 
L 1178 3500 
L 1178 0 
L 603 0 
L 603 3500 
z
M 603 4863 
L 1178 4863 
L 1178 4134 
L 603 4134 
L 603 4863 
z
" transform="scale(0.015625)"/>
       <path id="DejaVuSans-74" d="M 1172 4494 
L 1172 3500 
L 2356 3500 
L 2356 3053 
L 1172 3053 
L 1172 1153 
Q 1172 725 1289 603 
Q 1406 481 1766 481 
L 2356 481 
L 2356 0 
L 1766 0 
Q 1100 0 847 248 
Q 594 497 594 1153 
L 594 3053 
L 172 3053 
L 172 3500 
L 594 3500 
L 594 4494 
L 1172 4494 
z
" transform="scale(0.015625)"/>
       <path id="DejaVuSans-79" d="M 2059 -325 
Q 1816 -950 1584 -1140 
Q 1353 -1331 966 -1331 
L 506 -1331 
L 506 -850 
L 844 -850 
Q 1081 -850 1212 -737 
Q 1344 -625 1503 -206 
L 1606 56 
L 191 3500 
L 800 3500 
L 1894 763 
L 2988 3500 
L 3597 3500 
L 2059 -325 
z
" transform="scale(0.015625)"/>
       <path id="DejaVuSans-28" d="M 1984 4856 
Q 1566 4138 1362 3434 
Q 1159 2731 1159 2009 
Q 1159 1288 1364 580 
Q 1569 -128 1984 -844 
L 1484 -844 
Q 1016 -109 783 600 
Q 550 1309 550 2009 
Q 550 2706 781 3412 
Q 1013 4119 1484 4856 
L 1984 4856 
z
" transform="scale(0.015625)"/>
       <path id="DejaVuSans-50" d="M 1259 4147 
L 1259 2394 
L 2053 2394 
Q 2494 2394 2734 2622 
Q 2975 2850 2975 3272 
Q 2975 3691 2734 3919 
Q 2494 4147 2053 4147 
L 1259 4147 
z
M 628 4666 
L 2053 4666 
Q 2838 4666 3239 4311 
Q 3641 3956 3641 3272 
Q 3641 2581 3239 2228 
Q 2838 1875 2053 1875 
L 1259 1875 
L 1259 0 
L 628 0 
L 628 4666 
z
" transform="scale(0.015625)"/>
       <path id="DejaVuSans-68" d="M 3513 2113 
L 3513 0 
L 2938 0 
L 2938 2094 
Q 2938 2591 2744 2837 
Q 2550 3084 2163 3084 
Q 1697 3084 1428 2787 
Q 1159 2491 1159 1978 
L 1159 0 
L 581 0 
L 581 4863 
L 1159 4863 
L 1159 2956 
Q 1366 3272 1645 3428 
Q 1925 3584 2291 3584 
Q 2894 3584 3203 3211 
Q 3513 2838 3513 2113 
z
" transform="scale(0.015625)"/>
       <path id="DejaVuSans-72" d="M 2631 2963 
Q 2534 3019 2420 3045 
Q 2306 3072 2169 3072 
Q 1681 3072 1420 2755 
Q 1159 2438 1159 1844 
L 1159 0 
L 581 0 
L 581 3500 
L 1159 3500 
L 1159 2956 
Q 1341 3275 1631 3429 
Q 1922 3584 2338 3584 
Q 2397 3584 2469 3576 
Q 2541 3569 2628 3553 
L 2631 2963 
z
" transform="scale(0.015625)"/>
       <path id="DejaVuSans-64" d="M 2906 2969 
L 2906 4863 
L 3481 4863 
L 3481 0 
L 2906 0 
L 2906 525 
Q 2725 213 2448 61 
Q 2172 -91 1784 -91 
Q 1150 -91 751 415 
Q 353 922 353 1747 
Q 353 2572 751 3078 
Q 1150 3584 1784 3584 
Q 2172 3584 2448 3432 
Q 2725 3281 2906 2969 
z
M 947 1747 
Q 947 1113 1208 752 
Q 1469 391 1925 391 
Q 2381 391 2643 752 
Q 2906 1113 2906 1747 
Q 2906 2381 2643 2742 
Q 2381 3103 1925 3103 
Q 1469 3103 1208 2742 
Q 947 2381 947 1747 
z
" transform="scale(0.015625)"/>
       <path id="DejaVuSans-6f" d="M 1959 3097 
Q 1497 3097 1228 2736 
Q 959 2375 959 1747 
Q 959 1119 1226 758 
Q 1494 397 1959 397 
Q 2419 397 2687 759 
Q 2956 1122 2956 1747 
Q 2956 2369 2687 2733 
Q 2419 3097 1959 3097 
z
M 1959 3584 
Q 2709 3584 3137 3096 
Q 3566 2609 3566 1747 
Q 3566 888 3137 398 
Q 2709 -91 1959 -91 
Q 1206 -91 779 398 
Q 353 888 353 1747 
Q 353 2609 779 3096 
Q 1206 3584 1959 3584 
z
" transform="scale(0.015625)"/>
       <path id="DejaVuSans-29" d="M 513 4856 
L 1013 4856 
Q 1481 4119 1714 3412 
Q 1947 2706 1947 2009 
Q 1947 1309 1714 600 
Q 1481 -109 1013 -844 
L 513 -844 
Q 928 -128 1133 580 
Q 1338 1288 1338 2009 
Q 1338 2731 1133 3434 
Q 928 4138 513 4856 
z
" transform="scale(0.015625)"/>
      </defs>
      <use xlink:href="#DejaVuSans-4d"/>
      <use xlink:href="#DejaVuSans-65" x="86.279297"/>
      <use xlink:href="#DejaVuSans-61" x="147.802734"/>
      <use xlink:href="#DejaVuSans-6e" x="209.082031"/>
      <use xlink:href="#DejaVuSans-20" x="272.460938"/>
      <use xlink:href="#DejaVuSans-53" x="304.248047"/>
      <use xlink:href="#DejaVuSans-65" x="367.724609"/>
      <use xlink:href="#DejaVuSans-71" x="429.248047"/>
      <use xlink:href="#DejaVuSans-75" x="492.724609"/>
      <use xlink:href="#DejaVuSans-65" x="556.103516"/>
      <use xlink:href="#DejaVuSans-6e" x="617.626953"/>
      <use xlink:href="#DejaVuSans-63" x="681.005859"/>
      <use xlink:href="#DejaVuSans-65" x="735.986328"/>
      <use xlink:href="#DejaVuSans-20" x="797.509766"/>
      <use xlink:href="#DejaVuSans-51" x="829.296875"/>
      <use xlink:href="#DejaVuSans-75" x="908.007812"/>
      <use xlink:href="#DejaVuSans-61" x="971.386719"/>
      <use xlink:href="#DejaVuSans-6c" x="1032.666016"/>
      <use xlink:href="#DejaVuSans-69" x="1060.449219"/>
      <use xlink:href="#DejaVuSans-74" x="1088.232422"/>
      <use xlink:href="#DejaVuSans-79" x="1127.441406"/>
      <use xlink:href="#DejaVuSans-20" x="1186.621094"/>
      <use xlink:href="#DejaVuSans-28" x="1218.408203"/>
      <use xlink:href="#DejaVuSans-50" x="1257.421875"/>
      <use xlink:href="#DejaVuSans-68" x="1317.724609"/>
      <use xlink:href="#DejaVuSans-72" x="1381.103516"/>
      <use xlink:href="#DejaVuSans-65" x="1419.966797"/>
      <use xlink:href="#DejaVuSans-64" x="1481.490234"/>
      <use xlink:href="#DejaVuSans-20" x="1544.966797"/>
      <use xlink:href="#DejaVuSans-53" x="1576.753906"/>
      <use xlink:href="#DejaVuSans-63" x="1640.230469"/>
      <use xlink:href="#DejaVuSans-6f" x="1695.210938"/>
      <use xlink:href="#DejaVuSans-72" x="1756.392578"/>
      <use xlink:href="#DejaVuSans-65" x="1795.255859"/>
      <use xlink:href="#DejaVuSans-29" x="1856.779297"/>
     </g>
    </g>
   </g>
   <g id="matplotlib.axis_2">
    <g id="ytick_1">
     <g id="line2d_1">
      <path d="M 32.968125 273.99006 
L 993.158125 273.99006 
" clip-path="url(#p2dd35742b8)" style="fill: none; stroke: #dedede; stroke-linecap: square"/>
     </g>
     <g id="text_10">
      <!-- 0 -->
      <g transform="translate(20.878125 277.029435) scale(0.08 -0.08)">
       <use xlink:href="#DejaVuSans-30"/>
      </g>
     </g>
    </g>
    <g id="ytick_2">
     <g id="line2d_2">
      <path d="M 32.968125 223.766353 
L 993.158125 223.766353 
" clip-path="url(#p2dd35742b8)" style="fill: none; stroke: #dedede; stroke-linecap: square"/>
     </g>
     <g id="text_11">
      <!-- 1 -->
      <g transform="translate(20.878125 226.805728) scale(0.08 -0.08)">
       <use xlink:href="#DejaVuSans-31"/>
      </g>
     </g>
    </g>
    <g id="ytick_3">
     <g id="line2d_3">
      <path d="M 32.968125 173.542645 
L 993.158125 173.542645 
" clip-path="url(#p2dd35742b8)" style="fill: none; stroke: #dedede; stroke-linecap: square"/>
     </g>
     <g id="text_12">
      <!-- 2 -->
      <g transform="translate(20.878125 176.58202) scale(0.08 -0.08)">
       <use xlink:href="#DejaVuSans-32"/>
      </g>
     </g>
    </g>
    <g id="ytick_4">
     <g id="line2d_4">
      <path d="M 32.968125 123.318938 
L 993.158125 123.318938 
" clip-path="url(#p2dd35742b8)" style="fill: none; stroke: #dedede; stroke-linecap: square"/>
     </g>
     <g id="text_13">
      <!-- 3 -->
      <g transform="translate(20.878125 126.358313) scale(0.08 -0.08)">
       <use xlink:href="#DejaVuSans-33"/>
      </g>
     </g>
    </g>
    <g id="ytick_5">
     <g id="line2d_5">
      <path d="M 32.968125 73.09523 
L 993.158125 73.09523 
" clip-path="url(#p2dd35742b8)" style="fill: none; stroke: #dedede; stroke-linecap: square"/>
     </g>
     <g id="text_14">
      <!-- 4 -->
      <g transform="translate(20.878125 76.134605) scale(0.08 -0.08)">
       <defs>
        <path id="DejaVuSans-34" d="M 2419 4116 
L 825 1625 
L 2419 1625 
L 2419 4116 
z
M 2253 4666 
L 3047 4666 
L 3047 1625 
L 3713 1625 
L 3713 1100 
L 3047 1100 
L 3047 0 
L 2419 0 
L 2419 1100 
L 313 1100 
L 313 1709 
L 2253 4666 
z
" transform="scale(0.015625)"/>
       </defs>
       <use xlink:href="#DejaVuSans-34"/>
      </g>
     </g>
    </g>
    <g id="text_15">
     <!-- Count -->
     <g transform="translate(14.798437 167.584897) rotate(-90) scale(0.1 -0.1)">
      <defs>
       <path id="DejaVuSans-43" d="M 4122 4306 
L 4122 3641 
Q 3803 3938 3442 4084 
Q 3081 4231 2675 4231 
Q 1875 4231 1450 3742 
Q 1025 3253 1025 2328 
Q 1025 1406 1450 917 
Q 1875 428 2675 428 
Q 3081 428 3442 575 
Q 3803 722 4122 1019 
L 4122 359 
Q 3791 134 3420 21 
Q 3050 -91 2638 -91 
Q 1578 -91 968 557 
Q 359 1206 359 2328 
Q 359 3453 968 4101 
Q 1578 4750 2638 4750 
Q 3056 4750 3426 4639 
Q 3797 4528 4122 4306 
z
" transform="scale(0.015625)"/>
      </defs>
      <use xlink:href="#DejaVuSans-43"/>
      <use xlink:href="#DejaVuSans-6f" x="69.824219"/>
      <use xlink:href="#DejaVuSans-75" x="131.005859"/>
      <use xlink:href="#DejaVuSans-6e" x="194.384766"/>
      <use xlink:href="#DejaVuSans-74" x="257.763672"/>
     </g>
    </g>
    <g id="text_16">
     <!-- 1e7 -->
     <g transform="translate(32.968125 28.48286) scale(0.1 -0.1)">
      <defs>
       <path id="DejaVuSans-37" d="M 525 4666 
L 3525 4666 
L 3525 4397 
L 1831 0 
L 1172 0 
L 2766 4134 
L 525 4134 
L 525 4666 
z
" transform="scale(0.015625)"/>
      </defs>
      <use xlink:href="#DejaVuSans-31"/>
      <use xlink:href="#DejaVuSans-65" x="63.623047"/>
      <use xlink:href="#DejaVuSans-37" x="125.146484"/>
     </g>
    </g>
   </g>
   <g id="line2d_6">
    <path d="M 384.410217 273.99002 
L 409.513223 273.984194 
L 434.61623 273.840017 
L 459.719236 273.299343 
L 484.822243 272.918382 
L 509.925249 273.052408 
L 535.028256 273.063081 
L 560.131262 272.980147 
L 585.234269 272.914213 
L 610.337275 272.876028 
L 635.440282 272.868896 
L 660.543288 272.810215 
L 685.646295 272.679728 
L 710.749301 272.469477 
L 735.852308 272.102578 
L 760.955315 271.457042 
L 786.058321 270.512932 
L 811.161328 268.946716 
L 836.264334 265.756863 
L 861.367341 260.767514 
L 886.470347 253.288556 
L 911.573354 238.124572 
L 936.67636 60.745276 
L 961.779367 143.215973 
" clip-path="url(#p2dd35742b8)" style="fill: none; stroke: #5cb85c; stroke-linecap: square"/>
   </g>
   <g id="line2d_7">
    <path d="M 334.204203 273.990045 
L 359.30721 273.988488 
L 384.410217 273.953437 
L 409.513223 273.69585 
L 434.61623 272.892893 
L 459.719236 271.924032 
L 484.822243 271.669649 
L 509.925249 272.210508 
L 535.028256 272.246022 
L 560.131262 272.176437 
L 585.234269 272.083443 
L 610.337275 272.022938 
L 635.440282 272.104165 
L 660.543288 272.093447 
L 685.646295 272.029447 
L 710.749301 271.949501 
L 735.852308 271.783587 
L 760.955315 271.497528 
L 786.058321 270.982443 
L 811.161328 269.848131 
L 836.264334 267.497476 
L 861.367341 263.371337 
L 886.470347 256.5617 
L 911.573354 241.123611 
L 936.67636 43.030822 
L 961.779367 159.917355 
" clip-path="url(#p2dd35742b8)" style="fill: none; stroke: #5cb85c; stroke-linecap: square"/>
   </g>
   <g id="line2d_8">
    <path d="M 384.410217 273.99003 
L 409.513223 273.984324 
L 434.61623 273.837842 
L 459.719236 273.287335 
L 484.822243 272.901994 
L 509.925249 273.03476 
L 535.028256 273.06283 
L 560.131262 272.980885 
L 585.234269 272.928512 
L 610.337275 272.891306 
L 635.440282 272.876631 
L 660.543288 272.81369 
L 685.646295 272.6811 
L 710.749301 272.465665 
L 735.852308 272.100132 
L 760.955315 271.455049 
L 786.058321 270.512093 
L 811.161328 268.953139 
L 836.264334 265.789116 
L 861.367341 260.799602 
L 886.470347 253.373022 
L 911.573354 238.068834 
L 936.67636 62.258396 
L 961.779367 148.836584 
" clip-path="url(#p2dd35742b8)" style="fill: none; stroke: #5cb85c; stroke-linecap: square"/>
   </g>
   <g id="line2d_9">
    <path d="M 334.204203 273.99004 
L 359.30721 273.988443 
L 384.410217 273.954828 
L 409.513223 273.709239 
L 434.61623 272.917472 
L 459.719236 271.976366 
L 484.822243 271.747361 
L 509.925249 272.295306 
L 535.028256 272.331271 
L 560.131262 272.271259 
L 585.234269 272.187526 
L 610.337275 272.118574 
L 635.440282 272.174578 
L 660.543288 272.154168 
L 685.646295 272.092026 
L 710.749301 272.014827 
L 735.852308 271.85171 
L 760.955315 271.562055 
L 786.058321 271.054811 
L 811.161328 269.9569 
L 836.264334 267.658101 
L 861.367341 263.632862 
L 886.470347 256.999596 
L 911.573354 242.023579 
L 936.67636 48.979719 
L 961.779367 158.220371 
" clip-path="url(#p2dd35742b8)" style="fill: none; stroke: #5cb85c; stroke-linecap: square"/>
   </g>
   <g id="line2d_10">
    <path d="M 384.410217 273.99005 
L 409.513223 273.987278 
L 434.61623 273.92159 
L 459.719236 273.643331 
L 484.822243 273.331512 
L 509.925249 273.350356 
L 535.028256 273.334234 
L 560.131262 273.258577 
L 585.234269 273.205671 
L 610.337275 273.173553 
L 635.440282 273.186109 
L 660.543288 273.160083 
L 685.646295 273.058807 
L 710.749301 272.901029 
L 735.852308 272.6195 
L 760.955315 272.124601 
L 786.058321 271.356555 
L 811.161328 270.354878 
L 836.264334 268.133343 
L 861.367341 264.636728 
L 886.470347 258.876084 
L 911.573354 247.124791 
L 936.67636 118.398421 
L 961.779367 188.668223 
" clip-path="url(#p2dd35742b8)" style="fill: none; stroke: #5cb85c; stroke-linecap: square"/>
   </g>
   <g id="line2d_11">
    <path d="M 359.30721 273.989271 
L 384.410217 273.970759 
L 409.513223 273.814614 
L 434.61623 273.270942 
L 459.719236 272.506206 
L 484.822243 272.197917 
L 509.925249 272.7204 
L 535.028256 272.843292 
L 560.131262 272.837893 
L 585.234269 272.785058 
L 610.337275 272.693972 
L 635.440282 272.672069 
L 660.543288 272.643748 
L 685.646295 272.581089 
L 710.749301 272.486704 
L 735.852308 272.346429 
L 760.955315 272.113044 
L 786.058321 271.727241 
L 811.161328 270.887405 
L 836.264334 269.165947 
L 861.367341 266.129136 
L 886.470347 260.963045 
L 911.573354 249.050233 
L 936.67636 108.190939 
L 961.779367 199.19801 
" clip-path="url(#p2dd35742b8)" style="fill: none; stroke: #5cb85c; stroke-linecap: square"/>
   </g>
   <g id="line2d_12">
    <path d="M 384.410217 273.990035 
L 409.513223 273.987172 
L 434.61623 273.920214 
L 459.719236 273.634084 
L 484.822243 273.317529 
L 509.925249 273.34345 
L 535.028256 273.337011 
L 560.131262 273.261661 
L 585.234269 273.213662 
L 610.337275 273.186616 
L 635.440282 273.189444 
L 660.543288 273.16493 
L 685.646295 273.064944 
L 710.749301 272.900381 
L 735.852308 272.625306 
L 760.955315 272.125359 
L 786.058321 271.366564 
L 811.161328 270.358635 
L 836.264334 268.167636 
L 861.367341 264.681442 
L 886.470347 258.898634 
L 911.573354 247.070896 
L 936.67636 119.445741 
L 961.779367 191.889777 
" clip-path="url(#p2dd35742b8)" style="fill: none; stroke: #5cb85c; stroke-linecap: square"/>
   </g>
   <g id="line2d_13">
    <path d="M 334.204203 273.990055 
L 359.30721 273.989312 
L 384.410217 273.972276 
L 409.513223 273.824116 
L 434.61623 273.295828 
L 459.719236 272.560593 
L 484.822243 272.261566 
L 509.925249 272.766621 
L 535.028256 272.892878 
L 560.131262 272.895309 
L 585.234269 272.84511 
L 610.337275 272.763045 
L 635.440282 272.732247 
L 660.543288 272.69123 
L 685.646295 272.627094 
L 710.749301 272.52413 
L 735.852308 272.391123 
L 760.955315 272.164388 
L 786.058321 271.783577 
L 811.161328 270.961043 
L 836.264334 269.278072 
L 861.367341 266.317038 
L 886.470347 261.28071 
L 911.573354 249.707169 
L 936.67636 112.039406 
L 961.779367 197.567311 
" clip-path="url(#p2dd35742b8)" style="fill: none; stroke: #5cb85c; stroke-linecap: square"/>
   </g>
   <g id="line2d_14">
    <path d="M 384.410217 273.99005 
L 409.513223 273.988915 
L 434.61623 273.95536 
L 459.719236 273.804323 
L 484.822243 273.611157 
L 509.925249 273.611197 
L 535.028256 273.594051 
L 560.131262 273.553812 
L 585.234269 273.552215 
L 610.337275 273.546253 
L 635.440282 273.539373 
L 660.543288 273.512302 
L 685.646295 273.460546 
L 710.749301 273.378672 
L 735.852308 273.243826 
L 760.955315 273.021556 
L 786.058321 272.71711 
L 811.161328 272.117183 
L 836.264334 270.835645 
L 861.367341 268.730653 
L 886.470347 265.33417 
L 911.573354 257.865563 
L 936.67636 169.144952 
L 961.779367 218.37083 
" clip-path="url(#p2dd35742b8)" style="fill: none; stroke: #5cb85c; stroke-linecap: square"/>
   </g>
   <g id="line2d_15">
    <path d="M 359.30721 273.989533 
L 384.410217 273.973366 
L 409.513223 273.852588 
L 434.61623 273.514577 
L 459.719236 273.112657 
L 484.822243 272.986063 
L 509.925249 273.276306 
L 535.028256 273.378968 
L 560.131262 273.379495 
L 585.234269 273.350145 
L 610.337275 273.311779 
L 635.440282 273.265126 
L 660.543288 273.210046 
L 685.646295 273.133841 
L 710.749301 273.045834 
L 735.852308 272.935357 
L 760.955315 272.75304 
L 786.058321 272.48702 
L 811.161328 271.930285 
L 836.264334 270.813154 
L 861.367341 268.842451 
L 886.470347 265.336294 
L 911.573354 257.234241 
L 936.67636 164.005263 
L 961.779367 229.352344 
" clip-path="url(#p2dd35742b8)" style="fill: none; stroke: #5cb85c; stroke-linecap: square"/>
   </g>
   <g id="line2d_16">
    <path d="M 409.513223 273.98884 
L 434.61623 273.954557 
L 459.719236 273.800983 
L 484.822243 273.607029 
L 509.925249 273.607024 
L 535.028256 273.590676 
L 560.131262 273.555575 
L 585.234269 273.56003 
L 610.337275 273.552526 
L 635.440282 273.548925 
L 660.543288 273.51419 
L 685.646295 273.463198 
L 710.749301 273.385326 
L 735.852308 273.253775 
L 760.955315 273.035734 
L 786.058321 272.734794 
L 811.161328 272.13783 
L 836.264334 270.860048 
L 861.367341 268.795452 
L 886.470347 265.429605 
L 911.573354 257.968245 
L 936.67636 170.787408 
L 961.779367 220.793134 
" clip-path="url(#p2dd35742b8)" style="fill: none; stroke: #5cb85c; stroke-linecap: square"/>
   </g>
   <g id="line2d_17">
    <path d="M 334.204203 273.990055 
L 359.30721 273.989412 
L 384.410217 273.974119 
L 409.513223 273.859277 
L 434.61623 273.532999 
L 459.719236 273.144705 
L 484.822243 273.018387 
L 509.925249 273.31202 
L 535.028256 273.403578 
L 560.131262 273.404668 
L 585.234269 273.380204 
L 610.337275 273.348502 
L 635.440282 273.307967 
L 660.543288 273.246262 
L 685.646295 273.167712 
L 710.749301 273.084406 
L 735.852308 272.970559 
L 760.955315 272.798437 
L 786.058321 272.536812 
L 811.161328 271.996671 
L 836.264334 270.908142 
L 861.367341 269.016371 
L 886.470347 265.647269 
L 911.573354 257.828623 
L 936.67636 167.424714 
L 961.779367 228.603212 
" clip-path="url(#p2dd35742b8)" style="fill: none; stroke: #5cb85c; stroke-linecap: square"/>
   </g>
   <g id="line2d_18">
    <path d="M 32.968125 273.99006 
L 993.158125 273.99006 
" clip-path="url(#p2dd35742b8)" style="fill: none; stroke: #dedede; stroke-width: 2; stroke-linecap: square"/>
   </g>
   <g id="text_17">
    <!-- FastQC: Per Sequence Quality Scores -->
    <g transform="translate(364.870625 19.3575) scale(0.16 -0.16)">
     <defs>
      <path id="DejaVuSans-46" d="M 628 4666 
L 3309 4666 
L 3309 4134 
L 1259 4134 
L 1259 2759 
L 3109 2759 
L 3109 2228 
L 1259 2228 
L 1259 0 
L 628 0 
L 628 4666 
z
" transform="scale(0.015625)"/>
      <path id="DejaVuSans-73" d="M 2834 3397 
L 2834 2853 
Q 2591 2978 2328 3040 
Q 2066 3103 1784 3103 
Q 1356 3103 1142 2972 
Q 928 2841 928 2578 
Q 928 2378 1081 2264 
Q 1234 2150 1697 2047 
L 1894 2003 
Q 2506 1872 2764 1633 
Q 3022 1394 3022 966 
Q 3022 478 2636 193 
Q 2250 -91 1575 -91 
Q 1294 -91 989 -36 
Q 684 19 347 128 
L 347 722 
Q 666 556 975 473 
Q 1284 391 1588 391 
Q 1994 391 2212 530 
Q 2431 669 2431 922 
Q 2431 1156 2273 1281 
Q 2116 1406 1581 1522 
L 1381 1569 
Q 847 1681 609 1914 
Q 372 2147 372 2553 
Q 372 3047 722 3315 
Q 1072 3584 1716 3584 
Q 2034 3584 2315 3537 
Q 2597 3491 2834 3397 
z
" transform="scale(0.015625)"/>
      <path id="DejaVuSans-3a" d="M 750 794 
L 1409 794 
L 1409 0 
L 750 0 
L 750 794 
z
M 750 3309 
L 1409 3309 
L 1409 2516 
L 750 2516 
L 750 3309 
z
" transform="scale(0.015625)"/>
     </defs>
     <use xlink:href="#DejaVuSans-46"/>
     <use xlink:href="#DejaVuSans-61" x="48.394531"/>
     <use xlink:href="#DejaVuSans-73" x="109.673828"/>
     <use xlink:href="#DejaVuSans-74" x="161.773438"/>
     <use xlink:href="#DejaVuSans-51" x="200.982422"/>
     <use xlink:href="#DejaVuSans-43" x="279.693359"/>
     <use xlink:href="#DejaVuSans-3a" x="349.517578"/>
     <use xlink:href="#DejaVuSans-20" x="383.208984"/>
     <use xlink:href="#DejaVuSans-50" x="414.996094"/>
     <use xlink:href="#DejaVuSans-65" x="471.673828"/>
     <use xlink:href="#DejaVuSans-72" x="533.197266"/>
     <use xlink:href="#DejaVuSans-20" x="574.310547"/>
     <use xlink:href="#DejaVuSans-53" x="606.097656"/>
     <use xlink:href="#DejaVuSans-65" x="669.574219"/>
     <use xlink:href="#DejaVuSans-71" x="731.097656"/>
     <use xlink:href="#DejaVuSans-75" x="794.574219"/>
     <use xlink:href="#DejaVuSans-65" x="857.953125"/>
     <use xlink:href="#DejaVuSans-6e" x="919.476562"/>
     <use xlink:href="#DejaVuSans-63" x="982.855469"/>
     <use xlink:href="#DejaVuSans-65" x="1037.835938"/>
     <use xlink:href="#DejaVuSans-20" x="1099.359375"/>
     <use xlink:href="#DejaVuSans-51" x="1131.146484"/>
     <use xlink:href="#DejaVuSans-75" x="1209.857422"/>
     <use xlink:href="#DejaVuSans-61" x="1273.236328"/>
     <use xlink:href="#DejaVuSans-6c" x="1334.515625"/>
     <use xlink:href="#DejaVuSans-69" x="1362.298828"/>
     <use xlink:href="#DejaVuSans-74" x="1390.082031"/>
     <use xlink:href="#DejaVuSans-79" x="1429.291016"/>
     <use xlink:href="#DejaVuSans-20" x="1488.470703"/>
     <use xlink:href="#DejaVuSans-53" x="1520.257812"/>
     <use xlink:href="#DejaVuSans-63" x="1583.734375"/>
     <use xlink:href="#DejaVuSans-6f" x="1638.714844"/>
     <use xlink:href="#DejaVuSans-72" x="1699.896484"/>
     <use xlink:href="#DejaVuSans-65" x="1738.759766"/>
     <use xlink:href="#DejaVuSans-73" x="1800.283203"/>
    </g>
   </g>
   <g id="legend_1">
    <g id="line2d_19">
     <path d="M 40.168125 291.525394 
L 48.168125 291.525394 
L 56.168125 291.525394 
" style="fill: none; stroke: #5cb85c; stroke-linecap: square"/>
    </g>
    <g id="text_18">
     <!-- TK9_1_22GH5GLT3_AGAGAACCTA-GGTTATGCTA_L002_T1_1 -->
     <g transform="translate(62.568125 294.325394) scale(0.08 -0.08)">
      <defs>
       <path id="DejaVuSans-54" d="M -19 4666 
L 3928 4666 
L 3928 4134 
L 2272 4134 
L 2272 0 
L 1638 0 
L 1638 4134 
L -19 4134 
L -19 4666 
z
" transform="scale(0.015625)"/>
       <path id="DejaVuSans-4b" d="M 628 4666 
L 1259 4666 
L 1259 2694 
L 3353 4666 
L 4166 4666 
L 1850 2491 
L 4331 0 
L 3500 0 
L 1259 2247 
L 1259 0 
L 628 0 
L 628 4666 
z
" transform="scale(0.015625)"/>
       <path id="DejaVuSans-39" d="M 703 97 
L 703 672 
Q 941 559 1184 500 
Q 1428 441 1663 441 
Q 2288 441 2617 861 
Q 2947 1281 2994 2138 
Q 2813 1869 2534 1725 
Q 2256 1581 1919 1581 
Q 1219 1581 811 2004 
Q 403 2428 403 3163 
Q 403 3881 828 4315 
Q 1253 4750 1959 4750 
Q 2769 4750 3195 4129 
Q 3622 3509 3622 2328 
Q 3622 1225 3098 567 
Q 2575 -91 1691 -91 
Q 1453 -91 1209 -44 
Q 966 3 703 97 
z
M 1959 2075 
Q 2384 2075 2632 2365 
Q 2881 2656 2881 3163 
Q 2881 3666 2632 3958 
Q 2384 4250 1959 4250 
Q 1534 4250 1286 3958 
Q 1038 3666 1038 3163 
Q 1038 2656 1286 2365 
Q 1534 2075 1959 2075 
z
" transform="scale(0.015625)"/>
       <path id="DejaVuSans-5f" d="M 3263 -1063 
L 3263 -1509 
L -63 -1509 
L -63 -1063 
L 3263 -1063 
z
" transform="scale(0.015625)"/>
       <path id="DejaVuSans-47" d="M 3809 666 
L 3809 1919 
L 2778 1919 
L 2778 2438 
L 4434 2438 
L 4434 434 
Q 4069 175 3628 42 
Q 3188 -91 2688 -91 
Q 1594 -91 976 548 
Q 359 1188 359 2328 
Q 359 3472 976 4111 
Q 1594 4750 2688 4750 
Q 3144 4750 3555 4637 
Q 3966 4525 4313 4306 
L 4313 3634 
Q 3963 3931 3569 4081 
Q 3175 4231 2741 4231 
Q 1884 4231 1454 3753 
Q 1025 3275 1025 2328 
Q 1025 1384 1454 906 
Q 1884 428 2741 428 
Q 3075 428 3337 486 
Q 3600 544 3809 666 
z
" transform="scale(0.015625)"/>
       <path id="DejaVuSans-48" d="M 628 4666 
L 1259 4666 
L 1259 2753 
L 3553 2753 
L 3553 4666 
L 4184 4666 
L 4184 0 
L 3553 0 
L 3553 2222 
L 1259 2222 
L 1259 0 
L 628 0 
L 628 4666 
z
" transform="scale(0.015625)"/>
       <path id="DejaVuSans-4c" d="M 628 4666 
L 1259 4666 
L 1259 531 
L 3531 531 
L 3531 0 
L 628 0 
L 628 4666 
z
" transform="scale(0.015625)"/>
       <path id="DejaVuSans-41" d="M 2188 4044 
L 1331 1722 
L 3047 1722 
L 2188 4044 
z
M 1831 4666 
L 2547 4666 
L 4325 0 
L 3669 0 
L 3244 1197 
L 1141 1197 
L 716 0 
L 50 0 
L 1831 4666 
z
" transform="scale(0.015625)"/>
       <path id="DejaVuSans-2d" d="M 313 2009 
L 1997 2009 
L 1997 1497 
L 313 1497 
L 313 2009 
z
" transform="scale(0.015625)"/>
      </defs>
      <use xlink:href="#DejaVuSans-54"/>
      <use xlink:href="#DejaVuSans-4b" x="61.083984"/>
      <use xlink:href="#DejaVuSans-39" x="126.660156"/>
      <use xlink:href="#DejaVuSans-5f" x="190.283203"/>
      <use xlink:href="#DejaVuSans-31" x="240.283203"/>
      <use xlink:href="#DejaVuSans-5f" x="303.90625"/>
      <use xlink:href="#DejaVuSans-32" x="353.90625"/>
      <use xlink:href="#DejaVuSans-32" x="417.529297"/>
      <use xlink:href="#DejaVuSans-47" x="481.152344"/>
      <use xlink:href="#DejaVuSans-48" x="558.642578"/>
      <use xlink:href="#DejaVuSans-35" x="633.837891"/>
      <use xlink:href="#DejaVuSans-47" x="697.460938"/>
      <use xlink:href="#DejaVuSans-4c" x="774.951172"/>
      <use xlink:href="#DejaVuSans-54" x="816.914062"/>
      <use xlink:href="#DejaVuSans-33" x="877.998047"/>
      <use xlink:href="#DejaVuSans-5f" x="941.621094"/>
      <use xlink:href="#DejaVuSans-41" x="991.621094"/>
      <use xlink:href="#DejaVuSans-47" x="1058.279297"/>
      <use xlink:href="#DejaVuSans-41" x="1135.769531"/>
      <use xlink:href="#DejaVuSans-47" x="1202.427734"/>
      <use xlink:href="#DejaVuSans-41" x="1279.917969"/>
      <use xlink:href="#DejaVuSans-41" x="1351.076172"/>
      <use xlink:href="#DejaVuSans-43" x="1417.734375"/>
      <use xlink:href="#DejaVuSans-43" x="1487.558594"/>
      <use xlink:href="#DejaVuSans-54" x="1557.382812"/>
      <use xlink:href="#DejaVuSans-41" x="1610.716797"/>
      <use xlink:href="#DejaVuSans-2d" x="1676.875"/>
      <use xlink:href="#DejaVuSans-47" x="1716.583984"/>
      <use xlink:href="#DejaVuSans-47" x="1794.074219"/>
      <use xlink:href="#DejaVuSans-54" x="1867.939453"/>
      <use xlink:href="#DejaVuSans-54" x="1927.273438"/>
      <use xlink:href="#DejaVuSans-41" x="1980.607422"/>
      <use xlink:href="#DejaVuSans-54" x="2041.265625"/>
      <use xlink:href="#DejaVuSans-47" x="2102.349609"/>
      <use xlink:href="#DejaVuSans-43" x="2179.839844"/>
      <use xlink:href="#DejaVuSans-54" x="2249.664062"/>
      <use xlink:href="#DejaVuSans-41" x="2302.998047"/>
      <use xlink:href="#DejaVuSans-5f" x="2371.40625"/>
      <use xlink:href="#DejaVuSans-4c" x="2421.40625"/>
      <use xlink:href="#DejaVuSans-30" x="2477.119141"/>
      <use xlink:href="#DejaVuSans-30" x="2540.742188"/>
      <use xlink:href="#DejaVuSans-32" x="2604.365234"/>
      <use xlink:href="#DejaVuSans-5f" x="2667.988281"/>
      <use xlink:href="#DejaVuSans-54" x="2717.988281"/>
      <use xlink:href="#DejaVuSans-31" x="2779.072266"/>
      <use xlink:href="#DejaVuSans-5f" x="2842.695312"/>
      <use xlink:href="#DejaVuSans-31" x="2892.695312"/>
     </g>
    </g>
    <g id="line2d_20">
     <path d="M 40.168125 303.490394 
L 48.168125 303.490394 
L 56.168125 303.490394 
" style="fill: none; stroke: #5cb85c; stroke-linecap: square"/>
    </g>
    <g id="text_19">
     <!-- TK9_1_22GH5GLT3_AGAGAACCTA-GGTTATGCTA_L002_T1_2 -->
     <g transform="translate(62.568125 306.290394) scale(0.08 -0.08)">
      <use xlink:href="#DejaVuSans-54"/>
      <use xlink:href="#DejaVuSans-4b" x="61.083984"/>
      <use xlink:href="#DejaVuSans-39" x="126.660156"/>
      <use xlink:href="#DejaVuSans-5f" x="190.283203"/>
      <use xlink:href="#DejaVuSans-31" x="240.283203"/>
      <use xlink:href="#DejaVuSans-5f" x="303.90625"/>
      <use xlink:href="#DejaVuSans-32" x="353.90625"/>
      <use xlink:href="#DejaVuSans-32" x="417.529297"/>
      <use xlink:href="#DejaVuSans-47" x="481.152344"/>
      <use xlink:href="#DejaVuSans-48" x="558.642578"/>
      <use xlink:href="#DejaVuSans-35" x="633.837891"/>
      <use xlink:href="#DejaVuSans-47" x="697.460938"/>
      <use xlink:href="#DejaVuSans-4c" x="774.951172"/>
      <use xlink:href="#DejaVuSans-54" x="816.914062"/>
      <use xlink:href="#DejaVuSans-33" x="877.998047"/>
      <use xlink:href="#DejaVuSans-5f" x="941.621094"/>
      <use xlink:href="#DejaVuSans-41" x="991.621094"/>
      <use xlink:href="#DejaVuSans-47" x="1058.279297"/>
      <use xlink:href="#DejaVuSans-41" x="1135.769531"/>
      <use xlink:href="#DejaVuSans-47" x="1202.427734"/>
      <use xlink:href="#DejaVuSans-41" x="1279.917969"/>
      <use xlink:href="#DejaVuSans-41" x="1351.076172"/>
      <use xlink:href="#DejaVuSans-43" x="1417.734375"/>
      <use xlink:href="#DejaVuSans-43" x="1487.558594"/>
      <use xlink:href="#DejaVuSans-54" x="1557.382812"/>
      <use xlink:href="#DejaVuSans-41" x="1610.716797"/>
      <use xlink:href="#DejaVuSans-2d" x="1676.875"/>
      <use xlink:href="#DejaVuSans-47" x="1716.583984"/>
      <use xlink:href="#DejaVuSans-47" x="1794.074219"/>
      <use xlink:href="#DejaVuSans-54" x="1867.939453"/>
      <use xlink:href="#DejaVuSans-54" x="1927.273438"/>
      <use xlink:href="#DejaVuSans-41" x="1980.607422"/>
      <use xlink:href="#DejaVuSans-54" x="2041.265625"/>
      <use xlink:href="#DejaVuSans-47" x="2102.349609"/>
      <use xlink:href="#DejaVuSans-43" x="2179.839844"/>
      <use xlink:href="#DejaVuSans-54" x="2249.664062"/>
      <use xlink:href="#DejaVuSans-41" x="2302.998047"/>
      <use xlink:href="#DejaVuSans-5f" x="2371.40625"/>
      <use xlink:href="#DejaVuSans-4c" x="2421.40625"/>
      <use xlink:href="#DejaVuSans-30" x="2477.119141"/>
      <use xlink:href="#DejaVuSans-30" x="2540.742188"/>
      <use xlink:href="#DejaVuSans-32" x="2604.365234"/>
      <use xlink:href="#DejaVuSans-5f" x="2667.988281"/>
      <use xlink:href="#DejaVuSans-54" x="2717.988281"/>
      <use xlink:href="#DejaVuSans-31" x="2779.072266"/>
      <use xlink:href="#DejaVuSans-5f" x="2842.695312"/>
      <use xlink:href="#DejaVuSans-32" x="2892.695312"/>
     </g>
    </g>
    <g id="line2d_21">
     <path d="M 40.168125 315.455394 
L 48.168125 315.455394 
L 56.168125 315.455394 
" style="fill: none; stroke: #5cb85c; stroke-linecap: square"/>
    </g>
    <g id="text_20">
     <!-- TK9_1_22GH5GLT3_AGAGAACCTA-GGTTATGCTA_L003_T1_1 -->
     <g transform="translate(62.568125 318.255394) scale(0.08 -0.08)">
      <use xlink:href="#DejaVuSans-54"/>
      <use xlink:href="#DejaVuSans-4b" x="61.083984"/>
      <use xlink:href="#DejaVuSans-39" x="126.660156"/>
      <use xlink:href="#DejaVuSans-5f" x="190.283203"/>
      <use xlink:href="#DejaVuSans-31" x="240.283203"/>
      <use xlink:href="#DejaVuSans-5f" x="303.90625"/>
      <use xlink:href="#DejaVuSans-32" x="353.90625"/>
      <use xlink:href="#DejaVuSans-32" x="417.529297"/>
      <use xlink:href="#DejaVuSans-47" x="481.152344"/>
      <use xlink:href="#DejaVuSans-48" x="558.642578"/>
      <use xlink:href="#DejaVuSans-35" x="633.837891"/>
      <use xlink:href="#DejaVuSans-47" x="697.460938"/>
      <use xlink:href="#DejaVuSans-4c" x="774.951172"/>
      <use xlink:href="#DejaVuSans-54" x="816.914062"/>
      <use xlink:href="#DejaVuSans-33" x="877.998047"/>
      <use xlink:href="#DejaVuSans-5f" x="941.621094"/>
      <use xlink:href="#DejaVuSans-41" x="991.621094"/>
      <use xlink:href="#DejaVuSans-47" x="1058.279297"/>
      <use xlink:href="#DejaVuSans-41" x="1135.769531"/>
      <use xlink:href="#DejaVuSans-47" x="1202.427734"/>
      <use xlink:href="#DejaVuSans-41" x="1279.917969"/>
      <use xlink:href="#DejaVuSans-41" x="1351.076172"/>
      <use xlink:href="#DejaVuSans-43" x="1417.734375"/>
      <use xlink:href="#DejaVuSans-43" x="1487.558594"/>
      <use xlink:href="#DejaVuSans-54" x="1557.382812"/>
      <use xlink:href="#DejaVuSans-41" x="1610.716797"/>
      <use xlink:href="#DejaVuSans-2d" x="1676.875"/>
      <use xlink:href="#DejaVuSans-47" x="1716.583984"/>
      <use xlink:href="#DejaVuSans-47" x="1794.074219"/>
      <use xlink:href="#DejaVuSans-54" x="1867.939453"/>
      <use xlink:href="#DejaVuSans-54" x="1927.273438"/>
      <use xlink:href="#DejaVuSans-41" x="1980.607422"/>
      <use xlink:href="#DejaVuSans-54" x="2041.265625"/>
      <use xlink:href="#DejaVuSans-47" x="2102.349609"/>
      <use xlink:href="#DejaVuSans-43" x="2179.839844"/>
      <use xlink:href="#DejaVuSans-54" x="2249.664062"/>
      <use xlink:href="#DejaVuSans-41" x="2302.998047"/>
      <use xlink:href="#DejaVuSans-5f" x="2371.40625"/>
      <use xlink:href="#DejaVuSans-4c" x="2421.40625"/>
      <use xlink:href="#DejaVuSans-30" x="2477.119141"/>
      <use xlink:href="#DejaVuSans-30" x="2540.742188"/>
      <use xlink:href="#DejaVuSans-33" x="2604.365234"/>
      <use xlink:href="#DejaVuSans-5f" x="2667.988281"/>
      <use xlink:href="#DejaVuSans-54" x="2717.988281"/>
      <use xlink:href="#DejaVuSans-31" x="2779.072266"/>
      <use xlink:href="#DejaVuSans-5f" x="2842.695312"/>
      <use xlink:href="#DejaVuSans-31" x="2892.695312"/>
     </g>
    </g>
    <g id="line2d_22">
     <path d="M 210.371562 291.525394 
L 218.371562 291.525394 
L 226.371562 291.525394 
" style="fill: none; stroke: #5cb85c; stroke-linecap: square"/>
    </g>
    <g id="text_21">
     <!-- TK9_1_22GH5GLT3_AGAGAACCTA-GGTTATGCTA_L003_T1_2 -->
     <g transform="translate(232.771562 294.325394) scale(0.08 -0.08)">
      <use xlink:href="#DejaVuSans-54"/>
      <use xlink:href="#DejaVuSans-4b" x="61.083984"/>
      <use xlink:href="#DejaVuSans-39" x="126.660156"/>
      <use xlink:href="#DejaVuSans-5f" x="190.283203"/>
      <use xlink:href="#DejaVuSans-31" x="240.283203"/>
      <use xlink:href="#DejaVuSans-5f" x="303.90625"/>
      <use xlink:href="#DejaVuSans-32" x="353.90625"/>
      <use xlink:href="#DejaVuSans-32" x="417.529297"/>
      <use xlink:href="#DejaVuSans-47" x="481.152344"/>
      <use xlink:href="#DejaVuSans-48" x="558.642578"/>
      <use xlink:href="#DejaVuSans-35" x="633.837891"/>
      <use xlink:href="#DejaVuSans-47" x="697.460938"/>
      <use xlink:href="#DejaVuSans-4c" x="774.951172"/>
      <use xlink:href="#DejaVuSans-54" x="816.914062"/>
      <use xlink:href="#DejaVuSans-33" x="877.998047"/>
      <use xlink:href="#DejaVuSans-5f" x="941.621094"/>
      <use xlink:href="#DejaVuSans-41" x="991.621094"/>
      <use xlink:href="#DejaVuSans-47" x="1058.279297"/>
      <use xlink:href="#DejaVuSans-41" x="1135.769531"/>
      <use xlink:href="#DejaVuSans-47" x="1202.427734"/>
      <use xlink:href="#DejaVuSans-41" x="1279.917969"/>
      <use xlink:href="#DejaVuSans-41" x="1351.076172"/>
      <use xlink:href="#DejaVuSans-43" x="1417.734375"/>
      <use xlink:href="#DejaVuSans-43" x="1487.558594"/>
      <use xlink:href="#DejaVuSans-54" x="1557.382812"/>
      <use xlink:href="#DejaVuSans-41" x="1610.716797"/>
      <use xlink:href="#DejaVuSans-2d" x="1676.875"/>
      <use xlink:href="#DejaVuSans-47" x="1716.583984"/>
      <use xlink:href="#DejaVuSans-47" x="1794.074219"/>
      <use xlink:href="#DejaVuSans-54" x="1867.939453"/>
      <use xlink:href="#DejaVuSans-54" x="1927.273438"/>
      <use xlink:href="#DejaVuSans-41" x="1980.607422"/>
      <use xlink:href="#DejaVuSans-54" x="2041.265625"/>
      <use xlink:href="#DejaVuSans-47" x="2102.349609"/>
      <use xlink:href="#DejaVuSans-43" x="2179.839844"/>
      <use xlink:href="#DejaVuSans-54" x="2249.664062"/>
      <use xlink:href="#DejaVuSans-41" x="2302.998047"/>
      <use xlink:href="#DejaVuSans-5f" x="2371.40625"/>
      <use xlink:href="#DejaVuSans-4c" x="2421.40625"/>
      <use xlink:href="#DejaVuSans-30" x="2477.119141"/>
      <use xlink:href="#DejaVuSans-30" x="2540.742188"/>
      <use xlink:href="#DejaVuSans-33" x="2604.365234"/>
      <use xlink:href="#DejaVuSans-5f" x="2667.988281"/>
      <use xlink:href="#DejaVuSans-54" x="2717.988281"/>
      <use xlink:href="#DejaVuSans-31" x="2779.072266"/>
      <use xlink:href="#DejaVuSans-5f" x="2842.695312"/>
      <use xlink:href="#DejaVuSans-32" x="2892.695312"/>
     </g>
    </g>
    <g id="line2d_23">
     <path d="M 210.371562 303.490394 
L 218.371562 303.490394 
L 226.371562 303.490394 
" style="fill: none; stroke: #5cb85c; stroke-linecap: square"/>
    </g>
    <g id="text_22">
     <!-- TK9_2_22GH5GLT3_GATATTGTGT-ACCACACGGT_L002_T1_1 -->
     <g transform="translate(232.771562 306.290394) scale(0.08 -0.08)">
      <use xlink:href="#DejaVuSans-54"/>
      <use xlink:href="#DejaVuSans-4b" x="61.083984"/>
      <use xlink:href="#DejaVuSans-39" x="126.660156"/>
      <use xlink:href="#DejaVuSans-5f" x="190.283203"/>
      <use xlink:href="#DejaVuSans-32" x="240.283203"/>
      <use xlink:href="#DejaVuSans-5f" x="303.90625"/>
      <use xlink:href="#DejaVuSans-32" x="353.90625"/>
      <use xlink:href="#DejaVuSans-32" x="417.529297"/>
      <use xlink:href="#DejaVuSans-47" x="481.152344"/>
      <use xlink:href="#DejaVuSans-48" x="558.642578"/>
      <use xlink:href="#DejaVuSans-35" x="633.837891"/>
      <use xlink:href="#DejaVuSans-47" x="697.460938"/>
      <use xlink:href="#DejaVuSans-4c" x="774.951172"/>
      <use xlink:href="#DejaVuSans-54" x="816.914062"/>
      <use xlink:href="#DejaVuSans-33" x="877.998047"/>
      <use xlink:href="#DejaVuSans-5f" x="941.621094"/>
      <use xlink:href="#DejaVuSans-47" x="991.621094"/>
      <use xlink:href="#DejaVuSans-41" x="1069.111328"/>
      <use xlink:href="#DejaVuSans-54" x="1129.769531"/>
      <use xlink:href="#DejaVuSans-41" x="1183.103516"/>
      <use xlink:href="#DejaVuSans-54" x="1243.761719"/>
      <use xlink:href="#DejaVuSans-54" x="1303.095703"/>
      <use xlink:href="#DejaVuSans-47" x="1364.179688"/>
      <use xlink:href="#DejaVuSans-54" x="1438.044922"/>
      <use xlink:href="#DejaVuSans-47" x="1499.128906"/>
      <use xlink:href="#DejaVuSans-54" x="1572.994141"/>
      <use xlink:href="#DejaVuSans-2d" x="1624.953125"/>
      <use xlink:href="#DejaVuSans-41" x="1658.787109"/>
      <use xlink:href="#DejaVuSans-43" x="1725.445312"/>
      <use xlink:href="#DejaVuSans-43" x="1795.269531"/>
      <use xlink:href="#DejaVuSans-41" x="1865.09375"/>
      <use xlink:href="#DejaVuSans-43" x="1931.751953"/>
      <use xlink:href="#DejaVuSans-41" x="2001.576172"/>
      <use xlink:href="#DejaVuSans-43" x="2068.234375"/>
      <use xlink:href="#DejaVuSans-47" x="2138.058594"/>
      <use xlink:href="#DejaVuSans-47" x="2215.548828"/>
      <use xlink:href="#DejaVuSans-54" x="2289.414062"/>
      <use xlink:href="#DejaVuSans-5f" x="2350.498047"/>
      <use xlink:href="#DejaVuSans-4c" x="2400.498047"/>
      <use xlink:href="#DejaVuSans-30" x="2456.210938"/>
      <use xlink:href="#DejaVuSans-30" x="2519.833984"/>
      <use xlink:href="#DejaVuSans-32" x="2583.457031"/>
      <use xlink:href="#DejaVuSans-5f" x="2647.080078"/>
      <use xlink:href="#DejaVuSans-54" x="2697.080078"/>
      <use xlink:href="#DejaVuSans-31" x="2758.164062"/>
      <use xlink:href="#DejaVuSans-5f" x="2821.787109"/>
      <use xlink:href="#DejaVuSans-31" x="2871.787109"/>
     </g>
    </g>
    <g id="line2d_24">
     <path d="M 210.371562 315.455394 
L 218.371562 315.455394 
L 226.371562 315.455394 
" style="fill: none; stroke: #5cb85c; stroke-linecap: square"/>
    </g>
    <g id="text_23">
     <!-- TK9_2_22GH5GLT3_GATATTGTGT-ACCACACGGT_L002_T1_2 -->
     <g transform="translate(232.771562 318.255394) scale(0.08 -0.08)">
      <use xlink:href="#DejaVuSans-54"/>
      <use xlink:href="#DejaVuSans-4b" x="61.083984"/>
      <use xlink:href="#DejaVuSans-39" x="126.660156"/>
      <use xlink:href="#DejaVuSans-5f" x="190.283203"/>
      <use xlink:href="#DejaVuSans-32" x="240.283203"/>
      <use xlink:href="#DejaVuSans-5f" x="303.90625"/>
      <use xlink:href="#DejaVuSans-32" x="353.90625"/>
      <use xlink:href="#DejaVuSans-32" x="417.529297"/>
      <use xlink:href="#DejaVuSans-47" x="481.152344"/>
      <use xlink:href="#DejaVuSans-48" x="558.642578"/>
      <use xlink:href="#DejaVuSans-35" x="633.837891"/>
      <use xlink:href="#DejaVuSans-47" x="697.460938"/>
      <use xlink:href="#DejaVuSans-4c" x="774.951172"/>
      <use xlink:href="#DejaVuSans-54" x="816.914062"/>
      <use xlink:href="#DejaVuSans-33" x="877.998047"/>
      <use xlink:href="#DejaVuSans-5f" x="941.621094"/>
      <use xlink:href="#DejaVuSans-47" x="991.621094"/>
      <use xlink:href="#DejaVuSans-41" x="1069.111328"/>
      <use xlink:href="#DejaVuSans-54" x="1129.769531"/>
      <use xlink:href="#DejaVuSans-41" x="1183.103516"/>
      <use xlink:href="#DejaVuSans-54" x="1243.761719"/>
      <use xlink:href="#DejaVuSans-54" x="1303.095703"/>
      <use xlink:href="#DejaVuSans-47" x="1364.179688"/>
      <use xlink:href="#DejaVuSans-54" x="1438.044922"/>
      <use xlink:href="#DejaVuSans-47" x="1499.128906"/>
      <use xlink:href="#DejaVuSans-54" x="1572.994141"/>
      <use xlink:href="#DejaVuSans-2d" x="1624.953125"/>
      <use xlink:href="#DejaVuSans-41" x="1658.787109"/>
      <use xlink:href="#DejaVuSans-43" x="1725.445312"/>
      <use xlink:href="#DejaVuSans-43" x="1795.269531"/>
      <use xlink:href="#DejaVuSans-41" x="1865.09375"/>
      <use xlink:href="#DejaVuSans-43" x="1931.751953"/>
      <use xlink:href="#DejaVuSans-41" x="2001.576172"/>
      <use xlink:href="#DejaVuSans-43" x="2068.234375"/>
      <use xlink:href="#DejaVuSans-47" x="2138.058594"/>
      <use xlink:href="#DejaVuSans-47" x="2215.548828"/>
      <use xlink:href="#DejaVuSans-54" x="2289.414062"/>
      <use xlink:href="#DejaVuSans-5f" x="2350.498047"/>
      <use xlink:href="#DejaVuSans-4c" x="2400.498047"/>
      <use xlink:href="#DejaVuSans-30" x="2456.210938"/>
      <use xlink:href="#DejaVuSans-30" x="2519.833984"/>
      <use xlink:href="#DejaVuSans-32" x="2583.457031"/>
      <use xlink:href="#DejaVuSans-5f" x="2647.080078"/>
      <use xlink:href="#DejaVuSans-54" x="2697.080078"/>
      <use xlink:href="#DejaVuSans-31" x="2758.164062"/>
      <use xlink:href="#DejaVuSans-5f" x="2821.787109"/>
      <use xlink:href="#DejaVuSans-32" x="2871.787109"/>
     </g>
    </g>
    <g id="line2d_25">
     <path d="M 380.575 291.525394 
L 388.575 291.525394 
L 396.575 291.525394 
" style="fill: none; stroke: #5cb85c; stroke-linecap: square"/>
    </g>
    <g id="text_24">
     <!-- TK9_2_22GH5GLT3_GATATTGTGT-ACCACACGGT_L003_T1_1 -->
     <g transform="translate(402.975 294.325394) scale(0.08 -0.08)">
      <use xlink:href="#DejaVuSans-54"/>
      <use xlink:href="#DejaVuSans-4b" x="61.083984"/>
      <use xlink:href="#DejaVuSans-39" x="126.660156"/>
      <use xlink:href="#DejaVuSans-5f" x="190.283203"/>
      <use xlink:href="#DejaVuSans-32" x="240.283203"/>
      <use xlink:href="#DejaVuSans-5f" x="303.90625"/>
      <use xlink:href="#DejaVuSans-32" x="353.90625"/>
      <use xlink:href="#DejaVuSans-32" x="417.529297"/>
      <use xlink:href="#DejaVuSans-47" x="481.152344"/>
      <use xlink:href="#DejaVuSans-48" x="558.642578"/>
      <use xlink:href="#DejaVuSans-35" x="633.837891"/>
      <use xlink:href="#DejaVuSans-47" x="697.460938"/>
      <use xlink:href="#DejaVuSans-4c" x="774.951172"/>
      <use xlink:href="#DejaVuSans-54" x="816.914062"/>
      <use xlink:href="#DejaVuSans-33" x="877.998047"/>
      <use xlink:href="#DejaVuSans-5f" x="941.621094"/>
      <use xlink:href="#DejaVuSans-47" x="991.621094"/>
      <use xlink:href="#DejaVuSans-41" x="1069.111328"/>
      <use xlink:href="#DejaVuSans-54" x="1129.769531"/>
      <use xlink:href="#DejaVuSans-41" x="1183.103516"/>
      <use xlink:href="#DejaVuSans-54" x="1243.761719"/>
      <use xlink:href="#DejaVuSans-54" x="1303.095703"/>
      <use xlink:href="#DejaVuSans-47" x="1364.179688"/>
      <use xlink:href="#DejaVuSans-54" x="1438.044922"/>
      <use xlink:href="#DejaVuSans-47" x="1499.128906"/>
      <use xlink:href="#DejaVuSans-54" x="1572.994141"/>
      <use xlink:href="#DejaVuSans-2d" x="1624.953125"/>
      <use xlink:href="#DejaVuSans-41" x="1658.787109"/>
      <use xlink:href="#DejaVuSans-43" x="1725.445312"/>
      <use xlink:href="#DejaVuSans-43" x="1795.269531"/>
      <use xlink:href="#DejaVuSans-41" x="1865.09375"/>
      <use xlink:href="#DejaVuSans-43" x="1931.751953"/>
      <use xlink:href="#DejaVuSans-41" x="2001.576172"/>
      <use xlink:href="#DejaVuSans-43" x="2068.234375"/>
      <use xlink:href="#DejaVuSans-47" x="2138.058594"/>
      <use xlink:href="#DejaVuSans-47" x="2215.548828"/>
      <use xlink:href="#DejaVuSans-54" x="2289.414062"/>
      <use xlink:href="#DejaVuSans-5f" x="2350.498047"/>
      <use xlink:href="#DejaVuSans-4c" x="2400.498047"/>
      <use xlink:href="#DejaVuSans-30" x="2456.210938"/>
      <use xlink:href="#DejaVuSans-30" x="2519.833984"/>
      <use xlink:href="#DejaVuSans-33" x="2583.457031"/>
      <use xlink:href="#DejaVuSans-5f" x="2647.080078"/>
      <use xlink:href="#DejaVuSans-54" x="2697.080078"/>
      <use xlink:href="#DejaVuSans-31" x="2758.164062"/>
      <use xlink:href="#DejaVuSans-5f" x="2821.787109"/>
      <use xlink:href="#DejaVuSans-31" x="2871.787109"/>
     </g>
    </g>
    <g id="line2d_26">
     <path d="M 380.575 303.490394 
L 388.575 303.490394 
L 396.575 303.490394 
" style="fill: none; stroke: #5cb85c; stroke-linecap: square"/>
    </g>
    <g id="text_25">
     <!-- TK9_2_22GH5GLT3_GATATTGTGT-ACCACACGGT_L003_T1_2 -->
     <g transform="translate(402.975 306.290394) scale(0.08 -0.08)">
      <use xlink:href="#DejaVuSans-54"/>
      <use xlink:href="#DejaVuSans-4b" x="61.083984"/>
      <use xlink:href="#DejaVuSans-39" x="126.660156"/>
      <use xlink:href="#DejaVuSans-5f" x="190.283203"/>
      <use xlink:href="#DejaVuSans-32" x="240.283203"/>
      <use xlink:href="#DejaVuSans-5f" x="303.90625"/>
      <use xlink:href="#DejaVuSans-32" x="353.90625"/>
      <use xlink:href="#DejaVuSans-32" x="417.529297"/>
      <use xlink:href="#DejaVuSans-47" x="481.152344"/>
      <use xlink:href="#DejaVuSans-48" x="558.642578"/>
      <use xlink:href="#DejaVuSans-35" x="633.837891"/>
      <use xlink:href="#DejaVuSans-47" x="697.460938"/>
      <use xlink:href="#DejaVuSans-4c" x="774.951172"/>
      <use xlink:href="#DejaVuSans-54" x="816.914062"/>
      <use xlink:href="#DejaVuSans-33" x="877.998047"/>
      <use xlink:href="#DejaVuSans-5f" x="941.621094"/>
      <use xlink:href="#DejaVuSans-47" x="991.621094"/>
      <use xlink:href="#DejaVuSans-41" x="1069.111328"/>
      <use xlink:href="#DejaVuSans-54" x="1129.769531"/>
      <use xlink:href="#DejaVuSans-41" x="1183.103516"/>
      <use xlink:href="#DejaVuSans-54" x="1243.761719"/>
      <use xlink:href="#DejaVuSans-54" x="1303.095703"/>
      <use xlink:href="#DejaVuSans-47" x="1364.179688"/>
      <use xlink:href="#DejaVuSans-54" x="1438.044922"/>
      <use xlink:href="#DejaVuSans-47" x="1499.128906"/>
      <use xlink:href="#DejaVuSans-54" x="1572.994141"/>
      <use xlink:href="#DejaVuSans-2d" x="1624.953125"/>
      <use xlink:href="#DejaVuSans-41" x="1658.787109"/>
      <use xlink:href="#DejaVuSans-43" x="1725.445312"/>
      <use xlink:href="#DejaVuSans-43" x="1795.269531"/>
      <use xlink:href="#DejaVuSans-41" x="1865.09375"/>
      <use xlink:href="#DejaVuSans-43" x="1931.751953"/>
      <use xlink:href="#DejaVuSans-41" x="2001.576172"/>
      <use xlink:href="#DejaVuSans-43" x="2068.234375"/>
      <use xlink:href="#DejaVuSans-47" x="2138.058594"/>
      <use xlink:href="#DejaVuSans-47" x="2215.548828"/>
      <use xlink:href="#DejaVuSans-54" x="2289.414062"/>
      <use xlink:href="#DejaVuSans-5f" x="2350.498047"/>
      <use xlink:href="#DejaVuSans-4c" x="2400.498047"/>
      <use xlink:href="#DejaVuSans-30" x="2456.210938"/>
      <use xlink:href="#DejaVuSans-30" x="2519.833984"/>
      <use xlink:href="#DejaVuSans-33" x="2583.457031"/>
      <use xlink:href="#DejaVuSans-5f" x="2647.080078"/>
      <use xlink:href="#DejaVuSans-54" x="2697.080078"/>
      <use xlink:href="#DejaVuSans-31" x="2758.164062"/>
      <use xlink:href="#DejaVuSans-5f" x="2821.787109"/>
      <use xlink:href="#DejaVuSans-32" x="2871.787109"/>
     </g>
    </g>
    <g id="line2d_27">
     <path d="M 549.105937 291.525394 
L 557.105937 291.525394 
L 565.105937 291.525394 
" style="fill: none; stroke: #5cb85c; stroke-linecap: square"/>
    </g>
    <g id="text_26">
     <!-- TK9_3_22GH5GLT3_GGCGCCATTG-ACCGCGCAAT_L002_T1_1 -->
     <g transform="translate(571.505937 294.325394) scale(0.08 -0.08)">
      <use xlink:href="#DejaVuSans-54"/>
      <use xlink:href="#DejaVuSans-4b" x="61.083984"/>
      <use xlink:href="#DejaVuSans-39" x="126.660156"/>
      <use xlink:href="#DejaVuSans-5f" x="190.283203"/>
      <use xlink:href="#DejaVuSans-33" x="240.283203"/>
      <use xlink:href="#DejaVuSans-5f" x="303.90625"/>
      <use xlink:href="#DejaVuSans-32" x="353.90625"/>
      <use xlink:href="#DejaVuSans-32" x="417.529297"/>
      <use xlink:href="#DejaVuSans-47" x="481.152344"/>
      <use xlink:href="#DejaVuSans-48" x="558.642578"/>
      <use xlink:href="#DejaVuSans-35" x="633.837891"/>
      <use xlink:href="#DejaVuSans-47" x="697.460938"/>
      <use xlink:href="#DejaVuSans-4c" x="774.951172"/>
      <use xlink:href="#DejaVuSans-54" x="816.914062"/>
      <use xlink:href="#DejaVuSans-33" x="877.998047"/>
      <use xlink:href="#DejaVuSans-5f" x="941.621094"/>
      <use xlink:href="#DejaVuSans-47" x="991.621094"/>
      <use xlink:href="#DejaVuSans-47" x="1069.111328"/>
      <use xlink:href="#DejaVuSans-43" x="1146.601562"/>
      <use xlink:href="#DejaVuSans-47" x="1216.425781"/>
      <use xlink:href="#DejaVuSans-43" x="1293.916016"/>
      <use xlink:href="#DejaVuSans-43" x="1363.740234"/>
      <use xlink:href="#DejaVuSans-41" x="1433.564453"/>
      <use xlink:href="#DejaVuSans-54" x="1494.222656"/>
      <use xlink:href="#DejaVuSans-54" x="1553.556641"/>
      <use xlink:href="#DejaVuSans-47" x="1614.640625"/>
      <use xlink:href="#DejaVuSans-2d" x="1692.130859"/>
      <use xlink:href="#DejaVuSans-41" x="1725.964844"/>
      <use xlink:href="#DejaVuSans-43" x="1792.623047"/>
      <use xlink:href="#DejaVuSans-43" x="1862.447266"/>
      <use xlink:href="#DejaVuSans-47" x="1932.271484"/>
      <use xlink:href="#DejaVuSans-43" x="2009.761719"/>
      <use xlink:href="#DejaVuSans-47" x="2079.585938"/>
      <use xlink:href="#DejaVuSans-43" x="2157.076172"/>
      <use xlink:href="#DejaVuSans-41" x="2226.900391"/>
      <use xlink:href="#DejaVuSans-41" x="2298.058594"/>
      <use xlink:href="#DejaVuSans-54" x="2358.716797"/>
      <use xlink:href="#DejaVuSans-5f" x="2419.800781"/>
      <use xlink:href="#DejaVuSans-4c" x="2469.800781"/>
      <use xlink:href="#DejaVuSans-30" x="2525.513672"/>
      <use xlink:href="#DejaVuSans-30" x="2589.136719"/>
      <use xlink:href="#DejaVuSans-32" x="2652.759766"/>
      <use xlink:href="#DejaVuSans-5f" x="2716.382812"/>
      <use xlink:href="#DejaVuSans-54" x="2766.382812"/>
      <use xlink:href="#DejaVuSans-31" x="2827.466797"/>
      <use xlink:href="#DejaVuSans-5f" x="2891.089844"/>
      <use xlink:href="#DejaVuSans-31" x="2941.089844"/>
     </g>
    </g>
    <g id="line2d_28">
     <path d="M 549.105937 303.490394 
L 557.105937 303.490394 
L 565.105937 303.490394 
" style="fill: none; stroke: #5cb85c; stroke-linecap: square"/>
    </g>
    <g id="text_27">
     <!-- TK9_3_22GH5GLT3_GGCGCCATTG-ACCGCGCAAT_L002_T1_2 -->
     <g transform="translate(571.505937 306.290394) scale(0.08 -0.08)">
      <use xlink:href="#DejaVuSans-54"/>
      <use xlink:href="#DejaVuSans-4b" x="61.083984"/>
      <use xlink:href="#DejaVuSans-39" x="126.660156"/>
      <use xlink:href="#DejaVuSans-5f" x="190.283203"/>
      <use xlink:href="#DejaVuSans-33" x="240.283203"/>
      <use xlink:href="#DejaVuSans-5f" x="303.90625"/>
      <use xlink:href="#DejaVuSans-32" x="353.90625"/>
      <use xlink:href="#DejaVuSans-32" x="417.529297"/>
      <use xlink:href="#DejaVuSans-47" x="481.152344"/>
      <use xlink:href="#DejaVuSans-48" x="558.642578"/>
      <use xlink:href="#DejaVuSans-35" x="633.837891"/>
      <use xlink:href="#DejaVuSans-47" x="697.460938"/>
      <use xlink:href="#DejaVuSans-4c" x="774.951172"/>
      <use xlink:href="#DejaVuSans-54" x="816.914062"/>
      <use xlink:href="#DejaVuSans-33" x="877.998047"/>
      <use xlink:href="#DejaVuSans-5f" x="941.621094"/>
      <use xlink:href="#DejaVuSans-47" x="991.621094"/>
      <use xlink:href="#DejaVuSans-47" x="1069.111328"/>
      <use xlink:href="#DejaVuSans-43" x="1146.601562"/>
      <use xlink:href="#DejaVuSans-47" x="1216.425781"/>
      <use xlink:href="#DejaVuSans-43" x="1293.916016"/>
      <use xlink:href="#DejaVuSans-43" x="1363.740234"/>
      <use xlink:href="#DejaVuSans-41" x="1433.564453"/>
      <use xlink:href="#DejaVuSans-54" x="1494.222656"/>
      <use xlink:href="#DejaVuSans-54" x="1553.556641"/>
      <use xlink:href="#DejaVuSans-47" x="1614.640625"/>
      <use xlink:href="#DejaVuSans-2d" x="1692.130859"/>
      <use xlink:href="#DejaVuSans-41" x="1725.964844"/>
      <use xlink:href="#DejaVuSans-43" x="1792.623047"/>
      <use xlink:href="#DejaVuSans-43" x="1862.447266"/>
      <use xlink:href="#DejaVuSans-47" x="1932.271484"/>
      <use xlink:href="#DejaVuSans-43" x="2009.761719"/>
      <use xlink:href="#DejaVuSans-47" x="2079.585938"/>
      <use xlink:href="#DejaVuSans-43" x="2157.076172"/>
      <use xlink:href="#DejaVuSans-41" x="2226.900391"/>
      <use xlink:href="#DejaVuSans-41" x="2298.058594"/>
      <use xlink:href="#DejaVuSans-54" x="2358.716797"/>
      <use xlink:href="#DejaVuSans-5f" x="2419.800781"/>
      <use xlink:href="#DejaVuSans-4c" x="2469.800781"/>
      <use xlink:href="#DejaVuSans-30" x="2525.513672"/>
      <use xlink:href="#DejaVuSans-30" x="2589.136719"/>
      <use xlink:href="#DejaVuSans-32" x="2652.759766"/>
      <use xlink:href="#DejaVuSans-5f" x="2716.382812"/>
      <use xlink:href="#DejaVuSans-54" x="2766.382812"/>
      <use xlink:href="#DejaVuSans-31" x="2827.466797"/>
      <use xlink:href="#DejaVuSans-5f" x="2891.089844"/>
      <use xlink:href="#DejaVuSans-32" x="2941.089844"/>
     </g>
    </g>
    <g id="line2d_29">
     <path d="M 723.183125 291.525394 
L 731.183125 291.525394 
L 739.183125 291.525394 
" style="fill: none; stroke: #5cb85c; stroke-linecap: square"/>
    </g>
    <g id="text_28">
     <!-- TK9_3_22GH5GLT3_GGCGCCATTG-ACCGCGCAAT_L003_T1_1 -->
     <g transform="translate(745.583125 294.325394) scale(0.08 -0.08)">
      <use xlink:href="#DejaVuSans-54"/>
      <use xlink:href="#DejaVuSans-4b" x="61.083984"/>
      <use xlink:href="#DejaVuSans-39" x="126.660156"/>
      <use xlink:href="#DejaVuSans-5f" x="190.283203"/>
      <use xlink:href="#DejaVuSans-33" x="240.283203"/>
      <use xlink:href="#DejaVuSans-5f" x="303.90625"/>
      <use xlink:href="#DejaVuSans-32" x="353.90625"/>
      <use xlink:href="#DejaVuSans-32" x="417.529297"/>
      <use xlink:href="#DejaVuSans-47" x="481.152344"/>
      <use xlink:href="#DejaVuSans-48" x="558.642578"/>
      <use xlink:href="#DejaVuSans-35" x="633.837891"/>
      <use xlink:href="#DejaVuSans-47" x="697.460938"/>
      <use xlink:href="#DejaVuSans-4c" x="774.951172"/>
      <use xlink:href="#DejaVuSans-54" x="816.914062"/>
      <use xlink:href="#DejaVuSans-33" x="877.998047"/>
      <use xlink:href="#DejaVuSans-5f" x="941.621094"/>
      <use xlink:href="#DejaVuSans-47" x="991.621094"/>
      <use xlink:href="#DejaVuSans-47" x="1069.111328"/>
      <use xlink:href="#DejaVuSans-43" x="1146.601562"/>
      <use xlink:href="#DejaVuSans-47" x="1216.425781"/>
      <use xlink:href="#DejaVuSans-43" x="1293.916016"/>
      <use xlink:href="#DejaVuSans-43" x="1363.740234"/>
      <use xlink:href="#DejaVuSans-41" x="1433.564453"/>
      <use xlink:href="#DejaVuSans-54" x="1494.222656"/>
      <use xlink:href="#DejaVuSans-54" x="1553.556641"/>
      <use xlink:href="#DejaVuSans-47" x="1614.640625"/>
      <use xlink:href="#DejaVuSans-2d" x="1692.130859"/>
      <use xlink:href="#DejaVuSans-41" x="1725.964844"/>
      <use xlink:href="#DejaVuSans-43" x="1792.623047"/>
      <use xlink:href="#DejaVuSans-43" x="1862.447266"/>
      <use xlink:href="#DejaVuSans-47" x="1932.271484"/>
      <use xlink:href="#DejaVuSans-43" x="2009.761719"/>
      <use xlink:href="#DejaVuSans-47" x="2079.585938"/>
      <use xlink:href="#DejaVuSans-43" x="2157.076172"/>
      <use xlink:href="#DejaVuSans-41" x="2226.900391"/>
      <use xlink:href="#DejaVuSans-41" x="2298.058594"/>
      <use xlink:href="#DejaVuSans-54" x="2358.716797"/>
      <use xlink:href="#DejaVuSans-5f" x="2419.800781"/>
      <use xlink:href="#DejaVuSans-4c" x="2469.800781"/>
      <use xlink:href="#DejaVuSans-30" x="2525.513672"/>
      <use xlink:href="#DejaVuSans-30" x="2589.136719"/>
      <use xlink:href="#DejaVuSans-33" x="2652.759766"/>
      <use xlink:href="#DejaVuSans-5f" x="2716.382812"/>
      <use xlink:href="#DejaVuSans-54" x="2766.382812"/>
      <use xlink:href="#DejaVuSans-31" x="2827.466797"/>
      <use xlink:href="#DejaVuSans-5f" x="2891.089844"/>
      <use xlink:href="#DejaVuSans-31" x="2941.089844"/>
     </g>
    </g>
    <g id="line2d_30">
     <path d="M 723.183125 303.490394 
L 731.183125 303.490394 
L 739.183125 303.490394 
" style="fill: none; stroke: #5cb85c; stroke-linecap: square"/>
    </g>
    <g id="text_29">
     <!-- TK9_3_22GH5GLT3_GGCGCCATTG-ACCGCGCAAT_L003_T1_2 -->
     <g transform="translate(745.583125 306.290394) scale(0.08 -0.08)">
      <use xlink:href="#DejaVuSans-54"/>
      <use xlink:href="#DejaVuSans-4b" x="61.083984"/>
      <use xlink:href="#DejaVuSans-39" x="126.660156"/>
      <use xlink:href="#DejaVuSans-5f" x="190.283203"/>
      <use xlink:href="#DejaVuSans-33" x="240.283203"/>
      <use xlink:href="#DejaVuSans-5f" x="303.90625"/>
      <use xlink:href="#DejaVuSans-32" x="353.90625"/>
      <use xlink:href="#DejaVuSans-32" x="417.529297"/>
      <use xlink:href="#DejaVuSans-47" x="481.152344"/>
      <use xlink:href="#DejaVuSans-48" x="558.642578"/>
      <use xlink:href="#DejaVuSans-35" x="633.837891"/>
      <use xlink:href="#DejaVuSans-47" x="697.460938"/>
      <use xlink:href="#DejaVuSans-4c" x="774.951172"/>
      <use xlink:href="#DejaVuSans-54" x="816.914062"/>
      <use xlink:href="#DejaVuSans-33" x="877.998047"/>
      <use xlink:href="#DejaVuSans-5f" x="941.621094"/>
      <use xlink:href="#DejaVuSans-47" x="991.621094"/>
      <use xlink:href="#DejaVuSans-47" x="1069.111328"/>
      <use xlink:href="#DejaVuSans-43" x="1146.601562"/>
      <use xlink:href="#DejaVuSans-47" x="1216.425781"/>
      <use xlink:href="#DejaVuSans-43" x="1293.916016"/>
      <use xlink:href="#DejaVuSans-43" x="1363.740234"/>
      <use xlink:href="#DejaVuSans-41" x="1433.564453"/>
      <use xlink:href="#DejaVuSans-54" x="1494.222656"/>
      <use xlink:href="#DejaVuSans-54" x="1553.556641"/>
      <use xlink:href="#DejaVuSans-47" x="1614.640625"/>
      <use xlink:href="#DejaVuSans-2d" x="1692.130859"/>
      <use xlink:href="#DejaVuSans-41" x="1725.964844"/>
      <use xlink:href="#DejaVuSans-43" x="1792.623047"/>
      <use xlink:href="#DejaVuSans-43" x="1862.447266"/>
      <use xlink:href="#DejaVuSans-47" x="1932.271484"/>
      <use xlink:href="#DejaVuSans-43" x="2009.761719"/>
      <use xlink:href="#DejaVuSans-47" x="2079.585938"/>
      <use xlink:href="#DejaVuSans-43" x="2157.076172"/>
      <use xlink:href="#DejaVuSans-41" x="2226.900391"/>
      <use xlink:href="#DejaVuSans-41" x="2298.058594"/>
      <use xlink:href="#DejaVuSans-54" x="2358.716797"/>
      <use xlink:href="#DejaVuSans-5f" x="2419.800781"/>
      <use xlink:href="#DejaVuSans-4c" x="2469.800781"/>
      <use xlink:href="#DejaVuSans-30" x="2525.513672"/>
      <use xlink:href="#DejaVuSans-30" x="2589.136719"/>
      <use xlink:href="#DejaVuSans-33" x="2652.759766"/>
      <use xlink:href="#DejaVuSans-5f" x="2716.382812"/>
      <use xlink:href="#DejaVuSans-54" x="2766.382812"/>
      <use xlink:href="#DejaVuSans-31" x="2827.466797"/>
      <use xlink:href="#DejaVuSans-5f" x="2891.089844"/>
      <use xlink:href="#DejaVuSans-32" x="2941.089844"/>
     </g>
    </g>
   </g>
  </g>
 </g>
 <defs>
  <clipPath id="p2dd35742b8">
   <rect x="32.968125" y="31.48286" width="960.19" height="242.5072"/>
  </clipPath>
 </defs>
</svg>
