<?xml version="1.0" encoding="utf-8" standalone="no"?>
<!DOCTYPE svg PUBLIC "-//W3C//DTD SVG 1.1//EN"
  "http://www.w3.org/Graphics/SVG/1.1/DTD/svg11.dtd">
<svg xmlns:xlink="http://www.w3.org/1999/xlink" width="1000.280625pt" height="330.541644pt" viewBox="0 0 1000.280625 330.541644" xmlns="http://www.w3.org/2000/svg" version="1.1">
 <metadata>
  <rdf:RDF xmlns:dc="http://purl.org/dc/elements/1.1/" xmlns:cc="http://creativecommons.org/ns#" xmlns:rdf="http://www.w3.org/1999/02/22-rdf-syntax-ns#">
   <cc:Work>
    <dc:type rdf:resource="http://purl.org/dc/dcmitype/StillImage"/>
    <dc:date>2023-10-19T18:40:47.072713</dc:date>
    <dc:format>image/svg+xml</dc:format>
    <dc:creator>
     <cc:Agent>
      <dc:title>Matplotlib v3.6.2, https://matplotlib.org/</dc:title>
     </cc:Agent>
    </dc:creator>
   </cc:Work>
  </rdf:RDF>
 </metadata>
 <defs>
  <style type="text/css">*{stroke-linejoin: round; stroke-linecap: butt}</style>
 </defs>
 <g id="figure_1">
  <g id="axes_1">
   <g id="patch_1">
    <path d="M 40.600625 273.99006 
L 985.445625 273.99006 
L 985.445625 31.48286 
L 40.600625 31.48286 
z
" style="fill: #ffffff"/>
   </g>
   <g id="matplotlib.axis_1">
    <g id="xtick_1">
     <g id="text_1">
      <!-- 0 -->
      <g transform="translate(38.055625 287.06881) scale(0.08 -0.08)">
       <defs>
        <path id="DejaVuSans-30" d="M 2034 4250 
Q 1547 4250 1301 3770 
Q 1056 3291 1056 2328 
Q 1056 1369 1301 889 
Q 1547 409 2034 409 
Q 2525 409 2770 889 
Q 3016 1369 3016 2328 
Q 3016 3291 2770 3770 
Q 2525 4250 2034 4250 
z
M 2034 4750 
Q 2819 4750 3233 4129 
Q 3647 3509 3647 2328 
Q 3647 1150 3233 529 
Q 2819 -91 2034 -91 
Q 1250 -91 836 529 
Q 422 1150 422 2328 
Q 422 3509 836 4129 
Q 1250 4750 2034 4750 
z
" transform="scale(0.015625)"/>
       </defs>
       <use xlink:href="#DejaVuSans-30"/>
      </g>
     </g>
    </g>
    <g id="xtick_2">
     <g id="text_2">
      <!-- 20 -->
      <g transform="translate(224.479625 287.06881) scale(0.08 -0.08)">
       <defs>
        <path id="DejaVuSans-32" d="M 1228 531 
L 3431 531 
L 3431 0 
L 469 0 
L 469 531 
Q 828 903 1448 1529 
Q 2069 2156 2228 2338 
Q 2531 2678 2651 2914 
Q 2772 3150 2772 3378 
Q 2772 3750 2511 3984 
Q 2250 4219 1831 4219 
Q 1534 4219 1204 4116 
Q 875 4013 500 3803 
L 500 4441 
Q 881 4594 1212 4672 
Q 1544 4750 1819 4750 
Q 2544 4750 2975 4387 
Q 3406 4025 3406 3419 
Q 3406 3131 3298 2873 
Q 3191 2616 2906 2266 
Q 2828 2175 2409 1742 
Q 1991 1309 1228 531 
z
" transform="scale(0.015625)"/>
       </defs>
       <use xlink:href="#DejaVuSans-32"/>
       <use xlink:href="#DejaVuSans-30" x="63.623047"/>
      </g>
     </g>
    </g>
    <g id="xtick_3">
     <g id="text_3">
      <!-- 40 -->
      <g transform="translate(413.448625 287.06881) scale(0.08 -0.08)">
       <defs>
        <path id="DejaVuSans-34" d="M 2419 4116 
L 825 1625 
L 2419 1625 
L 2419 4116 
z
M 2253 4666 
L 3047 4666 
L 3047 1625 
L 3713 1625 
L 3713 1100 
L 3047 1100 
L 3047 0 
L 2419 0 
L 2419 1100 
L 313 1100 
L 313 1709 
L 2253 4666 
z
" transform="scale(0.015625)"/>
       </defs>
       <use xlink:href="#DejaVuSans-34"/>
       <use xlink:href="#DejaVuSans-30" x="63.623047"/>
      </g>
     </g>
    </g>
    <g id="xtick_4">
     <g id="text_4">
      <!-- 60 -->
      <g transform="translate(602.417625 287.06881) scale(0.08 -0.08)">
       <defs>
        <path id="DejaVuSans-36" d="M 2113 2584 
Q 1688 2584 1439 2293 
Q 1191 2003 1191 1497 
Q 1191 994 1439 701 
Q 1688 409 2113 409 
Q 2538 409 2786 701 
Q 3034 994 3034 1497 
Q 3034 2003 2786 2293 
Q 2538 2584 2113 2584 
z
M 3366 4563 
L 3366 3988 
Q 3128 4100 2886 4159 
Q 2644 4219 2406 4219 
Q 1781 4219 1451 3797 
Q 1122 3375 1075 2522 
Q 1259 2794 1537 2939 
Q 1816 3084 2150 3084 
Q 2853 3084 3261 2657 
Q 3669 2231 3669 1497 
Q 3669 778 3244 343 
Q 2819 -91 2113 -91 
Q 1303 -91 875 529 
Q 447 1150 447 2328 
Q 447 3434 972 4092 
Q 1497 4750 2381 4750 
Q 2619 4750 2861 4703 
Q 3103 4656 3366 4563 
z
" transform="scale(0.015625)"/>
       </defs>
       <use xlink:href="#DejaVuSans-36"/>
       <use xlink:href="#DejaVuSans-30" x="63.623047"/>
      </g>
     </g>
    </g>
    <g id="xtick_5">
     <g id="text_5">
      <!-- 80 -->
      <g transform="translate(791.386625 287.06881) scale(0.08 -0.08)">
       <defs>
        <path id="DejaVuSans-38" d="M 2034 2216 
Q 1584 2216 1326 1975 
Q 1069 1734 1069 1313 
Q 1069 891 1326 650 
Q 1584 409 2034 409 
Q 2484 409 2743 651 
Q 3003 894 3003 1313 
Q 3003 1734 2745 1975 
Q 2488 2216 2034 2216 
z
M 1403 2484 
Q 997 2584 770 2862 
Q 544 3141 544 3541 
Q 544 4100 942 4425 
Q 1341 4750 2034 4750 
Q 2731 4750 3128 4425 
Q 3525 4100 3525 3541 
Q 3525 3141 3298 2862 
Q 3072 2584 2669 2484 
Q 3125 2378 3379 2068 
Q 3634 1759 3634 1313 
Q 3634 634 3220 271 
Q 2806 -91 2034 -91 
Q 1263 -91 848 271 
Q 434 634 434 1313 
Q 434 1759 690 2068 
Q 947 2378 1403 2484 
z
M 1172 3481 
Q 1172 3119 1398 2916 
Q 1625 2713 2034 2713 
Q 2441 2713 2670 2916 
Q 2900 3119 2900 3481 
Q 2900 3844 2670 4047 
Q 2441 4250 2034 4250 
Q 1625 4250 1398 4047 
Q 1172 3844 1172 3481 
z
" transform="scale(0.015625)"/>
       </defs>
       <use xlink:href="#DejaVuSans-38"/>
       <use xlink:href="#DejaVuSans-30" x="63.623047"/>
      </g>
     </g>
    </g>
    <g id="xtick_6">
     <g id="text_6">
      <!-- 100 -->
      <g transform="translate(977.810625 287.06881) scale(0.08 -0.08)">
       <defs>
        <path id="DejaVuSans-31" d="M 794 531 
L 1825 531 
L 1825 4091 
L 703 3866 
L 703 4441 
L 1819 4666 
L 2450 4666 
L 2450 531 
L 3481 531 
L 3481 0 
L 794 0 
L 794 531 
z
" transform="scale(0.015625)"/>
       </defs>
       <use xlink:href="#DejaVuSans-31"/>
       <use xlink:href="#DejaVuSans-30" x="63.623047"/>
       <use xlink:href="#DejaVuSans-30" x="127.246094"/>
      </g>
     </g>
    </g>
    <g id="text_7">
     <!-- % GC -->
     <g transform="translate(499.317656 300.330997) scale(0.1 -0.1)">
      <defs>
       <path id="DejaVuSans-25" d="M 4653 2053 
Q 4381 2053 4226 1822 
Q 4072 1591 4072 1178 
Q 4072 772 4226 539 
Q 4381 306 4653 306 
Q 4919 306 5073 539 
Q 5228 772 5228 1178 
Q 5228 1588 5073 1820 
Q 4919 2053 4653 2053 
z
M 4653 2450 
Q 5147 2450 5437 2106 
Q 5728 1763 5728 1178 
Q 5728 594 5436 251 
Q 5144 -91 4653 -91 
Q 4153 -91 3862 251 
Q 3572 594 3572 1178 
Q 3572 1766 3864 2108 
Q 4156 2450 4653 2450 
z
M 1428 4353 
Q 1159 4353 1004 4120 
Q 850 3888 850 3481 
Q 850 3069 1003 2837 
Q 1156 2606 1428 2606 
Q 1700 2606 1854 2837 
Q 2009 3069 2009 3481 
Q 2009 3884 1853 4118 
Q 1697 4353 1428 4353 
z
M 4250 4750 
L 4750 4750 
L 1831 -91 
L 1331 -91 
L 4250 4750 
z
M 1428 4750 
Q 1922 4750 2215 4408 
Q 2509 4066 2509 3481 
Q 2509 2891 2217 2550 
Q 1925 2209 1428 2209 
Q 931 2209 642 2551 
Q 353 2894 353 3481 
Q 353 4063 643 4406 
Q 934 4750 1428 4750 
z
" transform="scale(0.015625)"/>
       <path id="DejaVuSans-20" transform="scale(0.015625)"/>
       <path id="DejaVuSans-47" d="M 3809 666 
L 3809 1919 
L 2778 1919 
L 2778 2438 
L 4434 2438 
L 4434 434 
Q 4069 175 3628 42 
Q 3188 -91 2688 -91 
Q 1594 -91 976 548 
Q 359 1188 359 2328 
Q 359 3472 976 4111 
Q 1594 4750 2688 4750 
Q 3144 4750 3555 4637 
Q 3966 4525 4313 4306 
L 4313 3634 
Q 3963 3931 3569 4081 
Q 3175 4231 2741 4231 
Q 1884 4231 1454 3753 
Q 1025 3275 1025 2328 
Q 1025 1384 1454 906 
Q 1884 428 2741 428 
Q 3075 428 3337 486 
Q 3600 544 3809 666 
z
" transform="scale(0.015625)"/>
       <path id="DejaVuSans-43" d="M 4122 4306 
L 4122 3641 
Q 3803 3938 3442 4084 
Q 3081 4231 2675 4231 
Q 1875 4231 1450 3742 
Q 1025 3253 1025 2328 
Q 1025 1406 1450 917 
Q 1875 428 2675 428 
Q 3081 428 3442 575 
Q 3803 722 4122 1019 
L 4122 359 
Q 3791 134 3420 21 
Q 3050 -91 2638 -91 
Q 1578 -91 968 557 
Q 359 1206 359 2328 
Q 359 3453 968 4101 
Q 1578 4750 2638 4750 
Q 3056 4750 3426 4639 
Q 3797 4528 4122 4306 
z
" transform="scale(0.015625)"/>
      </defs>
      <use xlink:href="#DejaVuSans-25"/>
      <use xlink:href="#DejaVuSans-20" x="95.019531"/>
      <use xlink:href="#DejaVuSans-47" x="126.806641"/>
      <use xlink:href="#DejaVuSans-43" x="204.296875"/>
     </g>
    </g>
   </g>
   <g id="matplotlib.axis_2">
    <g id="ytick_1">
     <g id="line2d_1">
      <path d="M 40.600625 273.99006 
L 985.445625 273.99006 
" clip-path="url(#pfc0627fece)" style="fill: none; stroke: #dedede; stroke-linecap: square"/>
     </g>
     <g id="text_8">
      <!-- 0.0 -->
      <g transform="translate(20.878125 277.029435) scale(0.08 -0.08)">
       <defs>
        <path id="DejaVuSans-2e" d="M 684 794 
L 1344 794 
L 1344 0 
L 684 0 
L 684 794 
z
" transform="scale(0.015625)"/>
       </defs>
       <use xlink:href="#DejaVuSans-30"/>
       <use xlink:href="#DejaVuSans-2e" x="63.623047"/>
       <use xlink:href="#DejaVuSans-30" x="95.410156"/>
      </g>
     </g>
    </g>
    <g id="ytick_2">
     <g id="line2d_2">
      <path d="M 40.600625 239.302213 
L 985.445625 239.302213 
" clip-path="url(#pfc0627fece)" style="fill: none; stroke: #dedede; stroke-linecap: square"/>
     </g>
     <g id="text_9">
      <!-- 0.5 -->
      <g transform="translate(20.878125 242.341588) scale(0.08 -0.08)">
       <defs>
        <path id="DejaVuSans-35" d="M 691 4666 
L 3169 4666 
L 3169 4134 
L 1269 4134 
L 1269 2991 
Q 1406 3038 1543 3061 
Q 1681 3084 1819 3084 
Q 2600 3084 3056 2656 
Q 3513 2228 3513 1497 
Q 3513 744 3044 326 
Q 2575 -91 1722 -91 
Q 1428 -91 1123 -41 
Q 819 9 494 109 
L 494 744 
Q 775 591 1075 516 
Q 1375 441 1709 441 
Q 2250 441 2565 725 
Q 2881 1009 2881 1497 
Q 2881 1984 2565 2268 
Q 2250 2553 1709 2553 
Q 1456 2553 1204 2497 
Q 953 2441 691 2322 
L 691 4666 
z
" transform="scale(0.015625)"/>
       </defs>
       <use xlink:href="#DejaVuSans-30"/>
       <use xlink:href="#DejaVuSans-2e" x="63.623047"/>
       <use xlink:href="#DejaVuSans-35" x="95.410156"/>
      </g>
     </g>
    </g>
    <g id="ytick_3">
     <g id="line2d_3">
      <path d="M 40.600625 204.614367 
L 985.445625 204.614367 
" clip-path="url(#pfc0627fece)" style="fill: none; stroke: #dedede; stroke-linecap: square"/>
     </g>
     <g id="text_10">
      <!-- 1.0 -->
      <g transform="translate(20.878125 207.653742) scale(0.08 -0.08)">
       <use xlink:href="#DejaVuSans-31"/>
       <use xlink:href="#DejaVuSans-2e" x="63.623047"/>
       <use xlink:href="#DejaVuSans-30" x="95.410156"/>
      </g>
     </g>
    </g>
    <g id="ytick_4">
     <g id="line2d_4">
      <path d="M 40.600625 169.92652 
L 985.445625 169.92652 
" clip-path="url(#pfc0627fece)" style="fill: none; stroke: #dedede; stroke-linecap: square"/>
     </g>
     <g id="text_11">
      <!-- 1.5 -->
      <g transform="translate(20.878125 172.965895) scale(0.08 -0.08)">
       <use xlink:href="#DejaVuSans-31"/>
       <use xlink:href="#DejaVuSans-2e" x="63.623047"/>
       <use xlink:href="#DejaVuSans-35" x="95.410156"/>
      </g>
     </g>
    </g>
    <g id="ytick_5">
     <g id="line2d_5">
      <path d="M 40.600625 135.238673 
L 985.445625 135.238673 
" clip-path="url(#pfc0627fece)" style="fill: none; stroke: #dedede; stroke-linecap: square"/>
     </g>
     <g id="text_12">
      <!-- 2.0 -->
      <g transform="translate(20.878125 138.278048) scale(0.08 -0.08)">
       <use xlink:href="#DejaVuSans-32"/>
       <use xlink:href="#DejaVuSans-2e" x="63.623047"/>
       <use xlink:href="#DejaVuSans-30" x="95.410156"/>
      </g>
     </g>
    </g>
    <g id="ytick_6">
     <g id="line2d_6">
      <path d="M 40.600625 100.550826 
L 985.445625 100.550826 
" clip-path="url(#pfc0627fece)" style="fill: none; stroke: #dedede; stroke-linecap: square"/>
     </g>
     <g id="text_13">
      <!-- 2.5 -->
      <g transform="translate(20.878125 103.590201) scale(0.08 -0.08)">
       <use xlink:href="#DejaVuSans-32"/>
       <use xlink:href="#DejaVuSans-2e" x="63.623047"/>
       <use xlink:href="#DejaVuSans-35" x="95.410156"/>
      </g>
     </g>
    </g>
    <g id="ytick_7">
     <g id="line2d_7">
      <path d="M 40.600625 65.86298 
L 985.445625 65.86298 
" clip-path="url(#pfc0627fece)" style="fill: none; stroke: #dedede; stroke-linecap: square"/>
     </g>
     <g id="text_14">
      <!-- 3.0 -->
      <g transform="translate(20.878125 68.902355) scale(0.08 -0.08)">
       <defs>
        <path id="DejaVuSans-33" d="M 2597 2516 
Q 3050 2419 3304 2112 
Q 3559 1806 3559 1356 
Q 3559 666 3084 287 
Q 2609 -91 1734 -91 
Q 1441 -91 1130 -33 
Q 819 25 488 141 
L 488 750 
Q 750 597 1062 519 
Q 1375 441 1716 441 
Q 2309 441 2620 675 
Q 2931 909 2931 1356 
Q 2931 1769 2642 2001 
Q 2353 2234 1838 2234 
L 1294 2234 
L 1294 2753 
L 1863 2753 
Q 2328 2753 2575 2939 
Q 2822 3125 2822 3475 
Q 2822 3834 2567 4026 
Q 2313 4219 1838 4219 
Q 1578 4219 1281 4162 
Q 984 4106 628 3988 
L 628 4550 
Q 988 4650 1302 4700 
Q 1616 4750 1894 4750 
Q 2613 4750 3031 4423 
Q 3450 4097 3450 3541 
Q 3450 3153 3228 2886 
Q 3006 2619 2597 2516 
z
" transform="scale(0.015625)"/>
       </defs>
       <use xlink:href="#DejaVuSans-33"/>
       <use xlink:href="#DejaVuSans-2e" x="63.623047"/>
       <use xlink:href="#DejaVuSans-30" x="95.410156"/>
      </g>
     </g>
    </g>
    <g id="text_15">
     <!-- Percentage -->
     <g transform="translate(14.798438 180.859116) rotate(-90) scale(0.1 -0.1)">
      <defs>
       <path id="DejaVuSans-50" d="M 1259 4147 
L 1259 2394 
L 2053 2394 
Q 2494 2394 2734 2622 
Q 2975 2850 2975 3272 
Q 2975 3691 2734 3919 
Q 2494 4147 2053 4147 
L 1259 4147 
z
M 628 4666 
L 2053 4666 
Q 2838 4666 3239 4311 
Q 3641 3956 3641 3272 
Q 3641 2581 3239 2228 
Q 2838 1875 2053 1875 
L 1259 1875 
L 1259 0 
L 628 0 
L 628 4666 
z
" transform="scale(0.015625)"/>
       <path id="DejaVuSans-65" d="M 3597 1894 
L 3597 1613 
L 953 1613 
Q 991 1019 1311 708 
Q 1631 397 2203 397 
Q 2534 397 2845 478 
Q 3156 559 3463 722 
L 3463 178 
Q 3153 47 2828 -22 
Q 2503 -91 2169 -91 
Q 1331 -91 842 396 
Q 353 884 353 1716 
Q 353 2575 817 3079 
Q 1281 3584 2069 3584 
Q 2775 3584 3186 3129 
Q 3597 2675 3597 1894 
z
M 3022 2063 
Q 3016 2534 2758 2815 
Q 2500 3097 2075 3097 
Q 1594 3097 1305 2825 
Q 1016 2553 972 2059 
L 3022 2063 
z
" transform="scale(0.015625)"/>
       <path id="DejaVuSans-72" d="M 2631 2963 
Q 2534 3019 2420 3045 
Q 2306 3072 2169 3072 
Q 1681 3072 1420 2755 
Q 1159 2438 1159 1844 
L 1159 0 
L 581 0 
L 581 3500 
L 1159 3500 
L 1159 2956 
Q 1341 3275 1631 3429 
Q 1922 3584 2338 3584 
Q 2397 3584 2469 3576 
Q 2541 3569 2628 3553 
L 2631 2963 
z
" transform="scale(0.015625)"/>
       <path id="DejaVuSans-63" d="M 3122 3366 
L 3122 2828 
Q 2878 2963 2633 3030 
Q 2388 3097 2138 3097 
Q 1578 3097 1268 2742 
Q 959 2388 959 1747 
Q 959 1106 1268 751 
Q 1578 397 2138 397 
Q 2388 397 2633 464 
Q 2878 531 3122 666 
L 3122 134 
Q 2881 22 2623 -34 
Q 2366 -91 2075 -91 
Q 1284 -91 818 406 
Q 353 903 353 1747 
Q 353 2603 823 3093 
Q 1294 3584 2113 3584 
Q 2378 3584 2631 3529 
Q 2884 3475 3122 3366 
z
" transform="scale(0.015625)"/>
       <path id="DejaVuSans-6e" d="M 3513 2113 
L 3513 0 
L 2938 0 
L 2938 2094 
Q 2938 2591 2744 2837 
Q 2550 3084 2163 3084 
Q 1697 3084 1428 2787 
Q 1159 2491 1159 1978 
L 1159 0 
L 581 0 
L 581 3500 
L 1159 3500 
L 1159 2956 
Q 1366 3272 1645 3428 
Q 1925 3584 2291 3584 
Q 2894 3584 3203 3211 
Q 3513 2838 3513 2113 
z
" transform="scale(0.015625)"/>
       <path id="DejaVuSans-74" d="M 1172 4494 
L 1172 3500 
L 2356 3500 
L 2356 3053 
L 1172 3053 
L 1172 1153 
Q 1172 725 1289 603 
Q 1406 481 1766 481 
L 2356 481 
L 2356 0 
L 1766 0 
Q 1100 0 847 248 
Q 594 497 594 1153 
L 594 3053 
L 172 3053 
L 172 3500 
L 594 3500 
L 594 4494 
L 1172 4494 
z
" transform="scale(0.015625)"/>
       <path id="DejaVuSans-61" d="M 2194 1759 
Q 1497 1759 1228 1600 
Q 959 1441 959 1056 
Q 959 750 1161 570 
Q 1363 391 1709 391 
Q 2188 391 2477 730 
Q 2766 1069 2766 1631 
L 2766 1759 
L 2194 1759 
z
M 3341 1997 
L 3341 0 
L 2766 0 
L 2766 531 
Q 2569 213 2275 61 
Q 1981 -91 1556 -91 
Q 1019 -91 701 211 
Q 384 513 384 1019 
Q 384 1609 779 1909 
Q 1175 2209 1959 2209 
L 2766 2209 
L 2766 2266 
Q 2766 2663 2505 2880 
Q 2244 3097 1772 3097 
Q 1472 3097 1187 3025 
Q 903 2953 641 2809 
L 641 3341 
Q 956 3463 1253 3523 
Q 1550 3584 1831 3584 
Q 2591 3584 2966 3190 
Q 3341 2797 3341 1997 
z
" transform="scale(0.015625)"/>
       <path id="DejaVuSans-67" d="M 2906 1791 
Q 2906 2416 2648 2759 
Q 2391 3103 1925 3103 
Q 1463 3103 1205 2759 
Q 947 2416 947 1791 
Q 947 1169 1205 825 
Q 1463 481 1925 481 
Q 2391 481 2648 825 
Q 2906 1169 2906 1791 
z
M 3481 434 
Q 3481 -459 3084 -895 
Q 2688 -1331 1869 -1331 
Q 1566 -1331 1297 -1286 
Q 1028 -1241 775 -1147 
L 775 -588 
Q 1028 -725 1275 -790 
Q 1522 -856 1778 -856 
Q 2344 -856 2625 -561 
Q 2906 -266 2906 331 
L 2906 616 
Q 2728 306 2450 153 
Q 2172 0 1784 0 
Q 1141 0 747 490 
Q 353 981 353 1791 
Q 353 2603 747 3093 
Q 1141 3584 1784 3584 
Q 2172 3584 2450 3431 
Q 2728 3278 2906 2969 
L 2906 3500 
L 3481 3500 
L 3481 434 
z
" transform="scale(0.015625)"/>
      </defs>
      <use xlink:href="#DejaVuSans-50"/>
      <use xlink:href="#DejaVuSans-65" x="56.677734"/>
      <use xlink:href="#DejaVuSans-72" x="118.201172"/>
      <use xlink:href="#DejaVuSans-63" x="157.064453"/>
      <use xlink:href="#DejaVuSans-65" x="212.044922"/>
      <use xlink:href="#DejaVuSans-6e" x="273.568359"/>
      <use xlink:href="#DejaVuSans-74" x="336.947266"/>
      <use xlink:href="#DejaVuSans-61" x="376.15625"/>
      <use xlink:href="#DejaVuSans-67" x="437.435547"/>
      <use xlink:href="#DejaVuSans-65" x="500.912109"/>
     </g>
    </g>
   </g>
   <g id="line2d_8">
    <path d="M 40.600625 273.956484 
L 50.049075 273.94809 
L 59.497525 273.928504 
L 68.945975 273.907052 
L 78.394425 273.886067 
L 87.842875 273.864615 
L 97.291325 273.840133 
L 106.739775 273.809821 
L 116.188225 273.767151 
L 125.636675 273.717486 
L 135.085125 273.669687 
L 144.533575 273.624918 
L 153.982025 273.577818 
L 163.430475 273.504137 
L 172.878925 273.40131 
L 182.327375 273.275399 
L 191.775825 273.094227 
L 201.224275 272.767326 
L 210.672725 272.325705 
L 220.121175 271.651849 
L 229.569625 268.927277 
L 239.018075 266.652254 
L 248.466525 265.499937 
L 257.914975 262.66531 
L 267.363425 258.664375 
L 276.811875 253.724939 
L 286.260325 247.509838 
L 295.708775 239.682146 
L 305.157225 230.000299 
L 314.605675 217.464473 
L 324.054125 204.506846 
L 333.502575 193.026106 
L 342.951025 181.55959 
L 352.399475 170.011231 
L 361.847925 155.392746 
L 371.296375 143.731301 
L 380.744825 135.430044 
L 390.193275 126.156009 
L 399.641725 119.820593 
L 409.090175 111.433763 
L 418.538625 102.044077 
L 427.987075 95.529122 
L 437.435525 88.501663 
L 446.883975 83.13413 
L 456.332425 83.35937 
L 465.780875 83.988458 
L 475.229325 81.234741 
L 484.677775 79.932729 
L 494.126225 76.882888 
L 503.574675 78.5139 
L 513.023125 74.254848 
L 522.471575 67.784195 
L 531.920025 75.406933 
L 541.368475 75.940422 
L 550.816925 68.939078 
L 560.265375 59.236946 
L 569.713825 58.291915 
L 579.162275 74.141295 
L 588.610725 64.959828 
L 598.059175 55.252566 
L 607.507625 65.759595 
L 616.956075 92.436145 
L 626.404525 122.778799 
L 635.852975 141.908158 
L 645.301425 166.523733 
L 654.749875 184.269238 
L 664.198325 198.072567 
L 673.646775 208.477002 
L 683.095225 219.138855 
L 692.543675 230.028046 
L 701.992125 237.347665 
L 711.440575 241.721902 
L 720.889025 244.207942 
L 730.337475 245.045716 
L 739.785925 246.466643 
L 749.234375 247.903659 
L 758.682825 240.102548 
L 768.131275 235.538746 
L 777.579725 242.749241 
L 787.028175 251.108791 
L 796.476625 254.85254 
L 805.925075 253.168599 
L 815.373525 255.94983 
L 824.821975 259.609873 
L 834.270425 259.459013 
L 843.718875 257.811213 
L 853.167325 260.050328 
L 862.615775 267.064962 
L 872.064225 271.290438 
L 881.512675 272.963886 
L 890.961125 273.573388 
L 900.409575 273.764819 
L 909.858025 273.869978 
L 919.306475 273.930136 
L 928.754925 273.95252 
L 938.203375 273.964178 
L 947.651825 273.973505 
L 957.100275 273.973039 
L 966.548725 273.958349 
L 975.997175 273.96721 
L 985.445625 273.987961 
" clip-path="url(#pfc0627fece)" style="fill: none; stroke: #d9534f; stroke-linecap: square"/>
   </g>
   <g id="line2d_9">
    <path d="M 40.600625 273.905184 
L 50.049075 273.920953 
L 59.497525 273.938578 
L 68.945975 273.940433 
L 78.394425 273.929997 
L 87.842875 273.899386 
L 97.291325 273.88408 
L 106.739775 273.876891 
L 116.188225 273.84141 
L 125.636675 273.806393 
L 135.085125 273.770216 
L 144.533575 273.716183 
L 153.982025 273.642206 
L 163.430475 273.575882 
L 172.878925 273.50376 
L 182.327375 273.378068 
L 191.775825 273.176777 
L 201.224275 272.862085 
L 210.672725 272.402221 
L 220.121175 271.608186 
L 229.569625 270.346635 
L 239.018075 268.614089 
L 248.466525 266.186298 
L 257.914975 261.819104 
L 267.363425 256.67202 
L 276.811875 251.704198 
L 286.260325 245.178684 
L 295.708775 235.916022 
L 305.157225 224.47324 
L 314.605675 214.169102 
L 324.054125 204.710713 
L 333.502575 193.87343 
L 342.951025 182.153293 
L 352.399475 171.739464 
L 361.847925 163.207295 
L 371.296375 153.427257 
L 380.744825 143.547501 
L 390.193275 134.270228 
L 399.641725 125.110762 
L 409.090175 117.055849 
L 418.538625 108.733553 
L 427.987075 98.799995 
L 437.435525 90.87773 
L 446.883975 89.076309 
L 456.332425 89.504634 
L 465.780875 88.990273 
L 475.229325 88.101854 
L 484.677775 87.545055 
L 494.126225 88.781097 
L 503.574675 91.082037 
L 513.023125 91.036816 
L 522.471575 85.633944 
L 531.920025 78.82203 
L 541.368475 76.770849 
L 550.816925 79.206293 
L 560.265375 80.250319 
L 569.713825 75.889851 
L 579.162275 70.693604 
L 588.610725 65.44657 
L 598.059175 59.3139 
L 607.507625 54.805941 
L 616.956075 64.261547 
L 626.404525 98.164117 
L 635.852975 131.989 
L 645.301425 156.940817 
L 654.749875 179.347964 
L 664.198325 193.031391 
L 673.646775 203.851977 
L 683.095225 211.485986 
L 692.543675 219.853272 
L 701.992125 230.678264 
L 711.440575 236.924103 
L 720.889025 240.684176 
L 730.337475 241.275296 
L 739.785925 239.564317 
L 749.234375 239.310151 
L 758.682825 237.415969 
L 768.131275 234.698068 
L 777.579725 238.553684 
L 787.028175 248.337897 
L 796.476625 254.660727 
L 805.925075 255.630081 
L 815.373525 255.359682 
L 824.821975 253.138749 
L 834.270425 254.003978 
L 843.718875 257.013613 
L 853.167325 259.107696 
L 862.615775 264.420126 
L 872.064225 268.933419 
L 881.512675 270.57158 
L 890.961125 271.471595 
L 900.409575 272.206495 
L 909.858025 272.828691 
L 919.306475 273.267683 
L 928.754925 273.480569 
L 938.203375 273.635017 
L 947.651825 273.743547 
L 957.100275 273.731952 
L 966.548725 273.586317 
L 975.997175 272.871593 
L 985.445625 271.278884 
" clip-path="url(#pfc0627fece)" style="fill: none; stroke: #d9534f; stroke-linecap: square"/>
   </g>
   <g id="line2d_10">
    <path d="M 40.600625 273.968751 
L 50.049075 273.957816 
L 59.497525 273.929778 
L 68.945975 273.90903 
L 78.394425 273.892487 
L 87.842875 273.866132 
L 97.291325 273.836131 
L 106.739775 273.80585 
L 116.188225 273.756222 
L 125.636675 273.705473 
L 135.085125 273.664257 
L 144.533575 273.590797 
L 153.982025 273.519861 
L 163.430475 273.459018 
L 172.878925 273.362286 
L 182.327375 273.231348 
L 191.775825 273.037885 
L 201.224275 272.705914 
L 210.672725 272.273566 
L 220.121175 271.629811 
L 229.569625 269.223579 
L 239.018075 267.160534 
L 248.466525 266.041813 
L 257.914975 263.392772 
L 267.363425 259.517623 
L 276.811875 254.891053 
L 286.260325 249.079872 
L 295.708775 241.362379 
L 305.157225 232.075031 
L 314.605675 220.323694 
L 324.054125 207.61878 
L 333.502575 196.085299 
L 342.951025 184.805283 
L 352.399475 173.345822 
L 361.847925 159.064605 
L 371.296375 147.399064 
L 380.744825 139.210531 
L 390.193275 129.775984 
L 399.641725 122.844119 
L 409.090175 114.60764 
L 418.538625 104.880655 
L 427.987075 98.261416 
L 437.435525 91.444227 
L 446.883975 85.81277 
L 456.332425 85.644822 
L 465.780875 85.654355 
L 475.229325 82.551656 
L 484.677775 80.95853 
L 494.126225 78.013126 
L 503.574675 79.158483 
L 513.023125 74.188726 
L 522.471575 67.488737 
L 531.920025 74.237232 
L 541.368475 74.357516 
L 550.816925 67.278731 
L 560.265375 57.670908 
L 569.713825 57.159493 
L 579.162275 71.603331 
L 588.610725 61.013893 
L 598.059175 51.047743 
L 607.507625 63.052265 
L 616.956075 89.656516 
L 626.404525 118.731207 
L 635.852975 138.683695 
L 645.301425 163.313782 
L 654.749875 181.540804 
L 664.198325 195.7623 
L 673.646775 205.932568 
L 683.095225 217.004822 
L 692.543675 228.509424 
L 701.992125 236.018313 
L 711.440575 240.568339 
L 720.889025 243.022516 
L 730.337475 243.791041 
L 739.785925 245.234724 
L 749.234375 246.446531 
L 758.682825 238.745581 
L 768.131275 234.514909 
L 777.579725 242.023518 
L 787.028175 250.231958 
L 796.476625 253.449332 
L 805.925075 251.641154 
L 815.373525 254.505809 
L 824.821975 258.580869 
L 834.270425 258.829848 
L 843.718875 257.465233 
L 853.167325 259.535848 
L 862.615775 266.593604 
L 872.064225 271.141948 
L 881.512675 272.823674 
L 890.961125 273.485374 
L 900.409575 273.699585 
L 909.858025 273.837252 
L 919.306475 273.918563 
L 928.754925 273.951087 
L 938.203375 273.963143 
L 947.651825 273.970714 
L 957.100275 273.970714 
L 966.548725 273.961741 
L 975.997175 273.972116 
L 985.445625 273.99006 
" clip-path="url(#pfc0627fece)" style="fill: none; stroke: #d9534f; stroke-linecap: square"/>
   </g>
   <g id="line2d_11">
    <path d="M 40.600625 273.918008 
L 50.049075 273.927503 
L 59.497525 273.936999 
L 68.945975 273.939791 
L 78.394425 273.937557 
L 87.842875 273.912702 
L 97.291325 273.889523 
L 106.739775 273.881144 
L 116.188225 273.860758 
L 125.636675 273.830038 
L 135.085125 273.792616 
L 144.533575 273.739275 
L 153.982025 273.67225 
L 163.430475 273.597406 
L 172.878925 273.509156 
L 182.327375 273.375385 
L 191.775825 273.175148 
L 201.224275 272.927715 
L 210.672725 272.534502 
L 220.121175 271.811749 
L 229.569625 270.71673 
L 239.018075 269.118185 
L 248.466525 266.920325 
L 257.914975 262.955521 
L 267.363425 258.07443 
L 276.811875 253.393017 
L 286.260325 247.237893 
L 295.708775 238.401214 
L 305.157225 227.429511 
L 314.605675 217.248981 
L 324.054125 207.895092 
L 333.502575 197.759246 
L 342.951025 186.312224 
L 352.399475 175.809416 
L 361.847925 166.699889 
L 371.296375 156.910617 
L 380.744825 147.627943 
L 390.193275 138.337169 
L 399.641725 129.265064 
L 409.090175 121.2877 
L 418.538625 112.781398 
L 427.987075 102.574337 
L 437.435525 94.486103 
L 446.883975 92.240767 
L 456.332425 92.252497 
L 465.780875 91.394857 
L 475.229325 90.196507 
L 484.677775 89.453088 
L 494.126225 90.298999 
L 503.574675 91.777178 
L 513.023125 90.801128 
L 522.471575 85.63518 
L 531.920025 79.382871 
L 541.368475 76.536266 
L 550.816925 77.823703 
L 560.265375 78.98128 
L 569.713825 74.874885 
L 579.162275 69.150397 
L 588.610725 63.668036 
L 598.059175 57.228615 
L 607.507625 51.825846 
L 616.956075 60.371805 
L 626.404525 92.563046 
L 635.852975 126.080542 
L 645.301425 152.173909 
L 654.749875 174.769692 
L 664.198325 189.488927 
L 673.646775 200.834015 
L 683.095225 208.806352 
L 692.543675 217.69358 
L 701.992125 228.320663 
L 711.440575 234.986852 
L 720.889025 239.055265 
L 730.337475 239.784441 
L 739.785925 238.325811 
L 749.234375 237.923661 
L 758.682825 235.984406 
L 768.131275 233.291959 
L 777.579725 236.890919 
L 787.028175 246.081713 
L 796.476625 252.6644 
L 805.925075 254.107112 
L 815.373525 253.831472 
L 824.821975 252.328438 
L 834.270425 252.839223 
L 843.718875 255.563508 
L 853.167325 258.036728 
L 862.615775 262.959431 
L 872.064225 267.587782 
L 881.512675 269.576189 
L 890.961125 270.668416 
L 900.409575 271.581631 
L 909.858025 272.351021 
L 919.306475 272.921571 
L 928.754925 273.226534 
L 938.203375 273.476481 
L 947.651825 273.676998 
L 957.100275 273.687889 
L 966.548725 273.532336 
L 975.997175 272.745072 
L 985.445625 270.703604 
" clip-path="url(#pfc0627fece)" style="fill: none; stroke: #d9534f; stroke-linecap: square"/>
   </g>
   <g id="line2d_12">
    <path d="M 40.600625 273.96648 
L 50.049075 273.957109 
L 59.497525 273.941238 
L 68.945975 273.929902 
L 78.394425 273.913124 
L 87.842875 273.88501 
L 97.291325 273.857954 
L 106.739775 273.823944 
L 116.188225 273.783134 
L 125.636675 273.746101 
L 135.085125 273.703326 
L 144.533575 273.643167 
L 153.982025 273.581044 
L 163.430475 273.52149 
L 172.878925 273.436996 
L 182.327375 273.309273 
L 191.775825 273.118067 
L 201.224275 272.826193 
L 210.672725 272.44121 
L 220.121175 271.858672 
L 229.569625 269.675288 
L 239.018075 267.838494 
L 248.466525 266.830313 
L 257.914975 264.296409 
L 267.363425 260.882802 
L 276.811875 256.678522 
L 286.260325 251.018652 
L 295.708775 243.81885 
L 305.157225 235.287856 
L 314.605675 224.021171 
L 324.054125 211.057658 
L 333.502575 199.315601 
L 342.951025 187.782133 
L 352.399475 175.818941 
L 361.847925 161.211202 
L 371.296375 149.325702 
L 380.744825 140.275049 
L 390.193275 130.532273 
L 399.641725 124.301353 
L 409.090175 115.787288 
L 418.538625 105.817785 
L 427.987075 98.837456 
L 437.435525 90.541503 
L 446.883975 84.18165 
L 456.332425 84.850193 
L 465.780875 84.877098 
L 475.229325 81.126726 
L 484.677775 80.553408 
L 494.126225 77.221574 
L 503.574675 76.913225 
L 513.023125 71.66736 
L 522.471575 64.897735 
L 531.920025 73.434472 
L 541.368475 74.197939 
L 550.816925 65.286497 
L 560.265375 52.874234 
L 569.713825 47.010007 
L 579.162275 65.544664 
L 588.610725 64.656044 
L 598.059175 55.605089 
L 607.507625 59.597152 
L 616.956075 83.869371 
L 626.404525 117.890411 
L 635.852975 137.308246 
L 645.301425 162.14683 
L 654.749875 181.288813 
L 664.198325 195.668012 
L 673.646775 207.036573 
L 683.095225 217.97662 
L 692.543675 228.43918 
L 701.992125 235.408626 
L 711.440575 239.432281 
L 720.889025 241.848892 
L 730.337475 243.459563 
L 739.785925 246.144921 
L 749.234375 247.923824 
L 758.682825 240.956342 
L 768.131275 237.346087 
L 777.579725 245.994223 
L 787.028175 252.908802 
L 796.476625 254.160639 
L 805.925075 252.804659 
L 815.373525 254.361671 
L 824.821975 257.045215 
L 834.270425 257.688516 
L 843.718875 255.293218 
L 853.167325 256.023582 
L 862.615775 264.10762 
L 872.064225 270.110302 
L 881.512675 272.570445 
L 890.961125 273.392256 
L 900.409575 273.69471 
L 909.858025 273.811097 
L 919.306475 273.892114 
L 928.754925 273.939727 
L 938.203375 273.960283 
L 947.651825 273.968748 
L 957.100275 273.968294 
L 966.548725 273.948342 
L 975.997175 273.958469 
L 985.445625 273.988397 
" clip-path="url(#pfc0627fece)" style="fill: none; stroke: #d9534f; stroke-linecap: square"/>
   </g>
   <g id="line2d_13">
    <path d="M 40.600625 273.924197 
L 50.049075 273.931114 
L 59.497525 273.939986 
L 68.945975 273.941189 
L 78.394425 273.936226 
L 87.842875 273.922693 
L 97.291325 273.910212 
L 106.739775 273.898182 
L 116.188225 273.863746 
L 125.636675 273.826454 
L 135.085125 273.794424 
L 144.533575 273.753072 
L 153.982025 273.692171 
L 163.430475 273.622548 
L 172.878925 273.536835 
L 182.327375 273.400898 
L 191.775825 273.209473 
L 201.224275 272.946169 
L 210.672725 272.548131 
L 220.121175 271.890699 
L 229.569625 270.861395 
L 239.018075 269.40924 
L 248.466525 267.307173 
L 257.914975 263.620623 
L 267.363425 259.377241 
L 276.811875 254.959726 
L 286.260325 248.834273 
L 295.708775 240.538483 
L 305.157225 230.131302 
L 314.605675 219.829082 
L 324.054125 210.0258 
L 333.502575 199.039231 
L 342.951025 187.015688 
L 352.399475 175.733636 
L 361.847925 165.890054 
L 371.296375 155.84422 
L 380.744825 145.86034 
L 390.193275 136.209537 
L 399.641725 127.494506 
L 409.090175 119.869681 
L 418.538625 110.917512 
L 427.987075 99.855907 
L 437.435525 90.884038 
L 446.883975 88.654455 
L 456.332425 89.34572 
L 465.780875 89.638647 
L 475.229325 89.283766 
L 484.677775 88.288296 
L 494.126225 88.725882 
L 503.574675 90.452768 
L 513.023125 89.823757 
L 522.471575 85.166698 
L 531.920025 80.757003 
L 541.368475 78.514788 
L 550.816925 77.755403 
L 560.265375 77.863822 
L 569.713825 72.248284 
L 579.162275 65.826295 
L 588.610725 60.014069 
L 598.059175 52.3718 
L 607.507625 45.675981 
L 616.956075 55.506481 
L 626.404525 92.728516 
L 635.852975 127.819011 
L 645.301425 154.212069 
L 654.749875 178.028933 
L 664.198325 192.179204 
L 673.646775 203.13224 
L 683.095225 211.948773 
L 692.543675 220.655232 
L 701.992125 231.124517 
L 711.440575 237.683045 
L 720.889025 241.82282 
L 730.337475 242.924004 
L 739.785925 240.520739 
L 749.234375 239.80827 
L 758.682825 239.409481 
L 768.131275 238.241231 
L 777.579725 241.547938 
L 787.028175 249.414563 
L 796.476625 255.045138 
L 805.925075 255.696104 
L 815.373525 254.954163 
L 824.821975 252.951492 
L 834.270425 253.167127 
L 843.718875 254.210717 
L 853.167325 254.810556 
L 862.615775 259.656634 
L 872.064225 264.073547 
L 881.512675 266.843723 
L 890.961125 269.274656 
L 900.409575 270.560799 
L 909.858025 271.41567 
L 919.306475 272.117913 
L 928.754925 272.518808 
L 938.203375 272.931583 
L 947.651825 273.449017 
L 957.100275 273.617134 
L 966.548725 273.543151 
L 975.997175 272.948425 
L 985.445625 271.528751 
" clip-path="url(#pfc0627fece)" style="fill: none; stroke: #d9534f; stroke-linecap: square"/>
   </g>
   <g id="line2d_14">
    <path d="M 40.600625 273.973899 
L 50.049075 273.965451 
L 59.497525 273.948739 
L 68.945975 273.928354 
L 78.394425 273.911092 
L 87.842875 273.891625 
L 97.291325 273.86169 
L 106.739775 273.831021 
L 116.188225 273.776294 
L 125.636675 273.713487 
L 135.085125 273.666657 
L 144.533575 273.607889 
L 153.982025 273.542327 
L 163.430475 273.473827 
L 172.878925 273.397613 
L 182.327375 273.297342 
L 191.775825 273.122142 
L 201.224275 272.842263 
L 210.672725 272.483048 
L 220.121175 271.941105 
L 229.569625 270.02511 
L 239.018075 268.227201 
L 248.466525 267.170309 
L 257.914975 264.882428 
L 267.363425 261.651333 
L 276.811875 257.665815 
L 286.260325 252.317631 
L 295.708775 245.408811 
L 305.157225 237.08462 
L 314.605675 226.329486 
L 324.054125 213.92887 
L 333.502575 202.101602 
L 342.951025 190.473224 
L 352.399475 178.587372 
L 361.847925 164.620978 
L 371.296375 152.96744 
L 380.744825 143.683506 
L 390.193275 133.977 
L 399.641725 127.424456 
L 409.090175 118.980159 
L 418.538625 109.003874 
L 427.987075 101.945749 
L 437.435525 93.74809 
L 446.883975 86.910342 
L 456.332425 86.669764 
L 465.780875 86.695107 
L 475.229325 83.189827 
L 484.677775 81.876012 
L 494.126225 78.365773 
L 503.574675 77.89839 
L 513.023125 72.144162 
L 522.471575 64.686236 
L 531.920025 72.348562 
L 541.368475 72.83633 
L 550.816925 63.725025 
L 560.265375 51.640283 
L 569.713825 46.3314 
L 579.162275 62.923954 
L 588.610725 60.62432 
L 598.059175 51.658831 
L 607.507625 57.501394 
L 616.956075 80.861727 
L 626.404525 113.362748 
L 635.852975 134.142466 
L 645.301425 158.57071 
L 654.749875 178.142394 
L 664.198325 193.114994 
L 673.646775 204.519138 
L 683.095225 215.68454 
L 692.543675 226.926708 
L 701.992125 234.133588 
L 711.440575 238.325342 
L 720.889025 240.863719 
L 730.337475 242.380096 
L 739.785925 245.121954 
L 749.234375 246.620885 
L 758.682825 239.71684 
L 768.131275 236.265919 
L 777.579725 244.530976 
L 787.028175 251.579919 
L 796.476625 253.025225 
L 805.925075 251.567615 
L 815.373525 253.196752 
L 824.821975 256.16266 
L 834.270425 257.103853 
L 843.718875 255.070141 
L 853.167325 255.698582 
L 862.615775 263.636747 
L 872.064225 269.895822 
L 881.512675 272.396183 
L 890.961125 273.337193 
L 900.409575 273.668677 
L 909.858025 273.792455 
L 919.306475 273.879137 
L 928.754925 273.930742 
L 938.203375 273.956085 
L 947.651825 273.97041 
L 957.100275 273.969308 
L 966.548725 273.948556 
L 975.997175 273.960493 
L 985.445625 273.988774 
" clip-path="url(#pfc0627fece)" style="fill: none; stroke: #d9534f; stroke-linecap: square"/>
   </g>
   <g id="line2d_15">
    <path d="M 40.600625 273.938464 
L 50.049075 273.935536 
L 59.497525 273.936451 
L 68.945975 273.941391 
L 78.394425 273.939745 
L 87.842875 273.922363 
L 97.291325 273.906079 
L 106.739775 273.896199 
L 116.188225 273.872596 
L 125.636675 273.843688 
L 135.085125 273.804351 
L 144.533575 273.752023 
L 153.982025 273.687253 
L 163.430475 273.622483 
L 172.878925 273.541064 
L 182.327375 273.418294 
L 191.775825 273.249418 
L 201.224275 273.015589 
L 210.672725 272.669968 
L 220.121175 272.095641 
L 229.569625 271.174046 
L 239.018075 269.795588 
L 248.466525 267.903547 
L 257.914975 264.75966 
L 267.363425 260.749068 
L 276.811875 256.594666 
L 286.260325 251.024115 
L 295.708775 243.035864 
L 305.157225 233.084034 
L 314.605675 223.192399 
L 324.054125 213.61034 
L 333.502575 202.884385 
L 342.951025 190.999347 
L 352.399475 179.807746 
L 361.847925 169.862868 
L 371.296375 159.819006 
L 380.744825 150.096248 
L 390.193275 140.791748 
L 399.641725 132.101461 
L 409.090175 124.183103 
L 418.538625 115.473056 
L 427.987075 104.825044 
L 437.435525 95.624101 
L 446.883975 92.024998 
L 456.332425 91.692001 
L 465.780875 91.819528 
L 475.229325 91.502084 
L 484.677775 90.511328 
L 494.126225 90.454609 
L 503.574675 91.29021 
L 513.023125 90.261764 
L 522.471575 86.169753 
L 531.920025 81.165478 
L 541.368475 78.099168 
L 550.816925 77.247466 
L 560.265375 76.809631 
L 569.713825 71.397344 
L 579.162275 64.915261 
L 588.610725 59.00037 
L 598.059175 51.024012 
L 607.507625 43.030822 
L 616.956075 50.474386 
L 626.404525 84.516298 
L 635.852975 120.175987 
L 645.301425 147.875968 
L 654.749875 171.955256 
L 664.198325 187.848324 
L 673.646775 199.71653 
L 683.095225 208.949308 
L 692.543675 217.87873 
L 701.992125 228.224484 
L 711.440575 235.492036 
L 720.889025 240.101106 
L 730.337475 241.354599 
L 739.785925 239.20165 
L 749.234375 238.140636 
L 758.682825 237.607659 
L 768.131275 236.543535 
L 777.579725 239.301915 
L 787.028175 246.66534 
L 796.476625 252.901152 
L 805.925075 254.406588 
L 815.373525 253.820002 
L 824.821975 252.219425 
L 834.270425 252.168743 
L 843.718875 253.360394 
L 853.167325 254.366884 
L 862.615775 258.608195 
L 872.064225 263.339852 
L 881.512675 266.308093 
L 890.961125 268.726524 
L 900.409575 270.315392 
L 909.858025 271.186305 
L 919.306475 271.704645 
L 928.754925 272.001414 
L 938.203375 272.487369 
L 947.651825 273.170377 
L 957.100275 273.437506 
L 966.548725 273.381519 
L 975.997175 272.74352 
L 985.445625 270.953207 
" clip-path="url(#pfc0627fece)" style="fill: none; stroke: #d9534f; stroke-linecap: square"/>
   </g>
   <g id="line2d_16">
    <path d="M 40.600625 273.664833 
L 50.049075 273.719666 
L 59.497525 273.784523 
L 68.945975 273.801622 
L 78.394425 273.813649 
L 87.842875 273.820371 
L 97.291325 273.810348 
L 106.739775 273.798084 
L 116.188225 273.79207 
L 125.636675 273.778745 
L 135.085125 273.749618 
L 144.533575 273.705987 
L 153.982025 273.659644 
L 163.430475 273.606815 
L 172.878925 273.532643 
L 182.327375 273.373567 
L 191.775825 273.169327 
L 201.224275 272.950229 
L 210.672725 272.604011 
L 220.121175 271.525855 
L 229.569625 269.577793 
L 239.018075 268.349287 
L 248.466525 267.220425 
L 257.914975 264.797375 
L 267.363425 261.482484 
L 276.811875 257.301579 
L 286.260325 251.784977 
L 295.708775 245.005201 
L 305.157225 237.010125 
L 314.605675 227.448582 
L 324.054125 218.011681 
L 333.502575 207.438017 
L 342.951025 193.245462 
L 352.399475 182.919551 
L 361.847925 174.820823 
L 371.296375 165.712569 
L 380.744825 157.214795 
L 390.193275 149.147788 
L 399.641725 142.005403 
L 409.090175 132.158843 
L 418.538625 122.2841 
L 427.987075 114.953276 
L 437.435525 106.284752 
L 446.883975 100.785838 
L 456.332425 101.199271 
L 465.780875 99.705795 
L 475.229325 93.582252 
L 484.677775 88.861738 
L 494.126225 86.251428 
L 503.574675 86.845281 
L 513.023125 84.76892 
L 522.471575 67.249682 
L 531.920025 67.079993 
L 541.368475 66.723163 
L 550.816925 46.571564 
L 560.265375 49.553562 
L 569.713825 64.120636 
L 579.162275 69.092676 
L 588.610725 61.307973 
L 598.059175 49.598608 
L 607.507625 49.760632 
L 616.956075 75.549938 
L 626.404525 108.048503 
L 635.852975 126.655448 
L 645.301425 149.128803 
L 654.749875 172.192236 
L 664.198325 187.757043 
L 673.646775 199.045901 
L 683.095225 210.195139 
L 692.543675 219.408461 
L 701.992125 224.326021 
L 711.440575 227.263563 
L 720.889025 229.582135 
L 730.337475 234.320219 
L 739.785925 239.754748 
L 749.234375 237.742064 
L 758.682825 230.692365 
L 768.131275 229.734018 
L 777.579725 237.674259 
L 787.028175 244.136119 
L 796.476625 242.58215 
L 805.925075 240.212519 
L 815.373525 245.272175 
L 824.821975 249.088585 
L 834.270425 250.703637 
L 843.718875 251.479561 
L 853.167325 251.120254 
L 862.615775 256.664567 
L 872.064225 264.606696 
L 881.512675 270.633544 
L 890.961125 272.674174 
L 900.409575 273.390429 
L 909.858025 273.668606 
L 919.306475 273.802211 
L 928.754925 273.883341 
L 938.203375 273.9265 
L 947.651825 273.949967 
L 957.100275 273.944306 
L 966.548725 273.854686 
L 975.997175 273.880629 
L 985.445625 273.985697 
" clip-path="url(#pfc0627fece)" style="fill: none; stroke: #f0ad4e; stroke-linecap: square"/>
   </g>
   <g id="line2d_17">
    <path d="M 40.600625 273.90996 
L 50.049075 273.924789 
L 59.497525 273.944289 
L 68.945975 273.951761 
L 78.394425 273.949076 
L 87.842875 273.938684 
L 97.291325 273.933897 
L 106.739775 273.923038 
L 116.188225 273.896182 
L 125.636675 273.870027 
L 135.085125 273.843288 
L 144.533575 273.80966 
L 153.982025 273.764823 
L 163.430475 273.703522 
L 172.878925 273.626341 
L 182.327375 273.527092 
L 191.775825 273.386625 
L 201.224275 273.170845 
L 210.672725 272.842039 
L 220.121175 272.352215 
L 229.569625 271.589864 
L 239.018075 270.459007 
L 248.466525 268.803531 
L 257.914975 266.049074 
L 267.363425 262.594268 
L 276.811875 258.880129 
L 286.260325 253.645026 
L 295.708775 246.635231 
L 305.157225 238.550859 
L 314.605675 230.659731 
L 324.054125 222.650438 
L 333.502575 213.098228 
L 342.951025 203.181366 
L 352.399475 194.171758 
L 361.847925 185.683266 
L 371.296375 176.583983 
L 380.744825 167.193025 
L 390.193275 157.905986 
L 399.641725 149.404884 
L 409.090175 141.343748 
L 418.538625 132.212122 
L 427.987075 121.102634 
L 437.435525 111.574478 
L 446.883975 104.989936 
L 456.332425 102.477998 
L 465.780875 103.385486 
L 475.229325 102.332393 
L 484.677775 98.258156 
L 494.126225 95.098995 
L 503.574675 94.604968 
L 513.023125 92.794779 
L 522.471575 88.678623 
L 531.920025 83.044422 
L 541.368475 78.004548 
L 550.816925 76.935109 
L 560.265375 74.157649 
L 569.713825 65.296331 
L 579.162275 57.386521 
L 588.610725 45.88389 
L 598.059175 45.39103 
L 607.507625 51.506882 
L 616.956075 47.481685 
L 626.404525 63.925058 
L 635.852975 100.883939 
L 645.301425 136.306209 
L 654.749875 162.900205 
L 664.198325 176.828954 
L 673.646775 188.569316 
L 683.095225 202.117648 
L 692.543675 212.072459 
L 701.992125 221.176412 
L 711.440575 228.660969 
L 720.889025 233.600776 
L 730.337475 236.267077 
L 739.785925 234.823526 
L 749.234375 231.702665 
L 758.682825 229.055981 
L 768.131275 226.874133 
L 777.579725 230.075211 
L 787.028175 239.251325 
L 796.476625 246.097651 
L 805.925075 247.565605 
L 815.373525 246.798 
L 824.821975 243.239391 
L 834.270425 243.093786 
L 843.718875 244.411115 
L 853.167325 244.195219 
L 862.615775 249.380113 
L 872.064225 255.768842 
L 881.512675 261.712585 
L 890.961125 266.550691 
L 900.409575 269.088551 
L 909.858025 270.261326 
L 919.306475 270.897572 
L 928.754925 271.325978 
L 938.203375 271.930814 
L 947.651825 272.593215 
L 957.100275 272.674833 
L 966.548725 272.546043 
L 975.997175 270.292852 
L 985.445625 264.960485 
" clip-path="url(#pfc0627fece)" style="fill: none; stroke: #d9534f; stroke-linecap: square"/>
   </g>
   <g id="line2d_18">
    <path d="M 40.600625 273.670044 
L 50.049075 273.719433 
L 59.497525 273.784129 
L 68.945975 273.807813 
L 78.394425 273.816477 
L 87.842875 273.810557 
L 97.291325 273.79987 
L 106.739775 273.784129 
L 116.188225 273.765067 
L 125.636675 273.750481 
L 135.085125 273.731564 
L 144.533575 273.69676 
L 153.982025 273.645639 
L 163.430475 273.567657 
L 172.878925 273.482743 
L 182.327375 273.35465 
L 191.775825 273.162727 
L 201.224275 272.946398 
L 210.672725 272.596634 
L 220.121175 271.570157 
L 229.569625 269.833032 
L 239.018075 268.622286 
L 248.466525 267.456597 
L 257.914975 265.176773 
L 267.363425 262.135613 
L 276.811875 258.192458 
L 286.260325 252.819052 
L 295.708775 246.304941 
L 305.157225 238.644202 
L 314.605675 229.522019 
L 324.054125 220.212824 
L 333.502575 210.169296 
L 342.951025 196.863369 
L 352.399475 186.367401 
L 361.847925 178.207865 
L 371.296375 169.16583 
L 380.744825 160.693066 
L 390.193275 152.56299 
L 399.641725 145.161903 
L 409.090175 135.46323 
L 418.538625 125.501006 
L 427.987075 118.237976 
L 437.435525 109.543252 
L 446.883975 103.454287 
L 456.332425 103.205178 
L 465.780875 101.204068 
L 475.229325 95.21547 
L 484.677775 90.385917 
L 494.126225 87.575959 
L 503.574675 87.605564 
L 513.023125 84.48671 
L 522.471575 66.82981 
L 531.920025 66.017496 
L 541.368475 65.53675 
L 550.816925 46.193414 
L 560.265375 48.400454 
L 569.713825 62.005746 
L 579.162275 66.498241 
L 588.610725 58.442104 
L 598.059175 47.152306 
L 607.507625 47.850102 
L 616.956075 72.318889 
L 626.404525 104.19454 
L 635.852975 123.969811 
L 645.301425 146.120073 
L 654.749875 169.27255 
L 664.198325 185.214853 
L 673.646775 196.665526 
L 683.095225 208.111288 
L 692.543675 217.665261 
L 701.992125 222.89079 
L 711.440575 226.124595 
L 720.889025 228.782488 
L 730.337475 233.310798 
L 739.785925 238.437549 
L 749.234375 236.13462 
L 758.682825 229.031598 
L 768.131275 228.333369 
L 777.579725 236.163502 
L 787.028175 242.546921 
L 796.476625 241.327078 
L 805.925075 238.896777 
L 815.373525 243.74828 
L 824.821975 248.075425 
L 834.270425 249.855152 
L 843.718875 250.9573 
L 853.167325 250.956289 
L 862.615775 256.491436 
L 872.064225 264.515947 
L 881.512675 270.413277 
L 890.961125 272.545223 
L 900.409575 273.297751 
L 909.858025 273.610113 
L 919.306475 273.768388 
L 928.754925 273.859945 
L 938.203375 273.912078 
L 947.651825 273.93605 
L 957.100275 273.921609 
L 966.548725 273.823698 
L 975.997175 273.862256 
L 985.445625 273.984139 
" clip-path="url(#pfc0627fece)" style="fill: none; stroke: #f0ad4e; stroke-linecap: square"/>
   </g>
   <g id="line2d_19">
    <path d="M 40.600625 273.927358 
L 50.049075 273.934086 
L 59.497525 273.945968 
L 68.945975 273.954128 
L 78.394425 273.951551 
L 87.842875 273.940242 
L 97.291325 273.929791 
L 106.739775 273.921202 
L 116.188225 273.903164 
L 125.636675 273.878684 
L 135.085125 273.848049 
L 144.533575 273.811258 
L 153.982025 273.775612 
L 163.430475 273.723217 
L 172.878925 273.642763 
L 182.327375 273.532389 
L 191.775825 273.392239 
L 201.224275 273.194827 
L 210.672725 272.918822 
L 220.121175 272.480907 
L 229.569625 271.764409 
L 239.018075 270.704051 
L 248.466525 269.194468 
L 257.914975 266.705123 
L 267.363425 263.501859 
L 276.811875 260.083143 
L 286.260325 255.255628 
L 295.708775 248.59657 
L 305.157225 240.888034 
L 314.605675 233.127246 
L 324.054125 225.416706 
L 333.502575 216.415325 
L 342.951025 206.743115 
L 352.399475 197.8073 
L 361.847925 189.589128 
L 371.296375 180.906699 
L 380.744825 171.505627 
L 390.193275 162.143922 
L 399.641725 153.57473 
L 409.090175 145.412246 
L 418.538625 136.728529 
L 427.987075 125.992667 
L 437.435525 115.904588 
L 446.883975 108.758513 
L 456.332425 105.52676 
L 465.780875 105.976843 
L 475.229325 104.743122 
L 484.677775 100.490522 
L 494.126225 96.910613 
L 503.574675 95.711536 
L 513.023125 93.733832 
L 522.471575 90.072467 
L 531.920025 84.398468 
L 541.368475 79.071623 
L 550.816925 77.173084 
L 560.265375 74.081338 
L 569.713825 65.573704 
L 579.162275 56.611691 
L 588.610725 45.678417 
L 598.059175 43.579603 
L 607.507625 47.760625 
L 616.956075 45.646636 
L 626.404525 59.675093 
L 635.852975 93.535131 
L 645.301425 129.473083 
L 654.749875 157.209039 
L 664.198325 173.058013 
L 673.646775 185.16431 
L 683.095225 198.568891 
L 692.543675 209.24248 
L 701.992125 218.641119 
L 711.440575 226.418227 
L 720.889025 231.695826 
L 730.337475 234.352664 
L 739.785925 233.149578 
L 749.234375 230.352734 
L 758.682825 227.650516 
L 768.131275 225.289154 
L 777.579725 227.8339 
L 787.028175 236.341391 
L 796.476625 243.429058 
L 805.925075 245.497809 
L 815.373525 245.208491 
L 824.821975 242.501978 
L 834.270425 241.933075 
L 843.718875 243.23322 
L 853.167325 243.617881 
L 862.615775 248.306392 
L 872.064225 254.856078 
L 881.512675 260.596931 
L 890.961125 265.280003 
L 900.409575 268.176627 
L 909.858025 269.658294 
L 919.306475 270.531691 
L 928.754925 271.06552 
L 938.203375 271.571005 
L 947.651825 272.073627 
L 957.100275 272.101686 
L 966.548725 271.982866 
L 975.997175 269.781695 
L 985.445625 263.304875 
" clip-path="url(#pfc0627fece)" style="fill: none; stroke: #d9534f; stroke-linecap: square"/>
   </g>
   <g id="line2d_20">
    <path d="M 40.600625 273.99006 
L 985.445625 273.99006 
" clip-path="url(#pfc0627fece)" style="fill: none; stroke: #dedede; stroke-width: 2; stroke-linecap: square"/>
   </g>
   <g id="text_16">
    <!-- FastQC: Per Sequence GC Content -->
    <g transform="translate(376.386875 19.3575) scale(0.16 -0.16)">
     <defs>
      <path id="DejaVuSans-46" d="M 628 4666 
L 3309 4666 
L 3309 4134 
L 1259 4134 
L 1259 2759 
L 3109 2759 
L 3109 2228 
L 1259 2228 
L 1259 0 
L 628 0 
L 628 4666 
z
" transform="scale(0.015625)"/>
      <path id="DejaVuSans-73" d="M 2834 3397 
L 2834 2853 
Q 2591 2978 2328 3040 
Q 2066 3103 1784 3103 
Q 1356 3103 1142 2972 
Q 928 2841 928 2578 
Q 928 2378 1081 2264 
Q 1234 2150 1697 2047 
L 1894 2003 
Q 2506 1872 2764 1633 
Q 3022 1394 3022 966 
Q 3022 478 2636 193 
Q 2250 -91 1575 -91 
Q 1294 -91 989 -36 
Q 684 19 347 128 
L 347 722 
Q 666 556 975 473 
Q 1284 391 1588 391 
Q 1994 391 2212 530 
Q 2431 669 2431 922 
Q 2431 1156 2273 1281 
Q 2116 1406 1581 1522 
L 1381 1569 
Q 847 1681 609 1914 
Q 372 2147 372 2553 
Q 372 3047 722 3315 
Q 1072 3584 1716 3584 
Q 2034 3584 2315 3537 
Q 2597 3491 2834 3397 
z
" transform="scale(0.015625)"/>
      <path id="DejaVuSans-51" d="M 2522 4238 
Q 1834 4238 1429 3725 
Q 1025 3213 1025 2328 
Q 1025 1447 1429 934 
Q 1834 422 2522 422 
Q 3209 422 3611 934 
Q 4013 1447 4013 2328 
Q 4013 3213 3611 3725 
Q 3209 4238 2522 4238 
z
M 3406 84 
L 4238 -825 
L 3475 -825 
L 2784 -78 
Q 2681 -84 2626 -87 
Q 2572 -91 2522 -91 
Q 1538 -91 948 567 
Q 359 1225 359 2328 
Q 359 3434 948 4092 
Q 1538 4750 2522 4750 
Q 3503 4750 4090 4092 
Q 4678 3434 4678 2328 
Q 4678 1516 4351 937 
Q 4025 359 3406 84 
z
" transform="scale(0.015625)"/>
      <path id="DejaVuSans-3a" d="M 750 794 
L 1409 794 
L 1409 0 
L 750 0 
L 750 794 
z
M 750 3309 
L 1409 3309 
L 1409 2516 
L 750 2516 
L 750 3309 
z
" transform="scale(0.015625)"/>
      <path id="DejaVuSans-53" d="M 3425 4513 
L 3425 3897 
Q 3066 4069 2747 4153 
Q 2428 4238 2131 4238 
Q 1616 4238 1336 4038 
Q 1056 3838 1056 3469 
Q 1056 3159 1242 3001 
Q 1428 2844 1947 2747 
L 2328 2669 
Q 3034 2534 3370 2195 
Q 3706 1856 3706 1288 
Q 3706 609 3251 259 
Q 2797 -91 1919 -91 
Q 1588 -91 1214 -16 
Q 841 59 441 206 
L 441 856 
Q 825 641 1194 531 
Q 1563 422 1919 422 
Q 2459 422 2753 634 
Q 3047 847 3047 1241 
Q 3047 1584 2836 1778 
Q 2625 1972 2144 2069 
L 1759 2144 
Q 1053 2284 737 2584 
Q 422 2884 422 3419 
Q 422 4038 858 4394 
Q 1294 4750 2059 4750 
Q 2388 4750 2728 4690 
Q 3069 4631 3425 4513 
z
" transform="scale(0.015625)"/>
      <path id="DejaVuSans-71" d="M 947 1747 
Q 947 1113 1208 752 
Q 1469 391 1925 391 
Q 2381 391 2643 752 
Q 2906 1113 2906 1747 
Q 2906 2381 2643 2742 
Q 2381 3103 1925 3103 
Q 1469 3103 1208 2742 
Q 947 2381 947 1747 
z
M 2906 525 
Q 2725 213 2448 61 
Q 2172 -91 1784 -91 
Q 1150 -91 751 415 
Q 353 922 353 1747 
Q 353 2572 751 3078 
Q 1150 3584 1784 3584 
Q 2172 3584 2448 3432 
Q 2725 3281 2906 2969 
L 2906 3500 
L 3481 3500 
L 3481 -1331 
L 2906 -1331 
L 2906 525 
z
" transform="scale(0.015625)"/>
      <path id="DejaVuSans-75" d="M 544 1381 
L 544 3500 
L 1119 3500 
L 1119 1403 
Q 1119 906 1312 657 
Q 1506 409 1894 409 
Q 2359 409 2629 706 
Q 2900 1003 2900 1516 
L 2900 3500 
L 3475 3500 
L 3475 0 
L 2900 0 
L 2900 538 
Q 2691 219 2414 64 
Q 2138 -91 1772 -91 
Q 1169 -91 856 284 
Q 544 659 544 1381 
z
M 1991 3584 
L 1991 3584 
z
" transform="scale(0.015625)"/>
      <path id="DejaVuSans-6f" d="M 1959 3097 
Q 1497 3097 1228 2736 
Q 959 2375 959 1747 
Q 959 1119 1226 758 
Q 1494 397 1959 397 
Q 2419 397 2687 759 
Q 2956 1122 2956 1747 
Q 2956 2369 2687 2733 
Q 2419 3097 1959 3097 
z
M 1959 3584 
Q 2709 3584 3137 3096 
Q 3566 2609 3566 1747 
Q 3566 888 3137 398 
Q 2709 -91 1959 -91 
Q 1206 -91 779 398 
Q 353 888 353 1747 
Q 353 2609 779 3096 
Q 1206 3584 1959 3584 
z
" transform="scale(0.015625)"/>
     </defs>
     <use xlink:href="#DejaVuSans-46"/>
     <use xlink:href="#DejaVuSans-61" x="48.394531"/>
     <use xlink:href="#DejaVuSans-73" x="109.673828"/>
     <use xlink:href="#DejaVuSans-74" x="161.773438"/>
     <use xlink:href="#DejaVuSans-51" x="200.982422"/>
     <use xlink:href="#DejaVuSans-43" x="279.693359"/>
     <use xlink:href="#DejaVuSans-3a" x="349.517578"/>
     <use xlink:href="#DejaVuSans-20" x="383.208984"/>
     <use xlink:href="#DejaVuSans-50" x="414.996094"/>
     <use xlink:href="#DejaVuSans-65" x="471.673828"/>
     <use xlink:href="#DejaVuSans-72" x="533.197266"/>
     <use xlink:href="#DejaVuSans-20" x="574.310547"/>
     <use xlink:href="#DejaVuSans-53" x="606.097656"/>
     <use xlink:href="#DejaVuSans-65" x="669.574219"/>
     <use xlink:href="#DejaVuSans-71" x="731.097656"/>
     <use xlink:href="#DejaVuSans-75" x="794.574219"/>
     <use xlink:href="#DejaVuSans-65" x="857.953125"/>
     <use xlink:href="#DejaVuSans-6e" x="919.476562"/>
     <use xlink:href="#DejaVuSans-63" x="982.855469"/>
     <use xlink:href="#DejaVuSans-65" x="1037.835938"/>
     <use xlink:href="#DejaVuSans-20" x="1099.359375"/>
     <use xlink:href="#DejaVuSans-47" x="1131.146484"/>
     <use xlink:href="#DejaVuSans-43" x="1208.636719"/>
     <use xlink:href="#DejaVuSans-20" x="1278.460938"/>
     <use xlink:href="#DejaVuSans-43" x="1310.248047"/>
     <use xlink:href="#DejaVuSans-6f" x="1380.072266"/>
     <use xlink:href="#DejaVuSans-6e" x="1441.253906"/>
     <use xlink:href="#DejaVuSans-74" x="1504.632812"/>
     <use xlink:href="#DejaVuSans-65" x="1543.841797"/>
     <use xlink:href="#DejaVuSans-6e" x="1605.365234"/>
     <use xlink:href="#DejaVuSans-74" x="1668.744141"/>
    </g>
   </g>
   <g id="legend_1">
    <g id="line2d_21">
     <path d="M 47.800625 291.525394 
L 55.800625 291.525394 
L 63.800625 291.525394 
" style="fill: none; stroke: #d9534f; stroke-linecap: square"/>
    </g>
    <g id="text_17">
     <!-- TK9_1_22FFLLLT3_AGAGAACCTA-GGTTATGCTA_L005_T1_1 -->
     <g transform="translate(70.200625 294.325394) scale(0.08 -0.08)">
      <defs>
       <path id="DejaVuSans-54" d="M -19 4666 
L 3928 4666 
L 3928 4134 
L 2272 4134 
L 2272 0 
L 1638 0 
L 1638 4134 
L -19 4134 
L -19 4666 
z
" transform="scale(0.015625)"/>
       <path id="DejaVuSans-4b" d="M 628 4666 
L 1259 4666 
L 1259 2694 
L 3353 4666 
L 4166 4666 
L 1850 2491 
L 4331 0 
L 3500 0 
L 1259 2247 
L 1259 0 
L 628 0 
L 628 4666 
z
" transform="scale(0.015625)"/>
       <path id="DejaVuSans-39" d="M 703 97 
L 703 672 
Q 941 559 1184 500 
Q 1428 441 1663 441 
Q 2288 441 2617 861 
Q 2947 1281 2994 2138 
Q 2813 1869 2534 1725 
Q 2256 1581 1919 1581 
Q 1219 1581 811 2004 
Q 403 2428 403 3163 
Q 403 3881 828 4315 
Q 1253 4750 1959 4750 
Q 2769 4750 3195 4129 
Q 3622 3509 3622 2328 
Q 3622 1225 3098 567 
Q 2575 -91 1691 -91 
Q 1453 -91 1209 -44 
Q 966 3 703 97 
z
M 1959 2075 
Q 2384 2075 2632 2365 
Q 2881 2656 2881 3163 
Q 2881 3666 2632 3958 
Q 2384 4250 1959 4250 
Q 1534 4250 1286 3958 
Q 1038 3666 1038 3163 
Q 1038 2656 1286 2365 
Q 1534 2075 1959 2075 
z
" transform="scale(0.015625)"/>
       <path id="DejaVuSans-5f" d="M 3263 -1063 
L 3263 -1509 
L -63 -1509 
L -63 -1063 
L 3263 -1063 
z
" transform="scale(0.015625)"/>
       <path id="DejaVuSans-4c" d="M 628 4666 
L 1259 4666 
L 1259 531 
L 3531 531 
L 3531 0 
L 628 0 
L 628 4666 
z
" transform="scale(0.015625)"/>
       <path id="DejaVuSans-41" d="M 2188 4044 
L 1331 1722 
L 3047 1722 
L 2188 4044 
z
M 1831 4666 
L 2547 4666 
L 4325 0 
L 3669 0 
L 3244 1197 
L 1141 1197 
L 716 0 
L 50 0 
L 1831 4666 
z
" transform="scale(0.015625)"/>
       <path id="DejaVuSans-2d" d="M 313 2009 
L 1997 2009 
L 1997 1497 
L 313 1497 
L 313 2009 
z
" transform="scale(0.015625)"/>
      </defs>
      <use xlink:href="#DejaVuSans-54"/>
      <use xlink:href="#DejaVuSans-4b" x="61.083984"/>
      <use xlink:href="#DejaVuSans-39" x="126.660156"/>
      <use xlink:href="#DejaVuSans-5f" x="190.283203"/>
      <use xlink:href="#DejaVuSans-31" x="240.283203"/>
      <use xlink:href="#DejaVuSans-5f" x="303.90625"/>
      <use xlink:href="#DejaVuSans-32" x="353.90625"/>
      <use xlink:href="#DejaVuSans-32" x="417.529297"/>
      <use xlink:href="#DejaVuSans-46" x="481.152344"/>
      <use xlink:href="#DejaVuSans-46" x="538.671875"/>
      <use xlink:href="#DejaVuSans-4c" x="596.191406"/>
      <use xlink:href="#DejaVuSans-4c" x="651.904297"/>
      <use xlink:href="#DejaVuSans-4c" x="707.617188"/>
      <use xlink:href="#DejaVuSans-54" x="749.580078"/>
      <use xlink:href="#DejaVuSans-33" x="810.664062"/>
      <use xlink:href="#DejaVuSans-5f" x="874.287109"/>
      <use xlink:href="#DejaVuSans-41" x="924.287109"/>
      <use xlink:href="#DejaVuSans-47" x="990.945312"/>
      <use xlink:href="#DejaVuSans-41" x="1068.435547"/>
      <use xlink:href="#DejaVuSans-47" x="1135.09375"/>
      <use xlink:href="#DejaVuSans-41" x="1212.583984"/>
      <use xlink:href="#DejaVuSans-41" x="1283.742188"/>
      <use xlink:href="#DejaVuSans-43" x="1350.400391"/>
      <use xlink:href="#DejaVuSans-43" x="1420.224609"/>
      <use xlink:href="#DejaVuSans-54" x="1490.048828"/>
      <use xlink:href="#DejaVuSans-41" x="1543.382812"/>
      <use xlink:href="#DejaVuSans-2d" x="1609.541016"/>
      <use xlink:href="#DejaVuSans-47" x="1649.25"/>
      <use xlink:href="#DejaVuSans-47" x="1726.740234"/>
      <use xlink:href="#DejaVuSans-54" x="1800.605469"/>
      <use xlink:href="#DejaVuSans-54" x="1859.939453"/>
      <use xlink:href="#DejaVuSans-41" x="1913.273438"/>
      <use xlink:href="#DejaVuSans-54" x="1973.931641"/>
      <use xlink:href="#DejaVuSans-47" x="2035.015625"/>
      <use xlink:href="#DejaVuSans-43" x="2112.505859"/>
      <use xlink:href="#DejaVuSans-54" x="2182.330078"/>
      <use xlink:href="#DejaVuSans-41" x="2235.664062"/>
      <use xlink:href="#DejaVuSans-5f" x="2304.072266"/>
      <use xlink:href="#DejaVuSans-4c" x="2354.072266"/>
      <use xlink:href="#DejaVuSans-30" x="2409.785156"/>
      <use xlink:href="#DejaVuSans-30" x="2473.408203"/>
      <use xlink:href="#DejaVuSans-35" x="2537.03125"/>
      <use xlink:href="#DejaVuSans-5f" x="2600.654297"/>
      <use xlink:href="#DejaVuSans-54" x="2650.654297"/>
      <use xlink:href="#DejaVuSans-31" x="2711.738281"/>
      <use xlink:href="#DejaVuSans-5f" x="2775.361328"/>
      <use xlink:href="#DejaVuSans-31" x="2825.361328"/>
     </g>
    </g>
    <g id="line2d_22">
     <path d="M 47.800625 303.490394 
L 55.800625 303.490394 
L 63.800625 303.490394 
" style="fill: none; stroke: #d9534f; stroke-linecap: square"/>
    </g>
    <g id="text_18">
     <!-- TK9_1_22FFLLLT3_AGAGAACCTA-GGTTATGCTA_L005_T1_2 -->
     <g transform="translate(70.200625 306.290394) scale(0.08 -0.08)">
      <use xlink:href="#DejaVuSans-54"/>
      <use xlink:href="#DejaVuSans-4b" x="61.083984"/>
      <use xlink:href="#DejaVuSans-39" x="126.660156"/>
      <use xlink:href="#DejaVuSans-5f" x="190.283203"/>
      <use xlink:href="#DejaVuSans-31" x="240.283203"/>
      <use xlink:href="#DejaVuSans-5f" x="303.90625"/>
      <use xlink:href="#DejaVuSans-32" x="353.90625"/>
      <use xlink:href="#DejaVuSans-32" x="417.529297"/>
      <use xlink:href="#DejaVuSans-46" x="481.152344"/>
      <use xlink:href="#DejaVuSans-46" x="538.671875"/>
      <use xlink:href="#DejaVuSans-4c" x="596.191406"/>
      <use xlink:href="#DejaVuSans-4c" x="651.904297"/>
      <use xlink:href="#DejaVuSans-4c" x="707.617188"/>
      <use xlink:href="#DejaVuSans-54" x="749.580078"/>
      <use xlink:href="#DejaVuSans-33" x="810.664062"/>
      <use xlink:href="#DejaVuSans-5f" x="874.287109"/>
      <use xlink:href="#DejaVuSans-41" x="924.287109"/>
      <use xlink:href="#DejaVuSans-47" x="990.945312"/>
      <use xlink:href="#DejaVuSans-41" x="1068.435547"/>
      <use xlink:href="#DejaVuSans-47" x="1135.09375"/>
      <use xlink:href="#DejaVuSans-41" x="1212.583984"/>
      <use xlink:href="#DejaVuSans-41" x="1283.742188"/>
      <use xlink:href="#DejaVuSans-43" x="1350.400391"/>
      <use xlink:href="#DejaVuSans-43" x="1420.224609"/>
      <use xlink:href="#DejaVuSans-54" x="1490.048828"/>
      <use xlink:href="#DejaVuSans-41" x="1543.382812"/>
      <use xlink:href="#DejaVuSans-2d" x="1609.541016"/>
      <use xlink:href="#DejaVuSans-47" x="1649.25"/>
      <use xlink:href="#DejaVuSans-47" x="1726.740234"/>
      <use xlink:href="#DejaVuSans-54" x="1800.605469"/>
      <use xlink:href="#DejaVuSans-54" x="1859.939453"/>
      <use xlink:href="#DejaVuSans-41" x="1913.273438"/>
      <use xlink:href="#DejaVuSans-54" x="1973.931641"/>
      <use xlink:href="#DejaVuSans-47" x="2035.015625"/>
      <use xlink:href="#DejaVuSans-43" x="2112.505859"/>
      <use xlink:href="#DejaVuSans-54" x="2182.330078"/>
      <use xlink:href="#DejaVuSans-41" x="2235.664062"/>
      <use xlink:href="#DejaVuSans-5f" x="2304.072266"/>
      <use xlink:href="#DejaVuSans-4c" x="2354.072266"/>
      <use xlink:href="#DejaVuSans-30" x="2409.785156"/>
      <use xlink:href="#DejaVuSans-30" x="2473.408203"/>
      <use xlink:href="#DejaVuSans-35" x="2537.03125"/>
      <use xlink:href="#DejaVuSans-5f" x="2600.654297"/>
      <use xlink:href="#DejaVuSans-54" x="2650.654297"/>
      <use xlink:href="#DejaVuSans-31" x="2711.738281"/>
      <use xlink:href="#DejaVuSans-5f" x="2775.361328"/>
      <use xlink:href="#DejaVuSans-32" x="2825.361328"/>
     </g>
    </g>
    <g id="line2d_23">
     <path d="M 47.800625 315.455394 
L 55.800625 315.455394 
L 63.800625 315.455394 
" style="fill: none; stroke: #d9534f; stroke-linecap: square"/>
    </g>
    <g id="text_19">
     <!-- TK9_1_22FFLLLT3_AGAGAACCTA-GGTTATGCTA_L006_T1_1 -->
     <g transform="translate(70.200625 318.255394) scale(0.08 -0.08)">
      <use xlink:href="#DejaVuSans-54"/>
      <use xlink:href="#DejaVuSans-4b" x="61.083984"/>
      <use xlink:href="#DejaVuSans-39" x="126.660156"/>
      <use xlink:href="#DejaVuSans-5f" x="190.283203"/>
      <use xlink:href="#DejaVuSans-31" x="240.283203"/>
      <use xlink:href="#DejaVuSans-5f" x="303.90625"/>
      <use xlink:href="#DejaVuSans-32" x="353.90625"/>
      <use xlink:href="#DejaVuSans-32" x="417.529297"/>
      <use xlink:href="#DejaVuSans-46" x="481.152344"/>
      <use xlink:href="#DejaVuSans-46" x="538.671875"/>
      <use xlink:href="#DejaVuSans-4c" x="596.191406"/>
      <use xlink:href="#DejaVuSans-4c" x="651.904297"/>
      <use xlink:href="#DejaVuSans-4c" x="707.617188"/>
      <use xlink:href="#DejaVuSans-54" x="749.580078"/>
      <use xlink:href="#DejaVuSans-33" x="810.664062"/>
      <use xlink:href="#DejaVuSans-5f" x="874.287109"/>
      <use xlink:href="#DejaVuSans-41" x="924.287109"/>
      <use xlink:href="#DejaVuSans-47" x="990.945312"/>
      <use xlink:href="#DejaVuSans-41" x="1068.435547"/>
      <use xlink:href="#DejaVuSans-47" x="1135.09375"/>
      <use xlink:href="#DejaVuSans-41" x="1212.583984"/>
      <use xlink:href="#DejaVuSans-41" x="1283.742188"/>
      <use xlink:href="#DejaVuSans-43" x="1350.400391"/>
      <use xlink:href="#DejaVuSans-43" x="1420.224609"/>
      <use xlink:href="#DejaVuSans-54" x="1490.048828"/>
      <use xlink:href="#DejaVuSans-41" x="1543.382812"/>
      <use xlink:href="#DejaVuSans-2d" x="1609.541016"/>
      <use xlink:href="#DejaVuSans-47" x="1649.25"/>
      <use xlink:href="#DejaVuSans-47" x="1726.740234"/>
      <use xlink:href="#DejaVuSans-54" x="1800.605469"/>
      <use xlink:href="#DejaVuSans-54" x="1859.939453"/>
      <use xlink:href="#DejaVuSans-41" x="1913.273438"/>
      <use xlink:href="#DejaVuSans-54" x="1973.931641"/>
      <use xlink:href="#DejaVuSans-47" x="2035.015625"/>
      <use xlink:href="#DejaVuSans-43" x="2112.505859"/>
      <use xlink:href="#DejaVuSans-54" x="2182.330078"/>
      <use xlink:href="#DejaVuSans-41" x="2235.664062"/>
      <use xlink:href="#DejaVuSans-5f" x="2304.072266"/>
      <use xlink:href="#DejaVuSans-4c" x="2354.072266"/>
      <use xlink:href="#DejaVuSans-30" x="2409.785156"/>
      <use xlink:href="#DejaVuSans-30" x="2473.408203"/>
      <use xlink:href="#DejaVuSans-36" x="2537.03125"/>
      <use xlink:href="#DejaVuSans-5f" x="2600.654297"/>
      <use xlink:href="#DejaVuSans-54" x="2650.654297"/>
      <use xlink:href="#DejaVuSans-31" x="2711.738281"/>
      <use xlink:href="#DejaVuSans-5f" x="2775.361328"/>
      <use xlink:href="#DejaVuSans-31" x="2825.361328"/>
     </g>
    </g>
    <g id="line2d_24">
     <path d="M 218.1925 291.525394 
L 226.1925 291.525394 
L 234.1925 291.525394 
" style="fill: none; stroke: #d9534f; stroke-linecap: square"/>
    </g>
    <g id="text_20">
     <!-- TK9_1_22FFLLLT3_AGAGAACCTA-GGTTATGCTA_L006_T1_2 -->
     <g transform="translate(240.5925 294.325394) scale(0.08 -0.08)">
      <use xlink:href="#DejaVuSans-54"/>
      <use xlink:href="#DejaVuSans-4b" x="61.083984"/>
      <use xlink:href="#DejaVuSans-39" x="126.660156"/>
      <use xlink:href="#DejaVuSans-5f" x="190.283203"/>
      <use xlink:href="#DejaVuSans-31" x="240.283203"/>
      <use xlink:href="#DejaVuSans-5f" x="303.90625"/>
      <use xlink:href="#DejaVuSans-32" x="353.90625"/>
      <use xlink:href="#DejaVuSans-32" x="417.529297"/>
      <use xlink:href="#DejaVuSans-46" x="481.152344"/>
      <use xlink:href="#DejaVuSans-46" x="538.671875"/>
      <use xlink:href="#DejaVuSans-4c" x="596.191406"/>
      <use xlink:href="#DejaVuSans-4c" x="651.904297"/>
      <use xlink:href="#DejaVuSans-4c" x="707.617188"/>
      <use xlink:href="#DejaVuSans-54" x="749.580078"/>
      <use xlink:href="#DejaVuSans-33" x="810.664062"/>
      <use xlink:href="#DejaVuSans-5f" x="874.287109"/>
      <use xlink:href="#DejaVuSans-41" x="924.287109"/>
      <use xlink:href="#DejaVuSans-47" x="990.945312"/>
      <use xlink:href="#DejaVuSans-41" x="1068.435547"/>
      <use xlink:href="#DejaVuSans-47" x="1135.09375"/>
      <use xlink:href="#DejaVuSans-41" x="1212.583984"/>
      <use xlink:href="#DejaVuSans-41" x="1283.742188"/>
      <use xlink:href="#DejaVuSans-43" x="1350.400391"/>
      <use xlink:href="#DejaVuSans-43" x="1420.224609"/>
      <use xlink:href="#DejaVuSans-54" x="1490.048828"/>
      <use xlink:href="#DejaVuSans-41" x="1543.382812"/>
      <use xlink:href="#DejaVuSans-2d" x="1609.541016"/>
      <use xlink:href="#DejaVuSans-47" x="1649.25"/>
      <use xlink:href="#DejaVuSans-47" x="1726.740234"/>
      <use xlink:href="#DejaVuSans-54" x="1800.605469"/>
      <use xlink:href="#DejaVuSans-54" x="1859.939453"/>
      <use xlink:href="#DejaVuSans-41" x="1913.273438"/>
      <use xlink:href="#DejaVuSans-54" x="1973.931641"/>
      <use xlink:href="#DejaVuSans-47" x="2035.015625"/>
      <use xlink:href="#DejaVuSans-43" x="2112.505859"/>
      <use xlink:href="#DejaVuSans-54" x="2182.330078"/>
      <use xlink:href="#DejaVuSans-41" x="2235.664062"/>
      <use xlink:href="#DejaVuSans-5f" x="2304.072266"/>
      <use xlink:href="#DejaVuSans-4c" x="2354.072266"/>
      <use xlink:href="#DejaVuSans-30" x="2409.785156"/>
      <use xlink:href="#DejaVuSans-30" x="2473.408203"/>
      <use xlink:href="#DejaVuSans-36" x="2537.03125"/>
      <use xlink:href="#DejaVuSans-5f" x="2600.654297"/>
      <use xlink:href="#DejaVuSans-54" x="2650.654297"/>
      <use xlink:href="#DejaVuSans-31" x="2711.738281"/>
      <use xlink:href="#DejaVuSans-5f" x="2775.361328"/>
      <use xlink:href="#DejaVuSans-32" x="2825.361328"/>
     </g>
    </g>
    <g id="line2d_25">
     <path d="M 218.1925 303.490394 
L 226.1925 303.490394 
L 234.1925 303.490394 
" style="fill: none; stroke: #d9534f; stroke-linecap: square"/>
    </g>
    <g id="text_21">
     <!-- TK9_2_22FFLLLT3_GATATTGTGT-ACCACACGGT_L005_T1_1 -->
     <g transform="translate(240.5925 306.290394) scale(0.08 -0.08)">
      <use xlink:href="#DejaVuSans-54"/>
      <use xlink:href="#DejaVuSans-4b" x="61.083984"/>
      <use xlink:href="#DejaVuSans-39" x="126.660156"/>
      <use xlink:href="#DejaVuSans-5f" x="190.283203"/>
      <use xlink:href="#DejaVuSans-32" x="240.283203"/>
      <use xlink:href="#DejaVuSans-5f" x="303.90625"/>
      <use xlink:href="#DejaVuSans-32" x="353.90625"/>
      <use xlink:href="#DejaVuSans-32" x="417.529297"/>
      <use xlink:href="#DejaVuSans-46" x="481.152344"/>
      <use xlink:href="#DejaVuSans-46" x="538.671875"/>
      <use xlink:href="#DejaVuSans-4c" x="596.191406"/>
      <use xlink:href="#DejaVuSans-4c" x="651.904297"/>
      <use xlink:href="#DejaVuSans-4c" x="707.617188"/>
      <use xlink:href="#DejaVuSans-54" x="749.580078"/>
      <use xlink:href="#DejaVuSans-33" x="810.664062"/>
      <use xlink:href="#DejaVuSans-5f" x="874.287109"/>
      <use xlink:href="#DejaVuSans-47" x="924.287109"/>
      <use xlink:href="#DejaVuSans-41" x="1001.777344"/>
      <use xlink:href="#DejaVuSans-54" x="1062.435547"/>
      <use xlink:href="#DejaVuSans-41" x="1115.769531"/>
      <use xlink:href="#DejaVuSans-54" x="1176.427734"/>
      <use xlink:href="#DejaVuSans-54" x="1235.761719"/>
      <use xlink:href="#DejaVuSans-47" x="1296.845703"/>
      <use xlink:href="#DejaVuSans-54" x="1370.710938"/>
      <use xlink:href="#DejaVuSans-47" x="1431.794922"/>
      <use xlink:href="#DejaVuSans-54" x="1505.660156"/>
      <use xlink:href="#DejaVuSans-2d" x="1557.619141"/>
      <use xlink:href="#DejaVuSans-41" x="1591.453125"/>
      <use xlink:href="#DejaVuSans-43" x="1658.111328"/>
      <use xlink:href="#DejaVuSans-43" x="1727.935547"/>
      <use xlink:href="#DejaVuSans-41" x="1797.759766"/>
      <use xlink:href="#DejaVuSans-43" x="1864.417969"/>
      <use xlink:href="#DejaVuSans-41" x="1934.242188"/>
      <use xlink:href="#DejaVuSans-43" x="2000.900391"/>
      <use xlink:href="#DejaVuSans-47" x="2070.724609"/>
      <use xlink:href="#DejaVuSans-47" x="2148.214844"/>
      <use xlink:href="#DejaVuSans-54" x="2222.080078"/>
      <use xlink:href="#DejaVuSans-5f" x="2283.164062"/>
      <use xlink:href="#DejaVuSans-4c" x="2333.164062"/>
      <use xlink:href="#DejaVuSans-30" x="2388.876953"/>
      <use xlink:href="#DejaVuSans-30" x="2452.5"/>
      <use xlink:href="#DejaVuSans-35" x="2516.123047"/>
      <use xlink:href="#DejaVuSans-5f" x="2579.746094"/>
      <use xlink:href="#DejaVuSans-54" x="2629.746094"/>
      <use xlink:href="#DejaVuSans-31" x="2690.830078"/>
      <use xlink:href="#DejaVuSans-5f" x="2754.453125"/>
      <use xlink:href="#DejaVuSans-31" x="2804.453125"/>
     </g>
    </g>
    <g id="line2d_26">
     <path d="M 218.1925 315.455394 
L 226.1925 315.455394 
L 234.1925 315.455394 
" style="fill: none; stroke: #d9534f; stroke-linecap: square"/>
    </g>
    <g id="text_22">
     <!-- TK9_2_22FFLLLT3_GATATTGTGT-ACCACACGGT_L005_T1_2 -->
     <g transform="translate(240.5925 318.255394) scale(0.08 -0.08)">
      <use xlink:href="#DejaVuSans-54"/>
      <use xlink:href="#DejaVuSans-4b" x="61.083984"/>
      <use xlink:href="#DejaVuSans-39" x="126.660156"/>
      <use xlink:href="#DejaVuSans-5f" x="190.283203"/>
      <use xlink:href="#DejaVuSans-32" x="240.283203"/>
      <use xlink:href="#DejaVuSans-5f" x="303.90625"/>
      <use xlink:href="#DejaVuSans-32" x="353.90625"/>
      <use xlink:href="#DejaVuSans-32" x="417.529297"/>
      <use xlink:href="#DejaVuSans-46" x="481.152344"/>
      <use xlink:href="#DejaVuSans-46" x="538.671875"/>
      <use xlink:href="#DejaVuSans-4c" x="596.191406"/>
      <use xlink:href="#DejaVuSans-4c" x="651.904297"/>
      <use xlink:href="#DejaVuSans-4c" x="707.617188"/>
      <use xlink:href="#DejaVuSans-54" x="749.580078"/>
      <use xlink:href="#DejaVuSans-33" x="810.664062"/>
      <use xlink:href="#DejaVuSans-5f" x="874.287109"/>
      <use xlink:href="#DejaVuSans-47" x="924.287109"/>
      <use xlink:href="#DejaVuSans-41" x="1001.777344"/>
      <use xlink:href="#DejaVuSans-54" x="1062.435547"/>
      <use xlink:href="#DejaVuSans-41" x="1115.769531"/>
      <use xlink:href="#DejaVuSans-54" x="1176.427734"/>
      <use xlink:href="#DejaVuSans-54" x="1235.761719"/>
      <use xlink:href="#DejaVuSans-47" x="1296.845703"/>
      <use xlink:href="#DejaVuSans-54" x="1370.710938"/>
      <use xlink:href="#DejaVuSans-47" x="1431.794922"/>
      <use xlink:href="#DejaVuSans-54" x="1505.660156"/>
      <use xlink:href="#DejaVuSans-2d" x="1557.619141"/>
      <use xlink:href="#DejaVuSans-41" x="1591.453125"/>
      <use xlink:href="#DejaVuSans-43" x="1658.111328"/>
      <use xlink:href="#DejaVuSans-43" x="1727.935547"/>
      <use xlink:href="#DejaVuSans-41" x="1797.759766"/>
      <use xlink:href="#DejaVuSans-43" x="1864.417969"/>
      <use xlink:href="#DejaVuSans-41" x="1934.242188"/>
      <use xlink:href="#DejaVuSans-43" x="2000.900391"/>
      <use xlink:href="#DejaVuSans-47" x="2070.724609"/>
      <use xlink:href="#DejaVuSans-47" x="2148.214844"/>
      <use xlink:href="#DejaVuSans-54" x="2222.080078"/>
      <use xlink:href="#DejaVuSans-5f" x="2283.164062"/>
      <use xlink:href="#DejaVuSans-4c" x="2333.164062"/>
      <use xlink:href="#DejaVuSans-30" x="2388.876953"/>
      <use xlink:href="#DejaVuSans-30" x="2452.5"/>
      <use xlink:href="#DejaVuSans-35" x="2516.123047"/>
      <use xlink:href="#DejaVuSans-5f" x="2579.746094"/>
      <use xlink:href="#DejaVuSans-54" x="2629.746094"/>
      <use xlink:href="#DejaVuSans-31" x="2690.830078"/>
      <use xlink:href="#DejaVuSans-5f" x="2754.453125"/>
      <use xlink:href="#DejaVuSans-32" x="2804.453125"/>
     </g>
    </g>
    <g id="line2d_27">
     <path d="M 388.584375 291.525394 
L 396.584375 291.525394 
L 404.584375 291.525394 
" style="fill: none; stroke: #d9534f; stroke-linecap: square"/>
    </g>
    <g id="text_23">
     <!-- TK9_2_22FFLLLT3_GATATTGTGT-ACCACACGGT_L006_T1_1 -->
     <g transform="translate(410.984375 294.325394) scale(0.08 -0.08)">
      <use xlink:href="#DejaVuSans-54"/>
      <use xlink:href="#DejaVuSans-4b" x="61.083984"/>
      <use xlink:href="#DejaVuSans-39" x="126.660156"/>
      <use xlink:href="#DejaVuSans-5f" x="190.283203"/>
      <use xlink:href="#DejaVuSans-32" x="240.283203"/>
      <use xlink:href="#DejaVuSans-5f" x="303.90625"/>
      <use xlink:href="#DejaVuSans-32" x="353.90625"/>
      <use xlink:href="#DejaVuSans-32" x="417.529297"/>
      <use xlink:href="#DejaVuSans-46" x="481.152344"/>
      <use xlink:href="#DejaVuSans-46" x="538.671875"/>
      <use xlink:href="#DejaVuSans-4c" x="596.191406"/>
      <use xlink:href="#DejaVuSans-4c" x="651.904297"/>
      <use xlink:href="#DejaVuSans-4c" x="707.617188"/>
      <use xlink:href="#DejaVuSans-54" x="749.580078"/>
      <use xlink:href="#DejaVuSans-33" x="810.664062"/>
      <use xlink:href="#DejaVuSans-5f" x="874.287109"/>
      <use xlink:href="#DejaVuSans-47" x="924.287109"/>
      <use xlink:href="#DejaVuSans-41" x="1001.777344"/>
      <use xlink:href="#DejaVuSans-54" x="1062.435547"/>
      <use xlink:href="#DejaVuSans-41" x="1115.769531"/>
      <use xlink:href="#DejaVuSans-54" x="1176.427734"/>
      <use xlink:href="#DejaVuSans-54" x="1235.761719"/>
      <use xlink:href="#DejaVuSans-47" x="1296.845703"/>
      <use xlink:href="#DejaVuSans-54" x="1370.710938"/>
      <use xlink:href="#DejaVuSans-47" x="1431.794922"/>
      <use xlink:href="#DejaVuSans-54" x="1505.660156"/>
      <use xlink:href="#DejaVuSans-2d" x="1557.619141"/>
      <use xlink:href="#DejaVuSans-41" x="1591.453125"/>
      <use xlink:href="#DejaVuSans-43" x="1658.111328"/>
      <use xlink:href="#DejaVuSans-43" x="1727.935547"/>
      <use xlink:href="#DejaVuSans-41" x="1797.759766"/>
      <use xlink:href="#DejaVuSans-43" x="1864.417969"/>
      <use xlink:href="#DejaVuSans-41" x="1934.242188"/>
      <use xlink:href="#DejaVuSans-43" x="2000.900391"/>
      <use xlink:href="#DejaVuSans-47" x="2070.724609"/>
      <use xlink:href="#DejaVuSans-47" x="2148.214844"/>
      <use xlink:href="#DejaVuSans-54" x="2222.080078"/>
      <use xlink:href="#DejaVuSans-5f" x="2283.164062"/>
      <use xlink:href="#DejaVuSans-4c" x="2333.164062"/>
      <use xlink:href="#DejaVuSans-30" x="2388.876953"/>
      <use xlink:href="#DejaVuSans-30" x="2452.5"/>
      <use xlink:href="#DejaVuSans-36" x="2516.123047"/>
      <use xlink:href="#DejaVuSans-5f" x="2579.746094"/>
      <use xlink:href="#DejaVuSans-54" x="2629.746094"/>
      <use xlink:href="#DejaVuSans-31" x="2690.830078"/>
      <use xlink:href="#DejaVuSans-5f" x="2754.453125"/>
      <use xlink:href="#DejaVuSans-31" x="2804.453125"/>
     </g>
    </g>
    <g id="line2d_28">
     <path d="M 388.584375 303.490394 
L 396.584375 303.490394 
L 404.584375 303.490394 
" style="fill: none; stroke: #d9534f; stroke-linecap: square"/>
    </g>
    <g id="text_24">
     <!-- TK9_2_22FFLLLT3_GATATTGTGT-ACCACACGGT_L006_T1_2 -->
     <g transform="translate(410.984375 306.290394) scale(0.08 -0.08)">
      <use xlink:href="#DejaVuSans-54"/>
      <use xlink:href="#DejaVuSans-4b" x="61.083984"/>
      <use xlink:href="#DejaVuSans-39" x="126.660156"/>
      <use xlink:href="#DejaVuSans-5f" x="190.283203"/>
      <use xlink:href="#DejaVuSans-32" x="240.283203"/>
      <use xlink:href="#DejaVuSans-5f" x="303.90625"/>
      <use xlink:href="#DejaVuSans-32" x="353.90625"/>
      <use xlink:href="#DejaVuSans-32" x="417.529297"/>
      <use xlink:href="#DejaVuSans-46" x="481.152344"/>
      <use xlink:href="#DejaVuSans-46" x="538.671875"/>
      <use xlink:href="#DejaVuSans-4c" x="596.191406"/>
      <use xlink:href="#DejaVuSans-4c" x="651.904297"/>
      <use xlink:href="#DejaVuSans-4c" x="707.617188"/>
      <use xlink:href="#DejaVuSans-54" x="749.580078"/>
      <use xlink:href="#DejaVuSans-33" x="810.664062"/>
      <use xlink:href="#DejaVuSans-5f" x="874.287109"/>
      <use xlink:href="#DejaVuSans-47" x="924.287109"/>
      <use xlink:href="#DejaVuSans-41" x="1001.777344"/>
      <use xlink:href="#DejaVuSans-54" x="1062.435547"/>
      <use xlink:href="#DejaVuSans-41" x="1115.769531"/>
      <use xlink:href="#DejaVuSans-54" x="1176.427734"/>
      <use xlink:href="#DejaVuSans-54" x="1235.761719"/>
      <use xlink:href="#DejaVuSans-47" x="1296.845703"/>
      <use xlink:href="#DejaVuSans-54" x="1370.710938"/>
      <use xlink:href="#DejaVuSans-47" x="1431.794922"/>
      <use xlink:href="#DejaVuSans-54" x="1505.660156"/>
      <use xlink:href="#DejaVuSans-2d" x="1557.619141"/>
      <use xlink:href="#DejaVuSans-41" x="1591.453125"/>
      <use xlink:href="#DejaVuSans-43" x="1658.111328"/>
      <use xlink:href="#DejaVuSans-43" x="1727.935547"/>
      <use xlink:href="#DejaVuSans-41" x="1797.759766"/>
      <use xlink:href="#DejaVuSans-43" x="1864.417969"/>
      <use xlink:href="#DejaVuSans-41" x="1934.242188"/>
      <use xlink:href="#DejaVuSans-43" x="2000.900391"/>
      <use xlink:href="#DejaVuSans-47" x="2070.724609"/>
      <use xlink:href="#DejaVuSans-47" x="2148.214844"/>
      <use xlink:href="#DejaVuSans-54" x="2222.080078"/>
      <use xlink:href="#DejaVuSans-5f" x="2283.164062"/>
      <use xlink:href="#DejaVuSans-4c" x="2333.164062"/>
      <use xlink:href="#DejaVuSans-30" x="2388.876953"/>
      <use xlink:href="#DejaVuSans-30" x="2452.5"/>
      <use xlink:href="#DejaVuSans-36" x="2516.123047"/>
      <use xlink:href="#DejaVuSans-5f" x="2579.746094"/>
      <use xlink:href="#DejaVuSans-54" x="2629.746094"/>
      <use xlink:href="#DejaVuSans-31" x="2690.830078"/>
      <use xlink:href="#DejaVuSans-5f" x="2754.453125"/>
      <use xlink:href="#DejaVuSans-32" x="2804.453125"/>
     </g>
    </g>
    <g id="line2d_29">
     <path d="M 557.30375 291.525394 
L 565.30375 291.525394 
L 573.30375 291.525394 
" style="fill: none; stroke: #f0ad4e; stroke-linecap: square"/>
    </g>
    <g id="text_25">
     <!-- TK9_3_22FFLLLT3_CGTACAGGAA-TAGGTTCTCT_L005_T1_1 -->
     <g transform="translate(579.70375 294.325394) scale(0.08 -0.08)">
      <use xlink:href="#DejaVuSans-54"/>
      <use xlink:href="#DejaVuSans-4b" x="61.083984"/>
      <use xlink:href="#DejaVuSans-39" x="126.660156"/>
      <use xlink:href="#DejaVuSans-5f" x="190.283203"/>
      <use xlink:href="#DejaVuSans-33" x="240.283203"/>
      <use xlink:href="#DejaVuSans-5f" x="303.90625"/>
      <use xlink:href="#DejaVuSans-32" x="353.90625"/>
      <use xlink:href="#DejaVuSans-32" x="417.529297"/>
      <use xlink:href="#DejaVuSans-46" x="481.152344"/>
      <use xlink:href="#DejaVuSans-46" x="538.671875"/>
      <use xlink:href="#DejaVuSans-4c" x="596.191406"/>
      <use xlink:href="#DejaVuSans-4c" x="651.904297"/>
      <use xlink:href="#DejaVuSans-4c" x="707.617188"/>
      <use xlink:href="#DejaVuSans-54" x="749.580078"/>
      <use xlink:href="#DejaVuSans-33" x="810.664062"/>
      <use xlink:href="#DejaVuSans-5f" x="874.287109"/>
      <use xlink:href="#DejaVuSans-43" x="924.287109"/>
      <use xlink:href="#DejaVuSans-47" x="994.111328"/>
      <use xlink:href="#DejaVuSans-54" x="1067.976562"/>
      <use xlink:href="#DejaVuSans-41" x="1121.310547"/>
      <use xlink:href="#DejaVuSans-43" x="1187.96875"/>
      <use xlink:href="#DejaVuSans-41" x="1257.792969"/>
      <use xlink:href="#DejaVuSans-47" x="1324.451172"/>
      <use xlink:href="#DejaVuSans-47" x="1401.941406"/>
      <use xlink:href="#DejaVuSans-41" x="1479.431641"/>
      <use xlink:href="#DejaVuSans-41" x="1550.589844"/>
      <use xlink:href="#DejaVuSans-2d" x="1616.748047"/>
      <use xlink:href="#DejaVuSans-54" x="1643.707031"/>
      <use xlink:href="#DejaVuSans-41" x="1697.041016"/>
      <use xlink:href="#DejaVuSans-47" x="1763.699219"/>
      <use xlink:href="#DejaVuSans-47" x="1841.189453"/>
      <use xlink:href="#DejaVuSans-54" x="1915.054688"/>
      <use xlink:href="#DejaVuSans-54" x="1974.388672"/>
      <use xlink:href="#DejaVuSans-43" x="2029.597656"/>
      <use xlink:href="#DejaVuSans-54" x="2099.421875"/>
      <use xlink:href="#DejaVuSans-43" x="2154.630859"/>
      <use xlink:href="#DejaVuSans-54" x="2224.455078"/>
      <use xlink:href="#DejaVuSans-5f" x="2285.539062"/>
      <use xlink:href="#DejaVuSans-4c" x="2335.539062"/>
      <use xlink:href="#DejaVuSans-30" x="2391.251953"/>
      <use xlink:href="#DejaVuSans-30" x="2454.875"/>
      <use xlink:href="#DejaVuSans-35" x="2518.498047"/>
      <use xlink:href="#DejaVuSans-5f" x="2582.121094"/>
      <use xlink:href="#DejaVuSans-54" x="2632.121094"/>
      <use xlink:href="#DejaVuSans-31" x="2693.205078"/>
      <use xlink:href="#DejaVuSans-5f" x="2756.828125"/>
      <use xlink:href="#DejaVuSans-31" x="2806.828125"/>
     </g>
    </g>
    <g id="line2d_30">
     <path d="M 557.30375 303.490394 
L 565.30375 303.490394 
L 573.30375 303.490394 
" style="fill: none; stroke: #d9534f; stroke-linecap: square"/>
    </g>
    <g id="text_26">
     <!-- TK9_3_22FFLLLT3_CGTACAGGAA-TAGGTTCTCT_L005_T1_2 -->
     <g transform="translate(579.70375 306.290394) scale(0.08 -0.08)">
      <use xlink:href="#DejaVuSans-54"/>
      <use xlink:href="#DejaVuSans-4b" x="61.083984"/>
      <use xlink:href="#DejaVuSans-39" x="126.660156"/>
      <use xlink:href="#DejaVuSans-5f" x="190.283203"/>
      <use xlink:href="#DejaVuSans-33" x="240.283203"/>
      <use xlink:href="#DejaVuSans-5f" x="303.90625"/>
      <use xlink:href="#DejaVuSans-32" x="353.90625"/>
      <use xlink:href="#DejaVuSans-32" x="417.529297"/>
      <use xlink:href="#DejaVuSans-46" x="481.152344"/>
      <use xlink:href="#DejaVuSans-46" x="538.671875"/>
      <use xlink:href="#DejaVuSans-4c" x="596.191406"/>
      <use xlink:href="#DejaVuSans-4c" x="651.904297"/>
      <use xlink:href="#DejaVuSans-4c" x="707.617188"/>
      <use xlink:href="#DejaVuSans-54" x="749.580078"/>
      <use xlink:href="#DejaVuSans-33" x="810.664062"/>
      <use xlink:href="#DejaVuSans-5f" x="874.287109"/>
      <use xlink:href="#DejaVuSans-43" x="924.287109"/>
      <use xlink:href="#DejaVuSans-47" x="994.111328"/>
      <use xlink:href="#DejaVuSans-54" x="1067.976562"/>
      <use xlink:href="#DejaVuSans-41" x="1121.310547"/>
      <use xlink:href="#DejaVuSans-43" x="1187.96875"/>
      <use xlink:href="#DejaVuSans-41" x="1257.792969"/>
      <use xlink:href="#DejaVuSans-47" x="1324.451172"/>
      <use xlink:href="#DejaVuSans-47" x="1401.941406"/>
      <use xlink:href="#DejaVuSans-41" x="1479.431641"/>
      <use xlink:href="#DejaVuSans-41" x="1550.589844"/>
      <use xlink:href="#DejaVuSans-2d" x="1616.748047"/>
      <use xlink:href="#DejaVuSans-54" x="1643.707031"/>
      <use xlink:href="#DejaVuSans-41" x="1697.041016"/>
      <use xlink:href="#DejaVuSans-47" x="1763.699219"/>
      <use xlink:href="#DejaVuSans-47" x="1841.189453"/>
      <use xlink:href="#DejaVuSans-54" x="1915.054688"/>
      <use xlink:href="#DejaVuSans-54" x="1974.388672"/>
      <use xlink:href="#DejaVuSans-43" x="2029.597656"/>
      <use xlink:href="#DejaVuSans-54" x="2099.421875"/>
      <use xlink:href="#DejaVuSans-43" x="2154.630859"/>
      <use xlink:href="#DejaVuSans-54" x="2224.455078"/>
      <use xlink:href="#DejaVuSans-5f" x="2285.539062"/>
      <use xlink:href="#DejaVuSans-4c" x="2335.539062"/>
      <use xlink:href="#DejaVuSans-30" x="2391.251953"/>
      <use xlink:href="#DejaVuSans-30" x="2454.875"/>
      <use xlink:href="#DejaVuSans-35" x="2518.498047"/>
      <use xlink:href="#DejaVuSans-5f" x="2582.121094"/>
      <use xlink:href="#DejaVuSans-54" x="2632.121094"/>
      <use xlink:href="#DejaVuSans-31" x="2693.205078"/>
      <use xlink:href="#DejaVuSans-5f" x="2756.828125"/>
      <use xlink:href="#DejaVuSans-32" x="2806.828125"/>
     </g>
    </g>
    <g id="line2d_31">
     <path d="M 726.213125 291.525394 
L 734.213125 291.525394 
L 742.213125 291.525394 
" style="fill: none; stroke: #f0ad4e; stroke-linecap: square"/>
    </g>
    <g id="text_27">
     <!-- TK9_3_22FFLLLT3_CGTACAGGAA-TAGGTTCTCT_L006_T1_1 -->
     <g transform="translate(748.613125 294.325394) scale(0.08 -0.08)">
      <use xlink:href="#DejaVuSans-54"/>
      <use xlink:href="#DejaVuSans-4b" x="61.083984"/>
      <use xlink:href="#DejaVuSans-39" x="126.660156"/>
      <use xlink:href="#DejaVuSans-5f" x="190.283203"/>
      <use xlink:href="#DejaVuSans-33" x="240.283203"/>
      <use xlink:href="#DejaVuSans-5f" x="303.90625"/>
      <use xlink:href="#DejaVuSans-32" x="353.90625"/>
      <use xlink:href="#DejaVuSans-32" x="417.529297"/>
      <use xlink:href="#DejaVuSans-46" x="481.152344"/>
      <use xlink:href="#DejaVuSans-46" x="538.671875"/>
      <use xlink:href="#DejaVuSans-4c" x="596.191406"/>
      <use xlink:href="#DejaVuSans-4c" x="651.904297"/>
      <use xlink:href="#DejaVuSans-4c" x="707.617188"/>
      <use xlink:href="#DejaVuSans-54" x="749.580078"/>
      <use xlink:href="#DejaVuSans-33" x="810.664062"/>
      <use xlink:href="#DejaVuSans-5f" x="874.287109"/>
      <use xlink:href="#DejaVuSans-43" x="924.287109"/>
      <use xlink:href="#DejaVuSans-47" x="994.111328"/>
      <use xlink:href="#DejaVuSans-54" x="1067.976562"/>
      <use xlink:href="#DejaVuSans-41" x="1121.310547"/>
      <use xlink:href="#DejaVuSans-43" x="1187.96875"/>
      <use xlink:href="#DejaVuSans-41" x="1257.792969"/>
      <use xlink:href="#DejaVuSans-47" x="1324.451172"/>
      <use xlink:href="#DejaVuSans-47" x="1401.941406"/>
      <use xlink:href="#DejaVuSans-41" x="1479.431641"/>
      <use xlink:href="#DejaVuSans-41" x="1550.589844"/>
      <use xlink:href="#DejaVuSans-2d" x="1616.748047"/>
      <use xlink:href="#DejaVuSans-54" x="1643.707031"/>
      <use xlink:href="#DejaVuSans-41" x="1697.041016"/>
      <use xlink:href="#DejaVuSans-47" x="1763.699219"/>
      <use xlink:href="#DejaVuSans-47" x="1841.189453"/>
      <use xlink:href="#DejaVuSans-54" x="1915.054688"/>
      <use xlink:href="#DejaVuSans-54" x="1974.388672"/>
      <use xlink:href="#DejaVuSans-43" x="2029.597656"/>
      <use xlink:href="#DejaVuSans-54" x="2099.421875"/>
      <use xlink:href="#DejaVuSans-43" x="2154.630859"/>
      <use xlink:href="#DejaVuSans-54" x="2224.455078"/>
      <use xlink:href="#DejaVuSans-5f" x="2285.539062"/>
      <use xlink:href="#DejaVuSans-4c" x="2335.539062"/>
      <use xlink:href="#DejaVuSans-30" x="2391.251953"/>
      <use xlink:href="#DejaVuSans-30" x="2454.875"/>
      <use xlink:href="#DejaVuSans-36" x="2518.498047"/>
      <use xlink:href="#DejaVuSans-5f" x="2582.121094"/>
      <use xlink:href="#DejaVuSans-54" x="2632.121094"/>
      <use xlink:href="#DejaVuSans-31" x="2693.205078"/>
      <use xlink:href="#DejaVuSans-5f" x="2756.828125"/>
      <use xlink:href="#DejaVuSans-31" x="2806.828125"/>
     </g>
    </g>
    <g id="line2d_32">
     <path d="M 726.213125 303.490394 
L 734.213125 303.490394 
L 742.213125 303.490394 
" style="fill: none; stroke: #d9534f; stroke-linecap: square"/>
    </g>
    <g id="text_28">
     <!-- TK9_3_22FFLLLT3_CGTACAGGAA-TAGGTTCTCT_L006_T1_2 -->
     <g transform="translate(748.613125 306.290394) scale(0.08 -0.08)">
      <use xlink:href="#DejaVuSans-54"/>
      <use xlink:href="#DejaVuSans-4b" x="61.083984"/>
      <use xlink:href="#DejaVuSans-39" x="126.660156"/>
      <use xlink:href="#DejaVuSans-5f" x="190.283203"/>
      <use xlink:href="#DejaVuSans-33" x="240.283203"/>
      <use xlink:href="#DejaVuSans-5f" x="303.90625"/>
      <use xlink:href="#DejaVuSans-32" x="353.90625"/>
      <use xlink:href="#DejaVuSans-32" x="417.529297"/>
      <use xlink:href="#DejaVuSans-46" x="481.152344"/>
      <use xlink:href="#DejaVuSans-46" x="538.671875"/>
      <use xlink:href="#DejaVuSans-4c" x="596.191406"/>
      <use xlink:href="#DejaVuSans-4c" x="651.904297"/>
      <use xlink:href="#DejaVuSans-4c" x="707.617188"/>
      <use xlink:href="#DejaVuSans-54" x="749.580078"/>
      <use xlink:href="#DejaVuSans-33" x="810.664062"/>
      <use xlink:href="#DejaVuSans-5f" x="874.287109"/>
      <use xlink:href="#DejaVuSans-43" x="924.287109"/>
      <use xlink:href="#DejaVuSans-47" x="994.111328"/>
      <use xlink:href="#DejaVuSans-54" x="1067.976562"/>
      <use xlink:href="#DejaVuSans-41" x="1121.310547"/>
      <use xlink:href="#DejaVuSans-43" x="1187.96875"/>
      <use xlink:href="#DejaVuSans-41" x="1257.792969"/>
      <use xlink:href="#DejaVuSans-47" x="1324.451172"/>
      <use xlink:href="#DejaVuSans-47" x="1401.941406"/>
      <use xlink:href="#DejaVuSans-41" x="1479.431641"/>
      <use xlink:href="#DejaVuSans-41" x="1550.589844"/>
      <use xlink:href="#DejaVuSans-2d" x="1616.748047"/>
      <use xlink:href="#DejaVuSans-54" x="1643.707031"/>
      <use xlink:href="#DejaVuSans-41" x="1697.041016"/>
      <use xlink:href="#DejaVuSans-47" x="1763.699219"/>
      <use xlink:href="#DejaVuSans-47" x="1841.189453"/>
      <use xlink:href="#DejaVuSans-54" x="1915.054688"/>
      <use xlink:href="#DejaVuSans-54" x="1974.388672"/>
      <use xlink:href="#DejaVuSans-43" x="2029.597656"/>
      <use xlink:href="#DejaVuSans-54" x="2099.421875"/>
      <use xlink:href="#DejaVuSans-43" x="2154.630859"/>
      <use xlink:href="#DejaVuSans-54" x="2224.455078"/>
      <use xlink:href="#DejaVuSans-5f" x="2285.539062"/>
      <use xlink:href="#DejaVuSans-4c" x="2335.539062"/>
      <use xlink:href="#DejaVuSans-30" x="2391.251953"/>
      <use xlink:href="#DejaVuSans-30" x="2454.875"/>
      <use xlink:href="#DejaVuSans-36" x="2518.498047"/>
      <use xlink:href="#DejaVuSans-5f" x="2582.121094"/>
      <use xlink:href="#DejaVuSans-54" x="2632.121094"/>
      <use xlink:href="#DejaVuSans-31" x="2693.205078"/>
      <use xlink:href="#DejaVuSans-5f" x="2756.828125"/>
      <use xlink:href="#DejaVuSans-32" x="2806.828125"/>
     </g>
    </g>
   </g>
  </g>
 </g>
 <defs>
  <clipPath id="pfc0627fece">
   <rect x="40.600625" y="31.48286" width="944.845" height="242.5072"/>
  </clipPath>
 </defs>
</svg>
