<?xml version="1.0" encoding="utf-8" standalone="no"?>
<!DOCTYPE svg PUBLIC "-//W3C//DTD SVG 1.1//EN"
  "http://www.w3.org/Graphics/SVG/1.1/DTD/svg11.dtd">
<svg xmlns:xlink="http://www.w3.org/1999/xlink" width="1000.280625pt" height="330.541644pt" viewBox="0 0 1000.280625 330.541644" xmlns="http://www.w3.org/2000/svg" version="1.1">
 <metadata>
  <rdf:RDF xmlns:dc="http://purl.org/dc/elements/1.1/" xmlns:cc="http://creativecommons.org/ns#" xmlns:rdf="http://www.w3.org/1999/02/22-rdf-syntax-ns#">
   <cc:Work>
    <dc:type rdf:resource="http://purl.org/dc/dcmitype/StillImage"/>
    <dc:date>2023-11-08T20:01:21.289398</dc:date>
    <dc:format>image/svg+xml</dc:format>
    <dc:creator>
     <cc:Agent>
      <dc:title>Matplotlib v3.6.2, https://matplotlib.org/</dc:title>
     </cc:Agent>
    </dc:creator>
   </cc:Work>
  </rdf:RDF>
 </metadata>
 <defs>
  <style type="text/css">*{stroke-linejoin: round; stroke-linecap: butt}</style>
 </defs>
 <g id="figure_1">
  <g id="axes_1">
   <g id="patch_1">
    <path d="M 40.600625 273.99006 
L 985.445625 273.99006 
L 985.445625 31.48286 
L 40.600625 31.48286 
z
" style="fill: #ffffff"/>
   </g>
   <g id="matplotlib.axis_1">
    <g id="xtick_1">
     <g id="text_1">
      <!-- 0 -->
      <g transform="translate(38.055625 287.06881) scale(0.08 -0.08)">
       <defs>
        <path id="DejaVuSans-30" d="M 2034 4250 
Q 1547 4250 1301 3770 
Q 1056 3291 1056 2328 
Q 1056 1369 1301 889 
Q 1547 409 2034 409 
Q 2525 409 2770 889 
Q 3016 1369 3016 2328 
Q 3016 3291 2770 3770 
Q 2525 4250 2034 4250 
z
M 2034 4750 
Q 2819 4750 3233 4129 
Q 3647 3509 3647 2328 
Q 3647 1150 3233 529 
Q 2819 -91 2034 -91 
Q 1250 -91 836 529 
Q 422 1150 422 2328 
Q 422 3509 836 4129 
Q 1250 4750 2034 4750 
z
" transform="scale(0.015625)"/>
       </defs>
       <use xlink:href="#DejaVuSans-30"/>
      </g>
     </g>
    </g>
    <g id="xtick_2">
     <g id="text_2">
      <!-- 20 -->
      <g transform="translate(224.479625 287.06881) scale(0.08 -0.08)">
       <defs>
        <path id="DejaVuSans-32" d="M 1228 531 
L 3431 531 
L 3431 0 
L 469 0 
L 469 531 
Q 828 903 1448 1529 
Q 2069 2156 2228 2338 
Q 2531 2678 2651 2914 
Q 2772 3150 2772 3378 
Q 2772 3750 2511 3984 
Q 2250 4219 1831 4219 
Q 1534 4219 1204 4116 
Q 875 4013 500 3803 
L 500 4441 
Q 881 4594 1212 4672 
Q 1544 4750 1819 4750 
Q 2544 4750 2975 4387 
Q 3406 4025 3406 3419 
Q 3406 3131 3298 2873 
Q 3191 2616 2906 2266 
Q 2828 2175 2409 1742 
Q 1991 1309 1228 531 
z
" transform="scale(0.015625)"/>
       </defs>
       <use xlink:href="#DejaVuSans-32"/>
       <use xlink:href="#DejaVuSans-30" x="63.623047"/>
      </g>
     </g>
    </g>
    <g id="xtick_3">
     <g id="text_3">
      <!-- 40 -->
      <g transform="translate(413.448625 287.06881) scale(0.08 -0.08)">
       <defs>
        <path id="DejaVuSans-34" d="M 2419 4116 
L 825 1625 
L 2419 1625 
L 2419 4116 
z
M 2253 4666 
L 3047 4666 
L 3047 1625 
L 3713 1625 
L 3713 1100 
L 3047 1100 
L 3047 0 
L 2419 0 
L 2419 1100 
L 313 1100 
L 313 1709 
L 2253 4666 
z
" transform="scale(0.015625)"/>
       </defs>
       <use xlink:href="#DejaVuSans-34"/>
       <use xlink:href="#DejaVuSans-30" x="63.623047"/>
      </g>
     </g>
    </g>
    <g id="xtick_4">
     <g id="text_4">
      <!-- 60 -->
      <g transform="translate(602.417625 287.06881) scale(0.08 -0.08)">
       <defs>
        <path id="DejaVuSans-36" d="M 2113 2584 
Q 1688 2584 1439 2293 
Q 1191 2003 1191 1497 
Q 1191 994 1439 701 
Q 1688 409 2113 409 
Q 2538 409 2786 701 
Q 3034 994 3034 1497 
Q 3034 2003 2786 2293 
Q 2538 2584 2113 2584 
z
M 3366 4563 
L 3366 3988 
Q 3128 4100 2886 4159 
Q 2644 4219 2406 4219 
Q 1781 4219 1451 3797 
Q 1122 3375 1075 2522 
Q 1259 2794 1537 2939 
Q 1816 3084 2150 3084 
Q 2853 3084 3261 2657 
Q 3669 2231 3669 1497 
Q 3669 778 3244 343 
Q 2819 -91 2113 -91 
Q 1303 -91 875 529 
Q 447 1150 447 2328 
Q 447 3434 972 4092 
Q 1497 4750 2381 4750 
Q 2619 4750 2861 4703 
Q 3103 4656 3366 4563 
z
" transform="scale(0.015625)"/>
       </defs>
       <use xlink:href="#DejaVuSans-36"/>
       <use xlink:href="#DejaVuSans-30" x="63.623047"/>
      </g>
     </g>
    </g>
    <g id="xtick_5">
     <g id="text_5">
      <!-- 80 -->
      <g transform="translate(791.386625 287.06881) scale(0.08 -0.08)">
       <defs>
        <path id="DejaVuSans-38" d="M 2034 2216 
Q 1584 2216 1326 1975 
Q 1069 1734 1069 1313 
Q 1069 891 1326 650 
Q 1584 409 2034 409 
Q 2484 409 2743 651 
Q 3003 894 3003 1313 
Q 3003 1734 2745 1975 
Q 2488 2216 2034 2216 
z
M 1403 2484 
Q 997 2584 770 2862 
Q 544 3141 544 3541 
Q 544 4100 942 4425 
Q 1341 4750 2034 4750 
Q 2731 4750 3128 4425 
Q 3525 4100 3525 3541 
Q 3525 3141 3298 2862 
Q 3072 2584 2669 2484 
Q 3125 2378 3379 2068 
Q 3634 1759 3634 1313 
Q 3634 634 3220 271 
Q 2806 -91 2034 -91 
Q 1263 -91 848 271 
Q 434 634 434 1313 
Q 434 1759 690 2068 
Q 947 2378 1403 2484 
z
M 1172 3481 
Q 1172 3119 1398 2916 
Q 1625 2713 2034 2713 
Q 2441 2713 2670 2916 
Q 2900 3119 2900 3481 
Q 2900 3844 2670 4047 
Q 2441 4250 2034 4250 
Q 1625 4250 1398 4047 
Q 1172 3844 1172 3481 
z
" transform="scale(0.015625)"/>
       </defs>
       <use xlink:href="#DejaVuSans-38"/>
       <use xlink:href="#DejaVuSans-30" x="63.623047"/>
      </g>
     </g>
    </g>
    <g id="xtick_6">
     <g id="text_6">
      <!-- 100 -->
      <g transform="translate(977.810625 287.06881) scale(0.08 -0.08)">
       <defs>
        <path id="DejaVuSans-31" d="M 794 531 
L 1825 531 
L 1825 4091 
L 703 3866 
L 703 4441 
L 1819 4666 
L 2450 4666 
L 2450 531 
L 3481 531 
L 3481 0 
L 794 0 
L 794 531 
z
" transform="scale(0.015625)"/>
       </defs>
       <use xlink:href="#DejaVuSans-31"/>
       <use xlink:href="#DejaVuSans-30" x="63.623047"/>
       <use xlink:href="#DejaVuSans-30" x="127.246094"/>
      </g>
     </g>
    </g>
    <g id="text_7">
     <!-- % GC -->
     <g transform="translate(499.317656 300.330997) scale(0.1 -0.1)">
      <defs>
       <path id="DejaVuSans-25" d="M 4653 2053 
Q 4381 2053 4226 1822 
Q 4072 1591 4072 1178 
Q 4072 772 4226 539 
Q 4381 306 4653 306 
Q 4919 306 5073 539 
Q 5228 772 5228 1178 
Q 5228 1588 5073 1820 
Q 4919 2053 4653 2053 
z
M 4653 2450 
Q 5147 2450 5437 2106 
Q 5728 1763 5728 1178 
Q 5728 594 5436 251 
Q 5144 -91 4653 -91 
Q 4153 -91 3862 251 
Q 3572 594 3572 1178 
Q 3572 1766 3864 2108 
Q 4156 2450 4653 2450 
z
M 1428 4353 
Q 1159 4353 1004 4120 
Q 850 3888 850 3481 
Q 850 3069 1003 2837 
Q 1156 2606 1428 2606 
Q 1700 2606 1854 2837 
Q 2009 3069 2009 3481 
Q 2009 3884 1853 4118 
Q 1697 4353 1428 4353 
z
M 4250 4750 
L 4750 4750 
L 1831 -91 
L 1331 -91 
L 4250 4750 
z
M 1428 4750 
Q 1922 4750 2215 4408 
Q 2509 4066 2509 3481 
Q 2509 2891 2217 2550 
Q 1925 2209 1428 2209 
Q 931 2209 642 2551 
Q 353 2894 353 3481 
Q 353 4063 643 4406 
Q 934 4750 1428 4750 
z
" transform="scale(0.015625)"/>
       <path id="DejaVuSans-20" transform="scale(0.015625)"/>
       <path id="DejaVuSans-47" d="M 3809 666 
L 3809 1919 
L 2778 1919 
L 2778 2438 
L 4434 2438 
L 4434 434 
Q 4069 175 3628 42 
Q 3188 -91 2688 -91 
Q 1594 -91 976 548 
Q 359 1188 359 2328 
Q 359 3472 976 4111 
Q 1594 4750 2688 4750 
Q 3144 4750 3555 4637 
Q 3966 4525 4313 4306 
L 4313 3634 
Q 3963 3931 3569 4081 
Q 3175 4231 2741 4231 
Q 1884 4231 1454 3753 
Q 1025 3275 1025 2328 
Q 1025 1384 1454 906 
Q 1884 428 2741 428 
Q 3075 428 3337 486 
Q 3600 544 3809 666 
z
" transform="scale(0.015625)"/>
       <path id="DejaVuSans-43" d="M 4122 4306 
L 4122 3641 
Q 3803 3938 3442 4084 
Q 3081 4231 2675 4231 
Q 1875 4231 1450 3742 
Q 1025 3253 1025 2328 
Q 1025 1406 1450 917 
Q 1875 428 2675 428 
Q 3081 428 3442 575 
Q 3803 722 4122 1019 
L 4122 359 
Q 3791 134 3420 21 
Q 3050 -91 2638 -91 
Q 1578 -91 968 557 
Q 359 1206 359 2328 
Q 359 3453 968 4101 
Q 1578 4750 2638 4750 
Q 3056 4750 3426 4639 
Q 3797 4528 4122 4306 
z
" transform="scale(0.015625)"/>
      </defs>
      <use xlink:href="#DejaVuSans-25"/>
      <use xlink:href="#DejaVuSans-20" x="95.019531"/>
      <use xlink:href="#DejaVuSans-47" x="126.806641"/>
      <use xlink:href="#DejaVuSans-43" x="204.296875"/>
     </g>
    </g>
   </g>
   <g id="matplotlib.axis_2">
    <g id="ytick_1">
     <g id="line2d_1">
      <path d="M 40.600625 273.99006 
L 985.445625 273.99006 
" clip-path="url(#p477e65585d)" style="fill: none; stroke: #dedede; stroke-linecap: square"/>
     </g>
     <g id="text_8">
      <!-- 0.0 -->
      <g transform="translate(20.878125 277.029435) scale(0.08 -0.08)">
       <defs>
        <path id="DejaVuSans-2e" d="M 684 794 
L 1344 794 
L 1344 0 
L 684 0 
L 684 794 
z
" transform="scale(0.015625)"/>
       </defs>
       <use xlink:href="#DejaVuSans-30"/>
       <use xlink:href="#DejaVuSans-2e" x="63.623047"/>
       <use xlink:href="#DejaVuSans-30" x="95.410156"/>
      </g>
     </g>
    </g>
    <g id="ytick_2">
     <g id="line2d_2">
      <path d="M 40.600625 226.802339 
L 985.445625 226.802339 
" clip-path="url(#p477e65585d)" style="fill: none; stroke: #dedede; stroke-linecap: square"/>
     </g>
     <g id="text_9">
      <!-- 0.2 -->
      <g transform="translate(20.878125 229.841714) scale(0.08 -0.08)">
       <use xlink:href="#DejaVuSans-30"/>
       <use xlink:href="#DejaVuSans-2e" x="63.623047"/>
       <use xlink:href="#DejaVuSans-32" x="95.410156"/>
      </g>
     </g>
    </g>
    <g id="ytick_3">
     <g id="line2d_3">
      <path d="M 40.600625 179.614618 
L 985.445625 179.614618 
" clip-path="url(#p477e65585d)" style="fill: none; stroke: #dedede; stroke-linecap: square"/>
     </g>
     <g id="text_10">
      <!-- 0.4 -->
      <g transform="translate(20.878125 182.653993) scale(0.08 -0.08)">
       <use xlink:href="#DejaVuSans-30"/>
       <use xlink:href="#DejaVuSans-2e" x="63.623047"/>
       <use xlink:href="#DejaVuSans-34" x="95.410156"/>
      </g>
     </g>
    </g>
    <g id="ytick_4">
     <g id="line2d_4">
      <path d="M 40.600625 132.426897 
L 985.445625 132.426897 
" clip-path="url(#p477e65585d)" style="fill: none; stroke: #dedede; stroke-linecap: square"/>
     </g>
     <g id="text_11">
      <!-- 0.6 -->
      <g transform="translate(20.878125 135.466272) scale(0.08 -0.08)">
       <use xlink:href="#DejaVuSans-30"/>
       <use xlink:href="#DejaVuSans-2e" x="63.623047"/>
       <use xlink:href="#DejaVuSans-36" x="95.410156"/>
      </g>
     </g>
    </g>
    <g id="ytick_5">
     <g id="line2d_5">
      <path d="M 40.600625 85.239177 
L 985.445625 85.239177 
" clip-path="url(#p477e65585d)" style="fill: none; stroke: #dedede; stroke-linecap: square"/>
     </g>
     <g id="text_12">
      <!-- 0.8 -->
      <g transform="translate(20.878125 88.278552) scale(0.08 -0.08)">
       <use xlink:href="#DejaVuSans-30"/>
       <use xlink:href="#DejaVuSans-2e" x="63.623047"/>
       <use xlink:href="#DejaVuSans-38" x="95.410156"/>
      </g>
     </g>
    </g>
    <g id="ytick_6">
     <g id="line2d_6">
      <path d="M 40.600625 38.051456 
L 985.445625 38.051456 
" clip-path="url(#p477e65585d)" style="fill: none; stroke: #dedede; stroke-linecap: square"/>
     </g>
     <g id="text_13">
      <!-- 1.0 -->
      <g transform="translate(20.878125 41.090831) scale(0.08 -0.08)">
       <use xlink:href="#DejaVuSans-31"/>
       <use xlink:href="#DejaVuSans-2e" x="63.623047"/>
       <use xlink:href="#DejaVuSans-30" x="95.410156"/>
      </g>
     </g>
    </g>
    <g id="text_14">
     <!-- Count -->
     <g transform="translate(14.798438 167.584897) rotate(-90) scale(0.1 -0.1)">
      <defs>
       <path id="DejaVuSans-6f" d="M 1959 3097 
Q 1497 3097 1228 2736 
Q 959 2375 959 1747 
Q 959 1119 1226 758 
Q 1494 397 1959 397 
Q 2419 397 2687 759 
Q 2956 1122 2956 1747 
Q 2956 2369 2687 2733 
Q 2419 3097 1959 3097 
z
M 1959 3584 
Q 2709 3584 3137 3096 
Q 3566 2609 3566 1747 
Q 3566 888 3137 398 
Q 2709 -91 1959 -91 
Q 1206 -91 779 398 
Q 353 888 353 1747 
Q 353 2609 779 3096 
Q 1206 3584 1959 3584 
z
" transform="scale(0.015625)"/>
       <path id="DejaVuSans-75" d="M 544 1381 
L 544 3500 
L 1119 3500 
L 1119 1403 
Q 1119 906 1312 657 
Q 1506 409 1894 409 
Q 2359 409 2629 706 
Q 2900 1003 2900 1516 
L 2900 3500 
L 3475 3500 
L 3475 0 
L 2900 0 
L 2900 538 
Q 2691 219 2414 64 
Q 2138 -91 1772 -91 
Q 1169 -91 856 284 
Q 544 659 544 1381 
z
M 1991 3584 
L 1991 3584 
z
" transform="scale(0.015625)"/>
       <path id="DejaVuSans-6e" d="M 3513 2113 
L 3513 0 
L 2938 0 
L 2938 2094 
Q 2938 2591 2744 2837 
Q 2550 3084 2163 3084 
Q 1697 3084 1428 2787 
Q 1159 2491 1159 1978 
L 1159 0 
L 581 0 
L 581 3500 
L 1159 3500 
L 1159 2956 
Q 1366 3272 1645 3428 
Q 1925 3584 2291 3584 
Q 2894 3584 3203 3211 
Q 3513 2838 3513 2113 
z
" transform="scale(0.015625)"/>
       <path id="DejaVuSans-74" d="M 1172 4494 
L 1172 3500 
L 2356 3500 
L 2356 3053 
L 1172 3053 
L 1172 1153 
Q 1172 725 1289 603 
Q 1406 481 1766 481 
L 2356 481 
L 2356 0 
L 1766 0 
Q 1100 0 847 248 
Q 594 497 594 1153 
L 594 3053 
L 172 3053 
L 172 3500 
L 594 3500 
L 594 4494 
L 1172 4494 
z
" transform="scale(0.015625)"/>
      </defs>
      <use xlink:href="#DejaVuSans-43"/>
      <use xlink:href="#DejaVuSans-6f" x="69.824219"/>
      <use xlink:href="#DejaVuSans-75" x="131.005859"/>
      <use xlink:href="#DejaVuSans-6e" x="194.384766"/>
      <use xlink:href="#DejaVuSans-74" x="257.763672"/>
     </g>
    </g>
    <g id="text_15">
     <!-- 1e6 -->
     <g transform="translate(40.600625 28.48286) scale(0.1 -0.1)">
      <defs>
       <path id="DejaVuSans-65" d="M 3597 1894 
L 3597 1613 
L 953 1613 
Q 991 1019 1311 708 
Q 1631 397 2203 397 
Q 2534 397 2845 478 
Q 3156 559 3463 722 
L 3463 178 
Q 3153 47 2828 -22 
Q 2503 -91 2169 -91 
Q 1331 -91 842 396 
Q 353 884 353 1716 
Q 353 2575 817 3079 
Q 1281 3584 2069 3584 
Q 2775 3584 3186 3129 
Q 3597 2675 3597 1894 
z
M 3022 2063 
Q 3016 2534 2758 2815 
Q 2500 3097 2075 3097 
Q 1594 3097 1305 2825 
Q 1016 2553 972 2059 
L 3022 2063 
z
" transform="scale(0.015625)"/>
      </defs>
      <use xlink:href="#DejaVuSans-31"/>
      <use xlink:href="#DejaVuSans-65" x="63.623047"/>
      <use xlink:href="#DejaVuSans-36" x="125.146484"/>
     </g>
    </g>
   </g>
   <g id="line2d_7">
    <path d="M 40.600625 273.973072 
L 50.049075 273.968826 
L 59.497525 273.958916 
L 68.945975 273.948063 
L 78.394425 273.937446 
L 87.842875 273.926593 
L 97.291325 273.914206 
L 106.739775 273.89887 
L 116.188225 273.877281 
L 125.636675 273.852154 
L 135.085125 273.82797 
L 144.533575 273.80532 
L 153.982025 273.78149 
L 163.430475 273.744212 
L 172.878925 273.692188 
L 182.327375 273.628484 
L 191.775825 273.536822 
L 201.224275 273.371429 
L 210.672725 273.147995 
L 220.121175 272.807064 
L 229.569625 271.428593 
L 239.018075 270.277566 
L 248.466525 269.694562 
L 257.914975 268.260409 
L 267.363425 266.236174 
L 276.811875 263.737112 
L 286.260325 260.59264 
L 295.708775 256.632293 
L 305.157225 251.733853 
L 314.605675 245.39147 
L 324.054125 238.83568 
L 333.502575 233.027107 
L 342.951025 227.225731 
L 352.399475 221.382947 
L 361.847925 213.986862 
L 371.296375 208.086863 
L 380.744825 203.88692 
L 390.193275 199.194809 
L 399.641725 195.989465 
L 409.090175 191.746227 
L 418.538625 186.995604 
L 427.987075 183.699423 
L 437.435525 180.143947 
L 446.883975 177.428293 
L 456.332425 177.542252 
L 465.780875 177.860533 
L 475.229325 176.467315 
L 484.677775 175.808575 
L 494.126225 174.265536 
L 503.574675 175.090731 
L 513.023125 172.935904 
L 522.471575 169.662138 
L 531.920025 173.51879 
L 541.368475 173.788704 
L 550.816925 170.24644 
L 560.265375 165.337737 
L 569.713825 164.859608 
L 579.162275 172.878453 
L 588.610725 168.233176 
L 598.059175 163.321878 
L 607.507625 168.637811 
L 616.956075 182.134561 
L 626.404525 197.486142 
L 635.852975 207.164461 
L 645.301425 219.61848 
L 654.749875 228.596652 
L 664.198325 235.580317 
L 673.646775 240.844343 
L 683.095225 246.238607 
L 692.543675 251.747892 
L 701.992125 255.451184 
L 711.440575 257.664288 
L 720.889025 258.922077 
L 730.337475 259.345941 
L 739.785925 260.064846 
L 749.234375 260.79189 
L 758.682825 256.844991 
L 768.131275 254.535978 
L 777.579725 258.184061 
L 787.028175 262.413496 
L 796.476625 264.307612 
L 805.925075 263.455637 
L 815.373525 264.862775 
L 824.821975 266.714539 
L 834.270425 266.638213 
L 843.718875 265.804524 
L 853.167325 266.937383 
L 862.615775 270.486372 
L 872.064225 272.624211 
L 881.512675 273.470877 
L 890.961125 273.779249 
L 900.409575 273.876102 
L 909.858025 273.929306 
L 919.306475 273.959742 
L 928.754925 273.971067 
L 938.203375 273.976965 
L 947.651825 273.981684 
L 957.100275 273.981448 
L 966.548725 273.974016 
L 975.997175 273.978499 
L 985.445625 273.988998 
" clip-path="url(#p477e65585d)" style="fill: none; stroke: #d9534f; stroke-linecap: square"/>
   </g>
   <g id="line2d_8">
    <path d="M 40.600625 273.946883 
L 50.049075 273.954905 
L 59.497525 273.963871 
L 68.945975 273.964815 
L 78.394425 273.959506 
L 87.842875 273.943934 
L 97.291325 273.936148 
L 106.739775 273.932491 
L 116.188225 273.914442 
L 125.636675 273.896628 
L 135.085125 273.878225 
L 144.533575 273.850738 
L 153.982025 273.813106 
L 163.430475 273.779367 
L 172.878925 273.742678 
L 182.327375 273.678739 
L 191.775825 273.576342 
L 201.224275 273.416257 
L 210.672725 273.182324 
L 220.121175 272.778397 
L 229.569625 272.136644 
L 239.018075 271.255296 
L 248.466525 270.020275 
L 257.914975 267.798677 
L 267.363425 265.180348 
L 276.811875 262.65321 
L 286.260325 259.333672 
L 295.708775 254.621742 
L 305.157225 248.800783 
L 314.605675 243.559053 
L 324.054125 238.747557 
L 333.502575 233.234615 
L 342.951025 227.272565 
L 352.399475 221.975035 
L 361.847925 217.634709 
L 371.296375 212.659589 
L 380.744825 207.633743 
L 390.193275 202.914381 
L 399.641725 198.254948 
L 409.090175 194.157402 
L 418.538625 189.923838 
L 427.987075 184.870623 
L 437.435525 180.840555 
L 446.883975 179.92417 
L 456.332425 180.142059 
L 465.780875 179.880403 
L 475.229325 179.428463 
L 484.677775 179.145218 
L 494.126225 179.773995 
L 503.574675 180.944486 
L 513.023125 180.921482 
L 522.471575 178.173033 
L 531.920025 174.707803 
L 541.368475 173.664365 
L 550.816925 174.903278 
L 560.265375 175.434376 
L 569.713825 173.216199 
L 579.162275 170.572861 
L 588.610725 167.903688 
L 598.059175 164.783989 
L 607.507625 162.490784 
L 616.956075 167.300865 
L 626.404525 184.547151 
L 635.852975 201.753917 
L 645.301425 214.446942 
L 654.749875 225.84549 
L 664.198325 232.806269 
L 673.646775 238.310716 
L 683.095225 242.194148 
L 692.543675 246.450598 
L 701.992125 251.957287 
L 711.440575 255.134555 
L 720.889025 257.047309 
L 730.337475 257.348013 
L 739.785925 256.477635 
L 749.234375 256.348341 
L 758.682825 255.384767 
L 768.131275 254.002167 
L 777.579725 255.963525 
L 787.028175 260.940768 
L 796.476625 264.157201 
L 805.925075 264.650312 
L 815.373525 264.51276 
L 824.821975 263.382968 
L 834.270425 263.823112 
L 843.718875 265.354117 
L 853.167325 266.41938 
L 862.615775 269.121821 
L 872.064225 271.417739 
L 881.512675 272.251075 
L 890.961125 272.708913 
L 900.409575 273.082758 
L 909.858025 273.39927 
L 919.306475 273.622586 
L 928.754925 273.730881 
L 938.203375 273.809449 
L 947.651825 273.864659 
L 957.100275 273.85876 
L 966.548725 273.784675 
L 975.997175 273.421094 
L 985.445625 272.610881 
" clip-path="url(#p477e65585d)" style="fill: none; stroke: #d9534f; stroke-linecap: square"/>
   </g>
   <g id="line2d_9">
    <path d="M 40.600625 273.981094 
L 50.049075 273.976494 
L 59.497525 273.964697 
L 68.945975 273.955967 
L 78.394425 273.949007 
L 87.842875 273.937918 
L 97.291325 273.925295 
L 106.739775 273.912554 
L 116.188225 273.891674 
L 125.636675 273.870321 
L 135.085125 273.85298 
L 144.533575 273.822072 
L 153.982025 273.792225 
L 163.430475 273.766626 
L 172.878925 273.725927 
L 182.327375 273.670835 
L 191.775825 273.589436 
L 201.224275 273.449761 
L 210.672725 273.267852 
L 220.121175 272.996994 
L 229.569625 271.984582 
L 239.018075 271.116564 
L 248.466525 270.645866 
L 257.914975 269.531292 
L 267.363425 267.900839 
L 276.811875 265.954227 
L 286.260325 263.509195 
L 295.708775 260.26209 
L 305.157225 256.354475 
L 314.605675 251.410146 
L 324.054125 246.064603 
L 333.502575 241.211935 
L 342.951025 236.465912 
L 352.399475 231.644389 
L 361.847925 225.635623 
L 371.296375 220.727392 
L 380.744825 217.282098 
L 390.193275 213.312549 
L 399.641725 210.395994 
L 409.090175 206.930528 
L 418.538625 202.837937 
L 427.987075 200.052918 
L 437.435525 197.184612 
L 446.883975 194.815199 
L 456.332425 194.744535 
L 465.780875 194.748546 
L 475.229325 193.443098 
L 484.677775 192.772796 
L 494.126225 191.533529 
L 503.574675 192.015433 
L 513.023125 189.924427 
L 522.471575 187.105433 
L 531.920025 189.944836 
L 541.368475 189.995445 
L 550.816925 187.017074 
L 560.265375 182.97462 
L 569.713825 182.759444 
L 579.162275 188.836633 
L 588.610725 184.381168 
L 598.059175 180.187949 
L 607.507625 185.238805 
L 616.956075 196.43244 
L 626.404525 208.665503 
L 635.852975 217.060434 
L 645.301425 227.423448 
L 654.749875 235.092396 
L 664.198325 241.076035 
L 673.646775 245.355135 
L 683.095225 250.013743 
L 692.543675 254.854259 
L 701.992125 258.013595 
L 711.440575 259.928001 
L 720.889025 260.960587 
L 730.337475 261.28394 
L 739.785925 261.891364 
L 749.234375 262.401228 
L 758.682825 259.161083 
L 768.131275 257.381044 
L 777.579725 260.540262 
L 787.028175 263.993931 
L 796.476625 265.347629 
L 805.925075 264.586845 
L 815.373525 265.792137 
L 824.821975 267.506703 
L 834.270425 267.61146 
L 843.718875 267.037303 
L 853.167325 267.908507 
L 862.615775 270.87803 
L 872.064225 272.791728 
L 881.512675 273.499308 
L 890.961125 273.777715 
L 900.409575 273.867844 
L 909.858025 273.925767 
L 919.306475 273.959978 
L 928.754925 273.973662 
L 938.203375 273.978735 
L 947.651825 273.98192 
L 957.100275 273.98192 
L 966.548725 273.978145 
L 975.997175 273.98251 
L 985.445625 273.99006 
" clip-path="url(#p477e65585d)" style="fill: none; stroke: #d9534f; stroke-linecap: square"/>
   </g>
   <g id="line2d_10">
    <path d="M 40.600625 273.959624 
L 50.049075 273.963635 
L 59.497525 273.967646 
L 68.945975 273.968826 
L 78.394425 273.967882 
L 87.842875 273.957383 
L 97.291325 273.947591 
L 106.739775 273.944052 
L 116.188225 273.93544 
L 125.636675 273.922464 
L 135.085125 273.906656 
L 144.533575 273.884124 
L 153.982025 273.855811 
L 163.430475 273.824195 
L 172.878925 273.786917 
L 182.327375 273.73041 
L 191.775825 273.645826 
L 201.224275 273.541305 
L 210.672725 273.375204 
L 220.121175 273.069899 
L 229.569625 272.607342 
L 239.018075 271.932086 
L 248.466525 271.003667 
L 257.914975 269.328857 
L 267.363425 267.266989 
L 276.811875 265.28947 
L 286.260325 262.689427 
L 295.708775 258.956642 
L 305.157225 254.321982 
L 314.605675 250.021529 
L 324.054125 246.070265 
L 333.502575 241.788687 
L 342.951025 236.953244 
L 352.399475 232.516654 
L 361.847925 228.668613 
L 371.296375 224.533436 
L 380.744825 220.612254 
L 390.193275 216.687651 
L 399.641725 212.855418 
L 409.090175 209.485625 
L 418.538625 205.892398 
L 427.987075 201.580738 
L 437.435525 198.164111 
L 446.883975 197.215638 
L 456.332425 197.220593 
L 465.780875 196.858309 
L 475.229325 196.352103 
L 484.677775 196.038069 
L 494.126225 196.395398 
L 503.574675 197.019809 
L 513.023125 196.607506 
L 522.471575 194.42531 
L 531.920025 191.784213 
L 541.368475 190.581752 
L 550.816925 191.125591 
L 560.265375 191.614574 
L 569.713825 189.879953 
L 579.162275 187.461818 
L 588.610725 185.145963 
L 598.059175 182.425827 
L 607.507625 180.143593 
L 616.956075 183.753571 
L 626.404525 197.351775 
L 635.852975 211.510214 
L 645.301425 222.532558 
L 654.749875 232.077454 
L 664.198325 238.295144 
L 673.646775 243.087529 
L 683.095225 246.455199 
L 692.543675 250.209336 
L 701.992125 254.698422 
L 711.440575 257.514349 
L 720.889025 259.232926 
L 730.337475 259.540944 
L 739.785925 258.92479 
L 749.234375 258.754914 
L 758.682825 257.935736 
L 768.131275 256.798394 
L 777.579725 258.318664 
L 787.028175 262.201034 
L 796.476625 264.981688 
L 805.925075 265.591118 
L 815.373525 265.474682 
L 824.821975 264.839771 
L 834.270425 265.055537 
L 843.718875 266.206327 
L 853.167325 267.251064 
L 862.615775 269.330509 
L 872.064225 271.285614 
L 881.512675 272.125555 
L 890.961125 272.586933 
L 900.409575 272.972693 
L 909.858025 273.297698 
L 919.306475 273.538709 
L 928.754925 273.667532 
L 938.203375 273.773114 
L 947.651825 273.857816 
L 957.100275 273.862417 
L 966.548725 273.796708 
L 975.997175 273.464153 
L 985.445625 272.601797 
" clip-path="url(#p477e65585d)" style="fill: none; stroke: #d9534f; stroke-linecap: square"/>
   </g>
   <g id="line2d_11">
    <path d="M 40.600625 273.971657 
L 50.049075 273.964343 
L 59.497525 273.951956 
L 68.945975 273.943108 
L 78.394425 273.930014 
L 87.842875 273.908071 
L 97.291325 273.886955 
L 106.739775 273.860412 
L 116.188225 273.82856 
L 125.636675 273.799658 
L 135.085125 273.766272 
L 144.533575 273.71932 
L 153.982025 273.670835 
L 163.430475 273.624355 
L 172.878925 273.55841 
L 182.327375 273.458726 
L 191.775825 273.309495 
L 201.224275 273.081696 
L 210.672725 272.781229 
L 220.121175 272.326575 
L 229.569625 270.622508 
L 239.018075 269.188945 
L 248.466525 268.40209 
L 257.914975 266.424453 
L 267.363425 263.760234 
L 276.811875 260.478918 
L 286.260325 256.061557 
L 295.708775 250.442326 
L 305.157225 243.784138 
L 314.605675 234.990824 
L 324.054125 224.873187 
L 333.502575 215.70886 
L 342.951025 206.70733 
L 352.399475 197.370414 
L 361.847925 185.969507 
L 371.296375 176.693226 
L 380.744825 169.629461 
L 390.193275 162.025513 
L 399.641725 157.162465 
L 409.090175 150.51749 
L 418.538625 142.736589 
L 427.987075 137.288648 
L 437.435525 130.813903 
L 446.883975 125.850227 
L 456.332425 126.372005 
L 465.780875 126.393004 
L 475.229325 123.465949 
L 484.677775 123.018492 
L 494.126225 120.418094 
L 503.574675 120.177437 
L 513.023125 116.083194 
L 522.471575 110.799703 
L 531.920025 117.462373 
L 541.368475 118.058236 
L 550.816925 111.10312 
L 560.265375 101.415717 
L 569.713825 96.838862 
L 579.162275 111.304612 
L 588.610725 110.61107 
L 598.059175 103.547068 
L 607.507625 106.662756 
L 616.956075 125.606502 
L 626.404525 152.158915 
L 635.852975 167.313959 
L 645.301425 186.699737 
L 654.749875 201.639487 
L 664.198325 212.862025 
L 673.646775 221.73485 
L 683.095225 230.273232 
L 692.543675 238.438949 
L 701.992125 243.878396 
L 711.440575 247.018738 
L 720.889025 248.904832 
L 730.337475 250.161913 
L 739.785925 252.257755 
L 749.234375 253.646136 
L 758.682825 248.208223 
L 768.131275 245.390526 
L 777.579725 252.14014 
L 787.028175 257.536763 
L 796.476625 258.513785 
L 805.925075 257.455483 
L 815.373525 258.670684 
L 824.821975 260.765111 
L 834.270425 261.267189 
L 843.718875 259.397729 
L 853.167325 259.967757 
L 862.615775 266.277109 
L 872.064225 270.962024 
L 881.512675 272.882092 
L 890.961125 273.523491 
L 900.409575 273.759548 
L 909.858025 273.850384 
L 919.306475 273.913616 
L 928.754925 273.950776 
L 938.203375 273.96682 
L 947.651825 273.973426 
L 957.100275 273.973072 
L 966.548725 273.9575 
L 975.997175 273.965404 
L 985.445625 273.988762 
" clip-path="url(#p477e65585d)" style="fill: none; stroke: #d9534f; stroke-linecap: square"/>
   </g>
   <g id="line2d_12">
    <path d="M 40.600625 273.938389 
L 50.049075 273.943816 
L 59.497525 273.950776 
L 68.945975 273.95172 
L 78.394425 273.947827 
L 87.842875 273.93721 
L 97.291325 273.927418 
L 106.739775 273.917981 
L 116.188225 273.890966 
L 125.636675 273.861709 
L 135.085125 273.836582 
L 144.533575 273.80414 
L 153.982025 273.756363 
L 163.430475 273.701743 
L 172.878925 273.634501 
L 182.327375 273.527856 
L 191.775825 273.377681 
L 201.224275 273.171117 
L 210.672725 272.858852 
L 220.121175 272.343091 
L 229.569625 271.535591 
L 239.018075 270.396361 
L 248.466525 268.747268 
L 257.914975 265.855133 
L 267.363425 262.526157 
L 276.811875 259.060573 
L 286.260325 254.255093 
L 295.708775 247.746963 
L 305.157225 239.582426 
L 314.605675 231.500231 
L 324.054125 223.809458 
L 333.502575 215.190385 
L 342.951025 205.757795 
L 352.399475 196.906912 
L 361.847925 189.184524 
L 371.296375 181.303467 
L 380.744825 173.471013 
L 390.193275 165.899861 
L 399.641725 159.062832 
L 409.090175 153.081081 
L 418.538625 146.058014 
L 427.987075 137.380074 
L 437.435525 130.341554 
L 446.883975 128.592423 
L 456.332425 129.134728 
L 465.780875 129.364532 
L 475.229325 129.086125 
L 484.677775 128.305168 
L 494.126225 128.648459 
L 503.574675 130.003218 
L 513.023125 129.509752 
L 522.471575 125.856243 
L 531.920025 122.396793 
L 541.368475 120.637753 
L 550.816925 120.042008 
L 560.265375 120.127064 
L 569.713825 115.721618 
L 579.162275 110.683503 
L 588.610725 106.123754 
L 598.059175 100.128318 
L 607.507625 94.875381 
L 616.956075 102.587506 
L 626.404525 131.788565 
L 635.852975 159.31741 
L 645.301425 180.023028 
L 654.749875 198.707596 
L 664.198325 209.808625 
L 673.646775 218.401391 
L 683.095225 225.318049 
L 692.543675 232.148354 
L 701.992125 240.361613 
L 711.440575 245.506844 
L 720.889025 248.754539 
L 730.337475 249.618428 
L 739.785925 247.733043 
L 749.234375 247.174104 
L 758.682825 246.861249 
L 768.131275 245.944746 
L 777.579725 248.538891 
L 787.028175 254.710337 
L 796.476625 259.127579 
L 805.925075 259.638269 
L 815.373525 259.056208 
L 824.821975 257.485093 
L 834.270425 257.654261 
L 843.718875 258.472968 
L 853.167325 258.943547 
L 862.615775 262.745344 
L 872.064225 266.210456 
L 881.512675 268.383687 
L 890.961125 270.290779 
L 900.409575 271.29977 
L 909.858025 271.970426 
L 919.306475 272.521342 
L 928.754925 272.835848 
L 938.203375 273.159674 
L 947.651825 273.565606 
L 957.100275 273.697496 
L 966.548725 273.639455 
L 975.997175 273.172887 
L 985.445625 272.059138 
" clip-path="url(#p477e65585d)" style="fill: none; stroke: #d9534f; stroke-linecap: square"/>
   </g>
   <g id="line2d_13">
    <path d="M 40.600625 273.979679 
L 50.049075 273.974252 
L 59.497525 273.963517 
L 68.945975 273.950422 
L 78.394425 273.939333 
L 87.842875 273.926828 
L 97.291325 273.907599 
L 106.739775 273.887899 
L 116.188225 273.852744 
L 125.636675 273.812398 
L 135.085125 273.782316 
L 144.533575 273.744566 
L 153.982025 273.702451 
L 163.430475 273.658448 
L 172.878925 273.609491 
L 182.327375 273.54508 
L 191.775825 273.432537 
L 201.224275 273.252752 
L 210.672725 273.022004 
L 220.121175 272.673876 
L 229.569625 271.443103 
L 239.018075 270.288183 
L 248.466525 269.60927 
L 257.914975 268.139608 
L 267.363425 266.064056 
L 276.811875 263.503887 
L 286.260325 260.068385 
L 295.708775 255.63038 
L 305.157225 250.283185 
L 314.605675 243.374431 
L 324.054125 235.408672 
L 333.502575 227.811213 
L 342.951025 220.341514 
L 352.399475 212.706423 
L 361.847925 203.734858 
L 371.296375 196.248998 
L 380.744825 190.285296 
L 390.193275 184.050146 
L 399.641725 179.841001 
L 409.090175 174.416655 
L 418.538625 168.008208 
L 427.987075 163.474294 
L 437.435525 158.208381 
L 446.883975 153.81603 
L 456.332425 153.66149 
L 465.780875 153.67777 
L 475.229325 151.426089 
L 484.677775 150.582137 
L 494.126225 148.327272 
L 503.574675 148.02704 
L 513.023125 144.330708 
L 522.471575 139.539974 
L 531.920025 144.462008 
L 541.368475 144.775334 
L 550.816925 138.922523 
L 560.265375 131.159671 
L 569.713825 127.749415 
L 579.162275 138.407941 
L 588.610725 136.930729 
L 598.059175 131.171586 
L 607.507625 134.924661 
L 616.956075 149.930593 
L 626.404525 170.80821 
L 635.852975 184.156436 
L 645.301425 199.848359 
L 654.749875 212.420584 
L 664.198325 222.038503 
L 673.646775 229.36416 
L 683.095225 236.536458 
L 692.543675 243.758067 
L 701.992125 248.387536 
L 711.440575 251.080186 
L 720.889025 252.710757 
L 730.337475 253.68483 
L 739.785925 255.446111 
L 749.234375 256.408977 
L 758.682825 251.974039 
L 768.131275 249.757278 
L 777.579725 255.066486 
L 787.028175 259.594502 
L 796.476625 260.52292 
L 805.925075 259.586598 
L 815.373525 260.633104 
L 824.821975 262.538308 
L 834.270425 263.142901 
L 843.718875 261.836509 
L 853.167325 262.2402 
L 862.615775 267.339423 
L 872.064225 271.360052 
L 881.512675 272.966204 
L 890.961125 273.570679 
L 900.409575 273.783614 
L 909.858025 273.863125 
L 919.306475 273.918807 
L 928.754925 273.951956 
L 938.203375 273.968236 
L 947.651825 273.977437 
L 957.100275 273.976729 
L 966.548725 273.963399 
L 975.997175 273.971067 
L 985.445625 273.989234 
" clip-path="url(#p477e65585d)" style="fill: none; stroke: #d9534f; stroke-linecap: square"/>
   </g>
   <g id="line2d_14">
    <path d="M 40.600625 273.956793 
L 50.049075 273.954905 
L 59.497525 273.955495 
L 68.945975 273.95868 
L 78.394425 273.957618 
L 87.842875 273.946411 
L 97.291325 273.935912 
L 106.739775 273.929542 
L 116.188225 273.914324 
L 125.636675 273.895685 
L 135.085125 273.870321 
L 144.533575 273.836582 
L 153.982025 273.794821 
L 163.430475 273.75306 
L 172.878925 273.700563 
L 182.327375 273.621406 
L 191.775825 273.51252 
L 201.224275 273.361755 
L 210.672725 273.138911 
L 220.121175 272.768606 
L 229.569625 272.174394 
L 239.018075 271.285614 
L 248.466525 270.065693 
L 257.914975 268.038627 
L 267.363425 265.45274 
L 276.811875 262.774129 
L 286.260325 259.182435 
L 295.708775 254.031895 
L 305.157225 247.615309 
L 314.605675 241.237535 
L 324.054125 235.059364 
L 333.502575 228.14365 
L 342.951025 220.4806 
L 352.399475 213.264654 
L 361.847925 206.85255 
L 371.296375 200.376626 
L 380.744825 194.107737 
L 390.193275 188.108526 
L 399.641725 182.505338 
L 409.090175 177.399863 
L 418.538625 171.783934 
L 427.987075 164.918474 
L 437.435525 158.986034 
L 446.883975 156.66546 
L 456.332425 156.450756 
L 465.780875 156.532981 
L 475.229325 156.328304 
L 484.677775 155.6895 
L 494.126225 155.65293 
L 503.574675 156.191695 
L 513.023125 155.52859 
L 522.471575 152.890206 
L 531.920025 149.663628 
L 541.368475 147.686581 
L 550.816925 147.137433 
L 560.265375 146.855133 
L 569.713825 143.365483 
L 579.162275 139.186067 
L 588.610725 135.372355 
L 598.059175 130.229483 
L 607.507625 125.075758 
L 616.956075 129.875103 
L 626.404525 151.824118 
L 635.852975 174.816217 
L 645.301425 192.676179 
L 654.749875 208.201647 
L 664.198325 218.448933 
L 673.646775 226.10113 
L 683.095225 232.054097 
L 692.543675 237.81147 
L 701.992125 244.482045 
L 711.440575 249.167903 
L 720.889025 252.139668 
L 730.337475 252.947876 
L 739.785925 251.559731 
L 749.234375 250.875627 
L 758.682825 250.531982 
L 768.131275 249.845873 
L 777.579725 251.624378 
L 787.028175 256.372053 
L 796.476625 260.392682 
L 805.925075 261.363334 
L 815.373525 260.985124 
L 824.821975 259.953129 
L 834.270425 259.920451 
L 843.718875 260.688785 
L 853.167325 261.337734 
L 862.615775 264.072381 
L 872.064225 267.123185 
L 881.512675 269.037001 
L 890.961125 270.596319 
L 900.409575 271.620765 
L 909.858025 272.182298 
L 919.306475 272.516505 
L 928.754925 272.707852 
L 938.203375 273.021178 
L 947.651825 273.461558 
L 957.100275 273.633793 
L 966.548725 273.597694 
L 975.997175 273.186335 
L 985.445625 272.032006 
" clip-path="url(#p477e65585d)" style="fill: none; stroke: #d9534f; stroke-linecap: square"/>
   </g>
   <g id="line2d_15">
    <path d="M 40.600625 273.664701 
L 50.049075 273.719556 
L 59.497525 273.78444 
L 68.945975 273.801545 
L 78.394425 273.813578 
L 87.842875 273.820302 
L 97.291325 273.810275 
L 106.739775 273.798006 
L 116.188225 273.79199 
L 125.636675 273.778659 
L 135.085125 273.749521 
L 144.533575 273.705872 
L 153.982025 273.65951 
L 163.430475 273.60666 
L 172.878925 273.532457 
L 182.327375 273.373316 
L 191.775825 273.168994 
L 201.224275 272.949807 
L 210.672725 272.603449 
L 220.121175 271.524855 
L 229.569625 269.576003 
L 239.018075 268.346998 
L 248.466525 267.217678 
L 257.914975 264.793645 
L 267.363425 261.47741 
L 276.811875 257.294808 
L 286.260325 251.775969 
L 295.708775 244.993441 
L 305.157225 236.995123 
L 314.605675 227.4297 
L 324.054125 217.988971 
L 333.502575 207.411017 
L 342.951025 193.212704 
L 352.399475 182.882604 
L 361.847925 174.78059 
L 371.296375 165.668641 
L 380.744825 157.167419 
L 390.193275 149.097139 
L 399.641725 141.951857 
L 409.090175 132.101302 
L 418.538625 122.222553 
L 427.987075 114.888755 
L 437.435525 106.216714 
L 446.883975 100.715569 
L 456.332425 101.12917 
L 465.780875 99.635088 
L 475.229325 93.509061 
L 484.677775 88.786631 
L 494.126225 86.175263 
L 503.574675 86.769356 
L 513.023125 84.692153 
L 522.471575 67.165808 
L 531.920025 66.99605 
L 541.368475 66.639075 
L 550.816925 46.479301 
L 560.265375 49.462508 
L 569.713825 64.035492 
L 579.162275 69.00955 
L 588.610725 61.221688 
L 598.059175 49.507573 
L 607.507625 49.669662 
L 616.956075 75.469431 
L 626.404525 107.981181 
L 635.852975 126.595675 
L 645.301425 149.078146 
L 654.749875 172.150936 
L 664.198325 187.722059 
L 673.646775 199.015496 
L 683.095225 210.169257 
L 692.543675 219.386317 
L 701.992125 224.305873 
L 711.440575 227.244606 
L 720.889025 229.564118 
L 730.337475 234.304125 
L 739.785925 239.740858 
L 749.234375 237.727358 
L 758.682825 230.674799 
L 768.131275 229.716063 
L 777.579725 237.659526 
L 787.028175 244.124008 
L 796.476625 242.569408 
L 805.925075 240.198815 
L 815.373525 245.260524 
L 824.821975 249.078482 
L 834.270425 250.69419 
L 843.718875 251.470428 
L 853.167325 251.110976 
L 862.615775 256.657538 
L 872.064225 264.602889 
L 881.512675 270.632182 
L 890.961125 272.673641 
L 900.409575 273.390186 
L 909.858025 273.668476 
L 919.306475 273.802135 
L 928.754925 273.883298 
L 938.203375 273.926475 
L 947.651825 273.94995 
L 957.100275 273.944288 
L 966.548725 273.854631 
L 975.997175 273.880584 
L 985.445625 273.985695 
" clip-path="url(#p477e65585d)" style="fill: none; stroke: #f0ad4e; stroke-linecap: square"/>
   </g>
   <g id="line2d_16">
    <path d="M 40.600625 273.909133 
L 50.049075 273.924115 
L 59.497525 273.943816 
L 68.945975 273.951366 
L 78.394425 273.948653 
L 87.842875 273.938154 
L 97.291325 273.933317 
L 106.739775 273.922346 
L 116.188225 273.895213 
L 125.636675 273.868788 
L 135.085125 273.841773 
L 144.533575 273.807797 
L 153.982025 273.762497 
L 163.430475 273.700563 
L 172.878925 273.622586 
L 182.327375 273.522312 
L 191.775825 273.380395 
L 201.224275 273.162387 
L 210.672725 272.830186 
L 220.121175 272.335305 
L 229.569625 271.565083 
L 239.018075 270.42255 
L 248.466525 268.749982 
L 257.914975 265.967086 
L 267.363425 262.47661 
L 276.811875 258.724124 
L 286.260325 253.434971 
L 295.708775 246.352802 
L 305.157225 238.184961 
L 314.605675 230.21236 
L 324.054125 222.120373 
L 333.502575 212.469541 
L 342.951025 202.45029 
L 352.399475 193.347661 
L 361.847925 184.771528 
L 371.296375 175.578299 
L 380.744825 166.090382 
L 390.193275 156.707457 
L 399.641725 148.118584 
L 409.090175 139.974219 
L 418.538625 130.748312 
L 427.987075 119.524123 
L 437.435525 109.897592 
L 446.883975 103.245067 
L 456.332425 100.707193 
L 465.780875 101.624051 
L 475.229325 100.560086 
L 484.677775 96.443783 
L 494.126225 93.252005 
L 503.574675 92.752877 
L 513.023125 90.923999 
L 522.471575 86.765345 
L 531.920025 81.072973 
L 541.368475 75.981064 
L 550.816925 74.900583 
L 560.265375 72.094447 
L 569.713825 63.141639 
L 579.162275 55.150162 
L 588.610725 43.52877 
L 598.059175 43.030822 
L 607.507625 49.209818 
L 616.956075 45.143062 
L 626.404525 61.756207 
L 635.852975 99.096677 
L 645.301425 134.88467 
L 654.749875 161.75324 
L 664.198325 175.825798 
L 673.646775 187.687376 
L 683.095225 201.37559 
L 692.543675 211.43318 
L 701.992125 220.631129 
L 711.440575 228.192961 
L 720.889025 233.183771 
L 730.337475 235.8776 
L 739.785925 234.419145 
L 749.234375 231.266062 
L 758.682825 228.592051 
L 768.131275 226.387677 
L 777.579725 229.621805 
L 787.028175 238.892659 
L 796.476625 245.809671 
L 805.925075 247.292781 
L 815.373525 246.517251 
L 824.821975 242.921901 
L 834.270425 242.774793 
L 843.718875 244.105722 
L 853.167325 243.887597 
L 862.615775 249.126024 
L 872.064225 255.580714 
L 881.512675 261.585824 
L 890.961125 266.473882 
L 900.409575 269.037945 
L 909.858025 270.222828 
L 919.306475 270.865643 
L 928.754925 271.298472 
L 938.203375 271.909553 
L 947.651825 272.578793 
L 957.100275 272.661254 
L 966.548725 272.531134 
L 975.997175 270.25468 
L 985.445625 264.867258 
" clip-path="url(#p477e65585d)" style="fill: none; stroke: #d9534f; stroke-linecap: square"/>
   </g>
   <g id="line2d_17">
    <path d="M 40.600625 273.72864 
L 50.049075 273.768986 
L 59.497525 273.821836 
L 68.945975 273.841183 
L 78.394425 273.848261 
L 87.842875 273.843424 
L 97.291325 273.834694 
L 106.739775 273.821836 
L 116.188225 273.806264 
L 125.636675 273.794349 
L 135.085125 273.778895 
L 144.533575 273.750464 
L 153.982025 273.708703 
L 163.430475 273.645 
L 172.878925 273.575634 
L 182.327375 273.470995 
L 191.775825 273.314214 
L 201.224275 273.137496 
L 210.672725 272.851774 
L 220.121175 272.013248 
L 229.569625 270.594196 
L 239.018075 269.605141 
L 248.466525 268.652893 
L 257.914975 266.790511 
L 267.363425 264.306196 
L 276.811875 261.085044 
L 286.260325 256.695524 
L 295.708775 251.374165 
L 305.157225 245.11613 
L 314.605675 237.664245 
L 324.054125 230.05959 
L 333.502575 221.855061 
L 342.951025 210.985487 
L 352.399475 202.41136 
L 361.847925 195.745859 
L 371.296375 188.359447 
L 380.744825 181.43807 
L 390.193275 174.796634 
L 399.641725 168.750707 
L 409.090175 160.827889 
L 418.538625 152.689777 
L 427.987075 146.756629 
L 437.435525 139.653933 
L 446.883975 134.679875 
L 456.332425 134.476378 
L 465.780875 132.841677 
L 475.229325 127.949608 
L 484.677775 124.004361 
L 494.126225 121.708914 
L 503.574675 121.733098 
L 513.023125 119.185315 
L 522.471575 104.761444 
L 531.920025 104.097867 
L 541.368475 103.705147 
L 550.816925 87.903631 
L 560.265375 89.706556 
L 569.713825 100.82068 
L 579.162275 104.490587 
L 588.610725 97.909551 
L 598.059175 88.686947 
L 607.507625 89.256975 
L 616.956075 109.245458 
L 626.404525 135.284586 
L 635.852975 151.438948 
L 645.301425 169.533434 
L 654.749875 188.446626 
L 664.198325 201.469847 
L 673.646775 210.823869 
L 683.095225 220.17388 
L 692.543675 227.978493 
L 701.992125 232.247212 
L 711.440575 234.888899 
L 720.889025 237.060124 
L 730.337475 240.759287 
L 739.785925 244.947315 
L 749.234375 243.066059 
L 758.682825 237.263621 
L 768.131275 236.693239 
L 777.579725 243.089653 
L 787.028175 248.30425 
L 796.476625 247.307763 
L 805.925075 245.322458 
L 815.373525 249.285637 
L 824.821975 252.820469 
L 834.270425 254.274322 
L 843.718875 255.174664 
L 853.167325 255.173838 
L 862.615775 259.695484 
L 872.064225 266.250684 
L 881.512675 271.068196 
L 890.961125 272.809777 
L 900.409575 273.424515 
L 909.858025 273.679683 
L 919.306475 273.808977 
L 928.754925 273.88377 
L 938.203375 273.926357 
L 947.651825 273.945939 
L 957.100275 273.934143 
L 966.548725 273.854159 
L 975.997175 273.885657 
L 985.445625 273.985223 
" clip-path="url(#p477e65585d)" style="fill: none; stroke: #f0ad4e; stroke-linecap: square"/>
   </g>
   <g id="line2d_18">
    <path d="M 40.600625 273.938389 
L 50.049075 273.943934 
L 59.497525 273.953725 
L 68.945975 273.96045 
L 78.394425 273.958326 
L 87.842875 273.949007 
L 97.291325 273.940395 
L 106.739775 273.933317 
L 116.188225 273.918453 
L 125.636675 273.89828 
L 135.085125 273.873034 
L 144.533575 273.842716 
L 153.982025 273.813342 
L 163.430475 273.770165 
L 172.878925 273.703866 
L 182.327375 273.612912 
L 191.775825 273.49742 
L 201.224275 273.334741 
L 210.672725 273.107296 
L 220.121175 272.746428 
L 229.569625 272.155991 
L 239.018075 271.282193 
L 248.466525 270.038206 
L 257.914975 267.986838 
L 267.363425 265.347157 
L 276.811875 262.529932 
L 286.260325 258.551771 
L 295.708775 253.064311 
L 305.157225 246.712018 
L 314.605675 240.316666 
L 324.054125 233.962722 
L 333.502575 226.545048 
L 342.951025 218.57457 
L 352.399475 211.210926 
L 361.847925 204.438663 
L 371.296375 197.283824 
L 380.744825 189.53678 
L 390.193275 181.822178 
L 399.641725 174.760653 
L 409.090175 168.03428 
L 418.538625 160.87838 
L 427.987075 152.03139 
L 437.435525 143.718211 
L 446.883975 137.82942 
L 456.332425 135.166263 
L 465.780875 135.537158 
L 475.229325 134.520499 
L 484.677775 131.016102 
L 494.126225 128.066044 
L 503.574675 127.077933 
L 513.023125 125.448187 
L 522.471575 122.431004 
L 531.920025 117.755291 
L 541.368475 113.365653 
L 550.816925 111.801145 
L 560.265375 109.253362 
L 569.713825 102.242564 
L 579.162275 94.857332 
L 588.610725 85.847662 
L 598.059175 84.118114 
L 607.507625 87.563526 
L 616.956075 85.821473 
L 626.404525 97.381757 
L 635.852975 125.284446 
L 645.301425 154.89946 
L 654.749875 177.75554 
L 664.198325 190.816039 
L 673.646775 200.792349 
L 683.095225 211.838523 
L 692.543675 220.634196 
L 701.992125 228.379235 
L 711.440575 234.788035 
L 720.889025 239.137091 
L 730.337475 241.326484 
L 739.785925 240.33507 
L 749.234375 238.030303 
L 758.682825 235.803515 
L 768.131275 233.857611 
L 777.579725 235.954634 
L 787.028175 242.965313 
L 796.476625 248.805973 
L 805.925075 250.510748 
L 815.373525 250.272332 
L 824.821975 248.042004 
L 834.270425 247.573194 
L 843.718875 248.644591 
L 853.167325 248.961575 
L 862.615775 252.825187 
L 872.064225 258.222519 
L 881.512675 262.953324 
L 890.961125 266.812454 
L 900.409575 269.199445 
L 909.858025 270.420427 
L 919.306475 271.140158 
L 928.754925 271.580065 
L 938.203375 271.996615 
L 947.651825 272.410805 
L 957.100275 272.433927 
L 966.548725 272.336012 
L 975.997175 270.522116 
L 985.445625 265.184831 
" clip-path="url(#p477e65585d)" style="fill: none; stroke: #d9534f; stroke-linecap: square"/>
   </g>
   <g id="line2d_19">
    <path d="M 40.600625 273.99006 
L 985.445625 273.99006 
" clip-path="url(#p477e65585d)" style="fill: none; stroke: #dedede; stroke-width: 2; stroke-linecap: square"/>
   </g>
   <g id="text_16">
    <!-- FastQC: Per Sequence GC Content -->
    <g transform="translate(376.386875 19.3575) scale(0.16 -0.16)">
     <defs>
      <path id="DejaVuSans-46" d="M 628 4666 
L 3309 4666 
L 3309 4134 
L 1259 4134 
L 1259 2759 
L 3109 2759 
L 3109 2228 
L 1259 2228 
L 1259 0 
L 628 0 
L 628 4666 
z
" transform="scale(0.015625)"/>
      <path id="DejaVuSans-61" d="M 2194 1759 
Q 1497 1759 1228 1600 
Q 959 1441 959 1056 
Q 959 750 1161 570 
Q 1363 391 1709 391 
Q 2188 391 2477 730 
Q 2766 1069 2766 1631 
L 2766 1759 
L 2194 1759 
z
M 3341 1997 
L 3341 0 
L 2766 0 
L 2766 531 
Q 2569 213 2275 61 
Q 1981 -91 1556 -91 
Q 1019 -91 701 211 
Q 384 513 384 1019 
Q 384 1609 779 1909 
Q 1175 2209 1959 2209 
L 2766 2209 
L 2766 2266 
Q 2766 2663 2505 2880 
Q 2244 3097 1772 3097 
Q 1472 3097 1187 3025 
Q 903 2953 641 2809 
L 641 3341 
Q 956 3463 1253 3523 
Q 1550 3584 1831 3584 
Q 2591 3584 2966 3190 
Q 3341 2797 3341 1997 
z
" transform="scale(0.015625)"/>
      <path id="DejaVuSans-73" d="M 2834 3397 
L 2834 2853 
Q 2591 2978 2328 3040 
Q 2066 3103 1784 3103 
Q 1356 3103 1142 2972 
Q 928 2841 928 2578 
Q 928 2378 1081 2264 
Q 1234 2150 1697 2047 
L 1894 2003 
Q 2506 1872 2764 1633 
Q 3022 1394 3022 966 
Q 3022 478 2636 193 
Q 2250 -91 1575 -91 
Q 1294 -91 989 -36 
Q 684 19 347 128 
L 347 722 
Q 666 556 975 473 
Q 1284 391 1588 391 
Q 1994 391 2212 530 
Q 2431 669 2431 922 
Q 2431 1156 2273 1281 
Q 2116 1406 1581 1522 
L 1381 1569 
Q 847 1681 609 1914 
Q 372 2147 372 2553 
Q 372 3047 722 3315 
Q 1072 3584 1716 3584 
Q 2034 3584 2315 3537 
Q 2597 3491 2834 3397 
z
" transform="scale(0.015625)"/>
      <path id="DejaVuSans-51" d="M 2522 4238 
Q 1834 4238 1429 3725 
Q 1025 3213 1025 2328 
Q 1025 1447 1429 934 
Q 1834 422 2522 422 
Q 3209 422 3611 934 
Q 4013 1447 4013 2328 
Q 4013 3213 3611 3725 
Q 3209 4238 2522 4238 
z
M 3406 84 
L 4238 -825 
L 3475 -825 
L 2784 -78 
Q 2681 -84 2626 -87 
Q 2572 -91 2522 -91 
Q 1538 -91 948 567 
Q 359 1225 359 2328 
Q 359 3434 948 4092 
Q 1538 4750 2522 4750 
Q 3503 4750 4090 4092 
Q 4678 3434 4678 2328 
Q 4678 1516 4351 937 
Q 4025 359 3406 84 
z
" transform="scale(0.015625)"/>
      <path id="DejaVuSans-3a" d="M 750 794 
L 1409 794 
L 1409 0 
L 750 0 
L 750 794 
z
M 750 3309 
L 1409 3309 
L 1409 2516 
L 750 2516 
L 750 3309 
z
" transform="scale(0.015625)"/>
      <path id="DejaVuSans-50" d="M 1259 4147 
L 1259 2394 
L 2053 2394 
Q 2494 2394 2734 2622 
Q 2975 2850 2975 3272 
Q 2975 3691 2734 3919 
Q 2494 4147 2053 4147 
L 1259 4147 
z
M 628 4666 
L 2053 4666 
Q 2838 4666 3239 4311 
Q 3641 3956 3641 3272 
Q 3641 2581 3239 2228 
Q 2838 1875 2053 1875 
L 1259 1875 
L 1259 0 
L 628 0 
L 628 4666 
z
" transform="scale(0.015625)"/>
      <path id="DejaVuSans-72" d="M 2631 2963 
Q 2534 3019 2420 3045 
Q 2306 3072 2169 3072 
Q 1681 3072 1420 2755 
Q 1159 2438 1159 1844 
L 1159 0 
L 581 0 
L 581 3500 
L 1159 3500 
L 1159 2956 
Q 1341 3275 1631 3429 
Q 1922 3584 2338 3584 
Q 2397 3584 2469 3576 
Q 2541 3569 2628 3553 
L 2631 2963 
z
" transform="scale(0.015625)"/>
      <path id="DejaVuSans-53" d="M 3425 4513 
L 3425 3897 
Q 3066 4069 2747 4153 
Q 2428 4238 2131 4238 
Q 1616 4238 1336 4038 
Q 1056 3838 1056 3469 
Q 1056 3159 1242 3001 
Q 1428 2844 1947 2747 
L 2328 2669 
Q 3034 2534 3370 2195 
Q 3706 1856 3706 1288 
Q 3706 609 3251 259 
Q 2797 -91 1919 -91 
Q 1588 -91 1214 -16 
Q 841 59 441 206 
L 441 856 
Q 825 641 1194 531 
Q 1563 422 1919 422 
Q 2459 422 2753 634 
Q 3047 847 3047 1241 
Q 3047 1584 2836 1778 
Q 2625 1972 2144 2069 
L 1759 2144 
Q 1053 2284 737 2584 
Q 422 2884 422 3419 
Q 422 4038 858 4394 
Q 1294 4750 2059 4750 
Q 2388 4750 2728 4690 
Q 3069 4631 3425 4513 
z
" transform="scale(0.015625)"/>
      <path id="DejaVuSans-71" d="M 947 1747 
Q 947 1113 1208 752 
Q 1469 391 1925 391 
Q 2381 391 2643 752 
Q 2906 1113 2906 1747 
Q 2906 2381 2643 2742 
Q 2381 3103 1925 3103 
Q 1469 3103 1208 2742 
Q 947 2381 947 1747 
z
M 2906 525 
Q 2725 213 2448 61 
Q 2172 -91 1784 -91 
Q 1150 -91 751 415 
Q 353 922 353 1747 
Q 353 2572 751 3078 
Q 1150 3584 1784 3584 
Q 2172 3584 2448 3432 
Q 2725 3281 2906 2969 
L 2906 3500 
L 3481 3500 
L 3481 -1331 
L 2906 -1331 
L 2906 525 
z
" transform="scale(0.015625)"/>
      <path id="DejaVuSans-63" d="M 3122 3366 
L 3122 2828 
Q 2878 2963 2633 3030 
Q 2388 3097 2138 3097 
Q 1578 3097 1268 2742 
Q 959 2388 959 1747 
Q 959 1106 1268 751 
Q 1578 397 2138 397 
Q 2388 397 2633 464 
Q 2878 531 3122 666 
L 3122 134 
Q 2881 22 2623 -34 
Q 2366 -91 2075 -91 
Q 1284 -91 818 406 
Q 353 903 353 1747 
Q 353 2603 823 3093 
Q 1294 3584 2113 3584 
Q 2378 3584 2631 3529 
Q 2884 3475 3122 3366 
z
" transform="scale(0.015625)"/>
     </defs>
     <use xlink:href="#DejaVuSans-46"/>
     <use xlink:href="#DejaVuSans-61" x="48.394531"/>
     <use xlink:href="#DejaVuSans-73" x="109.673828"/>
     <use xlink:href="#DejaVuSans-74" x="161.773438"/>
     <use xlink:href="#DejaVuSans-51" x="200.982422"/>
     <use xlink:href="#DejaVuSans-43" x="279.693359"/>
     <use xlink:href="#DejaVuSans-3a" x="349.517578"/>
     <use xlink:href="#DejaVuSans-20" x="383.208984"/>
     <use xlink:href="#DejaVuSans-50" x="414.996094"/>
     <use xlink:href="#DejaVuSans-65" x="471.673828"/>
     <use xlink:href="#DejaVuSans-72" x="533.197266"/>
     <use xlink:href="#DejaVuSans-20" x="574.310547"/>
     <use xlink:href="#DejaVuSans-53" x="606.097656"/>
     <use xlink:href="#DejaVuSans-65" x="669.574219"/>
     <use xlink:href="#DejaVuSans-71" x="731.097656"/>
     <use xlink:href="#DejaVuSans-75" x="794.574219"/>
     <use xlink:href="#DejaVuSans-65" x="857.953125"/>
     <use xlink:href="#DejaVuSans-6e" x="919.476562"/>
     <use xlink:href="#DejaVuSans-63" x="982.855469"/>
     <use xlink:href="#DejaVuSans-65" x="1037.835938"/>
     <use xlink:href="#DejaVuSans-20" x="1099.359375"/>
     <use xlink:href="#DejaVuSans-47" x="1131.146484"/>
     <use xlink:href="#DejaVuSans-43" x="1208.636719"/>
     <use xlink:href="#DejaVuSans-20" x="1278.460938"/>
     <use xlink:href="#DejaVuSans-43" x="1310.248047"/>
     <use xlink:href="#DejaVuSans-6f" x="1380.072266"/>
     <use xlink:href="#DejaVuSans-6e" x="1441.253906"/>
     <use xlink:href="#DejaVuSans-74" x="1504.632812"/>
     <use xlink:href="#DejaVuSans-65" x="1543.841797"/>
     <use xlink:href="#DejaVuSans-6e" x="1605.365234"/>
     <use xlink:href="#DejaVuSans-74" x="1668.744141"/>
    </g>
   </g>
   <g id="legend_1">
    <g id="line2d_20">
     <path d="M 47.800625 291.525394 
L 55.800625 291.525394 
L 63.800625 291.525394 
" style="fill: none; stroke: #d9534f; stroke-linecap: square"/>
    </g>
    <g id="text_17">
     <!-- TK9_1_22FFLLLT3_AGAGAACCTA-GGTTATGCTA_L005_T1_1 -->
     <g transform="translate(70.200625 294.325394) scale(0.08 -0.08)">
      <defs>
       <path id="DejaVuSans-54" d="M -19 4666 
L 3928 4666 
L 3928 4134 
L 2272 4134 
L 2272 0 
L 1638 0 
L 1638 4134 
L -19 4134 
L -19 4666 
z
" transform="scale(0.015625)"/>
       <path id="DejaVuSans-4b" d="M 628 4666 
L 1259 4666 
L 1259 2694 
L 3353 4666 
L 4166 4666 
L 1850 2491 
L 4331 0 
L 3500 0 
L 1259 2247 
L 1259 0 
L 628 0 
L 628 4666 
z
" transform="scale(0.015625)"/>
       <path id="DejaVuSans-39" d="M 703 97 
L 703 672 
Q 941 559 1184 500 
Q 1428 441 1663 441 
Q 2288 441 2617 861 
Q 2947 1281 2994 2138 
Q 2813 1869 2534 1725 
Q 2256 1581 1919 1581 
Q 1219 1581 811 2004 
Q 403 2428 403 3163 
Q 403 3881 828 4315 
Q 1253 4750 1959 4750 
Q 2769 4750 3195 4129 
Q 3622 3509 3622 2328 
Q 3622 1225 3098 567 
Q 2575 -91 1691 -91 
Q 1453 -91 1209 -44 
Q 966 3 703 97 
z
M 1959 2075 
Q 2384 2075 2632 2365 
Q 2881 2656 2881 3163 
Q 2881 3666 2632 3958 
Q 2384 4250 1959 4250 
Q 1534 4250 1286 3958 
Q 1038 3666 1038 3163 
Q 1038 2656 1286 2365 
Q 1534 2075 1959 2075 
z
" transform="scale(0.015625)"/>
       <path id="DejaVuSans-5f" d="M 3263 -1063 
L 3263 -1509 
L -63 -1509 
L -63 -1063 
L 3263 -1063 
z
" transform="scale(0.015625)"/>
       <path id="DejaVuSans-4c" d="M 628 4666 
L 1259 4666 
L 1259 531 
L 3531 531 
L 3531 0 
L 628 0 
L 628 4666 
z
" transform="scale(0.015625)"/>
       <path id="DejaVuSans-33" d="M 2597 2516 
Q 3050 2419 3304 2112 
Q 3559 1806 3559 1356 
Q 3559 666 3084 287 
Q 2609 -91 1734 -91 
Q 1441 -91 1130 -33 
Q 819 25 488 141 
L 488 750 
Q 750 597 1062 519 
Q 1375 441 1716 441 
Q 2309 441 2620 675 
Q 2931 909 2931 1356 
Q 2931 1769 2642 2001 
Q 2353 2234 1838 2234 
L 1294 2234 
L 1294 2753 
L 1863 2753 
Q 2328 2753 2575 2939 
Q 2822 3125 2822 3475 
Q 2822 3834 2567 4026 
Q 2313 4219 1838 4219 
Q 1578 4219 1281 4162 
Q 984 4106 628 3988 
L 628 4550 
Q 988 4650 1302 4700 
Q 1616 4750 1894 4750 
Q 2613 4750 3031 4423 
Q 3450 4097 3450 3541 
Q 3450 3153 3228 2886 
Q 3006 2619 2597 2516 
z
" transform="scale(0.015625)"/>
       <path id="DejaVuSans-41" d="M 2188 4044 
L 1331 1722 
L 3047 1722 
L 2188 4044 
z
M 1831 4666 
L 2547 4666 
L 4325 0 
L 3669 0 
L 3244 1197 
L 1141 1197 
L 716 0 
L 50 0 
L 1831 4666 
z
" transform="scale(0.015625)"/>
       <path id="DejaVuSans-2d" d="M 313 2009 
L 1997 2009 
L 1997 1497 
L 313 1497 
L 313 2009 
z
" transform="scale(0.015625)"/>
       <path id="DejaVuSans-35" d="M 691 4666 
L 3169 4666 
L 3169 4134 
L 1269 4134 
L 1269 2991 
Q 1406 3038 1543 3061 
Q 1681 3084 1819 3084 
Q 2600 3084 3056 2656 
Q 3513 2228 3513 1497 
Q 3513 744 3044 326 
Q 2575 -91 1722 -91 
Q 1428 -91 1123 -41 
Q 819 9 494 109 
L 494 744 
Q 775 591 1075 516 
Q 1375 441 1709 441 
Q 2250 441 2565 725 
Q 2881 1009 2881 1497 
Q 2881 1984 2565 2268 
Q 2250 2553 1709 2553 
Q 1456 2553 1204 2497 
Q 953 2441 691 2322 
L 691 4666 
z
" transform="scale(0.015625)"/>
      </defs>
      <use xlink:href="#DejaVuSans-54"/>
      <use xlink:href="#DejaVuSans-4b" x="61.083984"/>
      <use xlink:href="#DejaVuSans-39" x="126.660156"/>
      <use xlink:href="#DejaVuSans-5f" x="190.283203"/>
      <use xlink:href="#DejaVuSans-31" x="240.283203"/>
      <use xlink:href="#DejaVuSans-5f" x="303.90625"/>
      <use xlink:href="#DejaVuSans-32" x="353.90625"/>
      <use xlink:href="#DejaVuSans-32" x="417.529297"/>
      <use xlink:href="#DejaVuSans-46" x="481.152344"/>
      <use xlink:href="#DejaVuSans-46" x="538.671875"/>
      <use xlink:href="#DejaVuSans-4c" x="596.191406"/>
      <use xlink:href="#DejaVuSans-4c" x="651.904297"/>
      <use xlink:href="#DejaVuSans-4c" x="707.617188"/>
      <use xlink:href="#DejaVuSans-54" x="749.580078"/>
      <use xlink:href="#DejaVuSans-33" x="810.664062"/>
      <use xlink:href="#DejaVuSans-5f" x="874.287109"/>
      <use xlink:href="#DejaVuSans-41" x="924.287109"/>
      <use xlink:href="#DejaVuSans-47" x="990.945312"/>
      <use xlink:href="#DejaVuSans-41" x="1068.435547"/>
      <use xlink:href="#DejaVuSans-47" x="1135.09375"/>
      <use xlink:href="#DejaVuSans-41" x="1212.583984"/>
      <use xlink:href="#DejaVuSans-41" x="1283.742188"/>
      <use xlink:href="#DejaVuSans-43" x="1350.400391"/>
      <use xlink:href="#DejaVuSans-43" x="1420.224609"/>
      <use xlink:href="#DejaVuSans-54" x="1490.048828"/>
      <use xlink:href="#DejaVuSans-41" x="1543.382812"/>
      <use xlink:href="#DejaVuSans-2d" x="1609.541016"/>
      <use xlink:href="#DejaVuSans-47" x="1649.25"/>
      <use xlink:href="#DejaVuSans-47" x="1726.740234"/>
      <use xlink:href="#DejaVuSans-54" x="1800.605469"/>
      <use xlink:href="#DejaVuSans-54" x="1859.939453"/>
      <use xlink:href="#DejaVuSans-41" x="1913.273438"/>
      <use xlink:href="#DejaVuSans-54" x="1973.931641"/>
      <use xlink:href="#DejaVuSans-47" x="2035.015625"/>
      <use xlink:href="#DejaVuSans-43" x="2112.505859"/>
      <use xlink:href="#DejaVuSans-54" x="2182.330078"/>
      <use xlink:href="#DejaVuSans-41" x="2235.664062"/>
      <use xlink:href="#DejaVuSans-5f" x="2304.072266"/>
      <use xlink:href="#DejaVuSans-4c" x="2354.072266"/>
      <use xlink:href="#DejaVuSans-30" x="2409.785156"/>
      <use xlink:href="#DejaVuSans-30" x="2473.408203"/>
      <use xlink:href="#DejaVuSans-35" x="2537.03125"/>
      <use xlink:href="#DejaVuSans-5f" x="2600.654297"/>
      <use xlink:href="#DejaVuSans-54" x="2650.654297"/>
      <use xlink:href="#DejaVuSans-31" x="2711.738281"/>
      <use xlink:href="#DejaVuSans-5f" x="2775.361328"/>
      <use xlink:href="#DejaVuSans-31" x="2825.361328"/>
     </g>
    </g>
    <g id="line2d_21">
     <path d="M 47.800625 303.490394 
L 55.800625 303.490394 
L 63.800625 303.490394 
" style="fill: none; stroke: #d9534f; stroke-linecap: square"/>
    </g>
    <g id="text_18">
     <!-- TK9_1_22FFLLLT3_AGAGAACCTA-GGTTATGCTA_L005_T1_2 -->
     <g transform="translate(70.200625 306.290394) scale(0.08 -0.08)">
      <use xlink:href="#DejaVuSans-54"/>
      <use xlink:href="#DejaVuSans-4b" x="61.083984"/>
      <use xlink:href="#DejaVuSans-39" x="126.660156"/>
      <use xlink:href="#DejaVuSans-5f" x="190.283203"/>
      <use xlink:href="#DejaVuSans-31" x="240.283203"/>
      <use xlink:href="#DejaVuSans-5f" x="303.90625"/>
      <use xlink:href="#DejaVuSans-32" x="353.90625"/>
      <use xlink:href="#DejaVuSans-32" x="417.529297"/>
      <use xlink:href="#DejaVuSans-46" x="481.152344"/>
      <use xlink:href="#DejaVuSans-46" x="538.671875"/>
      <use xlink:href="#DejaVuSans-4c" x="596.191406"/>
      <use xlink:href="#DejaVuSans-4c" x="651.904297"/>
      <use xlink:href="#DejaVuSans-4c" x="707.617188"/>
      <use xlink:href="#DejaVuSans-54" x="749.580078"/>
      <use xlink:href="#DejaVuSans-33" x="810.664062"/>
      <use xlink:href="#DejaVuSans-5f" x="874.287109"/>
      <use xlink:href="#DejaVuSans-41" x="924.287109"/>
      <use xlink:href="#DejaVuSans-47" x="990.945312"/>
      <use xlink:href="#DejaVuSans-41" x="1068.435547"/>
      <use xlink:href="#DejaVuSans-47" x="1135.09375"/>
      <use xlink:href="#DejaVuSans-41" x="1212.583984"/>
      <use xlink:href="#DejaVuSans-41" x="1283.742188"/>
      <use xlink:href="#DejaVuSans-43" x="1350.400391"/>
      <use xlink:href="#DejaVuSans-43" x="1420.224609"/>
      <use xlink:href="#DejaVuSans-54" x="1490.048828"/>
      <use xlink:href="#DejaVuSans-41" x="1543.382812"/>
      <use xlink:href="#DejaVuSans-2d" x="1609.541016"/>
      <use xlink:href="#DejaVuSans-47" x="1649.25"/>
      <use xlink:href="#DejaVuSans-47" x="1726.740234"/>
      <use xlink:href="#DejaVuSans-54" x="1800.605469"/>
      <use xlink:href="#DejaVuSans-54" x="1859.939453"/>
      <use xlink:href="#DejaVuSans-41" x="1913.273438"/>
      <use xlink:href="#DejaVuSans-54" x="1973.931641"/>
      <use xlink:href="#DejaVuSans-47" x="2035.015625"/>
      <use xlink:href="#DejaVuSans-43" x="2112.505859"/>
      <use xlink:href="#DejaVuSans-54" x="2182.330078"/>
      <use xlink:href="#DejaVuSans-41" x="2235.664062"/>
      <use xlink:href="#DejaVuSans-5f" x="2304.072266"/>
      <use xlink:href="#DejaVuSans-4c" x="2354.072266"/>
      <use xlink:href="#DejaVuSans-30" x="2409.785156"/>
      <use xlink:href="#DejaVuSans-30" x="2473.408203"/>
      <use xlink:href="#DejaVuSans-35" x="2537.03125"/>
      <use xlink:href="#DejaVuSans-5f" x="2600.654297"/>
      <use xlink:href="#DejaVuSans-54" x="2650.654297"/>
      <use xlink:href="#DejaVuSans-31" x="2711.738281"/>
      <use xlink:href="#DejaVuSans-5f" x="2775.361328"/>
      <use xlink:href="#DejaVuSans-32" x="2825.361328"/>
     </g>
    </g>
    <g id="line2d_22">
     <path d="M 47.800625 315.455394 
L 55.800625 315.455394 
L 63.800625 315.455394 
" style="fill: none; stroke: #d9534f; stroke-linecap: square"/>
    </g>
    <g id="text_19">
     <!-- TK9_1_22FFLLLT3_AGAGAACCTA-GGTTATGCTA_L006_T1_1 -->
     <g transform="translate(70.200625 318.255394) scale(0.08 -0.08)">
      <use xlink:href="#DejaVuSans-54"/>
      <use xlink:href="#DejaVuSans-4b" x="61.083984"/>
      <use xlink:href="#DejaVuSans-39" x="126.660156"/>
      <use xlink:href="#DejaVuSans-5f" x="190.283203"/>
      <use xlink:href="#DejaVuSans-31" x="240.283203"/>
      <use xlink:href="#DejaVuSans-5f" x="303.90625"/>
      <use xlink:href="#DejaVuSans-32" x="353.90625"/>
      <use xlink:href="#DejaVuSans-32" x="417.529297"/>
      <use xlink:href="#DejaVuSans-46" x="481.152344"/>
      <use xlink:href="#DejaVuSans-46" x="538.671875"/>
      <use xlink:href="#DejaVuSans-4c" x="596.191406"/>
      <use xlink:href="#DejaVuSans-4c" x="651.904297"/>
      <use xlink:href="#DejaVuSans-4c" x="707.617188"/>
      <use xlink:href="#DejaVuSans-54" x="749.580078"/>
      <use xlink:href="#DejaVuSans-33" x="810.664062"/>
      <use xlink:href="#DejaVuSans-5f" x="874.287109"/>
      <use xlink:href="#DejaVuSans-41" x="924.287109"/>
      <use xlink:href="#DejaVuSans-47" x="990.945312"/>
      <use xlink:href="#DejaVuSans-41" x="1068.435547"/>
      <use xlink:href="#DejaVuSans-47" x="1135.09375"/>
      <use xlink:href="#DejaVuSans-41" x="1212.583984"/>
      <use xlink:href="#DejaVuSans-41" x="1283.742188"/>
      <use xlink:href="#DejaVuSans-43" x="1350.400391"/>
      <use xlink:href="#DejaVuSans-43" x="1420.224609"/>
      <use xlink:href="#DejaVuSans-54" x="1490.048828"/>
      <use xlink:href="#DejaVuSans-41" x="1543.382812"/>
      <use xlink:href="#DejaVuSans-2d" x="1609.541016"/>
      <use xlink:href="#DejaVuSans-47" x="1649.25"/>
      <use xlink:href="#DejaVuSans-47" x="1726.740234"/>
      <use xlink:href="#DejaVuSans-54" x="1800.605469"/>
      <use xlink:href="#DejaVuSans-54" x="1859.939453"/>
      <use xlink:href="#DejaVuSans-41" x="1913.273438"/>
      <use xlink:href="#DejaVuSans-54" x="1973.931641"/>
      <use xlink:href="#DejaVuSans-47" x="2035.015625"/>
      <use xlink:href="#DejaVuSans-43" x="2112.505859"/>
      <use xlink:href="#DejaVuSans-54" x="2182.330078"/>
      <use xlink:href="#DejaVuSans-41" x="2235.664062"/>
      <use xlink:href="#DejaVuSans-5f" x="2304.072266"/>
      <use xlink:href="#DejaVuSans-4c" x="2354.072266"/>
      <use xlink:href="#DejaVuSans-30" x="2409.785156"/>
      <use xlink:href="#DejaVuSans-30" x="2473.408203"/>
      <use xlink:href="#DejaVuSans-36" x="2537.03125"/>
      <use xlink:href="#DejaVuSans-5f" x="2600.654297"/>
      <use xlink:href="#DejaVuSans-54" x="2650.654297"/>
      <use xlink:href="#DejaVuSans-31" x="2711.738281"/>
      <use xlink:href="#DejaVuSans-5f" x="2775.361328"/>
      <use xlink:href="#DejaVuSans-31" x="2825.361328"/>
     </g>
    </g>
    <g id="line2d_23">
     <path d="M 218.1925 291.525394 
L 226.1925 291.525394 
L 234.1925 291.525394 
" style="fill: none; stroke: #d9534f; stroke-linecap: square"/>
    </g>
    <g id="text_20">
     <!-- TK9_1_22FFLLLT3_AGAGAACCTA-GGTTATGCTA_L006_T1_2 -->
     <g transform="translate(240.5925 294.325394) scale(0.08 -0.08)">
      <use xlink:href="#DejaVuSans-54"/>
      <use xlink:href="#DejaVuSans-4b" x="61.083984"/>
      <use xlink:href="#DejaVuSans-39" x="126.660156"/>
      <use xlink:href="#DejaVuSans-5f" x="190.283203"/>
      <use xlink:href="#DejaVuSans-31" x="240.283203"/>
      <use xlink:href="#DejaVuSans-5f" x="303.90625"/>
      <use xlink:href="#DejaVuSans-32" x="353.90625"/>
      <use xlink:href="#DejaVuSans-32" x="417.529297"/>
      <use xlink:href="#DejaVuSans-46" x="481.152344"/>
      <use xlink:href="#DejaVuSans-46" x="538.671875"/>
      <use xlink:href="#DejaVuSans-4c" x="596.191406"/>
      <use xlink:href="#DejaVuSans-4c" x="651.904297"/>
      <use xlink:href="#DejaVuSans-4c" x="707.617188"/>
      <use xlink:href="#DejaVuSans-54" x="749.580078"/>
      <use xlink:href="#DejaVuSans-33" x="810.664062"/>
      <use xlink:href="#DejaVuSans-5f" x="874.287109"/>
      <use xlink:href="#DejaVuSans-41" x="924.287109"/>
      <use xlink:href="#DejaVuSans-47" x="990.945312"/>
      <use xlink:href="#DejaVuSans-41" x="1068.435547"/>
      <use xlink:href="#DejaVuSans-47" x="1135.09375"/>
      <use xlink:href="#DejaVuSans-41" x="1212.583984"/>
      <use xlink:href="#DejaVuSans-41" x="1283.742188"/>
      <use xlink:href="#DejaVuSans-43" x="1350.400391"/>
      <use xlink:href="#DejaVuSans-43" x="1420.224609"/>
      <use xlink:href="#DejaVuSans-54" x="1490.048828"/>
      <use xlink:href="#DejaVuSans-41" x="1543.382812"/>
      <use xlink:href="#DejaVuSans-2d" x="1609.541016"/>
      <use xlink:href="#DejaVuSans-47" x="1649.25"/>
      <use xlink:href="#DejaVuSans-47" x="1726.740234"/>
      <use xlink:href="#DejaVuSans-54" x="1800.605469"/>
      <use xlink:href="#DejaVuSans-54" x="1859.939453"/>
      <use xlink:href="#DejaVuSans-41" x="1913.273438"/>
      <use xlink:href="#DejaVuSans-54" x="1973.931641"/>
      <use xlink:href="#DejaVuSans-47" x="2035.015625"/>
      <use xlink:href="#DejaVuSans-43" x="2112.505859"/>
      <use xlink:href="#DejaVuSans-54" x="2182.330078"/>
      <use xlink:href="#DejaVuSans-41" x="2235.664062"/>
      <use xlink:href="#DejaVuSans-5f" x="2304.072266"/>
      <use xlink:href="#DejaVuSans-4c" x="2354.072266"/>
      <use xlink:href="#DejaVuSans-30" x="2409.785156"/>
      <use xlink:href="#DejaVuSans-30" x="2473.408203"/>
      <use xlink:href="#DejaVuSans-36" x="2537.03125"/>
      <use xlink:href="#DejaVuSans-5f" x="2600.654297"/>
      <use xlink:href="#DejaVuSans-54" x="2650.654297"/>
      <use xlink:href="#DejaVuSans-31" x="2711.738281"/>
      <use xlink:href="#DejaVuSans-5f" x="2775.361328"/>
      <use xlink:href="#DejaVuSans-32" x="2825.361328"/>
     </g>
    </g>
    <g id="line2d_24">
     <path d="M 218.1925 303.490394 
L 226.1925 303.490394 
L 234.1925 303.490394 
" style="fill: none; stroke: #d9534f; stroke-linecap: square"/>
    </g>
    <g id="text_21">
     <!-- TK9_2_22FFLLLT3_GATATTGTGT-ACCACACGGT_L005_T1_1 -->
     <g transform="translate(240.5925 306.290394) scale(0.08 -0.08)">
      <use xlink:href="#DejaVuSans-54"/>
      <use xlink:href="#DejaVuSans-4b" x="61.083984"/>
      <use xlink:href="#DejaVuSans-39" x="126.660156"/>
      <use xlink:href="#DejaVuSans-5f" x="190.283203"/>
      <use xlink:href="#DejaVuSans-32" x="240.283203"/>
      <use xlink:href="#DejaVuSans-5f" x="303.90625"/>
      <use xlink:href="#DejaVuSans-32" x="353.90625"/>
      <use xlink:href="#DejaVuSans-32" x="417.529297"/>
      <use xlink:href="#DejaVuSans-46" x="481.152344"/>
      <use xlink:href="#DejaVuSans-46" x="538.671875"/>
      <use xlink:href="#DejaVuSans-4c" x="596.191406"/>
      <use xlink:href="#DejaVuSans-4c" x="651.904297"/>
      <use xlink:href="#DejaVuSans-4c" x="707.617188"/>
      <use xlink:href="#DejaVuSans-54" x="749.580078"/>
      <use xlink:href="#DejaVuSans-33" x="810.664062"/>
      <use xlink:href="#DejaVuSans-5f" x="874.287109"/>
      <use xlink:href="#DejaVuSans-47" x="924.287109"/>
      <use xlink:href="#DejaVuSans-41" x="1001.777344"/>
      <use xlink:href="#DejaVuSans-54" x="1062.435547"/>
      <use xlink:href="#DejaVuSans-41" x="1115.769531"/>
      <use xlink:href="#DejaVuSans-54" x="1176.427734"/>
      <use xlink:href="#DejaVuSans-54" x="1235.761719"/>
      <use xlink:href="#DejaVuSans-47" x="1296.845703"/>
      <use xlink:href="#DejaVuSans-54" x="1370.710938"/>
      <use xlink:href="#DejaVuSans-47" x="1431.794922"/>
      <use xlink:href="#DejaVuSans-54" x="1505.660156"/>
      <use xlink:href="#DejaVuSans-2d" x="1557.619141"/>
      <use xlink:href="#DejaVuSans-41" x="1591.453125"/>
      <use xlink:href="#DejaVuSans-43" x="1658.111328"/>
      <use xlink:href="#DejaVuSans-43" x="1727.935547"/>
      <use xlink:href="#DejaVuSans-41" x="1797.759766"/>
      <use xlink:href="#DejaVuSans-43" x="1864.417969"/>
      <use xlink:href="#DejaVuSans-41" x="1934.242188"/>
      <use xlink:href="#DejaVuSans-43" x="2000.900391"/>
      <use xlink:href="#DejaVuSans-47" x="2070.724609"/>
      <use xlink:href="#DejaVuSans-47" x="2148.214844"/>
      <use xlink:href="#DejaVuSans-54" x="2222.080078"/>
      <use xlink:href="#DejaVuSans-5f" x="2283.164062"/>
      <use xlink:href="#DejaVuSans-4c" x="2333.164062"/>
      <use xlink:href="#DejaVuSans-30" x="2388.876953"/>
      <use xlink:href="#DejaVuSans-30" x="2452.5"/>
      <use xlink:href="#DejaVuSans-35" x="2516.123047"/>
      <use xlink:href="#DejaVuSans-5f" x="2579.746094"/>
      <use xlink:href="#DejaVuSans-54" x="2629.746094"/>
      <use xlink:href="#DejaVuSans-31" x="2690.830078"/>
      <use xlink:href="#DejaVuSans-5f" x="2754.453125"/>
      <use xlink:href="#DejaVuSans-31" x="2804.453125"/>
     </g>
    </g>
    <g id="line2d_25">
     <path d="M 218.1925 315.455394 
L 226.1925 315.455394 
L 234.1925 315.455394 
" style="fill: none; stroke: #d9534f; stroke-linecap: square"/>
    </g>
    <g id="text_22">
     <!-- TK9_2_22FFLLLT3_GATATTGTGT-ACCACACGGT_L005_T1_2 -->
     <g transform="translate(240.5925 318.255394) scale(0.08 -0.08)">
      <use xlink:href="#DejaVuSans-54"/>
      <use xlink:href="#DejaVuSans-4b" x="61.083984"/>
      <use xlink:href="#DejaVuSans-39" x="126.660156"/>
      <use xlink:href="#DejaVuSans-5f" x="190.283203"/>
      <use xlink:href="#DejaVuSans-32" x="240.283203"/>
      <use xlink:href="#DejaVuSans-5f" x="303.90625"/>
      <use xlink:href="#DejaVuSans-32" x="353.90625"/>
      <use xlink:href="#DejaVuSans-32" x="417.529297"/>
      <use xlink:href="#DejaVuSans-46" x="481.152344"/>
      <use xlink:href="#DejaVuSans-46" x="538.671875"/>
      <use xlink:href="#DejaVuSans-4c" x="596.191406"/>
      <use xlink:href="#DejaVuSans-4c" x="651.904297"/>
      <use xlink:href="#DejaVuSans-4c" x="707.617188"/>
      <use xlink:href="#DejaVuSans-54" x="749.580078"/>
      <use xlink:href="#DejaVuSans-33" x="810.664062"/>
      <use xlink:href="#DejaVuSans-5f" x="874.287109"/>
      <use xlink:href="#DejaVuSans-47" x="924.287109"/>
      <use xlink:href="#DejaVuSans-41" x="1001.777344"/>
      <use xlink:href="#DejaVuSans-54" x="1062.435547"/>
      <use xlink:href="#DejaVuSans-41" x="1115.769531"/>
      <use xlink:href="#DejaVuSans-54" x="1176.427734"/>
      <use xlink:href="#DejaVuSans-54" x="1235.761719"/>
      <use xlink:href="#DejaVuSans-47" x="1296.845703"/>
      <use xlink:href="#DejaVuSans-54" x="1370.710938"/>
      <use xlink:href="#DejaVuSans-47" x="1431.794922"/>
      <use xlink:href="#DejaVuSans-54" x="1505.660156"/>
      <use xlink:href="#DejaVuSans-2d" x="1557.619141"/>
      <use xlink:href="#DejaVuSans-41" x="1591.453125"/>
      <use xlink:href="#DejaVuSans-43" x="1658.111328"/>
      <use xlink:href="#DejaVuSans-43" x="1727.935547"/>
      <use xlink:href="#DejaVuSans-41" x="1797.759766"/>
      <use xlink:href="#DejaVuSans-43" x="1864.417969"/>
      <use xlink:href="#DejaVuSans-41" x="1934.242188"/>
      <use xlink:href="#DejaVuSans-43" x="2000.900391"/>
      <use xlink:href="#DejaVuSans-47" x="2070.724609"/>
      <use xlink:href="#DejaVuSans-47" x="2148.214844"/>
      <use xlink:href="#DejaVuSans-54" x="2222.080078"/>
      <use xlink:href="#DejaVuSans-5f" x="2283.164062"/>
      <use xlink:href="#DejaVuSans-4c" x="2333.164062"/>
      <use xlink:href="#DejaVuSans-30" x="2388.876953"/>
      <use xlink:href="#DejaVuSans-30" x="2452.5"/>
      <use xlink:href="#DejaVuSans-35" x="2516.123047"/>
      <use xlink:href="#DejaVuSans-5f" x="2579.746094"/>
      <use xlink:href="#DejaVuSans-54" x="2629.746094"/>
      <use xlink:href="#DejaVuSans-31" x="2690.830078"/>
      <use xlink:href="#DejaVuSans-5f" x="2754.453125"/>
      <use xlink:href="#DejaVuSans-32" x="2804.453125"/>
     </g>
    </g>
    <g id="line2d_26">
     <path d="M 388.584375 291.525394 
L 396.584375 291.525394 
L 404.584375 291.525394 
" style="fill: none; stroke: #d9534f; stroke-linecap: square"/>
    </g>
    <g id="text_23">
     <!-- TK9_2_22FFLLLT3_GATATTGTGT-ACCACACGGT_L006_T1_1 -->
     <g transform="translate(410.984375 294.325394) scale(0.08 -0.08)">
      <use xlink:href="#DejaVuSans-54"/>
      <use xlink:href="#DejaVuSans-4b" x="61.083984"/>
      <use xlink:href="#DejaVuSans-39" x="126.660156"/>
      <use xlink:href="#DejaVuSans-5f" x="190.283203"/>
      <use xlink:href="#DejaVuSans-32" x="240.283203"/>
      <use xlink:href="#DejaVuSans-5f" x="303.90625"/>
      <use xlink:href="#DejaVuSans-32" x="353.90625"/>
      <use xlink:href="#DejaVuSans-32" x="417.529297"/>
      <use xlink:href="#DejaVuSans-46" x="481.152344"/>
      <use xlink:href="#DejaVuSans-46" x="538.671875"/>
      <use xlink:href="#DejaVuSans-4c" x="596.191406"/>
      <use xlink:href="#DejaVuSans-4c" x="651.904297"/>
      <use xlink:href="#DejaVuSans-4c" x="707.617188"/>
      <use xlink:href="#DejaVuSans-54" x="749.580078"/>
      <use xlink:href="#DejaVuSans-33" x="810.664062"/>
      <use xlink:href="#DejaVuSans-5f" x="874.287109"/>
      <use xlink:href="#DejaVuSans-47" x="924.287109"/>
      <use xlink:href="#DejaVuSans-41" x="1001.777344"/>
      <use xlink:href="#DejaVuSans-54" x="1062.435547"/>
      <use xlink:href="#DejaVuSans-41" x="1115.769531"/>
      <use xlink:href="#DejaVuSans-54" x="1176.427734"/>
      <use xlink:href="#DejaVuSans-54" x="1235.761719"/>
      <use xlink:href="#DejaVuSans-47" x="1296.845703"/>
      <use xlink:href="#DejaVuSans-54" x="1370.710938"/>
      <use xlink:href="#DejaVuSans-47" x="1431.794922"/>
      <use xlink:href="#DejaVuSans-54" x="1505.660156"/>
      <use xlink:href="#DejaVuSans-2d" x="1557.619141"/>
      <use xlink:href="#DejaVuSans-41" x="1591.453125"/>
      <use xlink:href="#DejaVuSans-43" x="1658.111328"/>
      <use xlink:href="#DejaVuSans-43" x="1727.935547"/>
      <use xlink:href="#DejaVuSans-41" x="1797.759766"/>
      <use xlink:href="#DejaVuSans-43" x="1864.417969"/>
      <use xlink:href="#DejaVuSans-41" x="1934.242188"/>
      <use xlink:href="#DejaVuSans-43" x="2000.900391"/>
      <use xlink:href="#DejaVuSans-47" x="2070.724609"/>
      <use xlink:href="#DejaVuSans-47" x="2148.214844"/>
      <use xlink:href="#DejaVuSans-54" x="2222.080078"/>
      <use xlink:href="#DejaVuSans-5f" x="2283.164062"/>
      <use xlink:href="#DejaVuSans-4c" x="2333.164062"/>
      <use xlink:href="#DejaVuSans-30" x="2388.876953"/>
      <use xlink:href="#DejaVuSans-30" x="2452.5"/>
      <use xlink:href="#DejaVuSans-36" x="2516.123047"/>
      <use xlink:href="#DejaVuSans-5f" x="2579.746094"/>
      <use xlink:href="#DejaVuSans-54" x="2629.746094"/>
      <use xlink:href="#DejaVuSans-31" x="2690.830078"/>
      <use xlink:href="#DejaVuSans-5f" x="2754.453125"/>
      <use xlink:href="#DejaVuSans-31" x="2804.453125"/>
     </g>
    </g>
    <g id="line2d_27">
     <path d="M 388.584375 303.490394 
L 396.584375 303.490394 
L 404.584375 303.490394 
" style="fill: none; stroke: #d9534f; stroke-linecap: square"/>
    </g>
    <g id="text_24">
     <!-- TK9_2_22FFLLLT3_GATATTGTGT-ACCACACGGT_L006_T1_2 -->
     <g transform="translate(410.984375 306.290394) scale(0.08 -0.08)">
      <use xlink:href="#DejaVuSans-54"/>
      <use xlink:href="#DejaVuSans-4b" x="61.083984"/>
      <use xlink:href="#DejaVuSans-39" x="126.660156"/>
      <use xlink:href="#DejaVuSans-5f" x="190.283203"/>
      <use xlink:href="#DejaVuSans-32" x="240.283203"/>
      <use xlink:href="#DejaVuSans-5f" x="303.90625"/>
      <use xlink:href="#DejaVuSans-32" x="353.90625"/>
      <use xlink:href="#DejaVuSans-32" x="417.529297"/>
      <use xlink:href="#DejaVuSans-46" x="481.152344"/>
      <use xlink:href="#DejaVuSans-46" x="538.671875"/>
      <use xlink:href="#DejaVuSans-4c" x="596.191406"/>
      <use xlink:href="#DejaVuSans-4c" x="651.904297"/>
      <use xlink:href="#DejaVuSans-4c" x="707.617188"/>
      <use xlink:href="#DejaVuSans-54" x="749.580078"/>
      <use xlink:href="#DejaVuSans-33" x="810.664062"/>
      <use xlink:href="#DejaVuSans-5f" x="874.287109"/>
      <use xlink:href="#DejaVuSans-47" x="924.287109"/>
      <use xlink:href="#DejaVuSans-41" x="1001.777344"/>
      <use xlink:href="#DejaVuSans-54" x="1062.435547"/>
      <use xlink:href="#DejaVuSans-41" x="1115.769531"/>
      <use xlink:href="#DejaVuSans-54" x="1176.427734"/>
      <use xlink:href="#DejaVuSans-54" x="1235.761719"/>
      <use xlink:href="#DejaVuSans-47" x="1296.845703"/>
      <use xlink:href="#DejaVuSans-54" x="1370.710938"/>
      <use xlink:href="#DejaVuSans-47" x="1431.794922"/>
      <use xlink:href="#DejaVuSans-54" x="1505.660156"/>
      <use xlink:href="#DejaVuSans-2d" x="1557.619141"/>
      <use xlink:href="#DejaVuSans-41" x="1591.453125"/>
      <use xlink:href="#DejaVuSans-43" x="1658.111328"/>
      <use xlink:href="#DejaVuSans-43" x="1727.935547"/>
      <use xlink:href="#DejaVuSans-41" x="1797.759766"/>
      <use xlink:href="#DejaVuSans-43" x="1864.417969"/>
      <use xlink:href="#DejaVuSans-41" x="1934.242188"/>
      <use xlink:href="#DejaVuSans-43" x="2000.900391"/>
      <use xlink:href="#DejaVuSans-47" x="2070.724609"/>
      <use xlink:href="#DejaVuSans-47" x="2148.214844"/>
      <use xlink:href="#DejaVuSans-54" x="2222.080078"/>
      <use xlink:href="#DejaVuSans-5f" x="2283.164062"/>
      <use xlink:href="#DejaVuSans-4c" x="2333.164062"/>
      <use xlink:href="#DejaVuSans-30" x="2388.876953"/>
      <use xlink:href="#DejaVuSans-30" x="2452.5"/>
      <use xlink:href="#DejaVuSans-36" x="2516.123047"/>
      <use xlink:href="#DejaVuSans-5f" x="2579.746094"/>
      <use xlink:href="#DejaVuSans-54" x="2629.746094"/>
      <use xlink:href="#DejaVuSans-31" x="2690.830078"/>
      <use xlink:href="#DejaVuSans-5f" x="2754.453125"/>
      <use xlink:href="#DejaVuSans-32" x="2804.453125"/>
     </g>
    </g>
    <g id="line2d_28">
     <path d="M 557.30375 291.525394 
L 565.30375 291.525394 
L 573.30375 291.525394 
" style="fill: none; stroke: #f0ad4e; stroke-linecap: square"/>
    </g>
    <g id="text_25">
     <!-- TK9_3_22FFLLLT3_CGTACAGGAA-TAGGTTCTCT_L005_T1_1 -->
     <g transform="translate(579.70375 294.325394) scale(0.08 -0.08)">
      <use xlink:href="#DejaVuSans-54"/>
      <use xlink:href="#DejaVuSans-4b" x="61.083984"/>
      <use xlink:href="#DejaVuSans-39" x="126.660156"/>
      <use xlink:href="#DejaVuSans-5f" x="190.283203"/>
      <use xlink:href="#DejaVuSans-33" x="240.283203"/>
      <use xlink:href="#DejaVuSans-5f" x="303.90625"/>
      <use xlink:href="#DejaVuSans-32" x="353.90625"/>
      <use xlink:href="#DejaVuSans-32" x="417.529297"/>
      <use xlink:href="#DejaVuSans-46" x="481.152344"/>
      <use xlink:href="#DejaVuSans-46" x="538.671875"/>
      <use xlink:href="#DejaVuSans-4c" x="596.191406"/>
      <use xlink:href="#DejaVuSans-4c" x="651.904297"/>
      <use xlink:href="#DejaVuSans-4c" x="707.617188"/>
      <use xlink:href="#DejaVuSans-54" x="749.580078"/>
      <use xlink:href="#DejaVuSans-33" x="810.664062"/>
      <use xlink:href="#DejaVuSans-5f" x="874.287109"/>
      <use xlink:href="#DejaVuSans-43" x="924.287109"/>
      <use xlink:href="#DejaVuSans-47" x="994.111328"/>
      <use xlink:href="#DejaVuSans-54" x="1067.976562"/>
      <use xlink:href="#DejaVuSans-41" x="1121.310547"/>
      <use xlink:href="#DejaVuSans-43" x="1187.96875"/>
      <use xlink:href="#DejaVuSans-41" x="1257.792969"/>
      <use xlink:href="#DejaVuSans-47" x="1324.451172"/>
      <use xlink:href="#DejaVuSans-47" x="1401.941406"/>
      <use xlink:href="#DejaVuSans-41" x="1479.431641"/>
      <use xlink:href="#DejaVuSans-41" x="1550.589844"/>
      <use xlink:href="#DejaVuSans-2d" x="1616.748047"/>
      <use xlink:href="#DejaVuSans-54" x="1643.707031"/>
      <use xlink:href="#DejaVuSans-41" x="1697.041016"/>
      <use xlink:href="#DejaVuSans-47" x="1763.699219"/>
      <use xlink:href="#DejaVuSans-47" x="1841.189453"/>
      <use xlink:href="#DejaVuSans-54" x="1915.054688"/>
      <use xlink:href="#DejaVuSans-54" x="1974.388672"/>
      <use xlink:href="#DejaVuSans-43" x="2029.597656"/>
      <use xlink:href="#DejaVuSans-54" x="2099.421875"/>
      <use xlink:href="#DejaVuSans-43" x="2154.630859"/>
      <use xlink:href="#DejaVuSans-54" x="2224.455078"/>
      <use xlink:href="#DejaVuSans-5f" x="2285.539062"/>
      <use xlink:href="#DejaVuSans-4c" x="2335.539062"/>
      <use xlink:href="#DejaVuSans-30" x="2391.251953"/>
      <use xlink:href="#DejaVuSans-30" x="2454.875"/>
      <use xlink:href="#DejaVuSans-35" x="2518.498047"/>
      <use xlink:href="#DejaVuSans-5f" x="2582.121094"/>
      <use xlink:href="#DejaVuSans-54" x="2632.121094"/>
      <use xlink:href="#DejaVuSans-31" x="2693.205078"/>
      <use xlink:href="#DejaVuSans-5f" x="2756.828125"/>
      <use xlink:href="#DejaVuSans-31" x="2806.828125"/>
     </g>
    </g>
    <g id="line2d_29">
     <path d="M 557.30375 303.490394 
L 565.30375 303.490394 
L 573.30375 303.490394 
" style="fill: none; stroke: #d9534f; stroke-linecap: square"/>
    </g>
    <g id="text_26">
     <!-- TK9_3_22FFLLLT3_CGTACAGGAA-TAGGTTCTCT_L005_T1_2 -->
     <g transform="translate(579.70375 306.290394) scale(0.08 -0.08)">
      <use xlink:href="#DejaVuSans-54"/>
      <use xlink:href="#DejaVuSans-4b" x="61.083984"/>
      <use xlink:href="#DejaVuSans-39" x="126.660156"/>
      <use xlink:href="#DejaVuSans-5f" x="190.283203"/>
      <use xlink:href="#DejaVuSans-33" x="240.283203"/>
      <use xlink:href="#DejaVuSans-5f" x="303.90625"/>
      <use xlink:href="#DejaVuSans-32" x="353.90625"/>
      <use xlink:href="#DejaVuSans-32" x="417.529297"/>
      <use xlink:href="#DejaVuSans-46" x="481.152344"/>
      <use xlink:href="#DejaVuSans-46" x="538.671875"/>
      <use xlink:href="#DejaVuSans-4c" x="596.191406"/>
      <use xlink:href="#DejaVuSans-4c" x="651.904297"/>
      <use xlink:href="#DejaVuSans-4c" x="707.617188"/>
      <use xlink:href="#DejaVuSans-54" x="749.580078"/>
      <use xlink:href="#DejaVuSans-33" x="810.664062"/>
      <use xlink:href="#DejaVuSans-5f" x="874.287109"/>
      <use xlink:href="#DejaVuSans-43" x="924.287109"/>
      <use xlink:href="#DejaVuSans-47" x="994.111328"/>
      <use xlink:href="#DejaVuSans-54" x="1067.976562"/>
      <use xlink:href="#DejaVuSans-41" x="1121.310547"/>
      <use xlink:href="#DejaVuSans-43" x="1187.96875"/>
      <use xlink:href="#DejaVuSans-41" x="1257.792969"/>
      <use xlink:href="#DejaVuSans-47" x="1324.451172"/>
      <use xlink:href="#DejaVuSans-47" x="1401.941406"/>
      <use xlink:href="#DejaVuSans-41" x="1479.431641"/>
      <use xlink:href="#DejaVuSans-41" x="1550.589844"/>
      <use xlink:href="#DejaVuSans-2d" x="1616.748047"/>
      <use xlink:href="#DejaVuSans-54" x="1643.707031"/>
      <use xlink:href="#DejaVuSans-41" x="1697.041016"/>
      <use xlink:href="#DejaVuSans-47" x="1763.699219"/>
      <use xlink:href="#DejaVuSans-47" x="1841.189453"/>
      <use xlink:href="#DejaVuSans-54" x="1915.054688"/>
      <use xlink:href="#DejaVuSans-54" x="1974.388672"/>
      <use xlink:href="#DejaVuSans-43" x="2029.597656"/>
      <use xlink:href="#DejaVuSans-54" x="2099.421875"/>
      <use xlink:href="#DejaVuSans-43" x="2154.630859"/>
      <use xlink:href="#DejaVuSans-54" x="2224.455078"/>
      <use xlink:href="#DejaVuSans-5f" x="2285.539062"/>
      <use xlink:href="#DejaVuSans-4c" x="2335.539062"/>
      <use xlink:href="#DejaVuSans-30" x="2391.251953"/>
      <use xlink:href="#DejaVuSans-30" x="2454.875"/>
      <use xlink:href="#DejaVuSans-35" x="2518.498047"/>
      <use xlink:href="#DejaVuSans-5f" x="2582.121094"/>
      <use xlink:href="#DejaVuSans-54" x="2632.121094"/>
      <use xlink:href="#DejaVuSans-31" x="2693.205078"/>
      <use xlink:href="#DejaVuSans-5f" x="2756.828125"/>
      <use xlink:href="#DejaVuSans-32" x="2806.828125"/>
     </g>
    </g>
    <g id="line2d_30">
     <path d="M 726.213125 291.525394 
L 734.213125 291.525394 
L 742.213125 291.525394 
" style="fill: none; stroke: #f0ad4e; stroke-linecap: square"/>
    </g>
    <g id="text_27">
     <!-- TK9_3_22FFLLLT3_CGTACAGGAA-TAGGTTCTCT_L006_T1_1 -->
     <g transform="translate(748.613125 294.325394) scale(0.08 -0.08)">
      <use xlink:href="#DejaVuSans-54"/>
      <use xlink:href="#DejaVuSans-4b" x="61.083984"/>
      <use xlink:href="#DejaVuSans-39" x="126.660156"/>
      <use xlink:href="#DejaVuSans-5f" x="190.283203"/>
      <use xlink:href="#DejaVuSans-33" x="240.283203"/>
      <use xlink:href="#DejaVuSans-5f" x="303.90625"/>
      <use xlink:href="#DejaVuSans-32" x="353.90625"/>
      <use xlink:href="#DejaVuSans-32" x="417.529297"/>
      <use xlink:href="#DejaVuSans-46" x="481.152344"/>
      <use xlink:href="#DejaVuSans-46" x="538.671875"/>
      <use xlink:href="#DejaVuSans-4c" x="596.191406"/>
      <use xlink:href="#DejaVuSans-4c" x="651.904297"/>
      <use xlink:href="#DejaVuSans-4c" x="707.617188"/>
      <use xlink:href="#DejaVuSans-54" x="749.580078"/>
      <use xlink:href="#DejaVuSans-33" x="810.664062"/>
      <use xlink:href="#DejaVuSans-5f" x="874.287109"/>
      <use xlink:href="#DejaVuSans-43" x="924.287109"/>
      <use xlink:href="#DejaVuSans-47" x="994.111328"/>
      <use xlink:href="#DejaVuSans-54" x="1067.976562"/>
      <use xlink:href="#DejaVuSans-41" x="1121.310547"/>
      <use xlink:href="#DejaVuSans-43" x="1187.96875"/>
      <use xlink:href="#DejaVuSans-41" x="1257.792969"/>
      <use xlink:href="#DejaVuSans-47" x="1324.451172"/>
      <use xlink:href="#DejaVuSans-47" x="1401.941406"/>
      <use xlink:href="#DejaVuSans-41" x="1479.431641"/>
      <use xlink:href="#DejaVuSans-41" x="1550.589844"/>
      <use xlink:href="#DejaVuSans-2d" x="1616.748047"/>
      <use xlink:href="#DejaVuSans-54" x="1643.707031"/>
      <use xlink:href="#DejaVuSans-41" x="1697.041016"/>
      <use xlink:href="#DejaVuSans-47" x="1763.699219"/>
      <use xlink:href="#DejaVuSans-47" x="1841.189453"/>
      <use xlink:href="#DejaVuSans-54" x="1915.054688"/>
      <use xlink:href="#DejaVuSans-54" x="1974.388672"/>
      <use xlink:href="#DejaVuSans-43" x="2029.597656"/>
      <use xlink:href="#DejaVuSans-54" x="2099.421875"/>
      <use xlink:href="#DejaVuSans-43" x="2154.630859"/>
      <use xlink:href="#DejaVuSans-54" x="2224.455078"/>
      <use xlink:href="#DejaVuSans-5f" x="2285.539062"/>
      <use xlink:href="#DejaVuSans-4c" x="2335.539062"/>
      <use xlink:href="#DejaVuSans-30" x="2391.251953"/>
      <use xlink:href="#DejaVuSans-30" x="2454.875"/>
      <use xlink:href="#DejaVuSans-36" x="2518.498047"/>
      <use xlink:href="#DejaVuSans-5f" x="2582.121094"/>
      <use xlink:href="#DejaVuSans-54" x="2632.121094"/>
      <use xlink:href="#DejaVuSans-31" x="2693.205078"/>
      <use xlink:href="#DejaVuSans-5f" x="2756.828125"/>
      <use xlink:href="#DejaVuSans-31" x="2806.828125"/>
     </g>
    </g>
    <g id="line2d_31">
     <path d="M 726.213125 303.490394 
L 734.213125 303.490394 
L 742.213125 303.490394 
" style="fill: none; stroke: #d9534f; stroke-linecap: square"/>
    </g>
    <g id="text_28">
     <!-- TK9_3_22FFLLLT3_CGTACAGGAA-TAGGTTCTCT_L006_T1_2 -->
     <g transform="translate(748.613125 306.290394) scale(0.08 -0.08)">
      <use xlink:href="#DejaVuSans-54"/>
      <use xlink:href="#DejaVuSans-4b" x="61.083984"/>
      <use xlink:href="#DejaVuSans-39" x="126.660156"/>
      <use xlink:href="#DejaVuSans-5f" x="190.283203"/>
      <use xlink:href="#DejaVuSans-33" x="240.283203"/>
      <use xlink:href="#DejaVuSans-5f" x="303.90625"/>
      <use xlink:href="#DejaVuSans-32" x="353.90625"/>
      <use xlink:href="#DejaVuSans-32" x="417.529297"/>
      <use xlink:href="#DejaVuSans-46" x="481.152344"/>
      <use xlink:href="#DejaVuSans-46" x="538.671875"/>
      <use xlink:href="#DejaVuSans-4c" x="596.191406"/>
      <use xlink:href="#DejaVuSans-4c" x="651.904297"/>
      <use xlink:href="#DejaVuSans-4c" x="707.617188"/>
      <use xlink:href="#DejaVuSans-54" x="749.580078"/>
      <use xlink:href="#DejaVuSans-33" x="810.664062"/>
      <use xlink:href="#DejaVuSans-5f" x="874.287109"/>
      <use xlink:href="#DejaVuSans-43" x="924.287109"/>
      <use xlink:href="#DejaVuSans-47" x="994.111328"/>
      <use xlink:href="#DejaVuSans-54" x="1067.976562"/>
      <use xlink:href="#DejaVuSans-41" x="1121.310547"/>
      <use xlink:href="#DejaVuSans-43" x="1187.96875"/>
      <use xlink:href="#DejaVuSans-41" x="1257.792969"/>
      <use xlink:href="#DejaVuSans-47" x="1324.451172"/>
      <use xlink:href="#DejaVuSans-47" x="1401.941406"/>
      <use xlink:href="#DejaVuSans-41" x="1479.431641"/>
      <use xlink:href="#DejaVuSans-41" x="1550.589844"/>
      <use xlink:href="#DejaVuSans-2d" x="1616.748047"/>
      <use xlink:href="#DejaVuSans-54" x="1643.707031"/>
      <use xlink:href="#DejaVuSans-41" x="1697.041016"/>
      <use xlink:href="#DejaVuSans-47" x="1763.699219"/>
      <use xlink:href="#DejaVuSans-47" x="1841.189453"/>
      <use xlink:href="#DejaVuSans-54" x="1915.054688"/>
      <use xlink:href="#DejaVuSans-54" x="1974.388672"/>
      <use xlink:href="#DejaVuSans-43" x="2029.597656"/>
      <use xlink:href="#DejaVuSans-54" x="2099.421875"/>
      <use xlink:href="#DejaVuSans-43" x="2154.630859"/>
      <use xlink:href="#DejaVuSans-54" x="2224.455078"/>
      <use xlink:href="#DejaVuSans-5f" x="2285.539062"/>
      <use xlink:href="#DejaVuSans-4c" x="2335.539062"/>
      <use xlink:href="#DejaVuSans-30" x="2391.251953"/>
      <use xlink:href="#DejaVuSans-30" x="2454.875"/>
      <use xlink:href="#DejaVuSans-36" x="2518.498047"/>
      <use xlink:href="#DejaVuSans-5f" x="2582.121094"/>
      <use xlink:href="#DejaVuSans-54" x="2632.121094"/>
      <use xlink:href="#DejaVuSans-31" x="2693.205078"/>
      <use xlink:href="#DejaVuSans-5f" x="2756.828125"/>
      <use xlink:href="#DejaVuSans-32" x="2806.828125"/>
     </g>
    </g>
   </g>
  </g>
 </g>
 <defs>
  <clipPath id="p477e65585d">
   <rect x="40.600625" y="31.48286" width="944.845" height="242.5072"/>
  </clipPath>
 </defs>
</svg>
