<?xml version="1.0" encoding="utf-8" standalone="no"?>
<!DOCTYPE svg PUBLIC "-//W3C//DTD SVG 1.1//EN"
  "http://www.w3.org/Graphics/SVG/1.1/DTD/svg11.dtd">
<svg xmlns:xlink="http://www.w3.org/1999/xlink" width="1000.318125pt" height="330.541644pt" viewBox="0 0 1000.318125 330.541644" xmlns="http://www.w3.org/2000/svg" version="1.1">
 <metadata>
  <rdf:RDF xmlns:dc="http://purl.org/dc/elements/1.1/" xmlns:cc="http://creativecommons.org/ns#" xmlns:rdf="http://www.w3.org/1999/02/22-rdf-syntax-ns#">
   <cc:Work>
    <dc:type rdf:resource="http://purl.org/dc/dcmitype/StillImage"/>
    <dc:date>2023-11-08T20:01:14.606761</dc:date>
    <dc:format>image/svg+xml</dc:format>
    <dc:creator>
     <cc:Agent>
      <dc:title>Matplotlib v3.6.2, https://matplotlib.org/</dc:title>
     </cc:Agent>
    </dc:creator>
   </cc:Work>
  </rdf:RDF>
 </metadata>
 <defs>
  <style type="text/css">*{stroke-linejoin: round; stroke-linecap: butt}</style>
 </defs>
 <g id="figure_1">
  <g id="axes_1">
   <g id="patch_1">
    <path d="M 38.058125 273.99006 
L 993.118125 273.99006 
L 993.118125 31.48286 
L 38.058125 31.48286 
z
" style="fill: #ffffff"/>
   </g>
   <g id="patch_2">
    <path d="M 38.058125 93.094305 
L 955.533397 93.094305 
L 955.533397 -372.066208 
L 38.058125 -372.066208 
z
" clip-path="url(#p88ce1ff288)" style="fill: #c3e6c3"/>
   </g>
   <g id="patch_3">
    <path d="M 38.058125 144.778806 
L 955.533397 144.778806 
L 955.533397 93.094305 
L 38.058125 93.094305 
z
" clip-path="url(#p88ce1ff288)" style="fill: #e6dcc3"/>
   </g>
   <g id="patch_4">
    <path d="M 38.058125 273.99006 
L 955.533397 273.99006 
L 955.533397 144.778806 
L 38.058125 144.778806 
z
" clip-path="url(#p88ce1ff288)" style="fill: #e6c3c3"/>
   </g>
   <g id="matplotlib.axis_1">
    <g id="xtick_1">
     <g id="text_1">
      <!-- 0 -->
      <g transform="translate(73.097853 287.06881) scale(0.08 -0.08)">
       <defs>
        <path id="DejaVuSans-30" d="M 2034 4250 
Q 1547 4250 1301 3770 
Q 1056 3291 1056 2328 
Q 1056 1369 1301 889 
Q 1547 409 2034 409 
Q 2525 409 2770 889 
Q 3016 1369 3016 2328 
Q 3016 3291 2770 3770 
Q 2525 4250 2034 4250 
z
M 2034 4750 
Q 2819 4750 3233 4129 
Q 3647 3509 3647 2328 
Q 3647 1150 3233 529 
Q 2819 -91 2034 -91 
Q 1250 -91 836 529 
Q 422 1150 422 2328 
Q 422 3509 836 4129 
Q 1250 4750 2034 4750 
z
" transform="scale(0.015625)"/>
       </defs>
       <use xlink:href="#DejaVuSans-30"/>
      </g>
     </g>
    </g>
    <g id="xtick_2">
     <g id="text_2">
      <!-- 20 -->
      <g transform="translate(187.094647 287.06881) scale(0.08 -0.08)">
       <defs>
        <path id="DejaVuSans-32" d="M 1228 531 
L 3431 531 
L 3431 0 
L 469 0 
L 469 531 
Q 828 903 1448 1529 
Q 2069 2156 2228 2338 
Q 2531 2678 2651 2914 
Q 2772 3150 2772 3378 
Q 2772 3750 2511 3984 
Q 2250 4219 1831 4219 
Q 1534 4219 1204 4116 
Q 875 4013 500 3803 
L 500 4441 
Q 881 4594 1212 4672 
Q 1544 4750 1819 4750 
Q 2544 4750 2975 4387 
Q 3406 4025 3406 3419 
Q 3406 3131 3298 2873 
Q 3191 2616 2906 2266 
Q 2828 2175 2409 1742 
Q 1991 1309 1228 531 
z
" transform="scale(0.015625)"/>
       </defs>
       <use xlink:href="#DejaVuSans-32"/>
       <use xlink:href="#DejaVuSans-30" x="63.623047"/>
      </g>
     </g>
    </g>
    <g id="xtick_3">
     <g id="text_3">
      <!-- 40 -->
      <g transform="translate(303.636441 287.06881) scale(0.08 -0.08)">
       <defs>
        <path id="DejaVuSans-34" d="M 2419 4116 
L 825 1625 
L 2419 1625 
L 2419 4116 
z
M 2253 4666 
L 3047 4666 
L 3047 1625 
L 3713 1625 
L 3713 1100 
L 3047 1100 
L 3047 0 
L 2419 0 
L 2419 1100 
L 313 1100 
L 313 1709 
L 2253 4666 
z
" transform="scale(0.015625)"/>
       </defs>
       <use xlink:href="#DejaVuSans-34"/>
       <use xlink:href="#DejaVuSans-30" x="63.623047"/>
      </g>
     </g>
    </g>
    <g id="xtick_4">
     <g id="text_4">
      <!-- 60 -->
      <g transform="translate(420.178235 287.06881) scale(0.08 -0.08)">
       <defs>
        <path id="DejaVuSans-36" d="M 2113 2584 
Q 1688 2584 1439 2293 
Q 1191 2003 1191 1497 
Q 1191 994 1439 701 
Q 1688 409 2113 409 
Q 2538 409 2786 701 
Q 3034 994 3034 1497 
Q 3034 2003 2786 2293 
Q 2538 2584 2113 2584 
z
M 3366 4563 
L 3366 3988 
Q 3128 4100 2886 4159 
Q 2644 4219 2406 4219 
Q 1781 4219 1451 3797 
Q 1122 3375 1075 2522 
Q 1259 2794 1537 2939 
Q 1816 3084 2150 3084 
Q 2853 3084 3261 2657 
Q 3669 2231 3669 1497 
Q 3669 778 3244 343 
Q 2819 -91 2113 -91 
Q 1303 -91 875 529 
Q 447 1150 447 2328 
Q 447 3434 972 4092 
Q 1497 4750 2381 4750 
Q 2619 4750 2861 4703 
Q 3103 4656 3366 4563 
z
" transform="scale(0.015625)"/>
       </defs>
       <use xlink:href="#DejaVuSans-36"/>
       <use xlink:href="#DejaVuSans-30" x="63.623047"/>
      </g>
     </g>
    </g>
    <g id="xtick_5">
     <g id="text_5">
      <!-- 80 -->
      <g transform="translate(536.720029 287.06881) scale(0.08 -0.08)">
       <defs>
        <path id="DejaVuSans-38" d="M 2034 2216 
Q 1584 2216 1326 1975 
Q 1069 1734 1069 1313 
Q 1069 891 1326 650 
Q 1584 409 2034 409 
Q 2484 409 2743 651 
Q 3003 894 3003 1313 
Q 3003 1734 2745 1975 
Q 2488 2216 2034 2216 
z
M 1403 2484 
Q 997 2584 770 2862 
Q 544 3141 544 3541 
Q 544 4100 942 4425 
Q 1341 4750 2034 4750 
Q 2731 4750 3128 4425 
Q 3525 4100 3525 3541 
Q 3525 3141 3298 2862 
Q 3072 2584 2669 2484 
Q 3125 2378 3379 2068 
Q 3634 1759 3634 1313 
Q 3634 634 3220 271 
Q 2806 -91 2034 -91 
Q 1263 -91 848 271 
Q 434 634 434 1313 
Q 434 1759 690 2068 
Q 947 2378 1403 2484 
z
M 1172 3481 
Q 1172 3119 1398 2916 
Q 1625 2713 2034 2713 
Q 2441 2713 2670 2916 
Q 2900 3119 2900 3481 
Q 2900 3844 2670 4047 
Q 2441 4250 2034 4250 
Q 1625 4250 1398 4047 
Q 1172 3844 1172 3481 
z
" transform="scale(0.015625)"/>
       </defs>
       <use xlink:href="#DejaVuSans-38"/>
       <use xlink:href="#DejaVuSans-30" x="63.623047"/>
      </g>
     </g>
    </g>
    <g id="xtick_6">
     <g id="text_6">
      <!-- 100 -->
      <g transform="translate(650.716822 287.06881) scale(0.08 -0.08)">
       <defs>
        <path id="DejaVuSans-31" d="M 794 531 
L 1825 531 
L 1825 4091 
L 703 3866 
L 703 4441 
L 1819 4666 
L 2450 4666 
L 2450 531 
L 3481 531 
L 3481 0 
L 794 0 
L 794 531 
z
" transform="scale(0.015625)"/>
       </defs>
       <use xlink:href="#DejaVuSans-31"/>
       <use xlink:href="#DejaVuSans-30" x="63.623047"/>
       <use xlink:href="#DejaVuSans-30" x="127.246094"/>
      </g>
     </g>
    </g>
    <g id="xtick_7">
     <g id="text_7">
      <!-- 120 -->
      <g transform="translate(767.258616 287.06881) scale(0.08 -0.08)">
       <use xlink:href="#DejaVuSans-31"/>
       <use xlink:href="#DejaVuSans-32" x="63.623047"/>
       <use xlink:href="#DejaVuSans-30" x="127.246094"/>
      </g>
     </g>
    </g>
    <g id="xtick_8">
     <g id="text_8">
      <!-- 140 -->
      <g transform="translate(883.80041 287.06881) scale(0.08 -0.08)">
       <use xlink:href="#DejaVuSans-31"/>
       <use xlink:href="#DejaVuSans-34" x="63.623047"/>
       <use xlink:href="#DejaVuSans-30" x="127.246094"/>
      </g>
     </g>
    </g>
    <g id="text_9">
     <!-- Position (bp) -->
     <g transform="translate(484.285 300.330997) scale(0.1 -0.1)">
      <defs>
       <path id="DejaVuSans-50" d="M 1259 4147 
L 1259 2394 
L 2053 2394 
Q 2494 2394 2734 2622 
Q 2975 2850 2975 3272 
Q 2975 3691 2734 3919 
Q 2494 4147 2053 4147 
L 1259 4147 
z
M 628 4666 
L 2053 4666 
Q 2838 4666 3239 4311 
Q 3641 3956 3641 3272 
Q 3641 2581 3239 2228 
Q 2838 1875 2053 1875 
L 1259 1875 
L 1259 0 
L 628 0 
L 628 4666 
z
" transform="scale(0.015625)"/>
       <path id="DejaVuSans-6f" d="M 1959 3097 
Q 1497 3097 1228 2736 
Q 959 2375 959 1747 
Q 959 1119 1226 758 
Q 1494 397 1959 397 
Q 2419 397 2687 759 
Q 2956 1122 2956 1747 
Q 2956 2369 2687 2733 
Q 2419 3097 1959 3097 
z
M 1959 3584 
Q 2709 3584 3137 3096 
Q 3566 2609 3566 1747 
Q 3566 888 3137 398 
Q 2709 -91 1959 -91 
Q 1206 -91 779 398 
Q 353 888 353 1747 
Q 353 2609 779 3096 
Q 1206 3584 1959 3584 
z
" transform="scale(0.015625)"/>
       <path id="DejaVuSans-73" d="M 2834 3397 
L 2834 2853 
Q 2591 2978 2328 3040 
Q 2066 3103 1784 3103 
Q 1356 3103 1142 2972 
Q 928 2841 928 2578 
Q 928 2378 1081 2264 
Q 1234 2150 1697 2047 
L 1894 2003 
Q 2506 1872 2764 1633 
Q 3022 1394 3022 966 
Q 3022 478 2636 193 
Q 2250 -91 1575 -91 
Q 1294 -91 989 -36 
Q 684 19 347 128 
L 347 722 
Q 666 556 975 473 
Q 1284 391 1588 391 
Q 1994 391 2212 530 
Q 2431 669 2431 922 
Q 2431 1156 2273 1281 
Q 2116 1406 1581 1522 
L 1381 1569 
Q 847 1681 609 1914 
Q 372 2147 372 2553 
Q 372 3047 722 3315 
Q 1072 3584 1716 3584 
Q 2034 3584 2315 3537 
Q 2597 3491 2834 3397 
z
" transform="scale(0.015625)"/>
       <path id="DejaVuSans-69" d="M 603 3500 
L 1178 3500 
L 1178 0 
L 603 0 
L 603 3500 
z
M 603 4863 
L 1178 4863 
L 1178 4134 
L 603 4134 
L 603 4863 
z
" transform="scale(0.015625)"/>
       <path id="DejaVuSans-74" d="M 1172 4494 
L 1172 3500 
L 2356 3500 
L 2356 3053 
L 1172 3053 
L 1172 1153 
Q 1172 725 1289 603 
Q 1406 481 1766 481 
L 2356 481 
L 2356 0 
L 1766 0 
Q 1100 0 847 248 
Q 594 497 594 1153 
L 594 3053 
L 172 3053 
L 172 3500 
L 594 3500 
L 594 4494 
L 1172 4494 
z
" transform="scale(0.015625)"/>
       <path id="DejaVuSans-6e" d="M 3513 2113 
L 3513 0 
L 2938 0 
L 2938 2094 
Q 2938 2591 2744 2837 
Q 2550 3084 2163 3084 
Q 1697 3084 1428 2787 
Q 1159 2491 1159 1978 
L 1159 0 
L 581 0 
L 581 3500 
L 1159 3500 
L 1159 2956 
Q 1366 3272 1645 3428 
Q 1925 3584 2291 3584 
Q 2894 3584 3203 3211 
Q 3513 2838 3513 2113 
z
" transform="scale(0.015625)"/>
       <path id="DejaVuSans-20" transform="scale(0.015625)"/>
       <path id="DejaVuSans-28" d="M 1984 4856 
Q 1566 4138 1362 3434 
Q 1159 2731 1159 2009 
Q 1159 1288 1364 580 
Q 1569 -128 1984 -844 
L 1484 -844 
Q 1016 -109 783 600 
Q 550 1309 550 2009 
Q 550 2706 781 3412 
Q 1013 4119 1484 4856 
L 1984 4856 
z
" transform="scale(0.015625)"/>
       <path id="DejaVuSans-62" d="M 3116 1747 
Q 3116 2381 2855 2742 
Q 2594 3103 2138 3103 
Q 1681 3103 1420 2742 
Q 1159 2381 1159 1747 
Q 1159 1113 1420 752 
Q 1681 391 2138 391 
Q 2594 391 2855 752 
Q 3116 1113 3116 1747 
z
M 1159 2969 
Q 1341 3281 1617 3432 
Q 1894 3584 2278 3584 
Q 2916 3584 3314 3078 
Q 3713 2572 3713 1747 
Q 3713 922 3314 415 
Q 2916 -91 2278 -91 
Q 1894 -91 1617 61 
Q 1341 213 1159 525 
L 1159 0 
L 581 0 
L 581 4863 
L 1159 4863 
L 1159 2969 
z
" transform="scale(0.015625)"/>
       <path id="DejaVuSans-70" d="M 1159 525 
L 1159 -1331 
L 581 -1331 
L 581 3500 
L 1159 3500 
L 1159 2969 
Q 1341 3281 1617 3432 
Q 1894 3584 2278 3584 
Q 2916 3584 3314 3078 
Q 3713 2572 3713 1747 
Q 3713 922 3314 415 
Q 2916 -91 2278 -91 
Q 1894 -91 1617 61 
Q 1341 213 1159 525 
z
M 3116 1747 
Q 3116 2381 2855 2742 
Q 2594 3103 2138 3103 
Q 1681 3103 1420 2742 
Q 1159 2381 1159 1747 
Q 1159 1113 1420 752 
Q 1681 391 2138 391 
Q 2594 391 2855 752 
Q 3116 1113 3116 1747 
z
" transform="scale(0.015625)"/>
       <path id="DejaVuSans-29" d="M 513 4856 
L 1013 4856 
Q 1481 4119 1714 3412 
Q 1947 2706 1947 2009 
Q 1947 1309 1714 600 
Q 1481 -109 1013 -844 
L 513 -844 
Q 928 -128 1133 580 
Q 1338 1288 1338 2009 
Q 1338 2731 1133 3434 
Q 928 4138 513 4856 
z
" transform="scale(0.015625)"/>
      </defs>
      <use xlink:href="#DejaVuSans-50"/>
      <use xlink:href="#DejaVuSans-6f" x="56.677734"/>
      <use xlink:href="#DejaVuSans-73" x="117.859375"/>
      <use xlink:href="#DejaVuSans-69" x="169.958984"/>
      <use xlink:href="#DejaVuSans-74" x="197.742188"/>
      <use xlink:href="#DejaVuSans-69" x="236.951172"/>
      <use xlink:href="#DejaVuSans-6f" x="264.734375"/>
      <use xlink:href="#DejaVuSans-6e" x="325.916016"/>
      <use xlink:href="#DejaVuSans-20" x="389.294922"/>
      <use xlink:href="#DejaVuSans-28" x="421.082031"/>
      <use xlink:href="#DejaVuSans-62" x="460.095703"/>
      <use xlink:href="#DejaVuSans-70" x="523.572266"/>
      <use xlink:href="#DejaVuSans-29" x="587.048828"/>
     </g>
    </g>
   </g>
   <g id="matplotlib.axis_2">
    <g id="ytick_1">
     <g id="line2d_1">
      <path d="M 38.058125 273.99006 
L 993.118125 273.99006 
" clip-path="url(#p88ce1ff288)" style="fill: none; stroke: #dedede; stroke-linecap: square"/>
     </g>
     <g id="text_10">
      <!-- 0 -->
      <g transform="translate(25.968125 277.029435) scale(0.08 -0.08)">
       <use xlink:href="#DejaVuSans-30"/>
      </g>
     </g>
    </g>
    <g id="ytick_2">
     <g id="line2d_2">
      <path d="M 38.058125 241.687247 
L 993.118125 241.687247 
" clip-path="url(#p88ce1ff288)" style="fill: none; stroke: #dedede; stroke-linecap: square"/>
     </g>
     <g id="text_11">
      <!-- 5 -->
      <g transform="translate(25.968125 244.726622) scale(0.08 -0.08)">
       <defs>
        <path id="DejaVuSans-35" d="M 691 4666 
L 3169 4666 
L 3169 4134 
L 1269 4134 
L 1269 2991 
Q 1406 3038 1543 3061 
Q 1681 3084 1819 3084 
Q 2600 3084 3056 2656 
Q 3513 2228 3513 1497 
Q 3513 744 3044 326 
Q 2575 -91 1722 -91 
Q 1428 -91 1123 -41 
Q 819 9 494 109 
L 494 744 
Q 775 591 1075 516 
Q 1375 441 1709 441 
Q 2250 441 2565 725 
Q 2881 1009 2881 1497 
Q 2881 1984 2565 2268 
Q 2250 2553 1709 2553 
Q 1456 2553 1204 2497 
Q 953 2441 691 2322 
L 691 4666 
z
" transform="scale(0.015625)"/>
       </defs>
       <use xlink:href="#DejaVuSans-35"/>
      </g>
     </g>
    </g>
    <g id="ytick_3">
     <g id="line2d_3">
      <path d="M 38.058125 209.384433 
L 993.118125 209.384433 
" clip-path="url(#p88ce1ff288)" style="fill: none; stroke: #dedede; stroke-linecap: square"/>
     </g>
     <g id="text_12">
      <!-- 10 -->
      <g transform="translate(20.878125 212.423808) scale(0.08 -0.08)">
       <use xlink:href="#DejaVuSans-31"/>
       <use xlink:href="#DejaVuSans-30" x="63.623047"/>
      </g>
     </g>
    </g>
    <g id="ytick_4">
     <g id="line2d_4">
      <path d="M 38.058125 177.08162 
L 993.118125 177.08162 
" clip-path="url(#p88ce1ff288)" style="fill: none; stroke: #dedede; stroke-linecap: square"/>
     </g>
     <g id="text_13">
      <!-- 15 -->
      <g transform="translate(20.878125 180.120995) scale(0.08 -0.08)">
       <use xlink:href="#DejaVuSans-31"/>
       <use xlink:href="#DejaVuSans-35" x="63.623047"/>
      </g>
     </g>
    </g>
    <g id="ytick_5">
     <g id="line2d_5">
      <path d="M 38.058125 144.778806 
L 993.118125 144.778806 
" clip-path="url(#p88ce1ff288)" style="fill: none; stroke: #dedede; stroke-linecap: square"/>
     </g>
     <g id="text_14">
      <!-- 20 -->
      <g transform="translate(20.878125 147.818181) scale(0.08 -0.08)">
       <use xlink:href="#DejaVuSans-32"/>
       <use xlink:href="#DejaVuSans-30" x="63.623047"/>
      </g>
     </g>
    </g>
    <g id="ytick_6">
     <g id="line2d_6">
      <path d="M 38.058125 112.475993 
L 993.118125 112.475993 
" clip-path="url(#p88ce1ff288)" style="fill: none; stroke: #dedede; stroke-linecap: square"/>
     </g>
     <g id="text_15">
      <!-- 25 -->
      <g transform="translate(20.878125 115.515368) scale(0.08 -0.08)">
       <use xlink:href="#DejaVuSans-32"/>
       <use xlink:href="#DejaVuSans-35" x="63.623047"/>
      </g>
     </g>
    </g>
    <g id="ytick_7">
     <g id="line2d_7">
      <path d="M 38.058125 80.17318 
L 993.118125 80.17318 
" clip-path="url(#p88ce1ff288)" style="fill: none; stroke: #dedede; stroke-linecap: square"/>
     </g>
     <g id="text_16">
      <!-- 30 -->
      <g transform="translate(20.878125 83.212555) scale(0.08 -0.08)">
       <defs>
        <path id="DejaVuSans-33" d="M 2597 2516 
Q 3050 2419 3304 2112 
Q 3559 1806 3559 1356 
Q 3559 666 3084 287 
Q 2609 -91 1734 -91 
Q 1441 -91 1130 -33 
Q 819 25 488 141 
L 488 750 
Q 750 597 1062 519 
Q 1375 441 1716 441 
Q 2309 441 2620 675 
Q 2931 909 2931 1356 
Q 2931 1769 2642 2001 
Q 2353 2234 1838 2234 
L 1294 2234 
L 1294 2753 
L 1863 2753 
Q 2328 2753 2575 2939 
Q 2822 3125 2822 3475 
Q 2822 3834 2567 4026 
Q 2313 4219 1838 4219 
Q 1578 4219 1281 4162 
Q 984 4106 628 3988 
L 628 4550 
Q 988 4650 1302 4700 
Q 1616 4750 1894 4750 
Q 2613 4750 3031 4423 
Q 3450 4097 3450 3541 
Q 3450 3153 3228 2886 
Q 3006 2619 2597 2516 
z
" transform="scale(0.015625)"/>
       </defs>
       <use xlink:href="#DejaVuSans-33"/>
       <use xlink:href="#DejaVuSans-30" x="63.623047"/>
      </g>
     </g>
    </g>
    <g id="ytick_8">
     <g id="line2d_8">
      <path d="M 38.058125 47.870366 
L 993.118125 47.870366 
" clip-path="url(#p88ce1ff288)" style="fill: none; stroke: #dedede; stroke-linecap: square"/>
     </g>
     <g id="text_17">
      <!-- 35 -->
      <g transform="translate(20.878125 50.909741) scale(0.08 -0.08)">
       <use xlink:href="#DejaVuSans-33"/>
       <use xlink:href="#DejaVuSans-35" x="63.623047"/>
      </g>
     </g>
    </g>
    <g id="text_18">
     <!-- Phred Score -->
     <g transform="translate(14.798438 182.70521) rotate(-90) scale(0.1 -0.1)">
      <defs>
       <path id="DejaVuSans-68" d="M 3513 2113 
L 3513 0 
L 2938 0 
L 2938 2094 
Q 2938 2591 2744 2837 
Q 2550 3084 2163 3084 
Q 1697 3084 1428 2787 
Q 1159 2491 1159 1978 
L 1159 0 
L 581 0 
L 581 4863 
L 1159 4863 
L 1159 2956 
Q 1366 3272 1645 3428 
Q 1925 3584 2291 3584 
Q 2894 3584 3203 3211 
Q 3513 2838 3513 2113 
z
" transform="scale(0.015625)"/>
       <path id="DejaVuSans-72" d="M 2631 2963 
Q 2534 3019 2420 3045 
Q 2306 3072 2169 3072 
Q 1681 3072 1420 2755 
Q 1159 2438 1159 1844 
L 1159 0 
L 581 0 
L 581 3500 
L 1159 3500 
L 1159 2956 
Q 1341 3275 1631 3429 
Q 1922 3584 2338 3584 
Q 2397 3584 2469 3576 
Q 2541 3569 2628 3553 
L 2631 2963 
z
" transform="scale(0.015625)"/>
       <path id="DejaVuSans-65" d="M 3597 1894 
L 3597 1613 
L 953 1613 
Q 991 1019 1311 708 
Q 1631 397 2203 397 
Q 2534 397 2845 478 
Q 3156 559 3463 722 
L 3463 178 
Q 3153 47 2828 -22 
Q 2503 -91 2169 -91 
Q 1331 -91 842 396 
Q 353 884 353 1716 
Q 353 2575 817 3079 
Q 1281 3584 2069 3584 
Q 2775 3584 3186 3129 
Q 3597 2675 3597 1894 
z
M 3022 2063 
Q 3016 2534 2758 2815 
Q 2500 3097 2075 3097 
Q 1594 3097 1305 2825 
Q 1016 2553 972 2059 
L 3022 2063 
z
" transform="scale(0.015625)"/>
       <path id="DejaVuSans-64" d="M 2906 2969 
L 2906 4863 
L 3481 4863 
L 3481 0 
L 2906 0 
L 2906 525 
Q 2725 213 2448 61 
Q 2172 -91 1784 -91 
Q 1150 -91 751 415 
Q 353 922 353 1747 
Q 353 2572 751 3078 
Q 1150 3584 1784 3584 
Q 2172 3584 2448 3432 
Q 2725 3281 2906 2969 
z
M 947 1747 
Q 947 1113 1208 752 
Q 1469 391 1925 391 
Q 2381 391 2643 752 
Q 2906 1113 2906 1747 
Q 2906 2381 2643 2742 
Q 2381 3103 1925 3103 
Q 1469 3103 1208 2742 
Q 947 2381 947 1747 
z
" transform="scale(0.015625)"/>
       <path id="DejaVuSans-53" d="M 3425 4513 
L 3425 3897 
Q 3066 4069 2747 4153 
Q 2428 4238 2131 4238 
Q 1616 4238 1336 4038 
Q 1056 3838 1056 3469 
Q 1056 3159 1242 3001 
Q 1428 2844 1947 2747 
L 2328 2669 
Q 3034 2534 3370 2195 
Q 3706 1856 3706 1288 
Q 3706 609 3251 259 
Q 2797 -91 1919 -91 
Q 1588 -91 1214 -16 
Q 841 59 441 206 
L 441 856 
Q 825 641 1194 531 
Q 1563 422 1919 422 
Q 2459 422 2753 634 
Q 3047 847 3047 1241 
Q 3047 1584 2836 1778 
Q 2625 1972 2144 2069 
L 1759 2144 
Q 1053 2284 737 2584 
Q 422 2884 422 3419 
Q 422 4038 858 4394 
Q 1294 4750 2059 4750 
Q 2388 4750 2728 4690 
Q 3069 4631 3425 4513 
z
" transform="scale(0.015625)"/>
       <path id="DejaVuSans-63" d="M 3122 3366 
L 3122 2828 
Q 2878 2963 2633 3030 
Q 2388 3097 2138 3097 
Q 1578 3097 1268 2742 
Q 959 2388 959 1747 
Q 959 1106 1268 751 
Q 1578 397 2138 397 
Q 2388 397 2633 464 
Q 2878 531 3122 666 
L 3122 134 
Q 2881 22 2623 -34 
Q 2366 -91 2075 -91 
Q 1284 -91 818 406 
Q 353 903 353 1747 
Q 353 2603 823 3093 
Q 1294 3584 2113 3584 
Q 2378 3584 2631 3529 
Q 2884 3475 3122 3366 
z
" transform="scale(0.015625)"/>
      </defs>
      <use xlink:href="#DejaVuSans-50"/>
      <use xlink:href="#DejaVuSans-68" x="60.302734"/>
      <use xlink:href="#DejaVuSans-72" x="123.681641"/>
      <use xlink:href="#DejaVuSans-65" x="162.544922"/>
      <use xlink:href="#DejaVuSans-64" x="224.068359"/>
      <use xlink:href="#DejaVuSans-20" x="287.544922"/>
      <use xlink:href="#DejaVuSans-53" x="319.332031"/>
      <use xlink:href="#DejaVuSans-63" x="382.808594"/>
      <use xlink:href="#DejaVuSans-6f" x="437.789062"/>
      <use xlink:href="#DejaVuSans-72" x="498.970703"/>
      <use xlink:href="#DejaVuSans-65" x="537.833984"/>
     </g>
    </g>
   </g>
   <g id="line2d_9">
    <path d="M 81.469943 102.025743 
L 87.297033 49.556671 
L 93.124123 45.314802 
L 98.951212 45.639715 
L 104.778302 45.144378 
L 110.605392 44.137792 
L 116.432481 43.696496 
L 122.259571 43.972695 
L 128.086661 42.874749 
L 145.56793 42.674489 
L 174.703378 39.645021 
L 203.838827 38.616727 
L 232.974275 39.641037 
L 262.109724 39.64084 
L 291.245172 38.98513 
L 320.38062 38.705981 
L 349.516069 38.572555 
L 378.651517 38.512892 
L 407.786966 38.490235 
L 436.922414 38.530574 
L 466.057863 38.503356 
L 495.193311 38.603471 
L 524.32876 38.606137 
L 553.464208 38.654009 
L 582.599656 38.758884 
L 611.735105 38.797826 
L 640.870553 38.928688 
L 670.006002 39.033846 
L 699.14145 39.207571 
L 728.276899 39.350099 
L 757.412347 39.464869 
L 786.547796 39.734439 
L 815.683244 39.82368 
L 844.818692 40.076692 
L 873.954141 40.373205 
L 903.089589 40.541419 
L 932.225038 40.704334 
L 949.706307 36.938957 
" clip-path="url(#p88ce1ff288)" style="fill: none; stroke: #5cb85c; stroke-linecap: square"/>
   </g>
   <g id="line2d_10">
    <path d="M 81.469943 125.867369 
L 87.297033 45.167856 
L 93.124123 42.523566 
L 98.951212 41.75967 
L 104.778302 41.621905 
L 110.605392 40.631574 
L 116.432481 40.661237 
L 122.259571 39.667092 
L 128.086661 39.593144 
L 145.56793 39.213945 
L 174.703378 38.874379 
L 203.838827 38.679403 
L 232.974275 39.6913 
L 262.109724 39.706971 
L 291.245172 39.372899 
L 320.38062 39.174113 
L 349.516069 38.987696 
L 378.651517 38.938909 
L 407.786966 38.993956 
L 436.922414 38.882248 
L 466.057863 38.930325 
L 495.193311 39.034382 
L 524.32876 39.122622 
L 553.464208 39.243524 
L 582.599656 39.421138 
L 611.735105 39.535224 
L 640.870553 39.704723 
L 670.006002 39.869267 
L 699.14145 39.998077 
L 728.276899 40.151414 
L 757.412347 40.372943 
L 786.547796 40.601215 
L 815.683244 40.813674 
L 844.818692 40.95873 
L 873.954141 41.191941 
L 903.089589 41.490399 
L 932.225038 41.608911 
L 949.706307 37.117204 
" clip-path="url(#p88ce1ff288)" style="fill: none; stroke: #f0ad4e; stroke-linecap: square"/>
   </g>
   <g id="line2d_11">
    <path d="M 81.469943 109.451641 
L 87.297033 53.376732 
L 93.124123 48.324247 
L 98.951212 49.089191 
L 104.778302 48.352962 
L 110.605392 46.608901 
L 116.432481 45.971981 
L 122.259571 46.457535 
L 128.086661 44.715525 
L 145.56793 44.438036 
L 174.703378 40.4823 
L 203.838827 39.342849 
L 232.974275 40.911173 
L 262.109724 40.713515 
L 291.245172 39.838237 
L 320.38062 39.504452 
L 349.516069 39.233039 
L 378.651517 39.272613 
L 407.786966 39.220643 
L 436.922414 39.070813 
L 466.057863 39.124552 
L 495.193311 39.216629 
L 524.32876 39.166318 
L 553.464208 39.290266 
L 582.599656 39.480328 
L 611.735105 39.474666 
L 640.870553 39.54477 
L 670.006002 39.656923 
L 699.14145 39.808676 
L 728.276899 40.047457 
L 757.412347 40.09825 
L 786.547796 40.417645 
L 815.683244 40.489167 
L 844.818692 40.862264 
L 873.954141 41.044405 
L 903.089589 41.26309 
L 932.225038 41.579416 
L 949.706307 37.014311 
" clip-path="url(#p88ce1ff288)" style="fill: none; stroke: #f0ad4e; stroke-linecap: square"/>
   </g>
   <g id="line2d_12">
    <path d="M 81.469943 133.855284 
L 87.297033 48.551692 
L 93.124123 44.214374 
L 98.951212 43.306999 
L 104.778302 42.741834 
L 110.605392 41.434061 
L 116.432481 41.655206 
L 122.259571 40.344874 
L 128.086661 40.667407 
L 145.56793 39.700966 
L 174.703378 39.375858 
L 203.838827 39.094718 
L 232.974275 40.280827 
L 262.109724 40.269963 
L 291.245172 40.132032 
L 320.38062 39.683163 
L 349.516069 39.448645 
L 378.651517 39.368062 
L 407.786966 39.548595 
L 436.922414 39.444733 
L 466.057863 39.439318 
L 495.193311 39.751928 
L 524.32876 39.638763 
L 553.464208 39.666866 
L 582.599656 39.890946 
L 611.735105 39.954856 
L 640.870553 40.169809 
L 670.006002 40.406623 
L 699.14145 40.535011 
L 728.276899 40.719304 
L 757.412347 41.090547 
L 786.547796 41.167314 
L 815.683244 41.533236 
L 844.818692 41.48182 
L 873.954141 41.758537 
L 903.089589 41.98589 
L 932.225038 42.18247 
L 949.706307 37.165475 
" clip-path="url(#p88ce1ff288)" style="fill: none; stroke: #d9534f; stroke-linecap: square"/>
   </g>
   <g id="line2d_13">
    <path d="M 81.469943 109.833511 
L 87.297033 51.252344 
L 93.124123 46.070877 
L 98.951212 46.070762 
L 104.778302 45.35759 
L 110.605392 44.490672 
L 116.432481 44.043691 
L 122.259571 44.384575 
L 128.086661 43.272507 
L 145.56793 43.053872 
L 174.703378 39.837912 
L 203.838827 38.784611 
L 232.974275 39.910494 
L 262.109724 39.913652 
L 291.245172 39.23788 
L 320.38062 38.945434 
L 349.516069 38.802346 
L 378.651517 38.737128 
L 407.786966 38.730383 
L 436.922414 38.783486 
L 466.057863 38.761036 
L 495.193311 38.888475 
L 524.32876 38.886604 
L 553.464208 38.95002 
L 582.599656 39.056481 
L 611.735105 39.125368 
L 640.870553 39.261054 
L 670.006002 39.402949 
L 699.14145 39.592587 
L 728.276899 39.776324 
L 757.412347 39.886471 
L 786.547796 40.224825 
L 815.683244 40.288627 
L 844.818692 40.590387 
L 873.954141 40.949262 
L 903.089589 41.165361 
L 932.225038 41.284421 
L 949.706307 37.021832 
" clip-path="url(#p88ce1ff288)" style="fill: none; stroke: #f0ad4e; stroke-linecap: square"/>
   </g>
   <g id="line2d_14">
    <path d="M 81.469943 132.334303 
L 87.297033 44.517922 
L 93.124123 42.592061 
L 98.951212 42.045108 
L 104.778302 41.509591 
L 110.605392 40.360532 
L 116.432481 40.275252 
L 122.259571 39.901345 
L 128.086661 39.673719 
L 145.56793 39.199385 
L 174.703378 38.914449 
L 203.838827 38.763794 
L 232.974275 39.862628 
L 262.109724 39.869734 
L 291.245172 39.501221 
L 320.38062 39.264724 
L 349.516069 39.081016 
L 378.651517 39.019723 
L 407.786966 39.051989 
L 436.922414 38.9758 
L 466.057863 39.07229 
L 495.193311 39.188663 
L 524.32876 39.268104 
L 553.464208 39.398804 
L 582.599656 39.561074 
L 611.735105 39.689269 
L 640.870553 39.879908 
L 670.006002 40.061818 
L 699.14145 40.182032 
L 728.276899 40.352215 
L 757.412347 40.574754 
L 786.547796 40.828223 
L 815.683244 41.031898 
L 844.818692 41.212483 
L 873.954141 41.482651 
L 903.089589 41.800123 
L 932.225038 41.975664 
L 949.706307 37.191391 
" clip-path="url(#p88ce1ff288)" style="fill: none; stroke: #d9534f; stroke-linecap: square"/>
   </g>
   <g id="line2d_15">
    <path d="M 81.469943 117.390362 
L 87.297033 54.902367 
L 93.124123 48.818189 
L 98.951212 49.285233 
L 104.778302 48.249917 
L 110.605392 46.750601 
L 116.432481 46.094142 
L 122.259571 46.636874 
L 128.086661 44.942787 
L 145.56793 44.68849 
L 174.703378 40.608085 
L 203.838827 39.46013 
L 232.974275 41.075061 
L 262.109724 40.898225 
L 291.245172 40.035659 
L 320.38062 39.704016 
L 349.516069 39.43313 
L 378.651517 39.473771 
L 407.786966 39.432882 
L 436.922414 39.297862 
L 466.057863 39.361787 
L 495.193311 39.476014 
L 524.32876 39.418736 
L 553.464208 39.564077 
L 582.599656 39.757922 
L 611.735105 39.787952 
L 640.870553 39.861102 
L 670.006002 40.00226 
L 699.14145 40.169667 
L 728.276899 40.459036 
L 757.412347 40.51024 
L 786.547796 40.889636 
L 815.683244 40.940528 
L 844.818692 41.357591 
L 873.954141 41.597351 
L 903.089589 41.867451 
L 932.225038 42.141278 
L 949.706307 37.081882 
" clip-path="url(#p88ce1ff288)" style="fill: none; stroke: #f0ad4e; stroke-linecap: square"/>
   </g>
   <g id="line2d_16">
    <path d="M 81.469943 146.060905 
L 87.297033 47.811371 
L 93.124123 44.563703 
L 98.951212 43.891531 
L 104.778302 42.854113 
L 110.605392 41.263001 
L 116.432481 41.355611 
L 122.259571 40.717758 
L 128.086661 40.880766 
L 145.56793 39.734902 
L 174.703378 39.428456 
L 203.838827 39.147129 
L 232.974275 40.457461 
L 262.109724 40.43746 
L 291.245172 40.256189 
L 320.38062 39.755996 
L 349.516069 39.519856 
L 378.651517 39.414203 
L 407.786966 39.570954 
L 436.922414 39.522495 
L 466.057863 39.562834 
L 495.193311 39.873819 
L 524.32876 39.772972 
L 553.464208 39.800814 
L 582.599656 40.014501 
L 611.735105 40.107829 
L 640.870553 40.324204 
L 670.006002 40.575932 
L 699.14145 40.709046 
L 728.276899 40.918213 
L 757.412347 41.285714 
L 786.547796 41.374734 
L 815.683244 41.738924 
L 844.818692 41.723433 
L 873.954141 42.034048 
L 903.089589 42.284749 
L 932.225038 42.557236 
L 949.706307 37.234221 
" clip-path="url(#p88ce1ff288)" style="fill: none; stroke: #d9534f; stroke-linecap: square"/>
   </g>
   <g id="line2d_17">
    <path d="M 81.469943 109.294238 
L 87.297033 52.433226 
L 93.124123 46.574417 
L 98.951212 47.627985 
L 104.778302 45.459699 
L 110.605392 44.594159 
L 116.432481 43.761874 
L 122.259571 43.868003 
L 128.086661 42.805794 
L 145.56793 42.723983 
L 174.703378 39.672905 
L 203.838827 38.692457 
L 232.974275 39.831112 
L 262.109724 39.850658 
L 291.245172 39.228343 
L 320.38062 38.886686 
L 349.516069 38.733882 
L 378.651517 38.683132 
L 407.786966 38.6821 
L 436.922414 38.725208 
L 466.057863 38.665751 
L 495.193311 38.824855 
L 524.32876 38.805216 
L 553.464208 38.823204 
L 582.599656 38.908525 
L 611.735105 39.04927 
L 640.870553 39.13309 
L 670.006002 39.297804 
L 699.14145 39.514474 
L 728.276899 39.667104 
L 757.412347 39.781345 
L 786.547796 40.061817 
L 815.683244 40.152179 
L 844.818692 40.489055 
L 873.954141 40.800529 
L 903.089589 40.919379 
L 932.225038 41.055531 
L 949.706307 36.987285 
" clip-path="url(#p88ce1ff288)" style="fill: none; stroke: #f0ad4e; stroke-linecap: square"/>
   </g>
   <g id="line2d_18">
    <path d="M 81.469943 131.812574 
L 87.297033 44.428015 
L 93.124123 45.100893 
L 98.951212 43.370074 
L 104.778302 42.77528 
L 110.605392 41.731352 
L 116.432481 41.598818 
L 122.259571 40.819573 
L 128.086661 40.576349 
L 145.56793 39.943125 
L 174.703378 39.533738 
L 203.838827 39.34417 
L 232.974275 41.077437 
L 262.109724 41.098779 
L 291.245172 40.489923 
L 320.38062 40.098164 
L 349.516069 39.811411 
L 378.651517 39.634868 
L 407.786966 39.577331 
L 436.922414 39.470046 
L 466.057863 39.48555 
L 495.193311 39.609641 
L 524.32876 39.65087 
L 553.464208 39.766408 
L 582.599656 39.941518 
L 611.735105 40.051906 
L 640.870553 40.262894 
L 670.006002 40.462601 
L 699.14145 40.58718 
L 728.276899 40.794721 
L 757.412347 40.980501 
L 786.547796 41.27509 
L 815.683244 41.43896 
L 844.818692 41.6359 
L 873.954141 41.893204 
L 903.089589 42.182661 
L 932.225038 42.260819 
L 949.706307 37.153726 
" clip-path="url(#p88ce1ff288)" style="fill: none; stroke: #d9534f; stroke-linecap: square"/>
   </g>
   <g id="line2d_19">
    <path d="M 81.469943 116.524176 
L 87.297033 56.607645 
L 93.124123 49.618063 
L 98.951212 52.015951 
L 104.778302 48.66605 
L 110.605392 46.990821 
L 116.432481 45.845982 
L 122.259571 46.146848 
L 128.086661 44.473305 
L 145.56793 44.337654 
L 174.703378 40.430438 
L 203.838827 39.361716 
L 232.974275 40.972671 
L 262.109724 40.806022 
L 291.245172 39.995704 
L 320.38062 39.616745 
L 349.516069 39.326049 
L 378.651517 39.381902 
L 407.786966 39.35848 
L 436.922414 39.212406 
L 466.057863 39.22588 
L 495.193311 39.389496 
L 524.32876 39.313482 
L 553.464208 39.397395 
L 582.599656 39.568612 
L 611.735105 39.663925 
L 640.870553 39.682233 
L 670.006002 39.848317 
L 699.14145 40.03674 
L 728.276899 40.298876 
L 757.412347 40.349717 
L 786.547796 40.659054 
L 815.683244 40.739829 
L 844.818692 41.188831 
L 873.954141 41.375314 
L 903.089589 41.53981 
L 932.225038 41.829761 
L 949.706307 37.052233 
" clip-path="url(#p88ce1ff288)" style="fill: none; stroke: #f0ad4e; stroke-linecap: square"/>
   </g>
   <g id="line2d_20">
    <path d="M 81.469943 144.191093 
L 87.297033 47.140313 
L 93.124123 46.834811 
L 98.951212 44.960179 
L 104.778302 43.901764 
L 110.605392 42.497958 
L 116.432481 42.568345 
L 122.259571 41.521903 
L 128.086661 41.675654 
L 145.56793 40.413957 
L 174.703378 40.001145 
L 203.838827 39.695252 
L 232.974275 41.627991 
L 262.109724 41.619871 
L 291.245172 41.196532 
L 320.38062 40.556578 
L 349.516069 40.217751 
L 378.651517 40.002949 
L 407.786966 40.071666 
L 436.922414 39.986028 
L 466.057863 39.950085 
L 495.193311 40.270922 
L 524.32876 40.116365 
L 553.464208 40.144398 
L 582.599656 40.367817 
L 611.735105 40.429547 
L 640.870553 40.673679 
L 670.006002 40.932657 
L 699.14145 41.072263 
L 728.276899 41.323005 
L 757.412347 41.640951 
L 786.547796 41.770718 
L 815.683244 42.086509 
L 844.818692 42.083912 
L 873.954141 42.374632 
L 903.089589 42.576123 
L 932.225038 42.724307 
L 949.706307 37.174121 
" clip-path="url(#p88ce1ff288)" style="fill: none; stroke: #d9534f; stroke-linecap: square"/>
   </g>
   <g id="line2d_21">
    <path d="M 38.058125 273.99006 
L 993.118125 273.99006 
" clip-path="url(#p88ce1ff288)" style="fill: none; stroke: #dedede; stroke-width: 2; stroke-linecap: square"/>
   </g>
   <g id="text_19">
    <!-- FastQC: Mean Quality Scores -->
    <g transform="translate(400.349375 19.3575) scale(0.16 -0.16)">
     <defs>
      <path id="DejaVuSans-46" d="M 628 4666 
L 3309 4666 
L 3309 4134 
L 1259 4134 
L 1259 2759 
L 3109 2759 
L 3109 2228 
L 1259 2228 
L 1259 0 
L 628 0 
L 628 4666 
z
" transform="scale(0.015625)"/>
      <path id="DejaVuSans-61" d="M 2194 1759 
Q 1497 1759 1228 1600 
Q 959 1441 959 1056 
Q 959 750 1161 570 
Q 1363 391 1709 391 
Q 2188 391 2477 730 
Q 2766 1069 2766 1631 
L 2766 1759 
L 2194 1759 
z
M 3341 1997 
L 3341 0 
L 2766 0 
L 2766 531 
Q 2569 213 2275 61 
Q 1981 -91 1556 -91 
Q 1019 -91 701 211 
Q 384 513 384 1019 
Q 384 1609 779 1909 
Q 1175 2209 1959 2209 
L 2766 2209 
L 2766 2266 
Q 2766 2663 2505 2880 
Q 2244 3097 1772 3097 
Q 1472 3097 1187 3025 
Q 903 2953 641 2809 
L 641 3341 
Q 956 3463 1253 3523 
Q 1550 3584 1831 3584 
Q 2591 3584 2966 3190 
Q 3341 2797 3341 1997 
z
" transform="scale(0.015625)"/>
      <path id="DejaVuSans-51" d="M 2522 4238 
Q 1834 4238 1429 3725 
Q 1025 3213 1025 2328 
Q 1025 1447 1429 934 
Q 1834 422 2522 422 
Q 3209 422 3611 934 
Q 4013 1447 4013 2328 
Q 4013 3213 3611 3725 
Q 3209 4238 2522 4238 
z
M 3406 84 
L 4238 -825 
L 3475 -825 
L 2784 -78 
Q 2681 -84 2626 -87 
Q 2572 -91 2522 -91 
Q 1538 -91 948 567 
Q 359 1225 359 2328 
Q 359 3434 948 4092 
Q 1538 4750 2522 4750 
Q 3503 4750 4090 4092 
Q 4678 3434 4678 2328 
Q 4678 1516 4351 937 
Q 4025 359 3406 84 
z
" transform="scale(0.015625)"/>
      <path id="DejaVuSans-43" d="M 4122 4306 
L 4122 3641 
Q 3803 3938 3442 4084 
Q 3081 4231 2675 4231 
Q 1875 4231 1450 3742 
Q 1025 3253 1025 2328 
Q 1025 1406 1450 917 
Q 1875 428 2675 428 
Q 3081 428 3442 575 
Q 3803 722 4122 1019 
L 4122 359 
Q 3791 134 3420 21 
Q 3050 -91 2638 -91 
Q 1578 -91 968 557 
Q 359 1206 359 2328 
Q 359 3453 968 4101 
Q 1578 4750 2638 4750 
Q 3056 4750 3426 4639 
Q 3797 4528 4122 4306 
z
" transform="scale(0.015625)"/>
      <path id="DejaVuSans-3a" d="M 750 794 
L 1409 794 
L 1409 0 
L 750 0 
L 750 794 
z
M 750 3309 
L 1409 3309 
L 1409 2516 
L 750 2516 
L 750 3309 
z
" transform="scale(0.015625)"/>
      <path id="DejaVuSans-4d" d="M 628 4666 
L 1569 4666 
L 2759 1491 
L 3956 4666 
L 4897 4666 
L 4897 0 
L 4281 0 
L 4281 4097 
L 3078 897 
L 2444 897 
L 1241 4097 
L 1241 0 
L 628 0 
L 628 4666 
z
" transform="scale(0.015625)"/>
      <path id="DejaVuSans-75" d="M 544 1381 
L 544 3500 
L 1119 3500 
L 1119 1403 
Q 1119 906 1312 657 
Q 1506 409 1894 409 
Q 2359 409 2629 706 
Q 2900 1003 2900 1516 
L 2900 3500 
L 3475 3500 
L 3475 0 
L 2900 0 
L 2900 538 
Q 2691 219 2414 64 
Q 2138 -91 1772 -91 
Q 1169 -91 856 284 
Q 544 659 544 1381 
z
M 1991 3584 
L 1991 3584 
z
" transform="scale(0.015625)"/>
      <path id="DejaVuSans-6c" d="M 603 4863 
L 1178 4863 
L 1178 0 
L 603 0 
L 603 4863 
z
" transform="scale(0.015625)"/>
      <path id="DejaVuSans-79" d="M 2059 -325 
Q 1816 -950 1584 -1140 
Q 1353 -1331 966 -1331 
L 506 -1331 
L 506 -850 
L 844 -850 
Q 1081 -850 1212 -737 
Q 1344 -625 1503 -206 
L 1606 56 
L 191 3500 
L 800 3500 
L 1894 763 
L 2988 3500 
L 3597 3500 
L 2059 -325 
z
" transform="scale(0.015625)"/>
     </defs>
     <use xlink:href="#DejaVuSans-46"/>
     <use xlink:href="#DejaVuSans-61" x="48.394531"/>
     <use xlink:href="#DejaVuSans-73" x="109.673828"/>
     <use xlink:href="#DejaVuSans-74" x="161.773438"/>
     <use xlink:href="#DejaVuSans-51" x="200.982422"/>
     <use xlink:href="#DejaVuSans-43" x="279.693359"/>
     <use xlink:href="#DejaVuSans-3a" x="349.517578"/>
     <use xlink:href="#DejaVuSans-20" x="383.208984"/>
     <use xlink:href="#DejaVuSans-4d" x="414.996094"/>
     <use xlink:href="#DejaVuSans-65" x="501.275391"/>
     <use xlink:href="#DejaVuSans-61" x="562.798828"/>
     <use xlink:href="#DejaVuSans-6e" x="624.078125"/>
     <use xlink:href="#DejaVuSans-20" x="687.457031"/>
     <use xlink:href="#DejaVuSans-51" x="719.244141"/>
     <use xlink:href="#DejaVuSans-75" x="797.955078"/>
     <use xlink:href="#DejaVuSans-61" x="861.333984"/>
     <use xlink:href="#DejaVuSans-6c" x="922.613281"/>
     <use xlink:href="#DejaVuSans-69" x="950.396484"/>
     <use xlink:href="#DejaVuSans-74" x="978.179688"/>
     <use xlink:href="#DejaVuSans-79" x="1017.388672"/>
     <use xlink:href="#DejaVuSans-20" x="1076.568359"/>
     <use xlink:href="#DejaVuSans-53" x="1108.355469"/>
     <use xlink:href="#DejaVuSans-63" x="1171.832031"/>
     <use xlink:href="#DejaVuSans-6f" x="1226.8125"/>
     <use xlink:href="#DejaVuSans-72" x="1287.994141"/>
     <use xlink:href="#DejaVuSans-65" x="1326.857422"/>
     <use xlink:href="#DejaVuSans-73" x="1388.380859"/>
    </g>
   </g>
   <g id="legend_1">
    <g id="line2d_22">
     <path d="M 45.258125 291.525394 
L 53.258125 291.525394 
L 61.258125 291.525394 
" style="fill: none; stroke: #5cb85c; stroke-linecap: square"/>
    </g>
    <g id="text_20">
     <!-- TK9_1_22FFLLLT3_AGAGAACCTA-GGTTATGCTA_L005_T1_1 -->
     <g transform="translate(67.658125 294.325394) scale(0.08 -0.08)">
      <defs>
       <path id="DejaVuSans-54" d="M -19 4666 
L 3928 4666 
L 3928 4134 
L 2272 4134 
L 2272 0 
L 1638 0 
L 1638 4134 
L -19 4134 
L -19 4666 
z
" transform="scale(0.015625)"/>
       <path id="DejaVuSans-4b" d="M 628 4666 
L 1259 4666 
L 1259 2694 
L 3353 4666 
L 4166 4666 
L 1850 2491 
L 4331 0 
L 3500 0 
L 1259 2247 
L 1259 0 
L 628 0 
L 628 4666 
z
" transform="scale(0.015625)"/>
       <path id="DejaVuSans-39" d="M 703 97 
L 703 672 
Q 941 559 1184 500 
Q 1428 441 1663 441 
Q 2288 441 2617 861 
Q 2947 1281 2994 2138 
Q 2813 1869 2534 1725 
Q 2256 1581 1919 1581 
Q 1219 1581 811 2004 
Q 403 2428 403 3163 
Q 403 3881 828 4315 
Q 1253 4750 1959 4750 
Q 2769 4750 3195 4129 
Q 3622 3509 3622 2328 
Q 3622 1225 3098 567 
Q 2575 -91 1691 -91 
Q 1453 -91 1209 -44 
Q 966 3 703 97 
z
M 1959 2075 
Q 2384 2075 2632 2365 
Q 2881 2656 2881 3163 
Q 2881 3666 2632 3958 
Q 2384 4250 1959 4250 
Q 1534 4250 1286 3958 
Q 1038 3666 1038 3163 
Q 1038 2656 1286 2365 
Q 1534 2075 1959 2075 
z
" transform="scale(0.015625)"/>
       <path id="DejaVuSans-5f" d="M 3263 -1063 
L 3263 -1509 
L -63 -1509 
L -63 -1063 
L 3263 -1063 
z
" transform="scale(0.015625)"/>
       <path id="DejaVuSans-4c" d="M 628 4666 
L 1259 4666 
L 1259 531 
L 3531 531 
L 3531 0 
L 628 0 
L 628 4666 
z
" transform="scale(0.015625)"/>
       <path id="DejaVuSans-41" d="M 2188 4044 
L 1331 1722 
L 3047 1722 
L 2188 4044 
z
M 1831 4666 
L 2547 4666 
L 4325 0 
L 3669 0 
L 3244 1197 
L 1141 1197 
L 716 0 
L 50 0 
L 1831 4666 
z
" transform="scale(0.015625)"/>
       <path id="DejaVuSans-47" d="M 3809 666 
L 3809 1919 
L 2778 1919 
L 2778 2438 
L 4434 2438 
L 4434 434 
Q 4069 175 3628 42 
Q 3188 -91 2688 -91 
Q 1594 -91 976 548 
Q 359 1188 359 2328 
Q 359 3472 976 4111 
Q 1594 4750 2688 4750 
Q 3144 4750 3555 4637 
Q 3966 4525 4313 4306 
L 4313 3634 
Q 3963 3931 3569 4081 
Q 3175 4231 2741 4231 
Q 1884 4231 1454 3753 
Q 1025 3275 1025 2328 
Q 1025 1384 1454 906 
Q 1884 428 2741 428 
Q 3075 428 3337 486 
Q 3600 544 3809 666 
z
" transform="scale(0.015625)"/>
       <path id="DejaVuSans-2d" d="M 313 2009 
L 1997 2009 
L 1997 1497 
L 313 1497 
L 313 2009 
z
" transform="scale(0.015625)"/>
      </defs>
      <use xlink:href="#DejaVuSans-54"/>
      <use xlink:href="#DejaVuSans-4b" x="61.083984"/>
      <use xlink:href="#DejaVuSans-39" x="126.660156"/>
      <use xlink:href="#DejaVuSans-5f" x="190.283203"/>
      <use xlink:href="#DejaVuSans-31" x="240.283203"/>
      <use xlink:href="#DejaVuSans-5f" x="303.90625"/>
      <use xlink:href="#DejaVuSans-32" x="353.90625"/>
      <use xlink:href="#DejaVuSans-32" x="417.529297"/>
      <use xlink:href="#DejaVuSans-46" x="481.152344"/>
      <use xlink:href="#DejaVuSans-46" x="538.671875"/>
      <use xlink:href="#DejaVuSans-4c" x="596.191406"/>
      <use xlink:href="#DejaVuSans-4c" x="651.904297"/>
      <use xlink:href="#DejaVuSans-4c" x="707.617188"/>
      <use xlink:href="#DejaVuSans-54" x="749.580078"/>
      <use xlink:href="#DejaVuSans-33" x="810.664062"/>
      <use xlink:href="#DejaVuSans-5f" x="874.287109"/>
      <use xlink:href="#DejaVuSans-41" x="924.287109"/>
      <use xlink:href="#DejaVuSans-47" x="990.945312"/>
      <use xlink:href="#DejaVuSans-41" x="1068.435547"/>
      <use xlink:href="#DejaVuSans-47" x="1135.09375"/>
      <use xlink:href="#DejaVuSans-41" x="1212.583984"/>
      <use xlink:href="#DejaVuSans-41" x="1283.742188"/>
      <use xlink:href="#DejaVuSans-43" x="1350.400391"/>
      <use xlink:href="#DejaVuSans-43" x="1420.224609"/>
      <use xlink:href="#DejaVuSans-54" x="1490.048828"/>
      <use xlink:href="#DejaVuSans-41" x="1543.382812"/>
      <use xlink:href="#DejaVuSans-2d" x="1609.541016"/>
      <use xlink:href="#DejaVuSans-47" x="1649.25"/>
      <use xlink:href="#DejaVuSans-47" x="1726.740234"/>
      <use xlink:href="#DejaVuSans-54" x="1800.605469"/>
      <use xlink:href="#DejaVuSans-54" x="1859.939453"/>
      <use xlink:href="#DejaVuSans-41" x="1913.273438"/>
      <use xlink:href="#DejaVuSans-54" x="1973.931641"/>
      <use xlink:href="#DejaVuSans-47" x="2035.015625"/>
      <use xlink:href="#DejaVuSans-43" x="2112.505859"/>
      <use xlink:href="#DejaVuSans-54" x="2182.330078"/>
      <use xlink:href="#DejaVuSans-41" x="2235.664062"/>
      <use xlink:href="#DejaVuSans-5f" x="2304.072266"/>
      <use xlink:href="#DejaVuSans-4c" x="2354.072266"/>
      <use xlink:href="#DejaVuSans-30" x="2409.785156"/>
      <use xlink:href="#DejaVuSans-30" x="2473.408203"/>
      <use xlink:href="#DejaVuSans-35" x="2537.03125"/>
      <use xlink:href="#DejaVuSans-5f" x="2600.654297"/>
      <use xlink:href="#DejaVuSans-54" x="2650.654297"/>
      <use xlink:href="#DejaVuSans-31" x="2711.738281"/>
      <use xlink:href="#DejaVuSans-5f" x="2775.361328"/>
      <use xlink:href="#DejaVuSans-31" x="2825.361328"/>
     </g>
    </g>
    <g id="line2d_23">
     <path d="M 45.258125 303.490394 
L 53.258125 303.490394 
L 61.258125 303.490394 
" style="fill: none; stroke: #f0ad4e; stroke-linecap: square"/>
    </g>
    <g id="text_21">
     <!-- TK9_1_22FFLLLT3_AGAGAACCTA-GGTTATGCTA_L005_T1_2 -->
     <g transform="translate(67.658125 306.290394) scale(0.08 -0.08)">
      <use xlink:href="#DejaVuSans-54"/>
      <use xlink:href="#DejaVuSans-4b" x="61.083984"/>
      <use xlink:href="#DejaVuSans-39" x="126.660156"/>
      <use xlink:href="#DejaVuSans-5f" x="190.283203"/>
      <use xlink:href="#DejaVuSans-31" x="240.283203"/>
      <use xlink:href="#DejaVuSans-5f" x="303.90625"/>
      <use xlink:href="#DejaVuSans-32" x="353.90625"/>
      <use xlink:href="#DejaVuSans-32" x="417.529297"/>
      <use xlink:href="#DejaVuSans-46" x="481.152344"/>
      <use xlink:href="#DejaVuSans-46" x="538.671875"/>
      <use xlink:href="#DejaVuSans-4c" x="596.191406"/>
      <use xlink:href="#DejaVuSans-4c" x="651.904297"/>
      <use xlink:href="#DejaVuSans-4c" x="707.617188"/>
      <use xlink:href="#DejaVuSans-54" x="749.580078"/>
      <use xlink:href="#DejaVuSans-33" x="810.664062"/>
      <use xlink:href="#DejaVuSans-5f" x="874.287109"/>
      <use xlink:href="#DejaVuSans-41" x="924.287109"/>
      <use xlink:href="#DejaVuSans-47" x="990.945312"/>
      <use xlink:href="#DejaVuSans-41" x="1068.435547"/>
      <use xlink:href="#DejaVuSans-47" x="1135.09375"/>
      <use xlink:href="#DejaVuSans-41" x="1212.583984"/>
      <use xlink:href="#DejaVuSans-41" x="1283.742188"/>
      <use xlink:href="#DejaVuSans-43" x="1350.400391"/>
      <use xlink:href="#DejaVuSans-43" x="1420.224609"/>
      <use xlink:href="#DejaVuSans-54" x="1490.048828"/>
      <use xlink:href="#DejaVuSans-41" x="1543.382812"/>
      <use xlink:href="#DejaVuSans-2d" x="1609.541016"/>
      <use xlink:href="#DejaVuSans-47" x="1649.25"/>
      <use xlink:href="#DejaVuSans-47" x="1726.740234"/>
      <use xlink:href="#DejaVuSans-54" x="1800.605469"/>
      <use xlink:href="#DejaVuSans-54" x="1859.939453"/>
      <use xlink:href="#DejaVuSans-41" x="1913.273438"/>
      <use xlink:href="#DejaVuSans-54" x="1973.931641"/>
      <use xlink:href="#DejaVuSans-47" x="2035.015625"/>
      <use xlink:href="#DejaVuSans-43" x="2112.505859"/>
      <use xlink:href="#DejaVuSans-54" x="2182.330078"/>
      <use xlink:href="#DejaVuSans-41" x="2235.664062"/>
      <use xlink:href="#DejaVuSans-5f" x="2304.072266"/>
      <use xlink:href="#DejaVuSans-4c" x="2354.072266"/>
      <use xlink:href="#DejaVuSans-30" x="2409.785156"/>
      <use xlink:href="#DejaVuSans-30" x="2473.408203"/>
      <use xlink:href="#DejaVuSans-35" x="2537.03125"/>
      <use xlink:href="#DejaVuSans-5f" x="2600.654297"/>
      <use xlink:href="#DejaVuSans-54" x="2650.654297"/>
      <use xlink:href="#DejaVuSans-31" x="2711.738281"/>
      <use xlink:href="#DejaVuSans-5f" x="2775.361328"/>
      <use xlink:href="#DejaVuSans-32" x="2825.361328"/>
     </g>
    </g>
    <g id="line2d_24">
     <path d="M 45.258125 315.455394 
L 53.258125 315.455394 
L 61.258125 315.455394 
" style="fill: none; stroke: #f0ad4e; stroke-linecap: square"/>
    </g>
    <g id="text_22">
     <!-- TK9_1_22FFLLLT3_AGAGAACCTA-GGTTATGCTA_L006_T1_1 -->
     <g transform="translate(67.658125 318.255394) scale(0.08 -0.08)">
      <use xlink:href="#DejaVuSans-54"/>
      <use xlink:href="#DejaVuSans-4b" x="61.083984"/>
      <use xlink:href="#DejaVuSans-39" x="126.660156"/>
      <use xlink:href="#DejaVuSans-5f" x="190.283203"/>
      <use xlink:href="#DejaVuSans-31" x="240.283203"/>
      <use xlink:href="#DejaVuSans-5f" x="303.90625"/>
      <use xlink:href="#DejaVuSans-32" x="353.90625"/>
      <use xlink:href="#DejaVuSans-32" x="417.529297"/>
      <use xlink:href="#DejaVuSans-46" x="481.152344"/>
      <use xlink:href="#DejaVuSans-46" x="538.671875"/>
      <use xlink:href="#DejaVuSans-4c" x="596.191406"/>
      <use xlink:href="#DejaVuSans-4c" x="651.904297"/>
      <use xlink:href="#DejaVuSans-4c" x="707.617188"/>
      <use xlink:href="#DejaVuSans-54" x="749.580078"/>
      <use xlink:href="#DejaVuSans-33" x="810.664062"/>
      <use xlink:href="#DejaVuSans-5f" x="874.287109"/>
      <use xlink:href="#DejaVuSans-41" x="924.287109"/>
      <use xlink:href="#DejaVuSans-47" x="990.945312"/>
      <use xlink:href="#DejaVuSans-41" x="1068.435547"/>
      <use xlink:href="#DejaVuSans-47" x="1135.09375"/>
      <use xlink:href="#DejaVuSans-41" x="1212.583984"/>
      <use xlink:href="#DejaVuSans-41" x="1283.742188"/>
      <use xlink:href="#DejaVuSans-43" x="1350.400391"/>
      <use xlink:href="#DejaVuSans-43" x="1420.224609"/>
      <use xlink:href="#DejaVuSans-54" x="1490.048828"/>
      <use xlink:href="#DejaVuSans-41" x="1543.382812"/>
      <use xlink:href="#DejaVuSans-2d" x="1609.541016"/>
      <use xlink:href="#DejaVuSans-47" x="1649.25"/>
      <use xlink:href="#DejaVuSans-47" x="1726.740234"/>
      <use xlink:href="#DejaVuSans-54" x="1800.605469"/>
      <use xlink:href="#DejaVuSans-54" x="1859.939453"/>
      <use xlink:href="#DejaVuSans-41" x="1913.273438"/>
      <use xlink:href="#DejaVuSans-54" x="1973.931641"/>
      <use xlink:href="#DejaVuSans-47" x="2035.015625"/>
      <use xlink:href="#DejaVuSans-43" x="2112.505859"/>
      <use xlink:href="#DejaVuSans-54" x="2182.330078"/>
      <use xlink:href="#DejaVuSans-41" x="2235.664062"/>
      <use xlink:href="#DejaVuSans-5f" x="2304.072266"/>
      <use xlink:href="#DejaVuSans-4c" x="2354.072266"/>
      <use xlink:href="#DejaVuSans-30" x="2409.785156"/>
      <use xlink:href="#DejaVuSans-30" x="2473.408203"/>
      <use xlink:href="#DejaVuSans-36" x="2537.03125"/>
      <use xlink:href="#DejaVuSans-5f" x="2600.654297"/>
      <use xlink:href="#DejaVuSans-54" x="2650.654297"/>
      <use xlink:href="#DejaVuSans-31" x="2711.738281"/>
      <use xlink:href="#DejaVuSans-5f" x="2775.361328"/>
      <use xlink:href="#DejaVuSans-31" x="2825.361328"/>
     </g>
    </g>
    <g id="line2d_25">
     <path d="M 218.20375 291.525394 
L 226.20375 291.525394 
L 234.20375 291.525394 
" style="fill: none; stroke: #d9534f; stroke-linecap: square"/>
    </g>
    <g id="text_23">
     <!-- TK9_1_22FFLLLT3_AGAGAACCTA-GGTTATGCTA_L006_T1_2 -->
     <g transform="translate(240.60375 294.325394) scale(0.08 -0.08)">
      <use xlink:href="#DejaVuSans-54"/>
      <use xlink:href="#DejaVuSans-4b" x="61.083984"/>
      <use xlink:href="#DejaVuSans-39" x="126.660156"/>
      <use xlink:href="#DejaVuSans-5f" x="190.283203"/>
      <use xlink:href="#DejaVuSans-31" x="240.283203"/>
      <use xlink:href="#DejaVuSans-5f" x="303.90625"/>
      <use xlink:href="#DejaVuSans-32" x="353.90625"/>
      <use xlink:href="#DejaVuSans-32" x="417.529297"/>
      <use xlink:href="#DejaVuSans-46" x="481.152344"/>
      <use xlink:href="#DejaVuSans-46" x="538.671875"/>
      <use xlink:href="#DejaVuSans-4c" x="596.191406"/>
      <use xlink:href="#DejaVuSans-4c" x="651.904297"/>
      <use xlink:href="#DejaVuSans-4c" x="707.617188"/>
      <use xlink:href="#DejaVuSans-54" x="749.580078"/>
      <use xlink:href="#DejaVuSans-33" x="810.664062"/>
      <use xlink:href="#DejaVuSans-5f" x="874.287109"/>
      <use xlink:href="#DejaVuSans-41" x="924.287109"/>
      <use xlink:href="#DejaVuSans-47" x="990.945312"/>
      <use xlink:href="#DejaVuSans-41" x="1068.435547"/>
      <use xlink:href="#DejaVuSans-47" x="1135.09375"/>
      <use xlink:href="#DejaVuSans-41" x="1212.583984"/>
      <use xlink:href="#DejaVuSans-41" x="1283.742188"/>
      <use xlink:href="#DejaVuSans-43" x="1350.400391"/>
      <use xlink:href="#DejaVuSans-43" x="1420.224609"/>
      <use xlink:href="#DejaVuSans-54" x="1490.048828"/>
      <use xlink:href="#DejaVuSans-41" x="1543.382812"/>
      <use xlink:href="#DejaVuSans-2d" x="1609.541016"/>
      <use xlink:href="#DejaVuSans-47" x="1649.25"/>
      <use xlink:href="#DejaVuSans-47" x="1726.740234"/>
      <use xlink:href="#DejaVuSans-54" x="1800.605469"/>
      <use xlink:href="#DejaVuSans-54" x="1859.939453"/>
      <use xlink:href="#DejaVuSans-41" x="1913.273438"/>
      <use xlink:href="#DejaVuSans-54" x="1973.931641"/>
      <use xlink:href="#DejaVuSans-47" x="2035.015625"/>
      <use xlink:href="#DejaVuSans-43" x="2112.505859"/>
      <use xlink:href="#DejaVuSans-54" x="2182.330078"/>
      <use xlink:href="#DejaVuSans-41" x="2235.664062"/>
      <use xlink:href="#DejaVuSans-5f" x="2304.072266"/>
      <use xlink:href="#DejaVuSans-4c" x="2354.072266"/>
      <use xlink:href="#DejaVuSans-30" x="2409.785156"/>
      <use xlink:href="#DejaVuSans-30" x="2473.408203"/>
      <use xlink:href="#DejaVuSans-36" x="2537.03125"/>
      <use xlink:href="#DejaVuSans-5f" x="2600.654297"/>
      <use xlink:href="#DejaVuSans-54" x="2650.654297"/>
      <use xlink:href="#DejaVuSans-31" x="2711.738281"/>
      <use xlink:href="#DejaVuSans-5f" x="2775.361328"/>
      <use xlink:href="#DejaVuSans-32" x="2825.361328"/>
     </g>
    </g>
    <g id="line2d_26">
     <path d="M 218.20375 303.490394 
L 226.20375 303.490394 
L 234.20375 303.490394 
" style="fill: none; stroke: #f0ad4e; stroke-linecap: square"/>
    </g>
    <g id="text_24">
     <!-- TK9_2_22FFLLLT3_GATATTGTGT-ACCACACGGT_L005_T1_1 -->
     <g transform="translate(240.60375 306.290394) scale(0.08 -0.08)">
      <use xlink:href="#DejaVuSans-54"/>
      <use xlink:href="#DejaVuSans-4b" x="61.083984"/>
      <use xlink:href="#DejaVuSans-39" x="126.660156"/>
      <use xlink:href="#DejaVuSans-5f" x="190.283203"/>
      <use xlink:href="#DejaVuSans-32" x="240.283203"/>
      <use xlink:href="#DejaVuSans-5f" x="303.90625"/>
      <use xlink:href="#DejaVuSans-32" x="353.90625"/>
      <use xlink:href="#DejaVuSans-32" x="417.529297"/>
      <use xlink:href="#DejaVuSans-46" x="481.152344"/>
      <use xlink:href="#DejaVuSans-46" x="538.671875"/>
      <use xlink:href="#DejaVuSans-4c" x="596.191406"/>
      <use xlink:href="#DejaVuSans-4c" x="651.904297"/>
      <use xlink:href="#DejaVuSans-4c" x="707.617188"/>
      <use xlink:href="#DejaVuSans-54" x="749.580078"/>
      <use xlink:href="#DejaVuSans-33" x="810.664062"/>
      <use xlink:href="#DejaVuSans-5f" x="874.287109"/>
      <use xlink:href="#DejaVuSans-47" x="924.287109"/>
      <use xlink:href="#DejaVuSans-41" x="1001.777344"/>
      <use xlink:href="#DejaVuSans-54" x="1062.435547"/>
      <use xlink:href="#DejaVuSans-41" x="1115.769531"/>
      <use xlink:href="#DejaVuSans-54" x="1176.427734"/>
      <use xlink:href="#DejaVuSans-54" x="1235.761719"/>
      <use xlink:href="#DejaVuSans-47" x="1296.845703"/>
      <use xlink:href="#DejaVuSans-54" x="1370.710938"/>
      <use xlink:href="#DejaVuSans-47" x="1431.794922"/>
      <use xlink:href="#DejaVuSans-54" x="1505.660156"/>
      <use xlink:href="#DejaVuSans-2d" x="1557.619141"/>
      <use xlink:href="#DejaVuSans-41" x="1591.453125"/>
      <use xlink:href="#DejaVuSans-43" x="1658.111328"/>
      <use xlink:href="#DejaVuSans-43" x="1727.935547"/>
      <use xlink:href="#DejaVuSans-41" x="1797.759766"/>
      <use xlink:href="#DejaVuSans-43" x="1864.417969"/>
      <use xlink:href="#DejaVuSans-41" x="1934.242188"/>
      <use xlink:href="#DejaVuSans-43" x="2000.900391"/>
      <use xlink:href="#DejaVuSans-47" x="2070.724609"/>
      <use xlink:href="#DejaVuSans-47" x="2148.214844"/>
      <use xlink:href="#DejaVuSans-54" x="2222.080078"/>
      <use xlink:href="#DejaVuSans-5f" x="2283.164062"/>
      <use xlink:href="#DejaVuSans-4c" x="2333.164062"/>
      <use xlink:href="#DejaVuSans-30" x="2388.876953"/>
      <use xlink:href="#DejaVuSans-30" x="2452.5"/>
      <use xlink:href="#DejaVuSans-35" x="2516.123047"/>
      <use xlink:href="#DejaVuSans-5f" x="2579.746094"/>
      <use xlink:href="#DejaVuSans-54" x="2629.746094"/>
      <use xlink:href="#DejaVuSans-31" x="2690.830078"/>
      <use xlink:href="#DejaVuSans-5f" x="2754.453125"/>
      <use xlink:href="#DejaVuSans-31" x="2804.453125"/>
     </g>
    </g>
    <g id="line2d_27">
     <path d="M 218.20375 315.455394 
L 226.20375 315.455394 
L 234.20375 315.455394 
" style="fill: none; stroke: #d9534f; stroke-linecap: square"/>
    </g>
    <g id="text_25">
     <!-- TK9_2_22FFLLLT3_GATATTGTGT-ACCACACGGT_L005_T1_2 -->
     <g transform="translate(240.60375 318.255394) scale(0.08 -0.08)">
      <use xlink:href="#DejaVuSans-54"/>
      <use xlink:href="#DejaVuSans-4b" x="61.083984"/>
      <use xlink:href="#DejaVuSans-39" x="126.660156"/>
      <use xlink:href="#DejaVuSans-5f" x="190.283203"/>
      <use xlink:href="#DejaVuSans-32" x="240.283203"/>
      <use xlink:href="#DejaVuSans-5f" x="303.90625"/>
      <use xlink:href="#DejaVuSans-32" x="353.90625"/>
      <use xlink:href="#DejaVuSans-32" x="417.529297"/>
      <use xlink:href="#DejaVuSans-46" x="481.152344"/>
      <use xlink:href="#DejaVuSans-46" x="538.671875"/>
      <use xlink:href="#DejaVuSans-4c" x="596.191406"/>
      <use xlink:href="#DejaVuSans-4c" x="651.904297"/>
      <use xlink:href="#DejaVuSans-4c" x="707.617188"/>
      <use xlink:href="#DejaVuSans-54" x="749.580078"/>
      <use xlink:href="#DejaVuSans-33" x="810.664062"/>
      <use xlink:href="#DejaVuSans-5f" x="874.287109"/>
      <use xlink:href="#DejaVuSans-47" x="924.287109"/>
      <use xlink:href="#DejaVuSans-41" x="1001.777344"/>
      <use xlink:href="#DejaVuSans-54" x="1062.435547"/>
      <use xlink:href="#DejaVuSans-41" x="1115.769531"/>
      <use xlink:href="#DejaVuSans-54" x="1176.427734"/>
      <use xlink:href="#DejaVuSans-54" x="1235.761719"/>
      <use xlink:href="#DejaVuSans-47" x="1296.845703"/>
      <use xlink:href="#DejaVuSans-54" x="1370.710938"/>
      <use xlink:href="#DejaVuSans-47" x="1431.794922"/>
      <use xlink:href="#DejaVuSans-54" x="1505.660156"/>
      <use xlink:href="#DejaVuSans-2d" x="1557.619141"/>
      <use xlink:href="#DejaVuSans-41" x="1591.453125"/>
      <use xlink:href="#DejaVuSans-43" x="1658.111328"/>
      <use xlink:href="#DejaVuSans-43" x="1727.935547"/>
      <use xlink:href="#DejaVuSans-41" x="1797.759766"/>
      <use xlink:href="#DejaVuSans-43" x="1864.417969"/>
      <use xlink:href="#DejaVuSans-41" x="1934.242188"/>
      <use xlink:href="#DejaVuSans-43" x="2000.900391"/>
      <use xlink:href="#DejaVuSans-47" x="2070.724609"/>
      <use xlink:href="#DejaVuSans-47" x="2148.214844"/>
      <use xlink:href="#DejaVuSans-54" x="2222.080078"/>
      <use xlink:href="#DejaVuSans-5f" x="2283.164062"/>
      <use xlink:href="#DejaVuSans-4c" x="2333.164062"/>
      <use xlink:href="#DejaVuSans-30" x="2388.876953"/>
      <use xlink:href="#DejaVuSans-30" x="2452.5"/>
      <use xlink:href="#DejaVuSans-35" x="2516.123047"/>
      <use xlink:href="#DejaVuSans-5f" x="2579.746094"/>
      <use xlink:href="#DejaVuSans-54" x="2629.746094"/>
      <use xlink:href="#DejaVuSans-31" x="2690.830078"/>
      <use xlink:href="#DejaVuSans-5f" x="2754.453125"/>
      <use xlink:href="#DejaVuSans-32" x="2804.453125"/>
     </g>
    </g>
    <g id="line2d_28">
     <path d="M 391.149375 291.525394 
L 399.149375 291.525394 
L 407.149375 291.525394 
" style="fill: none; stroke: #f0ad4e; stroke-linecap: square"/>
    </g>
    <g id="text_26">
     <!-- TK9_2_22FFLLLT3_GATATTGTGT-ACCACACGGT_L006_T1_1 -->
     <g transform="translate(413.549375 294.325394) scale(0.08 -0.08)">
      <use xlink:href="#DejaVuSans-54"/>
      <use xlink:href="#DejaVuSans-4b" x="61.083984"/>
      <use xlink:href="#DejaVuSans-39" x="126.660156"/>
      <use xlink:href="#DejaVuSans-5f" x="190.283203"/>
      <use xlink:href="#DejaVuSans-32" x="240.283203"/>
      <use xlink:href="#DejaVuSans-5f" x="303.90625"/>
      <use xlink:href="#DejaVuSans-32" x="353.90625"/>
      <use xlink:href="#DejaVuSans-32" x="417.529297"/>
      <use xlink:href="#DejaVuSans-46" x="481.152344"/>
      <use xlink:href="#DejaVuSans-46" x="538.671875"/>
      <use xlink:href="#DejaVuSans-4c" x="596.191406"/>
      <use xlink:href="#DejaVuSans-4c" x="651.904297"/>
      <use xlink:href="#DejaVuSans-4c" x="707.617188"/>
      <use xlink:href="#DejaVuSans-54" x="749.580078"/>
      <use xlink:href="#DejaVuSans-33" x="810.664062"/>
      <use xlink:href="#DejaVuSans-5f" x="874.287109"/>
      <use xlink:href="#DejaVuSans-47" x="924.287109"/>
      <use xlink:href="#DejaVuSans-41" x="1001.777344"/>
      <use xlink:href="#DejaVuSans-54" x="1062.435547"/>
      <use xlink:href="#DejaVuSans-41" x="1115.769531"/>
      <use xlink:href="#DejaVuSans-54" x="1176.427734"/>
      <use xlink:href="#DejaVuSans-54" x="1235.761719"/>
      <use xlink:href="#DejaVuSans-47" x="1296.845703"/>
      <use xlink:href="#DejaVuSans-54" x="1370.710938"/>
      <use xlink:href="#DejaVuSans-47" x="1431.794922"/>
      <use xlink:href="#DejaVuSans-54" x="1505.660156"/>
      <use xlink:href="#DejaVuSans-2d" x="1557.619141"/>
      <use xlink:href="#DejaVuSans-41" x="1591.453125"/>
      <use xlink:href="#DejaVuSans-43" x="1658.111328"/>
      <use xlink:href="#DejaVuSans-43" x="1727.935547"/>
      <use xlink:href="#DejaVuSans-41" x="1797.759766"/>
      <use xlink:href="#DejaVuSans-43" x="1864.417969"/>
      <use xlink:href="#DejaVuSans-41" x="1934.242188"/>
      <use xlink:href="#DejaVuSans-43" x="2000.900391"/>
      <use xlink:href="#DejaVuSans-47" x="2070.724609"/>
      <use xlink:href="#DejaVuSans-47" x="2148.214844"/>
      <use xlink:href="#DejaVuSans-54" x="2222.080078"/>
      <use xlink:href="#DejaVuSans-5f" x="2283.164062"/>
      <use xlink:href="#DejaVuSans-4c" x="2333.164062"/>
      <use xlink:href="#DejaVuSans-30" x="2388.876953"/>
      <use xlink:href="#DejaVuSans-30" x="2452.5"/>
      <use xlink:href="#DejaVuSans-36" x="2516.123047"/>
      <use xlink:href="#DejaVuSans-5f" x="2579.746094"/>
      <use xlink:href="#DejaVuSans-54" x="2629.746094"/>
      <use xlink:href="#DejaVuSans-31" x="2690.830078"/>
      <use xlink:href="#DejaVuSans-5f" x="2754.453125"/>
      <use xlink:href="#DejaVuSans-31" x="2804.453125"/>
     </g>
    </g>
    <g id="line2d_29">
     <path d="M 391.149375 303.490394 
L 399.149375 303.490394 
L 407.149375 303.490394 
" style="fill: none; stroke: #d9534f; stroke-linecap: square"/>
    </g>
    <g id="text_27">
     <!-- TK9_2_22FFLLLT3_GATATTGTGT-ACCACACGGT_L006_T1_2 -->
     <g transform="translate(413.549375 306.290394) scale(0.08 -0.08)">
      <use xlink:href="#DejaVuSans-54"/>
      <use xlink:href="#DejaVuSans-4b" x="61.083984"/>
      <use xlink:href="#DejaVuSans-39" x="126.660156"/>
      <use xlink:href="#DejaVuSans-5f" x="190.283203"/>
      <use xlink:href="#DejaVuSans-32" x="240.283203"/>
      <use xlink:href="#DejaVuSans-5f" x="303.90625"/>
      <use xlink:href="#DejaVuSans-32" x="353.90625"/>
      <use xlink:href="#DejaVuSans-32" x="417.529297"/>
      <use xlink:href="#DejaVuSans-46" x="481.152344"/>
      <use xlink:href="#DejaVuSans-46" x="538.671875"/>
      <use xlink:href="#DejaVuSans-4c" x="596.191406"/>
      <use xlink:href="#DejaVuSans-4c" x="651.904297"/>
      <use xlink:href="#DejaVuSans-4c" x="707.617188"/>
      <use xlink:href="#DejaVuSans-54" x="749.580078"/>
      <use xlink:href="#DejaVuSans-33" x="810.664062"/>
      <use xlink:href="#DejaVuSans-5f" x="874.287109"/>
      <use xlink:href="#DejaVuSans-47" x="924.287109"/>
      <use xlink:href="#DejaVuSans-41" x="1001.777344"/>
      <use xlink:href="#DejaVuSans-54" x="1062.435547"/>
      <use xlink:href="#DejaVuSans-41" x="1115.769531"/>
      <use xlink:href="#DejaVuSans-54" x="1176.427734"/>
      <use xlink:href="#DejaVuSans-54" x="1235.761719"/>
      <use xlink:href="#DejaVuSans-47" x="1296.845703"/>
      <use xlink:href="#DejaVuSans-54" x="1370.710938"/>
      <use xlink:href="#DejaVuSans-47" x="1431.794922"/>
      <use xlink:href="#DejaVuSans-54" x="1505.660156"/>
      <use xlink:href="#DejaVuSans-2d" x="1557.619141"/>
      <use xlink:href="#DejaVuSans-41" x="1591.453125"/>
      <use xlink:href="#DejaVuSans-43" x="1658.111328"/>
      <use xlink:href="#DejaVuSans-43" x="1727.935547"/>
      <use xlink:href="#DejaVuSans-41" x="1797.759766"/>
      <use xlink:href="#DejaVuSans-43" x="1864.417969"/>
      <use xlink:href="#DejaVuSans-41" x="1934.242188"/>
      <use xlink:href="#DejaVuSans-43" x="2000.900391"/>
      <use xlink:href="#DejaVuSans-47" x="2070.724609"/>
      <use xlink:href="#DejaVuSans-47" x="2148.214844"/>
      <use xlink:href="#DejaVuSans-54" x="2222.080078"/>
      <use xlink:href="#DejaVuSans-5f" x="2283.164062"/>
      <use xlink:href="#DejaVuSans-4c" x="2333.164062"/>
      <use xlink:href="#DejaVuSans-30" x="2388.876953"/>
      <use xlink:href="#DejaVuSans-30" x="2452.5"/>
      <use xlink:href="#DejaVuSans-36" x="2516.123047"/>
      <use xlink:href="#DejaVuSans-5f" x="2579.746094"/>
      <use xlink:href="#DejaVuSans-54" x="2629.746094"/>
      <use xlink:href="#DejaVuSans-31" x="2690.830078"/>
      <use xlink:href="#DejaVuSans-5f" x="2754.453125"/>
      <use xlink:href="#DejaVuSans-32" x="2804.453125"/>
     </g>
    </g>
    <g id="line2d_30">
     <path d="M 562.4225 291.525394 
L 570.4225 291.525394 
L 578.4225 291.525394 
" style="fill: none; stroke: #f0ad4e; stroke-linecap: square"/>
    </g>
    <g id="text_28">
     <!-- TK9_3_22FFLLLT3_CGTACAGGAA-TAGGTTCTCT_L005_T1_1 -->
     <g transform="translate(584.8225 294.325394) scale(0.08 -0.08)">
      <use xlink:href="#DejaVuSans-54"/>
      <use xlink:href="#DejaVuSans-4b" x="61.083984"/>
      <use xlink:href="#DejaVuSans-39" x="126.660156"/>
      <use xlink:href="#DejaVuSans-5f" x="190.283203"/>
      <use xlink:href="#DejaVuSans-33" x="240.283203"/>
      <use xlink:href="#DejaVuSans-5f" x="303.90625"/>
      <use xlink:href="#DejaVuSans-32" x="353.90625"/>
      <use xlink:href="#DejaVuSans-32" x="417.529297"/>
      <use xlink:href="#DejaVuSans-46" x="481.152344"/>
      <use xlink:href="#DejaVuSans-46" x="538.671875"/>
      <use xlink:href="#DejaVuSans-4c" x="596.191406"/>
      <use xlink:href="#DejaVuSans-4c" x="651.904297"/>
      <use xlink:href="#DejaVuSans-4c" x="707.617188"/>
      <use xlink:href="#DejaVuSans-54" x="749.580078"/>
      <use xlink:href="#DejaVuSans-33" x="810.664062"/>
      <use xlink:href="#DejaVuSans-5f" x="874.287109"/>
      <use xlink:href="#DejaVuSans-43" x="924.287109"/>
      <use xlink:href="#DejaVuSans-47" x="994.111328"/>
      <use xlink:href="#DejaVuSans-54" x="1067.976562"/>
      <use xlink:href="#DejaVuSans-41" x="1121.310547"/>
      <use xlink:href="#DejaVuSans-43" x="1187.96875"/>
      <use xlink:href="#DejaVuSans-41" x="1257.792969"/>
      <use xlink:href="#DejaVuSans-47" x="1324.451172"/>
      <use xlink:href="#DejaVuSans-47" x="1401.941406"/>
      <use xlink:href="#DejaVuSans-41" x="1479.431641"/>
      <use xlink:href="#DejaVuSans-41" x="1550.589844"/>
      <use xlink:href="#DejaVuSans-2d" x="1616.748047"/>
      <use xlink:href="#DejaVuSans-54" x="1643.707031"/>
      <use xlink:href="#DejaVuSans-41" x="1697.041016"/>
      <use xlink:href="#DejaVuSans-47" x="1763.699219"/>
      <use xlink:href="#DejaVuSans-47" x="1841.189453"/>
      <use xlink:href="#DejaVuSans-54" x="1915.054688"/>
      <use xlink:href="#DejaVuSans-54" x="1974.388672"/>
      <use xlink:href="#DejaVuSans-43" x="2029.597656"/>
      <use xlink:href="#DejaVuSans-54" x="2099.421875"/>
      <use xlink:href="#DejaVuSans-43" x="2154.630859"/>
      <use xlink:href="#DejaVuSans-54" x="2224.455078"/>
      <use xlink:href="#DejaVuSans-5f" x="2285.539062"/>
      <use xlink:href="#DejaVuSans-4c" x="2335.539062"/>
      <use xlink:href="#DejaVuSans-30" x="2391.251953"/>
      <use xlink:href="#DejaVuSans-30" x="2454.875"/>
      <use xlink:href="#DejaVuSans-35" x="2518.498047"/>
      <use xlink:href="#DejaVuSans-5f" x="2582.121094"/>
      <use xlink:href="#DejaVuSans-54" x="2632.121094"/>
      <use xlink:href="#DejaVuSans-31" x="2693.205078"/>
      <use xlink:href="#DejaVuSans-5f" x="2756.828125"/>
      <use xlink:href="#DejaVuSans-31" x="2806.828125"/>
     </g>
    </g>
    <g id="line2d_31">
     <path d="M 562.4225 303.490394 
L 570.4225 303.490394 
L 578.4225 303.490394 
" style="fill: none; stroke: #d9534f; stroke-linecap: square"/>
    </g>
    <g id="text_29">
     <!-- TK9_3_22FFLLLT3_CGTACAGGAA-TAGGTTCTCT_L005_T1_2 -->
     <g transform="translate(584.8225 306.290394) scale(0.08 -0.08)">
      <use xlink:href="#DejaVuSans-54"/>
      <use xlink:href="#DejaVuSans-4b" x="61.083984"/>
      <use xlink:href="#DejaVuSans-39" x="126.660156"/>
      <use xlink:href="#DejaVuSans-5f" x="190.283203"/>
      <use xlink:href="#DejaVuSans-33" x="240.283203"/>
      <use xlink:href="#DejaVuSans-5f" x="303.90625"/>
      <use xlink:href="#DejaVuSans-32" x="353.90625"/>
      <use xlink:href="#DejaVuSans-32" x="417.529297"/>
      <use xlink:href="#DejaVuSans-46" x="481.152344"/>
      <use xlink:href="#DejaVuSans-46" x="538.671875"/>
      <use xlink:href="#DejaVuSans-4c" x="596.191406"/>
      <use xlink:href="#DejaVuSans-4c" x="651.904297"/>
      <use xlink:href="#DejaVuSans-4c" x="707.617188"/>
      <use xlink:href="#DejaVuSans-54" x="749.580078"/>
      <use xlink:href="#DejaVuSans-33" x="810.664062"/>
      <use xlink:href="#DejaVuSans-5f" x="874.287109"/>
      <use xlink:href="#DejaVuSans-43" x="924.287109"/>
      <use xlink:href="#DejaVuSans-47" x="994.111328"/>
      <use xlink:href="#DejaVuSans-54" x="1067.976562"/>
      <use xlink:href="#DejaVuSans-41" x="1121.310547"/>
      <use xlink:href="#DejaVuSans-43" x="1187.96875"/>
      <use xlink:href="#DejaVuSans-41" x="1257.792969"/>
      <use xlink:href="#DejaVuSans-47" x="1324.451172"/>
      <use xlink:href="#DejaVuSans-47" x="1401.941406"/>
      <use xlink:href="#DejaVuSans-41" x="1479.431641"/>
      <use xlink:href="#DejaVuSans-41" x="1550.589844"/>
      <use xlink:href="#DejaVuSans-2d" x="1616.748047"/>
      <use xlink:href="#DejaVuSans-54" x="1643.707031"/>
      <use xlink:href="#DejaVuSans-41" x="1697.041016"/>
      <use xlink:href="#DejaVuSans-47" x="1763.699219"/>
      <use xlink:href="#DejaVuSans-47" x="1841.189453"/>
      <use xlink:href="#DejaVuSans-54" x="1915.054688"/>
      <use xlink:href="#DejaVuSans-54" x="1974.388672"/>
      <use xlink:href="#DejaVuSans-43" x="2029.597656"/>
      <use xlink:href="#DejaVuSans-54" x="2099.421875"/>
      <use xlink:href="#DejaVuSans-43" x="2154.630859"/>
      <use xlink:href="#DejaVuSans-54" x="2224.455078"/>
      <use xlink:href="#DejaVuSans-5f" x="2285.539062"/>
      <use xlink:href="#DejaVuSans-4c" x="2335.539062"/>
      <use xlink:href="#DejaVuSans-30" x="2391.251953"/>
      <use xlink:href="#DejaVuSans-30" x="2454.875"/>
      <use xlink:href="#DejaVuSans-35" x="2518.498047"/>
      <use xlink:href="#DejaVuSans-5f" x="2582.121094"/>
      <use xlink:href="#DejaVuSans-54" x="2632.121094"/>
      <use xlink:href="#DejaVuSans-31" x="2693.205078"/>
      <use xlink:href="#DejaVuSans-5f" x="2756.828125"/>
      <use xlink:href="#DejaVuSans-32" x="2806.828125"/>
     </g>
    </g>
    <g id="line2d_32">
     <path d="M 733.885625 291.525394 
L 741.885625 291.525394 
L 749.885625 291.525394 
" style="fill: none; stroke: #f0ad4e; stroke-linecap: square"/>
    </g>
    <g id="text_30">
     <!-- TK9_3_22FFLLLT3_CGTACAGGAA-TAGGTTCTCT_L006_T1_1 -->
     <g transform="translate(756.285625 294.325394) scale(0.08 -0.08)">
      <use xlink:href="#DejaVuSans-54"/>
      <use xlink:href="#DejaVuSans-4b" x="61.083984"/>
      <use xlink:href="#DejaVuSans-39" x="126.660156"/>
      <use xlink:href="#DejaVuSans-5f" x="190.283203"/>
      <use xlink:href="#DejaVuSans-33" x="240.283203"/>
      <use xlink:href="#DejaVuSans-5f" x="303.90625"/>
      <use xlink:href="#DejaVuSans-32" x="353.90625"/>
      <use xlink:href="#DejaVuSans-32" x="417.529297"/>
      <use xlink:href="#DejaVuSans-46" x="481.152344"/>
      <use xlink:href="#DejaVuSans-46" x="538.671875"/>
      <use xlink:href="#DejaVuSans-4c" x="596.191406"/>
      <use xlink:href="#DejaVuSans-4c" x="651.904297"/>
      <use xlink:href="#DejaVuSans-4c" x="707.617188"/>
      <use xlink:href="#DejaVuSans-54" x="749.580078"/>
      <use xlink:href="#DejaVuSans-33" x="810.664062"/>
      <use xlink:href="#DejaVuSans-5f" x="874.287109"/>
      <use xlink:href="#DejaVuSans-43" x="924.287109"/>
      <use xlink:href="#DejaVuSans-47" x="994.111328"/>
      <use xlink:href="#DejaVuSans-54" x="1067.976562"/>
      <use xlink:href="#DejaVuSans-41" x="1121.310547"/>
      <use xlink:href="#DejaVuSans-43" x="1187.96875"/>
      <use xlink:href="#DejaVuSans-41" x="1257.792969"/>
      <use xlink:href="#DejaVuSans-47" x="1324.451172"/>
      <use xlink:href="#DejaVuSans-47" x="1401.941406"/>
      <use xlink:href="#DejaVuSans-41" x="1479.431641"/>
      <use xlink:href="#DejaVuSans-41" x="1550.589844"/>
      <use xlink:href="#DejaVuSans-2d" x="1616.748047"/>
      <use xlink:href="#DejaVuSans-54" x="1643.707031"/>
      <use xlink:href="#DejaVuSans-41" x="1697.041016"/>
      <use xlink:href="#DejaVuSans-47" x="1763.699219"/>
      <use xlink:href="#DejaVuSans-47" x="1841.189453"/>
      <use xlink:href="#DejaVuSans-54" x="1915.054688"/>
      <use xlink:href="#DejaVuSans-54" x="1974.388672"/>
      <use xlink:href="#DejaVuSans-43" x="2029.597656"/>
      <use xlink:href="#DejaVuSans-54" x="2099.421875"/>
      <use xlink:href="#DejaVuSans-43" x="2154.630859"/>
      <use xlink:href="#DejaVuSans-54" x="2224.455078"/>
      <use xlink:href="#DejaVuSans-5f" x="2285.539062"/>
      <use xlink:href="#DejaVuSans-4c" x="2335.539062"/>
      <use xlink:href="#DejaVuSans-30" x="2391.251953"/>
      <use xlink:href="#DejaVuSans-30" x="2454.875"/>
      <use xlink:href="#DejaVuSans-36" x="2518.498047"/>
      <use xlink:href="#DejaVuSans-5f" x="2582.121094"/>
      <use xlink:href="#DejaVuSans-54" x="2632.121094"/>
      <use xlink:href="#DejaVuSans-31" x="2693.205078"/>
      <use xlink:href="#DejaVuSans-5f" x="2756.828125"/>
      <use xlink:href="#DejaVuSans-31" x="2806.828125"/>
     </g>
    </g>
    <g id="line2d_33">
     <path d="M 733.885625 303.490394 
L 741.885625 303.490394 
L 749.885625 303.490394 
" style="fill: none; stroke: #d9534f; stroke-linecap: square"/>
    </g>
    <g id="text_31">
     <!-- TK9_3_22FFLLLT3_CGTACAGGAA-TAGGTTCTCT_L006_T1_2 -->
     <g transform="translate(756.285625 306.290394) scale(0.08 -0.08)">
      <use xlink:href="#DejaVuSans-54"/>
      <use xlink:href="#DejaVuSans-4b" x="61.083984"/>
      <use xlink:href="#DejaVuSans-39" x="126.660156"/>
      <use xlink:href="#DejaVuSans-5f" x="190.283203"/>
      <use xlink:href="#DejaVuSans-33" x="240.283203"/>
      <use xlink:href="#DejaVuSans-5f" x="303.90625"/>
      <use xlink:href="#DejaVuSans-32" x="353.90625"/>
      <use xlink:href="#DejaVuSans-32" x="417.529297"/>
      <use xlink:href="#DejaVuSans-46" x="481.152344"/>
      <use xlink:href="#DejaVuSans-46" x="538.671875"/>
      <use xlink:href="#DejaVuSans-4c" x="596.191406"/>
      <use xlink:href="#DejaVuSans-4c" x="651.904297"/>
      <use xlink:href="#DejaVuSans-4c" x="707.617188"/>
      <use xlink:href="#DejaVuSans-54" x="749.580078"/>
      <use xlink:href="#DejaVuSans-33" x="810.664062"/>
      <use xlink:href="#DejaVuSans-5f" x="874.287109"/>
      <use xlink:href="#DejaVuSans-43" x="924.287109"/>
      <use xlink:href="#DejaVuSans-47" x="994.111328"/>
      <use xlink:href="#DejaVuSans-54" x="1067.976562"/>
      <use xlink:href="#DejaVuSans-41" x="1121.310547"/>
      <use xlink:href="#DejaVuSans-43" x="1187.96875"/>
      <use xlink:href="#DejaVuSans-41" x="1257.792969"/>
      <use xlink:href="#DejaVuSans-47" x="1324.451172"/>
      <use xlink:href="#DejaVuSans-47" x="1401.941406"/>
      <use xlink:href="#DejaVuSans-41" x="1479.431641"/>
      <use xlink:href="#DejaVuSans-41" x="1550.589844"/>
      <use xlink:href="#DejaVuSans-2d" x="1616.748047"/>
      <use xlink:href="#DejaVuSans-54" x="1643.707031"/>
      <use xlink:href="#DejaVuSans-41" x="1697.041016"/>
      <use xlink:href="#DejaVuSans-47" x="1763.699219"/>
      <use xlink:href="#DejaVuSans-47" x="1841.189453"/>
      <use xlink:href="#DejaVuSans-54" x="1915.054688"/>
      <use xlink:href="#DejaVuSans-54" x="1974.388672"/>
      <use xlink:href="#DejaVuSans-43" x="2029.597656"/>
      <use xlink:href="#DejaVuSans-54" x="2099.421875"/>
      <use xlink:href="#DejaVuSans-43" x="2154.630859"/>
      <use xlink:href="#DejaVuSans-54" x="2224.455078"/>
      <use xlink:href="#DejaVuSans-5f" x="2285.539062"/>
      <use xlink:href="#DejaVuSans-4c" x="2335.539062"/>
      <use xlink:href="#DejaVuSans-30" x="2391.251953"/>
      <use xlink:href="#DejaVuSans-30" x="2454.875"/>
      <use xlink:href="#DejaVuSans-36" x="2518.498047"/>
      <use xlink:href="#DejaVuSans-5f" x="2582.121094"/>
      <use xlink:href="#DejaVuSans-54" x="2632.121094"/>
      <use xlink:href="#DejaVuSans-31" x="2693.205078"/>
      <use xlink:href="#DejaVuSans-5f" x="2756.828125"/>
      <use xlink:href="#DejaVuSans-32" x="2806.828125"/>
     </g>
    </g>
   </g>
  </g>
 </g>
 <defs>
  <clipPath id="p88ce1ff288">
   <rect x="38.058125" y="31.48286" width="955.06" height="242.5072"/>
  </clipPath>
 </defs>
</svg>
