<?xml version="1.0" encoding="utf-8" standalone="no"?>
<!DOCTYPE svg PUBLIC "-//W3C//DTD SVG 1.1//EN"
  "http://www.w3.org/Graphics/SVG/1.1/DTD/svg11.dtd">
<svg xmlns:xlink="http://www.w3.org/1999/xlink" width="1000.358125pt" height="330.541644pt" viewBox="0 0 1000.358125 330.541644" xmlns="http://www.w3.org/2000/svg" version="1.1">
 <metadata>
  <rdf:RDF xmlns:dc="http://purl.org/dc/elements/1.1/" xmlns:cc="http://creativecommons.org/ns#" xmlns:rdf="http://www.w3.org/1999/02/22-rdf-syntax-ns#">
   <cc:Work>
    <dc:type rdf:resource="http://purl.org/dc/dcmitype/StillImage"/>
    <dc:date>2023-10-18T14:04:20.305248</dc:date>
    <dc:format>image/svg+xml</dc:format>
    <dc:creator>
     <cc:Agent>
      <dc:title>Matplotlib v3.6.2, https://matplotlib.org/</dc:title>
     </cc:Agent>
    </dc:creator>
   </cc:Work>
  </rdf:RDF>
 </metadata>
 <defs>
  <style type="text/css">*{stroke-linejoin: round; stroke-linecap: butt}</style>
 </defs>
 <g id="figure_1">
  <g id="axes_1">
   <g id="patch_1">
    <path d="M 32.968125 273.99006 
L 993.158125 273.99006 
L 993.158125 31.48286 
L 32.968125 31.48286 
z
" style="fill: #ffffff"/>
   </g>
   <g id="patch_2">
    <path d="M 32.968125 -696.03874 
L 955.884658 -696.03874 
L 955.884658 -4576.15394 
L 32.968125 -4576.15394 
z
" clip-path="url(#pb1923bc4f3)" style="fill: #e6c3c3"/>
   </g>
   <g id="patch_3">
    <path d="M 32.968125 31.48286 
L 955.884658 31.48286 
L 955.884658 -696.03874 
L 32.968125 -696.03874 
z
" clip-path="url(#pb1923bc4f3)" style="fill: #e6dcc3"/>
   </g>
   <g id="patch_4">
    <path d="M 32.968125 273.99006 
L 955.884658 273.99006 
L 955.884658 31.48286 
L 32.968125 31.48286 
z
" clip-path="url(#pb1923bc4f3)" style="fill: #c3e6c3"/>
   </g>
   <g id="matplotlib.axis_1">
    <g id="xtick_1">
     <g id="text_1">
      <!-- 0 -->
      <g transform="translate(67.696592 287.06881) scale(0.08 -0.08)">
       <defs>
        <path id="DejaVuSans-30" d="M 2034 4250 
Q 1547 4250 1301 3770 
Q 1056 3291 1056 2328 
Q 1056 1369 1301 889 
Q 1547 409 2034 409 
Q 2525 409 2770 889 
Q 3016 1369 3016 2328 
Q 3016 3291 2770 3770 
Q 2525 4250 2034 4250 
z
M 2034 4750 
Q 2819 4750 3233 4129 
Q 3647 3509 3647 2328 
Q 3647 1150 3233 529 
Q 2819 -91 2034 -91 
Q 1250 -91 836 529 
Q 422 1150 422 2328 
Q 422 3509 836 4129 
Q 1250 4750 2034 4750 
z
" transform="scale(0.015625)"/>
       </defs>
       <use xlink:href="#DejaVuSans-30"/>
      </g>
     </g>
    </g>
    <g id="xtick_2">
     <g id="text_2">
      <!-- 20 -->
      <g transform="translate(192.582249 287.06881) scale(0.08 -0.08)">
       <defs>
        <path id="DejaVuSans-32" d="M 1228 531 
L 3431 531 
L 3431 0 
L 469 0 
L 469 531 
Q 828 903 1448 1529 
Q 2069 2156 2228 2338 
Q 2531 2678 2651 2914 
Q 2772 3150 2772 3378 
Q 2772 3750 2511 3984 
Q 2250 4219 1831 4219 
Q 1534 4219 1204 4116 
Q 875 4013 500 3803 
L 500 4441 
Q 881 4594 1212 4672 
Q 1544 4750 1819 4750 
Q 2544 4750 2975 4387 
Q 3406 4025 3406 3419 
Q 3406 3131 3298 2873 
Q 3191 2616 2906 2266 
Q 2828 2175 2409 1742 
Q 1991 1309 1228 531 
z
" transform="scale(0.015625)"/>
       </defs>
       <use xlink:href="#DejaVuSans-32"/>
       <use xlink:href="#DejaVuSans-30" x="63.623047"/>
      </g>
     </g>
    </g>
    <g id="xtick_3">
     <g id="text_3">
      <!-- 40 -->
      <g transform="translate(320.012906 287.06881) scale(0.08 -0.08)">
       <defs>
        <path id="DejaVuSans-34" d="M 2419 4116 
L 825 1625 
L 2419 1625 
L 2419 4116 
z
M 2253 4666 
L 3047 4666 
L 3047 1625 
L 3713 1625 
L 3713 1100 
L 3047 1100 
L 3047 0 
L 2419 0 
L 2419 1100 
L 313 1100 
L 313 1709 
L 2253 4666 
z
" transform="scale(0.015625)"/>
       </defs>
       <use xlink:href="#DejaVuSans-34"/>
       <use xlink:href="#DejaVuSans-30" x="63.623047"/>
      </g>
     </g>
    </g>
    <g id="xtick_4">
     <g id="text_4">
      <!-- 60 -->
      <g transform="translate(447.443563 287.06881) scale(0.08 -0.08)">
       <defs>
        <path id="DejaVuSans-36" d="M 2113 2584 
Q 1688 2584 1439 2293 
Q 1191 2003 1191 1497 
Q 1191 994 1439 701 
Q 1688 409 2113 409 
Q 2538 409 2786 701 
Q 3034 994 3034 1497 
Q 3034 2003 2786 2293 
Q 2538 2584 2113 2584 
z
M 3366 4563 
L 3366 3988 
Q 3128 4100 2886 4159 
Q 2644 4219 2406 4219 
Q 1781 4219 1451 3797 
Q 1122 3375 1075 2522 
Q 1259 2794 1537 2939 
Q 1816 3084 2150 3084 
Q 2853 3084 3261 2657 
Q 3669 2231 3669 1497 
Q 3669 778 3244 343 
Q 2819 -91 2113 -91 
Q 1303 -91 875 529 
Q 447 1150 447 2328 
Q 447 3434 972 4092 
Q 1497 4750 2381 4750 
Q 2619 4750 2861 4703 
Q 3103 4656 3366 4563 
z
" transform="scale(0.015625)"/>
       </defs>
       <use xlink:href="#DejaVuSans-36"/>
       <use xlink:href="#DejaVuSans-30" x="63.623047"/>
      </g>
     </g>
    </g>
    <g id="xtick_5">
     <g id="text_5">
      <!-- 80 -->
      <g transform="translate(574.87422 287.06881) scale(0.08 -0.08)">
       <defs>
        <path id="DejaVuSans-38" d="M 2034 2216 
Q 1584 2216 1326 1975 
Q 1069 1734 1069 1313 
Q 1069 891 1326 650 
Q 1584 409 2034 409 
Q 2484 409 2743 651 
Q 3003 894 3003 1313 
Q 3003 1734 2745 1975 
Q 2488 2216 2034 2216 
z
M 1403 2484 
Q 997 2584 770 2862 
Q 544 3141 544 3541 
Q 544 4100 942 4425 
Q 1341 4750 2034 4750 
Q 2731 4750 3128 4425 
Q 3525 4100 3525 3541 
Q 3525 3141 3298 2862 
Q 3072 2584 2669 2484 
Q 3125 2378 3379 2068 
Q 3634 1759 3634 1313 
Q 3634 634 3220 271 
Q 2806 -91 2034 -91 
Q 1263 -91 848 271 
Q 434 634 434 1313 
Q 434 1759 690 2068 
Q 947 2378 1403 2484 
z
M 1172 3481 
Q 1172 3119 1398 2916 
Q 1625 2713 2034 2713 
Q 2441 2713 2670 2916 
Q 2900 3119 2900 3481 
Q 2900 3844 2670 4047 
Q 2441 4250 2034 4250 
Q 1625 4250 1398 4047 
Q 1172 3844 1172 3481 
z
" transform="scale(0.015625)"/>
       </defs>
       <use xlink:href="#DejaVuSans-38"/>
       <use xlink:href="#DejaVuSans-30" x="63.623047"/>
      </g>
     </g>
    </g>
    <g id="xtick_6">
     <g id="text_6">
      <!-- 100 -->
      <g transform="translate(699.759877 287.06881) scale(0.08 -0.08)">
       <defs>
        <path id="DejaVuSans-31" d="M 794 531 
L 1825 531 
L 1825 4091 
L 703 3866 
L 703 4441 
L 1819 4666 
L 2450 4666 
L 2450 531 
L 3481 531 
L 3481 0 
L 794 0 
L 794 531 
z
" transform="scale(0.015625)"/>
       </defs>
       <use xlink:href="#DejaVuSans-31"/>
       <use xlink:href="#DejaVuSans-30" x="63.623047"/>
       <use xlink:href="#DejaVuSans-30" x="127.246094"/>
      </g>
     </g>
    </g>
    <g id="xtick_7">
     <g id="text_7">
      <!-- 120 -->
      <g transform="translate(827.190534 287.06881) scale(0.08 -0.08)">
       <use xlink:href="#DejaVuSans-31"/>
       <use xlink:href="#DejaVuSans-32" x="63.623047"/>
       <use xlink:href="#DejaVuSans-30" x="127.246094"/>
      </g>
     </g>
    </g>
    <g id="xtick_8">
     <g id="text_8">
      <!-- 140 -->
      <g transform="translate(954.621191 287.06881) scale(0.08 -0.08)">
       <use xlink:href="#DejaVuSans-31"/>
       <use xlink:href="#DejaVuSans-34" x="63.623047"/>
       <use xlink:href="#DejaVuSans-30" x="127.246094"/>
      </g>
     </g>
    </g>
    <g id="text_9">
     <!-- Position (bp) -->
     <g transform="translate(481.76 300.330997) scale(0.1 -0.1)">
      <defs>
       <path id="DejaVuSans-50" d="M 1259 4147 
L 1259 2394 
L 2053 2394 
Q 2494 2394 2734 2622 
Q 2975 2850 2975 3272 
Q 2975 3691 2734 3919 
Q 2494 4147 2053 4147 
L 1259 4147 
z
M 628 4666 
L 2053 4666 
Q 2838 4666 3239 4311 
Q 3641 3956 3641 3272 
Q 3641 2581 3239 2228 
Q 2838 1875 2053 1875 
L 1259 1875 
L 1259 0 
L 628 0 
L 628 4666 
z
" transform="scale(0.015625)"/>
       <path id="DejaVuSans-6f" d="M 1959 3097 
Q 1497 3097 1228 2736 
Q 959 2375 959 1747 
Q 959 1119 1226 758 
Q 1494 397 1959 397 
Q 2419 397 2687 759 
Q 2956 1122 2956 1747 
Q 2956 2369 2687 2733 
Q 2419 3097 1959 3097 
z
M 1959 3584 
Q 2709 3584 3137 3096 
Q 3566 2609 3566 1747 
Q 3566 888 3137 398 
Q 2709 -91 1959 -91 
Q 1206 -91 779 398 
Q 353 888 353 1747 
Q 353 2609 779 3096 
Q 1206 3584 1959 3584 
z
" transform="scale(0.015625)"/>
       <path id="DejaVuSans-73" d="M 2834 3397 
L 2834 2853 
Q 2591 2978 2328 3040 
Q 2066 3103 1784 3103 
Q 1356 3103 1142 2972 
Q 928 2841 928 2578 
Q 928 2378 1081 2264 
Q 1234 2150 1697 2047 
L 1894 2003 
Q 2506 1872 2764 1633 
Q 3022 1394 3022 966 
Q 3022 478 2636 193 
Q 2250 -91 1575 -91 
Q 1294 -91 989 -36 
Q 684 19 347 128 
L 347 722 
Q 666 556 975 473 
Q 1284 391 1588 391 
Q 1994 391 2212 530 
Q 2431 669 2431 922 
Q 2431 1156 2273 1281 
Q 2116 1406 1581 1522 
L 1381 1569 
Q 847 1681 609 1914 
Q 372 2147 372 2553 
Q 372 3047 722 3315 
Q 1072 3584 1716 3584 
Q 2034 3584 2315 3537 
Q 2597 3491 2834 3397 
z
" transform="scale(0.015625)"/>
       <path id="DejaVuSans-69" d="M 603 3500 
L 1178 3500 
L 1178 0 
L 603 0 
L 603 3500 
z
M 603 4863 
L 1178 4863 
L 1178 4134 
L 603 4134 
L 603 4863 
z
" transform="scale(0.015625)"/>
       <path id="DejaVuSans-74" d="M 1172 4494 
L 1172 3500 
L 2356 3500 
L 2356 3053 
L 1172 3053 
L 1172 1153 
Q 1172 725 1289 603 
Q 1406 481 1766 481 
L 2356 481 
L 2356 0 
L 1766 0 
Q 1100 0 847 248 
Q 594 497 594 1153 
L 594 3053 
L 172 3053 
L 172 3500 
L 594 3500 
L 594 4494 
L 1172 4494 
z
" transform="scale(0.015625)"/>
       <path id="DejaVuSans-6e" d="M 3513 2113 
L 3513 0 
L 2938 0 
L 2938 2094 
Q 2938 2591 2744 2837 
Q 2550 3084 2163 3084 
Q 1697 3084 1428 2787 
Q 1159 2491 1159 1978 
L 1159 0 
L 581 0 
L 581 3500 
L 1159 3500 
L 1159 2956 
Q 1366 3272 1645 3428 
Q 1925 3584 2291 3584 
Q 2894 3584 3203 3211 
Q 3513 2838 3513 2113 
z
" transform="scale(0.015625)"/>
       <path id="DejaVuSans-20" transform="scale(0.015625)"/>
       <path id="DejaVuSans-28" d="M 1984 4856 
Q 1566 4138 1362 3434 
Q 1159 2731 1159 2009 
Q 1159 1288 1364 580 
Q 1569 -128 1984 -844 
L 1484 -844 
Q 1016 -109 783 600 
Q 550 1309 550 2009 
Q 550 2706 781 3412 
Q 1013 4119 1484 4856 
L 1984 4856 
z
" transform="scale(0.015625)"/>
       <path id="DejaVuSans-62" d="M 3116 1747 
Q 3116 2381 2855 2742 
Q 2594 3103 2138 3103 
Q 1681 3103 1420 2742 
Q 1159 2381 1159 1747 
Q 1159 1113 1420 752 
Q 1681 391 2138 391 
Q 2594 391 2855 752 
Q 3116 1113 3116 1747 
z
M 1159 2969 
Q 1341 3281 1617 3432 
Q 1894 3584 2278 3584 
Q 2916 3584 3314 3078 
Q 3713 2572 3713 1747 
Q 3713 922 3314 415 
Q 2916 -91 2278 -91 
Q 1894 -91 1617 61 
Q 1341 213 1159 525 
L 1159 0 
L 581 0 
L 581 4863 
L 1159 4863 
L 1159 2969 
z
" transform="scale(0.015625)"/>
       <path id="DejaVuSans-70" d="M 1159 525 
L 1159 -1331 
L 581 -1331 
L 581 3500 
L 1159 3500 
L 1159 2969 
Q 1341 3281 1617 3432 
Q 1894 3584 2278 3584 
Q 2916 3584 3314 3078 
Q 3713 2572 3713 1747 
Q 3713 922 3314 415 
Q 2916 -91 2278 -91 
Q 1894 -91 1617 61 
Q 1341 213 1159 525 
z
M 3116 1747 
Q 3116 2381 2855 2742 
Q 2594 3103 2138 3103 
Q 1681 3103 1420 2742 
Q 1159 2381 1159 1747 
Q 1159 1113 1420 752 
Q 1681 391 2138 391 
Q 2594 391 2855 752 
Q 3116 1113 3116 1747 
z
" transform="scale(0.015625)"/>
       <path id="DejaVuSans-29" d="M 513 4856 
L 1013 4856 
Q 1481 4119 1714 3412 
Q 1947 2706 1947 2009 
Q 1947 1309 1714 600 
Q 1481 -109 1013 -844 
L 513 -844 
Q 928 -128 1133 580 
Q 1338 1288 1338 2009 
Q 1338 2731 1133 3434 
Q 928 4138 513 4856 
z
" transform="scale(0.015625)"/>
      </defs>
      <use xlink:href="#DejaVuSans-50"/>
      <use xlink:href="#DejaVuSans-6f" x="56.677734"/>
      <use xlink:href="#DejaVuSans-73" x="117.859375"/>
      <use xlink:href="#DejaVuSans-69" x="169.958984"/>
      <use xlink:href="#DejaVuSans-74" x="197.742188"/>
      <use xlink:href="#DejaVuSans-69" x="236.951172"/>
      <use xlink:href="#DejaVuSans-6f" x="264.734375"/>
      <use xlink:href="#DejaVuSans-6e" x="325.916016"/>
      <use xlink:href="#DejaVuSans-20" x="389.294922"/>
      <use xlink:href="#DejaVuSans-28" x="421.082031"/>
      <use xlink:href="#DejaVuSans-62" x="460.095703"/>
      <use xlink:href="#DejaVuSans-70" x="523.572266"/>
      <use xlink:href="#DejaVuSans-29" x="587.048828"/>
     </g>
    </g>
   </g>
   <g id="matplotlib.axis_2">
    <g id="ytick_1">
     <g id="line2d_1">
      <path d="M 32.968125 273.99006 
L 993.158125 273.99006 
" clip-path="url(#pb1923bc4f3)" style="fill: none; stroke: #dedede; stroke-linecap: square"/>
     </g>
     <g id="text_10">
      <!-- 0 -->
      <g transform="translate(20.878125 277.029435) scale(0.08 -0.08)">
       <use xlink:href="#DejaVuSans-30"/>
      </g>
     </g>
    </g>
    <g id="ytick_2">
     <g id="line2d_2">
      <path d="M 32.968125 225.48862 
L 993.158125 225.48862 
" clip-path="url(#pb1923bc4f3)" style="fill: none; stroke: #dedede; stroke-linecap: square"/>
     </g>
     <g id="text_11">
      <!-- 1 -->
      <g transform="translate(20.878125 228.527995) scale(0.08 -0.08)">
       <use xlink:href="#DejaVuSans-31"/>
      </g>
     </g>
    </g>
    <g id="ytick_3">
     <g id="line2d_3">
      <path d="M 32.968125 176.98718 
L 993.158125 176.98718 
" clip-path="url(#pb1923bc4f3)" style="fill: none; stroke: #dedede; stroke-linecap: square"/>
     </g>
     <g id="text_12">
      <!-- 2 -->
      <g transform="translate(20.878125 180.026555) scale(0.08 -0.08)">
       <use xlink:href="#DejaVuSans-32"/>
      </g>
     </g>
    </g>
    <g id="ytick_4">
     <g id="line2d_4">
      <path d="M 32.968125 128.48574 
L 993.158125 128.48574 
" clip-path="url(#pb1923bc4f3)" style="fill: none; stroke: #dedede; stroke-linecap: square"/>
     </g>
     <g id="text_13">
      <!-- 3 -->
      <g transform="translate(20.878125 131.525115) scale(0.08 -0.08)">
       <defs>
        <path id="DejaVuSans-33" d="M 2597 2516 
Q 3050 2419 3304 2112 
Q 3559 1806 3559 1356 
Q 3559 666 3084 287 
Q 2609 -91 1734 -91 
Q 1441 -91 1130 -33 
Q 819 25 488 141 
L 488 750 
Q 750 597 1062 519 
Q 1375 441 1716 441 
Q 2309 441 2620 675 
Q 2931 909 2931 1356 
Q 2931 1769 2642 2001 
Q 2353 2234 1838 2234 
L 1294 2234 
L 1294 2753 
L 1863 2753 
Q 2328 2753 2575 2939 
Q 2822 3125 2822 3475 
Q 2822 3834 2567 4026 
Q 2313 4219 1838 4219 
Q 1578 4219 1281 4162 
Q 984 4106 628 3988 
L 628 4550 
Q 988 4650 1302 4700 
Q 1616 4750 1894 4750 
Q 2613 4750 3031 4423 
Q 3450 4097 3450 3541 
Q 3450 3153 3228 2886 
Q 3006 2619 2597 2516 
z
" transform="scale(0.015625)"/>
       </defs>
       <use xlink:href="#DejaVuSans-33"/>
      </g>
     </g>
    </g>
    <g id="ytick_5">
     <g id="line2d_5">
      <path d="M 32.968125 79.9843 
L 993.158125 79.9843 
" clip-path="url(#pb1923bc4f3)" style="fill: none; stroke: #dedede; stroke-linecap: square"/>
     </g>
     <g id="text_14">
      <!-- 4 -->
      <g transform="translate(20.878125 83.023675) scale(0.08 -0.08)">
       <use xlink:href="#DejaVuSans-34"/>
      </g>
     </g>
    </g>
    <g id="ytick_6">
     <g id="line2d_6">
      <path d="M 32.968125 31.48286 
L 993.158125 31.48286 
" clip-path="url(#pb1923bc4f3)" style="fill: none; stroke: #dedede; stroke-linecap: square"/>
     </g>
     <g id="text_15">
      <!-- 5 -->
      <g transform="translate(20.878125 34.522235) scale(0.08 -0.08)">
       <defs>
        <path id="DejaVuSans-35" d="M 691 4666 
L 3169 4666 
L 3169 4134 
L 1269 4134 
L 1269 2991 
Q 1406 3038 1543 3061 
Q 1681 3084 1819 3084 
Q 2600 3084 3056 2656 
Q 3513 2228 3513 1497 
Q 3513 744 3044 326 
Q 2575 -91 1722 -91 
Q 1428 -91 1123 -41 
Q 819 9 494 109 
L 494 744 
Q 775 591 1075 516 
Q 1375 441 1709 441 
Q 2250 441 2565 725 
Q 2881 1009 2881 1497 
Q 2881 1984 2565 2268 
Q 2250 2553 1709 2553 
Q 1456 2553 1204 2497 
Q 953 2441 691 2322 
L 691 4666 
z
" transform="scale(0.015625)"/>
       </defs>
       <use xlink:href="#DejaVuSans-35"/>
      </g>
     </g>
    </g>
    <g id="text_16">
     <!-- % of Sequences -->
     <g transform="translate(14.798437 192.754429) rotate(-90) scale(0.1 -0.1)">
      <defs>
       <path id="DejaVuSans-25" d="M 4653 2053 
Q 4381 2053 4226 1822 
Q 4072 1591 4072 1178 
Q 4072 772 4226 539 
Q 4381 306 4653 306 
Q 4919 306 5073 539 
Q 5228 772 5228 1178 
Q 5228 1588 5073 1820 
Q 4919 2053 4653 2053 
z
M 4653 2450 
Q 5147 2450 5437 2106 
Q 5728 1763 5728 1178 
Q 5728 594 5436 251 
Q 5144 -91 4653 -91 
Q 4153 -91 3862 251 
Q 3572 594 3572 1178 
Q 3572 1766 3864 2108 
Q 4156 2450 4653 2450 
z
M 1428 4353 
Q 1159 4353 1004 4120 
Q 850 3888 850 3481 
Q 850 3069 1003 2837 
Q 1156 2606 1428 2606 
Q 1700 2606 1854 2837 
Q 2009 3069 2009 3481 
Q 2009 3884 1853 4118 
Q 1697 4353 1428 4353 
z
M 4250 4750 
L 4750 4750 
L 1831 -91 
L 1331 -91 
L 4250 4750 
z
M 1428 4750 
Q 1922 4750 2215 4408 
Q 2509 4066 2509 3481 
Q 2509 2891 2217 2550 
Q 1925 2209 1428 2209 
Q 931 2209 642 2551 
Q 353 2894 353 3481 
Q 353 4063 643 4406 
Q 934 4750 1428 4750 
z
" transform="scale(0.015625)"/>
       <path id="DejaVuSans-66" d="M 2375 4863 
L 2375 4384 
L 1825 4384 
Q 1516 4384 1395 4259 
Q 1275 4134 1275 3809 
L 1275 3500 
L 2222 3500 
L 2222 3053 
L 1275 3053 
L 1275 0 
L 697 0 
L 697 3053 
L 147 3053 
L 147 3500 
L 697 3500 
L 697 3744 
Q 697 4328 969 4595 
Q 1241 4863 1831 4863 
L 2375 4863 
z
" transform="scale(0.015625)"/>
       <path id="DejaVuSans-53" d="M 3425 4513 
L 3425 3897 
Q 3066 4069 2747 4153 
Q 2428 4238 2131 4238 
Q 1616 4238 1336 4038 
Q 1056 3838 1056 3469 
Q 1056 3159 1242 3001 
Q 1428 2844 1947 2747 
L 2328 2669 
Q 3034 2534 3370 2195 
Q 3706 1856 3706 1288 
Q 3706 609 3251 259 
Q 2797 -91 1919 -91 
Q 1588 -91 1214 -16 
Q 841 59 441 206 
L 441 856 
Q 825 641 1194 531 
Q 1563 422 1919 422 
Q 2459 422 2753 634 
Q 3047 847 3047 1241 
Q 3047 1584 2836 1778 
Q 2625 1972 2144 2069 
L 1759 2144 
Q 1053 2284 737 2584 
Q 422 2884 422 3419 
Q 422 4038 858 4394 
Q 1294 4750 2059 4750 
Q 2388 4750 2728 4690 
Q 3069 4631 3425 4513 
z
" transform="scale(0.015625)"/>
       <path id="DejaVuSans-65" d="M 3597 1894 
L 3597 1613 
L 953 1613 
Q 991 1019 1311 708 
Q 1631 397 2203 397 
Q 2534 397 2845 478 
Q 3156 559 3463 722 
L 3463 178 
Q 3153 47 2828 -22 
Q 2503 -91 2169 -91 
Q 1331 -91 842 396 
Q 353 884 353 1716 
Q 353 2575 817 3079 
Q 1281 3584 2069 3584 
Q 2775 3584 3186 3129 
Q 3597 2675 3597 1894 
z
M 3022 2063 
Q 3016 2534 2758 2815 
Q 2500 3097 2075 3097 
Q 1594 3097 1305 2825 
Q 1016 2553 972 2059 
L 3022 2063 
z
" transform="scale(0.015625)"/>
       <path id="DejaVuSans-71" d="M 947 1747 
Q 947 1113 1208 752 
Q 1469 391 1925 391 
Q 2381 391 2643 752 
Q 2906 1113 2906 1747 
Q 2906 2381 2643 2742 
Q 2381 3103 1925 3103 
Q 1469 3103 1208 2742 
Q 947 2381 947 1747 
z
M 2906 525 
Q 2725 213 2448 61 
Q 2172 -91 1784 -91 
Q 1150 -91 751 415 
Q 353 922 353 1747 
Q 353 2572 751 3078 
Q 1150 3584 1784 3584 
Q 2172 3584 2448 3432 
Q 2725 3281 2906 2969 
L 2906 3500 
L 3481 3500 
L 3481 -1331 
L 2906 -1331 
L 2906 525 
z
" transform="scale(0.015625)"/>
       <path id="DejaVuSans-75" d="M 544 1381 
L 544 3500 
L 1119 3500 
L 1119 1403 
Q 1119 906 1312 657 
Q 1506 409 1894 409 
Q 2359 409 2629 706 
Q 2900 1003 2900 1516 
L 2900 3500 
L 3475 3500 
L 3475 0 
L 2900 0 
L 2900 538 
Q 2691 219 2414 64 
Q 2138 -91 1772 -91 
Q 1169 -91 856 284 
Q 544 659 544 1381 
z
M 1991 3584 
L 1991 3584 
z
" transform="scale(0.015625)"/>
       <path id="DejaVuSans-63" d="M 3122 3366 
L 3122 2828 
Q 2878 2963 2633 3030 
Q 2388 3097 2138 3097 
Q 1578 3097 1268 2742 
Q 959 2388 959 1747 
Q 959 1106 1268 751 
Q 1578 397 2138 397 
Q 2388 397 2633 464 
Q 2878 531 3122 666 
L 3122 134 
Q 2881 22 2623 -34 
Q 2366 -91 2075 -91 
Q 1284 -91 818 406 
Q 353 903 353 1747 
Q 353 2603 823 3093 
Q 1294 3584 2113 3584 
Q 2378 3584 2631 3529 
Q 2884 3475 3122 3366 
z
" transform="scale(0.015625)"/>
      </defs>
      <use xlink:href="#DejaVuSans-25"/>
      <use xlink:href="#DejaVuSans-20" x="95.019531"/>
      <use xlink:href="#DejaVuSans-6f" x="126.806641"/>
      <use xlink:href="#DejaVuSans-66" x="187.988281"/>
      <use xlink:href="#DejaVuSans-20" x="223.193359"/>
      <use xlink:href="#DejaVuSans-53" x="254.980469"/>
      <use xlink:href="#DejaVuSans-65" x="318.457031"/>
      <use xlink:href="#DejaVuSans-71" x="379.980469"/>
      <use xlink:href="#DejaVuSans-75" x="443.457031"/>
      <use xlink:href="#DejaVuSans-65" x="506.835938"/>
      <use xlink:href="#DejaVuSans-6e" x="568.359375"/>
      <use xlink:href="#DejaVuSans-63" x="631.738281"/>
      <use xlink:href="#DejaVuSans-65" x="686.71875"/>
      <use xlink:href="#DejaVuSans-73" x="748.242188"/>
     </g>
    </g>
   </g>
   <g id="line2d_7">
    <path d="M 76.613125 273.907879 
L 82.984658 273.907716 
L 89.356191 273.905751 
L 95.727724 273.90215 
L 102.099256 273.901004 
L 108.470789 273.899203 
L 114.842322 273.897893 
L 121.213855 273.895601 
L 127.585388 273.892164 
L 133.956921 273.881113 
L 146.699986 273.866462 
L 159.443052 273.847554 
L 172.186118 273.824225 
L 184.929183 273.79394 
L 197.672249 273.761444 
L 210.415315 273.724856 
L 223.15838 273.682128 
L 235.901446 273.635717 
L 248.644512 273.581776 
L 261.387578 273.523988 
L 274.130643 273.460224 
L 286.873709 273.393105 
L 299.616775 273.319273 
L 312.35984 273.244214 
L 325.102906 273.168336 
L 337.845972 273.09033 
L 350.589037 273.003974 
L 363.332103 272.921057 
L 376.075169 272.836257 
L 388.818234 272.748674 
L 401.5613 272.654707 
L 414.304366 272.557629 
L 427.047432 272.447373 
L 439.790497 272.343665 
L 452.533563 272.229397 
L 465.276629 272.118323 
L 478.019694 271.996361 
L 490.76276 271.880866 
L 503.505826 271.762016 
L 516.248891 271.622701 
L 528.991957 271.485925 
L 541.735023 271.340717 
L 554.478089 271.180121 
L 567.221154 271.019771 
L 579.96422 270.846569 
L 592.707286 270.660681 
L 605.450351 270.465543 
L 618.193417 270.255098 
L 630.936483 270.034749 
L 643.679548 269.796229 
L 656.422614 269.530042 
L 669.16568 269.232178 
L 681.908745 268.910414 
L 694.651811 268.548622 
L 707.394877 268.163994 
L 720.137943 267.742286 
L 732.881008 267.263445 
L 745.624074 266.721086 
L 758.36714 266.133134 
L 771.110205 265.472169 
L 783.853271 264.71912 
L 796.596337 263.887246 
L 809.339402 262.973191 
L 822.082468 261.941022 
L 834.825534 260.801462 
L 847.568599 259.512683 
L 860.311665 258.091302 
L 873.054731 256.475192 
L 885.797797 254.688746 
L 898.540862 252.697994 
L 911.283928 250.440155 
L 924.026994 247.904179 
L 936.770059 245.084172 
L 949.513125 241.986355 
" clip-path="url(#pb1923bc4f3)" style="fill: none; stroke: #7cb5ec; stroke-linecap: square"/>
   </g>
   <g id="line2d_8">
    <path d="M 76.613125 273.902641 
L 82.984658 273.902641 
L 89.356191 273.901167 
L 95.727724 273.897893 
L 102.099256 273.896911 
L 108.470789 273.895274 
L 114.842322 273.894783 
L 121.213855 273.892327 
L 127.585388 273.889381 
L 133.956921 273.877676 
L 146.699986 273.863351 
L 159.443052 273.841824 
L 172.186118 273.816122 
L 184.929183 273.779943 
L 197.672249 273.733941 
L 210.415315 273.678527 
L 223.15838 273.603222 
L 235.901446 273.518094 
L 248.644512 273.418806 
L 261.387578 273.304621 
L 274.130643 273.170218 
L 286.873709 273.03205 
L 299.616775 272.882504 
L 312.35984 272.720271 
L 325.102906 272.557138 
L 337.845972 272.374196 
L 350.589037 272.194528 
L 363.332103 272.003646 
L 376.075169 271.79754 
L 388.818234 271.600765 
L 401.5613 271.400879 
L 414.304366 271.191253 
L 427.047432 270.966402 
L 439.790497 270.739669 
L 452.533563 270.512281 
L 465.276629 270.282355 
L 478.019694 270.043344 
L 490.76276 269.807443 
L 503.505826 269.576126 
L 516.248891 269.31927 
L 528.991957 269.072319 
L 541.735023 268.81178 
L 554.478089 268.534953 
L 567.221154 268.260008 
L 579.96422 267.974013 
L 592.707286 267.677704 
L 605.450351 267.372146 
L 618.193417 267.062004 
L 630.936483 266.739012 
L 643.679548 266.393918 
L 656.422614 266.033682 
L 669.16568 265.63342 
L 681.908745 265.219325 
L 694.651811 264.768641 
L 707.394877 264.282024 
L 720.137943 263.758327 
L 732.881008 263.187155 
L 745.624074 262.555985 
L 758.36714 261.882579 
L 771.110205 261.134113 
L 783.853271 260.299374 
L 796.596337 259.389576 
L 809.339402 258.388511 
L 822.082468 257.275062 
L 834.825534 256.060524 
L 847.568599 254.694312 
L 860.311665 253.193779 
L 873.054731 251.506702 
L 885.797797 249.654528 
L 898.540862 247.598293 
L 911.283928 245.264822 
L 924.026994 242.682435 
L 936.770059 239.820519 
L 949.513125 236.690698 
" clip-path="url(#pb1923bc4f3)" style="fill: none; stroke: #434348; stroke-linecap: square"/>
   </g>
   <g id="line2d_9">
    <path d="M 76.613125 273.852005 
L 82.984658 273.851338 
L 89.356191 273.848503 
L 95.727724 273.841834 
L 102.099256 273.8395 
L 108.470789 273.836165 
L 114.842322 273.834498 
L 121.213855 273.83233 
L 127.585388 273.826995 
L 133.956921 273.817408 
L 146.699986 273.801568 
L 159.443052 273.783144 
L 172.186118 273.758134 
L 184.929183 273.730873 
L 197.672249 273.697193 
L 210.415315 273.65751 
L 223.15838 273.604656 
L 235.901446 273.545882 
L 248.644512 273.489276 
L 261.387578 273.430086 
L 274.130643 273.363976 
L 286.873709 273.290363 
L 299.616775 273.216333 
L 312.35984 273.142304 
L 325.102906 273.068441 
L 337.845972 272.99241 
L 350.589037 272.903625 
L 363.332103 272.812088 
L 376.075169 272.718634 
L 388.818234 272.622012 
L 401.5613 272.521805 
L 414.304366 272.422932 
L 427.047432 272.319724 
L 439.790497 272.214932 
L 452.533563 272.108223 
L 465.276629 271.984674 
L 478.019694 271.861541 
L 490.76276 271.737825 
L 503.505826 271.602854 
L 516.248891 271.471385 
L 528.991957 271.33583 
L 541.735023 271.181852 
L 554.478089 271.026706 
L 567.221154 270.865475 
L 579.96422 270.691989 
L 592.707286 270.50358 
L 605.450351 270.308502 
L 618.193417 270.10392 
L 630.936483 269.876412 
L 643.679548 269.642569 
L 656.422614 269.371544 
L 669.16568 269.089347 
L 681.908745 268.789144 
L 694.651811 268.445006 
L 707.394877 268.085862 
L 720.137943 267.670362 
L 732.881008 267.199174 
L 745.624074 266.665293 
L 758.36714 266.107403 
L 771.110205 265.47615 
L 783.853271 264.763031 
L 796.596337 263.959043 
L 809.339402 263.07869 
L 822.082468 262.114721 
L 834.825534 261.028702 
L 847.568599 259.838392 
L 860.311665 258.500606 
L 873.054731 256.997671 
L 885.797797 255.327169 
L 898.540862 253.451334 
L 911.283928 251.365582 
L 924.026994 249.038233 
L 936.770059 246.463119 
L 949.513125 243.594803 
" clip-path="url(#pb1923bc4f3)" style="fill: none; stroke: #90ed7d; stroke-linecap: square"/>
   </g>
   <g id="line2d_10">
    <path d="M 76.613125 273.950878 
L 82.984658 273.89052 
L 89.356191 273.837832 
L 95.727724 273.776308 
L 102.099256 273.71595 
L 108.470789 273.637752 
L 114.842322 273.567724 
L 121.213855 273.48986 
L 127.585388 273.413329 
L 133.956921 273.311288 
L 146.699986 273.171065 
L 159.443052 273.036261 
L 172.186118 272.903458 
L 184.929183 272.776157 
L 197.672249 272.645021 
L 210.415315 272.522556 
L 223.15838 272.39959 
L 235.901446 272.279375 
L 248.644512 272.155742 
L 261.387578 272.030859 
L 274.130643 271.909227 
L 286.873709 271.790679 
L 299.616775 271.683636 
L 312.35984 271.563838 
L 325.102906 271.446708 
L 337.845972 271.333746 
L 350.589037 271.221618 
L 363.332103 271.101903 
L 376.075169 270.988441 
L 388.818234 270.872728 
L 401.5613 270.765352 
L 414.304366 270.655141 
L 427.047432 270.539011 
L 439.790497 270.432552 
L 452.533563 270.325259 
L 465.276629 270.220967 
L 478.019694 270.114925 
L 490.76276 270.009883 
L 503.505826 269.901839 
L 516.248891 269.800049 
L 528.991957 269.69459 
L 541.735023 269.590048 
L 554.478089 269.482005 
L 567.221154 269.374461 
L 579.96422 269.267752 
L 592.707286 269.167712 
L 605.450351 269.069006 
L 618.193417 268.975218 
L 630.936483 268.875262 
L 643.679548 268.773471 
L 656.422614 268.675181 
L 669.16568 268.576308 
L 681.908745 268.481687 
L 694.651811 268.386983 
L 707.394877 268.292945 
L 720.137943 268.198407 
L 732.881008 268.106454 
L 745.624074 268.0145 
L 758.36714 267.921296 
L 771.110205 267.83101 
L 783.853271 267.737806 
L 796.596337 267.643768 
L 809.339402 267.544562 
L 822.082468 267.449857 
L 834.825534 267.355486 
L 847.568599 267.26445 
L 860.311665 267.177331 
L 873.054731 267.089296 
L 885.797797 266.998093 
L 898.540862 266.90789 
L 911.283928 266.812769 
L 924.026994 266.723233 
L 936.770059 266.634781 
L 949.513125 266.54833 
" clip-path="url(#pb1923bc4f3)" style="fill: none; stroke: #f7a35c; stroke-linecap: square"/>
   </g>
   <g id="line2d_11">
    <path d="M 76.613125 273.845836 
L 82.984658 273.845502 
L 89.356191 273.842167 
L 95.727724 273.836332 
L 102.099256 273.833831 
L 108.470789 273.830663 
L 114.842322 273.829162 
L 121.213855 273.828329 
L 127.585388 273.824327 
L 133.956921 273.815157 
L 146.699986 273.799317 
L 159.443052 273.775808 
L 172.186118 273.746129 
L 184.929183 273.708697 
L 197.672249 273.662012 
L 210.415315 273.603072 
L 223.15838 273.508534 
L 235.901446 273.395322 
L 248.644512 273.274357 
L 261.387578 273.136135 
L 274.130643 272.990243 
L 286.873709 272.831179 
L 299.616775 272.655025 
L 312.35984 272.476537 
L 325.102906 272.291463 
L 337.845972 272.096635 
L 350.589037 271.89372 
L 363.332103 271.678134 
L 376.075169 271.45271 
L 388.818234 271.223535 
L 401.5613 270.998278 
L 414.304366 270.775856 
L 427.047432 270.54368 
L 439.790497 270.298081 
L 452.533563 270.049148 
L 465.276629 269.780707 
L 478.019694 269.526689 
L 490.76276 269.269253 
L 503.505826 269.001812 
L 516.248891 268.737123 
L 528.991957 268.474518 
L 541.735023 268.190987 
L 554.478089 267.907207 
L 567.221154 267.621676 
L 579.96422 267.325307 
L 592.707286 267.008347 
L 605.450351 266.690053 
L 618.193417 266.364172 
L 630.936483 266.026204 
L 643.679548 265.674396 
L 656.422614 265.286241 
L 669.16568 264.891666 
L 681.908745 264.481752 
L 694.651811 264.030738 
L 707.394877 263.568053 
L 720.137943 263.044426 
L 732.881008 262.467445 
L 745.624074 261.823937 
L 758.36714 261.161422 
L 771.110205 260.436965 
L 783.853271 259.633894 
L 796.596337 258.731366 
L 809.339402 257.75931 
L 822.082468 256.706721 
L 834.825534 255.530917 
L 847.568599 254.259491 
L 860.311665 252.825417 
L 873.054731 251.241532 
L 885.797797 249.498668 
L 898.540862 247.534298 
L 911.283928 245.355759 
L 924.026994 242.964051 
L 936.770059 240.334081 
L 949.513125 237.418996 
" clip-path="url(#pb1923bc4f3)" style="fill: none; stroke: #8085e9; stroke-linecap: square"/>
   </g>
   <g id="line2d_12">
    <path d="M 76.613125 273.954879 
L 82.984658 273.904692 
L 89.356191 273.871012 
L 95.727724 273.815657 
L 102.099256 273.760468 
L 108.470789 273.687105 
L 114.842322 273.62408 
L 121.213855 273.550384 
L 127.585388 273.484524 
L 133.956921 273.388319 
L 146.699986 273.263436 
L 159.443052 273.148973 
L 172.186118 273.025257 
L 184.929183 272.906459 
L 197.672249 272.792997 
L 210.415315 272.668114 
L 223.15838 272.553151 
L 235.901446 272.432353 
L 248.644512 272.321392 
L 261.387578 272.213682 
L 274.130643 272.096968 
L 286.873709 271.994427 
L 299.616775 271.889802 
L 312.35984 271.778924 
L 325.102906 271.673632 
L 337.845972 271.572342 
L 350.589037 271.4693 
L 363.332103 271.368844 
L 376.075169 271.263551 
L 388.818234 271.158092 
L 401.5613 271.058386 
L 414.304366 270.961764 
L 427.047432 270.861557 
L 439.790497 270.768353 
L 452.533563 270.669647 
L 465.276629 270.569607 
L 478.019694 270.474319 
L 490.76276 270.377697 
L 503.505826 270.281658 
L 516.248891 270.18662 
L 528.991957 270.091249 
L 541.735023 269.99396 
L 554.478089 269.902089 
L 567.221154 269.81172 
L 579.96422 269.717015 
L 592.707286 269.624895 
L 605.450351 269.539111 
L 618.193417 269.448574 
L 630.936483 269.355537 
L 643.679548 269.262667 
L 656.422614 269.173047 
L 669.16568 269.090014 
L 681.908745 268.995393 
L 694.651811 268.89752 
L 707.394877 268.803983 
L 720.137943 268.710779 
L 732.881008 268.627996 
L 745.624074 268.543545 
L 758.36714 268.455177 
L 771.110205 268.367225 
L 783.853271 268.276772 
L 796.596337 268.178399 
L 809.339402 268.086612 
L 822.082468 268.002329 
L 834.825534 267.923464 
L 847.568599 267.837929 
L 860.311665 267.74881 
L 873.054731 267.66361 
L 885.797797 267.57274 
L 898.540862 267.48879 
L 911.283928 267.408341 
L 924.026994 267.319222 
L 936.770059 267.23227 
L 949.513125 267.153655 
" clip-path="url(#pb1923bc4f3)" style="fill: none; stroke: #f15c80; stroke-linecap: square"/>
   </g>
   <g id="line2d_13">
    <path d="M 76.613125 273.838281 
L 82.984658 273.837786 
L 89.356191 273.837292 
L 95.727724 273.83449 
L 102.099256 273.833831 
L 108.470789 273.832513 
L 114.842322 273.832018 
L 121.213855 273.829876 
L 127.585388 273.82658 
L 133.956921 273.817269 
L 146.699986 273.80631 
L 159.443052 273.791066 
L 172.186118 273.774257 
L 184.929183 273.751102 
L 197.672249 273.722757 
L 210.415315 273.693176 
L 223.15838 273.65692 
L 235.901446 273.618687 
L 248.644512 273.571637 
L 261.387578 273.528295 
L 274.130643 273.478773 
L 286.873709 273.427439 
L 299.616775 273.37149 
L 312.35984 273.315623 
L 325.102906 273.258191 
L 337.845972 273.189552 
L 350.589037 273.120007 
L 363.332103 273.054418 
L 376.075169 272.976056 
L 388.818234 272.903133 
L 401.5613 272.827161 
L 414.304366 272.741548 
L 427.047432 272.654699 
L 439.790497 272.567603 
L 452.533563 272.483309 
L 465.276629 272.389786 
L 478.019694 272.293297 
L 490.76276 272.199279 
L 503.505826 272.10452 
L 516.248891 271.98603 
L 528.991957 271.871907 
L 541.735023 271.752181 
L 554.478089 271.617129 
L 567.221154 271.478534 
L 579.96422 271.330051 
L 592.707286 271.180496 
L 605.450351 271.020065 
L 618.193417 270.850488 
L 630.936483 270.669292 
L 643.679548 270.467826 
L 656.422614 270.249221 
L 669.16568 270.008286 
L 681.908745 269.751695 
L 694.651811 269.478871 
L 707.394877 269.172923 
L 720.137943 268.828 
L 732.881008 268.455144 
L 745.624074 268.035485 
L 758.36714 267.571331 
L 771.110205 267.059879 
L 783.853271 266.512172 
L 796.596337 265.896486 
L 809.339402 265.209771 
L 822.082468 264.441234 
L 834.825534 263.606366 
L 847.568599 262.665698 
L 860.311665 261.623348 
L 873.054731 260.472232 
L 885.797797 259.215151 
L 898.540862 257.798545 
L 911.283928 256.23329 
L 924.026994 254.467971 
L 936.770059 252.487095 
L 949.513125 250.329556 
" clip-path="url(#pb1923bc4f3)" style="fill: none; stroke: #e4d354; stroke-linecap: square"/>
   </g>
   <g id="line2d_14">
    <path d="M 76.613125 273.951662 
L 82.984658 273.900245 
L 89.356191 273.848828 
L 95.727724 273.786699 
L 102.099256 273.725559 
L 108.470789 273.657003 
L 114.842322 273.590589 
L 121.213855 273.514947 
L 127.585388 273.441446 
L 133.956921 273.333833 
L 146.699986 273.200511 
L 159.443052 273.082351 
L 172.186118 272.959247 
L 184.929183 272.832187 
L 197.672249 272.694416 
L 210.415315 272.566203 
L 223.15838 272.451833 
L 235.901446 272.334249 
L 248.644512 272.213122 
L 261.387578 272.087299 
L 274.130643 271.97433 
L 286.873709 271.863338 
L 299.616775 271.754983 
L 312.35984 271.644074 
L 325.102906 271.531269 
L 337.845972 271.425304 
L 350.589037 271.318927 
L 363.332103 271.213703 
L 376.075169 271.10164 
L 388.818234 270.994521 
L 401.5613 270.88938 
L 414.304366 270.783332 
L 427.047432 270.673741 
L 439.790497 270.573379 
L 452.533563 270.474253 
L 465.276629 270.370265 
L 478.019694 270.272046 
L 490.76276 270.167234 
L 503.505826 270.063329 
L 516.248891 269.968981 
L 528.991957 269.865818 
L 541.735023 269.769411 
L 554.478089 269.66806 
L 567.221154 269.570252 
L 579.96422 269.472774 
L 592.707286 269.38197 
L 605.450351 269.284162 
L 618.193417 269.195006 
L 630.936483 269.100165 
L 643.679548 269.001451 
L 656.422614 268.902407 
L 669.16568 268.811026 
L 681.908745 268.715855 
L 694.651811 268.623568 
L 707.394877 268.531693 
L 720.137943 268.44229 
L 732.881008 268.34613 
L 745.624074 268.254502 
L 758.36714 268.167489 
L 771.110205 268.070999 
L 783.853271 267.977641 
L 796.596337 267.885189 
L 809.339402 267.79315 
L 822.082468 267.699214 
L 834.825534 267.609729 
L 847.568599 267.524775 
L 860.311665 267.437597 
L 873.054731 267.352973 
L 885.797797 267.26184 
L 898.540862 267.171942 
L 911.283928 267.074711 
L 924.026994 266.981435 
L 936.770059 266.882145 
L 949.513125 266.790764 
" clip-path="url(#pb1923bc4f3)" style="fill: none; stroke: #2b908f; stroke-linecap: square"/>
   </g>
   <g id="line2d_15">
    <path d="M 76.613125 273.829876 
L 82.984658 273.829546 
L 89.356191 273.828722 
L 95.727724 273.825591 
L 102.099256 273.824273 
L 108.470789 273.822625 
L 114.842322 273.822295 
L 121.213855 273.820153 
L 127.585388 273.817351 
L 133.956921 273.80804 
L 146.699986 273.7984 
L 159.443052 273.78192 
L 172.186118 273.759342 
L 184.929183 273.730091 
L 197.672249 273.689962 
L 210.415315 273.639122 
L 223.15838 273.56966 
L 235.901446 273.486601 
L 248.644512 273.38146 
L 261.387578 273.267914 
L 274.130643 273.139536 
L 286.873709 273.007203 
L 299.616775 272.857896 
L 312.35984 272.705045 
L 325.102906 272.550217 
L 337.845972 272.382123 
L 350.589037 272.209085 
L 363.332103 272.026983 
L 376.075169 271.841585 
L 388.818234 271.655362 
L 401.5613 271.461477 
L 414.304366 271.258116 
L 427.047432 271.054261 
L 439.790497 270.839281 
L 452.533563 270.626444 
L 465.276629 270.406686 
L 478.019694 270.182148 
L 490.76276 269.970547 
L 503.505826 269.74568 
L 516.248891 269.502767 
L 528.991957 269.258701 
L 541.735023 269.004499 
L 554.478089 268.735301 
L 567.221154 268.469564 
L 579.96422 268.201932 
L 592.707286 267.932486 
L 605.450351 267.64376 
L 618.193417 267.350913 
L 630.936483 267.048508 
L 643.679548 266.735556 
L 656.422614 266.393106 
L 669.16568 266.027089 
L 681.908745 265.665274 
L 694.651811 265.267451 
L 707.394877 264.854301 
L 720.137943 264.399211 
L 732.881008 263.919813 
L 745.624074 263.390151 
L 758.36714 262.820938 
L 771.110205 262.199236 
L 783.853271 261.553144 
L 796.596337 260.832893 
L 809.339402 260.041779 
L 822.082468 259.177906 
L 834.825534 258.243582 
L 847.568599 257.202387 
L 860.311665 256.061653 
L 873.054731 254.816519 
L 885.797797 253.480088 
L 898.540862 251.98891 
L 911.283928 250.349249 
L 924.026994 248.528146 
L 936.770059 246.494947 
L 949.513125 244.291264 
" clip-path="url(#pb1923bc4f3)" style="fill: none; stroke: #f45b5b; stroke-linecap: square"/>
   </g>
   <g id="line2d_16">
    <path d="M 76.613125 273.963033 
L 82.984658 273.919856 
L 89.356191 273.887061 
L 95.727724 273.833502 
L 102.099256 273.778953 
L 108.470789 273.711386 
L 114.842322 273.64662 
L 121.213855 273.573285 
L 127.585388 273.507366 
L 133.956921 273.413513 
L 146.699986 273.294034 
L 159.443052 273.174885 
L 172.186118 273.056725 
L 184.929183 272.938976 
L 197.672249 272.818509 
L 210.415315 272.70694 
L 223.15838 272.598668 
L 235.901446 272.488335 
L 248.644512 272.372482 
L 261.387578 272.259678 
L 274.130643 272.150087 
L 286.873709 272.046923 
L 299.616775 271.945819 
L 312.35984 271.840019 
L 325.102906 271.734218 
L 337.845972 271.635669 
L 350.589037 271.536049 
L 363.332103 271.43099 
L 376.075169 271.322882 
L 388.818234 271.222437 
L 401.5613 271.125124 
L 414.304366 271.029623 
L 427.047432 270.930168 
L 439.790497 270.824861 
L 452.533563 270.722275 
L 465.276629 270.624632 
L 478.019694 270.526494 
L 490.76276 270.429922 
L 503.505826 270.336152 
L 516.248891 270.241311 
L 528.991957 270.144821 
L 541.735023 270.047343 
L 554.478089 269.953243 
L 567.221154 269.861203 
L 579.96422 269.772707 
L 592.707286 269.677371 
L 605.450351 269.587391 
L 618.193417 269.501943 
L 630.936483 269.409738 
L 643.679548 269.322725 
L 656.422614 269.230191 
L 669.16568 269.14293 
L 681.908745 269.046935 
L 694.651811 268.954483 
L 707.394877 268.861207 
L 720.137943 268.769332 
L 732.881008 268.685532 
L 745.624074 268.604122 
L 758.36714 268.517108 
L 771.110205 268.427953 
L 783.853271 268.338467 
L 796.596337 268.249641 
L 809.339402 268.17062 
L 822.082468 268.087809 
L 834.825534 268.008047 
L 847.568599 267.924741 
L 860.311665 267.828087 
L 873.054731 267.740661 
L 885.797797 267.658592 
L 898.540862 267.573968 
L 911.283928 267.489673 
L 924.026994 267.407274 
L 936.770059 267.324051 
L 949.513125 267.24297 
" clip-path="url(#pb1923bc4f3)" style="fill: none; stroke: #91e8e1; stroke-linecap: square"/>
   </g>
   <g id="line2d_17">
    <path d="M 32.968125 273.99006 
L 993.158125 273.99006 
" clip-path="url(#pb1923bc4f3)" style="fill: none; stroke: #dedede; stroke-width: 2; stroke-linecap: square"/>
   </g>
   <g id="text_17">
    <!-- FastQC: Adapter Content -->
    <g transform="translate(413.765625 19.3575) scale(0.16 -0.16)">
     <defs>
      <path id="DejaVuSans-46" d="M 628 4666 
L 3309 4666 
L 3309 4134 
L 1259 4134 
L 1259 2759 
L 3109 2759 
L 3109 2228 
L 1259 2228 
L 1259 0 
L 628 0 
L 628 4666 
z
" transform="scale(0.015625)"/>
      <path id="DejaVuSans-61" d="M 2194 1759 
Q 1497 1759 1228 1600 
Q 959 1441 959 1056 
Q 959 750 1161 570 
Q 1363 391 1709 391 
Q 2188 391 2477 730 
Q 2766 1069 2766 1631 
L 2766 1759 
L 2194 1759 
z
M 3341 1997 
L 3341 0 
L 2766 0 
L 2766 531 
Q 2569 213 2275 61 
Q 1981 -91 1556 -91 
Q 1019 -91 701 211 
Q 384 513 384 1019 
Q 384 1609 779 1909 
Q 1175 2209 1959 2209 
L 2766 2209 
L 2766 2266 
Q 2766 2663 2505 2880 
Q 2244 3097 1772 3097 
Q 1472 3097 1187 3025 
Q 903 2953 641 2809 
L 641 3341 
Q 956 3463 1253 3523 
Q 1550 3584 1831 3584 
Q 2591 3584 2966 3190 
Q 3341 2797 3341 1997 
z
" transform="scale(0.015625)"/>
      <path id="DejaVuSans-51" d="M 2522 4238 
Q 1834 4238 1429 3725 
Q 1025 3213 1025 2328 
Q 1025 1447 1429 934 
Q 1834 422 2522 422 
Q 3209 422 3611 934 
Q 4013 1447 4013 2328 
Q 4013 3213 3611 3725 
Q 3209 4238 2522 4238 
z
M 3406 84 
L 4238 -825 
L 3475 -825 
L 2784 -78 
Q 2681 -84 2626 -87 
Q 2572 -91 2522 -91 
Q 1538 -91 948 567 
Q 359 1225 359 2328 
Q 359 3434 948 4092 
Q 1538 4750 2522 4750 
Q 3503 4750 4090 4092 
Q 4678 3434 4678 2328 
Q 4678 1516 4351 937 
Q 4025 359 3406 84 
z
" transform="scale(0.015625)"/>
      <path id="DejaVuSans-43" d="M 4122 4306 
L 4122 3641 
Q 3803 3938 3442 4084 
Q 3081 4231 2675 4231 
Q 1875 4231 1450 3742 
Q 1025 3253 1025 2328 
Q 1025 1406 1450 917 
Q 1875 428 2675 428 
Q 3081 428 3442 575 
Q 3803 722 4122 1019 
L 4122 359 
Q 3791 134 3420 21 
Q 3050 -91 2638 -91 
Q 1578 -91 968 557 
Q 359 1206 359 2328 
Q 359 3453 968 4101 
Q 1578 4750 2638 4750 
Q 3056 4750 3426 4639 
Q 3797 4528 4122 4306 
z
" transform="scale(0.015625)"/>
      <path id="DejaVuSans-3a" d="M 750 794 
L 1409 794 
L 1409 0 
L 750 0 
L 750 794 
z
M 750 3309 
L 1409 3309 
L 1409 2516 
L 750 2516 
L 750 3309 
z
" transform="scale(0.015625)"/>
      <path id="DejaVuSans-41" d="M 2188 4044 
L 1331 1722 
L 3047 1722 
L 2188 4044 
z
M 1831 4666 
L 2547 4666 
L 4325 0 
L 3669 0 
L 3244 1197 
L 1141 1197 
L 716 0 
L 50 0 
L 1831 4666 
z
" transform="scale(0.015625)"/>
      <path id="DejaVuSans-64" d="M 2906 2969 
L 2906 4863 
L 3481 4863 
L 3481 0 
L 2906 0 
L 2906 525 
Q 2725 213 2448 61 
Q 2172 -91 1784 -91 
Q 1150 -91 751 415 
Q 353 922 353 1747 
Q 353 2572 751 3078 
Q 1150 3584 1784 3584 
Q 2172 3584 2448 3432 
Q 2725 3281 2906 2969 
z
M 947 1747 
Q 947 1113 1208 752 
Q 1469 391 1925 391 
Q 2381 391 2643 752 
Q 2906 1113 2906 1747 
Q 2906 2381 2643 2742 
Q 2381 3103 1925 3103 
Q 1469 3103 1208 2742 
Q 947 2381 947 1747 
z
" transform="scale(0.015625)"/>
      <path id="DejaVuSans-72" d="M 2631 2963 
Q 2534 3019 2420 3045 
Q 2306 3072 2169 3072 
Q 1681 3072 1420 2755 
Q 1159 2438 1159 1844 
L 1159 0 
L 581 0 
L 581 3500 
L 1159 3500 
L 1159 2956 
Q 1341 3275 1631 3429 
Q 1922 3584 2338 3584 
Q 2397 3584 2469 3576 
Q 2541 3569 2628 3553 
L 2631 2963 
z
" transform="scale(0.015625)"/>
     </defs>
     <use xlink:href="#DejaVuSans-46"/>
     <use xlink:href="#DejaVuSans-61" x="48.394531"/>
     <use xlink:href="#DejaVuSans-73" x="109.673828"/>
     <use xlink:href="#DejaVuSans-74" x="161.773438"/>
     <use xlink:href="#DejaVuSans-51" x="200.982422"/>
     <use xlink:href="#DejaVuSans-43" x="279.693359"/>
     <use xlink:href="#DejaVuSans-3a" x="349.517578"/>
     <use xlink:href="#DejaVuSans-20" x="383.208984"/>
     <use xlink:href="#DejaVuSans-41" x="414.996094"/>
     <use xlink:href="#DejaVuSans-64" x="481.654297"/>
     <use xlink:href="#DejaVuSans-61" x="545.130859"/>
     <use xlink:href="#DejaVuSans-70" x="606.410156"/>
     <use xlink:href="#DejaVuSans-74" x="669.886719"/>
     <use xlink:href="#DejaVuSans-65" x="709.095703"/>
     <use xlink:href="#DejaVuSans-72" x="770.619141"/>
     <use xlink:href="#DejaVuSans-20" x="811.732422"/>
     <use xlink:href="#DejaVuSans-43" x="843.519531"/>
     <use xlink:href="#DejaVuSans-6f" x="913.34375"/>
     <use xlink:href="#DejaVuSans-6e" x="974.525391"/>
     <use xlink:href="#DejaVuSans-74" x="1037.904297"/>
     <use xlink:href="#DejaVuSans-65" x="1077.113281"/>
     <use xlink:href="#DejaVuSans-6e" x="1138.636719"/>
     <use xlink:href="#DejaVuSans-74" x="1202.015625"/>
    </g>
   </g>
   <g id="legend_1">
    <g id="line2d_18">
     <path d="M 40.168125 303.490394 
L 48.168125 303.490394 
L 56.168125 303.490394 
" style="fill: none; stroke: #7cb5ec; stroke-linecap: square"/>
    </g>
    <g id="text_18">
     <!-- TK10_49_T1_1 - illumina_universal_adapter -->
     <g transform="translate(62.568125 306.290394) scale(0.08 -0.08)">
      <defs>
       <path id="DejaVuSans-54" d="M -19 4666 
L 3928 4666 
L 3928 4134 
L 2272 4134 
L 2272 0 
L 1638 0 
L 1638 4134 
L -19 4134 
L -19 4666 
z
" transform="scale(0.015625)"/>
       <path id="DejaVuSans-4b" d="M 628 4666 
L 1259 4666 
L 1259 2694 
L 3353 4666 
L 4166 4666 
L 1850 2491 
L 4331 0 
L 3500 0 
L 1259 2247 
L 1259 0 
L 628 0 
L 628 4666 
z
" transform="scale(0.015625)"/>
       <path id="DejaVuSans-5f" d="M 3263 -1063 
L 3263 -1509 
L -63 -1509 
L -63 -1063 
L 3263 -1063 
z
" transform="scale(0.015625)"/>
       <path id="DejaVuSans-39" d="M 703 97 
L 703 672 
Q 941 559 1184 500 
Q 1428 441 1663 441 
Q 2288 441 2617 861 
Q 2947 1281 2994 2138 
Q 2813 1869 2534 1725 
Q 2256 1581 1919 1581 
Q 1219 1581 811 2004 
Q 403 2428 403 3163 
Q 403 3881 828 4315 
Q 1253 4750 1959 4750 
Q 2769 4750 3195 4129 
Q 3622 3509 3622 2328 
Q 3622 1225 3098 567 
Q 2575 -91 1691 -91 
Q 1453 -91 1209 -44 
Q 966 3 703 97 
z
M 1959 2075 
Q 2384 2075 2632 2365 
Q 2881 2656 2881 3163 
Q 2881 3666 2632 3958 
Q 2384 4250 1959 4250 
Q 1534 4250 1286 3958 
Q 1038 3666 1038 3163 
Q 1038 2656 1286 2365 
Q 1534 2075 1959 2075 
z
" transform="scale(0.015625)"/>
       <path id="DejaVuSans-2d" d="M 313 2009 
L 1997 2009 
L 1997 1497 
L 313 1497 
L 313 2009 
z
" transform="scale(0.015625)"/>
       <path id="DejaVuSans-6c" d="M 603 4863 
L 1178 4863 
L 1178 0 
L 603 0 
L 603 4863 
z
" transform="scale(0.015625)"/>
       <path id="DejaVuSans-6d" d="M 3328 2828 
Q 3544 3216 3844 3400 
Q 4144 3584 4550 3584 
Q 5097 3584 5394 3201 
Q 5691 2819 5691 2113 
L 5691 0 
L 5113 0 
L 5113 2094 
Q 5113 2597 4934 2840 
Q 4756 3084 4391 3084 
Q 3944 3084 3684 2787 
Q 3425 2491 3425 1978 
L 3425 0 
L 2847 0 
L 2847 2094 
Q 2847 2600 2669 2842 
Q 2491 3084 2119 3084 
Q 1678 3084 1418 2786 
Q 1159 2488 1159 1978 
L 1159 0 
L 581 0 
L 581 3500 
L 1159 3500 
L 1159 2956 
Q 1356 3278 1631 3431 
Q 1906 3584 2284 3584 
Q 2666 3584 2933 3390 
Q 3200 3197 3328 2828 
z
" transform="scale(0.015625)"/>
       <path id="DejaVuSans-76" d="M 191 3500 
L 800 3500 
L 1894 563 
L 2988 3500 
L 3597 3500 
L 2284 0 
L 1503 0 
L 191 3500 
z
" transform="scale(0.015625)"/>
      </defs>
      <use xlink:href="#DejaVuSans-54"/>
      <use xlink:href="#DejaVuSans-4b" x="61.083984"/>
      <use xlink:href="#DejaVuSans-31" x="126.660156"/>
      <use xlink:href="#DejaVuSans-30" x="190.283203"/>
      <use xlink:href="#DejaVuSans-5f" x="253.90625"/>
      <use xlink:href="#DejaVuSans-34" x="303.90625"/>
      <use xlink:href="#DejaVuSans-39" x="367.529297"/>
      <use xlink:href="#DejaVuSans-5f" x="431.152344"/>
      <use xlink:href="#DejaVuSans-54" x="481.152344"/>
      <use xlink:href="#DejaVuSans-31" x="542.236328"/>
      <use xlink:href="#DejaVuSans-5f" x="605.859375"/>
      <use xlink:href="#DejaVuSans-31" x="655.859375"/>
      <use xlink:href="#DejaVuSans-20" x="719.482422"/>
      <use xlink:href="#DejaVuSans-2d" x="751.269531"/>
      <use xlink:href="#DejaVuSans-20" x="787.353516"/>
      <use xlink:href="#DejaVuSans-69" x="819.140625"/>
      <use xlink:href="#DejaVuSans-6c" x="846.923828"/>
      <use xlink:href="#DejaVuSans-6c" x="874.707031"/>
      <use xlink:href="#DejaVuSans-75" x="902.490234"/>
      <use xlink:href="#DejaVuSans-6d" x="965.869141"/>
      <use xlink:href="#DejaVuSans-69" x="1063.28125"/>
      <use xlink:href="#DejaVuSans-6e" x="1091.064453"/>
      <use xlink:href="#DejaVuSans-61" x="1154.443359"/>
      <use xlink:href="#DejaVuSans-5f" x="1215.722656"/>
      <use xlink:href="#DejaVuSans-75" x="1265.722656"/>
      <use xlink:href="#DejaVuSans-6e" x="1329.101562"/>
      <use xlink:href="#DejaVuSans-69" x="1392.480469"/>
      <use xlink:href="#DejaVuSans-76" x="1420.263672"/>
      <use xlink:href="#DejaVuSans-65" x="1479.443359"/>
      <use xlink:href="#DejaVuSans-72" x="1540.966797"/>
      <use xlink:href="#DejaVuSans-73" x="1582.080078"/>
      <use xlink:href="#DejaVuSans-61" x="1634.179688"/>
      <use xlink:href="#DejaVuSans-6c" x="1695.458984"/>
      <use xlink:href="#DejaVuSans-5f" x="1723.242188"/>
      <use xlink:href="#DejaVuSans-61" x="1773.242188"/>
      <use xlink:href="#DejaVuSans-64" x="1834.521484"/>
      <use xlink:href="#DejaVuSans-61" x="1897.998047"/>
      <use xlink:href="#DejaVuSans-70" x="1959.277344"/>
      <use xlink:href="#DejaVuSans-74" x="2022.753906"/>
      <use xlink:href="#DejaVuSans-65" x="2061.962891"/>
      <use xlink:href="#DejaVuSans-72" x="2123.486328"/>
     </g>
    </g>
    <g id="line2d_19">
     <path d="M 40.168125 315.455394 
L 48.168125 315.455394 
L 56.168125 315.455394 
" style="fill: none; stroke: #434348; stroke-linecap: square"/>
    </g>
    <g id="text_19">
     <!-- TK10_49_T1_2 - illumina_universal_adapter -->
     <g transform="translate(62.568125 318.255394) scale(0.08 -0.08)">
      <use xlink:href="#DejaVuSans-54"/>
      <use xlink:href="#DejaVuSans-4b" x="61.083984"/>
      <use xlink:href="#DejaVuSans-31" x="126.660156"/>
      <use xlink:href="#DejaVuSans-30" x="190.283203"/>
      <use xlink:href="#DejaVuSans-5f" x="253.90625"/>
      <use xlink:href="#DejaVuSans-34" x="303.90625"/>
      <use xlink:href="#DejaVuSans-39" x="367.529297"/>
      <use xlink:href="#DejaVuSans-5f" x="431.152344"/>
      <use xlink:href="#DejaVuSans-54" x="481.152344"/>
      <use xlink:href="#DejaVuSans-31" x="542.236328"/>
      <use xlink:href="#DejaVuSans-5f" x="605.859375"/>
      <use xlink:href="#DejaVuSans-32" x="655.859375"/>
      <use xlink:href="#DejaVuSans-20" x="719.482422"/>
      <use xlink:href="#DejaVuSans-2d" x="751.269531"/>
      <use xlink:href="#DejaVuSans-20" x="787.353516"/>
      <use xlink:href="#DejaVuSans-69" x="819.140625"/>
      <use xlink:href="#DejaVuSans-6c" x="846.923828"/>
      <use xlink:href="#DejaVuSans-6c" x="874.707031"/>
      <use xlink:href="#DejaVuSans-75" x="902.490234"/>
      <use xlink:href="#DejaVuSans-6d" x="965.869141"/>
      <use xlink:href="#DejaVuSans-69" x="1063.28125"/>
      <use xlink:href="#DejaVuSans-6e" x="1091.064453"/>
      <use xlink:href="#DejaVuSans-61" x="1154.443359"/>
      <use xlink:href="#DejaVuSans-5f" x="1215.722656"/>
      <use xlink:href="#DejaVuSans-75" x="1265.722656"/>
      <use xlink:href="#DejaVuSans-6e" x="1329.101562"/>
      <use xlink:href="#DejaVuSans-69" x="1392.480469"/>
      <use xlink:href="#DejaVuSans-76" x="1420.263672"/>
      <use xlink:href="#DejaVuSans-65" x="1479.443359"/>
      <use xlink:href="#DejaVuSans-72" x="1540.966797"/>
      <use xlink:href="#DejaVuSans-73" x="1582.080078"/>
      <use xlink:href="#DejaVuSans-61" x="1634.179688"/>
      <use xlink:href="#DejaVuSans-6c" x="1695.458984"/>
      <use xlink:href="#DejaVuSans-5f" x="1723.242188"/>
      <use xlink:href="#DejaVuSans-61" x="1773.242188"/>
      <use xlink:href="#DejaVuSans-64" x="1834.521484"/>
      <use xlink:href="#DejaVuSans-61" x="1897.998047"/>
      <use xlink:href="#DejaVuSans-70" x="1959.277344"/>
      <use xlink:href="#DejaVuSans-74" x="2022.753906"/>
      <use xlink:href="#DejaVuSans-65" x="2061.962891"/>
      <use xlink:href="#DejaVuSans-72" x="2123.486328"/>
     </g>
    </g>
    <g id="line2d_20">
     <path d="M 209.271563 303.490394 
L 217.271563 303.490394 
L 225.271563 303.490394 
" style="fill: none; stroke: #90ed7d; stroke-linecap: square"/>
    </g>
    <g id="text_20">
     <!-- TK10_50_T1_1 - illumina_universal_adapter -->
     <g transform="translate(231.671563 306.290394) scale(0.08 -0.08)">
      <use xlink:href="#DejaVuSans-54"/>
      <use xlink:href="#DejaVuSans-4b" x="61.083984"/>
      <use xlink:href="#DejaVuSans-31" x="126.660156"/>
      <use xlink:href="#DejaVuSans-30" x="190.283203"/>
      <use xlink:href="#DejaVuSans-5f" x="253.90625"/>
      <use xlink:href="#DejaVuSans-35" x="303.90625"/>
      <use xlink:href="#DejaVuSans-30" x="367.529297"/>
      <use xlink:href="#DejaVuSans-5f" x="431.152344"/>
      <use xlink:href="#DejaVuSans-54" x="481.152344"/>
      <use xlink:href="#DejaVuSans-31" x="542.236328"/>
      <use xlink:href="#DejaVuSans-5f" x="605.859375"/>
      <use xlink:href="#DejaVuSans-31" x="655.859375"/>
      <use xlink:href="#DejaVuSans-20" x="719.482422"/>
      <use xlink:href="#DejaVuSans-2d" x="751.269531"/>
      <use xlink:href="#DejaVuSans-20" x="787.353516"/>
      <use xlink:href="#DejaVuSans-69" x="819.140625"/>
      <use xlink:href="#DejaVuSans-6c" x="846.923828"/>
      <use xlink:href="#DejaVuSans-6c" x="874.707031"/>
      <use xlink:href="#DejaVuSans-75" x="902.490234"/>
      <use xlink:href="#DejaVuSans-6d" x="965.869141"/>
      <use xlink:href="#DejaVuSans-69" x="1063.28125"/>
      <use xlink:href="#DejaVuSans-6e" x="1091.064453"/>
      <use xlink:href="#DejaVuSans-61" x="1154.443359"/>
      <use xlink:href="#DejaVuSans-5f" x="1215.722656"/>
      <use xlink:href="#DejaVuSans-75" x="1265.722656"/>
      <use xlink:href="#DejaVuSans-6e" x="1329.101562"/>
      <use xlink:href="#DejaVuSans-69" x="1392.480469"/>
      <use xlink:href="#DejaVuSans-76" x="1420.263672"/>
      <use xlink:href="#DejaVuSans-65" x="1479.443359"/>
      <use xlink:href="#DejaVuSans-72" x="1540.966797"/>
      <use xlink:href="#DejaVuSans-73" x="1582.080078"/>
      <use xlink:href="#DejaVuSans-61" x="1634.179688"/>
      <use xlink:href="#DejaVuSans-6c" x="1695.458984"/>
      <use xlink:href="#DejaVuSans-5f" x="1723.242188"/>
      <use xlink:href="#DejaVuSans-61" x="1773.242188"/>
      <use xlink:href="#DejaVuSans-64" x="1834.521484"/>
      <use xlink:href="#DejaVuSans-61" x="1897.998047"/>
      <use xlink:href="#DejaVuSans-70" x="1959.277344"/>
      <use xlink:href="#DejaVuSans-74" x="2022.753906"/>
      <use xlink:href="#DejaVuSans-65" x="2061.962891"/>
      <use xlink:href="#DejaVuSans-72" x="2123.486328"/>
     </g>
    </g>
    <g id="line2d_21">
     <path d="M 209.271563 315.455394 
L 217.271563 315.455394 
L 225.271563 315.455394 
" style="fill: none; stroke: #f7a35c; stroke-linecap: square"/>
    </g>
    <g id="text_21">
     <!-- TK10_50_T1_1 - nextera_transposase_sequence -->
     <g transform="translate(231.671563 318.255394) scale(0.08 -0.08)">
      <defs>
       <path id="DejaVuSans-78" d="M 3513 3500 
L 2247 1797 
L 3578 0 
L 2900 0 
L 1881 1375 
L 863 0 
L 184 0 
L 1544 1831 
L 300 3500 
L 978 3500 
L 1906 2253 
L 2834 3500 
L 3513 3500 
z
" transform="scale(0.015625)"/>
      </defs>
      <use xlink:href="#DejaVuSans-54"/>
      <use xlink:href="#DejaVuSans-4b" x="61.083984"/>
      <use xlink:href="#DejaVuSans-31" x="126.660156"/>
      <use xlink:href="#DejaVuSans-30" x="190.283203"/>
      <use xlink:href="#DejaVuSans-5f" x="253.90625"/>
      <use xlink:href="#DejaVuSans-35" x="303.90625"/>
      <use xlink:href="#DejaVuSans-30" x="367.529297"/>
      <use xlink:href="#DejaVuSans-5f" x="431.152344"/>
      <use xlink:href="#DejaVuSans-54" x="481.152344"/>
      <use xlink:href="#DejaVuSans-31" x="542.236328"/>
      <use xlink:href="#DejaVuSans-5f" x="605.859375"/>
      <use xlink:href="#DejaVuSans-31" x="655.859375"/>
      <use xlink:href="#DejaVuSans-20" x="719.482422"/>
      <use xlink:href="#DejaVuSans-2d" x="751.269531"/>
      <use xlink:href="#DejaVuSans-20" x="787.353516"/>
      <use xlink:href="#DejaVuSans-6e" x="819.140625"/>
      <use xlink:href="#DejaVuSans-65" x="882.519531"/>
      <use xlink:href="#DejaVuSans-78" x="942.292969"/>
      <use xlink:href="#DejaVuSans-74" x="1001.472656"/>
      <use xlink:href="#DejaVuSans-65" x="1040.681641"/>
      <use xlink:href="#DejaVuSans-72" x="1102.205078"/>
      <use xlink:href="#DejaVuSans-61" x="1143.318359"/>
      <use xlink:href="#DejaVuSans-5f" x="1204.597656"/>
      <use xlink:href="#DejaVuSans-74" x="1254.597656"/>
      <use xlink:href="#DejaVuSans-72" x="1293.806641"/>
      <use xlink:href="#DejaVuSans-61" x="1334.919922"/>
      <use xlink:href="#DejaVuSans-6e" x="1396.199219"/>
      <use xlink:href="#DejaVuSans-73" x="1459.578125"/>
      <use xlink:href="#DejaVuSans-70" x="1511.677734"/>
      <use xlink:href="#DejaVuSans-6f" x="1575.154297"/>
      <use xlink:href="#DejaVuSans-73" x="1636.335938"/>
      <use xlink:href="#DejaVuSans-61" x="1688.435547"/>
      <use xlink:href="#DejaVuSans-73" x="1749.714844"/>
      <use xlink:href="#DejaVuSans-65" x="1801.814453"/>
      <use xlink:href="#DejaVuSans-5f" x="1863.337891"/>
      <use xlink:href="#DejaVuSans-73" x="1913.337891"/>
      <use xlink:href="#DejaVuSans-65" x="1965.4375"/>
      <use xlink:href="#DejaVuSans-71" x="2026.960938"/>
      <use xlink:href="#DejaVuSans-75" x="2090.4375"/>
      <use xlink:href="#DejaVuSans-65" x="2153.816406"/>
      <use xlink:href="#DejaVuSans-6e" x="2215.339844"/>
      <use xlink:href="#DejaVuSans-63" x="2278.71875"/>
      <use xlink:href="#DejaVuSans-65" x="2333.699219"/>
     </g>
    </g>
    <g id="line2d_22">
     <path d="M 396.8275 303.490394 
L 404.8275 303.490394 
L 412.8275 303.490394 
" style="fill: none; stroke: #8085e9; stroke-linecap: square"/>
    </g>
    <g id="text_22">
     <!-- TK10_50_T1_2 - illumina_universal_adapter -->
     <g transform="translate(419.2275 306.290394) scale(0.08 -0.08)">
      <use xlink:href="#DejaVuSans-54"/>
      <use xlink:href="#DejaVuSans-4b" x="61.083984"/>
      <use xlink:href="#DejaVuSans-31" x="126.660156"/>
      <use xlink:href="#DejaVuSans-30" x="190.283203"/>
      <use xlink:href="#DejaVuSans-5f" x="253.90625"/>
      <use xlink:href="#DejaVuSans-35" x="303.90625"/>
      <use xlink:href="#DejaVuSans-30" x="367.529297"/>
      <use xlink:href="#DejaVuSans-5f" x="431.152344"/>
      <use xlink:href="#DejaVuSans-54" x="481.152344"/>
      <use xlink:href="#DejaVuSans-31" x="542.236328"/>
      <use xlink:href="#DejaVuSans-5f" x="605.859375"/>
      <use xlink:href="#DejaVuSans-32" x="655.859375"/>
      <use xlink:href="#DejaVuSans-20" x="719.482422"/>
      <use xlink:href="#DejaVuSans-2d" x="751.269531"/>
      <use xlink:href="#DejaVuSans-20" x="787.353516"/>
      <use xlink:href="#DejaVuSans-69" x="819.140625"/>
      <use xlink:href="#DejaVuSans-6c" x="846.923828"/>
      <use xlink:href="#DejaVuSans-6c" x="874.707031"/>
      <use xlink:href="#DejaVuSans-75" x="902.490234"/>
      <use xlink:href="#DejaVuSans-6d" x="965.869141"/>
      <use xlink:href="#DejaVuSans-69" x="1063.28125"/>
      <use xlink:href="#DejaVuSans-6e" x="1091.064453"/>
      <use xlink:href="#DejaVuSans-61" x="1154.443359"/>
      <use xlink:href="#DejaVuSans-5f" x="1215.722656"/>
      <use xlink:href="#DejaVuSans-75" x="1265.722656"/>
      <use xlink:href="#DejaVuSans-6e" x="1329.101562"/>
      <use xlink:href="#DejaVuSans-69" x="1392.480469"/>
      <use xlink:href="#DejaVuSans-76" x="1420.263672"/>
      <use xlink:href="#DejaVuSans-65" x="1479.443359"/>
      <use xlink:href="#DejaVuSans-72" x="1540.966797"/>
      <use xlink:href="#DejaVuSans-73" x="1582.080078"/>
      <use xlink:href="#DejaVuSans-61" x="1634.179688"/>
      <use xlink:href="#DejaVuSans-6c" x="1695.458984"/>
      <use xlink:href="#DejaVuSans-5f" x="1723.242188"/>
      <use xlink:href="#DejaVuSans-61" x="1773.242188"/>
      <use xlink:href="#DejaVuSans-64" x="1834.521484"/>
      <use xlink:href="#DejaVuSans-61" x="1897.998047"/>
      <use xlink:href="#DejaVuSans-70" x="1959.277344"/>
      <use xlink:href="#DejaVuSans-74" x="2022.753906"/>
      <use xlink:href="#DejaVuSans-65" x="2061.962891"/>
      <use xlink:href="#DejaVuSans-72" x="2123.486328"/>
     </g>
    </g>
    <g id="line2d_23">
     <path d="M 396.8275 315.455394 
L 404.8275 315.455394 
L 412.8275 315.455394 
" style="fill: none; stroke: #f15c80; stroke-linecap: square"/>
    </g>
    <g id="text_23">
     <!-- TK10_50_T1_2 - nextera_transposase_sequence -->
     <g transform="translate(419.2275 318.255394) scale(0.08 -0.08)">
      <use xlink:href="#DejaVuSans-54"/>
      <use xlink:href="#DejaVuSans-4b" x="61.083984"/>
      <use xlink:href="#DejaVuSans-31" x="126.660156"/>
      <use xlink:href="#DejaVuSans-30" x="190.283203"/>
      <use xlink:href="#DejaVuSans-5f" x="253.90625"/>
      <use xlink:href="#DejaVuSans-35" x="303.90625"/>
      <use xlink:href="#DejaVuSans-30" x="367.529297"/>
      <use xlink:href="#DejaVuSans-5f" x="431.152344"/>
      <use xlink:href="#DejaVuSans-54" x="481.152344"/>
      <use xlink:href="#DejaVuSans-31" x="542.236328"/>
      <use xlink:href="#DejaVuSans-5f" x="605.859375"/>
      <use xlink:href="#DejaVuSans-32" x="655.859375"/>
      <use xlink:href="#DejaVuSans-20" x="719.482422"/>
      <use xlink:href="#DejaVuSans-2d" x="751.269531"/>
      <use xlink:href="#DejaVuSans-20" x="787.353516"/>
      <use xlink:href="#DejaVuSans-6e" x="819.140625"/>
      <use xlink:href="#DejaVuSans-65" x="882.519531"/>
      <use xlink:href="#DejaVuSans-78" x="942.292969"/>
      <use xlink:href="#DejaVuSans-74" x="1001.472656"/>
      <use xlink:href="#DejaVuSans-65" x="1040.681641"/>
      <use xlink:href="#DejaVuSans-72" x="1102.205078"/>
      <use xlink:href="#DejaVuSans-61" x="1143.318359"/>
      <use xlink:href="#DejaVuSans-5f" x="1204.597656"/>
      <use xlink:href="#DejaVuSans-74" x="1254.597656"/>
      <use xlink:href="#DejaVuSans-72" x="1293.806641"/>
      <use xlink:href="#DejaVuSans-61" x="1334.919922"/>
      <use xlink:href="#DejaVuSans-6e" x="1396.199219"/>
      <use xlink:href="#DejaVuSans-73" x="1459.578125"/>
      <use xlink:href="#DejaVuSans-70" x="1511.677734"/>
      <use xlink:href="#DejaVuSans-6f" x="1575.154297"/>
      <use xlink:href="#DejaVuSans-73" x="1636.335938"/>
      <use xlink:href="#DejaVuSans-61" x="1688.435547"/>
      <use xlink:href="#DejaVuSans-73" x="1749.714844"/>
      <use xlink:href="#DejaVuSans-65" x="1801.814453"/>
      <use xlink:href="#DejaVuSans-5f" x="1863.337891"/>
      <use xlink:href="#DejaVuSans-73" x="1913.337891"/>
      <use xlink:href="#DejaVuSans-65" x="1965.4375"/>
      <use xlink:href="#DejaVuSans-71" x="2026.960938"/>
      <use xlink:href="#DejaVuSans-75" x="2090.4375"/>
      <use xlink:href="#DejaVuSans-65" x="2153.816406"/>
      <use xlink:href="#DejaVuSans-6e" x="2215.339844"/>
      <use xlink:href="#DejaVuSans-63" x="2278.71875"/>
      <use xlink:href="#DejaVuSans-65" x="2333.699219"/>
     </g>
    </g>
    <g id="line2d_24">
     <path d="M 584.383438 303.490394 
L 592.383438 303.490394 
L 600.383438 303.490394 
" style="fill: none; stroke: #e4d354; stroke-linecap: square"/>
    </g>
    <g id="text_24">
     <!-- TK10_51_T1_1 - illumina_universal_adapter -->
     <g transform="translate(606.783438 306.290394) scale(0.08 -0.08)">
      <use xlink:href="#DejaVuSans-54"/>
      <use xlink:href="#DejaVuSans-4b" x="61.083984"/>
      <use xlink:href="#DejaVuSans-31" x="126.660156"/>
      <use xlink:href="#DejaVuSans-30" x="190.283203"/>
      <use xlink:href="#DejaVuSans-5f" x="253.90625"/>
      <use xlink:href="#DejaVuSans-35" x="303.90625"/>
      <use xlink:href="#DejaVuSans-31" x="367.529297"/>
      <use xlink:href="#DejaVuSans-5f" x="431.152344"/>
      <use xlink:href="#DejaVuSans-54" x="481.152344"/>
      <use xlink:href="#DejaVuSans-31" x="542.236328"/>
      <use xlink:href="#DejaVuSans-5f" x="605.859375"/>
      <use xlink:href="#DejaVuSans-31" x="655.859375"/>
      <use xlink:href="#DejaVuSans-20" x="719.482422"/>
      <use xlink:href="#DejaVuSans-2d" x="751.269531"/>
      <use xlink:href="#DejaVuSans-20" x="787.353516"/>
      <use xlink:href="#DejaVuSans-69" x="819.140625"/>
      <use xlink:href="#DejaVuSans-6c" x="846.923828"/>
      <use xlink:href="#DejaVuSans-6c" x="874.707031"/>
      <use xlink:href="#DejaVuSans-75" x="902.490234"/>
      <use xlink:href="#DejaVuSans-6d" x="965.869141"/>
      <use xlink:href="#DejaVuSans-69" x="1063.28125"/>
      <use xlink:href="#DejaVuSans-6e" x="1091.064453"/>
      <use xlink:href="#DejaVuSans-61" x="1154.443359"/>
      <use xlink:href="#DejaVuSans-5f" x="1215.722656"/>
      <use xlink:href="#DejaVuSans-75" x="1265.722656"/>
      <use xlink:href="#DejaVuSans-6e" x="1329.101562"/>
      <use xlink:href="#DejaVuSans-69" x="1392.480469"/>
      <use xlink:href="#DejaVuSans-76" x="1420.263672"/>
      <use xlink:href="#DejaVuSans-65" x="1479.443359"/>
      <use xlink:href="#DejaVuSans-72" x="1540.966797"/>
      <use xlink:href="#DejaVuSans-73" x="1582.080078"/>
      <use xlink:href="#DejaVuSans-61" x="1634.179688"/>
      <use xlink:href="#DejaVuSans-6c" x="1695.458984"/>
      <use xlink:href="#DejaVuSans-5f" x="1723.242188"/>
      <use xlink:href="#DejaVuSans-61" x="1773.242188"/>
      <use xlink:href="#DejaVuSans-64" x="1834.521484"/>
      <use xlink:href="#DejaVuSans-61" x="1897.998047"/>
      <use xlink:href="#DejaVuSans-70" x="1959.277344"/>
      <use xlink:href="#DejaVuSans-74" x="2022.753906"/>
      <use xlink:href="#DejaVuSans-65" x="2061.962891"/>
      <use xlink:href="#DejaVuSans-72" x="2123.486328"/>
     </g>
    </g>
    <g id="line2d_25">
     <path d="M 584.383438 315.455394 
L 592.383438 315.455394 
L 600.383438 315.455394 
" style="fill: none; stroke: #2b908f; stroke-linecap: square"/>
    </g>
    <g id="text_25">
     <!-- TK10_51_T1_1 - nextera_transposase_sequence -->
     <g transform="translate(606.783438 318.255394) scale(0.08 -0.08)">
      <use xlink:href="#DejaVuSans-54"/>
      <use xlink:href="#DejaVuSans-4b" x="61.083984"/>
      <use xlink:href="#DejaVuSans-31" x="126.660156"/>
      <use xlink:href="#DejaVuSans-30" x="190.283203"/>
      <use xlink:href="#DejaVuSans-5f" x="253.90625"/>
      <use xlink:href="#DejaVuSans-35" x="303.90625"/>
      <use xlink:href="#DejaVuSans-31" x="367.529297"/>
      <use xlink:href="#DejaVuSans-5f" x="431.152344"/>
      <use xlink:href="#DejaVuSans-54" x="481.152344"/>
      <use xlink:href="#DejaVuSans-31" x="542.236328"/>
      <use xlink:href="#DejaVuSans-5f" x="605.859375"/>
      <use xlink:href="#DejaVuSans-31" x="655.859375"/>
      <use xlink:href="#DejaVuSans-20" x="719.482422"/>
      <use xlink:href="#DejaVuSans-2d" x="751.269531"/>
      <use xlink:href="#DejaVuSans-20" x="787.353516"/>
      <use xlink:href="#DejaVuSans-6e" x="819.140625"/>
      <use xlink:href="#DejaVuSans-65" x="882.519531"/>
      <use xlink:href="#DejaVuSans-78" x="942.292969"/>
      <use xlink:href="#DejaVuSans-74" x="1001.472656"/>
      <use xlink:href="#DejaVuSans-65" x="1040.681641"/>
      <use xlink:href="#DejaVuSans-72" x="1102.205078"/>
      <use xlink:href="#DejaVuSans-61" x="1143.318359"/>
      <use xlink:href="#DejaVuSans-5f" x="1204.597656"/>
      <use xlink:href="#DejaVuSans-74" x="1254.597656"/>
      <use xlink:href="#DejaVuSans-72" x="1293.806641"/>
      <use xlink:href="#DejaVuSans-61" x="1334.919922"/>
      <use xlink:href="#DejaVuSans-6e" x="1396.199219"/>
      <use xlink:href="#DejaVuSans-73" x="1459.578125"/>
      <use xlink:href="#DejaVuSans-70" x="1511.677734"/>
      <use xlink:href="#DejaVuSans-6f" x="1575.154297"/>
      <use xlink:href="#DejaVuSans-73" x="1636.335938"/>
      <use xlink:href="#DejaVuSans-61" x="1688.435547"/>
      <use xlink:href="#DejaVuSans-73" x="1749.714844"/>
      <use xlink:href="#DejaVuSans-65" x="1801.814453"/>
      <use xlink:href="#DejaVuSans-5f" x="1863.337891"/>
      <use xlink:href="#DejaVuSans-73" x="1913.337891"/>
      <use xlink:href="#DejaVuSans-65" x="1965.4375"/>
      <use xlink:href="#DejaVuSans-71" x="2026.960938"/>
      <use xlink:href="#DejaVuSans-75" x="2090.4375"/>
      <use xlink:href="#DejaVuSans-65" x="2153.816406"/>
      <use xlink:href="#DejaVuSans-6e" x="2215.339844"/>
      <use xlink:href="#DejaVuSans-63" x="2278.71875"/>
      <use xlink:href="#DejaVuSans-65" x="2333.699219"/>
     </g>
    </g>
    <g id="line2d_26">
     <path d="M 771.939375 303.490394 
L 779.939375 303.490394 
L 787.939375 303.490394 
" style="fill: none; stroke: #f45b5b; stroke-linecap: square"/>
    </g>
    <g id="text_26">
     <!-- TK10_51_T1_2 - illumina_universal_adapter -->
     <g transform="translate(794.339375 306.290394) scale(0.08 -0.08)">
      <use xlink:href="#DejaVuSans-54"/>
      <use xlink:href="#DejaVuSans-4b" x="61.083984"/>
      <use xlink:href="#DejaVuSans-31" x="126.660156"/>
      <use xlink:href="#DejaVuSans-30" x="190.283203"/>
      <use xlink:href="#DejaVuSans-5f" x="253.90625"/>
      <use xlink:href="#DejaVuSans-35" x="303.90625"/>
      <use xlink:href="#DejaVuSans-31" x="367.529297"/>
      <use xlink:href="#DejaVuSans-5f" x="431.152344"/>
      <use xlink:href="#DejaVuSans-54" x="481.152344"/>
      <use xlink:href="#DejaVuSans-31" x="542.236328"/>
      <use xlink:href="#DejaVuSans-5f" x="605.859375"/>
      <use xlink:href="#DejaVuSans-32" x="655.859375"/>
      <use xlink:href="#DejaVuSans-20" x="719.482422"/>
      <use xlink:href="#DejaVuSans-2d" x="751.269531"/>
      <use xlink:href="#DejaVuSans-20" x="787.353516"/>
      <use xlink:href="#DejaVuSans-69" x="819.140625"/>
      <use xlink:href="#DejaVuSans-6c" x="846.923828"/>
      <use xlink:href="#DejaVuSans-6c" x="874.707031"/>
      <use xlink:href="#DejaVuSans-75" x="902.490234"/>
      <use xlink:href="#DejaVuSans-6d" x="965.869141"/>
      <use xlink:href="#DejaVuSans-69" x="1063.28125"/>
      <use xlink:href="#DejaVuSans-6e" x="1091.064453"/>
      <use xlink:href="#DejaVuSans-61" x="1154.443359"/>
      <use xlink:href="#DejaVuSans-5f" x="1215.722656"/>
      <use xlink:href="#DejaVuSans-75" x="1265.722656"/>
      <use xlink:href="#DejaVuSans-6e" x="1329.101562"/>
      <use xlink:href="#DejaVuSans-69" x="1392.480469"/>
      <use xlink:href="#DejaVuSans-76" x="1420.263672"/>
      <use xlink:href="#DejaVuSans-65" x="1479.443359"/>
      <use xlink:href="#DejaVuSans-72" x="1540.966797"/>
      <use xlink:href="#DejaVuSans-73" x="1582.080078"/>
      <use xlink:href="#DejaVuSans-61" x="1634.179688"/>
      <use xlink:href="#DejaVuSans-6c" x="1695.458984"/>
      <use xlink:href="#DejaVuSans-5f" x="1723.242188"/>
      <use xlink:href="#DejaVuSans-61" x="1773.242188"/>
      <use xlink:href="#DejaVuSans-64" x="1834.521484"/>
      <use xlink:href="#DejaVuSans-61" x="1897.998047"/>
      <use xlink:href="#DejaVuSans-70" x="1959.277344"/>
      <use xlink:href="#DejaVuSans-74" x="2022.753906"/>
      <use xlink:href="#DejaVuSans-65" x="2061.962891"/>
      <use xlink:href="#DejaVuSans-72" x="2123.486328"/>
     </g>
    </g>
    <g id="line2d_27">
     <path d="M 771.939375 315.455394 
L 779.939375 315.455394 
L 787.939375 315.455394 
" style="fill: none; stroke: #91e8e1; stroke-linecap: square"/>
    </g>
    <g id="text_27">
     <!-- TK10_51_T1_2 - nextera_transposase_sequence -->
     <g transform="translate(794.339375 318.255394) scale(0.08 -0.08)">
      <use xlink:href="#DejaVuSans-54"/>
      <use xlink:href="#DejaVuSans-4b" x="61.083984"/>
      <use xlink:href="#DejaVuSans-31" x="126.660156"/>
      <use xlink:href="#DejaVuSans-30" x="190.283203"/>
      <use xlink:href="#DejaVuSans-5f" x="253.90625"/>
      <use xlink:href="#DejaVuSans-35" x="303.90625"/>
      <use xlink:href="#DejaVuSans-31" x="367.529297"/>
      <use xlink:href="#DejaVuSans-5f" x="431.152344"/>
      <use xlink:href="#DejaVuSans-54" x="481.152344"/>
      <use xlink:href="#DejaVuSans-31" x="542.236328"/>
      <use xlink:href="#DejaVuSans-5f" x="605.859375"/>
      <use xlink:href="#DejaVuSans-32" x="655.859375"/>
      <use xlink:href="#DejaVuSans-20" x="719.482422"/>
      <use xlink:href="#DejaVuSans-2d" x="751.269531"/>
      <use xlink:href="#DejaVuSans-20" x="787.353516"/>
      <use xlink:href="#DejaVuSans-6e" x="819.140625"/>
      <use xlink:href="#DejaVuSans-65" x="882.519531"/>
      <use xlink:href="#DejaVuSans-78" x="942.292969"/>
      <use xlink:href="#DejaVuSans-74" x="1001.472656"/>
      <use xlink:href="#DejaVuSans-65" x="1040.681641"/>
      <use xlink:href="#DejaVuSans-72" x="1102.205078"/>
      <use xlink:href="#DejaVuSans-61" x="1143.318359"/>
      <use xlink:href="#DejaVuSans-5f" x="1204.597656"/>
      <use xlink:href="#DejaVuSans-74" x="1254.597656"/>
      <use xlink:href="#DejaVuSans-72" x="1293.806641"/>
      <use xlink:href="#DejaVuSans-61" x="1334.919922"/>
      <use xlink:href="#DejaVuSans-6e" x="1396.199219"/>
      <use xlink:href="#DejaVuSans-73" x="1459.578125"/>
      <use xlink:href="#DejaVuSans-70" x="1511.677734"/>
      <use xlink:href="#DejaVuSans-6f" x="1575.154297"/>
      <use xlink:href="#DejaVuSans-73" x="1636.335938"/>
      <use xlink:href="#DejaVuSans-61" x="1688.435547"/>
      <use xlink:href="#DejaVuSans-73" x="1749.714844"/>
      <use xlink:href="#DejaVuSans-65" x="1801.814453"/>
      <use xlink:href="#DejaVuSans-5f" x="1863.337891"/>
      <use xlink:href="#DejaVuSans-73" x="1913.337891"/>
      <use xlink:href="#DejaVuSans-65" x="1965.4375"/>
      <use xlink:href="#DejaVuSans-71" x="2026.960938"/>
      <use xlink:href="#DejaVuSans-75" x="2090.4375"/>
      <use xlink:href="#DejaVuSans-65" x="2153.816406"/>
      <use xlink:href="#DejaVuSans-6e" x="2215.339844"/>
      <use xlink:href="#DejaVuSans-63" x="2278.71875"/>
      <use xlink:href="#DejaVuSans-65" x="2333.699219"/>
     </g>
    </g>
   </g>
  </g>
 </g>
 <defs>
  <clipPath id="pb1923bc4f3">
   <rect x="32.968125" y="31.48286" width="960.19" height="242.5072"/>
  </clipPath>
 </defs>
</svg>
