<?xml version="1.0" encoding="utf-8" standalone="no"?>
<!DOCTYPE svg PUBLIC "-//W3C//DTD SVG 1.1//EN"
  "http://www.w3.org/Graphics/SVG/1.1/DTD/svg11.dtd">
<svg xmlns:xlink="http://www.w3.org/1999/xlink" width="1000.280625pt" height="330.541644pt" viewBox="0 0 1000.280625 330.541644" xmlns="http://www.w3.org/2000/svg" version="1.1">
 <metadata>
  <rdf:RDF xmlns:dc="http://purl.org/dc/elements/1.1/" xmlns:cc="http://creativecommons.org/ns#" xmlns:rdf="http://www.w3.org/1999/02/22-rdf-syntax-ns#">
   <cc:Work>
    <dc:type rdf:resource="http://purl.org/dc/dcmitype/StillImage"/>
    <dc:date>2023-11-28T12:11:16.146646</dc:date>
    <dc:format>image/svg+xml</dc:format>
    <dc:creator>
     <cc:Agent>
      <dc:title>Matplotlib v3.6.2, https://matplotlib.org/</dc:title>
     </cc:Agent>
    </dc:creator>
   </cc:Work>
  </rdf:RDF>
 </metadata>
 <defs>
  <style type="text/css">*{stroke-linejoin: round; stroke-linecap: butt}</style>
 </defs>
 <g id="figure_1">
  <g id="axes_1">
   <g id="patch_1">
    <path d="M 40.600625 273.99006 
L 985.445625 273.99006 
L 985.445625 31.48286 
L 40.600625 31.48286 
z
" style="fill: #ffffff"/>
   </g>
   <g id="matplotlib.axis_1">
    <g id="xtick_1">
     <g id="text_1">
      <!-- 0 -->
      <g transform="translate(38.055625 287.06881) scale(0.08 -0.08)">
       <defs>
        <path id="DejaVuSans-30" d="M 2034 4250 
Q 1547 4250 1301 3770 
Q 1056 3291 1056 2328 
Q 1056 1369 1301 889 
Q 1547 409 2034 409 
Q 2525 409 2770 889 
Q 3016 1369 3016 2328 
Q 3016 3291 2770 3770 
Q 2525 4250 2034 4250 
z
M 2034 4750 
Q 2819 4750 3233 4129 
Q 3647 3509 3647 2328 
Q 3647 1150 3233 529 
Q 2819 -91 2034 -91 
Q 1250 -91 836 529 
Q 422 1150 422 2328 
Q 422 3509 836 4129 
Q 1250 4750 2034 4750 
z
" transform="scale(0.015625)"/>
       </defs>
       <use xlink:href="#DejaVuSans-30"/>
      </g>
     </g>
    </g>
    <g id="xtick_2">
     <g id="text_2">
      <!-- 20 -->
      <g transform="translate(224.479625 287.06881) scale(0.08 -0.08)">
       <defs>
        <path id="DejaVuSans-32" d="M 1228 531 
L 3431 531 
L 3431 0 
L 469 0 
L 469 531 
Q 828 903 1448 1529 
Q 2069 2156 2228 2338 
Q 2531 2678 2651 2914 
Q 2772 3150 2772 3378 
Q 2772 3750 2511 3984 
Q 2250 4219 1831 4219 
Q 1534 4219 1204 4116 
Q 875 4013 500 3803 
L 500 4441 
Q 881 4594 1212 4672 
Q 1544 4750 1819 4750 
Q 2544 4750 2975 4387 
Q 3406 4025 3406 3419 
Q 3406 3131 3298 2873 
Q 3191 2616 2906 2266 
Q 2828 2175 2409 1742 
Q 1991 1309 1228 531 
z
" transform="scale(0.015625)"/>
       </defs>
       <use xlink:href="#DejaVuSans-32"/>
       <use xlink:href="#DejaVuSans-30" x="63.623047"/>
      </g>
     </g>
    </g>
    <g id="xtick_3">
     <g id="text_3">
      <!-- 40 -->
      <g transform="translate(413.448625 287.06881) scale(0.08 -0.08)">
       <defs>
        <path id="DejaVuSans-34" d="M 2419 4116 
L 825 1625 
L 2419 1625 
L 2419 4116 
z
M 2253 4666 
L 3047 4666 
L 3047 1625 
L 3713 1625 
L 3713 1100 
L 3047 1100 
L 3047 0 
L 2419 0 
L 2419 1100 
L 313 1100 
L 313 1709 
L 2253 4666 
z
" transform="scale(0.015625)"/>
       </defs>
       <use xlink:href="#DejaVuSans-34"/>
       <use xlink:href="#DejaVuSans-30" x="63.623047"/>
      </g>
     </g>
    </g>
    <g id="xtick_4">
     <g id="text_4">
      <!-- 60 -->
      <g transform="translate(602.417625 287.06881) scale(0.08 -0.08)">
       <defs>
        <path id="DejaVuSans-36" d="M 2113 2584 
Q 1688 2584 1439 2293 
Q 1191 2003 1191 1497 
Q 1191 994 1439 701 
Q 1688 409 2113 409 
Q 2538 409 2786 701 
Q 3034 994 3034 1497 
Q 3034 2003 2786 2293 
Q 2538 2584 2113 2584 
z
M 3366 4563 
L 3366 3988 
Q 3128 4100 2886 4159 
Q 2644 4219 2406 4219 
Q 1781 4219 1451 3797 
Q 1122 3375 1075 2522 
Q 1259 2794 1537 2939 
Q 1816 3084 2150 3084 
Q 2853 3084 3261 2657 
Q 3669 2231 3669 1497 
Q 3669 778 3244 343 
Q 2819 -91 2113 -91 
Q 1303 -91 875 529 
Q 447 1150 447 2328 
Q 447 3434 972 4092 
Q 1497 4750 2381 4750 
Q 2619 4750 2861 4703 
Q 3103 4656 3366 4563 
z
" transform="scale(0.015625)"/>
       </defs>
       <use xlink:href="#DejaVuSans-36"/>
       <use xlink:href="#DejaVuSans-30" x="63.623047"/>
      </g>
     </g>
    </g>
    <g id="xtick_5">
     <g id="text_5">
      <!-- 80 -->
      <g transform="translate(791.386625 287.06881) scale(0.08 -0.08)">
       <defs>
        <path id="DejaVuSans-38" d="M 2034 2216 
Q 1584 2216 1326 1975 
Q 1069 1734 1069 1313 
Q 1069 891 1326 650 
Q 1584 409 2034 409 
Q 2484 409 2743 651 
Q 3003 894 3003 1313 
Q 3003 1734 2745 1975 
Q 2488 2216 2034 2216 
z
M 1403 2484 
Q 997 2584 770 2862 
Q 544 3141 544 3541 
Q 544 4100 942 4425 
Q 1341 4750 2034 4750 
Q 2731 4750 3128 4425 
Q 3525 4100 3525 3541 
Q 3525 3141 3298 2862 
Q 3072 2584 2669 2484 
Q 3125 2378 3379 2068 
Q 3634 1759 3634 1313 
Q 3634 634 3220 271 
Q 2806 -91 2034 -91 
Q 1263 -91 848 271 
Q 434 634 434 1313 
Q 434 1759 690 2068 
Q 947 2378 1403 2484 
z
M 1172 3481 
Q 1172 3119 1398 2916 
Q 1625 2713 2034 2713 
Q 2441 2713 2670 2916 
Q 2900 3119 2900 3481 
Q 2900 3844 2670 4047 
Q 2441 4250 2034 4250 
Q 1625 4250 1398 4047 
Q 1172 3844 1172 3481 
z
" transform="scale(0.015625)"/>
       </defs>
       <use xlink:href="#DejaVuSans-38"/>
       <use xlink:href="#DejaVuSans-30" x="63.623047"/>
      </g>
     </g>
    </g>
    <g id="xtick_6">
     <g id="text_6">
      <!-- 100 -->
      <g transform="translate(977.810625 287.06881) scale(0.08 -0.08)">
       <defs>
        <path id="DejaVuSans-31" d="M 794 531 
L 1825 531 
L 1825 4091 
L 703 3866 
L 703 4441 
L 1819 4666 
L 2450 4666 
L 2450 531 
L 3481 531 
L 3481 0 
L 794 0 
L 794 531 
z
" transform="scale(0.015625)"/>
       </defs>
       <use xlink:href="#DejaVuSans-31"/>
       <use xlink:href="#DejaVuSans-30" x="63.623047"/>
       <use xlink:href="#DejaVuSans-30" x="127.246094"/>
      </g>
     </g>
    </g>
    <g id="text_7">
     <!-- % GC -->
     <g transform="translate(499.317656 300.330997) scale(0.1 -0.1)">
      <defs>
       <path id="DejaVuSans-25" d="M 4653 2053 
Q 4381 2053 4226 1822 
Q 4072 1591 4072 1178 
Q 4072 772 4226 539 
Q 4381 306 4653 306 
Q 4919 306 5073 539 
Q 5228 772 5228 1178 
Q 5228 1588 5073 1820 
Q 4919 2053 4653 2053 
z
M 4653 2450 
Q 5147 2450 5437 2106 
Q 5728 1763 5728 1178 
Q 5728 594 5436 251 
Q 5144 -91 4653 -91 
Q 4153 -91 3862 251 
Q 3572 594 3572 1178 
Q 3572 1766 3864 2108 
Q 4156 2450 4653 2450 
z
M 1428 4353 
Q 1159 4353 1004 4120 
Q 850 3888 850 3481 
Q 850 3069 1003 2837 
Q 1156 2606 1428 2606 
Q 1700 2606 1854 2837 
Q 2009 3069 2009 3481 
Q 2009 3884 1853 4118 
Q 1697 4353 1428 4353 
z
M 4250 4750 
L 4750 4750 
L 1831 -91 
L 1331 -91 
L 4250 4750 
z
M 1428 4750 
Q 1922 4750 2215 4408 
Q 2509 4066 2509 3481 
Q 2509 2891 2217 2550 
Q 1925 2209 1428 2209 
Q 931 2209 642 2551 
Q 353 2894 353 3481 
Q 353 4063 643 4406 
Q 934 4750 1428 4750 
z
" transform="scale(0.015625)"/>
       <path id="DejaVuSans-20" transform="scale(0.015625)"/>
       <path id="DejaVuSans-47" d="M 3809 666 
L 3809 1919 
L 2778 1919 
L 2778 2438 
L 4434 2438 
L 4434 434 
Q 4069 175 3628 42 
Q 3188 -91 2688 -91 
Q 1594 -91 976 548 
Q 359 1188 359 2328 
Q 359 3472 976 4111 
Q 1594 4750 2688 4750 
Q 3144 4750 3555 4637 
Q 3966 4525 4313 4306 
L 4313 3634 
Q 3963 3931 3569 4081 
Q 3175 4231 2741 4231 
Q 1884 4231 1454 3753 
Q 1025 3275 1025 2328 
Q 1025 1384 1454 906 
Q 1884 428 2741 428 
Q 3075 428 3337 486 
Q 3600 544 3809 666 
z
" transform="scale(0.015625)"/>
       <path id="DejaVuSans-43" d="M 4122 4306 
L 4122 3641 
Q 3803 3938 3442 4084 
Q 3081 4231 2675 4231 
Q 1875 4231 1450 3742 
Q 1025 3253 1025 2328 
Q 1025 1406 1450 917 
Q 1875 428 2675 428 
Q 3081 428 3442 575 
Q 3803 722 4122 1019 
L 4122 359 
Q 3791 134 3420 21 
Q 3050 -91 2638 -91 
Q 1578 -91 968 557 
Q 359 1206 359 2328 
Q 359 3453 968 4101 
Q 1578 4750 2638 4750 
Q 3056 4750 3426 4639 
Q 3797 4528 4122 4306 
z
" transform="scale(0.015625)"/>
      </defs>
      <use xlink:href="#DejaVuSans-25"/>
      <use xlink:href="#DejaVuSans-20" x="95.019531"/>
      <use xlink:href="#DejaVuSans-47" x="126.806641"/>
      <use xlink:href="#DejaVuSans-43" x="204.296875"/>
     </g>
    </g>
   </g>
   <g id="matplotlib.axis_2">
    <g id="ytick_1">
     <g id="line2d_1">
      <path d="M 40.600625 273.99006 
L 985.445625 273.99006 
" clip-path="url(#p7cda7f7ea6)" style="fill: none; stroke: #dedede; stroke-linecap: square"/>
     </g>
     <g id="text_8">
      <!-- 0.0 -->
      <g transform="translate(20.878125 277.029435) scale(0.08 -0.08)">
       <defs>
        <path id="DejaVuSans-2e" d="M 684 794 
L 1344 794 
L 1344 0 
L 684 0 
L 684 794 
z
" transform="scale(0.015625)"/>
       </defs>
       <use xlink:href="#DejaVuSans-30"/>
       <use xlink:href="#DejaVuSans-2e" x="63.623047"/>
       <use xlink:href="#DejaVuSans-30" x="95.410156"/>
      </g>
     </g>
    </g>
    <g id="ytick_2">
     <g id="line2d_2">
      <path d="M 40.600625 233.612057 
L 985.445625 233.612057 
" clip-path="url(#p7cda7f7ea6)" style="fill: none; stroke: #dedede; stroke-linecap: square"/>
     </g>
     <g id="text_9">
      <!-- 0.5 -->
      <g transform="translate(20.878125 236.651432) scale(0.08 -0.08)">
       <defs>
        <path id="DejaVuSans-35" d="M 691 4666 
L 3169 4666 
L 3169 4134 
L 1269 4134 
L 1269 2991 
Q 1406 3038 1543 3061 
Q 1681 3084 1819 3084 
Q 2600 3084 3056 2656 
Q 3513 2228 3513 1497 
Q 3513 744 3044 326 
Q 2575 -91 1722 -91 
Q 1428 -91 1123 -41 
Q 819 9 494 109 
L 494 744 
Q 775 591 1075 516 
Q 1375 441 1709 441 
Q 2250 441 2565 725 
Q 2881 1009 2881 1497 
Q 2881 1984 2565 2268 
Q 2250 2553 1709 2553 
Q 1456 2553 1204 2497 
Q 953 2441 691 2322 
L 691 4666 
z
" transform="scale(0.015625)"/>
       </defs>
       <use xlink:href="#DejaVuSans-30"/>
       <use xlink:href="#DejaVuSans-2e" x="63.623047"/>
       <use xlink:href="#DejaVuSans-35" x="95.410156"/>
      </g>
     </g>
    </g>
    <g id="ytick_3">
     <g id="line2d_3">
      <path d="M 40.600625 193.234054 
L 985.445625 193.234054 
" clip-path="url(#p7cda7f7ea6)" style="fill: none; stroke: #dedede; stroke-linecap: square"/>
     </g>
     <g id="text_10">
      <!-- 1.0 -->
      <g transform="translate(20.878125 196.273429) scale(0.08 -0.08)">
       <use xlink:href="#DejaVuSans-31"/>
       <use xlink:href="#DejaVuSans-2e" x="63.623047"/>
       <use xlink:href="#DejaVuSans-30" x="95.410156"/>
      </g>
     </g>
    </g>
    <g id="ytick_4">
     <g id="line2d_4">
      <path d="M 40.600625 152.856052 
L 985.445625 152.856052 
" clip-path="url(#p7cda7f7ea6)" style="fill: none; stroke: #dedede; stroke-linecap: square"/>
     </g>
     <g id="text_11">
      <!-- 1.5 -->
      <g transform="translate(20.878125 155.895427) scale(0.08 -0.08)">
       <use xlink:href="#DejaVuSans-31"/>
       <use xlink:href="#DejaVuSans-2e" x="63.623047"/>
       <use xlink:href="#DejaVuSans-35" x="95.410156"/>
      </g>
     </g>
    </g>
    <g id="ytick_5">
     <g id="line2d_5">
      <path d="M 40.600625 112.478049 
L 985.445625 112.478049 
" clip-path="url(#p7cda7f7ea6)" style="fill: none; stroke: #dedede; stroke-linecap: square"/>
     </g>
     <g id="text_12">
      <!-- 2.0 -->
      <g transform="translate(20.878125 115.517424) scale(0.08 -0.08)">
       <use xlink:href="#DejaVuSans-32"/>
       <use xlink:href="#DejaVuSans-2e" x="63.623047"/>
       <use xlink:href="#DejaVuSans-30" x="95.410156"/>
      </g>
     </g>
    </g>
    <g id="ytick_6">
     <g id="line2d_6">
      <path d="M 40.600625 72.100046 
L 985.445625 72.100046 
" clip-path="url(#p7cda7f7ea6)" style="fill: none; stroke: #dedede; stroke-linecap: square"/>
     </g>
     <g id="text_13">
      <!-- 2.5 -->
      <g transform="translate(20.878125 75.139421) scale(0.08 -0.08)">
       <use xlink:href="#DejaVuSans-32"/>
       <use xlink:href="#DejaVuSans-2e" x="63.623047"/>
       <use xlink:href="#DejaVuSans-35" x="95.410156"/>
      </g>
     </g>
    </g>
    <g id="ytick_7">
     <g id="line2d_7">
      <path d="M 40.600625 31.722043 
L 985.445625 31.722043 
" clip-path="url(#p7cda7f7ea6)" style="fill: none; stroke: #dedede; stroke-linecap: square"/>
     </g>
     <g id="text_14">
      <!-- 3.0 -->
      <g transform="translate(20.878125 34.761418) scale(0.08 -0.08)">
       <defs>
        <path id="DejaVuSans-33" d="M 2597 2516 
Q 3050 2419 3304 2112 
Q 3559 1806 3559 1356 
Q 3559 666 3084 287 
Q 2609 -91 1734 -91 
Q 1441 -91 1130 -33 
Q 819 25 488 141 
L 488 750 
Q 750 597 1062 519 
Q 1375 441 1716 441 
Q 2309 441 2620 675 
Q 2931 909 2931 1356 
Q 2931 1769 2642 2001 
Q 2353 2234 1838 2234 
L 1294 2234 
L 1294 2753 
L 1863 2753 
Q 2328 2753 2575 2939 
Q 2822 3125 2822 3475 
Q 2822 3834 2567 4026 
Q 2313 4219 1838 4219 
Q 1578 4219 1281 4162 
Q 984 4106 628 3988 
L 628 4550 
Q 988 4650 1302 4700 
Q 1616 4750 1894 4750 
Q 2613 4750 3031 4423 
Q 3450 4097 3450 3541 
Q 3450 3153 3228 2886 
Q 3006 2619 2597 2516 
z
" transform="scale(0.015625)"/>
       </defs>
       <use xlink:href="#DejaVuSans-33"/>
       <use xlink:href="#DejaVuSans-2e" x="63.623047"/>
       <use xlink:href="#DejaVuSans-30" x="95.410156"/>
      </g>
     </g>
    </g>
    <g id="text_15">
     <!-- Count -->
     <g transform="translate(14.798438 167.584897) rotate(-90) scale(0.1 -0.1)">
      <defs>
       <path id="DejaVuSans-6f" d="M 1959 3097 
Q 1497 3097 1228 2736 
Q 959 2375 959 1747 
Q 959 1119 1226 758 
Q 1494 397 1959 397 
Q 2419 397 2687 759 
Q 2956 1122 2956 1747 
Q 2956 2369 2687 2733 
Q 2419 3097 1959 3097 
z
M 1959 3584 
Q 2709 3584 3137 3096 
Q 3566 2609 3566 1747 
Q 3566 888 3137 398 
Q 2709 -91 1959 -91 
Q 1206 -91 779 398 
Q 353 888 353 1747 
Q 353 2609 779 3096 
Q 1206 3584 1959 3584 
z
" transform="scale(0.015625)"/>
       <path id="DejaVuSans-75" d="M 544 1381 
L 544 3500 
L 1119 3500 
L 1119 1403 
Q 1119 906 1312 657 
Q 1506 409 1894 409 
Q 2359 409 2629 706 
Q 2900 1003 2900 1516 
L 2900 3500 
L 3475 3500 
L 3475 0 
L 2900 0 
L 2900 538 
Q 2691 219 2414 64 
Q 2138 -91 1772 -91 
Q 1169 -91 856 284 
Q 544 659 544 1381 
z
M 1991 3584 
L 1991 3584 
z
" transform="scale(0.015625)"/>
       <path id="DejaVuSans-6e" d="M 3513 2113 
L 3513 0 
L 2938 0 
L 2938 2094 
Q 2938 2591 2744 2837 
Q 2550 3084 2163 3084 
Q 1697 3084 1428 2787 
Q 1159 2491 1159 1978 
L 1159 0 
L 581 0 
L 581 3500 
L 1159 3500 
L 1159 2956 
Q 1366 3272 1645 3428 
Q 1925 3584 2291 3584 
Q 2894 3584 3203 3211 
Q 3513 2838 3513 2113 
z
" transform="scale(0.015625)"/>
       <path id="DejaVuSans-74" d="M 1172 4494 
L 1172 3500 
L 2356 3500 
L 2356 3053 
L 1172 3053 
L 1172 1153 
Q 1172 725 1289 603 
Q 1406 481 1766 481 
L 2356 481 
L 2356 0 
L 1766 0 
Q 1100 0 847 248 
Q 594 497 594 1153 
L 594 3053 
L 172 3053 
L 172 3500 
L 594 3500 
L 594 4494 
L 1172 4494 
z
" transform="scale(0.015625)"/>
      </defs>
      <use xlink:href="#DejaVuSans-43"/>
      <use xlink:href="#DejaVuSans-6f" x="69.824219"/>
      <use xlink:href="#DejaVuSans-75" x="131.005859"/>
      <use xlink:href="#DejaVuSans-6e" x="194.384766"/>
      <use xlink:href="#DejaVuSans-74" x="257.763672"/>
     </g>
    </g>
    <g id="text_16">
     <!-- 1e6 -->
     <g transform="translate(40.600625 28.48286) scale(0.1 -0.1)">
      <defs>
       <path id="DejaVuSans-65" d="M 3597 1894 
L 3597 1613 
L 953 1613 
Q 991 1019 1311 708 
Q 1631 397 2203 397 
Q 2534 397 2845 478 
Q 3156 559 3463 722 
L 3463 178 
Q 3153 47 2828 -22 
Q 2503 -91 2169 -91 
Q 1331 -91 842 396 
Q 353 884 353 1716 
Q 353 2575 817 3079 
Q 1281 3584 2069 3584 
Q 2775 3584 3186 3129 
Q 3597 2675 3597 1894 
z
M 3022 2063 
Q 3016 2534 2758 2815 
Q 2500 3097 2075 3097 
Q 1594 3097 1305 2825 
Q 1016 2553 972 2059 
L 3022 2063 
z
" transform="scale(0.015625)"/>
      </defs>
      <use xlink:href="#DejaVuSans-31"/>
      <use xlink:href="#DejaVuSans-65" x="63.623047"/>
      <use xlink:href="#DejaVuSans-36" x="125.146484"/>
     </g>
    </g>
   </g>
   <g id="line2d_8">
    <path d="M 40.600625 273.951216 
L 50.049075 273.963572 
L 59.497525 273.974313 
L 68.945975 273.968619 
L 78.394425 273.962482 
L 87.842875 273.96438 
L 97.291325 273.968014 
L 106.739775 273.971123 
L 116.188225 273.973586 
L 125.636675 273.970638 
L 135.085125 273.967408 
L 144.533575 273.962724 
L 153.982025 273.951822 
L 163.430475 273.934015 
L 172.878925 273.901107 
L 182.327375 273.862344 
L 191.775825 273.777429 
L 201.224275 273.580869 
L 210.672725 273.285625 
L 220.121175 272.852006 
L 229.569625 272.135862 
L 239.018075 269.664163 
L 248.466525 267.673244 
L 257.914975 266.847999 
L 267.363425 263.951927 
L 276.811875 260.08537 
L 286.260325 255.532023 
L 295.708775 248.919035 
L 305.157225 240.366772 
L 314.605675 230.525886 
L 324.054125 217.931139 
L 333.502575 204.981025 
L 342.951025 193.880183 
L 352.399475 181.033154 
L 361.847925 165.085378 
L 371.296375 151.415647 
L 380.744825 142.08845 
L 390.193275 132.474366 
L 399.641725 123.79891 
L 409.090175 115.169283 
L 418.538625 106.080396 
L 427.987075 98.722313 
L 437.435525 90.416881 
L 446.883975 82.57087 
L 456.332425 80.155296 
L 465.780875 81.595539 
L 475.229325 82.347579 
L 484.677775 79.583261 
L 494.126225 77.830169 
L 503.574675 76.585558 
L 513.023125 77.722683 
L 522.471575 72.659443 
L 531.920025 70.13824 
L 541.368475 75.623834 
L 550.816925 68.668925 
L 560.265375 60.646947 
L 569.713825 56.776836 
L 579.162275 62.620179 
L 588.610725 74.080224 
L 598.059175 63.243171 
L 607.507625 43.030751 
L 616.956075 68.457587 
L 626.404525 102.338325 
L 635.852975 118.210595 
L 645.301425 146.747223 
L 654.749875 170.513917 
L 664.198325 185.510106 
L 673.646775 196.024053 
L 683.095225 205.60434 
L 692.543675 217.030467 
L 701.992125 227.348379 
L 711.440575 233.053993 
L 720.889025 236.335553 
L 730.337475 238.201704 
L 739.785925 237.183451 
L 749.234375 235.934479 
L 758.682825 235.809953 
L 768.131275 227.321124 
L 777.579725 222.377403 
L 787.028175 235.448933 
L 796.476625 244.943578 
L 805.925075 239.930326 
L 815.373525 229.376485 
L 824.821975 233.640241 
L 834.270425 247.26495 
L 843.718875 252.458732 
L 853.167325 250.372845 
L 862.615775 249.808361 
L 872.064225 257.345197 
L 881.512675 266.575286 
L 890.961125 272.310012 
L 900.409575 273.57243 
L 909.858025 273.829436 
L 919.306475 273.9003 
L 928.754925 273.935792 
L 938.203375 273.969185 
L 947.651825 273.976412 
L 957.100275 273.976978 
L 966.548725 273.97617 
L 975.997175 273.982025 
L 985.445625 273.986507 
" clip-path="url(#p7cda7f7ea6)" style="fill: none; stroke: #d9534f; stroke-linecap: square"/>
   </g>
   <g id="line2d_9">
    <path d="M 40.600625 273.933692 
L 50.049075 273.955375 
L 59.497525 273.977825 
L 68.945975 273.977785 
L 78.394425 273.975322 
L 87.842875 273.970356 
L 97.291325 273.971728 
L 106.739775 273.977906 
L 116.188225 273.977987 
L 125.636675 273.974918 
L 135.085125 273.97084 
L 144.533575 273.963289 
L 153.982025 273.943222 
L 163.430475 273.92485 
L 172.878925 273.905266 
L 182.327375 273.851079 
L 191.775825 273.749205 
L 201.224275 273.599403 
L 210.672725 273.350876 
L 220.121175 272.864887 
L 229.569625 272.112604 
L 239.018075 270.96809 
L 248.466525 269.244676 
L 257.914975 266.410826 
L 267.363425 262.359257 
L 276.811875 258.180093 
L 286.260325 253.017564 
L 295.708775 245.226749 
L 305.157225 234.972473 
L 314.605675 224.726918 
L 324.054125 214.692459 
L 333.502575 203.133893 
L 342.951025 191.303582 
L 352.399475 179.09392 
L 361.847925 168.420883 
L 371.296375 157.715585 
L 380.744825 146.646319 
L 390.193275 136.599141 
L 399.641725 127.415083 
L 409.090175 119.201713 
L 418.538625 110.954021 
L 427.987075 101.885647 
L 437.435525 92.225452 
L 446.883975 86.345607 
L 456.332425 87.161606 
L 465.780875 88.132859 
L 475.229325 87.3746 
L 484.677775 87.442355 
L 494.126225 87.040472 
L 503.574675 88.160195 
L 513.023125 89.902061 
L 522.471575 88.602011 
L 531.920025 80.78059 
L 541.368475 76.11156 
L 550.816925 77.038276 
L 560.265375 76.886131 
L 569.713825 73.071016 
L 579.162275 69.312954 
L 588.610725 66.943533 
L 598.059175 53.195792 
L 607.507625 44.947212 
L 616.956075 53.862069 
L 626.404525 78.660785 
L 635.852975 115.334671 
L 645.301425 143.986862 
L 654.749875 167.189677 
L 664.198325 185.527307 
L 673.646775 195.546583 
L 683.095225 202.996931 
L 692.543675 212.750439 
L 701.992125 223.014083 
L 711.440575 229.2669 
L 720.889025 233.44675 
L 730.337475 236.543985 
L 739.785925 236.47728 
L 749.234375 232.593361 
L 758.682825 230.362799 
L 768.131275 225.639098 
L 777.579725 219.072302 
L 787.028175 228.630986 
L 796.476625 240.170091 
L 805.925075 239.481848 
L 815.373525 237.316012 
L 824.821975 239.367134 
L 834.270425 243.705306 
L 843.718875 247.699539 
L 853.167325 250.110469 
L 862.615775 250.947787 
L 872.064225 257.233068 
L 881.512675 265.623536 
L 890.961125 270.116114 
L 900.409575 272.118903 
L 909.858025 272.992925 
L 919.306475 273.32035 
L 928.754925 273.454769 
L 938.203375 273.516022 
L 947.651825 273.499387 
L 957.100275 273.348131 
L 966.548725 272.964943 
L 975.997175 271.773388 
L 985.445625 257.480343 
" clip-path="url(#p7cda7f7ea6)" style="fill: none; stroke: #d9534f; stroke-linecap: square"/>
   </g>
   <g id="line2d_10">
    <path d="M 40.600625 273.953235 
L 50.049075 273.964541 
L 59.497525 273.973828 
L 68.945975 273.969831 
L 78.394425 273.966358 
L 87.842875 273.967368 
L 97.291325 273.97088 
L 106.739775 273.972294 
L 116.188225 273.97302 
L 125.636675 273.971365 
L 135.085125 273.968377 
L 144.533575 273.96438 
L 153.982025 273.955173 
L 163.430475 273.938497 
L 172.878925 273.908496 
L 182.327375 273.874539 
L 191.775825 273.787766 
L 201.224275 273.58305 
L 210.672725 273.293216 
L 220.121175 272.867875 
L 229.569625 272.181247 
L 239.018075 269.80484 
L 248.466525 267.859226 
L 257.914975 267.023159 
L 267.363425 264.229445 
L 276.811875 260.460966 
L 286.260325 256.051365 
L 295.708775 249.643134 
L 305.157225 241.235909 
L 314.605675 231.580196 
L 324.054125 219.264784 
L 333.502575 206.487528 
L 342.951025 195.595764 
L 352.399475 183.137696 
L 361.847925 167.528489 
L 371.296375 154.184811 
L 380.744825 144.875905 
L 390.193275 135.329212 
L 399.641725 126.778241 
L 409.090175 118.038786 
L 418.538625 109.02573 
L 427.987075 102.014009 
L 437.435525 93.869039 
L 446.883975 86.106287 
L 456.332425 83.700727 
L 465.780875 85.057347 
L 475.229325 85.775672 
L 484.677775 83.001945 
L 494.126225 81.152794 
L 503.574675 79.907335 
L 513.023125 81.122672 
L 522.471575 76.126823 
L 531.920025 73.710765 
L 541.368475 79.025479 
L 550.816925 71.97875 
L 560.265375 64.067488 
L 569.713825 60.427411 
L 579.162275 66.165004 
L 588.610725 77.135223 
L 598.059175 66.480922 
L 607.507625 47.051067 
L 616.956075 71.812191 
L 626.404525 104.746105 
L 635.852975 120.45222 
L 645.301425 148.585189 
L 654.749875 171.928843 
L 664.198325 186.579881 
L 673.646775 196.956058 
L 683.095225 206.327954 
L 692.543675 217.578356 
L 701.992125 227.870628 
L 711.440575 233.453291 
L 720.889025 236.6375 
L 730.337475 238.456893 
L 739.785925 237.318839 
L 749.234375 236.077619 
L 758.682825 235.982529 
L 768.131275 227.499635 
L 777.579725 222.568795 
L 787.028175 235.515961 
L 796.476625 244.868718 
L 805.925075 239.813917 
L 815.373525 229.454334 
L 824.821975 233.800986 
L 834.270425 247.229619 
L 843.718875 252.254904 
L 853.167325 250.215492 
L 862.615775 249.795117 
L 872.064225 257.320971 
L 881.512675 266.517788 
L 890.961125 272.297172 
L 900.409575 273.582565 
L 909.858025 273.829557 
L 919.306475 273.902399 
L 928.754925 273.941687 
L 938.203375 273.968135 
L 947.651825 273.974111 
L 957.100275 273.977422 
L 966.548725 273.977179 
L 975.997175 273.982752 
L 985.445625 273.98683 
" clip-path="url(#p7cda7f7ea6)" style="fill: none; stroke: #d9534f; stroke-linecap: square"/>
   </g>
   <g id="line2d_11">
    <path d="M 40.600625 273.935307 
L 50.049075 273.956829 
L 59.497525 273.977947 
L 68.945975 273.97827 
L 78.394425 273.976291 
L 87.842875 273.970719 
L 97.291325 273.972132 
L 106.739775 273.977745 
L 116.188225 273.977745 
L 125.636675 273.974514 
L 135.085125 273.97084 
L 144.533575 273.964541 
L 153.982025 273.943868 
L 163.430475 273.92489 
L 172.878925 273.904782 
L 182.327375 273.849908 
L 191.775825 273.758048 
L 201.224275 273.618502 
L 210.672725 273.366745 
L 220.121175 272.890204 
L 229.569625 272.159604 
L 239.018075 271.046504 
L 248.466525 269.386847 
L 257.914975 266.665652 
L 267.363425 262.746321 
L 276.811875 258.635275 
L 286.260325 253.577809 
L 295.708775 245.974752 
L 305.157225 235.952003 
L 314.605675 225.84555 
L 324.054125 216.026872 
L 333.502575 204.803442 
L 342.951025 193.246773 
L 352.399475 181.030893 
L 361.847925 170.317317 
L 371.296375 160.047414 
L 380.744825 149.263217 
L 390.193275 139.166213 
L 399.641725 130.101109 
L 409.090175 122.074446 
L 418.538625 114.13706 
L 427.987075 105.23262 
L 437.435525 95.583125 
L 446.883975 89.744103 
L 456.332425 90.540882 
L 465.780875 91.577466 
L 475.229325 90.644774 
L 484.677775 90.721412 
L 494.126225 90.321427 
L 503.574675 91.420759 
L 513.023125 93.196503 
L 522.471575 91.770755 
L 531.920025 84.06954 
L 541.368475 79.398208 
L 550.816925 80.147261 
L 560.265375 79.957202 
L 569.713825 76.42671 
L 579.162275 72.960219 
L 588.610725 70.530593 
L 598.059175 56.792907 
L 607.507625 48.521553 
L 616.956075 57.253418 
L 626.404525 81.800578 
L 635.852975 117.786222 
L 645.301425 146.000149 
L 654.749875 168.961383 
L 664.198325 186.767719 
L 673.646775 196.478346 
L 683.095225 203.895381 
L 692.543675 213.62535 
L 701.992125 223.711613 
L 711.440575 229.774209 
L 720.889025 233.817581 
L 730.337475 236.859539 
L 739.785925 236.808703 
L 749.234375 232.764967 
L 758.682825 230.427242 
L 768.131275 225.737216 
L 777.579725 219.18431 
L 787.028175 228.647138 
L 796.476625 240.052914 
L 805.925075 239.395358 
L 815.373525 237.279228 
L 824.821975 239.368386 
L 834.270425 243.80294 
L 843.718875 247.760186 
L 853.167325 250.009322 
L 862.615775 250.614063 
L 872.064225 256.827834 
L 881.512675 265.537773 
L 890.961125 270.274961 
L 900.409575 272.302583 
L 909.858025 273.148946 
L 919.306475 273.447299 
L 928.754925 273.568312 
L 938.203375 273.61406 
L 947.651825 273.578689 
L 957.100275 273.412533 
L 966.548725 273.011782 
L 975.997175 271.748314 
L 985.445625 257.355494 
" clip-path="url(#p7cda7f7ea6)" style="fill: none; stroke: #d9534f; stroke-linecap: square"/>
   </g>
   <g id="line2d_12">
    <path d="M 40.600625 273.963249 
L 50.049075 273.971567 
L 59.497525 273.979198 
L 68.945975 273.975161 
L 78.394425 273.97189 
L 87.842875 273.974434 
L 97.291325 273.977745 
L 106.739775 273.978229 
L 116.188225 273.978673 
L 125.636675 273.97621 
L 135.085125 273.973182 
L 144.533575 273.971244 
L 153.982025 273.964137 
L 163.430475 273.951216 
L 172.878925 273.930825 
L 182.327375 273.90672 
L 191.775825 273.839248 
L 201.224275 273.697602 
L 210.672725 273.497569 
L 220.121175 273.211936 
L 229.569625 272.760429 
L 239.018075 271.086478 
L 248.466525 269.772941 
L 257.914975 269.26648 
L 267.363425 267.335967 
L 276.811875 264.801642 
L 286.260325 261.780398 
L 295.708775 257.424702 
L 305.157225 251.937452 
L 314.605675 245.547391 
L 324.054125 237.108994 
L 333.502575 228.173382 
L 342.951025 220.389351 
L 352.399475 211.35655 
L 361.847925 200.169703 
L 371.296375 190.600399 
L 380.744825 183.337527 
L 390.193275 176.222761 
L 399.641725 170.446971 
L 409.090175 164.479344 
L 418.538625 158.252652 
L 427.987075 152.922675 
L 437.435525 146.248232 
L 446.883975 140.183092 
L 456.332425 138.034135 
L 465.780875 138.883324 
L 475.229325 139.835397 
L 484.677775 137.619049 
L 494.126225 136.334625 
L 503.574675 134.450304 
L 513.023125 134.173957 
L 522.471575 130.020595 
L 531.920025 128.179035 
L 541.368475 133.550925 
L 550.816925 127.222884 
L 560.265375 120.331086 
L 569.713825 114.198071 
L 579.162275 114.960529 
L 588.610725 125.838686 
L 598.059175 123.18682 
L 607.507625 105.752123 
L 616.956075 121.249241 
L 626.404525 150.346841 
L 635.852975 162.34997 
L 645.301425 181.530329 
L 654.749875 198.832545 
L 664.198325 210.729076 
L 673.646775 219.032126 
L 683.095225 226.299197 
L 692.543675 233.96702 
L 701.992125 240.614653 
L 711.440575 244.13509 
L 720.889025 246.049007 
L 730.337475 247.423111 
L 739.785925 247.583129 
L 749.234375 248.167035 
L 758.682825 248.277509 
L 768.131275 242.718185 
L 777.579725 239.634961 
L 787.028175 247.816514 
L 796.476625 254.133935 
L 805.925075 251.876966 
L 815.373525 246.702323 
L 824.821975 248.861779 
L 834.270425 255.704357 
L 843.718875 257.989307 
L 853.167325 255.17274 
L 862.615775 254.086612 
L 872.064225 260.104509 
L 881.512675 267.608276 
L 890.961125 272.360808 
L 900.409575 273.565485 
L 909.858025 273.884027 
L 919.306475 273.947784 
L 928.754925 273.965833 
L 938.203375 273.977785 
L 947.651825 273.981661 
L 957.100275 273.982469 
L 966.548725 273.981944 
L 975.997175 273.984569 
L 985.445625 273.986709 
" clip-path="url(#p7cda7f7ea6)" style="fill: none; stroke: #d9534f; stroke-linecap: square"/>
   </g>
   <g id="line2d_13">
    <path d="M 40.600625 273.958969 
L 50.049075 273.971042 
L 59.497525 273.982065 
L 68.945975 273.980652 
L 78.394425 273.978795 
L 87.842875 273.974514 
L 97.291325 273.975968 
L 106.739775 273.981459 
L 116.188225 273.981056 
L 125.636675 273.978027 
L 135.085125 273.975443 
L 144.533575 273.970961 
L 153.982025 273.956627 
L 163.430475 273.941929 
L 172.878925 273.924446 
L 182.327375 273.882291 
L 191.775825 273.815708 
L 201.224275 273.71129 
L 210.672725 273.524542 
L 220.121175 273.196471 
L 229.569625 272.708341 
L 239.018075 271.959773 
L 248.466525 270.812836 
L 257.914975 268.922701 
L 267.363425 266.460693 
L 276.811875 263.753308 
L 286.260325 260.146139 
L 295.708775 255.042157 
L 305.157225 248.374457 
L 314.605675 241.398794 
L 324.054125 234.380249 
L 333.502575 226.381649 
L 342.951025 217.873398 
L 352.399475 208.6188 
L 361.847925 200.813773 
L 371.296375 193.305725 
L 380.744825 185.33745 
L 390.193275 178.214326 
L 399.641725 171.867186 
L 409.090175 166.359021 
L 418.538625 160.626273 
L 427.987075 153.902892 
L 437.435525 146.221259 
L 446.883975 141.30443 
L 456.332425 142.124871 
L 465.780875 143.59677 
L 475.229325 143.459888 
L 484.677775 143.345376 
L 494.126225 142.610901 
L 503.574675 142.815334 
L 513.023125 143.548114 
L 522.471575 142.565273 
L 531.920025 137.896325 
L 541.368475 135.062031 
L 550.816925 134.427531 
L 560.265375 133.458257 
L 569.713825 130.982561 
L 579.162275 126.527333 
L 588.610725 124.125245 
L 598.059175 117.051907 
L 607.507625 105.313416 
L 616.956075 106.946222 
L 626.404525 129.165954 
L 635.852975 158.13067 
L 645.301425 179.264113 
L 654.749875 196.707007 
L 664.198325 210.848595 
L 673.646775 217.669085 
L 683.095225 223.40688 
L 692.543675 230.988052 
L 701.992125 238.390996 
L 711.440575 242.877597 
L 720.889025 245.995668 
L 730.337475 248.542349 
L 739.785925 248.448106 
L 749.234375 245.214071 
L 758.682825 244.406551 
L 768.131275 242.451811 
L 777.579725 238.649778 
L 787.028175 244.752389 
L 796.476625 252.120445 
L 805.925075 252.190905 
L 815.373525 250.556323 
L 824.821975 251.011827 
L 834.270425 253.007631 
L 843.718875 254.718528 
L 853.167325 255.070906 
L 862.615775 254.980863 
L 872.064225 259.428339 
L 881.512675 265.646632 
L 890.961125 269.736237 
L 900.409575 272.16235 
L 909.858025 273.240039 
L 919.306475 273.622984 
L 928.754925 273.712663 
L 938.203375 273.735759 
L 947.651825 273.699419 
L 957.100275 273.559873 
L 966.548725 273.240039 
L 975.997175 272.328142 
L 985.445625 261.65345 
" clip-path="url(#p7cda7f7ea6)" style="fill: none; stroke: #d9534f; stroke-linecap: square"/>
   </g>
   <g id="line2d_14">
    <path d="M 40.600625 273.966318 
L 50.049075 273.973182 
L 59.497525 273.979965 
L 68.945975 273.976049 
L 78.394425 273.971809 
L 87.842875 273.97302 
L 97.291325 273.974837 
L 106.739775 273.976614 
L 116.188225 273.978512 
L 125.636675 273.976493 
L 135.085125 273.973667 
L 144.533575 273.971002 
L 153.982025 273.963935 
L 163.430475 273.951822 
L 172.878925 273.930543 
L 182.327375 273.905872 
L 191.775825 273.845224 
L 201.224275 273.714682 
L 210.672725 273.518728 
L 220.121175 273.233013 
L 229.569625 272.796082 
L 239.018075 271.185041 
L 248.466525 269.902231 
L 257.914975 269.392338 
L 267.363425 267.508421 
L 276.811875 265.022469 
L 286.260325 262.09034 
L 295.708775 257.866841 
L 305.157225 252.442823 
L 314.605675 246.124312 
L 324.054125 237.895961 
L 333.502575 229.14306 
L 342.951025 221.421211 
L 352.399475 212.488305 
L 361.847925 201.625694 
L 371.296375 192.157617 
L 380.744825 184.913036 
L 390.193275 177.968383 
L 399.641725 172.258651 
L 409.090175 166.462631 
L 418.538625 160.277084 
L 427.987075 154.866351 
L 437.435525 148.210078 
L 446.883975 142.068785 
L 456.332425 139.924108 
L 465.780875 140.716122 
L 475.229325 141.528124 
L 484.677775 139.398427 
L 494.126225 138.126883 
L 503.574675 136.283506 
L 513.023125 136.186639 
L 522.471575 132.147668 
L 531.920025 130.122186 
L 541.368475 135.458099 
L 550.816925 129.40051 
L 560.265375 122.647854 
L 569.713825 116.688546 
L 579.162275 117.40465 
L 588.610725 127.98946 
L 598.059175 125.25587 
L 607.507625 108.444165 
L 616.956075 123.691505 
L 626.404525 151.974842 
L 635.852975 163.78775 
L 645.301425 182.780109 
L 654.749875 199.869816 
L 664.198325 211.473202 
L 673.646775 219.646477 
L 683.095225 226.74812 
L 692.543675 234.332643 
L 701.992125 240.914096 
L 711.440575 244.358622 
L 720.889025 246.162873 
L 730.337475 247.495347 
L 739.785925 247.749405 
L 749.234375 248.276823 
L 758.682825 248.330849 
L 768.131275 242.791592 
L 777.579725 239.725892 
L 787.028175 247.797213 
L 796.476625 253.988534 
L 805.925075 251.799925 
L 815.373525 246.689967 
L 824.821975 248.844538 
L 834.270425 255.611649 
L 843.718875 257.780311 
L 853.167325 254.965076 
L 862.615775 253.962288 
L 872.064225 260.051573 
L 881.512675 267.583363 
L 890.961125 272.34502 
L 900.409575 273.571138 
L 909.858025 273.884714 
L 919.306475 273.948228 
L 928.754925 273.96656 
L 938.203375 273.976816 
L 947.651825 273.980935 
L 957.100275 273.982913 
L 966.548725 273.983075 
L 975.997175 273.984892 
L 985.445625 273.98687 
" clip-path="url(#p7cda7f7ea6)" style="fill: none; stroke: #d9534f; stroke-linecap: square"/>
   </g>
   <g id="line2d_15">
    <path d="M 40.600625 273.958242 
L 50.049075 273.97084 
L 59.497525 273.983478 
L 68.945975 273.983075 
L 78.394425 273.980329 
L 87.842875 273.974434 
L 97.291325 273.976776 
L 106.739775 273.982267 
L 116.188225 273.981177 
L 125.636675 273.97936 
L 135.085125 273.978108 
L 144.533575 273.97407 
L 153.982025 273.959252 
L 163.430475 273.945119 
L 172.878925 273.926505 
L 182.327375 273.887823 
L 191.775825 273.824429 
L 201.224275 273.720941 
L 210.672725 273.538028 
L 220.121175 273.220173 
L 229.569625 272.723725 
L 239.018075 271.977338 
L 248.466525 270.902879 
L 257.914975 269.095519 
L 267.363425 266.634884 
L 276.811875 263.952896 
L 286.260325 260.45709 
L 295.708775 255.464471 
L 305.157225 248.936559 
L 314.605675 242.125476 
L 324.054125 235.239694 
L 333.502575 227.31745 
L 342.951025 218.99623 
L 352.399475 209.936496 
L 361.847925 202.090525 
L 371.296375 194.616355 
L 380.744825 186.805876 
L 390.193275 179.81277 
L 399.641725 173.629969 
L 409.090175 168.113486 
L 418.538625 162.369755 
L 427.987075 155.759068 
L 437.435525 148.376637 
L 446.883975 143.544238 
L 456.332425 144.142034 
L 465.780875 145.505196 
L 475.229325 145.341624 
L 484.677775 145.274314 
L 494.126225 144.418301 
L 503.574675 144.568991 
L 513.023125 145.287235 
L 522.471575 144.335728 
L 531.920025 139.679336 
L 541.368475 136.786454 
L 550.816925 136.177393 
L 560.265375 135.335107 
L 569.713825 133.023184 
L 579.162275 128.744731 
L 588.610725 126.344703 
L 598.059175 119.303183 
L 607.507625 107.894096 
L 616.956075 109.502594 
L 626.404525 131.433825 
L 635.852975 160.016041 
L 645.301425 180.65453 
L 654.749875 197.680803 
L 664.198325 211.614727 
L 673.646775 218.418945 
L 683.095225 224.069806 
L 692.543675 231.474728 
L 701.992125 238.825503 
L 711.440575 243.357086 
L 720.889025 246.339446 
L 730.337475 248.767294 
L 739.785925 248.680724 
L 749.234375 245.313077 
L 758.682825 244.415151 
L 768.131275 242.529499 
L 777.579725 238.790455 
L 787.028175 244.834719 
L 796.476625 252.106475 
L 805.925075 252.142532 
L 815.373525 250.5325 
L 824.821975 250.980534 
L 834.270425 252.908664 
L 843.718875 254.627556 
L 853.167325 254.882624 
L 862.615775 254.577285 
L 872.064225 259.029525 
L 881.512675 265.440704 
L 890.961125 269.708659 
L 900.409575 272.229539 
L 909.858025 273.321844 
L 919.306475 273.68246 
L 928.754925 273.756473 
L 938.203375 273.764549 
L 947.651825 273.718881 
L 957.100275 273.585795 
L 966.548725 273.272462 
L 975.997175 272.30981 
L 985.445625 261.524765 
" clip-path="url(#p7cda7f7ea6)" style="fill: none; stroke: #d9534f; stroke-linecap: square"/>
   </g>
   <g id="line2d_16">
    <path d="M 40.600625 273.967691 
L 50.049075 273.973909 
L 59.497525 273.979965 
L 68.945975 273.977906 
L 78.394425 273.976453 
L 87.842875 273.977947 
L 97.291325 273.979683 
L 106.739775 273.981096 
L 116.188225 273.979723 
L 125.636675 273.976291 
L 135.085125 273.974313 
L 144.533575 273.971284 
L 153.982025 273.961513 
L 163.430475 273.940758 
L 172.878925 273.911525 
L 182.327375 273.870622 
L 191.775825 273.761197 
L 201.224275 273.494703 
L 210.672725 273.242825 
L 220.121175 272.864846 
L 229.569625 272.166509 
L 239.018075 270.413457 
L 248.466525 268.880708 
L 257.914975 268.031034 
L 267.363425 265.875898 
L 276.811875 263.151958 
L 286.260325 260.228106 
L 295.708775 256.324563 
L 305.157225 251.571183 
L 314.605675 246.572225 
L 324.054125 240.885831 
L 333.502575 235.118076 
L 342.951025 230.417551 
L 352.399475 225.485055 
L 361.847925 219.463161 
L 371.296375 214.827968 
L 380.744825 212.145011 
L 390.193275 208.676379 
L 399.641725 205.102643 
L 409.090175 201.852497 
L 418.538625 198.35023 
L 427.987075 195.375179 
L 437.435525 191.813718 
L 446.883975 188.601809 
L 456.332425 188.569991 
L 465.780875 189.864631 
L 475.229325 189.82821 
L 484.677775 188.596843 
L 494.126225 188.308988 
L 503.574675 188.11158 
L 513.023125 188.187733 
L 522.471575 184.671859 
L 531.920025 183.243406 
L 541.368475 186.094174 
L 550.816925 180.676617 
L 560.265375 176.771135 
L 569.713825 177.97129 
L 579.162275 179.769484 
L 588.610725 184.214658 
L 598.059175 182.372654 
L 607.507625 174.502537 
L 616.956075 183.591505 
L 626.404525 195.352729 
L 635.852975 203.046515 
L 645.301425 216.856842 
L 654.749875 226.390128 
L 664.198325 233.338779 
L 673.646775 238.794856 
L 683.095225 243.632222 
L 692.543675 248.491674 
L 701.992125 253.339659 
L 711.440575 255.954942 
L 720.889025 257.598287 
L 730.337475 258.247686 
L 739.785925 258.039336 
L 749.234375 257.922684 
L 758.682825 257.535701 
L 768.131275 252.963094 
L 777.579725 251.458892 
L 787.028175 257.883315 
L 796.476625 261.08093 
L 805.925075 258.874353 
L 815.373525 255.652875 
L 824.821975 259.102206 
L 834.270425 264.843917 
L 843.718875 267.041409 
L 853.167325 267.434974 
L 862.615775 266.918095 
L 872.064225 268.679707 
L 881.512675 271.51186 
L 890.961125 273.342235 
L 900.409575 273.845668 
L 909.858025 273.918712 
L 919.306475 273.947865 
L 928.754925 273.968377 
L 938.203375 273.981217 
L 947.651825 273.985174 
L 957.100275 273.986345 
L 966.548725 273.985215 
L 975.997175 273.986507 
L 985.445625 273.988566 
" clip-path="url(#p7cda7f7ea6)" style="fill: none; stroke: #d9534f; stroke-linecap: square"/>
   </g>
   <g id="line2d_17">
    <path d="M 40.600625 273.970275 
L 50.049075 273.97621 
L 59.497525 273.983559 
L 68.945975 273.984165 
L 78.394425 273.981783 
L 87.842875 273.979441 
L 97.291325 273.980894 
L 106.739775 273.983801 
L 116.188225 273.982711 
L 125.636675 273.980087 
L 135.085125 273.979158 
L 144.533575 273.974636 
L 153.982025 273.952549 
L 163.430475 273.93878 
L 172.878925 273.926545 
L 182.327375 273.885723 
L 191.775825 273.824712 
L 201.224275 273.717064 
L 210.672725 273.509319 
L 220.121175 273.13021 
L 229.569625 272.506895 
L 239.018075 271.548766 
L 248.466525 270.14244 
L 257.914975 267.930573 
L 267.363425 264.942965 
L 276.811875 262.160759 
L 286.260325 259.316411 
L 295.708775 255.412262 
L 305.157225 250.248198 
L 314.605675 245.480283 
L 324.054125 241.564182 
L 333.502575 237.097244 
L 342.951025 232.635434 
L 352.399475 227.960671 
L 361.847925 224.127264 
L 371.296375 220.254408 
L 380.744825 215.834107 
L 390.193275 211.89705 
L 399.641725 208.254954 
L 409.090175 204.80534 
L 418.538625 201.436765 
L 427.987075 197.839569 
L 437.435525 193.316829 
L 446.883975 190.644815 
L 456.332425 191.453304 
L 465.780875 192.227148 
L 475.229325 192.312386 
L 484.677775 192.212128 
L 494.126225 191.343233 
L 503.574675 191.41555 
L 513.023125 192.450115 
L 522.471575 192.07779 
L 531.920025 189.380378 
L 541.368475 187.121188 
L 550.816925 187.037525 
L 560.265375 187.716683 
L 569.713825 186.214621 
L 579.162275 183.818631 
L 588.610725 182.496695 
L 598.059175 179.737424 
L 607.507625 173.076629 
L 616.956075 172.011336 
L 626.404525 181.815599 
L 635.852975 196.894038 
L 645.301425 211.925274 
L 654.749875 224.140993 
L 664.198325 232.68623 
L 673.646775 236.539584 
L 683.095225 239.769178 
L 692.543675 245.13606 
L 701.992125 250.260594 
L 711.440575 252.82165 
L 720.889025 254.356902 
L 730.337475 256.168582 
L 739.785925 257.455349 
L 749.234375 256.618999 
L 758.682825 255.390216 
L 768.131275 251.978113 
L 777.579725 248.367472 
L 787.028175 253.654527 
L 796.476625 259.685264 
L 805.925075 259.930682 
L 815.373525 259.810113 
L 824.821975 260.643394 
L 834.270425 262.663303 
L 843.718875 265.205583 
L 853.167325 266.521422 
L 862.615775 267.169367 
L 872.064225 269.328985 
L 881.512675 271.634851 
L 890.961125 272.912048 
L 900.409575 273.552241 
L 909.858025 273.762328 
L 919.306475 273.810661 
L 928.754925 273.81599 
L 938.203375 273.803837 
L 947.651825 273.757483 
L 957.100275 273.628192 
L 966.548725 273.340378 
L 975.997175 272.522198 
L 985.445625 262.366323 
" clip-path="url(#p7cda7f7ea6)" style="fill: none; stroke: #d9534f; stroke-linecap: square"/>
   </g>
   <g id="line2d_18">
    <path d="M 40.600625 273.971325 
L 50.049075 273.975605 
L 59.497525 273.980127 
L 68.945975 273.979723 
L 78.394425 273.978835 
L 87.842875 273.979319 
L 97.291325 273.979077 
L 106.739775 273.978956 
L 116.188225 273.9794 
L 125.636675 273.977664 
L 135.085125 273.975322 
L 144.533575 273.971244 
L 153.982025 273.961836 
L 163.430475 273.942414 
L 172.878925 273.913907 
L 182.327375 273.872035 
L 191.775825 273.768829 
L 201.224275 273.514569 
L 210.672725 273.266527 
L 220.121175 272.894766 
L 229.569625 272.202082 
L 239.018075 270.5077 
L 248.466525 269.018801 
L 257.914975 268.186651 
L 267.363425 266.130603 
L 276.811875 263.5068 
L 286.260325 260.655749 
L 295.708775 256.783418 
L 305.157225 252.120122 
L 314.605675 247.333956 
L 324.054125 241.771119 
L 333.502575 236.133179 
L 342.951025 231.615002 
L 352.399475 226.815147 
L 361.847925 220.917415 
L 371.296375 216.407031 
L 380.744825 213.666899 
L 390.193275 210.216194 
L 399.641725 206.914364 
L 409.090175 203.685012 
L 418.538625 200.170309 
L 427.987075 197.276215 
L 437.435525 193.746936 
L 446.883975 190.641827 
L 456.332425 190.623495 
L 465.780875 191.772532 
L 475.229325 191.778427 
L 484.677775 190.589174 
L 494.126225 190.143724 
L 503.574675 189.954068 
L 513.023125 190.047624 
L 522.471575 186.7443 
L 531.920025 185.418246 
L 541.368475 188.186481 
L 550.816925 182.880165 
L 560.265375 178.934387 
L 569.713825 180.053019 
L 579.162275 181.877257 
L 588.610725 186.220436 
L 598.059175 184.347381 
L 607.507625 176.70863 
L 616.956075 185.612383 
L 626.404525 197.029546 
L 635.852975 204.512479 
L 645.301425 217.991544 
L 654.749875 227.262132 
L 664.198325 234.025811 
L 673.646775 239.290214 
L 683.095225 244.073432 
L 692.543675 248.944473 
L 701.992125 253.651862 
L 711.440575 256.242716 
L 720.889025 257.928458 
L 730.337475 258.459994 
L 739.785925 258.186756 
L 749.234375 258.148477 
L 758.682825 257.770176 
L 768.131275 253.162925 
L 777.579725 251.651778 
L 787.028175 257.960114 
L 796.476625 261.068736 
L 805.925075 258.923493 
L 815.373525 255.780469 
L 824.821975 259.195681 
L 834.270425 264.848601 
L 843.718875 266.989806 
L 853.167325 267.407719 
L 862.615775 266.924919 
L 872.064225 268.653986 
L 881.512675 271.484847 
L 890.961125 273.335452 
L 900.409575 273.850877 
L 909.858025 273.92166 
L 919.306475 273.946734 
L 928.754925 273.968619 
L 938.203375 273.981217 
L 947.651825 273.984326 
L 957.100275 273.986224 
L 966.548725 273.985982 
L 975.997175 273.98683 
L 985.445625 273.988324 
" clip-path="url(#p7cda7f7ea6)" style="fill: none; stroke: #d9534f; stroke-linecap: square"/>
   </g>
   <g id="line2d_19">
    <path d="M 40.600625 273.970759 
L 50.049075 273.976776 
L 59.497525 273.983317 
L 68.945975 273.98364 
L 78.394425 273.982025 
L 87.842875 273.980208 
L 97.291325 273.982186 
L 106.739775 273.984488 
L 116.188225 273.983115 
L 125.636675 273.980935 
L 135.085125 273.97827 
L 144.533575 273.974191 
L 153.982025 273.954124 
L 163.430475 273.937851 
L 172.878925 273.927676 
L 182.327375 273.896262 
L 191.775825 273.839167 
L 201.224275 273.728612 
L 210.672725 273.530397 
L 220.121175 273.157102 
L 229.569625 272.552886 
L 239.018075 271.609171 
L 248.466525 270.211123 
L 257.914975 268.096729 
L 267.363425 265.196337 
L 276.811875 262.470054 
L 286.260325 259.740986 
L 295.708775 255.897242 
L 305.157225 250.864366 
L 314.605675 246.256267 
L 324.054125 242.452659 
L 333.502575 238.114205 
L 342.951025 233.7405 
L 352.399475 229.202658 
L 361.847925 225.352696 
L 371.296375 221.54182 
L 380.744825 217.337461 
L 390.193275 213.47054 
L 399.641725 209.902498 
L 409.090175 206.600748 
L 418.538625 203.235928 
L 427.987075 199.503103 
L 437.435525 195.09116 
L 446.883975 192.5553 
L 456.332425 193.388904 
L 465.780875 194.177285 
L 475.229325 194.137189 
L 484.677775 194.000671 
L 494.126225 193.221578 
L 503.574675 193.304029 
L 513.023125 194.201632 
L 522.471575 193.93534 
L 531.920025 191.523521 
L 541.368475 189.239459 
L 550.816925 189.015724 
L 560.265375 189.564986 
L 569.713825 188.211233 
L 579.162275 185.991129 
L 588.610725 184.541478 
L 598.059175 181.873623 
L 607.507625 175.327541 
L 616.956075 174.164654 
L 626.404525 183.798926 
L 635.852975 198.588541 
L 645.301425 213.250965 
L 654.749875 225.166594 
L 664.198325 233.500937 
L 673.646775 237.327358 
L 683.095225 240.546495 
L 692.543675 245.673088 
L 701.992125 250.657752 
L 711.440575 253.221029 
L 720.889025 254.663775 
L 730.337475 256.410729 
L 739.785925 257.705329 
L 749.234375 256.83704 
L 758.682825 255.60107 
L 768.131275 252.258296 
L 777.579725 248.662029 
L 787.028175 253.823832 
L 796.476625 259.785159 
L 805.925075 259.969404 
L 815.373525 259.798484 
L 824.821975 260.669761 
L 834.270425 262.695606 
L 843.718875 265.180832 
L 853.167325 266.463923 
L 862.615775 267.071612 
L 872.064225 269.229776 
L 881.512675 271.599884 
L 890.961125 272.917176 
L 900.409575 273.577114 
L 909.858025 273.784859 
L 919.306475 273.82984 
L 928.754925 273.831253 
L 938.203375 273.81599 
L 947.651825 273.777793 
L 957.100275 273.661464 
L 966.548725 273.387943 
L 975.997175 272.517717 
L 985.445625 262.393619 
" clip-path="url(#p7cda7f7ea6)" style="fill: none; stroke: #d9534f; stroke-linecap: square"/>
   </g>
   <g id="line2d_20">
    <path d="M 40.600625 273.99006 
L 985.445625 273.99006 
" clip-path="url(#p7cda7f7ea6)" style="fill: none; stroke: #dedede; stroke-width: 2; stroke-linecap: square"/>
   </g>
   <g id="text_17">
    <!-- FastQC: Per Sequence GC Content -->
    <g transform="translate(376.386875 19.3575) scale(0.16 -0.16)">
     <defs>
      <path id="DejaVuSans-46" d="M 628 4666 
L 3309 4666 
L 3309 4134 
L 1259 4134 
L 1259 2759 
L 3109 2759 
L 3109 2228 
L 1259 2228 
L 1259 0 
L 628 0 
L 628 4666 
z
" transform="scale(0.015625)"/>
      <path id="DejaVuSans-61" d="M 2194 1759 
Q 1497 1759 1228 1600 
Q 959 1441 959 1056 
Q 959 750 1161 570 
Q 1363 391 1709 391 
Q 2188 391 2477 730 
Q 2766 1069 2766 1631 
L 2766 1759 
L 2194 1759 
z
M 3341 1997 
L 3341 0 
L 2766 0 
L 2766 531 
Q 2569 213 2275 61 
Q 1981 -91 1556 -91 
Q 1019 -91 701 211 
Q 384 513 384 1019 
Q 384 1609 779 1909 
Q 1175 2209 1959 2209 
L 2766 2209 
L 2766 2266 
Q 2766 2663 2505 2880 
Q 2244 3097 1772 3097 
Q 1472 3097 1187 3025 
Q 903 2953 641 2809 
L 641 3341 
Q 956 3463 1253 3523 
Q 1550 3584 1831 3584 
Q 2591 3584 2966 3190 
Q 3341 2797 3341 1997 
z
" transform="scale(0.015625)"/>
      <path id="DejaVuSans-73" d="M 2834 3397 
L 2834 2853 
Q 2591 2978 2328 3040 
Q 2066 3103 1784 3103 
Q 1356 3103 1142 2972 
Q 928 2841 928 2578 
Q 928 2378 1081 2264 
Q 1234 2150 1697 2047 
L 1894 2003 
Q 2506 1872 2764 1633 
Q 3022 1394 3022 966 
Q 3022 478 2636 193 
Q 2250 -91 1575 -91 
Q 1294 -91 989 -36 
Q 684 19 347 128 
L 347 722 
Q 666 556 975 473 
Q 1284 391 1588 391 
Q 1994 391 2212 530 
Q 2431 669 2431 922 
Q 2431 1156 2273 1281 
Q 2116 1406 1581 1522 
L 1381 1569 
Q 847 1681 609 1914 
Q 372 2147 372 2553 
Q 372 3047 722 3315 
Q 1072 3584 1716 3584 
Q 2034 3584 2315 3537 
Q 2597 3491 2834 3397 
z
" transform="scale(0.015625)"/>
      <path id="DejaVuSans-51" d="M 2522 4238 
Q 1834 4238 1429 3725 
Q 1025 3213 1025 2328 
Q 1025 1447 1429 934 
Q 1834 422 2522 422 
Q 3209 422 3611 934 
Q 4013 1447 4013 2328 
Q 4013 3213 3611 3725 
Q 3209 4238 2522 4238 
z
M 3406 84 
L 4238 -825 
L 3475 -825 
L 2784 -78 
Q 2681 -84 2626 -87 
Q 2572 -91 2522 -91 
Q 1538 -91 948 567 
Q 359 1225 359 2328 
Q 359 3434 948 4092 
Q 1538 4750 2522 4750 
Q 3503 4750 4090 4092 
Q 4678 3434 4678 2328 
Q 4678 1516 4351 937 
Q 4025 359 3406 84 
z
" transform="scale(0.015625)"/>
      <path id="DejaVuSans-3a" d="M 750 794 
L 1409 794 
L 1409 0 
L 750 0 
L 750 794 
z
M 750 3309 
L 1409 3309 
L 1409 2516 
L 750 2516 
L 750 3309 
z
" transform="scale(0.015625)"/>
      <path id="DejaVuSans-50" d="M 1259 4147 
L 1259 2394 
L 2053 2394 
Q 2494 2394 2734 2622 
Q 2975 2850 2975 3272 
Q 2975 3691 2734 3919 
Q 2494 4147 2053 4147 
L 1259 4147 
z
M 628 4666 
L 2053 4666 
Q 2838 4666 3239 4311 
Q 3641 3956 3641 3272 
Q 3641 2581 3239 2228 
Q 2838 1875 2053 1875 
L 1259 1875 
L 1259 0 
L 628 0 
L 628 4666 
z
" transform="scale(0.015625)"/>
      <path id="DejaVuSans-72" d="M 2631 2963 
Q 2534 3019 2420 3045 
Q 2306 3072 2169 3072 
Q 1681 3072 1420 2755 
Q 1159 2438 1159 1844 
L 1159 0 
L 581 0 
L 581 3500 
L 1159 3500 
L 1159 2956 
Q 1341 3275 1631 3429 
Q 1922 3584 2338 3584 
Q 2397 3584 2469 3576 
Q 2541 3569 2628 3553 
L 2631 2963 
z
" transform="scale(0.015625)"/>
      <path id="DejaVuSans-53" d="M 3425 4513 
L 3425 3897 
Q 3066 4069 2747 4153 
Q 2428 4238 2131 4238 
Q 1616 4238 1336 4038 
Q 1056 3838 1056 3469 
Q 1056 3159 1242 3001 
Q 1428 2844 1947 2747 
L 2328 2669 
Q 3034 2534 3370 2195 
Q 3706 1856 3706 1288 
Q 3706 609 3251 259 
Q 2797 -91 1919 -91 
Q 1588 -91 1214 -16 
Q 841 59 441 206 
L 441 856 
Q 825 641 1194 531 
Q 1563 422 1919 422 
Q 2459 422 2753 634 
Q 3047 847 3047 1241 
Q 3047 1584 2836 1778 
Q 2625 1972 2144 2069 
L 1759 2144 
Q 1053 2284 737 2584 
Q 422 2884 422 3419 
Q 422 4038 858 4394 
Q 1294 4750 2059 4750 
Q 2388 4750 2728 4690 
Q 3069 4631 3425 4513 
z
" transform="scale(0.015625)"/>
      <path id="DejaVuSans-71" d="M 947 1747 
Q 947 1113 1208 752 
Q 1469 391 1925 391 
Q 2381 391 2643 752 
Q 2906 1113 2906 1747 
Q 2906 2381 2643 2742 
Q 2381 3103 1925 3103 
Q 1469 3103 1208 2742 
Q 947 2381 947 1747 
z
M 2906 525 
Q 2725 213 2448 61 
Q 2172 -91 1784 -91 
Q 1150 -91 751 415 
Q 353 922 353 1747 
Q 353 2572 751 3078 
Q 1150 3584 1784 3584 
Q 2172 3584 2448 3432 
Q 2725 3281 2906 2969 
L 2906 3500 
L 3481 3500 
L 3481 -1331 
L 2906 -1331 
L 2906 525 
z
" transform="scale(0.015625)"/>
      <path id="DejaVuSans-63" d="M 3122 3366 
L 3122 2828 
Q 2878 2963 2633 3030 
Q 2388 3097 2138 3097 
Q 1578 3097 1268 2742 
Q 959 2388 959 1747 
Q 959 1106 1268 751 
Q 1578 397 2138 397 
Q 2388 397 2633 464 
Q 2878 531 3122 666 
L 3122 134 
Q 2881 22 2623 -34 
Q 2366 -91 2075 -91 
Q 1284 -91 818 406 
Q 353 903 353 1747 
Q 353 2603 823 3093 
Q 1294 3584 2113 3584 
Q 2378 3584 2631 3529 
Q 2884 3475 3122 3366 
z
" transform="scale(0.015625)"/>
     </defs>
     <use xlink:href="#DejaVuSans-46"/>
     <use xlink:href="#DejaVuSans-61" x="48.394531"/>
     <use xlink:href="#DejaVuSans-73" x="109.673828"/>
     <use xlink:href="#DejaVuSans-74" x="161.773438"/>
     <use xlink:href="#DejaVuSans-51" x="200.982422"/>
     <use xlink:href="#DejaVuSans-43" x="279.693359"/>
     <use xlink:href="#DejaVuSans-3a" x="349.517578"/>
     <use xlink:href="#DejaVuSans-20" x="383.208984"/>
     <use xlink:href="#DejaVuSans-50" x="414.996094"/>
     <use xlink:href="#DejaVuSans-65" x="471.673828"/>
     <use xlink:href="#DejaVuSans-72" x="533.197266"/>
     <use xlink:href="#DejaVuSans-20" x="574.310547"/>
     <use xlink:href="#DejaVuSans-53" x="606.097656"/>
     <use xlink:href="#DejaVuSans-65" x="669.574219"/>
     <use xlink:href="#DejaVuSans-71" x="731.097656"/>
     <use xlink:href="#DejaVuSans-75" x="794.574219"/>
     <use xlink:href="#DejaVuSans-65" x="857.953125"/>
     <use xlink:href="#DejaVuSans-6e" x="919.476562"/>
     <use xlink:href="#DejaVuSans-63" x="982.855469"/>
     <use xlink:href="#DejaVuSans-65" x="1037.835938"/>
     <use xlink:href="#DejaVuSans-20" x="1099.359375"/>
     <use xlink:href="#DejaVuSans-47" x="1131.146484"/>
     <use xlink:href="#DejaVuSans-43" x="1208.636719"/>
     <use xlink:href="#DejaVuSans-20" x="1278.460938"/>
     <use xlink:href="#DejaVuSans-43" x="1310.248047"/>
     <use xlink:href="#DejaVuSans-6f" x="1380.072266"/>
     <use xlink:href="#DejaVuSans-6e" x="1441.253906"/>
     <use xlink:href="#DejaVuSans-74" x="1504.632812"/>
     <use xlink:href="#DejaVuSans-65" x="1543.841797"/>
     <use xlink:href="#DejaVuSans-6e" x="1605.365234"/>
     <use xlink:href="#DejaVuSans-74" x="1668.744141"/>
    </g>
   </g>
   <g id="legend_1">
    <g id="line2d_21">
     <path d="M 47.800625 291.525394 
L 55.800625 291.525394 
L 63.800625 291.525394 
" style="fill: none; stroke: #d9534f; stroke-linecap: square"/>
    </g>
    <g id="text_18">
     <!-- TK9_1_22GH5GLT3_AGAGAACCTA-GGTTATGCTA_L002_T1_1 -->
     <g transform="translate(70.200625 294.325394) scale(0.08 -0.08)">
      <defs>
       <path id="DejaVuSans-54" d="M -19 4666 
L 3928 4666 
L 3928 4134 
L 2272 4134 
L 2272 0 
L 1638 0 
L 1638 4134 
L -19 4134 
L -19 4666 
z
" transform="scale(0.015625)"/>
       <path id="DejaVuSans-4b" d="M 628 4666 
L 1259 4666 
L 1259 2694 
L 3353 4666 
L 4166 4666 
L 1850 2491 
L 4331 0 
L 3500 0 
L 1259 2247 
L 1259 0 
L 628 0 
L 628 4666 
z
" transform="scale(0.015625)"/>
       <path id="DejaVuSans-39" d="M 703 97 
L 703 672 
Q 941 559 1184 500 
Q 1428 441 1663 441 
Q 2288 441 2617 861 
Q 2947 1281 2994 2138 
Q 2813 1869 2534 1725 
Q 2256 1581 1919 1581 
Q 1219 1581 811 2004 
Q 403 2428 403 3163 
Q 403 3881 828 4315 
Q 1253 4750 1959 4750 
Q 2769 4750 3195 4129 
Q 3622 3509 3622 2328 
Q 3622 1225 3098 567 
Q 2575 -91 1691 -91 
Q 1453 -91 1209 -44 
Q 966 3 703 97 
z
M 1959 2075 
Q 2384 2075 2632 2365 
Q 2881 2656 2881 3163 
Q 2881 3666 2632 3958 
Q 2384 4250 1959 4250 
Q 1534 4250 1286 3958 
Q 1038 3666 1038 3163 
Q 1038 2656 1286 2365 
Q 1534 2075 1959 2075 
z
" transform="scale(0.015625)"/>
       <path id="DejaVuSans-5f" d="M 3263 -1063 
L 3263 -1509 
L -63 -1509 
L -63 -1063 
L 3263 -1063 
z
" transform="scale(0.015625)"/>
       <path id="DejaVuSans-48" d="M 628 4666 
L 1259 4666 
L 1259 2753 
L 3553 2753 
L 3553 4666 
L 4184 4666 
L 4184 0 
L 3553 0 
L 3553 2222 
L 1259 2222 
L 1259 0 
L 628 0 
L 628 4666 
z
" transform="scale(0.015625)"/>
       <path id="DejaVuSans-4c" d="M 628 4666 
L 1259 4666 
L 1259 531 
L 3531 531 
L 3531 0 
L 628 0 
L 628 4666 
z
" transform="scale(0.015625)"/>
       <path id="DejaVuSans-41" d="M 2188 4044 
L 1331 1722 
L 3047 1722 
L 2188 4044 
z
M 1831 4666 
L 2547 4666 
L 4325 0 
L 3669 0 
L 3244 1197 
L 1141 1197 
L 716 0 
L 50 0 
L 1831 4666 
z
" transform="scale(0.015625)"/>
       <path id="DejaVuSans-2d" d="M 313 2009 
L 1997 2009 
L 1997 1497 
L 313 1497 
L 313 2009 
z
" transform="scale(0.015625)"/>
      </defs>
      <use xlink:href="#DejaVuSans-54"/>
      <use xlink:href="#DejaVuSans-4b" x="61.083984"/>
      <use xlink:href="#DejaVuSans-39" x="126.660156"/>
      <use xlink:href="#DejaVuSans-5f" x="190.283203"/>
      <use xlink:href="#DejaVuSans-31" x="240.283203"/>
      <use xlink:href="#DejaVuSans-5f" x="303.90625"/>
      <use xlink:href="#DejaVuSans-32" x="353.90625"/>
      <use xlink:href="#DejaVuSans-32" x="417.529297"/>
      <use xlink:href="#DejaVuSans-47" x="481.152344"/>
      <use xlink:href="#DejaVuSans-48" x="558.642578"/>
      <use xlink:href="#DejaVuSans-35" x="633.837891"/>
      <use xlink:href="#DejaVuSans-47" x="697.460938"/>
      <use xlink:href="#DejaVuSans-4c" x="774.951172"/>
      <use xlink:href="#DejaVuSans-54" x="816.914062"/>
      <use xlink:href="#DejaVuSans-33" x="877.998047"/>
      <use xlink:href="#DejaVuSans-5f" x="941.621094"/>
      <use xlink:href="#DejaVuSans-41" x="991.621094"/>
      <use xlink:href="#DejaVuSans-47" x="1058.279297"/>
      <use xlink:href="#DejaVuSans-41" x="1135.769531"/>
      <use xlink:href="#DejaVuSans-47" x="1202.427734"/>
      <use xlink:href="#DejaVuSans-41" x="1279.917969"/>
      <use xlink:href="#DejaVuSans-41" x="1351.076172"/>
      <use xlink:href="#DejaVuSans-43" x="1417.734375"/>
      <use xlink:href="#DejaVuSans-43" x="1487.558594"/>
      <use xlink:href="#DejaVuSans-54" x="1557.382812"/>
      <use xlink:href="#DejaVuSans-41" x="1610.716797"/>
      <use xlink:href="#DejaVuSans-2d" x="1676.875"/>
      <use xlink:href="#DejaVuSans-47" x="1716.583984"/>
      <use xlink:href="#DejaVuSans-47" x="1794.074219"/>
      <use xlink:href="#DejaVuSans-54" x="1867.939453"/>
      <use xlink:href="#DejaVuSans-54" x="1927.273438"/>
      <use xlink:href="#DejaVuSans-41" x="1980.607422"/>
      <use xlink:href="#DejaVuSans-54" x="2041.265625"/>
      <use xlink:href="#DejaVuSans-47" x="2102.349609"/>
      <use xlink:href="#DejaVuSans-43" x="2179.839844"/>
      <use xlink:href="#DejaVuSans-54" x="2249.664062"/>
      <use xlink:href="#DejaVuSans-41" x="2302.998047"/>
      <use xlink:href="#DejaVuSans-5f" x="2371.40625"/>
      <use xlink:href="#DejaVuSans-4c" x="2421.40625"/>
      <use xlink:href="#DejaVuSans-30" x="2477.119141"/>
      <use xlink:href="#DejaVuSans-30" x="2540.742188"/>
      <use xlink:href="#DejaVuSans-32" x="2604.365234"/>
      <use xlink:href="#DejaVuSans-5f" x="2667.988281"/>
      <use xlink:href="#DejaVuSans-54" x="2717.988281"/>
      <use xlink:href="#DejaVuSans-31" x="2779.072266"/>
      <use xlink:href="#DejaVuSans-5f" x="2842.695312"/>
      <use xlink:href="#DejaVuSans-31" x="2892.695312"/>
     </g>
    </g>
    <g id="line2d_22">
     <path d="M 47.800625 303.490394 
L 55.800625 303.490394 
L 63.800625 303.490394 
" style="fill: none; stroke: #d9534f; stroke-linecap: square"/>
    </g>
    <g id="text_19">
     <!-- TK9_1_22GH5GLT3_AGAGAACCTA-GGTTATGCTA_L002_T1_2 -->
     <g transform="translate(70.200625 306.290394) scale(0.08 -0.08)">
      <use xlink:href="#DejaVuSans-54"/>
      <use xlink:href="#DejaVuSans-4b" x="61.083984"/>
      <use xlink:href="#DejaVuSans-39" x="126.660156"/>
      <use xlink:href="#DejaVuSans-5f" x="190.283203"/>
      <use xlink:href="#DejaVuSans-31" x="240.283203"/>
      <use xlink:href="#DejaVuSans-5f" x="303.90625"/>
      <use xlink:href="#DejaVuSans-32" x="353.90625"/>
      <use xlink:href="#DejaVuSans-32" x="417.529297"/>
      <use xlink:href="#DejaVuSans-47" x="481.152344"/>
      <use xlink:href="#DejaVuSans-48" x="558.642578"/>
      <use xlink:href="#DejaVuSans-35" x="633.837891"/>
      <use xlink:href="#DejaVuSans-47" x="697.460938"/>
      <use xlink:href="#DejaVuSans-4c" x="774.951172"/>
      <use xlink:href="#DejaVuSans-54" x="816.914062"/>
      <use xlink:href="#DejaVuSans-33" x="877.998047"/>
      <use xlink:href="#DejaVuSans-5f" x="941.621094"/>
      <use xlink:href="#DejaVuSans-41" x="991.621094"/>
      <use xlink:href="#DejaVuSans-47" x="1058.279297"/>
      <use xlink:href="#DejaVuSans-41" x="1135.769531"/>
      <use xlink:href="#DejaVuSans-47" x="1202.427734"/>
      <use xlink:href="#DejaVuSans-41" x="1279.917969"/>
      <use xlink:href="#DejaVuSans-41" x="1351.076172"/>
      <use xlink:href="#DejaVuSans-43" x="1417.734375"/>
      <use xlink:href="#DejaVuSans-43" x="1487.558594"/>
      <use xlink:href="#DejaVuSans-54" x="1557.382812"/>
      <use xlink:href="#DejaVuSans-41" x="1610.716797"/>
      <use xlink:href="#DejaVuSans-2d" x="1676.875"/>
      <use xlink:href="#DejaVuSans-47" x="1716.583984"/>
      <use xlink:href="#DejaVuSans-47" x="1794.074219"/>
      <use xlink:href="#DejaVuSans-54" x="1867.939453"/>
      <use xlink:href="#DejaVuSans-54" x="1927.273438"/>
      <use xlink:href="#DejaVuSans-41" x="1980.607422"/>
      <use xlink:href="#DejaVuSans-54" x="2041.265625"/>
      <use xlink:href="#DejaVuSans-47" x="2102.349609"/>
      <use xlink:href="#DejaVuSans-43" x="2179.839844"/>
      <use xlink:href="#DejaVuSans-54" x="2249.664062"/>
      <use xlink:href="#DejaVuSans-41" x="2302.998047"/>
      <use xlink:href="#DejaVuSans-5f" x="2371.40625"/>
      <use xlink:href="#DejaVuSans-4c" x="2421.40625"/>
      <use xlink:href="#DejaVuSans-30" x="2477.119141"/>
      <use xlink:href="#DejaVuSans-30" x="2540.742188"/>
      <use xlink:href="#DejaVuSans-32" x="2604.365234"/>
      <use xlink:href="#DejaVuSans-5f" x="2667.988281"/>
      <use xlink:href="#DejaVuSans-54" x="2717.988281"/>
      <use xlink:href="#DejaVuSans-31" x="2779.072266"/>
      <use xlink:href="#DejaVuSans-5f" x="2842.695312"/>
      <use xlink:href="#DejaVuSans-32" x="2892.695312"/>
     </g>
    </g>
    <g id="line2d_23">
     <path d="M 47.800625 315.455394 
L 55.800625 315.455394 
L 63.800625 315.455394 
" style="fill: none; stroke: #d9534f; stroke-linecap: square"/>
    </g>
    <g id="text_20">
     <!-- TK9_1_22GH5GLT3_AGAGAACCTA-GGTTATGCTA_L003_T1_1 -->
     <g transform="translate(70.200625 318.255394) scale(0.08 -0.08)">
      <use xlink:href="#DejaVuSans-54"/>
      <use xlink:href="#DejaVuSans-4b" x="61.083984"/>
      <use xlink:href="#DejaVuSans-39" x="126.660156"/>
      <use xlink:href="#DejaVuSans-5f" x="190.283203"/>
      <use xlink:href="#DejaVuSans-31" x="240.283203"/>
      <use xlink:href="#DejaVuSans-5f" x="303.90625"/>
      <use xlink:href="#DejaVuSans-32" x="353.90625"/>
      <use xlink:href="#DejaVuSans-32" x="417.529297"/>
      <use xlink:href="#DejaVuSans-47" x="481.152344"/>
      <use xlink:href="#DejaVuSans-48" x="558.642578"/>
      <use xlink:href="#DejaVuSans-35" x="633.837891"/>
      <use xlink:href="#DejaVuSans-47" x="697.460938"/>
      <use xlink:href="#DejaVuSans-4c" x="774.951172"/>
      <use xlink:href="#DejaVuSans-54" x="816.914062"/>
      <use xlink:href="#DejaVuSans-33" x="877.998047"/>
      <use xlink:href="#DejaVuSans-5f" x="941.621094"/>
      <use xlink:href="#DejaVuSans-41" x="991.621094"/>
      <use xlink:href="#DejaVuSans-47" x="1058.279297"/>
      <use xlink:href="#DejaVuSans-41" x="1135.769531"/>
      <use xlink:href="#DejaVuSans-47" x="1202.427734"/>
      <use xlink:href="#DejaVuSans-41" x="1279.917969"/>
      <use xlink:href="#DejaVuSans-41" x="1351.076172"/>
      <use xlink:href="#DejaVuSans-43" x="1417.734375"/>
      <use xlink:href="#DejaVuSans-43" x="1487.558594"/>
      <use xlink:href="#DejaVuSans-54" x="1557.382812"/>
      <use xlink:href="#DejaVuSans-41" x="1610.716797"/>
      <use xlink:href="#DejaVuSans-2d" x="1676.875"/>
      <use xlink:href="#DejaVuSans-47" x="1716.583984"/>
      <use xlink:href="#DejaVuSans-47" x="1794.074219"/>
      <use xlink:href="#DejaVuSans-54" x="1867.939453"/>
      <use xlink:href="#DejaVuSans-54" x="1927.273438"/>
      <use xlink:href="#DejaVuSans-41" x="1980.607422"/>
      <use xlink:href="#DejaVuSans-54" x="2041.265625"/>
      <use xlink:href="#DejaVuSans-47" x="2102.349609"/>
      <use xlink:href="#DejaVuSans-43" x="2179.839844"/>
      <use xlink:href="#DejaVuSans-54" x="2249.664062"/>
      <use xlink:href="#DejaVuSans-41" x="2302.998047"/>
      <use xlink:href="#DejaVuSans-5f" x="2371.40625"/>
      <use xlink:href="#DejaVuSans-4c" x="2421.40625"/>
      <use xlink:href="#DejaVuSans-30" x="2477.119141"/>
      <use xlink:href="#DejaVuSans-30" x="2540.742188"/>
      <use xlink:href="#DejaVuSans-33" x="2604.365234"/>
      <use xlink:href="#DejaVuSans-5f" x="2667.988281"/>
      <use xlink:href="#DejaVuSans-54" x="2717.988281"/>
      <use xlink:href="#DejaVuSans-31" x="2779.072266"/>
      <use xlink:href="#DejaVuSans-5f" x="2842.695312"/>
      <use xlink:href="#DejaVuSans-31" x="2892.695312"/>
     </g>
    </g>
    <g id="line2d_24">
     <path d="M 214.167812 291.525394 
L 222.167812 291.525394 
L 230.167812 291.525394 
" style="fill: none; stroke: #d9534f; stroke-linecap: square"/>
    </g>
    <g id="text_21">
     <!-- TK9_1_22GH5GLT3_AGAGAACCTA-GGTTATGCTA_L003_T1_2 -->
     <g transform="translate(236.567812 294.325394) scale(0.08 -0.08)">
      <use xlink:href="#DejaVuSans-54"/>
      <use xlink:href="#DejaVuSans-4b" x="61.083984"/>
      <use xlink:href="#DejaVuSans-39" x="126.660156"/>
      <use xlink:href="#DejaVuSans-5f" x="190.283203"/>
      <use xlink:href="#DejaVuSans-31" x="240.283203"/>
      <use xlink:href="#DejaVuSans-5f" x="303.90625"/>
      <use xlink:href="#DejaVuSans-32" x="353.90625"/>
      <use xlink:href="#DejaVuSans-32" x="417.529297"/>
      <use xlink:href="#DejaVuSans-47" x="481.152344"/>
      <use xlink:href="#DejaVuSans-48" x="558.642578"/>
      <use xlink:href="#DejaVuSans-35" x="633.837891"/>
      <use xlink:href="#DejaVuSans-47" x="697.460938"/>
      <use xlink:href="#DejaVuSans-4c" x="774.951172"/>
      <use xlink:href="#DejaVuSans-54" x="816.914062"/>
      <use xlink:href="#DejaVuSans-33" x="877.998047"/>
      <use xlink:href="#DejaVuSans-5f" x="941.621094"/>
      <use xlink:href="#DejaVuSans-41" x="991.621094"/>
      <use xlink:href="#DejaVuSans-47" x="1058.279297"/>
      <use xlink:href="#DejaVuSans-41" x="1135.769531"/>
      <use xlink:href="#DejaVuSans-47" x="1202.427734"/>
      <use xlink:href="#DejaVuSans-41" x="1279.917969"/>
      <use xlink:href="#DejaVuSans-41" x="1351.076172"/>
      <use xlink:href="#DejaVuSans-43" x="1417.734375"/>
      <use xlink:href="#DejaVuSans-43" x="1487.558594"/>
      <use xlink:href="#DejaVuSans-54" x="1557.382812"/>
      <use xlink:href="#DejaVuSans-41" x="1610.716797"/>
      <use xlink:href="#DejaVuSans-2d" x="1676.875"/>
      <use xlink:href="#DejaVuSans-47" x="1716.583984"/>
      <use xlink:href="#DejaVuSans-47" x="1794.074219"/>
      <use xlink:href="#DejaVuSans-54" x="1867.939453"/>
      <use xlink:href="#DejaVuSans-54" x="1927.273438"/>
      <use xlink:href="#DejaVuSans-41" x="1980.607422"/>
      <use xlink:href="#DejaVuSans-54" x="2041.265625"/>
      <use xlink:href="#DejaVuSans-47" x="2102.349609"/>
      <use xlink:href="#DejaVuSans-43" x="2179.839844"/>
      <use xlink:href="#DejaVuSans-54" x="2249.664062"/>
      <use xlink:href="#DejaVuSans-41" x="2302.998047"/>
      <use xlink:href="#DejaVuSans-5f" x="2371.40625"/>
      <use xlink:href="#DejaVuSans-4c" x="2421.40625"/>
      <use xlink:href="#DejaVuSans-30" x="2477.119141"/>
      <use xlink:href="#DejaVuSans-30" x="2540.742188"/>
      <use xlink:href="#DejaVuSans-33" x="2604.365234"/>
      <use xlink:href="#DejaVuSans-5f" x="2667.988281"/>
      <use xlink:href="#DejaVuSans-54" x="2717.988281"/>
      <use xlink:href="#DejaVuSans-31" x="2779.072266"/>
      <use xlink:href="#DejaVuSans-5f" x="2842.695312"/>
      <use xlink:href="#DejaVuSans-32" x="2892.695312"/>
     </g>
    </g>
    <g id="line2d_25">
     <path d="M 214.167812 303.490394 
L 222.167812 303.490394 
L 230.167812 303.490394 
" style="fill: none; stroke: #d9534f; stroke-linecap: square"/>
    </g>
    <g id="text_22">
     <!-- TK9_2_22GH5GLT3_GATATTGTGT-ACCACACGGT_L002_T1_1 -->
     <g transform="translate(236.567812 306.290394) scale(0.08 -0.08)">
      <use xlink:href="#DejaVuSans-54"/>
      <use xlink:href="#DejaVuSans-4b" x="61.083984"/>
      <use xlink:href="#DejaVuSans-39" x="126.660156"/>
      <use xlink:href="#DejaVuSans-5f" x="190.283203"/>
      <use xlink:href="#DejaVuSans-32" x="240.283203"/>
      <use xlink:href="#DejaVuSans-5f" x="303.90625"/>
      <use xlink:href="#DejaVuSans-32" x="353.90625"/>
      <use xlink:href="#DejaVuSans-32" x="417.529297"/>
      <use xlink:href="#DejaVuSans-47" x="481.152344"/>
      <use xlink:href="#DejaVuSans-48" x="558.642578"/>
      <use xlink:href="#DejaVuSans-35" x="633.837891"/>
      <use xlink:href="#DejaVuSans-47" x="697.460938"/>
      <use xlink:href="#DejaVuSans-4c" x="774.951172"/>
      <use xlink:href="#DejaVuSans-54" x="816.914062"/>
      <use xlink:href="#DejaVuSans-33" x="877.998047"/>
      <use xlink:href="#DejaVuSans-5f" x="941.621094"/>
      <use xlink:href="#DejaVuSans-47" x="991.621094"/>
      <use xlink:href="#DejaVuSans-41" x="1069.111328"/>
      <use xlink:href="#DejaVuSans-54" x="1129.769531"/>
      <use xlink:href="#DejaVuSans-41" x="1183.103516"/>
      <use xlink:href="#DejaVuSans-54" x="1243.761719"/>
      <use xlink:href="#DejaVuSans-54" x="1303.095703"/>
      <use xlink:href="#DejaVuSans-47" x="1364.179688"/>
      <use xlink:href="#DejaVuSans-54" x="1438.044922"/>
      <use xlink:href="#DejaVuSans-47" x="1499.128906"/>
      <use xlink:href="#DejaVuSans-54" x="1572.994141"/>
      <use xlink:href="#DejaVuSans-2d" x="1624.953125"/>
      <use xlink:href="#DejaVuSans-41" x="1658.787109"/>
      <use xlink:href="#DejaVuSans-43" x="1725.445312"/>
      <use xlink:href="#DejaVuSans-43" x="1795.269531"/>
      <use xlink:href="#DejaVuSans-41" x="1865.09375"/>
      <use xlink:href="#DejaVuSans-43" x="1931.751953"/>
      <use xlink:href="#DejaVuSans-41" x="2001.576172"/>
      <use xlink:href="#DejaVuSans-43" x="2068.234375"/>
      <use xlink:href="#DejaVuSans-47" x="2138.058594"/>
      <use xlink:href="#DejaVuSans-47" x="2215.548828"/>
      <use xlink:href="#DejaVuSans-54" x="2289.414062"/>
      <use xlink:href="#DejaVuSans-5f" x="2350.498047"/>
      <use xlink:href="#DejaVuSans-4c" x="2400.498047"/>
      <use xlink:href="#DejaVuSans-30" x="2456.210938"/>
      <use xlink:href="#DejaVuSans-30" x="2519.833984"/>
      <use xlink:href="#DejaVuSans-32" x="2583.457031"/>
      <use xlink:href="#DejaVuSans-5f" x="2647.080078"/>
      <use xlink:href="#DejaVuSans-54" x="2697.080078"/>
      <use xlink:href="#DejaVuSans-31" x="2758.164062"/>
      <use xlink:href="#DejaVuSans-5f" x="2821.787109"/>
      <use xlink:href="#DejaVuSans-31" x="2871.787109"/>
     </g>
    </g>
    <g id="line2d_26">
     <path d="M 214.167812 315.455394 
L 222.167812 315.455394 
L 230.167812 315.455394 
" style="fill: none; stroke: #d9534f; stroke-linecap: square"/>
    </g>
    <g id="text_23">
     <!-- TK9_2_22GH5GLT3_GATATTGTGT-ACCACACGGT_L002_T1_2 -->
     <g transform="translate(236.567812 318.255394) scale(0.08 -0.08)">
      <use xlink:href="#DejaVuSans-54"/>
      <use xlink:href="#DejaVuSans-4b" x="61.083984"/>
      <use xlink:href="#DejaVuSans-39" x="126.660156"/>
      <use xlink:href="#DejaVuSans-5f" x="190.283203"/>
      <use xlink:href="#DejaVuSans-32" x="240.283203"/>
      <use xlink:href="#DejaVuSans-5f" x="303.90625"/>
      <use xlink:href="#DejaVuSans-32" x="353.90625"/>
      <use xlink:href="#DejaVuSans-32" x="417.529297"/>
      <use xlink:href="#DejaVuSans-47" x="481.152344"/>
      <use xlink:href="#DejaVuSans-48" x="558.642578"/>
      <use xlink:href="#DejaVuSans-35" x="633.837891"/>
      <use xlink:href="#DejaVuSans-47" x="697.460938"/>
      <use xlink:href="#DejaVuSans-4c" x="774.951172"/>
      <use xlink:href="#DejaVuSans-54" x="816.914062"/>
      <use xlink:href="#DejaVuSans-33" x="877.998047"/>
      <use xlink:href="#DejaVuSans-5f" x="941.621094"/>
      <use xlink:href="#DejaVuSans-47" x="991.621094"/>
      <use xlink:href="#DejaVuSans-41" x="1069.111328"/>
      <use xlink:href="#DejaVuSans-54" x="1129.769531"/>
      <use xlink:href="#DejaVuSans-41" x="1183.103516"/>
      <use xlink:href="#DejaVuSans-54" x="1243.761719"/>
      <use xlink:href="#DejaVuSans-54" x="1303.095703"/>
      <use xlink:href="#DejaVuSans-47" x="1364.179688"/>
      <use xlink:href="#DejaVuSans-54" x="1438.044922"/>
      <use xlink:href="#DejaVuSans-47" x="1499.128906"/>
      <use xlink:href="#DejaVuSans-54" x="1572.994141"/>
      <use xlink:href="#DejaVuSans-2d" x="1624.953125"/>
      <use xlink:href="#DejaVuSans-41" x="1658.787109"/>
      <use xlink:href="#DejaVuSans-43" x="1725.445312"/>
      <use xlink:href="#DejaVuSans-43" x="1795.269531"/>
      <use xlink:href="#DejaVuSans-41" x="1865.09375"/>
      <use xlink:href="#DejaVuSans-43" x="1931.751953"/>
      <use xlink:href="#DejaVuSans-41" x="2001.576172"/>
      <use xlink:href="#DejaVuSans-43" x="2068.234375"/>
      <use xlink:href="#DejaVuSans-47" x="2138.058594"/>
      <use xlink:href="#DejaVuSans-47" x="2215.548828"/>
      <use xlink:href="#DejaVuSans-54" x="2289.414062"/>
      <use xlink:href="#DejaVuSans-5f" x="2350.498047"/>
      <use xlink:href="#DejaVuSans-4c" x="2400.498047"/>
      <use xlink:href="#DejaVuSans-30" x="2456.210938"/>
      <use xlink:href="#DejaVuSans-30" x="2519.833984"/>
      <use xlink:href="#DejaVuSans-32" x="2583.457031"/>
      <use xlink:href="#DejaVuSans-5f" x="2647.080078"/>
      <use xlink:href="#DejaVuSans-54" x="2697.080078"/>
      <use xlink:href="#DejaVuSans-31" x="2758.164062"/>
      <use xlink:href="#DejaVuSans-5f" x="2821.787109"/>
      <use xlink:href="#DejaVuSans-32" x="2871.787109"/>
     </g>
    </g>
    <g id="line2d_27">
     <path d="M 380.535 291.525394 
L 388.535 291.525394 
L 396.535 291.525394 
" style="fill: none; stroke: #d9534f; stroke-linecap: square"/>
    </g>
    <g id="text_24">
     <!-- TK9_2_22GH5GLT3_GATATTGTGT-ACCACACGGT_L003_T1_1 -->
     <g transform="translate(402.935 294.325394) scale(0.08 -0.08)">
      <use xlink:href="#DejaVuSans-54"/>
      <use xlink:href="#DejaVuSans-4b" x="61.083984"/>
      <use xlink:href="#DejaVuSans-39" x="126.660156"/>
      <use xlink:href="#DejaVuSans-5f" x="190.283203"/>
      <use xlink:href="#DejaVuSans-32" x="240.283203"/>
      <use xlink:href="#DejaVuSans-5f" x="303.90625"/>
      <use xlink:href="#DejaVuSans-32" x="353.90625"/>
      <use xlink:href="#DejaVuSans-32" x="417.529297"/>
      <use xlink:href="#DejaVuSans-47" x="481.152344"/>
      <use xlink:href="#DejaVuSans-48" x="558.642578"/>
      <use xlink:href="#DejaVuSans-35" x="633.837891"/>
      <use xlink:href="#DejaVuSans-47" x="697.460938"/>
      <use xlink:href="#DejaVuSans-4c" x="774.951172"/>
      <use xlink:href="#DejaVuSans-54" x="816.914062"/>
      <use xlink:href="#DejaVuSans-33" x="877.998047"/>
      <use xlink:href="#DejaVuSans-5f" x="941.621094"/>
      <use xlink:href="#DejaVuSans-47" x="991.621094"/>
      <use xlink:href="#DejaVuSans-41" x="1069.111328"/>
      <use xlink:href="#DejaVuSans-54" x="1129.769531"/>
      <use xlink:href="#DejaVuSans-41" x="1183.103516"/>
      <use xlink:href="#DejaVuSans-54" x="1243.761719"/>
      <use xlink:href="#DejaVuSans-54" x="1303.095703"/>
      <use xlink:href="#DejaVuSans-47" x="1364.179688"/>
      <use xlink:href="#DejaVuSans-54" x="1438.044922"/>
      <use xlink:href="#DejaVuSans-47" x="1499.128906"/>
      <use xlink:href="#DejaVuSans-54" x="1572.994141"/>
      <use xlink:href="#DejaVuSans-2d" x="1624.953125"/>
      <use xlink:href="#DejaVuSans-41" x="1658.787109"/>
      <use xlink:href="#DejaVuSans-43" x="1725.445312"/>
      <use xlink:href="#DejaVuSans-43" x="1795.269531"/>
      <use xlink:href="#DejaVuSans-41" x="1865.09375"/>
      <use xlink:href="#DejaVuSans-43" x="1931.751953"/>
      <use xlink:href="#DejaVuSans-41" x="2001.576172"/>
      <use xlink:href="#DejaVuSans-43" x="2068.234375"/>
      <use xlink:href="#DejaVuSans-47" x="2138.058594"/>
      <use xlink:href="#DejaVuSans-47" x="2215.548828"/>
      <use xlink:href="#DejaVuSans-54" x="2289.414062"/>
      <use xlink:href="#DejaVuSans-5f" x="2350.498047"/>
      <use xlink:href="#DejaVuSans-4c" x="2400.498047"/>
      <use xlink:href="#DejaVuSans-30" x="2456.210938"/>
      <use xlink:href="#DejaVuSans-30" x="2519.833984"/>
      <use xlink:href="#DejaVuSans-33" x="2583.457031"/>
      <use xlink:href="#DejaVuSans-5f" x="2647.080078"/>
      <use xlink:href="#DejaVuSans-54" x="2697.080078"/>
      <use xlink:href="#DejaVuSans-31" x="2758.164062"/>
      <use xlink:href="#DejaVuSans-5f" x="2821.787109"/>
      <use xlink:href="#DejaVuSans-31" x="2871.787109"/>
     </g>
    </g>
    <g id="line2d_28">
     <path d="M 380.535 303.490394 
L 388.535 303.490394 
L 396.535 303.490394 
" style="fill: none; stroke: #d9534f; stroke-linecap: square"/>
    </g>
    <g id="text_25">
     <!-- TK9_2_22GH5GLT3_GATATTGTGT-ACCACACGGT_L003_T1_2 -->
     <g transform="translate(402.935 306.290394) scale(0.08 -0.08)">
      <use xlink:href="#DejaVuSans-54"/>
      <use xlink:href="#DejaVuSans-4b" x="61.083984"/>
      <use xlink:href="#DejaVuSans-39" x="126.660156"/>
      <use xlink:href="#DejaVuSans-5f" x="190.283203"/>
      <use xlink:href="#DejaVuSans-32" x="240.283203"/>
      <use xlink:href="#DejaVuSans-5f" x="303.90625"/>
      <use xlink:href="#DejaVuSans-32" x="353.90625"/>
      <use xlink:href="#DejaVuSans-32" x="417.529297"/>
      <use xlink:href="#DejaVuSans-47" x="481.152344"/>
      <use xlink:href="#DejaVuSans-48" x="558.642578"/>
      <use xlink:href="#DejaVuSans-35" x="633.837891"/>
      <use xlink:href="#DejaVuSans-47" x="697.460938"/>
      <use xlink:href="#DejaVuSans-4c" x="774.951172"/>
      <use xlink:href="#DejaVuSans-54" x="816.914062"/>
      <use xlink:href="#DejaVuSans-33" x="877.998047"/>
      <use xlink:href="#DejaVuSans-5f" x="941.621094"/>
      <use xlink:href="#DejaVuSans-47" x="991.621094"/>
      <use xlink:href="#DejaVuSans-41" x="1069.111328"/>
      <use xlink:href="#DejaVuSans-54" x="1129.769531"/>
      <use xlink:href="#DejaVuSans-41" x="1183.103516"/>
      <use xlink:href="#DejaVuSans-54" x="1243.761719"/>
      <use xlink:href="#DejaVuSans-54" x="1303.095703"/>
      <use xlink:href="#DejaVuSans-47" x="1364.179688"/>
      <use xlink:href="#DejaVuSans-54" x="1438.044922"/>
      <use xlink:href="#DejaVuSans-47" x="1499.128906"/>
      <use xlink:href="#DejaVuSans-54" x="1572.994141"/>
      <use xlink:href="#DejaVuSans-2d" x="1624.953125"/>
      <use xlink:href="#DejaVuSans-41" x="1658.787109"/>
      <use xlink:href="#DejaVuSans-43" x="1725.445312"/>
      <use xlink:href="#DejaVuSans-43" x="1795.269531"/>
      <use xlink:href="#DejaVuSans-41" x="1865.09375"/>
      <use xlink:href="#DejaVuSans-43" x="1931.751953"/>
      <use xlink:href="#DejaVuSans-41" x="2001.576172"/>
      <use xlink:href="#DejaVuSans-43" x="2068.234375"/>
      <use xlink:href="#DejaVuSans-47" x="2138.058594"/>
      <use xlink:href="#DejaVuSans-47" x="2215.548828"/>
      <use xlink:href="#DejaVuSans-54" x="2289.414062"/>
      <use xlink:href="#DejaVuSans-5f" x="2350.498047"/>
      <use xlink:href="#DejaVuSans-4c" x="2400.498047"/>
      <use xlink:href="#DejaVuSans-30" x="2456.210938"/>
      <use xlink:href="#DejaVuSans-30" x="2519.833984"/>
      <use xlink:href="#DejaVuSans-33" x="2583.457031"/>
      <use xlink:href="#DejaVuSans-5f" x="2647.080078"/>
      <use xlink:href="#DejaVuSans-54" x="2697.080078"/>
      <use xlink:href="#DejaVuSans-31" x="2758.164062"/>
      <use xlink:href="#DejaVuSans-5f" x="2821.787109"/>
      <use xlink:href="#DejaVuSans-32" x="2871.787109"/>
     </g>
    </g>
    <g id="line2d_29">
     <path d="M 545.229687 291.525394 
L 553.229687 291.525394 
L 561.229687 291.525394 
" style="fill: none; stroke: #d9534f; stroke-linecap: square"/>
    </g>
    <g id="text_26">
     <!-- TK9_3_22GH5GLT3_GGCGCCATTG-ACCGCGCAAT_L002_T1_1 -->
     <g transform="translate(567.629687 294.325394) scale(0.08 -0.08)">
      <use xlink:href="#DejaVuSans-54"/>
      <use xlink:href="#DejaVuSans-4b" x="61.083984"/>
      <use xlink:href="#DejaVuSans-39" x="126.660156"/>
      <use xlink:href="#DejaVuSans-5f" x="190.283203"/>
      <use xlink:href="#DejaVuSans-33" x="240.283203"/>
      <use xlink:href="#DejaVuSans-5f" x="303.90625"/>
      <use xlink:href="#DejaVuSans-32" x="353.90625"/>
      <use xlink:href="#DejaVuSans-32" x="417.529297"/>
      <use xlink:href="#DejaVuSans-47" x="481.152344"/>
      <use xlink:href="#DejaVuSans-48" x="558.642578"/>
      <use xlink:href="#DejaVuSans-35" x="633.837891"/>
      <use xlink:href="#DejaVuSans-47" x="697.460938"/>
      <use xlink:href="#DejaVuSans-4c" x="774.951172"/>
      <use xlink:href="#DejaVuSans-54" x="816.914062"/>
      <use xlink:href="#DejaVuSans-33" x="877.998047"/>
      <use xlink:href="#DejaVuSans-5f" x="941.621094"/>
      <use xlink:href="#DejaVuSans-47" x="991.621094"/>
      <use xlink:href="#DejaVuSans-47" x="1069.111328"/>
      <use xlink:href="#DejaVuSans-43" x="1146.601562"/>
      <use xlink:href="#DejaVuSans-47" x="1216.425781"/>
      <use xlink:href="#DejaVuSans-43" x="1293.916016"/>
      <use xlink:href="#DejaVuSans-43" x="1363.740234"/>
      <use xlink:href="#DejaVuSans-41" x="1433.564453"/>
      <use xlink:href="#DejaVuSans-54" x="1494.222656"/>
      <use xlink:href="#DejaVuSans-54" x="1553.556641"/>
      <use xlink:href="#DejaVuSans-47" x="1614.640625"/>
      <use xlink:href="#DejaVuSans-2d" x="1692.130859"/>
      <use xlink:href="#DejaVuSans-41" x="1725.964844"/>
      <use xlink:href="#DejaVuSans-43" x="1792.623047"/>
      <use xlink:href="#DejaVuSans-43" x="1862.447266"/>
      <use xlink:href="#DejaVuSans-47" x="1932.271484"/>
      <use xlink:href="#DejaVuSans-43" x="2009.761719"/>
      <use xlink:href="#DejaVuSans-47" x="2079.585938"/>
      <use xlink:href="#DejaVuSans-43" x="2157.076172"/>
      <use xlink:href="#DejaVuSans-41" x="2226.900391"/>
      <use xlink:href="#DejaVuSans-41" x="2298.058594"/>
      <use xlink:href="#DejaVuSans-54" x="2358.716797"/>
      <use xlink:href="#DejaVuSans-5f" x="2419.800781"/>
      <use xlink:href="#DejaVuSans-4c" x="2469.800781"/>
      <use xlink:href="#DejaVuSans-30" x="2525.513672"/>
      <use xlink:href="#DejaVuSans-30" x="2589.136719"/>
      <use xlink:href="#DejaVuSans-32" x="2652.759766"/>
      <use xlink:href="#DejaVuSans-5f" x="2716.382812"/>
      <use xlink:href="#DejaVuSans-54" x="2766.382812"/>
      <use xlink:href="#DejaVuSans-31" x="2827.466797"/>
      <use xlink:href="#DejaVuSans-5f" x="2891.089844"/>
      <use xlink:href="#DejaVuSans-31" x="2941.089844"/>
     </g>
    </g>
    <g id="line2d_30">
     <path d="M 545.229687 303.490394 
L 553.229687 303.490394 
L 561.229687 303.490394 
" style="fill: none; stroke: #d9534f; stroke-linecap: square"/>
    </g>
    <g id="text_27">
     <!-- TK9_3_22GH5GLT3_GGCGCCATTG-ACCGCGCAAT_L002_T1_2 -->
     <g transform="translate(567.629687 306.290394) scale(0.08 -0.08)">
      <use xlink:href="#DejaVuSans-54"/>
      <use xlink:href="#DejaVuSans-4b" x="61.083984"/>
      <use xlink:href="#DejaVuSans-39" x="126.660156"/>
      <use xlink:href="#DejaVuSans-5f" x="190.283203"/>
      <use xlink:href="#DejaVuSans-33" x="240.283203"/>
      <use xlink:href="#DejaVuSans-5f" x="303.90625"/>
      <use xlink:href="#DejaVuSans-32" x="353.90625"/>
      <use xlink:href="#DejaVuSans-32" x="417.529297"/>
      <use xlink:href="#DejaVuSans-47" x="481.152344"/>
      <use xlink:href="#DejaVuSans-48" x="558.642578"/>
      <use xlink:href="#DejaVuSans-35" x="633.837891"/>
      <use xlink:href="#DejaVuSans-47" x="697.460938"/>
      <use xlink:href="#DejaVuSans-4c" x="774.951172"/>
      <use xlink:href="#DejaVuSans-54" x="816.914062"/>
      <use xlink:href="#DejaVuSans-33" x="877.998047"/>
      <use xlink:href="#DejaVuSans-5f" x="941.621094"/>
      <use xlink:href="#DejaVuSans-47" x="991.621094"/>
      <use xlink:href="#DejaVuSans-47" x="1069.111328"/>
      <use xlink:href="#DejaVuSans-43" x="1146.601562"/>
      <use xlink:href="#DejaVuSans-47" x="1216.425781"/>
      <use xlink:href="#DejaVuSans-43" x="1293.916016"/>
      <use xlink:href="#DejaVuSans-43" x="1363.740234"/>
      <use xlink:href="#DejaVuSans-41" x="1433.564453"/>
      <use xlink:href="#DejaVuSans-54" x="1494.222656"/>
      <use xlink:href="#DejaVuSans-54" x="1553.556641"/>
      <use xlink:href="#DejaVuSans-47" x="1614.640625"/>
      <use xlink:href="#DejaVuSans-2d" x="1692.130859"/>
      <use xlink:href="#DejaVuSans-41" x="1725.964844"/>
      <use xlink:href="#DejaVuSans-43" x="1792.623047"/>
      <use xlink:href="#DejaVuSans-43" x="1862.447266"/>
      <use xlink:href="#DejaVuSans-47" x="1932.271484"/>
      <use xlink:href="#DejaVuSans-43" x="2009.761719"/>
      <use xlink:href="#DejaVuSans-47" x="2079.585938"/>
      <use xlink:href="#DejaVuSans-43" x="2157.076172"/>
      <use xlink:href="#DejaVuSans-41" x="2226.900391"/>
      <use xlink:href="#DejaVuSans-41" x="2298.058594"/>
      <use xlink:href="#DejaVuSans-54" x="2358.716797"/>
      <use xlink:href="#DejaVuSans-5f" x="2419.800781"/>
      <use xlink:href="#DejaVuSans-4c" x="2469.800781"/>
      <use xlink:href="#DejaVuSans-30" x="2525.513672"/>
      <use xlink:href="#DejaVuSans-30" x="2589.136719"/>
      <use xlink:href="#DejaVuSans-32" x="2652.759766"/>
      <use xlink:href="#DejaVuSans-5f" x="2716.382812"/>
      <use xlink:href="#DejaVuSans-54" x="2766.382812"/>
      <use xlink:href="#DejaVuSans-31" x="2827.466797"/>
      <use xlink:href="#DejaVuSans-5f" x="2891.089844"/>
      <use xlink:href="#DejaVuSans-32" x="2941.089844"/>
     </g>
    </g>
    <g id="line2d_31">
     <path d="M 715.470625 291.525394 
L 723.470625 291.525394 
L 731.470625 291.525394 
" style="fill: none; stroke: #d9534f; stroke-linecap: square"/>
    </g>
    <g id="text_28">
     <!-- TK9_3_22GH5GLT3_GGCGCCATTG-ACCGCGCAAT_L003_T1_1 -->
     <g transform="translate(737.870625 294.325394) scale(0.08 -0.08)">
      <use xlink:href="#DejaVuSans-54"/>
      <use xlink:href="#DejaVuSans-4b" x="61.083984"/>
      <use xlink:href="#DejaVuSans-39" x="126.660156"/>
      <use xlink:href="#DejaVuSans-5f" x="190.283203"/>
      <use xlink:href="#DejaVuSans-33" x="240.283203"/>
      <use xlink:href="#DejaVuSans-5f" x="303.90625"/>
      <use xlink:href="#DejaVuSans-32" x="353.90625"/>
      <use xlink:href="#DejaVuSans-32" x="417.529297"/>
      <use xlink:href="#DejaVuSans-47" x="481.152344"/>
      <use xlink:href="#DejaVuSans-48" x="558.642578"/>
      <use xlink:href="#DejaVuSans-35" x="633.837891"/>
      <use xlink:href="#DejaVuSans-47" x="697.460938"/>
      <use xlink:href="#DejaVuSans-4c" x="774.951172"/>
      <use xlink:href="#DejaVuSans-54" x="816.914062"/>
      <use xlink:href="#DejaVuSans-33" x="877.998047"/>
      <use xlink:href="#DejaVuSans-5f" x="941.621094"/>
      <use xlink:href="#DejaVuSans-47" x="991.621094"/>
      <use xlink:href="#DejaVuSans-47" x="1069.111328"/>
      <use xlink:href="#DejaVuSans-43" x="1146.601562"/>
      <use xlink:href="#DejaVuSans-47" x="1216.425781"/>
      <use xlink:href="#DejaVuSans-43" x="1293.916016"/>
      <use xlink:href="#DejaVuSans-43" x="1363.740234"/>
      <use xlink:href="#DejaVuSans-41" x="1433.564453"/>
      <use xlink:href="#DejaVuSans-54" x="1494.222656"/>
      <use xlink:href="#DejaVuSans-54" x="1553.556641"/>
      <use xlink:href="#DejaVuSans-47" x="1614.640625"/>
      <use xlink:href="#DejaVuSans-2d" x="1692.130859"/>
      <use xlink:href="#DejaVuSans-41" x="1725.964844"/>
      <use xlink:href="#DejaVuSans-43" x="1792.623047"/>
      <use xlink:href="#DejaVuSans-43" x="1862.447266"/>
      <use xlink:href="#DejaVuSans-47" x="1932.271484"/>
      <use xlink:href="#DejaVuSans-43" x="2009.761719"/>
      <use xlink:href="#DejaVuSans-47" x="2079.585938"/>
      <use xlink:href="#DejaVuSans-43" x="2157.076172"/>
      <use xlink:href="#DejaVuSans-41" x="2226.900391"/>
      <use xlink:href="#DejaVuSans-41" x="2298.058594"/>
      <use xlink:href="#DejaVuSans-54" x="2358.716797"/>
      <use xlink:href="#DejaVuSans-5f" x="2419.800781"/>
      <use xlink:href="#DejaVuSans-4c" x="2469.800781"/>
      <use xlink:href="#DejaVuSans-30" x="2525.513672"/>
      <use xlink:href="#DejaVuSans-30" x="2589.136719"/>
      <use xlink:href="#DejaVuSans-33" x="2652.759766"/>
      <use xlink:href="#DejaVuSans-5f" x="2716.382812"/>
      <use xlink:href="#DejaVuSans-54" x="2766.382812"/>
      <use xlink:href="#DejaVuSans-31" x="2827.466797"/>
      <use xlink:href="#DejaVuSans-5f" x="2891.089844"/>
      <use xlink:href="#DejaVuSans-31" x="2941.089844"/>
     </g>
    </g>
    <g id="line2d_32">
     <path d="M 715.470625 303.490394 
L 723.470625 303.490394 
L 731.470625 303.490394 
" style="fill: none; stroke: #d9534f; stroke-linecap: square"/>
    </g>
    <g id="text_29">
     <!-- TK9_3_22GH5GLT3_GGCGCCATTG-ACCGCGCAAT_L003_T1_2 -->
     <g transform="translate(737.870625 306.290394) scale(0.08 -0.08)">
      <use xlink:href="#DejaVuSans-54"/>
      <use xlink:href="#DejaVuSans-4b" x="61.083984"/>
      <use xlink:href="#DejaVuSans-39" x="126.660156"/>
      <use xlink:href="#DejaVuSans-5f" x="190.283203"/>
      <use xlink:href="#DejaVuSans-33" x="240.283203"/>
      <use xlink:href="#DejaVuSans-5f" x="303.90625"/>
      <use xlink:href="#DejaVuSans-32" x="353.90625"/>
      <use xlink:href="#DejaVuSans-32" x="417.529297"/>
      <use xlink:href="#DejaVuSans-47" x="481.152344"/>
      <use xlink:href="#DejaVuSans-48" x="558.642578"/>
      <use xlink:href="#DejaVuSans-35" x="633.837891"/>
      <use xlink:href="#DejaVuSans-47" x="697.460938"/>
      <use xlink:href="#DejaVuSans-4c" x="774.951172"/>
      <use xlink:href="#DejaVuSans-54" x="816.914062"/>
      <use xlink:href="#DejaVuSans-33" x="877.998047"/>
      <use xlink:href="#DejaVuSans-5f" x="941.621094"/>
      <use xlink:href="#DejaVuSans-47" x="991.621094"/>
      <use xlink:href="#DejaVuSans-47" x="1069.111328"/>
      <use xlink:href="#DejaVuSans-43" x="1146.601562"/>
      <use xlink:href="#DejaVuSans-47" x="1216.425781"/>
      <use xlink:href="#DejaVuSans-43" x="1293.916016"/>
      <use xlink:href="#DejaVuSans-43" x="1363.740234"/>
      <use xlink:href="#DejaVuSans-41" x="1433.564453"/>
      <use xlink:href="#DejaVuSans-54" x="1494.222656"/>
      <use xlink:href="#DejaVuSans-54" x="1553.556641"/>
      <use xlink:href="#DejaVuSans-47" x="1614.640625"/>
      <use xlink:href="#DejaVuSans-2d" x="1692.130859"/>
      <use xlink:href="#DejaVuSans-41" x="1725.964844"/>
      <use xlink:href="#DejaVuSans-43" x="1792.623047"/>
      <use xlink:href="#DejaVuSans-43" x="1862.447266"/>
      <use xlink:href="#DejaVuSans-47" x="1932.271484"/>
      <use xlink:href="#DejaVuSans-43" x="2009.761719"/>
      <use xlink:href="#DejaVuSans-47" x="2079.585938"/>
      <use xlink:href="#DejaVuSans-43" x="2157.076172"/>
      <use xlink:href="#DejaVuSans-41" x="2226.900391"/>
      <use xlink:href="#DejaVuSans-41" x="2298.058594"/>
      <use xlink:href="#DejaVuSans-54" x="2358.716797"/>
      <use xlink:href="#DejaVuSans-5f" x="2419.800781"/>
      <use xlink:href="#DejaVuSans-4c" x="2469.800781"/>
      <use xlink:href="#DejaVuSans-30" x="2525.513672"/>
      <use xlink:href="#DejaVuSans-30" x="2589.136719"/>
      <use xlink:href="#DejaVuSans-33" x="2652.759766"/>
      <use xlink:href="#DejaVuSans-5f" x="2716.382812"/>
      <use xlink:href="#DejaVuSans-54" x="2766.382812"/>
      <use xlink:href="#DejaVuSans-31" x="2827.466797"/>
      <use xlink:href="#DejaVuSans-5f" x="2891.089844"/>
      <use xlink:href="#DejaVuSans-32" x="2941.089844"/>
     </g>
    </g>
   </g>
  </g>
 </g>
 <defs>
  <clipPath id="p7cda7f7ea6">
   <rect x="40.600625" y="31.48286" width="944.845" height="242.5072"/>
  </clipPath>
 </defs>
</svg>
