<?xml version="1.0" encoding="utf-8" standalone="no"?>
<!DOCTYPE svg PUBLIC "-//W3C//DTD SVG 1.1//EN"
  "http://www.w3.org/Graphics/SVG/1.1/DTD/svg11.dtd">
<svg xmlns:xlink="http://www.w3.org/1999/xlink" width="1000.358125pt" height="330.541644pt" viewBox="0 0 1000.358125 330.541644" xmlns="http://www.w3.org/2000/svg" version="1.1">
 <metadata>
  <rdf:RDF xmlns:dc="http://purl.org/dc/elements/1.1/" xmlns:cc="http://creativecommons.org/ns#" xmlns:rdf="http://www.w3.org/1999/02/22-rdf-syntax-ns#">
   <cc:Work>
    <dc:type rdf:resource="http://purl.org/dc/dcmitype/StillImage"/>
    <dc:date>2023-10-18T13:16:37.477799</dc:date>
    <dc:format>image/svg+xml</dc:format>
    <dc:creator>
     <cc:Agent>
      <dc:title>Matplotlib v3.6.2, https://matplotlib.org/</dc:title>
     </cc:Agent>
    </dc:creator>
   </cc:Work>
  </rdf:RDF>
 </metadata>
 <defs>
  <style type="text/css">*{stroke-linejoin: round; stroke-linecap: butt}</style>
 </defs>
 <g id="figure_1">
  <g id="axes_1">
   <g id="patch_1">
    <path d="M 32.968125 273.99006 
L 993.158125 273.99006 
L 993.158125 31.48286 
L 32.968125 31.48286 
z
" style="fill: #ffffff"/>
   </g>
   <g id="patch_2">
    <path d="M 32.968125 -696.03874 
L 993.158125 -696.03874 
L 993.158125 -4576.15394 
L 32.968125 -4576.15394 
z
" clip-path="url(#p062f824ef3)" style="fill: #e6c3c3"/>
   </g>
   <g id="patch_3">
    <path d="M 32.968125 31.48286 
L 993.158125 31.48286 
L 993.158125 -696.03874 
L 32.968125 -696.03874 
z
" clip-path="url(#p062f824ef3)" style="fill: #e6dcc3"/>
   </g>
   <g id="patch_4">
    <path d="M 32.968125 273.99006 
L 993.158125 273.99006 
L 993.158125 31.48286 
L 32.968125 31.48286 
z
" clip-path="url(#p062f824ef3)" style="fill: #c3e6c3"/>
   </g>
   <g id="matplotlib.axis_1">
    <g id="xtick_1">
     <g id="text_1">
      <!-- 0 -->
      <g transform="translate(30.423125 287.06881) scale(0.08 -0.08)">
       <defs>
        <path id="DejaVuSans-30" d="M 2034 4250 
Q 1547 4250 1301 3770 
Q 1056 3291 1056 2328 
Q 1056 1369 1301 889 
Q 1547 409 2034 409 
Q 2525 409 2770 889 
Q 3016 1369 3016 2328 
Q 3016 3291 2770 3770 
Q 2525 4250 2034 4250 
z
M 2034 4750 
Q 2819 4750 3233 4129 
Q 3647 3509 3647 2328 
Q 3647 1150 3233 529 
Q 2819 -91 2034 -91 
Q 1250 -91 836 529 
Q 422 1150 422 2328 
Q 422 3509 836 4129 
Q 1250 4750 2034 4750 
z
" transform="scale(0.015625)"/>
       </defs>
       <use xlink:href="#DejaVuSans-30"/>
      </g>
     </g>
    </g>
    <g id="xtick_2">
     <g id="text_2">
      <!-- 20 -->
      <g transform="translate(149.845734 287.06881) scale(0.08 -0.08)">
       <defs>
        <path id="DejaVuSans-32" d="M 1228 531 
L 3431 531 
L 3431 0 
L 469 0 
L 469 531 
Q 828 903 1448 1529 
Q 2069 2156 2228 2338 
Q 2531 2678 2651 2914 
Q 2772 3150 2772 3378 
Q 2772 3750 2511 3984 
Q 2250 4219 1831 4219 
Q 1534 4219 1204 4116 
Q 875 4013 500 3803 
L 500 4441 
Q 881 4594 1212 4672 
Q 1544 4750 1819 4750 
Q 2544 4750 2975 4387 
Q 3406 4025 3406 3419 
Q 3406 3131 3298 2873 
Q 3191 2616 2906 2266 
Q 2828 2175 2409 1742 
Q 1991 1309 1228 531 
z
" transform="scale(0.015625)"/>
       </defs>
       <use xlink:href="#DejaVuSans-32"/>
       <use xlink:href="#DejaVuSans-30" x="63.623047"/>
      </g>
     </g>
    </g>
    <g id="xtick_3">
     <g id="text_3">
      <!-- 40 -->
      <g transform="translate(271.813343 287.06881) scale(0.08 -0.08)">
       <defs>
        <path id="DejaVuSans-34" d="M 2419 4116 
L 825 1625 
L 2419 1625 
L 2419 4116 
z
M 2253 4666 
L 3047 4666 
L 3047 1625 
L 3713 1625 
L 3713 1100 
L 3047 1100 
L 3047 0 
L 2419 0 
L 2419 1100 
L 313 1100 
L 313 1709 
L 2253 4666 
z
" transform="scale(0.015625)"/>
       </defs>
       <use xlink:href="#DejaVuSans-34"/>
       <use xlink:href="#DejaVuSans-30" x="63.623047"/>
      </g>
     </g>
    </g>
    <g id="xtick_4">
     <g id="text_4">
      <!-- 60 -->
      <g transform="translate(393.780951 287.06881) scale(0.08 -0.08)">
       <defs>
        <path id="DejaVuSans-36" d="M 2113 2584 
Q 1688 2584 1439 2293 
Q 1191 2003 1191 1497 
Q 1191 994 1439 701 
Q 1688 409 2113 409 
Q 2538 409 2786 701 
Q 3034 994 3034 1497 
Q 3034 2003 2786 2293 
Q 2538 2584 2113 2584 
z
M 3366 4563 
L 3366 3988 
Q 3128 4100 2886 4159 
Q 2644 4219 2406 4219 
Q 1781 4219 1451 3797 
Q 1122 3375 1075 2522 
Q 1259 2794 1537 2939 
Q 1816 3084 2150 3084 
Q 2853 3084 3261 2657 
Q 3669 2231 3669 1497 
Q 3669 778 3244 343 
Q 2819 -91 2113 -91 
Q 1303 -91 875 529 
Q 447 1150 447 2328 
Q 447 3434 972 4092 
Q 1497 4750 2381 4750 
Q 2619 4750 2861 4703 
Q 3103 4656 3366 4563 
z
" transform="scale(0.015625)"/>
       </defs>
       <use xlink:href="#DejaVuSans-36"/>
       <use xlink:href="#DejaVuSans-30" x="63.623047"/>
      </g>
     </g>
    </g>
    <g id="xtick_5">
     <g id="text_5">
      <!-- 80 -->
      <g transform="translate(515.74856 287.06881) scale(0.08 -0.08)">
       <defs>
        <path id="DejaVuSans-38" d="M 2034 2216 
Q 1584 2216 1326 1975 
Q 1069 1734 1069 1313 
Q 1069 891 1326 650 
Q 1584 409 2034 409 
Q 2484 409 2743 651 
Q 3003 894 3003 1313 
Q 3003 1734 2745 1975 
Q 2488 2216 2034 2216 
z
M 1403 2484 
Q 997 2584 770 2862 
Q 544 3141 544 3541 
Q 544 4100 942 4425 
Q 1341 4750 2034 4750 
Q 2731 4750 3128 4425 
Q 3525 4100 3525 3541 
Q 3525 3141 3298 2862 
Q 3072 2584 2669 2484 
Q 3125 2378 3379 2068 
Q 3634 1759 3634 1313 
Q 3634 634 3220 271 
Q 2806 -91 2034 -91 
Q 1263 -91 848 271 
Q 434 634 434 1313 
Q 434 1759 690 2068 
Q 947 2378 1403 2484 
z
M 1172 3481 
Q 1172 3119 1398 2916 
Q 1625 2713 2034 2713 
Q 2441 2713 2670 2916 
Q 2900 3119 2900 3481 
Q 2900 3844 2670 4047 
Q 2441 4250 2034 4250 
Q 1625 4250 1398 4047 
Q 1172 3844 1172 3481 
z
" transform="scale(0.015625)"/>
       </defs>
       <use xlink:href="#DejaVuSans-38"/>
       <use xlink:href="#DejaVuSans-30" x="63.623047"/>
      </g>
     </g>
    </g>
    <g id="xtick_6">
     <g id="text_6">
      <!-- 100 -->
      <g transform="translate(635.171169 287.06881) scale(0.08 -0.08)">
       <defs>
        <path id="DejaVuSans-31" d="M 794 531 
L 1825 531 
L 1825 4091 
L 703 3866 
L 703 4441 
L 1819 4666 
L 2450 4666 
L 2450 531 
L 3481 531 
L 3481 0 
L 794 0 
L 794 531 
z
" transform="scale(0.015625)"/>
       </defs>
       <use xlink:href="#DejaVuSans-31"/>
       <use xlink:href="#DejaVuSans-30" x="63.623047"/>
       <use xlink:href="#DejaVuSans-30" x="127.246094"/>
      </g>
     </g>
    </g>
    <g id="xtick_7">
     <g id="text_7">
      <!-- 120 -->
      <g transform="translate(757.138778 287.06881) scale(0.08 -0.08)">
       <use xlink:href="#DejaVuSans-31"/>
       <use xlink:href="#DejaVuSans-32" x="63.623047"/>
       <use xlink:href="#DejaVuSans-30" x="127.246094"/>
      </g>
     </g>
    </g>
    <g id="xtick_8">
     <g id="text_8">
      <!-- 140 -->
      <g transform="translate(879.106386 287.06881) scale(0.08 -0.08)">
       <use xlink:href="#DejaVuSans-31"/>
       <use xlink:href="#DejaVuSans-34" x="63.623047"/>
       <use xlink:href="#DejaVuSans-30" x="127.246094"/>
      </g>
     </g>
    </g>
    <g id="text_9">
     <!-- Position in Read (bp) -->
     <g transform="translate(461.46 300.330997) scale(0.1 -0.1)">
      <defs>
       <path id="DejaVuSans-50" d="M 1259 4147 
L 1259 2394 
L 2053 2394 
Q 2494 2394 2734 2622 
Q 2975 2850 2975 3272 
Q 2975 3691 2734 3919 
Q 2494 4147 2053 4147 
L 1259 4147 
z
M 628 4666 
L 2053 4666 
Q 2838 4666 3239 4311 
Q 3641 3956 3641 3272 
Q 3641 2581 3239 2228 
Q 2838 1875 2053 1875 
L 1259 1875 
L 1259 0 
L 628 0 
L 628 4666 
z
" transform="scale(0.015625)"/>
       <path id="DejaVuSans-6f" d="M 1959 3097 
Q 1497 3097 1228 2736 
Q 959 2375 959 1747 
Q 959 1119 1226 758 
Q 1494 397 1959 397 
Q 2419 397 2687 759 
Q 2956 1122 2956 1747 
Q 2956 2369 2687 2733 
Q 2419 3097 1959 3097 
z
M 1959 3584 
Q 2709 3584 3137 3096 
Q 3566 2609 3566 1747 
Q 3566 888 3137 398 
Q 2709 -91 1959 -91 
Q 1206 -91 779 398 
Q 353 888 353 1747 
Q 353 2609 779 3096 
Q 1206 3584 1959 3584 
z
" transform="scale(0.015625)"/>
       <path id="DejaVuSans-73" d="M 2834 3397 
L 2834 2853 
Q 2591 2978 2328 3040 
Q 2066 3103 1784 3103 
Q 1356 3103 1142 2972 
Q 928 2841 928 2578 
Q 928 2378 1081 2264 
Q 1234 2150 1697 2047 
L 1894 2003 
Q 2506 1872 2764 1633 
Q 3022 1394 3022 966 
Q 3022 478 2636 193 
Q 2250 -91 1575 -91 
Q 1294 -91 989 -36 
Q 684 19 347 128 
L 347 722 
Q 666 556 975 473 
Q 1284 391 1588 391 
Q 1994 391 2212 530 
Q 2431 669 2431 922 
Q 2431 1156 2273 1281 
Q 2116 1406 1581 1522 
L 1381 1569 
Q 847 1681 609 1914 
Q 372 2147 372 2553 
Q 372 3047 722 3315 
Q 1072 3584 1716 3584 
Q 2034 3584 2315 3537 
Q 2597 3491 2834 3397 
z
" transform="scale(0.015625)"/>
       <path id="DejaVuSans-69" d="M 603 3500 
L 1178 3500 
L 1178 0 
L 603 0 
L 603 3500 
z
M 603 4863 
L 1178 4863 
L 1178 4134 
L 603 4134 
L 603 4863 
z
" transform="scale(0.015625)"/>
       <path id="DejaVuSans-74" d="M 1172 4494 
L 1172 3500 
L 2356 3500 
L 2356 3053 
L 1172 3053 
L 1172 1153 
Q 1172 725 1289 603 
Q 1406 481 1766 481 
L 2356 481 
L 2356 0 
L 1766 0 
Q 1100 0 847 248 
Q 594 497 594 1153 
L 594 3053 
L 172 3053 
L 172 3500 
L 594 3500 
L 594 4494 
L 1172 4494 
z
" transform="scale(0.015625)"/>
       <path id="DejaVuSans-6e" d="M 3513 2113 
L 3513 0 
L 2938 0 
L 2938 2094 
Q 2938 2591 2744 2837 
Q 2550 3084 2163 3084 
Q 1697 3084 1428 2787 
Q 1159 2491 1159 1978 
L 1159 0 
L 581 0 
L 581 3500 
L 1159 3500 
L 1159 2956 
Q 1366 3272 1645 3428 
Q 1925 3584 2291 3584 
Q 2894 3584 3203 3211 
Q 3513 2838 3513 2113 
z
" transform="scale(0.015625)"/>
       <path id="DejaVuSans-20" transform="scale(0.015625)"/>
       <path id="DejaVuSans-52" d="M 2841 2188 
Q 3044 2119 3236 1894 
Q 3428 1669 3622 1275 
L 4263 0 
L 3584 0 
L 2988 1197 
Q 2756 1666 2539 1819 
Q 2322 1972 1947 1972 
L 1259 1972 
L 1259 0 
L 628 0 
L 628 4666 
L 2053 4666 
Q 2853 4666 3247 4331 
Q 3641 3997 3641 3322 
Q 3641 2881 3436 2590 
Q 3231 2300 2841 2188 
z
M 1259 4147 
L 1259 2491 
L 2053 2491 
Q 2509 2491 2742 2702 
Q 2975 2913 2975 3322 
Q 2975 3731 2742 3939 
Q 2509 4147 2053 4147 
L 1259 4147 
z
" transform="scale(0.015625)"/>
       <path id="DejaVuSans-65" d="M 3597 1894 
L 3597 1613 
L 953 1613 
Q 991 1019 1311 708 
Q 1631 397 2203 397 
Q 2534 397 2845 478 
Q 3156 559 3463 722 
L 3463 178 
Q 3153 47 2828 -22 
Q 2503 -91 2169 -91 
Q 1331 -91 842 396 
Q 353 884 353 1716 
Q 353 2575 817 3079 
Q 1281 3584 2069 3584 
Q 2775 3584 3186 3129 
Q 3597 2675 3597 1894 
z
M 3022 2063 
Q 3016 2534 2758 2815 
Q 2500 3097 2075 3097 
Q 1594 3097 1305 2825 
Q 1016 2553 972 2059 
L 3022 2063 
z
" transform="scale(0.015625)"/>
       <path id="DejaVuSans-61" d="M 2194 1759 
Q 1497 1759 1228 1600 
Q 959 1441 959 1056 
Q 959 750 1161 570 
Q 1363 391 1709 391 
Q 2188 391 2477 730 
Q 2766 1069 2766 1631 
L 2766 1759 
L 2194 1759 
z
M 3341 1997 
L 3341 0 
L 2766 0 
L 2766 531 
Q 2569 213 2275 61 
Q 1981 -91 1556 -91 
Q 1019 -91 701 211 
Q 384 513 384 1019 
Q 384 1609 779 1909 
Q 1175 2209 1959 2209 
L 2766 2209 
L 2766 2266 
Q 2766 2663 2505 2880 
Q 2244 3097 1772 3097 
Q 1472 3097 1187 3025 
Q 903 2953 641 2809 
L 641 3341 
Q 956 3463 1253 3523 
Q 1550 3584 1831 3584 
Q 2591 3584 2966 3190 
Q 3341 2797 3341 1997 
z
" transform="scale(0.015625)"/>
       <path id="DejaVuSans-64" d="M 2906 2969 
L 2906 4863 
L 3481 4863 
L 3481 0 
L 2906 0 
L 2906 525 
Q 2725 213 2448 61 
Q 2172 -91 1784 -91 
Q 1150 -91 751 415 
Q 353 922 353 1747 
Q 353 2572 751 3078 
Q 1150 3584 1784 3584 
Q 2172 3584 2448 3432 
Q 2725 3281 2906 2969 
z
M 947 1747 
Q 947 1113 1208 752 
Q 1469 391 1925 391 
Q 2381 391 2643 752 
Q 2906 1113 2906 1747 
Q 2906 2381 2643 2742 
Q 2381 3103 1925 3103 
Q 1469 3103 1208 2742 
Q 947 2381 947 1747 
z
" transform="scale(0.015625)"/>
       <path id="DejaVuSans-28" d="M 1984 4856 
Q 1566 4138 1362 3434 
Q 1159 2731 1159 2009 
Q 1159 1288 1364 580 
Q 1569 -128 1984 -844 
L 1484 -844 
Q 1016 -109 783 600 
Q 550 1309 550 2009 
Q 550 2706 781 3412 
Q 1013 4119 1484 4856 
L 1984 4856 
z
" transform="scale(0.015625)"/>
       <path id="DejaVuSans-62" d="M 3116 1747 
Q 3116 2381 2855 2742 
Q 2594 3103 2138 3103 
Q 1681 3103 1420 2742 
Q 1159 2381 1159 1747 
Q 1159 1113 1420 752 
Q 1681 391 2138 391 
Q 2594 391 2855 752 
Q 3116 1113 3116 1747 
z
M 1159 2969 
Q 1341 3281 1617 3432 
Q 1894 3584 2278 3584 
Q 2916 3584 3314 3078 
Q 3713 2572 3713 1747 
Q 3713 922 3314 415 
Q 2916 -91 2278 -91 
Q 1894 -91 1617 61 
Q 1341 213 1159 525 
L 1159 0 
L 581 0 
L 581 4863 
L 1159 4863 
L 1159 2969 
z
" transform="scale(0.015625)"/>
       <path id="DejaVuSans-70" d="M 1159 525 
L 1159 -1331 
L 581 -1331 
L 581 3500 
L 1159 3500 
L 1159 2969 
Q 1341 3281 1617 3432 
Q 1894 3584 2278 3584 
Q 2916 3584 3314 3078 
Q 3713 2572 3713 1747 
Q 3713 922 3314 415 
Q 2916 -91 2278 -91 
Q 1894 -91 1617 61 
Q 1341 213 1159 525 
z
M 3116 1747 
Q 3116 2381 2855 2742 
Q 2594 3103 2138 3103 
Q 1681 3103 1420 2742 
Q 1159 2381 1159 1747 
Q 1159 1113 1420 752 
Q 1681 391 2138 391 
Q 2594 391 2855 752 
Q 3116 1113 3116 1747 
z
" transform="scale(0.015625)"/>
       <path id="DejaVuSans-29" d="M 513 4856 
L 1013 4856 
Q 1481 4119 1714 3412 
Q 1947 2706 1947 2009 
Q 1947 1309 1714 600 
Q 1481 -109 1013 -844 
L 513 -844 
Q 928 -128 1133 580 
Q 1338 1288 1338 2009 
Q 1338 2731 1133 3434 
Q 928 4138 513 4856 
z
" transform="scale(0.015625)"/>
      </defs>
      <use xlink:href="#DejaVuSans-50"/>
      <use xlink:href="#DejaVuSans-6f" x="56.677734"/>
      <use xlink:href="#DejaVuSans-73" x="117.859375"/>
      <use xlink:href="#DejaVuSans-69" x="169.958984"/>
      <use xlink:href="#DejaVuSans-74" x="197.742188"/>
      <use xlink:href="#DejaVuSans-69" x="236.951172"/>
      <use xlink:href="#DejaVuSans-6f" x="264.734375"/>
      <use xlink:href="#DejaVuSans-6e" x="325.916016"/>
      <use xlink:href="#DejaVuSans-20" x="389.294922"/>
      <use xlink:href="#DejaVuSans-69" x="421.082031"/>
      <use xlink:href="#DejaVuSans-6e" x="448.865234"/>
      <use xlink:href="#DejaVuSans-20" x="512.244141"/>
      <use xlink:href="#DejaVuSans-52" x="544.03125"/>
      <use xlink:href="#DejaVuSans-65" x="609.013672"/>
      <use xlink:href="#DejaVuSans-61" x="670.537109"/>
      <use xlink:href="#DejaVuSans-64" x="731.816406"/>
      <use xlink:href="#DejaVuSans-20" x="795.292969"/>
      <use xlink:href="#DejaVuSans-28" x="827.080078"/>
      <use xlink:href="#DejaVuSans-62" x="866.09375"/>
      <use xlink:href="#DejaVuSans-70" x="929.570312"/>
      <use xlink:href="#DejaVuSans-29" x="993.046875"/>
     </g>
    </g>
   </g>
   <g id="matplotlib.axis_2">
    <g id="ytick_1">
     <g id="line2d_1">
      <path d="M 32.968125 273.99006 
L 993.158125 273.99006 
" clip-path="url(#p062f824ef3)" style="fill: none; stroke: #dedede; stroke-linecap: square"/>
     </g>
     <g id="text_10">
      <!-- 0 -->
      <g transform="translate(20.878125 277.029435) scale(0.08 -0.08)">
       <use xlink:href="#DejaVuSans-30"/>
      </g>
     </g>
    </g>
    <g id="ytick_2">
     <g id="line2d_2">
      <path d="M 32.968125 225.48862 
L 993.158125 225.48862 
" clip-path="url(#p062f824ef3)" style="fill: none; stroke: #dedede; stroke-linecap: square"/>
     </g>
     <g id="text_11">
      <!-- 1 -->
      <g transform="translate(20.878125 228.527995) scale(0.08 -0.08)">
       <use xlink:href="#DejaVuSans-31"/>
      </g>
     </g>
    </g>
    <g id="ytick_3">
     <g id="line2d_3">
      <path d="M 32.968125 176.98718 
L 993.158125 176.98718 
" clip-path="url(#p062f824ef3)" style="fill: none; stroke: #dedede; stroke-linecap: square"/>
     </g>
     <g id="text_12">
      <!-- 2 -->
      <g transform="translate(20.878125 180.026555) scale(0.08 -0.08)">
       <use xlink:href="#DejaVuSans-32"/>
      </g>
     </g>
    </g>
    <g id="ytick_4">
     <g id="line2d_4">
      <path d="M 32.968125 128.48574 
L 993.158125 128.48574 
" clip-path="url(#p062f824ef3)" style="fill: none; stroke: #dedede; stroke-linecap: square"/>
     </g>
     <g id="text_13">
      <!-- 3 -->
      <g transform="translate(20.878125 131.525115) scale(0.08 -0.08)">
       <defs>
        <path id="DejaVuSans-33" d="M 2597 2516 
Q 3050 2419 3304 2112 
Q 3559 1806 3559 1356 
Q 3559 666 3084 287 
Q 2609 -91 1734 -91 
Q 1441 -91 1130 -33 
Q 819 25 488 141 
L 488 750 
Q 750 597 1062 519 
Q 1375 441 1716 441 
Q 2309 441 2620 675 
Q 2931 909 2931 1356 
Q 2931 1769 2642 2001 
Q 2353 2234 1838 2234 
L 1294 2234 
L 1294 2753 
L 1863 2753 
Q 2328 2753 2575 2939 
Q 2822 3125 2822 3475 
Q 2822 3834 2567 4026 
Q 2313 4219 1838 4219 
Q 1578 4219 1281 4162 
Q 984 4106 628 3988 
L 628 4550 
Q 988 4650 1302 4700 
Q 1616 4750 1894 4750 
Q 2613 4750 3031 4423 
Q 3450 4097 3450 3541 
Q 3450 3153 3228 2886 
Q 3006 2619 2597 2516 
z
" transform="scale(0.015625)"/>
       </defs>
       <use xlink:href="#DejaVuSans-33"/>
      </g>
     </g>
    </g>
    <g id="ytick_5">
     <g id="line2d_5">
      <path d="M 32.968125 79.9843 
L 993.158125 79.9843 
" clip-path="url(#p062f824ef3)" style="fill: none; stroke: #dedede; stroke-linecap: square"/>
     </g>
     <g id="text_14">
      <!-- 4 -->
      <g transform="translate(20.878125 83.023675) scale(0.08 -0.08)">
       <use xlink:href="#DejaVuSans-34"/>
      </g>
     </g>
    </g>
    <g id="ytick_6">
     <g id="line2d_6">
      <path d="M 32.968125 31.48286 
L 993.158125 31.48286 
" clip-path="url(#p062f824ef3)" style="fill: none; stroke: #dedede; stroke-linecap: square"/>
     </g>
     <g id="text_15">
      <!-- 5 -->
      <g transform="translate(20.878125 34.522235) scale(0.08 -0.08)">
       <defs>
        <path id="DejaVuSans-35" d="M 691 4666 
L 3169 4666 
L 3169 4134 
L 1269 4134 
L 1269 2991 
Q 1406 3038 1543 3061 
Q 1681 3084 1819 3084 
Q 2600 3084 3056 2656 
Q 3513 2228 3513 1497 
Q 3513 744 3044 326 
Q 2575 -91 1722 -91 
Q 1428 -91 1123 -41 
Q 819 9 494 109 
L 494 744 
Q 775 591 1075 516 
Q 1375 441 1709 441 
Q 2250 441 2565 725 
Q 2881 1009 2881 1497 
Q 2881 1984 2565 2268 
Q 2250 2553 1709 2553 
Q 1456 2553 1204 2497 
Q 953 2441 691 2322 
L 691 4666 
z
" transform="scale(0.015625)"/>
       </defs>
       <use xlink:href="#DejaVuSans-35"/>
      </g>
     </g>
    </g>
    <g id="text_16">
     <!-- Percentage N-Count -->
     <g transform="translate(14.798438 202.841147) rotate(-90) scale(0.1 -0.1)">
      <defs>
       <path id="DejaVuSans-72" d="M 2631 2963 
Q 2534 3019 2420 3045 
Q 2306 3072 2169 3072 
Q 1681 3072 1420 2755 
Q 1159 2438 1159 1844 
L 1159 0 
L 581 0 
L 581 3500 
L 1159 3500 
L 1159 2956 
Q 1341 3275 1631 3429 
Q 1922 3584 2338 3584 
Q 2397 3584 2469 3576 
Q 2541 3569 2628 3553 
L 2631 2963 
z
" transform="scale(0.015625)"/>
       <path id="DejaVuSans-63" d="M 3122 3366 
L 3122 2828 
Q 2878 2963 2633 3030 
Q 2388 3097 2138 3097 
Q 1578 3097 1268 2742 
Q 959 2388 959 1747 
Q 959 1106 1268 751 
Q 1578 397 2138 397 
Q 2388 397 2633 464 
Q 2878 531 3122 666 
L 3122 134 
Q 2881 22 2623 -34 
Q 2366 -91 2075 -91 
Q 1284 -91 818 406 
Q 353 903 353 1747 
Q 353 2603 823 3093 
Q 1294 3584 2113 3584 
Q 2378 3584 2631 3529 
Q 2884 3475 3122 3366 
z
" transform="scale(0.015625)"/>
       <path id="DejaVuSans-67" d="M 2906 1791 
Q 2906 2416 2648 2759 
Q 2391 3103 1925 3103 
Q 1463 3103 1205 2759 
Q 947 2416 947 1791 
Q 947 1169 1205 825 
Q 1463 481 1925 481 
Q 2391 481 2648 825 
Q 2906 1169 2906 1791 
z
M 3481 434 
Q 3481 -459 3084 -895 
Q 2688 -1331 1869 -1331 
Q 1566 -1331 1297 -1286 
Q 1028 -1241 775 -1147 
L 775 -588 
Q 1028 -725 1275 -790 
Q 1522 -856 1778 -856 
Q 2344 -856 2625 -561 
Q 2906 -266 2906 331 
L 2906 616 
Q 2728 306 2450 153 
Q 2172 0 1784 0 
Q 1141 0 747 490 
Q 353 981 353 1791 
Q 353 2603 747 3093 
Q 1141 3584 1784 3584 
Q 2172 3584 2450 3431 
Q 2728 3278 2906 2969 
L 2906 3500 
L 3481 3500 
L 3481 434 
z
" transform="scale(0.015625)"/>
       <path id="DejaVuSans-4e" d="M 628 4666 
L 1478 4666 
L 3547 763 
L 3547 4666 
L 4159 4666 
L 4159 0 
L 3309 0 
L 1241 3903 
L 1241 0 
L 628 0 
L 628 4666 
z
" transform="scale(0.015625)"/>
       <path id="DejaVuSans-2d" d="M 313 2009 
L 1997 2009 
L 1997 1497 
L 313 1497 
L 313 2009 
z
" transform="scale(0.015625)"/>
       <path id="DejaVuSans-43" d="M 4122 4306 
L 4122 3641 
Q 3803 3938 3442 4084 
Q 3081 4231 2675 4231 
Q 1875 4231 1450 3742 
Q 1025 3253 1025 2328 
Q 1025 1406 1450 917 
Q 1875 428 2675 428 
Q 3081 428 3442 575 
Q 3803 722 4122 1019 
L 4122 359 
Q 3791 134 3420 21 
Q 3050 -91 2638 -91 
Q 1578 -91 968 557 
Q 359 1206 359 2328 
Q 359 3453 968 4101 
Q 1578 4750 2638 4750 
Q 3056 4750 3426 4639 
Q 3797 4528 4122 4306 
z
" transform="scale(0.015625)"/>
       <path id="DejaVuSans-75" d="M 544 1381 
L 544 3500 
L 1119 3500 
L 1119 1403 
Q 1119 906 1312 657 
Q 1506 409 1894 409 
Q 2359 409 2629 706 
Q 2900 1003 2900 1516 
L 2900 3500 
L 3475 3500 
L 3475 0 
L 2900 0 
L 2900 538 
Q 2691 219 2414 64 
Q 2138 -91 1772 -91 
Q 1169 -91 856 284 
Q 544 659 544 1381 
z
M 1991 3584 
L 1991 3584 
z
" transform="scale(0.015625)"/>
      </defs>
      <use xlink:href="#DejaVuSans-50"/>
      <use xlink:href="#DejaVuSans-65" x="56.677734"/>
      <use xlink:href="#DejaVuSans-72" x="118.201172"/>
      <use xlink:href="#DejaVuSans-63" x="157.064453"/>
      <use xlink:href="#DejaVuSans-65" x="212.044922"/>
      <use xlink:href="#DejaVuSans-6e" x="273.568359"/>
      <use xlink:href="#DejaVuSans-74" x="336.947266"/>
      <use xlink:href="#DejaVuSans-61" x="376.15625"/>
      <use xlink:href="#DejaVuSans-67" x="437.435547"/>
      <use xlink:href="#DejaVuSans-65" x="500.912109"/>
      <use xlink:href="#DejaVuSans-20" x="562.435547"/>
      <use xlink:href="#DejaVuSans-4e" x="594.222656"/>
      <use xlink:href="#DejaVuSans-2d" x="669.027344"/>
      <use xlink:href="#DejaVuSans-43" x="705.111328"/>
      <use xlink:href="#DejaVuSans-6f" x="774.935547"/>
      <use xlink:href="#DejaVuSans-75" x="836.117188"/>
      <use xlink:href="#DejaVuSans-6e" x="899.496094"/>
      <use xlink:href="#DejaVuSans-74" x="962.875"/>
     </g>
    </g>
   </g>
   <g id="line2d_7">
    <path d="M 39.066505 273.989845 
L 45.164886 253.381439 
L 51.263266 273.938678 
L 57.361647 273.99006 
L 63.460027 272.372285 
L 69.558408 273.99006 
L 75.656788 273.99006 
L 81.755169 273.99006 
L 87.853549 273.99006 
L 106.14869 273.250506 
L 136.640592 272.479779 
L 167.132495 273.99006 
L 197.624397 273.989845 
L 228.116299 273.99006 
L 258.608201 273.988168 
L 289.100103 273.974753 
L 319.592006 273.988469 
L 350.083908 273.988942 
L 380.57581 273.985889 
L 411.067712 273.988641 
L 441.559614 273.98361 
L 472.051517 273.975699 
L 502.543419 273.974323 
L 533.035321 273.99006 
L 563.527223 273.983008 
L 594.019125 273.979526 
L 624.511028 273.99006 
L 655.00293 273.99006 
L 685.494832 273.99006 
L 715.986734 273.988942 
L 746.478636 273.99006 
L 776.970538 273.99006 
L 807.462441 273.989931 
L 837.954343 273.989802 
L 868.446245 271.140111 
L 898.938147 273.98576 
L 929.430049 273.988985 
L 947.725191 273.99006 
" clip-path="url(#p062f824ef3)" style="fill: none; stroke: #5cb85c; stroke-linecap: square"/>
   </g>
   <g id="line2d_8">
    <path d="M 39.066505 267.265492 
L 45.164886 272.381315 
L 51.263266 271.512984 
L 57.361647 273.853758 
L 63.460027 273.927284 
L 69.558408 273.99006 
L 75.656788 273.99006 
L 81.755169 273.981461 
L 87.853549 273.99006 
L 106.14869 273.989716 
L 136.640592 272.038282 
L 167.132495 273.98748 
L 197.624397 273.98404 
L 228.116299 273.989974 
L 258.608201 273.955877 
L 289.100103 273.963101 
L 319.592006 273.986147 
L 350.083908 273.981203 
L 380.57581 273.096403 
L 411.067712 273.958887 
L 441.559614 273.985201 
L 472.051517 273.887081 
L 502.543419 273.97084 
L 533.035321 273.98576 
L 563.527223 273.953813 
L 594.019125 273.962585 
L 624.511028 273.975226 
L 655.00293 273.958973 
L 685.494832 273.955748 
L 715.986734 273.961209 
L 746.478636 273.974022 
L 776.970538 273.928359 
L 807.462441 273.965552 
L 837.954343 273.989028 
L 868.446245 273.976 
L 898.938147 273.954071 
L 929.430049 273.956006 
L 947.725191 273.947923 
" clip-path="url(#p062f824ef3)" style="fill: none; stroke: #5cb85c; stroke-linecap: square"/>
   </g>
   <g id="line2d_9">
    <path d="M 39.066505 273.989813 
L 45.164886 255.046448 
L 51.263266 273.99006 
L 57.361647 273.99006 
L 63.460027 271.972482 
L 69.558408 273.99006 
L 75.656788 273.99006 
L 81.755169 273.99006 
L 87.853549 273.99006 
L 106.14869 272.23455 
L 136.640592 273.988724 
L 167.132495 273.988032 
L 197.624397 270.832437 
L 228.116299 273.182534 
L 258.608201 273.989417 
L 289.100103 272.715097 
L 319.592006 273.975762 
L 350.083908 270.514413 
L 380.57581 272.027943 
L 411.067712 273.986003 
L 441.559614 273.171848 
L 472.051517 272.740725 
L 502.543419 273.95612 
L 533.035321 273.288707 
L 563.527223 271.180788 
L 594.019125 272.856446 
L 624.511028 273.218799 
L 655.00293 273.982194 
L 685.494832 273.981748 
L 715.986734 272.572016 
L 746.478636 273.982243 
L 776.970538 273.984964 
L 807.462441 273.99006 
L 837.954343 272.142675 
L 868.446245 272.168748 
L 898.938147 273.167989 
L 929.430049 272.433289 
L 947.725191 273.99006 
" clip-path="url(#p062f824ef3)" style="fill: none; stroke: #5cb85c; stroke-linecap: square"/>
   </g>
   <g id="line2d_10">
    <path d="M 39.066505 269.542285 
L 45.164886 271.516078 
L 51.263266 273.588078 
L 57.361647 269.934125 
L 63.460027 273.85722 
L 69.558408 273.99006 
L 75.656788 269.215258 
L 81.755169 273.887895 
L 87.853549 264.475335 
L 106.14869 273.984222 
L 136.640592 271.200825 
L 167.132495 273.98625 
L 197.624397 273.284056 
L 228.116299 273.350649 
L 258.608201 268.892138 
L 289.100103 273.369647 
L 319.592006 273.984915 
L 350.083908 273.948897 
L 380.57581 272.332905 
L 411.067712 271.85498 
L 441.559614 272.897263 
L 472.051517 268.963283 
L 502.543419 272.740131 
L 533.035321 273.943554 
L 563.527223 273.947809 
L 594.019125 273.928959 
L 624.511028 273.948897 
L 655.00293 272.816372 
L 685.494832 273.946423 
L 715.986734 273.175657 
L 746.478636 270.761144 
L 776.970538 272.661516 
L 807.462441 269.457782 
L 837.954343 273.96275 
L 868.446245 273.114506 
L 898.938147 273.97784 
L 929.430049 272.279819 
L 947.725191 273.978433 
" clip-path="url(#p062f824ef3)" style="fill: none; stroke: #5cb85c; stroke-linecap: square"/>
   </g>
   <g id="line2d_11">
    <path d="M 39.066505 273.989753 
L 45.164886 254.242732 
L 51.263266 273.947812 
L 57.361647 273.99006 
L 63.460027 272.400626 
L 69.558408 273.99006 
L 75.656788 273.99006 
L 81.755169 273.99006 
L 87.853549 273.99006 
L 106.14869 273.26509 
L 136.640592 272.534989 
L 167.132495 273.99006 
L 197.624397 273.989876 
L 228.116299 273.99006 
L 258.608201 273.988585 
L 289.100103 273.974544 
L 319.592006 273.988677 
L 350.083908 273.988862 
L 380.57581 273.986373 
L 411.067712 273.98877 
L 441.559614 273.984007 
L 472.051517 273.977463 
L 502.543419 273.97439 
L 533.035321 273.99006 
L 563.527223 273.982348 
L 594.019125 273.978876 
L 624.511028 273.989999 
L 655.00293 273.99006 
L 685.494832 273.99006 
L 715.986734 273.988892 
L 746.478636 273.99006 
L 776.970538 273.990029 
L 807.462441 273.989814 
L 837.954343 273.989906 
L 868.446245 271.095926 
L 898.938147 273.98542 
L 929.430049 273.989015 
L 947.725191 273.99006 
" clip-path="url(#p062f824ef3)" style="fill: none; stroke: #5cb85c; stroke-linecap: square"/>
   </g>
   <g id="line2d_12">
    <path d="M 39.066505 267.738941 
L 45.164886 272.506015 
L 51.263266 271.515576 
L 57.361647 273.855943 
L 63.460027 273.933218 
L 69.558408 273.99006 
L 75.656788 273.99006 
L 81.755169 273.982993 
L 87.853549 273.99006 
L 106.14869 273.989937 
L 136.640592 272.02986 
L 167.132495 273.988186 
L 197.624397 273.98542 
L 228.116299 273.989937 
L 258.608201 273.960072 
L 289.100103 273.964005 
L 319.592006 273.98625 
L 350.083908 273.982379 
L 380.57581 273.097851 
L 411.067712 273.96041 
L 441.559614 273.985513 
L 472.051517 273.894841 
L 502.543419 273.973099 
L 533.035321 273.985636 
L 563.527223 273.952329 
L 594.019125 273.962591 
L 624.511028 273.974267 
L 655.00293 273.958966 
L 685.494832 273.956723 
L 715.986734 273.962376 
L 746.478636 273.973991 
L 776.970538 273.931989 
L 807.462441 273.967231 
L 837.954343 273.989108 
L 868.446245 273.97525 
L 898.938147 273.957491 
L 929.430049 273.958781 
L 947.725191 273.948427 
" clip-path="url(#p062f824ef3)" style="fill: none; stroke: #5cb85c; stroke-linecap: square"/>
   </g>
   <g id="line2d_13">
    <path d="M 39.066505 273.989881 
L 45.164886 255.866605 
L 51.263266 273.99006 
L 57.361647 273.99006 
L 63.460027 272.073335 
L 69.558408 273.99006 
L 75.656788 273.99006 
L 81.755169 273.989164 
L 87.853549 273.99006 
L 106.14869 272.282918 
L 136.640592 273.988375 
L 167.132495 273.987873 
L 197.624397 270.78181 
L 228.116299 273.199203 
L 258.608201 273.989128 
L 289.100103 272.69814 
L 319.592006 273.977187 
L 350.083908 270.465373 
L 380.57581 272.005566 
L 411.067712 273.986259 
L 441.559614 273.190238 
L 472.051517 272.734319 
L 502.543419 273.959546 
L 533.035321 273.285008 
L 563.527223 271.117214 
L 594.019125 272.826507 
L 624.511028 273.223047 
L 655.00293 273.980522 
L 685.494832 273.983104 
L 715.986734 272.556864 
L 746.478636 273.982817 
L 776.970538 273.985255 
L 807.462441 273.99006 
L 837.954343 272.12185 
L 868.446245 272.138451 
L 898.938147 273.159151 
L 929.430049 272.43176 
L 947.725191 273.99006 
" clip-path="url(#p062f824ef3)" style="fill: none; stroke: #5cb85c; stroke-linecap: square"/>
   </g>
   <g id="line2d_14">
    <path d="M 39.066505 269.887685 
L 45.164886 271.616878 
L 51.263266 273.614102 
L 57.361647 269.968004 
L 63.460027 273.86725 
L 69.558408 273.99006 
L 75.656788 269.088258 
L 81.755169 273.888765 
L 87.853549 264.247591 
L 106.14869 273.984359 
L 136.640592 271.165047 
L 167.132495 273.986259 
L 197.624397 273.272458 
L 228.116299 273.357869 
L 258.608201 268.791579 
L 289.100103 273.367407 
L 319.592006 273.984825 
L 350.083908 273.948932 
L 380.57581 272.327811 
L 411.067712 271.866478 
L 441.559614 272.893631 
L 472.051517 268.95089 
L 502.543419 272.721303 
L 533.035321 273.943231 
L 563.527223 273.944916 
L 594.019125 273.931649 
L 624.511028 273.951227 
L 655.00293 272.826937 
L 685.494832 273.946243 
L 715.986734 273.162557 
L 746.478636 270.713753 
L 776.970538 272.641594 
L 807.462441 269.364391 
L 837.954343 273.965821 
L 868.446245 273.098911 
L 898.938147 273.977869 
L 929.430049 272.269938 
L 947.725191 273.978227 
" clip-path="url(#p062f824ef3)" style="fill: none; stroke: #5cb85c; stroke-linecap: square"/>
   </g>
   <g id="line2d_15">
    <path d="M 39.066505 273.989954 
L 45.164886 254.347187 
L 51.263266 273.943341 
L 57.361647 273.99006 
L 63.460027 272.381607 
L 69.558408 273.99006 
L 75.656788 273.99006 
L 81.755169 273.99006 
L 87.853549 273.99006 
L 106.14869 273.287396 
L 136.640592 272.540323 
L 167.132495 273.99006 
L 197.624397 273.989721 
L 228.116299 273.99006 
L 258.608201 273.98828 
L 289.100103 273.974635 
L 319.592006 273.988683 
L 350.083908 273.98845 
L 380.57581 273.985886 
L 411.067712 273.988725 
L 441.559614 273.984127 
L 472.051517 273.977305 
L 502.543419 273.974826 
L 533.035321 273.99006 
L 563.527223 273.98256 
L 594.019125 273.979636 
L 624.511028 273.99006 
L 655.00293 273.99006 
L 685.494832 273.99006 
L 715.986734 273.988746 
L 746.478636 273.99006 
L 776.970538 273.990018 
L 807.462441 273.98989 
L 837.954343 273.989827 
L 868.446245 271.132029 
L 898.938147 273.986267 
L 929.430049 273.988746 
L 947.725191 273.99006 
" clip-path="url(#p062f824ef3)" style="fill: none; stroke: #5cb85c; stroke-linecap: square"/>
   </g>
   <g id="line2d_16">
    <path d="M 39.066505 267.595021 
L 45.164886 272.494113 
L 51.263266 271.523935 
L 57.361647 273.858273 
L 63.460027 273.9319 
L 69.558408 273.99006 
L 75.656788 273.99006 
L 81.755169 273.980526 
L 87.853549 273.99006 
L 106.14869 273.989785 
L 136.640592 272.047691 
L 167.132495 273.987496 
L 197.624397 273.984064 
L 228.116299 273.989975 
L 258.608201 273.957219 
L 289.100103 273.963809 
L 319.592006 273.985992 
L 350.083908 273.981331 
L 380.57581 273.096644 
L 411.067712 273.960927 
L 441.559614 273.985123 
L 472.051517 273.89408 
L 502.543419 273.972199 
L 533.035321 273.985505 
L 563.527223 273.95313 
L 594.019125 273.962347 
L 624.511028 273.973746 
L 655.00293 273.959677 
L 685.494832 273.956541 
L 715.986734 273.961372 
L 746.478636 273.974191 
L 776.970538 273.929273 
L 807.462441 273.966224 
L 837.954343 273.98917 
L 868.446245 273.975568 
L 898.938147 273.956605 
L 929.430049 273.957834 
L 947.725191 273.950439 
" clip-path="url(#p062f824ef3)" style="fill: none; stroke: #5cb85c; stroke-linecap: square"/>
   </g>
   <g id="line2d_17">
    <path d="M 39.066505 273.989199 
L 45.164886 255.923109 
L 51.263266 273.99006 
L 57.361647 273.99006 
L 63.460027 272.072004 
L 69.558408 273.99006 
L 75.656788 273.99006 
L 81.755169 273.989691 
L 87.853549 273.99006 
L 106.14869 272.317419 
L 136.640592 273.98856 
L 167.132495 273.988191 
L 197.624397 270.80869 
L 228.116299 273.193138 
L 258.608201 273.988634 
L 289.100103 272.711602 
L 319.592006 273.976292 
L 350.083908 270.520619 
L 380.57581 272.008794 
L 411.067712 273.985708 
L 441.559614 273.184484 
L 472.051517 272.745456 
L 502.543419 273.957853 
L 533.035321 273.286392 
L 563.527223 271.118176 
L 594.019125 272.842177 
L 624.511028 273.266108 
L 655.00293 273.981185 
L 685.494832 273.982488 
L 715.986734 272.574438 
L 746.478636 273.982807 
L 776.970538 273.984651 
L 807.462441 273.99006 
L 837.954343 272.150088 
L 868.446245 272.145171 
L 898.938147 273.157734 
L 929.430049 272.43098 
L 947.725191 273.99006 
" clip-path="url(#p062f824ef3)" style="fill: none; stroke: #5cb85c; stroke-linecap: square"/>
   </g>
   <g id="line2d_18">
    <path d="M 39.066505 269.706364 
L 45.164886 271.600081 
L 51.263266 273.618692 
L 57.361647 270.171649 
L 63.460027 273.85533 
L 69.558408 273.99006 
L 75.656788 269.196948 
L 81.755169 273.890488 
L 87.853549 264.397566 
L 106.14869 273.984528 
L 136.640592 271.181312 
L 167.132495 273.986544 
L 197.624397 273.284105 
L 228.116299 273.355994 
L 258.608201 268.887118 
L 289.100103 273.377777 
L 319.592006 273.984872 
L 350.083908 273.948658 
L 380.57581 272.321254 
L 411.067712 271.86568 
L 441.559614 272.882891 
L 472.051517 268.945362 
L 502.543419 272.744227 
L 533.035321 273.944699 
L 563.527223 273.946937 
L 594.019125 273.93103 
L 624.511028 273.951387 
L 655.00293 272.819681 
L 685.494832 273.948215 
L 715.986734 273.182541 
L 746.478636 270.750373 
L 776.970538 272.650801 
L 807.462441 269.441895 
L 837.954343 273.964294 
L 868.446245 273.103375 
L 898.938147 273.978873 
L 929.430049 272.292735 
L 947.725191 273.981701 
" clip-path="url(#p062f824ef3)" style="fill: none; stroke: #5cb85c; stroke-linecap: square"/>
   </g>
   <g id="line2d_19">
    <path d="M 32.968125 273.99006 
L 993.158125 273.99006 
" clip-path="url(#p062f824ef3)" style="fill: none; stroke: #dedede; stroke-width: 2; stroke-linecap: square"/>
   </g>
   <g id="text_17">
    <!-- FastQC: Per Base N Content -->
    <g transform="translate(402.209375 19.3575) scale(0.16 -0.16)">
     <defs>
      <path id="DejaVuSans-46" d="M 628 4666 
L 3309 4666 
L 3309 4134 
L 1259 4134 
L 1259 2759 
L 3109 2759 
L 3109 2228 
L 1259 2228 
L 1259 0 
L 628 0 
L 628 4666 
z
" transform="scale(0.015625)"/>
      <path id="DejaVuSans-51" d="M 2522 4238 
Q 1834 4238 1429 3725 
Q 1025 3213 1025 2328 
Q 1025 1447 1429 934 
Q 1834 422 2522 422 
Q 3209 422 3611 934 
Q 4013 1447 4013 2328 
Q 4013 3213 3611 3725 
Q 3209 4238 2522 4238 
z
M 3406 84 
L 4238 -825 
L 3475 -825 
L 2784 -78 
Q 2681 -84 2626 -87 
Q 2572 -91 2522 -91 
Q 1538 -91 948 567 
Q 359 1225 359 2328 
Q 359 3434 948 4092 
Q 1538 4750 2522 4750 
Q 3503 4750 4090 4092 
Q 4678 3434 4678 2328 
Q 4678 1516 4351 937 
Q 4025 359 3406 84 
z
" transform="scale(0.015625)"/>
      <path id="DejaVuSans-3a" d="M 750 794 
L 1409 794 
L 1409 0 
L 750 0 
L 750 794 
z
M 750 3309 
L 1409 3309 
L 1409 2516 
L 750 2516 
L 750 3309 
z
" transform="scale(0.015625)"/>
      <path id="DejaVuSans-42" d="M 1259 2228 
L 1259 519 
L 2272 519 
Q 2781 519 3026 730 
Q 3272 941 3272 1375 
Q 3272 1813 3026 2020 
Q 2781 2228 2272 2228 
L 1259 2228 
z
M 1259 4147 
L 1259 2741 
L 2194 2741 
Q 2656 2741 2882 2914 
Q 3109 3088 3109 3444 
Q 3109 3797 2882 3972 
Q 2656 4147 2194 4147 
L 1259 4147 
z
M 628 4666 
L 2241 4666 
Q 2963 4666 3353 4366 
Q 3744 4066 3744 3513 
Q 3744 3084 3544 2831 
Q 3344 2578 2956 2516 
Q 3422 2416 3680 2098 
Q 3938 1781 3938 1306 
Q 3938 681 3513 340 
Q 3088 0 2303 0 
L 628 0 
L 628 4666 
z
" transform="scale(0.015625)"/>
     </defs>
     <use xlink:href="#DejaVuSans-46"/>
     <use xlink:href="#DejaVuSans-61" x="48.394531"/>
     <use xlink:href="#DejaVuSans-73" x="109.673828"/>
     <use xlink:href="#DejaVuSans-74" x="161.773438"/>
     <use xlink:href="#DejaVuSans-51" x="200.982422"/>
     <use xlink:href="#DejaVuSans-43" x="279.693359"/>
     <use xlink:href="#DejaVuSans-3a" x="349.517578"/>
     <use xlink:href="#DejaVuSans-20" x="383.208984"/>
     <use xlink:href="#DejaVuSans-50" x="414.996094"/>
     <use xlink:href="#DejaVuSans-65" x="471.673828"/>
     <use xlink:href="#DejaVuSans-72" x="533.197266"/>
     <use xlink:href="#DejaVuSans-20" x="574.310547"/>
     <use xlink:href="#DejaVuSans-42" x="606.097656"/>
     <use xlink:href="#DejaVuSans-61" x="674.701172"/>
     <use xlink:href="#DejaVuSans-73" x="735.980469"/>
     <use xlink:href="#DejaVuSans-65" x="788.080078"/>
     <use xlink:href="#DejaVuSans-20" x="849.603516"/>
     <use xlink:href="#DejaVuSans-4e" x="881.390625"/>
     <use xlink:href="#DejaVuSans-20" x="956.195312"/>
     <use xlink:href="#DejaVuSans-43" x="987.982422"/>
     <use xlink:href="#DejaVuSans-6f" x="1057.806641"/>
     <use xlink:href="#DejaVuSans-6e" x="1118.988281"/>
     <use xlink:href="#DejaVuSans-74" x="1182.367188"/>
     <use xlink:href="#DejaVuSans-65" x="1221.576172"/>
     <use xlink:href="#DejaVuSans-6e" x="1283.099609"/>
     <use xlink:href="#DejaVuSans-74" x="1346.478516"/>
    </g>
   </g>
   <g id="legend_1">
    <g id="line2d_20">
     <path d="M 40.168125 291.525394 
L 48.168125 291.525394 
L 56.168125 291.525394 
" style="fill: none; stroke: #5cb85c; stroke-linecap: square"/>
    </g>
    <g id="text_18">
     <!-- TK9_1_22FFLLLT3_AGAGAACCTA-GGTTATGCTA_L005_T1_1 -->
     <g transform="translate(62.568125 294.325394) scale(0.08 -0.08)">
      <defs>
       <path id="DejaVuSans-54" d="M -19 4666 
L 3928 4666 
L 3928 4134 
L 2272 4134 
L 2272 0 
L 1638 0 
L 1638 4134 
L -19 4134 
L -19 4666 
z
" transform="scale(0.015625)"/>
       <path id="DejaVuSans-4b" d="M 628 4666 
L 1259 4666 
L 1259 2694 
L 3353 4666 
L 4166 4666 
L 1850 2491 
L 4331 0 
L 3500 0 
L 1259 2247 
L 1259 0 
L 628 0 
L 628 4666 
z
" transform="scale(0.015625)"/>
       <path id="DejaVuSans-39" d="M 703 97 
L 703 672 
Q 941 559 1184 500 
Q 1428 441 1663 441 
Q 2288 441 2617 861 
Q 2947 1281 2994 2138 
Q 2813 1869 2534 1725 
Q 2256 1581 1919 1581 
Q 1219 1581 811 2004 
Q 403 2428 403 3163 
Q 403 3881 828 4315 
Q 1253 4750 1959 4750 
Q 2769 4750 3195 4129 
Q 3622 3509 3622 2328 
Q 3622 1225 3098 567 
Q 2575 -91 1691 -91 
Q 1453 -91 1209 -44 
Q 966 3 703 97 
z
M 1959 2075 
Q 2384 2075 2632 2365 
Q 2881 2656 2881 3163 
Q 2881 3666 2632 3958 
Q 2384 4250 1959 4250 
Q 1534 4250 1286 3958 
Q 1038 3666 1038 3163 
Q 1038 2656 1286 2365 
Q 1534 2075 1959 2075 
z
" transform="scale(0.015625)"/>
       <path id="DejaVuSans-5f" d="M 3263 -1063 
L 3263 -1509 
L -63 -1509 
L -63 -1063 
L 3263 -1063 
z
" transform="scale(0.015625)"/>
       <path id="DejaVuSans-4c" d="M 628 4666 
L 1259 4666 
L 1259 531 
L 3531 531 
L 3531 0 
L 628 0 
L 628 4666 
z
" transform="scale(0.015625)"/>
       <path id="DejaVuSans-41" d="M 2188 4044 
L 1331 1722 
L 3047 1722 
L 2188 4044 
z
M 1831 4666 
L 2547 4666 
L 4325 0 
L 3669 0 
L 3244 1197 
L 1141 1197 
L 716 0 
L 50 0 
L 1831 4666 
z
" transform="scale(0.015625)"/>
       <path id="DejaVuSans-47" d="M 3809 666 
L 3809 1919 
L 2778 1919 
L 2778 2438 
L 4434 2438 
L 4434 434 
Q 4069 175 3628 42 
Q 3188 -91 2688 -91 
Q 1594 -91 976 548 
Q 359 1188 359 2328 
Q 359 3472 976 4111 
Q 1594 4750 2688 4750 
Q 3144 4750 3555 4637 
Q 3966 4525 4313 4306 
L 4313 3634 
Q 3963 3931 3569 4081 
Q 3175 4231 2741 4231 
Q 1884 4231 1454 3753 
Q 1025 3275 1025 2328 
Q 1025 1384 1454 906 
Q 1884 428 2741 428 
Q 3075 428 3337 486 
Q 3600 544 3809 666 
z
" transform="scale(0.015625)"/>
      </defs>
      <use xlink:href="#DejaVuSans-54"/>
      <use xlink:href="#DejaVuSans-4b" x="61.083984"/>
      <use xlink:href="#DejaVuSans-39" x="126.660156"/>
      <use xlink:href="#DejaVuSans-5f" x="190.283203"/>
      <use xlink:href="#DejaVuSans-31" x="240.283203"/>
      <use xlink:href="#DejaVuSans-5f" x="303.90625"/>
      <use xlink:href="#DejaVuSans-32" x="353.90625"/>
      <use xlink:href="#DejaVuSans-32" x="417.529297"/>
      <use xlink:href="#DejaVuSans-46" x="481.152344"/>
      <use xlink:href="#DejaVuSans-46" x="538.671875"/>
      <use xlink:href="#DejaVuSans-4c" x="596.191406"/>
      <use xlink:href="#DejaVuSans-4c" x="651.904297"/>
      <use xlink:href="#DejaVuSans-4c" x="707.617188"/>
      <use xlink:href="#DejaVuSans-54" x="749.580078"/>
      <use xlink:href="#DejaVuSans-33" x="810.664062"/>
      <use xlink:href="#DejaVuSans-5f" x="874.287109"/>
      <use xlink:href="#DejaVuSans-41" x="924.287109"/>
      <use xlink:href="#DejaVuSans-47" x="990.945312"/>
      <use xlink:href="#DejaVuSans-41" x="1068.435547"/>
      <use xlink:href="#DejaVuSans-47" x="1135.09375"/>
      <use xlink:href="#DejaVuSans-41" x="1212.583984"/>
      <use xlink:href="#DejaVuSans-41" x="1283.742188"/>
      <use xlink:href="#DejaVuSans-43" x="1350.400391"/>
      <use xlink:href="#DejaVuSans-43" x="1420.224609"/>
      <use xlink:href="#DejaVuSans-54" x="1490.048828"/>
      <use xlink:href="#DejaVuSans-41" x="1543.382812"/>
      <use xlink:href="#DejaVuSans-2d" x="1609.541016"/>
      <use xlink:href="#DejaVuSans-47" x="1649.25"/>
      <use xlink:href="#DejaVuSans-47" x="1726.740234"/>
      <use xlink:href="#DejaVuSans-54" x="1800.605469"/>
      <use xlink:href="#DejaVuSans-54" x="1859.939453"/>
      <use xlink:href="#DejaVuSans-41" x="1913.273438"/>
      <use xlink:href="#DejaVuSans-54" x="1973.931641"/>
      <use xlink:href="#DejaVuSans-47" x="2035.015625"/>
      <use xlink:href="#DejaVuSans-43" x="2112.505859"/>
      <use xlink:href="#DejaVuSans-54" x="2182.330078"/>
      <use xlink:href="#DejaVuSans-41" x="2235.664062"/>
      <use xlink:href="#DejaVuSans-5f" x="2304.072266"/>
      <use xlink:href="#DejaVuSans-4c" x="2354.072266"/>
      <use xlink:href="#DejaVuSans-30" x="2409.785156"/>
      <use xlink:href="#DejaVuSans-30" x="2473.408203"/>
      <use xlink:href="#DejaVuSans-35" x="2537.03125"/>
      <use xlink:href="#DejaVuSans-5f" x="2600.654297"/>
      <use xlink:href="#DejaVuSans-54" x="2650.654297"/>
      <use xlink:href="#DejaVuSans-31" x="2711.738281"/>
      <use xlink:href="#DejaVuSans-5f" x="2775.361328"/>
      <use xlink:href="#DejaVuSans-31" x="2825.361328"/>
     </g>
    </g>
    <g id="line2d_21">
     <path d="M 40.168125 303.490394 
L 48.168125 303.490394 
L 56.168125 303.490394 
" style="fill: none; stroke: #5cb85c; stroke-linecap: square"/>
    </g>
    <g id="text_19">
     <!-- TK9_1_22FFLLLT3_AGAGAACCTA-GGTTATGCTA_L005_T1_2 -->
     <g transform="translate(62.568125 306.290394) scale(0.08 -0.08)">
      <use xlink:href="#DejaVuSans-54"/>
      <use xlink:href="#DejaVuSans-4b" x="61.083984"/>
      <use xlink:href="#DejaVuSans-39" x="126.660156"/>
      <use xlink:href="#DejaVuSans-5f" x="190.283203"/>
      <use xlink:href="#DejaVuSans-31" x="240.283203"/>
      <use xlink:href="#DejaVuSans-5f" x="303.90625"/>
      <use xlink:href="#DejaVuSans-32" x="353.90625"/>
      <use xlink:href="#DejaVuSans-32" x="417.529297"/>
      <use xlink:href="#DejaVuSans-46" x="481.152344"/>
      <use xlink:href="#DejaVuSans-46" x="538.671875"/>
      <use xlink:href="#DejaVuSans-4c" x="596.191406"/>
      <use xlink:href="#DejaVuSans-4c" x="651.904297"/>
      <use xlink:href="#DejaVuSans-4c" x="707.617188"/>
      <use xlink:href="#DejaVuSans-54" x="749.580078"/>
      <use xlink:href="#DejaVuSans-33" x="810.664062"/>
      <use xlink:href="#DejaVuSans-5f" x="874.287109"/>
      <use xlink:href="#DejaVuSans-41" x="924.287109"/>
      <use xlink:href="#DejaVuSans-47" x="990.945312"/>
      <use xlink:href="#DejaVuSans-41" x="1068.435547"/>
      <use xlink:href="#DejaVuSans-47" x="1135.09375"/>
      <use xlink:href="#DejaVuSans-41" x="1212.583984"/>
      <use xlink:href="#DejaVuSans-41" x="1283.742188"/>
      <use xlink:href="#DejaVuSans-43" x="1350.400391"/>
      <use xlink:href="#DejaVuSans-43" x="1420.224609"/>
      <use xlink:href="#DejaVuSans-54" x="1490.048828"/>
      <use xlink:href="#DejaVuSans-41" x="1543.382812"/>
      <use xlink:href="#DejaVuSans-2d" x="1609.541016"/>
      <use xlink:href="#DejaVuSans-47" x="1649.25"/>
      <use xlink:href="#DejaVuSans-47" x="1726.740234"/>
      <use xlink:href="#DejaVuSans-54" x="1800.605469"/>
      <use xlink:href="#DejaVuSans-54" x="1859.939453"/>
      <use xlink:href="#DejaVuSans-41" x="1913.273438"/>
      <use xlink:href="#DejaVuSans-54" x="1973.931641"/>
      <use xlink:href="#DejaVuSans-47" x="2035.015625"/>
      <use xlink:href="#DejaVuSans-43" x="2112.505859"/>
      <use xlink:href="#DejaVuSans-54" x="2182.330078"/>
      <use xlink:href="#DejaVuSans-41" x="2235.664062"/>
      <use xlink:href="#DejaVuSans-5f" x="2304.072266"/>
      <use xlink:href="#DejaVuSans-4c" x="2354.072266"/>
      <use xlink:href="#DejaVuSans-30" x="2409.785156"/>
      <use xlink:href="#DejaVuSans-30" x="2473.408203"/>
      <use xlink:href="#DejaVuSans-35" x="2537.03125"/>
      <use xlink:href="#DejaVuSans-5f" x="2600.654297"/>
      <use xlink:href="#DejaVuSans-54" x="2650.654297"/>
      <use xlink:href="#DejaVuSans-31" x="2711.738281"/>
      <use xlink:href="#DejaVuSans-5f" x="2775.361328"/>
      <use xlink:href="#DejaVuSans-32" x="2825.361328"/>
     </g>
    </g>
    <g id="line2d_22">
     <path d="M 40.168125 315.455394 
L 48.168125 315.455394 
L 56.168125 315.455394 
" style="fill: none; stroke: #5cb85c; stroke-linecap: square"/>
    </g>
    <g id="text_20">
     <!-- TK9_1_22FFLLLT3_AGAGAACCTA-GGTTATGCTA_L006_T1_1 -->
     <g transform="translate(62.568125 318.255394) scale(0.08 -0.08)">
      <use xlink:href="#DejaVuSans-54"/>
      <use xlink:href="#DejaVuSans-4b" x="61.083984"/>
      <use xlink:href="#DejaVuSans-39" x="126.660156"/>
      <use xlink:href="#DejaVuSans-5f" x="190.283203"/>
      <use xlink:href="#DejaVuSans-31" x="240.283203"/>
      <use xlink:href="#DejaVuSans-5f" x="303.90625"/>
      <use xlink:href="#DejaVuSans-32" x="353.90625"/>
      <use xlink:href="#DejaVuSans-32" x="417.529297"/>
      <use xlink:href="#DejaVuSans-46" x="481.152344"/>
      <use xlink:href="#DejaVuSans-46" x="538.671875"/>
      <use xlink:href="#DejaVuSans-4c" x="596.191406"/>
      <use xlink:href="#DejaVuSans-4c" x="651.904297"/>
      <use xlink:href="#DejaVuSans-4c" x="707.617188"/>
      <use xlink:href="#DejaVuSans-54" x="749.580078"/>
      <use xlink:href="#DejaVuSans-33" x="810.664062"/>
      <use xlink:href="#DejaVuSans-5f" x="874.287109"/>
      <use xlink:href="#DejaVuSans-41" x="924.287109"/>
      <use xlink:href="#DejaVuSans-47" x="990.945312"/>
      <use xlink:href="#DejaVuSans-41" x="1068.435547"/>
      <use xlink:href="#DejaVuSans-47" x="1135.09375"/>
      <use xlink:href="#DejaVuSans-41" x="1212.583984"/>
      <use xlink:href="#DejaVuSans-41" x="1283.742188"/>
      <use xlink:href="#DejaVuSans-43" x="1350.400391"/>
      <use xlink:href="#DejaVuSans-43" x="1420.224609"/>
      <use xlink:href="#DejaVuSans-54" x="1490.048828"/>
      <use xlink:href="#DejaVuSans-41" x="1543.382812"/>
      <use xlink:href="#DejaVuSans-2d" x="1609.541016"/>
      <use xlink:href="#DejaVuSans-47" x="1649.25"/>
      <use xlink:href="#DejaVuSans-47" x="1726.740234"/>
      <use xlink:href="#DejaVuSans-54" x="1800.605469"/>
      <use xlink:href="#DejaVuSans-54" x="1859.939453"/>
      <use xlink:href="#DejaVuSans-41" x="1913.273438"/>
      <use xlink:href="#DejaVuSans-54" x="1973.931641"/>
      <use xlink:href="#DejaVuSans-47" x="2035.015625"/>
      <use xlink:href="#DejaVuSans-43" x="2112.505859"/>
      <use xlink:href="#DejaVuSans-54" x="2182.330078"/>
      <use xlink:href="#DejaVuSans-41" x="2235.664062"/>
      <use xlink:href="#DejaVuSans-5f" x="2304.072266"/>
      <use xlink:href="#DejaVuSans-4c" x="2354.072266"/>
      <use xlink:href="#DejaVuSans-30" x="2409.785156"/>
      <use xlink:href="#DejaVuSans-30" x="2473.408203"/>
      <use xlink:href="#DejaVuSans-36" x="2537.03125"/>
      <use xlink:href="#DejaVuSans-5f" x="2600.654297"/>
      <use xlink:href="#DejaVuSans-54" x="2650.654297"/>
      <use xlink:href="#DejaVuSans-31" x="2711.738281"/>
      <use xlink:href="#DejaVuSans-5f" x="2775.361328"/>
      <use xlink:href="#DejaVuSans-31" x="2825.361328"/>
     </g>
    </g>
    <g id="line2d_23">
     <path d="M 214.39625 291.525394 
L 222.39625 291.525394 
L 230.39625 291.525394 
" style="fill: none; stroke: #5cb85c; stroke-linecap: square"/>
    </g>
    <g id="text_21">
     <!-- TK9_1_22FFLLLT3_AGAGAACCTA-GGTTATGCTA_L006_T1_2 -->
     <g transform="translate(236.79625 294.325394) scale(0.08 -0.08)">
      <use xlink:href="#DejaVuSans-54"/>
      <use xlink:href="#DejaVuSans-4b" x="61.083984"/>
      <use xlink:href="#DejaVuSans-39" x="126.660156"/>
      <use xlink:href="#DejaVuSans-5f" x="190.283203"/>
      <use xlink:href="#DejaVuSans-31" x="240.283203"/>
      <use xlink:href="#DejaVuSans-5f" x="303.90625"/>
      <use xlink:href="#DejaVuSans-32" x="353.90625"/>
      <use xlink:href="#DejaVuSans-32" x="417.529297"/>
      <use xlink:href="#DejaVuSans-46" x="481.152344"/>
      <use xlink:href="#DejaVuSans-46" x="538.671875"/>
      <use xlink:href="#DejaVuSans-4c" x="596.191406"/>
      <use xlink:href="#DejaVuSans-4c" x="651.904297"/>
      <use xlink:href="#DejaVuSans-4c" x="707.617188"/>
      <use xlink:href="#DejaVuSans-54" x="749.580078"/>
      <use xlink:href="#DejaVuSans-33" x="810.664062"/>
      <use xlink:href="#DejaVuSans-5f" x="874.287109"/>
      <use xlink:href="#DejaVuSans-41" x="924.287109"/>
      <use xlink:href="#DejaVuSans-47" x="990.945312"/>
      <use xlink:href="#DejaVuSans-41" x="1068.435547"/>
      <use xlink:href="#DejaVuSans-47" x="1135.09375"/>
      <use xlink:href="#DejaVuSans-41" x="1212.583984"/>
      <use xlink:href="#DejaVuSans-41" x="1283.742188"/>
      <use xlink:href="#DejaVuSans-43" x="1350.400391"/>
      <use xlink:href="#DejaVuSans-43" x="1420.224609"/>
      <use xlink:href="#DejaVuSans-54" x="1490.048828"/>
      <use xlink:href="#DejaVuSans-41" x="1543.382812"/>
      <use xlink:href="#DejaVuSans-2d" x="1609.541016"/>
      <use xlink:href="#DejaVuSans-47" x="1649.25"/>
      <use xlink:href="#DejaVuSans-47" x="1726.740234"/>
      <use xlink:href="#DejaVuSans-54" x="1800.605469"/>
      <use xlink:href="#DejaVuSans-54" x="1859.939453"/>
      <use xlink:href="#DejaVuSans-41" x="1913.273438"/>
      <use xlink:href="#DejaVuSans-54" x="1973.931641"/>
      <use xlink:href="#DejaVuSans-47" x="2035.015625"/>
      <use xlink:href="#DejaVuSans-43" x="2112.505859"/>
      <use xlink:href="#DejaVuSans-54" x="2182.330078"/>
      <use xlink:href="#DejaVuSans-41" x="2235.664062"/>
      <use xlink:href="#DejaVuSans-5f" x="2304.072266"/>
      <use xlink:href="#DejaVuSans-4c" x="2354.072266"/>
      <use xlink:href="#DejaVuSans-30" x="2409.785156"/>
      <use xlink:href="#DejaVuSans-30" x="2473.408203"/>
      <use xlink:href="#DejaVuSans-36" x="2537.03125"/>
      <use xlink:href="#DejaVuSans-5f" x="2600.654297"/>
      <use xlink:href="#DejaVuSans-54" x="2650.654297"/>
      <use xlink:href="#DejaVuSans-31" x="2711.738281"/>
      <use xlink:href="#DejaVuSans-5f" x="2775.361328"/>
      <use xlink:href="#DejaVuSans-32" x="2825.361328"/>
     </g>
    </g>
    <g id="line2d_24">
     <path d="M 214.39625 303.490394 
L 222.39625 303.490394 
L 230.39625 303.490394 
" style="fill: none; stroke: #5cb85c; stroke-linecap: square"/>
    </g>
    <g id="text_22">
     <!-- TK9_2_22FFLLLT3_GATATTGTGT-ACCACACGGT_L005_T1_1 -->
     <g transform="translate(236.79625 306.290394) scale(0.08 -0.08)">
      <use xlink:href="#DejaVuSans-54"/>
      <use xlink:href="#DejaVuSans-4b" x="61.083984"/>
      <use xlink:href="#DejaVuSans-39" x="126.660156"/>
      <use xlink:href="#DejaVuSans-5f" x="190.283203"/>
      <use xlink:href="#DejaVuSans-32" x="240.283203"/>
      <use xlink:href="#DejaVuSans-5f" x="303.90625"/>
      <use xlink:href="#DejaVuSans-32" x="353.90625"/>
      <use xlink:href="#DejaVuSans-32" x="417.529297"/>
      <use xlink:href="#DejaVuSans-46" x="481.152344"/>
      <use xlink:href="#DejaVuSans-46" x="538.671875"/>
      <use xlink:href="#DejaVuSans-4c" x="596.191406"/>
      <use xlink:href="#DejaVuSans-4c" x="651.904297"/>
      <use xlink:href="#DejaVuSans-4c" x="707.617188"/>
      <use xlink:href="#DejaVuSans-54" x="749.580078"/>
      <use xlink:href="#DejaVuSans-33" x="810.664062"/>
      <use xlink:href="#DejaVuSans-5f" x="874.287109"/>
      <use xlink:href="#DejaVuSans-47" x="924.287109"/>
      <use xlink:href="#DejaVuSans-41" x="1001.777344"/>
      <use xlink:href="#DejaVuSans-54" x="1062.435547"/>
      <use xlink:href="#DejaVuSans-41" x="1115.769531"/>
      <use xlink:href="#DejaVuSans-54" x="1176.427734"/>
      <use xlink:href="#DejaVuSans-54" x="1235.761719"/>
      <use xlink:href="#DejaVuSans-47" x="1296.845703"/>
      <use xlink:href="#DejaVuSans-54" x="1370.710938"/>
      <use xlink:href="#DejaVuSans-47" x="1431.794922"/>
      <use xlink:href="#DejaVuSans-54" x="1505.660156"/>
      <use xlink:href="#DejaVuSans-2d" x="1557.619141"/>
      <use xlink:href="#DejaVuSans-41" x="1591.453125"/>
      <use xlink:href="#DejaVuSans-43" x="1658.111328"/>
      <use xlink:href="#DejaVuSans-43" x="1727.935547"/>
      <use xlink:href="#DejaVuSans-41" x="1797.759766"/>
      <use xlink:href="#DejaVuSans-43" x="1864.417969"/>
      <use xlink:href="#DejaVuSans-41" x="1934.242188"/>
      <use xlink:href="#DejaVuSans-43" x="2000.900391"/>
      <use xlink:href="#DejaVuSans-47" x="2070.724609"/>
      <use xlink:href="#DejaVuSans-47" x="2148.214844"/>
      <use xlink:href="#DejaVuSans-54" x="2222.080078"/>
      <use xlink:href="#DejaVuSans-5f" x="2283.164062"/>
      <use xlink:href="#DejaVuSans-4c" x="2333.164062"/>
      <use xlink:href="#DejaVuSans-30" x="2388.876953"/>
      <use xlink:href="#DejaVuSans-30" x="2452.5"/>
      <use xlink:href="#DejaVuSans-35" x="2516.123047"/>
      <use xlink:href="#DejaVuSans-5f" x="2579.746094"/>
      <use xlink:href="#DejaVuSans-54" x="2629.746094"/>
      <use xlink:href="#DejaVuSans-31" x="2690.830078"/>
      <use xlink:href="#DejaVuSans-5f" x="2754.453125"/>
      <use xlink:href="#DejaVuSans-31" x="2804.453125"/>
     </g>
    </g>
    <g id="line2d_25">
     <path d="M 214.39625 315.455394 
L 222.39625 315.455394 
L 230.39625 315.455394 
" style="fill: none; stroke: #5cb85c; stroke-linecap: square"/>
    </g>
    <g id="text_23">
     <!-- TK9_2_22FFLLLT3_GATATTGTGT-ACCACACGGT_L005_T1_2 -->
     <g transform="translate(236.79625 318.255394) scale(0.08 -0.08)">
      <use xlink:href="#DejaVuSans-54"/>
      <use xlink:href="#DejaVuSans-4b" x="61.083984"/>
      <use xlink:href="#DejaVuSans-39" x="126.660156"/>
      <use xlink:href="#DejaVuSans-5f" x="190.283203"/>
      <use xlink:href="#DejaVuSans-32" x="240.283203"/>
      <use xlink:href="#DejaVuSans-5f" x="303.90625"/>
      <use xlink:href="#DejaVuSans-32" x="353.90625"/>
      <use xlink:href="#DejaVuSans-32" x="417.529297"/>
      <use xlink:href="#DejaVuSans-46" x="481.152344"/>
      <use xlink:href="#DejaVuSans-46" x="538.671875"/>
      <use xlink:href="#DejaVuSans-4c" x="596.191406"/>
      <use xlink:href="#DejaVuSans-4c" x="651.904297"/>
      <use xlink:href="#DejaVuSans-4c" x="707.617188"/>
      <use xlink:href="#DejaVuSans-54" x="749.580078"/>
      <use xlink:href="#DejaVuSans-33" x="810.664062"/>
      <use xlink:href="#DejaVuSans-5f" x="874.287109"/>
      <use xlink:href="#DejaVuSans-47" x="924.287109"/>
      <use xlink:href="#DejaVuSans-41" x="1001.777344"/>
      <use xlink:href="#DejaVuSans-54" x="1062.435547"/>
      <use xlink:href="#DejaVuSans-41" x="1115.769531"/>
      <use xlink:href="#DejaVuSans-54" x="1176.427734"/>
      <use xlink:href="#DejaVuSans-54" x="1235.761719"/>
      <use xlink:href="#DejaVuSans-47" x="1296.845703"/>
      <use xlink:href="#DejaVuSans-54" x="1370.710938"/>
      <use xlink:href="#DejaVuSans-47" x="1431.794922"/>
      <use xlink:href="#DejaVuSans-54" x="1505.660156"/>
      <use xlink:href="#DejaVuSans-2d" x="1557.619141"/>
      <use xlink:href="#DejaVuSans-41" x="1591.453125"/>
      <use xlink:href="#DejaVuSans-43" x="1658.111328"/>
      <use xlink:href="#DejaVuSans-43" x="1727.935547"/>
      <use xlink:href="#DejaVuSans-41" x="1797.759766"/>
      <use xlink:href="#DejaVuSans-43" x="1864.417969"/>
      <use xlink:href="#DejaVuSans-41" x="1934.242188"/>
      <use xlink:href="#DejaVuSans-43" x="2000.900391"/>
      <use xlink:href="#DejaVuSans-47" x="2070.724609"/>
      <use xlink:href="#DejaVuSans-47" x="2148.214844"/>
      <use xlink:href="#DejaVuSans-54" x="2222.080078"/>
      <use xlink:href="#DejaVuSans-5f" x="2283.164062"/>
      <use xlink:href="#DejaVuSans-4c" x="2333.164062"/>
      <use xlink:href="#DejaVuSans-30" x="2388.876953"/>
      <use xlink:href="#DejaVuSans-30" x="2452.5"/>
      <use xlink:href="#DejaVuSans-35" x="2516.123047"/>
      <use xlink:href="#DejaVuSans-5f" x="2579.746094"/>
      <use xlink:href="#DejaVuSans-54" x="2629.746094"/>
      <use xlink:href="#DejaVuSans-31" x="2690.830078"/>
      <use xlink:href="#DejaVuSans-5f" x="2754.453125"/>
      <use xlink:href="#DejaVuSans-32" x="2804.453125"/>
     </g>
    </g>
    <g id="line2d_26">
     <path d="M 388.624375 291.525394 
L 396.624375 291.525394 
L 404.624375 291.525394 
" style="fill: none; stroke: #5cb85c; stroke-linecap: square"/>
    </g>
    <g id="text_24">
     <!-- TK9_2_22FFLLLT3_GATATTGTGT-ACCACACGGT_L006_T1_1 -->
     <g transform="translate(411.024375 294.325394) scale(0.08 -0.08)">
      <use xlink:href="#DejaVuSans-54"/>
      <use xlink:href="#DejaVuSans-4b" x="61.083984"/>
      <use xlink:href="#DejaVuSans-39" x="126.660156"/>
      <use xlink:href="#DejaVuSans-5f" x="190.283203"/>
      <use xlink:href="#DejaVuSans-32" x="240.283203"/>
      <use xlink:href="#DejaVuSans-5f" x="303.90625"/>
      <use xlink:href="#DejaVuSans-32" x="353.90625"/>
      <use xlink:href="#DejaVuSans-32" x="417.529297"/>
      <use xlink:href="#DejaVuSans-46" x="481.152344"/>
      <use xlink:href="#DejaVuSans-46" x="538.671875"/>
      <use xlink:href="#DejaVuSans-4c" x="596.191406"/>
      <use xlink:href="#DejaVuSans-4c" x="651.904297"/>
      <use xlink:href="#DejaVuSans-4c" x="707.617188"/>
      <use xlink:href="#DejaVuSans-54" x="749.580078"/>
      <use xlink:href="#DejaVuSans-33" x="810.664062"/>
      <use xlink:href="#DejaVuSans-5f" x="874.287109"/>
      <use xlink:href="#DejaVuSans-47" x="924.287109"/>
      <use xlink:href="#DejaVuSans-41" x="1001.777344"/>
      <use xlink:href="#DejaVuSans-54" x="1062.435547"/>
      <use xlink:href="#DejaVuSans-41" x="1115.769531"/>
      <use xlink:href="#DejaVuSans-54" x="1176.427734"/>
      <use xlink:href="#DejaVuSans-54" x="1235.761719"/>
      <use xlink:href="#DejaVuSans-47" x="1296.845703"/>
      <use xlink:href="#DejaVuSans-54" x="1370.710938"/>
      <use xlink:href="#DejaVuSans-47" x="1431.794922"/>
      <use xlink:href="#DejaVuSans-54" x="1505.660156"/>
      <use xlink:href="#DejaVuSans-2d" x="1557.619141"/>
      <use xlink:href="#DejaVuSans-41" x="1591.453125"/>
      <use xlink:href="#DejaVuSans-43" x="1658.111328"/>
      <use xlink:href="#DejaVuSans-43" x="1727.935547"/>
      <use xlink:href="#DejaVuSans-41" x="1797.759766"/>
      <use xlink:href="#DejaVuSans-43" x="1864.417969"/>
      <use xlink:href="#DejaVuSans-41" x="1934.242188"/>
      <use xlink:href="#DejaVuSans-43" x="2000.900391"/>
      <use xlink:href="#DejaVuSans-47" x="2070.724609"/>
      <use xlink:href="#DejaVuSans-47" x="2148.214844"/>
      <use xlink:href="#DejaVuSans-54" x="2222.080078"/>
      <use xlink:href="#DejaVuSans-5f" x="2283.164062"/>
      <use xlink:href="#DejaVuSans-4c" x="2333.164062"/>
      <use xlink:href="#DejaVuSans-30" x="2388.876953"/>
      <use xlink:href="#DejaVuSans-30" x="2452.5"/>
      <use xlink:href="#DejaVuSans-36" x="2516.123047"/>
      <use xlink:href="#DejaVuSans-5f" x="2579.746094"/>
      <use xlink:href="#DejaVuSans-54" x="2629.746094"/>
      <use xlink:href="#DejaVuSans-31" x="2690.830078"/>
      <use xlink:href="#DejaVuSans-5f" x="2754.453125"/>
      <use xlink:href="#DejaVuSans-31" x="2804.453125"/>
     </g>
    </g>
    <g id="line2d_27">
     <path d="M 388.624375 303.490394 
L 396.624375 303.490394 
L 404.624375 303.490394 
" style="fill: none; stroke: #5cb85c; stroke-linecap: square"/>
    </g>
    <g id="text_25">
     <!-- TK9_2_22FFLLLT3_GATATTGTGT-ACCACACGGT_L006_T1_2 -->
     <g transform="translate(411.024375 306.290394) scale(0.08 -0.08)">
      <use xlink:href="#DejaVuSans-54"/>
      <use xlink:href="#DejaVuSans-4b" x="61.083984"/>
      <use xlink:href="#DejaVuSans-39" x="126.660156"/>
      <use xlink:href="#DejaVuSans-5f" x="190.283203"/>
      <use xlink:href="#DejaVuSans-32" x="240.283203"/>
      <use xlink:href="#DejaVuSans-5f" x="303.90625"/>
      <use xlink:href="#DejaVuSans-32" x="353.90625"/>
      <use xlink:href="#DejaVuSans-32" x="417.529297"/>
      <use xlink:href="#DejaVuSans-46" x="481.152344"/>
      <use xlink:href="#DejaVuSans-46" x="538.671875"/>
      <use xlink:href="#DejaVuSans-4c" x="596.191406"/>
      <use xlink:href="#DejaVuSans-4c" x="651.904297"/>
      <use xlink:href="#DejaVuSans-4c" x="707.617188"/>
      <use xlink:href="#DejaVuSans-54" x="749.580078"/>
      <use xlink:href="#DejaVuSans-33" x="810.664062"/>
      <use xlink:href="#DejaVuSans-5f" x="874.287109"/>
      <use xlink:href="#DejaVuSans-47" x="924.287109"/>
      <use xlink:href="#DejaVuSans-41" x="1001.777344"/>
      <use xlink:href="#DejaVuSans-54" x="1062.435547"/>
      <use xlink:href="#DejaVuSans-41" x="1115.769531"/>
      <use xlink:href="#DejaVuSans-54" x="1176.427734"/>
      <use xlink:href="#DejaVuSans-54" x="1235.761719"/>
      <use xlink:href="#DejaVuSans-47" x="1296.845703"/>
      <use xlink:href="#DejaVuSans-54" x="1370.710938"/>
      <use xlink:href="#DejaVuSans-47" x="1431.794922"/>
      <use xlink:href="#DejaVuSans-54" x="1505.660156"/>
      <use xlink:href="#DejaVuSans-2d" x="1557.619141"/>
      <use xlink:href="#DejaVuSans-41" x="1591.453125"/>
      <use xlink:href="#DejaVuSans-43" x="1658.111328"/>
      <use xlink:href="#DejaVuSans-43" x="1727.935547"/>
      <use xlink:href="#DejaVuSans-41" x="1797.759766"/>
      <use xlink:href="#DejaVuSans-43" x="1864.417969"/>
      <use xlink:href="#DejaVuSans-41" x="1934.242188"/>
      <use xlink:href="#DejaVuSans-43" x="2000.900391"/>
      <use xlink:href="#DejaVuSans-47" x="2070.724609"/>
      <use xlink:href="#DejaVuSans-47" x="2148.214844"/>
      <use xlink:href="#DejaVuSans-54" x="2222.080078"/>
      <use xlink:href="#DejaVuSans-5f" x="2283.164062"/>
      <use xlink:href="#DejaVuSans-4c" x="2333.164062"/>
      <use xlink:href="#DejaVuSans-30" x="2388.876953"/>
      <use xlink:href="#DejaVuSans-30" x="2452.5"/>
      <use xlink:href="#DejaVuSans-36" x="2516.123047"/>
      <use xlink:href="#DejaVuSans-5f" x="2579.746094"/>
      <use xlink:href="#DejaVuSans-54" x="2629.746094"/>
      <use xlink:href="#DejaVuSans-31" x="2690.830078"/>
      <use xlink:href="#DejaVuSans-5f" x="2754.453125"/>
      <use xlink:href="#DejaVuSans-32" x="2804.453125"/>
     </g>
    </g>
    <g id="line2d_28">
     <path d="M 561.18 291.525394 
L 569.18 291.525394 
L 577.18 291.525394 
" style="fill: none; stroke: #5cb85c; stroke-linecap: square"/>
    </g>
    <g id="text_26">
     <!-- TK9_3_22FFLLLT3_CGTACAGGAA-TAGGTTCTCT_L005_T1_1 -->
     <g transform="translate(583.58 294.325394) scale(0.08 -0.08)">
      <use xlink:href="#DejaVuSans-54"/>
      <use xlink:href="#DejaVuSans-4b" x="61.083984"/>
      <use xlink:href="#DejaVuSans-39" x="126.660156"/>
      <use xlink:href="#DejaVuSans-5f" x="190.283203"/>
      <use xlink:href="#DejaVuSans-33" x="240.283203"/>
      <use xlink:href="#DejaVuSans-5f" x="303.90625"/>
      <use xlink:href="#DejaVuSans-32" x="353.90625"/>
      <use xlink:href="#DejaVuSans-32" x="417.529297"/>
      <use xlink:href="#DejaVuSans-46" x="481.152344"/>
      <use xlink:href="#DejaVuSans-46" x="538.671875"/>
      <use xlink:href="#DejaVuSans-4c" x="596.191406"/>
      <use xlink:href="#DejaVuSans-4c" x="651.904297"/>
      <use xlink:href="#DejaVuSans-4c" x="707.617188"/>
      <use xlink:href="#DejaVuSans-54" x="749.580078"/>
      <use xlink:href="#DejaVuSans-33" x="810.664062"/>
      <use xlink:href="#DejaVuSans-5f" x="874.287109"/>
      <use xlink:href="#DejaVuSans-43" x="924.287109"/>
      <use xlink:href="#DejaVuSans-47" x="994.111328"/>
      <use xlink:href="#DejaVuSans-54" x="1067.976562"/>
      <use xlink:href="#DejaVuSans-41" x="1121.310547"/>
      <use xlink:href="#DejaVuSans-43" x="1187.96875"/>
      <use xlink:href="#DejaVuSans-41" x="1257.792969"/>
      <use xlink:href="#DejaVuSans-47" x="1324.451172"/>
      <use xlink:href="#DejaVuSans-47" x="1401.941406"/>
      <use xlink:href="#DejaVuSans-41" x="1479.431641"/>
      <use xlink:href="#DejaVuSans-41" x="1550.589844"/>
      <use xlink:href="#DejaVuSans-2d" x="1616.748047"/>
      <use xlink:href="#DejaVuSans-54" x="1643.707031"/>
      <use xlink:href="#DejaVuSans-41" x="1697.041016"/>
      <use xlink:href="#DejaVuSans-47" x="1763.699219"/>
      <use xlink:href="#DejaVuSans-47" x="1841.189453"/>
      <use xlink:href="#DejaVuSans-54" x="1915.054688"/>
      <use xlink:href="#DejaVuSans-54" x="1974.388672"/>
      <use xlink:href="#DejaVuSans-43" x="2029.597656"/>
      <use xlink:href="#DejaVuSans-54" x="2099.421875"/>
      <use xlink:href="#DejaVuSans-43" x="2154.630859"/>
      <use xlink:href="#DejaVuSans-54" x="2224.455078"/>
      <use xlink:href="#DejaVuSans-5f" x="2285.539062"/>
      <use xlink:href="#DejaVuSans-4c" x="2335.539062"/>
      <use xlink:href="#DejaVuSans-30" x="2391.251953"/>
      <use xlink:href="#DejaVuSans-30" x="2454.875"/>
      <use xlink:href="#DejaVuSans-35" x="2518.498047"/>
      <use xlink:href="#DejaVuSans-5f" x="2582.121094"/>
      <use xlink:href="#DejaVuSans-54" x="2632.121094"/>
      <use xlink:href="#DejaVuSans-31" x="2693.205078"/>
      <use xlink:href="#DejaVuSans-5f" x="2756.828125"/>
      <use xlink:href="#DejaVuSans-31" x="2806.828125"/>
     </g>
    </g>
    <g id="line2d_29">
     <path d="M 561.18 303.490394 
L 569.18 303.490394 
L 577.18 303.490394 
" style="fill: none; stroke: #5cb85c; stroke-linecap: square"/>
    </g>
    <g id="text_27">
     <!-- TK9_3_22FFLLLT3_CGTACAGGAA-TAGGTTCTCT_L005_T1_2 -->
     <g transform="translate(583.58 306.290394) scale(0.08 -0.08)">
      <use xlink:href="#DejaVuSans-54"/>
      <use xlink:href="#DejaVuSans-4b" x="61.083984"/>
      <use xlink:href="#DejaVuSans-39" x="126.660156"/>
      <use xlink:href="#DejaVuSans-5f" x="190.283203"/>
      <use xlink:href="#DejaVuSans-33" x="240.283203"/>
      <use xlink:href="#DejaVuSans-5f" x="303.90625"/>
      <use xlink:href="#DejaVuSans-32" x="353.90625"/>
      <use xlink:href="#DejaVuSans-32" x="417.529297"/>
      <use xlink:href="#DejaVuSans-46" x="481.152344"/>
      <use xlink:href="#DejaVuSans-46" x="538.671875"/>
      <use xlink:href="#DejaVuSans-4c" x="596.191406"/>
      <use xlink:href="#DejaVuSans-4c" x="651.904297"/>
      <use xlink:href="#DejaVuSans-4c" x="707.617188"/>
      <use xlink:href="#DejaVuSans-54" x="749.580078"/>
      <use xlink:href="#DejaVuSans-33" x="810.664062"/>
      <use xlink:href="#DejaVuSans-5f" x="874.287109"/>
      <use xlink:href="#DejaVuSans-43" x="924.287109"/>
      <use xlink:href="#DejaVuSans-47" x="994.111328"/>
      <use xlink:href="#DejaVuSans-54" x="1067.976562"/>
      <use xlink:href="#DejaVuSans-41" x="1121.310547"/>
      <use xlink:href="#DejaVuSans-43" x="1187.96875"/>
      <use xlink:href="#DejaVuSans-41" x="1257.792969"/>
      <use xlink:href="#DejaVuSans-47" x="1324.451172"/>
      <use xlink:href="#DejaVuSans-47" x="1401.941406"/>
      <use xlink:href="#DejaVuSans-41" x="1479.431641"/>
      <use xlink:href="#DejaVuSans-41" x="1550.589844"/>
      <use xlink:href="#DejaVuSans-2d" x="1616.748047"/>
      <use xlink:href="#DejaVuSans-54" x="1643.707031"/>
      <use xlink:href="#DejaVuSans-41" x="1697.041016"/>
      <use xlink:href="#DejaVuSans-47" x="1763.699219"/>
      <use xlink:href="#DejaVuSans-47" x="1841.189453"/>
      <use xlink:href="#DejaVuSans-54" x="1915.054688"/>
      <use xlink:href="#DejaVuSans-54" x="1974.388672"/>
      <use xlink:href="#DejaVuSans-43" x="2029.597656"/>
      <use xlink:href="#DejaVuSans-54" x="2099.421875"/>
      <use xlink:href="#DejaVuSans-43" x="2154.630859"/>
      <use xlink:href="#DejaVuSans-54" x="2224.455078"/>
      <use xlink:href="#DejaVuSans-5f" x="2285.539062"/>
      <use xlink:href="#DejaVuSans-4c" x="2335.539062"/>
      <use xlink:href="#DejaVuSans-30" x="2391.251953"/>
      <use xlink:href="#DejaVuSans-30" x="2454.875"/>
      <use xlink:href="#DejaVuSans-35" x="2518.498047"/>
      <use xlink:href="#DejaVuSans-5f" x="2582.121094"/>
      <use xlink:href="#DejaVuSans-54" x="2632.121094"/>
      <use xlink:href="#DejaVuSans-31" x="2693.205078"/>
      <use xlink:href="#DejaVuSans-5f" x="2756.828125"/>
      <use xlink:href="#DejaVuSans-32" x="2806.828125"/>
     </g>
    </g>
    <g id="line2d_30">
     <path d="M 733.925625 291.525394 
L 741.925625 291.525394 
L 749.925625 291.525394 
" style="fill: none; stroke: #5cb85c; stroke-linecap: square"/>
    </g>
    <g id="text_28">
     <!-- TK9_3_22FFLLLT3_CGTACAGGAA-TAGGTTCTCT_L006_T1_1 -->
     <g transform="translate(756.325625 294.325394) scale(0.08 -0.08)">
      <use xlink:href="#DejaVuSans-54"/>
      <use xlink:href="#DejaVuSans-4b" x="61.083984"/>
      <use xlink:href="#DejaVuSans-39" x="126.660156"/>
      <use xlink:href="#DejaVuSans-5f" x="190.283203"/>
      <use xlink:href="#DejaVuSans-33" x="240.283203"/>
      <use xlink:href="#DejaVuSans-5f" x="303.90625"/>
      <use xlink:href="#DejaVuSans-32" x="353.90625"/>
      <use xlink:href="#DejaVuSans-32" x="417.529297"/>
      <use xlink:href="#DejaVuSans-46" x="481.152344"/>
      <use xlink:href="#DejaVuSans-46" x="538.671875"/>
      <use xlink:href="#DejaVuSans-4c" x="596.191406"/>
      <use xlink:href="#DejaVuSans-4c" x="651.904297"/>
      <use xlink:href="#DejaVuSans-4c" x="707.617188"/>
      <use xlink:href="#DejaVuSans-54" x="749.580078"/>
      <use xlink:href="#DejaVuSans-33" x="810.664062"/>
      <use xlink:href="#DejaVuSans-5f" x="874.287109"/>
      <use xlink:href="#DejaVuSans-43" x="924.287109"/>
      <use xlink:href="#DejaVuSans-47" x="994.111328"/>
      <use xlink:href="#DejaVuSans-54" x="1067.976562"/>
      <use xlink:href="#DejaVuSans-41" x="1121.310547"/>
      <use xlink:href="#DejaVuSans-43" x="1187.96875"/>
      <use xlink:href="#DejaVuSans-41" x="1257.792969"/>
      <use xlink:href="#DejaVuSans-47" x="1324.451172"/>
      <use xlink:href="#DejaVuSans-47" x="1401.941406"/>
      <use xlink:href="#DejaVuSans-41" x="1479.431641"/>
      <use xlink:href="#DejaVuSans-41" x="1550.589844"/>
      <use xlink:href="#DejaVuSans-2d" x="1616.748047"/>
      <use xlink:href="#DejaVuSans-54" x="1643.707031"/>
      <use xlink:href="#DejaVuSans-41" x="1697.041016"/>
      <use xlink:href="#DejaVuSans-47" x="1763.699219"/>
      <use xlink:href="#DejaVuSans-47" x="1841.189453"/>
      <use xlink:href="#DejaVuSans-54" x="1915.054688"/>
      <use xlink:href="#DejaVuSans-54" x="1974.388672"/>
      <use xlink:href="#DejaVuSans-43" x="2029.597656"/>
      <use xlink:href="#DejaVuSans-54" x="2099.421875"/>
      <use xlink:href="#DejaVuSans-43" x="2154.630859"/>
      <use xlink:href="#DejaVuSans-54" x="2224.455078"/>
      <use xlink:href="#DejaVuSans-5f" x="2285.539062"/>
      <use xlink:href="#DejaVuSans-4c" x="2335.539062"/>
      <use xlink:href="#DejaVuSans-30" x="2391.251953"/>
      <use xlink:href="#DejaVuSans-30" x="2454.875"/>
      <use xlink:href="#DejaVuSans-36" x="2518.498047"/>
      <use xlink:href="#DejaVuSans-5f" x="2582.121094"/>
      <use xlink:href="#DejaVuSans-54" x="2632.121094"/>
      <use xlink:href="#DejaVuSans-31" x="2693.205078"/>
      <use xlink:href="#DejaVuSans-5f" x="2756.828125"/>
      <use xlink:href="#DejaVuSans-31" x="2806.828125"/>
     </g>
    </g>
    <g id="line2d_31">
     <path d="M 733.925625 303.490394 
L 741.925625 303.490394 
L 749.925625 303.490394 
" style="fill: none; stroke: #5cb85c; stroke-linecap: square"/>
    </g>
    <g id="text_29">
     <!-- TK9_3_22FFLLLT3_CGTACAGGAA-TAGGTTCTCT_L006_T1_2 -->
     <g transform="translate(756.325625 306.290394) scale(0.08 -0.08)">
      <use xlink:href="#DejaVuSans-54"/>
      <use xlink:href="#DejaVuSans-4b" x="61.083984"/>
      <use xlink:href="#DejaVuSans-39" x="126.660156"/>
      <use xlink:href="#DejaVuSans-5f" x="190.283203"/>
      <use xlink:href="#DejaVuSans-33" x="240.283203"/>
      <use xlink:href="#DejaVuSans-5f" x="303.90625"/>
      <use xlink:href="#DejaVuSans-32" x="353.90625"/>
      <use xlink:href="#DejaVuSans-32" x="417.529297"/>
      <use xlink:href="#DejaVuSans-46" x="481.152344"/>
      <use xlink:href="#DejaVuSans-46" x="538.671875"/>
      <use xlink:href="#DejaVuSans-4c" x="596.191406"/>
      <use xlink:href="#DejaVuSans-4c" x="651.904297"/>
      <use xlink:href="#DejaVuSans-4c" x="707.617188"/>
      <use xlink:href="#DejaVuSans-54" x="749.580078"/>
      <use xlink:href="#DejaVuSans-33" x="810.664062"/>
      <use xlink:href="#DejaVuSans-5f" x="874.287109"/>
      <use xlink:href="#DejaVuSans-43" x="924.287109"/>
      <use xlink:href="#DejaVuSans-47" x="994.111328"/>
      <use xlink:href="#DejaVuSans-54" x="1067.976562"/>
      <use xlink:href="#DejaVuSans-41" x="1121.310547"/>
      <use xlink:href="#DejaVuSans-43" x="1187.96875"/>
      <use xlink:href="#DejaVuSans-41" x="1257.792969"/>
      <use xlink:href="#DejaVuSans-47" x="1324.451172"/>
      <use xlink:href="#DejaVuSans-47" x="1401.941406"/>
      <use xlink:href="#DejaVuSans-41" x="1479.431641"/>
      <use xlink:href="#DejaVuSans-41" x="1550.589844"/>
      <use xlink:href="#DejaVuSans-2d" x="1616.748047"/>
      <use xlink:href="#DejaVuSans-54" x="1643.707031"/>
      <use xlink:href="#DejaVuSans-41" x="1697.041016"/>
      <use xlink:href="#DejaVuSans-47" x="1763.699219"/>
      <use xlink:href="#DejaVuSans-47" x="1841.189453"/>
      <use xlink:href="#DejaVuSans-54" x="1915.054688"/>
      <use xlink:href="#DejaVuSans-54" x="1974.388672"/>
      <use xlink:href="#DejaVuSans-43" x="2029.597656"/>
      <use xlink:href="#DejaVuSans-54" x="2099.421875"/>
      <use xlink:href="#DejaVuSans-43" x="2154.630859"/>
      <use xlink:href="#DejaVuSans-54" x="2224.455078"/>
      <use xlink:href="#DejaVuSans-5f" x="2285.539062"/>
      <use xlink:href="#DejaVuSans-4c" x="2335.539062"/>
      <use xlink:href="#DejaVuSans-30" x="2391.251953"/>
      <use xlink:href="#DejaVuSans-30" x="2454.875"/>
      <use xlink:href="#DejaVuSans-36" x="2518.498047"/>
      <use xlink:href="#DejaVuSans-5f" x="2582.121094"/>
      <use xlink:href="#DejaVuSans-54" x="2632.121094"/>
      <use xlink:href="#DejaVuSans-31" x="2693.205078"/>
      <use xlink:href="#DejaVuSans-5f" x="2756.828125"/>
      <use xlink:href="#DejaVuSans-32" x="2806.828125"/>
     </g>
    </g>
   </g>
  </g>
 </g>
 <defs>
  <clipPath id="p062f824ef3">
   <rect x="32.968125" y="31.48286" width="960.19" height="242.5072"/>
  </clipPath>
 </defs>
</svg>
