<?xml version="1.0" encoding="utf-8" standalone="no"?>
<!DOCTYPE svg PUBLIC "-//W3C//DTD SVG 1.1//EN"
  "http://www.w3.org/Graphics/SVG/1.1/DTD/svg11.dtd">
<svg xmlns:xlink="http://www.w3.org/1999/xlink" width="1000.318125pt" height="330.541644pt" viewBox="0 0 1000.318125 330.541644" xmlns="http://www.w3.org/2000/svg" version="1.1">
 <metadata>
  <rdf:RDF xmlns:dc="http://purl.org/dc/elements/1.1/" xmlns:cc="http://creativecommons.org/ns#" xmlns:rdf="http://www.w3.org/1999/02/22-rdf-syntax-ns#">
   <cc:Work>
    <dc:type rdf:resource="http://purl.org/dc/dcmitype/StillImage"/>
    <dc:date>2023-11-28T12:11:09.947743</dc:date>
    <dc:format>image/svg+xml</dc:format>
    <dc:creator>
     <cc:Agent>
      <dc:title>Matplotlib v3.6.2, https://matplotlib.org/</dc:title>
     </cc:Agent>
    </dc:creator>
   </cc:Work>
  </rdf:RDF>
 </metadata>
 <defs>
  <style type="text/css">*{stroke-linejoin: round; stroke-linecap: butt}</style>
 </defs>
 <g id="figure_1">
  <g id="axes_1">
   <g id="patch_1">
    <path d="M 38.058125 273.99006 
L 993.118125 273.99006 
L 993.118125 31.48286 
L 38.058125 31.48286 
z
" style="fill: #ffffff"/>
   </g>
   <g id="patch_2">
    <path d="M 38.058125 88.21939 
L 955.533397 88.21939 
L 955.533397 -389.476617 
L 38.058125 -389.476617 
z
" clip-path="url(#p9a17b69943)" style="fill: #c3e6c3"/>
   </g>
   <g id="patch_3">
    <path d="M 38.058125 141.296725 
L 955.533397 141.296725 
L 955.533397 88.21939 
L 38.058125 88.21939 
z
" clip-path="url(#p9a17b69943)" style="fill: #e6dcc3"/>
   </g>
   <g id="patch_4">
    <path d="M 38.058125 273.99006 
L 955.533397 273.99006 
L 955.533397 141.296725 
L 38.058125 141.296725 
z
" clip-path="url(#p9a17b69943)" style="fill: #e6c3c3"/>
   </g>
   <g id="matplotlib.axis_1">
    <g id="xtick_1">
     <g id="text_1">
      <!-- 0 -->
      <g transform="translate(73.097853 287.06881) scale(0.08 -0.08)">
       <defs>
        <path id="DejaVuSans-30" d="M 2034 4250 
Q 1547 4250 1301 3770 
Q 1056 3291 1056 2328 
Q 1056 1369 1301 889 
Q 1547 409 2034 409 
Q 2525 409 2770 889 
Q 3016 1369 3016 2328 
Q 3016 3291 2770 3770 
Q 2525 4250 2034 4250 
z
M 2034 4750 
Q 2819 4750 3233 4129 
Q 3647 3509 3647 2328 
Q 3647 1150 3233 529 
Q 2819 -91 2034 -91 
Q 1250 -91 836 529 
Q 422 1150 422 2328 
Q 422 3509 836 4129 
Q 1250 4750 2034 4750 
z
" transform="scale(0.015625)"/>
       </defs>
       <use xlink:href="#DejaVuSans-30"/>
      </g>
     </g>
    </g>
    <g id="xtick_2">
     <g id="text_2">
      <!-- 20 -->
      <g transform="translate(187.094647 287.06881) scale(0.08 -0.08)">
       <defs>
        <path id="DejaVuSans-32" d="M 1228 531 
L 3431 531 
L 3431 0 
L 469 0 
L 469 531 
Q 828 903 1448 1529 
Q 2069 2156 2228 2338 
Q 2531 2678 2651 2914 
Q 2772 3150 2772 3378 
Q 2772 3750 2511 3984 
Q 2250 4219 1831 4219 
Q 1534 4219 1204 4116 
Q 875 4013 500 3803 
L 500 4441 
Q 881 4594 1212 4672 
Q 1544 4750 1819 4750 
Q 2544 4750 2975 4387 
Q 3406 4025 3406 3419 
Q 3406 3131 3298 2873 
Q 3191 2616 2906 2266 
Q 2828 2175 2409 1742 
Q 1991 1309 1228 531 
z
" transform="scale(0.015625)"/>
       </defs>
       <use xlink:href="#DejaVuSans-32"/>
       <use xlink:href="#DejaVuSans-30" x="63.623047"/>
      </g>
     </g>
    </g>
    <g id="xtick_3">
     <g id="text_3">
      <!-- 40 -->
      <g transform="translate(303.636441 287.06881) scale(0.08 -0.08)">
       <defs>
        <path id="DejaVuSans-34" d="M 2419 4116 
L 825 1625 
L 2419 1625 
L 2419 4116 
z
M 2253 4666 
L 3047 4666 
L 3047 1625 
L 3713 1625 
L 3713 1100 
L 3047 1100 
L 3047 0 
L 2419 0 
L 2419 1100 
L 313 1100 
L 313 1709 
L 2253 4666 
z
" transform="scale(0.015625)"/>
       </defs>
       <use xlink:href="#DejaVuSans-34"/>
       <use xlink:href="#DejaVuSans-30" x="63.623047"/>
      </g>
     </g>
    </g>
    <g id="xtick_4">
     <g id="text_4">
      <!-- 60 -->
      <g transform="translate(420.178235 287.06881) scale(0.08 -0.08)">
       <defs>
        <path id="DejaVuSans-36" d="M 2113 2584 
Q 1688 2584 1439 2293 
Q 1191 2003 1191 1497 
Q 1191 994 1439 701 
Q 1688 409 2113 409 
Q 2538 409 2786 701 
Q 3034 994 3034 1497 
Q 3034 2003 2786 2293 
Q 2538 2584 2113 2584 
z
M 3366 4563 
L 3366 3988 
Q 3128 4100 2886 4159 
Q 2644 4219 2406 4219 
Q 1781 4219 1451 3797 
Q 1122 3375 1075 2522 
Q 1259 2794 1537 2939 
Q 1816 3084 2150 3084 
Q 2853 3084 3261 2657 
Q 3669 2231 3669 1497 
Q 3669 778 3244 343 
Q 2819 -91 2113 -91 
Q 1303 -91 875 529 
Q 447 1150 447 2328 
Q 447 3434 972 4092 
Q 1497 4750 2381 4750 
Q 2619 4750 2861 4703 
Q 3103 4656 3366 4563 
z
" transform="scale(0.015625)"/>
       </defs>
       <use xlink:href="#DejaVuSans-36"/>
       <use xlink:href="#DejaVuSans-30" x="63.623047"/>
      </g>
     </g>
    </g>
    <g id="xtick_5">
     <g id="text_5">
      <!-- 80 -->
      <g transform="translate(536.720029 287.06881) scale(0.08 -0.08)">
       <defs>
        <path id="DejaVuSans-38" d="M 2034 2216 
Q 1584 2216 1326 1975 
Q 1069 1734 1069 1313 
Q 1069 891 1326 650 
Q 1584 409 2034 409 
Q 2484 409 2743 651 
Q 3003 894 3003 1313 
Q 3003 1734 2745 1975 
Q 2488 2216 2034 2216 
z
M 1403 2484 
Q 997 2584 770 2862 
Q 544 3141 544 3541 
Q 544 4100 942 4425 
Q 1341 4750 2034 4750 
Q 2731 4750 3128 4425 
Q 3525 4100 3525 3541 
Q 3525 3141 3298 2862 
Q 3072 2584 2669 2484 
Q 3125 2378 3379 2068 
Q 3634 1759 3634 1313 
Q 3634 634 3220 271 
Q 2806 -91 2034 -91 
Q 1263 -91 848 271 
Q 434 634 434 1313 
Q 434 1759 690 2068 
Q 947 2378 1403 2484 
z
M 1172 3481 
Q 1172 3119 1398 2916 
Q 1625 2713 2034 2713 
Q 2441 2713 2670 2916 
Q 2900 3119 2900 3481 
Q 2900 3844 2670 4047 
Q 2441 4250 2034 4250 
Q 1625 4250 1398 4047 
Q 1172 3844 1172 3481 
z
" transform="scale(0.015625)"/>
       </defs>
       <use xlink:href="#DejaVuSans-38"/>
       <use xlink:href="#DejaVuSans-30" x="63.623047"/>
      </g>
     </g>
    </g>
    <g id="xtick_6">
     <g id="text_6">
      <!-- 100 -->
      <g transform="translate(650.716822 287.06881) scale(0.08 -0.08)">
       <defs>
        <path id="DejaVuSans-31" d="M 794 531 
L 1825 531 
L 1825 4091 
L 703 3866 
L 703 4441 
L 1819 4666 
L 2450 4666 
L 2450 531 
L 3481 531 
L 3481 0 
L 794 0 
L 794 531 
z
" transform="scale(0.015625)"/>
       </defs>
       <use xlink:href="#DejaVuSans-31"/>
       <use xlink:href="#DejaVuSans-30" x="63.623047"/>
       <use xlink:href="#DejaVuSans-30" x="127.246094"/>
      </g>
     </g>
    </g>
    <g id="xtick_7">
     <g id="text_7">
      <!-- 120 -->
      <g transform="translate(767.258616 287.06881) scale(0.08 -0.08)">
       <use xlink:href="#DejaVuSans-31"/>
       <use xlink:href="#DejaVuSans-32" x="63.623047"/>
       <use xlink:href="#DejaVuSans-30" x="127.246094"/>
      </g>
     </g>
    </g>
    <g id="xtick_8">
     <g id="text_8">
      <!-- 140 -->
      <g transform="translate(883.80041 287.06881) scale(0.08 -0.08)">
       <use xlink:href="#DejaVuSans-31"/>
       <use xlink:href="#DejaVuSans-34" x="63.623047"/>
       <use xlink:href="#DejaVuSans-30" x="127.246094"/>
      </g>
     </g>
    </g>
    <g id="text_9">
     <!-- Position (bp) -->
     <g transform="translate(484.285 300.330997) scale(0.1 -0.1)">
      <defs>
       <path id="DejaVuSans-50" d="M 1259 4147 
L 1259 2394 
L 2053 2394 
Q 2494 2394 2734 2622 
Q 2975 2850 2975 3272 
Q 2975 3691 2734 3919 
Q 2494 4147 2053 4147 
L 1259 4147 
z
M 628 4666 
L 2053 4666 
Q 2838 4666 3239 4311 
Q 3641 3956 3641 3272 
Q 3641 2581 3239 2228 
Q 2838 1875 2053 1875 
L 1259 1875 
L 1259 0 
L 628 0 
L 628 4666 
z
" transform="scale(0.015625)"/>
       <path id="DejaVuSans-6f" d="M 1959 3097 
Q 1497 3097 1228 2736 
Q 959 2375 959 1747 
Q 959 1119 1226 758 
Q 1494 397 1959 397 
Q 2419 397 2687 759 
Q 2956 1122 2956 1747 
Q 2956 2369 2687 2733 
Q 2419 3097 1959 3097 
z
M 1959 3584 
Q 2709 3584 3137 3096 
Q 3566 2609 3566 1747 
Q 3566 888 3137 398 
Q 2709 -91 1959 -91 
Q 1206 -91 779 398 
Q 353 888 353 1747 
Q 353 2609 779 3096 
Q 1206 3584 1959 3584 
z
" transform="scale(0.015625)"/>
       <path id="DejaVuSans-73" d="M 2834 3397 
L 2834 2853 
Q 2591 2978 2328 3040 
Q 2066 3103 1784 3103 
Q 1356 3103 1142 2972 
Q 928 2841 928 2578 
Q 928 2378 1081 2264 
Q 1234 2150 1697 2047 
L 1894 2003 
Q 2506 1872 2764 1633 
Q 3022 1394 3022 966 
Q 3022 478 2636 193 
Q 2250 -91 1575 -91 
Q 1294 -91 989 -36 
Q 684 19 347 128 
L 347 722 
Q 666 556 975 473 
Q 1284 391 1588 391 
Q 1994 391 2212 530 
Q 2431 669 2431 922 
Q 2431 1156 2273 1281 
Q 2116 1406 1581 1522 
L 1381 1569 
Q 847 1681 609 1914 
Q 372 2147 372 2553 
Q 372 3047 722 3315 
Q 1072 3584 1716 3584 
Q 2034 3584 2315 3537 
Q 2597 3491 2834 3397 
z
" transform="scale(0.015625)"/>
       <path id="DejaVuSans-69" d="M 603 3500 
L 1178 3500 
L 1178 0 
L 603 0 
L 603 3500 
z
M 603 4863 
L 1178 4863 
L 1178 4134 
L 603 4134 
L 603 4863 
z
" transform="scale(0.015625)"/>
       <path id="DejaVuSans-74" d="M 1172 4494 
L 1172 3500 
L 2356 3500 
L 2356 3053 
L 1172 3053 
L 1172 1153 
Q 1172 725 1289 603 
Q 1406 481 1766 481 
L 2356 481 
L 2356 0 
L 1766 0 
Q 1100 0 847 248 
Q 594 497 594 1153 
L 594 3053 
L 172 3053 
L 172 3500 
L 594 3500 
L 594 4494 
L 1172 4494 
z
" transform="scale(0.015625)"/>
       <path id="DejaVuSans-6e" d="M 3513 2113 
L 3513 0 
L 2938 0 
L 2938 2094 
Q 2938 2591 2744 2837 
Q 2550 3084 2163 3084 
Q 1697 3084 1428 2787 
Q 1159 2491 1159 1978 
L 1159 0 
L 581 0 
L 581 3500 
L 1159 3500 
L 1159 2956 
Q 1366 3272 1645 3428 
Q 1925 3584 2291 3584 
Q 2894 3584 3203 3211 
Q 3513 2838 3513 2113 
z
" transform="scale(0.015625)"/>
       <path id="DejaVuSans-20" transform="scale(0.015625)"/>
       <path id="DejaVuSans-28" d="M 1984 4856 
Q 1566 4138 1362 3434 
Q 1159 2731 1159 2009 
Q 1159 1288 1364 580 
Q 1569 -128 1984 -844 
L 1484 -844 
Q 1016 -109 783 600 
Q 550 1309 550 2009 
Q 550 2706 781 3412 
Q 1013 4119 1484 4856 
L 1984 4856 
z
" transform="scale(0.015625)"/>
       <path id="DejaVuSans-62" d="M 3116 1747 
Q 3116 2381 2855 2742 
Q 2594 3103 2138 3103 
Q 1681 3103 1420 2742 
Q 1159 2381 1159 1747 
Q 1159 1113 1420 752 
Q 1681 391 2138 391 
Q 2594 391 2855 752 
Q 3116 1113 3116 1747 
z
M 1159 2969 
Q 1341 3281 1617 3432 
Q 1894 3584 2278 3584 
Q 2916 3584 3314 3078 
Q 3713 2572 3713 1747 
Q 3713 922 3314 415 
Q 2916 -91 2278 -91 
Q 1894 -91 1617 61 
Q 1341 213 1159 525 
L 1159 0 
L 581 0 
L 581 4863 
L 1159 4863 
L 1159 2969 
z
" transform="scale(0.015625)"/>
       <path id="DejaVuSans-70" d="M 1159 525 
L 1159 -1331 
L 581 -1331 
L 581 3500 
L 1159 3500 
L 1159 2969 
Q 1341 3281 1617 3432 
Q 1894 3584 2278 3584 
Q 2916 3584 3314 3078 
Q 3713 2572 3713 1747 
Q 3713 922 3314 415 
Q 2916 -91 2278 -91 
Q 1894 -91 1617 61 
Q 1341 213 1159 525 
z
M 3116 1747 
Q 3116 2381 2855 2742 
Q 2594 3103 2138 3103 
Q 1681 3103 1420 2742 
Q 1159 2381 1159 1747 
Q 1159 1113 1420 752 
Q 1681 391 2138 391 
Q 2594 391 2855 752 
Q 3116 1113 3116 1747 
z
" transform="scale(0.015625)"/>
       <path id="DejaVuSans-29" d="M 513 4856 
L 1013 4856 
Q 1481 4119 1714 3412 
Q 1947 2706 1947 2009 
Q 1947 1309 1714 600 
Q 1481 -109 1013 -844 
L 513 -844 
Q 928 -128 1133 580 
Q 1338 1288 1338 2009 
Q 1338 2731 1133 3434 
Q 928 4138 513 4856 
z
" transform="scale(0.015625)"/>
      </defs>
      <use xlink:href="#DejaVuSans-50"/>
      <use xlink:href="#DejaVuSans-6f" x="56.677734"/>
      <use xlink:href="#DejaVuSans-73" x="117.859375"/>
      <use xlink:href="#DejaVuSans-69" x="169.958984"/>
      <use xlink:href="#DejaVuSans-74" x="197.742188"/>
      <use xlink:href="#DejaVuSans-69" x="236.951172"/>
      <use xlink:href="#DejaVuSans-6f" x="264.734375"/>
      <use xlink:href="#DejaVuSans-6e" x="325.916016"/>
      <use xlink:href="#DejaVuSans-20" x="389.294922"/>
      <use xlink:href="#DejaVuSans-28" x="421.082031"/>
      <use xlink:href="#DejaVuSans-62" x="460.095703"/>
      <use xlink:href="#DejaVuSans-70" x="523.572266"/>
      <use xlink:href="#DejaVuSans-29" x="587.048828"/>
     </g>
    </g>
   </g>
   <g id="matplotlib.axis_2">
    <g id="ytick_1">
     <g id="line2d_1">
      <path d="M 38.058125 273.99006 
L 993.118125 273.99006 
" clip-path="url(#p9a17b69943)" style="fill: none; stroke: #dedede; stroke-linecap: square"/>
     </g>
     <g id="text_10">
      <!-- 0 -->
      <g transform="translate(25.968125 277.029435) scale(0.08 -0.08)">
       <use xlink:href="#DejaVuSans-30"/>
      </g>
     </g>
    </g>
    <g id="ytick_2">
     <g id="line2d_2">
      <path d="M 38.058125 240.816726 
L 993.118125 240.816726 
" clip-path="url(#p9a17b69943)" style="fill: none; stroke: #dedede; stroke-linecap: square"/>
     </g>
     <g id="text_11">
      <!-- 5 -->
      <g transform="translate(25.968125 243.856101) scale(0.08 -0.08)">
       <defs>
        <path id="DejaVuSans-35" d="M 691 4666 
L 3169 4666 
L 3169 4134 
L 1269 4134 
L 1269 2991 
Q 1406 3038 1543 3061 
Q 1681 3084 1819 3084 
Q 2600 3084 3056 2656 
Q 3513 2228 3513 1497 
Q 3513 744 3044 326 
Q 2575 -91 1722 -91 
Q 1428 -91 1123 -41 
Q 819 9 494 109 
L 494 744 
Q 775 591 1075 516 
Q 1375 441 1709 441 
Q 2250 441 2565 725 
Q 2881 1009 2881 1497 
Q 2881 1984 2565 2268 
Q 2250 2553 1709 2553 
Q 1456 2553 1204 2497 
Q 953 2441 691 2322 
L 691 4666 
z
" transform="scale(0.015625)"/>
       </defs>
       <use xlink:href="#DejaVuSans-35"/>
      </g>
     </g>
    </g>
    <g id="ytick_3">
     <g id="line2d_3">
      <path d="M 38.058125 207.643392 
L 993.118125 207.643392 
" clip-path="url(#p9a17b69943)" style="fill: none; stroke: #dedede; stroke-linecap: square"/>
     </g>
     <g id="text_12">
      <!-- 10 -->
      <g transform="translate(20.878125 210.682767) scale(0.08 -0.08)">
       <use xlink:href="#DejaVuSans-31"/>
       <use xlink:href="#DejaVuSans-30" x="63.623047"/>
      </g>
     </g>
    </g>
    <g id="ytick_4">
     <g id="line2d_4">
      <path d="M 38.058125 174.470058 
L 993.118125 174.470058 
" clip-path="url(#p9a17b69943)" style="fill: none; stroke: #dedede; stroke-linecap: square"/>
     </g>
     <g id="text_13">
      <!-- 15 -->
      <g transform="translate(20.878125 177.509433) scale(0.08 -0.08)">
       <use xlink:href="#DejaVuSans-31"/>
       <use xlink:href="#DejaVuSans-35" x="63.623047"/>
      </g>
     </g>
    </g>
    <g id="ytick_5">
     <g id="line2d_5">
      <path d="M 38.058125 141.296725 
L 993.118125 141.296725 
" clip-path="url(#p9a17b69943)" style="fill: none; stroke: #dedede; stroke-linecap: square"/>
     </g>
     <g id="text_14">
      <!-- 20 -->
      <g transform="translate(20.878125 144.3361) scale(0.08 -0.08)">
       <use xlink:href="#DejaVuSans-32"/>
       <use xlink:href="#DejaVuSans-30" x="63.623047"/>
      </g>
     </g>
    </g>
    <g id="ytick_6">
     <g id="line2d_6">
      <path d="M 38.058125 108.123391 
L 993.118125 108.123391 
" clip-path="url(#p9a17b69943)" style="fill: none; stroke: #dedede; stroke-linecap: square"/>
     </g>
     <g id="text_15">
      <!-- 25 -->
      <g transform="translate(20.878125 111.162766) scale(0.08 -0.08)">
       <use xlink:href="#DejaVuSans-32"/>
       <use xlink:href="#DejaVuSans-35" x="63.623047"/>
      </g>
     </g>
    </g>
    <g id="ytick_7">
     <g id="line2d_7">
      <path d="M 38.058125 74.950057 
L 993.118125 74.950057 
" clip-path="url(#p9a17b69943)" style="fill: none; stroke: #dedede; stroke-linecap: square"/>
     </g>
     <g id="text_16">
      <!-- 30 -->
      <g transform="translate(20.878125 77.989432) scale(0.08 -0.08)">
       <defs>
        <path id="DejaVuSans-33" d="M 2597 2516 
Q 3050 2419 3304 2112 
Q 3559 1806 3559 1356 
Q 3559 666 3084 287 
Q 2609 -91 1734 -91 
Q 1441 -91 1130 -33 
Q 819 25 488 141 
L 488 750 
Q 750 597 1062 519 
Q 1375 441 1716 441 
Q 2309 441 2620 675 
Q 2931 909 2931 1356 
Q 2931 1769 2642 2001 
Q 2353 2234 1838 2234 
L 1294 2234 
L 1294 2753 
L 1863 2753 
Q 2328 2753 2575 2939 
Q 2822 3125 2822 3475 
Q 2822 3834 2567 4026 
Q 2313 4219 1838 4219 
Q 1578 4219 1281 4162 
Q 984 4106 628 3988 
L 628 4550 
Q 988 4650 1302 4700 
Q 1616 4750 1894 4750 
Q 2613 4750 3031 4423 
Q 3450 4097 3450 3541 
Q 3450 3153 3228 2886 
Q 3006 2619 2597 2516 
z
" transform="scale(0.015625)"/>
       </defs>
       <use xlink:href="#DejaVuSans-33"/>
       <use xlink:href="#DejaVuSans-30" x="63.623047"/>
      </g>
     </g>
    </g>
    <g id="ytick_8">
     <g id="line2d_8">
      <path d="M 38.058125 41.776723 
L 993.118125 41.776723 
" clip-path="url(#p9a17b69943)" style="fill: none; stroke: #dedede; stroke-linecap: square"/>
     </g>
     <g id="text_17">
      <!-- 35 -->
      <g transform="translate(20.878125 44.816098) scale(0.08 -0.08)">
       <use xlink:href="#DejaVuSans-33"/>
       <use xlink:href="#DejaVuSans-35" x="63.623047"/>
      </g>
     </g>
    </g>
    <g id="text_18">
     <!-- Phred Score -->
     <g transform="translate(14.798438 182.70521) rotate(-90) scale(0.1 -0.1)">
      <defs>
       <path id="DejaVuSans-68" d="M 3513 2113 
L 3513 0 
L 2938 0 
L 2938 2094 
Q 2938 2591 2744 2837 
Q 2550 3084 2163 3084 
Q 1697 3084 1428 2787 
Q 1159 2491 1159 1978 
L 1159 0 
L 581 0 
L 581 4863 
L 1159 4863 
L 1159 2956 
Q 1366 3272 1645 3428 
Q 1925 3584 2291 3584 
Q 2894 3584 3203 3211 
Q 3513 2838 3513 2113 
z
" transform="scale(0.015625)"/>
       <path id="DejaVuSans-72" d="M 2631 2963 
Q 2534 3019 2420 3045 
Q 2306 3072 2169 3072 
Q 1681 3072 1420 2755 
Q 1159 2438 1159 1844 
L 1159 0 
L 581 0 
L 581 3500 
L 1159 3500 
L 1159 2956 
Q 1341 3275 1631 3429 
Q 1922 3584 2338 3584 
Q 2397 3584 2469 3576 
Q 2541 3569 2628 3553 
L 2631 2963 
z
" transform="scale(0.015625)"/>
       <path id="DejaVuSans-65" d="M 3597 1894 
L 3597 1613 
L 953 1613 
Q 991 1019 1311 708 
Q 1631 397 2203 397 
Q 2534 397 2845 478 
Q 3156 559 3463 722 
L 3463 178 
Q 3153 47 2828 -22 
Q 2503 -91 2169 -91 
Q 1331 -91 842 396 
Q 353 884 353 1716 
Q 353 2575 817 3079 
Q 1281 3584 2069 3584 
Q 2775 3584 3186 3129 
Q 3597 2675 3597 1894 
z
M 3022 2063 
Q 3016 2534 2758 2815 
Q 2500 3097 2075 3097 
Q 1594 3097 1305 2825 
Q 1016 2553 972 2059 
L 3022 2063 
z
" transform="scale(0.015625)"/>
       <path id="DejaVuSans-64" d="M 2906 2969 
L 2906 4863 
L 3481 4863 
L 3481 0 
L 2906 0 
L 2906 525 
Q 2725 213 2448 61 
Q 2172 -91 1784 -91 
Q 1150 -91 751 415 
Q 353 922 353 1747 
Q 353 2572 751 3078 
Q 1150 3584 1784 3584 
Q 2172 3584 2448 3432 
Q 2725 3281 2906 2969 
z
M 947 1747 
Q 947 1113 1208 752 
Q 1469 391 1925 391 
Q 2381 391 2643 752 
Q 2906 1113 2906 1747 
Q 2906 2381 2643 2742 
Q 2381 3103 1925 3103 
Q 1469 3103 1208 2742 
Q 947 2381 947 1747 
z
" transform="scale(0.015625)"/>
       <path id="DejaVuSans-53" d="M 3425 4513 
L 3425 3897 
Q 3066 4069 2747 4153 
Q 2428 4238 2131 4238 
Q 1616 4238 1336 4038 
Q 1056 3838 1056 3469 
Q 1056 3159 1242 3001 
Q 1428 2844 1947 2747 
L 2328 2669 
Q 3034 2534 3370 2195 
Q 3706 1856 3706 1288 
Q 3706 609 3251 259 
Q 2797 -91 1919 -91 
Q 1588 -91 1214 -16 
Q 841 59 441 206 
L 441 856 
Q 825 641 1194 531 
Q 1563 422 1919 422 
Q 2459 422 2753 634 
Q 3047 847 3047 1241 
Q 3047 1584 2836 1778 
Q 2625 1972 2144 2069 
L 1759 2144 
Q 1053 2284 737 2584 
Q 422 2884 422 3419 
Q 422 4038 858 4394 
Q 1294 4750 2059 4750 
Q 2388 4750 2728 4690 
Q 3069 4631 3425 4513 
z
" transform="scale(0.015625)"/>
       <path id="DejaVuSans-63" d="M 3122 3366 
L 3122 2828 
Q 2878 2963 2633 3030 
Q 2388 3097 2138 3097 
Q 1578 3097 1268 2742 
Q 959 2388 959 1747 
Q 959 1106 1268 751 
Q 1578 397 2138 397 
Q 2388 397 2633 464 
Q 2878 531 3122 666 
L 3122 134 
Q 2881 22 2623 -34 
Q 2366 -91 2075 -91 
Q 1284 -91 818 406 
Q 353 903 353 1747 
Q 353 2603 823 3093 
Q 1294 3584 2113 3584 
Q 2378 3584 2631 3529 
Q 2884 3475 3122 3366 
z
" transform="scale(0.015625)"/>
      </defs>
      <use xlink:href="#DejaVuSans-50"/>
      <use xlink:href="#DejaVuSans-68" x="60.302734"/>
      <use xlink:href="#DejaVuSans-72" x="123.681641"/>
      <use xlink:href="#DejaVuSans-65" x="162.544922"/>
      <use xlink:href="#DejaVuSans-64" x="224.068359"/>
      <use xlink:href="#DejaVuSans-20" x="287.544922"/>
      <use xlink:href="#DejaVuSans-53" x="319.332031"/>
      <use xlink:href="#DejaVuSans-63" x="382.808594"/>
      <use xlink:href="#DejaVuSans-6f" x="437.789062"/>
      <use xlink:href="#DejaVuSans-72" x="498.970703"/>
      <use xlink:href="#DejaVuSans-65" x="537.833984"/>
     </g>
    </g>
   </g>
   <g id="line2d_9">
    <path d="M 81.469943 42.549263 
L 87.297033 35.480055 
L 93.124123 34.615304 
L 98.951212 34.964331 
L 104.778302 34.703225 
L 110.605392 34.44847 
L 116.432481 34.736122 
L 122.259571 34.185246 
L 128.086661 34.000395 
L 145.56793 33.753938 
L 174.703378 32.510718 
L 203.838827 32.238707 
L 232.974275 33.25628 
L 262.109724 33.380629 
L 291.245172 33.387457 
L 320.38062 33.513711 
L 349.516069 33.66815 
L 378.651517 33.742956 
L 407.786966 34.056334 
L 436.922414 34.234482 
L 466.057863 34.402653 
L 495.193311 34.596838 
L 524.32876 34.733898 
L 553.464208 34.900348 
L 582.599656 35.083732 
L 611.735105 35.326349 
L 640.870553 35.633166 
L 670.006002 35.897165 
L 699.14145 36.300828 
L 728.276899 36.738221 
L 757.412347 37.372049 
L 786.547796 38.179644 
L 815.683244 39.01824 
L 844.818692 40.157391 
L 873.954141 41.595836 
L 903.089589 43.526648 
L 932.225038 45.747962 
L 949.706307 47.054887 
" clip-path="url(#p9a17b69943)" style="fill: none; stroke: #5cb85c; stroke-linecap: square"/>
   </g>
   <g id="line2d_10">
    <path d="M 81.469943 44.793999 
L 87.297033 36.942447 
L 93.124123 36.321727 
L 98.951212 35.824648 
L 104.778302 35.310778 
L 110.605392 35.337272 
L 116.432481 34.644333 
L 122.259571 34.474908 
L 128.086661 34.212085 
L 145.56793 33.863291 
L 174.703378 33.673032 
L 203.838827 33.744635 
L 232.974275 35.379532 
L 262.109724 35.819258 
L 291.245172 35.937796 
L 320.38062 36.140068 
L 349.516069 36.294453 
L 378.651517 36.472182 
L 407.786966 36.686585 
L 436.922414 37.03432 
L 466.057863 37.186592 
L 495.193311 37.339909 
L 524.32876 37.897605 
L 553.464208 37.933161 
L 582.599656 38.190549 
L 611.735105 38.560521 
L 640.870553 38.85235 
L 670.006002 39.1345 
L 699.14145 39.484459 
L 728.276899 39.866772 
L 757.412347 40.294467 
L 786.547796 40.77678 
L 815.683244 41.125464 
L 844.818692 41.663702 
L 873.954141 42.24868 
L 903.089589 42.935607 
L 932.225038 43.560471 
L 949.706307 43.677112 
" clip-path="url(#p9a17b69943)" style="fill: none; stroke: #5cb85c; stroke-linecap: square"/>
   </g>
   <g id="line2d_11">
    <path d="M 81.469943 43.149276 
L 87.297033 35.910055 
L 93.124123 34.956606 
L 98.951212 35.21035 
L 104.778302 34.988049 
L 110.605392 34.856492 
L 116.432481 35.012918 
L 122.259571 34.326916 
L 128.086661 34.12337 
L 145.56793 34.018025 
L 174.703378 32.656176 
L 203.838827 32.315503 
L 232.974275 33.338778 
L 262.109724 33.56354 
L 291.245172 33.559077 
L 320.38062 33.747823 
L 349.516069 33.757417 
L 378.651517 33.861986 
L 407.786966 34.145186 
L 436.922414 34.339473 
L 466.057863 34.489063 
L 495.193311 34.731023 
L 524.32876 34.830318 
L 553.464208 34.979971 
L 582.599656 35.161992 
L 611.735105 35.380888 
L 640.870553 35.737765 
L 670.006002 35.95093 
L 699.14145 36.382645 
L 728.276899 36.880439 
L 757.412347 37.449905 
L 786.547796 38.256699 
L 815.683244 39.09955 
L 844.818692 40.245411 
L 873.954141 41.957011 
L 903.089589 43.564712 
L 932.225038 45.715536 
L 949.706307 47.355657 
" clip-path="url(#p9a17b69943)" style="fill: none; stroke: #5cb85c; stroke-linecap: square"/>
   </g>
   <g id="line2d_12">
    <path d="M 81.469943 44.776579 
L 87.297033 36.963566 
L 93.124123 36.390623 
L 98.951212 35.891195 
L 104.778302 35.346071 
L 110.605392 35.314214 
L 116.432481 34.691226 
L 122.259571 34.478981 
L 128.086661 34.451213 
L 145.56793 33.940491 
L 174.703378 33.736021 
L 203.838827 33.708848 
L 232.974275 35.376019 
L 262.109724 35.802314 
L 291.245172 35.915929 
L 320.38062 36.066548 
L 349.516069 36.230557 
L 378.651517 36.418978 
L 407.786966 36.582387 
L 436.922414 36.958077 
L 466.057863 37.021955 
L 495.193311 37.238807 
L 524.32876 37.647685 
L 553.464208 37.811095 
L 582.599656 38.011149 
L 611.735105 38.338566 
L 640.870553 38.598761 
L 670.006002 38.892985 
L 699.14145 39.232624 
L 728.276899 39.608282 
L 757.412347 40.053378 
L 786.547796 40.499717 
L 815.683244 40.862966 
L 844.818692 41.248625 
L 873.954141 41.816551 
L 903.089589 42.378666 
L 932.225038 43.057041 
L 949.706307 43.504086 
" clip-path="url(#p9a17b69943)" style="fill: none; stroke: #5cb85c; stroke-linecap: square"/>
   </g>
   <g id="line2d_13">
    <path d="M 81.469943 43.82854 
L 87.297033 35.661578 
L 93.124123 35.017253 
L 98.951212 35.08611 
L 104.778302 35.092074 
L 110.605392 34.82567 
L 116.432481 35.265962 
L 122.259571 34.694878 
L 128.086661 34.493541 
L 145.56793 34.111588 
L 174.703378 32.63104 
L 203.838827 32.312444 
L 232.974275 33.442512 
L 262.109724 33.552414 
L 291.245172 33.500714 
L 320.38062 33.592399 
L 349.516069 33.744524 
L 378.651517 33.911706 
L 407.786966 34.151897 
L 436.922414 34.277083 
L 466.057863 34.47841 
L 495.193311 34.689374 
L 524.32876 34.827117 
L 553.464208 34.99574 
L 582.599656 35.177522 
L 611.735105 35.434616 
L 640.870553 35.737471 
L 670.006002 35.993883 
L 699.14145 36.417542 
L 728.276899 36.881018 
L 757.412347 37.492642 
L 786.547796 38.306043 
L 815.683244 39.058975 
L 844.818692 40.104894 
L 873.954141 41.435048 
L 903.089589 43.176543 
L 932.225038 45.109581 
L 949.706307 46.229108 
" clip-path="url(#p9a17b69943)" style="fill: none; stroke: #5cb85c; stroke-linecap: square"/>
   </g>
   <g id="line2d_14">
    <path d="M 81.469943 42.632461 
L 87.297033 36.783953 
L 93.124123 36.612968 
L 98.951212 35.9921 
L 104.778302 35.224182 
L 110.605392 35.099862 
L 116.432481 34.944464 
L 122.259571 34.704686 
L 128.086661 34.412193 
L 145.56793 33.939791 
L 174.703378 33.870038 
L 203.838827 33.985932 
L 232.974275 35.811755 
L 262.109724 36.177623 
L 291.245172 36.245429 
L 320.38062 36.349176 
L 349.516069 36.419892 
L 378.651517 36.529118 
L 407.786966 36.67903 
L 436.922414 36.977639 
L 466.057863 37.207565 
L 495.193311 37.378657 
L 524.32876 37.915963 
L 553.464208 37.955599 
L 582.599656 38.212112 
L 611.735105 38.593619 
L 640.870553 38.922483 
L 670.006002 39.233356 
L 699.14145 39.60818 
L 728.276899 40.033902 
L 757.412347 40.491417 
L 786.547796 41.023973 
L 815.683244 41.37396 
L 844.818692 41.982626 
L 873.954141 42.605992 
L 903.089589 43.354271 
L 932.225038 43.980317 
L 949.706307 44.087648 
" clip-path="url(#p9a17b69943)" style="fill: none; stroke: #5cb85c; stroke-linecap: square"/>
   </g>
   <g id="line2d_15">
    <path d="M 81.469943 44.487824 
L 87.297033 36.062518 
L 93.124123 35.315633 
L 98.951212 35.293287 
L 104.778302 35.339177 
L 110.605392 35.227325 
L 116.432481 35.513674 
L 122.259571 34.806925 
L 128.086661 34.583737 
L 145.56793 34.360892 
L 174.703378 32.766432 
L 203.838827 32.37535 
L 232.974275 33.513779 
L 262.109724 33.726702 
L 291.245172 33.663405 
L 320.38062 33.816156 
L 349.516069 33.818755 
L 378.651517 34.013365 
L 407.786966 34.224819 
L 436.922414 34.364893 
L 466.057863 34.544368 
L 495.193311 34.813278 
L 524.32876 34.904081 
L 553.464208 35.057145 
L 582.599656 35.235633 
L 611.735105 35.458061 
L 640.870553 35.810707 
L 670.006002 36.016146 
L 699.14145 36.467859 
L 728.276899 37.000623 
L 757.412347 37.537931 
L 786.547796 38.342164 
L 815.683244 39.094805 
L 844.818692 40.147012 
L 873.954141 41.751521 
L 903.089589 43.161059 
L 932.225038 45.007102 
L 949.706307 46.474387 
" clip-path="url(#p9a17b69943)" style="fill: none; stroke: #5cb85c; stroke-linecap: square"/>
   </g>
   <g id="line2d_16">
    <path d="M 81.469943 42.773769 
L 87.297033 36.796694 
L 93.124123 36.679945 
L 98.951212 36.033561 
L 104.778302 35.239603 
L 110.605392 35.050052 
L 116.432481 34.96084 
L 122.259571 34.695392 
L 128.086661 34.623034 
L 145.56793 33.996798 
L 174.703378 33.914688 
L 203.838827 33.932984 
L 232.974275 35.787799 
L 262.109724 36.146341 
L 291.245172 36.209483 
L 320.38062 36.264863 
L 349.516069 36.343257 
L 378.651517 36.463183 
L 407.786966 36.554316 
L 436.922414 36.875252 
L 466.057863 37.01904 
L 495.193311 37.259597 
L 524.32876 37.635858 
L 553.464208 37.806624 
L 582.599656 38.0048 
L 611.735105 38.34441 
L 640.870553 38.644043 
L 670.006002 38.959861 
L 699.14145 39.325677 
L 728.276899 39.749261 
L 757.412347 40.214086 
L 786.547796 40.716357 
L 815.683244 41.08575 
L 844.818692 41.534423 
L 873.954141 42.138629 
L 903.089589 42.74891 
L 932.225038 43.423437 
L 949.706307 43.868134 
" clip-path="url(#p9a17b69943)" style="fill: none; stroke: #5cb85c; stroke-linecap: square"/>
   </g>
   <g id="line2d_17">
    <path d="M 81.469943 42.64801 
L 87.297033 35.644713 
L 93.124123 35.255947 
L 98.951212 35.360468 
L 104.778302 35.350318 
L 110.605392 34.957042 
L 116.432481 35.226737 
L 122.259571 34.678758 
L 128.086661 34.528677 
L 145.56793 34.141014 
L 174.703378 32.598898 
L 203.838827 32.262037 
L 232.974275 33.436933 
L 262.109724 33.509839 
L 291.245172 33.441841 
L 320.38062 33.507163 
L 349.516069 33.533689 
L 378.651517 33.588751 
L 407.786966 33.758816 
L 436.922414 33.88439 
L 466.057863 34.034194 
L 495.193311 34.224515 
L 524.32876 34.361937 
L 553.464208 34.487771 
L 582.599656 34.644597 
L 611.735105 34.88484 
L 640.870553 35.155382 
L 670.006002 35.35163 
L 699.14145 35.686187 
L 728.276899 35.980023 
L 757.412347 36.433048 
L 786.547796 36.945263 
L 815.683244 37.426346 
L 844.818692 38.025348 
L 873.954141 38.781396 
L 903.089589 39.812238 
L 932.225038 40.873442 
L 949.706307 41.373954 
" clip-path="url(#p9a17b69943)" style="fill: none; stroke: #5cb85c; stroke-linecap: square"/>
   </g>
   <g id="line2d_18">
    <path d="M 81.469943 43.197353 
L 87.297033 37.634986 
L 93.124123 37.859296 
L 98.951212 36.9855 
L 104.778302 36.127686 
L 110.605392 36.050809 
L 116.432481 35.681096 
L 122.259571 35.405443 
L 128.086661 35.06678 
L 145.56793 34.416032 
L 174.703378 34.143201 
L 203.838827 34.055826 
L 232.974275 36.124256 
L 262.109724 36.439816 
L 291.245172 36.35129 
L 320.38062 36.292923 
L 349.516069 36.273709 
L 378.651517 36.268766 
L 407.786966 36.334575 
L 436.922414 36.497344 
L 466.057863 36.641185 
L 495.193311 36.746037 
L 524.32876 37.141203 
L 553.464208 37.231404 
L 582.599656 37.477624 
L 611.735105 37.832522 
L 640.870553 38.134874 
L 670.006002 38.439409 
L 699.14145 38.812014 
L 728.276899 39.235138 
L 757.412347 39.707004 
L 786.547796 40.217605 
L 815.683244 40.584846 
L 844.818692 41.18652 
L 873.954141 41.747345 
L 903.089589 42.415654 
L 932.225038 42.960879 
L 949.706307 43.006732 
" clip-path="url(#p9a17b69943)" style="fill: none; stroke: #5cb85c; stroke-linecap: square"/>
   </g>
   <g id="line2d_19">
    <path d="M 81.469943 43.21604 
L 87.297033 36.020897 
L 93.124123 35.540174 
L 98.951212 35.556813 
L 104.778302 35.60159 
L 110.605392 35.354253 
L 116.432481 35.476305 
L 122.259571 34.779077 
L 128.086661 34.625963 
L 145.56793 34.388995 
L 174.703378 32.738577 
L 203.838827 32.321079 
L 232.974275 33.50897 
L 262.109724 33.695448 
L 291.245172 33.613808 
L 320.38062 33.733477 
L 349.516069 33.61048 
L 378.651517 33.700555 
L 407.786966 33.834595 
L 436.922414 33.983996 
L 466.057863 34.113463 
L 495.193311 34.354109 
L 524.32876 34.446224 
L 553.464208 34.556076 
L 582.599656 34.704903 
L 611.735105 34.910702 
L 640.870553 35.234835 
L 670.006002 35.382697 
L 699.14145 35.741475 
L 728.276899 36.100047 
L 757.412347 36.480711 
L 786.547796 36.983391 
L 815.683244 37.459353 
L 844.818692 38.066688 
L 873.954141 39.087424 
L 903.089589 39.765551 
L 932.225038 40.726772 
L 949.706307 41.592598 
" clip-path="url(#p9a17b69943)" style="fill: none; stroke: #5cb85c; stroke-linecap: square"/>
   </g>
   <g id="line2d_20">
    <path d="M 81.469943 43.319077 
L 87.297033 37.655186 
L 93.124123 37.91719 
L 98.951212 37.023505 
L 104.778302 36.125413 
L 110.605392 35.97882 
L 116.432481 35.704445 
L 122.259571 35.375033 
L 128.086661 35.270197 
L 145.56793 34.496311 
L 174.703378 34.189897 
L 203.838827 34.024015 
L 232.974275 36.129956 
L 262.109724 36.444069 
L 291.245172 36.353053 
L 320.38062 36.252147 
L 349.516069 36.230853 
L 378.651517 36.24786 
L 407.786966 36.254641 
L 436.922414 36.442277 
L 466.057863 36.488001 
L 495.193311 36.663982 
L 524.32876 36.899306 
L 553.464208 37.127443 
L 582.599656 37.309436 
L 611.735105 37.621666 
L 640.870553 37.891477 
L 670.006002 38.207717 
L 699.14145 38.564721 
L 728.276899 38.977971 
L 757.412347 39.454723 
L 786.547796 39.937996 
L 815.683244 40.32667 
L 844.818692 40.755227 
L 873.954141 41.3074 
L 903.089589 41.842811 
L 932.225038 42.441529 
L 949.706307 42.844074 
" clip-path="url(#p9a17b69943)" style="fill: none; stroke: #5cb85c; stroke-linecap: square"/>
   </g>
   <g id="line2d_21">
    <path d="M 38.058125 273.99006 
L 993.118125 273.99006 
" clip-path="url(#p9a17b69943)" style="fill: none; stroke: #dedede; stroke-width: 2; stroke-linecap: square"/>
   </g>
   <g id="text_19">
    <!-- FastQC: Mean Quality Scores -->
    <g transform="translate(400.349375 19.3575) scale(0.16 -0.16)">
     <defs>
      <path id="DejaVuSans-46" d="M 628 4666 
L 3309 4666 
L 3309 4134 
L 1259 4134 
L 1259 2759 
L 3109 2759 
L 3109 2228 
L 1259 2228 
L 1259 0 
L 628 0 
L 628 4666 
z
" transform="scale(0.015625)"/>
      <path id="DejaVuSans-61" d="M 2194 1759 
Q 1497 1759 1228 1600 
Q 959 1441 959 1056 
Q 959 750 1161 570 
Q 1363 391 1709 391 
Q 2188 391 2477 730 
Q 2766 1069 2766 1631 
L 2766 1759 
L 2194 1759 
z
M 3341 1997 
L 3341 0 
L 2766 0 
L 2766 531 
Q 2569 213 2275 61 
Q 1981 -91 1556 -91 
Q 1019 -91 701 211 
Q 384 513 384 1019 
Q 384 1609 779 1909 
Q 1175 2209 1959 2209 
L 2766 2209 
L 2766 2266 
Q 2766 2663 2505 2880 
Q 2244 3097 1772 3097 
Q 1472 3097 1187 3025 
Q 903 2953 641 2809 
L 641 3341 
Q 956 3463 1253 3523 
Q 1550 3584 1831 3584 
Q 2591 3584 2966 3190 
Q 3341 2797 3341 1997 
z
" transform="scale(0.015625)"/>
      <path id="DejaVuSans-51" d="M 2522 4238 
Q 1834 4238 1429 3725 
Q 1025 3213 1025 2328 
Q 1025 1447 1429 934 
Q 1834 422 2522 422 
Q 3209 422 3611 934 
Q 4013 1447 4013 2328 
Q 4013 3213 3611 3725 
Q 3209 4238 2522 4238 
z
M 3406 84 
L 4238 -825 
L 3475 -825 
L 2784 -78 
Q 2681 -84 2626 -87 
Q 2572 -91 2522 -91 
Q 1538 -91 948 567 
Q 359 1225 359 2328 
Q 359 3434 948 4092 
Q 1538 4750 2522 4750 
Q 3503 4750 4090 4092 
Q 4678 3434 4678 2328 
Q 4678 1516 4351 937 
Q 4025 359 3406 84 
z
" transform="scale(0.015625)"/>
      <path id="DejaVuSans-43" d="M 4122 4306 
L 4122 3641 
Q 3803 3938 3442 4084 
Q 3081 4231 2675 4231 
Q 1875 4231 1450 3742 
Q 1025 3253 1025 2328 
Q 1025 1406 1450 917 
Q 1875 428 2675 428 
Q 3081 428 3442 575 
Q 3803 722 4122 1019 
L 4122 359 
Q 3791 134 3420 21 
Q 3050 -91 2638 -91 
Q 1578 -91 968 557 
Q 359 1206 359 2328 
Q 359 3453 968 4101 
Q 1578 4750 2638 4750 
Q 3056 4750 3426 4639 
Q 3797 4528 4122 4306 
z
" transform="scale(0.015625)"/>
      <path id="DejaVuSans-3a" d="M 750 794 
L 1409 794 
L 1409 0 
L 750 0 
L 750 794 
z
M 750 3309 
L 1409 3309 
L 1409 2516 
L 750 2516 
L 750 3309 
z
" transform="scale(0.015625)"/>
      <path id="DejaVuSans-4d" d="M 628 4666 
L 1569 4666 
L 2759 1491 
L 3956 4666 
L 4897 4666 
L 4897 0 
L 4281 0 
L 4281 4097 
L 3078 897 
L 2444 897 
L 1241 4097 
L 1241 0 
L 628 0 
L 628 4666 
z
" transform="scale(0.015625)"/>
      <path id="DejaVuSans-75" d="M 544 1381 
L 544 3500 
L 1119 3500 
L 1119 1403 
Q 1119 906 1312 657 
Q 1506 409 1894 409 
Q 2359 409 2629 706 
Q 2900 1003 2900 1516 
L 2900 3500 
L 3475 3500 
L 3475 0 
L 2900 0 
L 2900 538 
Q 2691 219 2414 64 
Q 2138 -91 1772 -91 
Q 1169 -91 856 284 
Q 544 659 544 1381 
z
M 1991 3584 
L 1991 3584 
z
" transform="scale(0.015625)"/>
      <path id="DejaVuSans-6c" d="M 603 4863 
L 1178 4863 
L 1178 0 
L 603 0 
L 603 4863 
z
" transform="scale(0.015625)"/>
      <path id="DejaVuSans-79" d="M 2059 -325 
Q 1816 -950 1584 -1140 
Q 1353 -1331 966 -1331 
L 506 -1331 
L 506 -850 
L 844 -850 
Q 1081 -850 1212 -737 
Q 1344 -625 1503 -206 
L 1606 56 
L 191 3500 
L 800 3500 
L 1894 763 
L 2988 3500 
L 3597 3500 
L 2059 -325 
z
" transform="scale(0.015625)"/>
     </defs>
     <use xlink:href="#DejaVuSans-46"/>
     <use xlink:href="#DejaVuSans-61" x="48.394531"/>
     <use xlink:href="#DejaVuSans-73" x="109.673828"/>
     <use xlink:href="#DejaVuSans-74" x="161.773438"/>
     <use xlink:href="#DejaVuSans-51" x="200.982422"/>
     <use xlink:href="#DejaVuSans-43" x="279.693359"/>
     <use xlink:href="#DejaVuSans-3a" x="349.517578"/>
     <use xlink:href="#DejaVuSans-20" x="383.208984"/>
     <use xlink:href="#DejaVuSans-4d" x="414.996094"/>
     <use xlink:href="#DejaVuSans-65" x="501.275391"/>
     <use xlink:href="#DejaVuSans-61" x="562.798828"/>
     <use xlink:href="#DejaVuSans-6e" x="624.078125"/>
     <use xlink:href="#DejaVuSans-20" x="687.457031"/>
     <use xlink:href="#DejaVuSans-51" x="719.244141"/>
     <use xlink:href="#DejaVuSans-75" x="797.955078"/>
     <use xlink:href="#DejaVuSans-61" x="861.333984"/>
     <use xlink:href="#DejaVuSans-6c" x="922.613281"/>
     <use xlink:href="#DejaVuSans-69" x="950.396484"/>
     <use xlink:href="#DejaVuSans-74" x="978.179688"/>
     <use xlink:href="#DejaVuSans-79" x="1017.388672"/>
     <use xlink:href="#DejaVuSans-20" x="1076.568359"/>
     <use xlink:href="#DejaVuSans-53" x="1108.355469"/>
     <use xlink:href="#DejaVuSans-63" x="1171.832031"/>
     <use xlink:href="#DejaVuSans-6f" x="1226.8125"/>
     <use xlink:href="#DejaVuSans-72" x="1287.994141"/>
     <use xlink:href="#DejaVuSans-65" x="1326.857422"/>
     <use xlink:href="#DejaVuSans-73" x="1388.380859"/>
    </g>
   </g>
   <g id="legend_1">
    <g id="line2d_22">
     <path d="M 45.258125 291.525394 
L 53.258125 291.525394 
L 61.258125 291.525394 
" style="fill: none; stroke: #5cb85c; stroke-linecap: square"/>
    </g>
    <g id="text_20">
     <!-- TK9_1_22GH5GLT3_AGAGAACCTA-GGTTATGCTA_L002_T1_1 -->
     <g transform="translate(67.658125 294.325394) scale(0.08 -0.08)">
      <defs>
       <path id="DejaVuSans-54" d="M -19 4666 
L 3928 4666 
L 3928 4134 
L 2272 4134 
L 2272 0 
L 1638 0 
L 1638 4134 
L -19 4134 
L -19 4666 
z
" transform="scale(0.015625)"/>
       <path id="DejaVuSans-4b" d="M 628 4666 
L 1259 4666 
L 1259 2694 
L 3353 4666 
L 4166 4666 
L 1850 2491 
L 4331 0 
L 3500 0 
L 1259 2247 
L 1259 0 
L 628 0 
L 628 4666 
z
" transform="scale(0.015625)"/>
       <path id="DejaVuSans-39" d="M 703 97 
L 703 672 
Q 941 559 1184 500 
Q 1428 441 1663 441 
Q 2288 441 2617 861 
Q 2947 1281 2994 2138 
Q 2813 1869 2534 1725 
Q 2256 1581 1919 1581 
Q 1219 1581 811 2004 
Q 403 2428 403 3163 
Q 403 3881 828 4315 
Q 1253 4750 1959 4750 
Q 2769 4750 3195 4129 
Q 3622 3509 3622 2328 
Q 3622 1225 3098 567 
Q 2575 -91 1691 -91 
Q 1453 -91 1209 -44 
Q 966 3 703 97 
z
M 1959 2075 
Q 2384 2075 2632 2365 
Q 2881 2656 2881 3163 
Q 2881 3666 2632 3958 
Q 2384 4250 1959 4250 
Q 1534 4250 1286 3958 
Q 1038 3666 1038 3163 
Q 1038 2656 1286 2365 
Q 1534 2075 1959 2075 
z
" transform="scale(0.015625)"/>
       <path id="DejaVuSans-5f" d="M 3263 -1063 
L 3263 -1509 
L -63 -1509 
L -63 -1063 
L 3263 -1063 
z
" transform="scale(0.015625)"/>
       <path id="DejaVuSans-47" d="M 3809 666 
L 3809 1919 
L 2778 1919 
L 2778 2438 
L 4434 2438 
L 4434 434 
Q 4069 175 3628 42 
Q 3188 -91 2688 -91 
Q 1594 -91 976 548 
Q 359 1188 359 2328 
Q 359 3472 976 4111 
Q 1594 4750 2688 4750 
Q 3144 4750 3555 4637 
Q 3966 4525 4313 4306 
L 4313 3634 
Q 3963 3931 3569 4081 
Q 3175 4231 2741 4231 
Q 1884 4231 1454 3753 
Q 1025 3275 1025 2328 
Q 1025 1384 1454 906 
Q 1884 428 2741 428 
Q 3075 428 3337 486 
Q 3600 544 3809 666 
z
" transform="scale(0.015625)"/>
       <path id="DejaVuSans-48" d="M 628 4666 
L 1259 4666 
L 1259 2753 
L 3553 2753 
L 3553 4666 
L 4184 4666 
L 4184 0 
L 3553 0 
L 3553 2222 
L 1259 2222 
L 1259 0 
L 628 0 
L 628 4666 
z
" transform="scale(0.015625)"/>
       <path id="DejaVuSans-4c" d="M 628 4666 
L 1259 4666 
L 1259 531 
L 3531 531 
L 3531 0 
L 628 0 
L 628 4666 
z
" transform="scale(0.015625)"/>
       <path id="DejaVuSans-41" d="M 2188 4044 
L 1331 1722 
L 3047 1722 
L 2188 4044 
z
M 1831 4666 
L 2547 4666 
L 4325 0 
L 3669 0 
L 3244 1197 
L 1141 1197 
L 716 0 
L 50 0 
L 1831 4666 
z
" transform="scale(0.015625)"/>
       <path id="DejaVuSans-2d" d="M 313 2009 
L 1997 2009 
L 1997 1497 
L 313 1497 
L 313 2009 
z
" transform="scale(0.015625)"/>
      </defs>
      <use xlink:href="#DejaVuSans-54"/>
      <use xlink:href="#DejaVuSans-4b" x="61.083984"/>
      <use xlink:href="#DejaVuSans-39" x="126.660156"/>
      <use xlink:href="#DejaVuSans-5f" x="190.283203"/>
      <use xlink:href="#DejaVuSans-31" x="240.283203"/>
      <use xlink:href="#DejaVuSans-5f" x="303.90625"/>
      <use xlink:href="#DejaVuSans-32" x="353.90625"/>
      <use xlink:href="#DejaVuSans-32" x="417.529297"/>
      <use xlink:href="#DejaVuSans-47" x="481.152344"/>
      <use xlink:href="#DejaVuSans-48" x="558.642578"/>
      <use xlink:href="#DejaVuSans-35" x="633.837891"/>
      <use xlink:href="#DejaVuSans-47" x="697.460938"/>
      <use xlink:href="#DejaVuSans-4c" x="774.951172"/>
      <use xlink:href="#DejaVuSans-54" x="816.914062"/>
      <use xlink:href="#DejaVuSans-33" x="877.998047"/>
      <use xlink:href="#DejaVuSans-5f" x="941.621094"/>
      <use xlink:href="#DejaVuSans-41" x="991.621094"/>
      <use xlink:href="#DejaVuSans-47" x="1058.279297"/>
      <use xlink:href="#DejaVuSans-41" x="1135.769531"/>
      <use xlink:href="#DejaVuSans-47" x="1202.427734"/>
      <use xlink:href="#DejaVuSans-41" x="1279.917969"/>
      <use xlink:href="#DejaVuSans-41" x="1351.076172"/>
      <use xlink:href="#DejaVuSans-43" x="1417.734375"/>
      <use xlink:href="#DejaVuSans-43" x="1487.558594"/>
      <use xlink:href="#DejaVuSans-54" x="1557.382812"/>
      <use xlink:href="#DejaVuSans-41" x="1610.716797"/>
      <use xlink:href="#DejaVuSans-2d" x="1676.875"/>
      <use xlink:href="#DejaVuSans-47" x="1716.583984"/>
      <use xlink:href="#DejaVuSans-47" x="1794.074219"/>
      <use xlink:href="#DejaVuSans-54" x="1867.939453"/>
      <use xlink:href="#DejaVuSans-54" x="1927.273438"/>
      <use xlink:href="#DejaVuSans-41" x="1980.607422"/>
      <use xlink:href="#DejaVuSans-54" x="2041.265625"/>
      <use xlink:href="#DejaVuSans-47" x="2102.349609"/>
      <use xlink:href="#DejaVuSans-43" x="2179.839844"/>
      <use xlink:href="#DejaVuSans-54" x="2249.664062"/>
      <use xlink:href="#DejaVuSans-41" x="2302.998047"/>
      <use xlink:href="#DejaVuSans-5f" x="2371.40625"/>
      <use xlink:href="#DejaVuSans-4c" x="2421.40625"/>
      <use xlink:href="#DejaVuSans-30" x="2477.119141"/>
      <use xlink:href="#DejaVuSans-30" x="2540.742188"/>
      <use xlink:href="#DejaVuSans-32" x="2604.365234"/>
      <use xlink:href="#DejaVuSans-5f" x="2667.988281"/>
      <use xlink:href="#DejaVuSans-54" x="2717.988281"/>
      <use xlink:href="#DejaVuSans-31" x="2779.072266"/>
      <use xlink:href="#DejaVuSans-5f" x="2842.695312"/>
      <use xlink:href="#DejaVuSans-31" x="2892.695312"/>
     </g>
    </g>
    <g id="line2d_23">
     <path d="M 45.258125 303.490394 
L 53.258125 303.490394 
L 61.258125 303.490394 
" style="fill: none; stroke: #5cb85c; stroke-linecap: square"/>
    </g>
    <g id="text_21">
     <!-- TK9_1_22GH5GLT3_AGAGAACCTA-GGTTATGCTA_L002_T1_2 -->
     <g transform="translate(67.658125 306.290394) scale(0.08 -0.08)">
      <use xlink:href="#DejaVuSans-54"/>
      <use xlink:href="#DejaVuSans-4b" x="61.083984"/>
      <use xlink:href="#DejaVuSans-39" x="126.660156"/>
      <use xlink:href="#DejaVuSans-5f" x="190.283203"/>
      <use xlink:href="#DejaVuSans-31" x="240.283203"/>
      <use xlink:href="#DejaVuSans-5f" x="303.90625"/>
      <use xlink:href="#DejaVuSans-32" x="353.90625"/>
      <use xlink:href="#DejaVuSans-32" x="417.529297"/>
      <use xlink:href="#DejaVuSans-47" x="481.152344"/>
      <use xlink:href="#DejaVuSans-48" x="558.642578"/>
      <use xlink:href="#DejaVuSans-35" x="633.837891"/>
      <use xlink:href="#DejaVuSans-47" x="697.460938"/>
      <use xlink:href="#DejaVuSans-4c" x="774.951172"/>
      <use xlink:href="#DejaVuSans-54" x="816.914062"/>
      <use xlink:href="#DejaVuSans-33" x="877.998047"/>
      <use xlink:href="#DejaVuSans-5f" x="941.621094"/>
      <use xlink:href="#DejaVuSans-41" x="991.621094"/>
      <use xlink:href="#DejaVuSans-47" x="1058.279297"/>
      <use xlink:href="#DejaVuSans-41" x="1135.769531"/>
      <use xlink:href="#DejaVuSans-47" x="1202.427734"/>
      <use xlink:href="#DejaVuSans-41" x="1279.917969"/>
      <use xlink:href="#DejaVuSans-41" x="1351.076172"/>
      <use xlink:href="#DejaVuSans-43" x="1417.734375"/>
      <use xlink:href="#DejaVuSans-43" x="1487.558594"/>
      <use xlink:href="#DejaVuSans-54" x="1557.382812"/>
      <use xlink:href="#DejaVuSans-41" x="1610.716797"/>
      <use xlink:href="#DejaVuSans-2d" x="1676.875"/>
      <use xlink:href="#DejaVuSans-47" x="1716.583984"/>
      <use xlink:href="#DejaVuSans-47" x="1794.074219"/>
      <use xlink:href="#DejaVuSans-54" x="1867.939453"/>
      <use xlink:href="#DejaVuSans-54" x="1927.273438"/>
      <use xlink:href="#DejaVuSans-41" x="1980.607422"/>
      <use xlink:href="#DejaVuSans-54" x="2041.265625"/>
      <use xlink:href="#DejaVuSans-47" x="2102.349609"/>
      <use xlink:href="#DejaVuSans-43" x="2179.839844"/>
      <use xlink:href="#DejaVuSans-54" x="2249.664062"/>
      <use xlink:href="#DejaVuSans-41" x="2302.998047"/>
      <use xlink:href="#DejaVuSans-5f" x="2371.40625"/>
      <use xlink:href="#DejaVuSans-4c" x="2421.40625"/>
      <use xlink:href="#DejaVuSans-30" x="2477.119141"/>
      <use xlink:href="#DejaVuSans-30" x="2540.742188"/>
      <use xlink:href="#DejaVuSans-32" x="2604.365234"/>
      <use xlink:href="#DejaVuSans-5f" x="2667.988281"/>
      <use xlink:href="#DejaVuSans-54" x="2717.988281"/>
      <use xlink:href="#DejaVuSans-31" x="2779.072266"/>
      <use xlink:href="#DejaVuSans-5f" x="2842.695312"/>
      <use xlink:href="#DejaVuSans-32" x="2892.695312"/>
     </g>
    </g>
    <g id="line2d_24">
     <path d="M 45.258125 315.455394 
L 53.258125 315.455394 
L 61.258125 315.455394 
" style="fill: none; stroke: #5cb85c; stroke-linecap: square"/>
    </g>
    <g id="text_22">
     <!-- TK9_1_22GH5GLT3_AGAGAACCTA-GGTTATGCTA_L003_T1_1 -->
     <g transform="translate(67.658125 318.255394) scale(0.08 -0.08)">
      <use xlink:href="#DejaVuSans-54"/>
      <use xlink:href="#DejaVuSans-4b" x="61.083984"/>
      <use xlink:href="#DejaVuSans-39" x="126.660156"/>
      <use xlink:href="#DejaVuSans-5f" x="190.283203"/>
      <use xlink:href="#DejaVuSans-31" x="240.283203"/>
      <use xlink:href="#DejaVuSans-5f" x="303.90625"/>
      <use xlink:href="#DejaVuSans-32" x="353.90625"/>
      <use xlink:href="#DejaVuSans-32" x="417.529297"/>
      <use xlink:href="#DejaVuSans-47" x="481.152344"/>
      <use xlink:href="#DejaVuSans-48" x="558.642578"/>
      <use xlink:href="#DejaVuSans-35" x="633.837891"/>
      <use xlink:href="#DejaVuSans-47" x="697.460938"/>
      <use xlink:href="#DejaVuSans-4c" x="774.951172"/>
      <use xlink:href="#DejaVuSans-54" x="816.914062"/>
      <use xlink:href="#DejaVuSans-33" x="877.998047"/>
      <use xlink:href="#DejaVuSans-5f" x="941.621094"/>
      <use xlink:href="#DejaVuSans-41" x="991.621094"/>
      <use xlink:href="#DejaVuSans-47" x="1058.279297"/>
      <use xlink:href="#DejaVuSans-41" x="1135.769531"/>
      <use xlink:href="#DejaVuSans-47" x="1202.427734"/>
      <use xlink:href="#DejaVuSans-41" x="1279.917969"/>
      <use xlink:href="#DejaVuSans-41" x="1351.076172"/>
      <use xlink:href="#DejaVuSans-43" x="1417.734375"/>
      <use xlink:href="#DejaVuSans-43" x="1487.558594"/>
      <use xlink:href="#DejaVuSans-54" x="1557.382812"/>
      <use xlink:href="#DejaVuSans-41" x="1610.716797"/>
      <use xlink:href="#DejaVuSans-2d" x="1676.875"/>
      <use xlink:href="#DejaVuSans-47" x="1716.583984"/>
      <use xlink:href="#DejaVuSans-47" x="1794.074219"/>
      <use xlink:href="#DejaVuSans-54" x="1867.939453"/>
      <use xlink:href="#DejaVuSans-54" x="1927.273438"/>
      <use xlink:href="#DejaVuSans-41" x="1980.607422"/>
      <use xlink:href="#DejaVuSans-54" x="2041.265625"/>
      <use xlink:href="#DejaVuSans-47" x="2102.349609"/>
      <use xlink:href="#DejaVuSans-43" x="2179.839844"/>
      <use xlink:href="#DejaVuSans-54" x="2249.664062"/>
      <use xlink:href="#DejaVuSans-41" x="2302.998047"/>
      <use xlink:href="#DejaVuSans-5f" x="2371.40625"/>
      <use xlink:href="#DejaVuSans-4c" x="2421.40625"/>
      <use xlink:href="#DejaVuSans-30" x="2477.119141"/>
      <use xlink:href="#DejaVuSans-30" x="2540.742188"/>
      <use xlink:href="#DejaVuSans-33" x="2604.365234"/>
      <use xlink:href="#DejaVuSans-5f" x="2667.988281"/>
      <use xlink:href="#DejaVuSans-54" x="2717.988281"/>
      <use xlink:href="#DejaVuSans-31" x="2779.072266"/>
      <use xlink:href="#DejaVuSans-5f" x="2842.695312"/>
      <use xlink:href="#DejaVuSans-31" x="2892.695312"/>
     </g>
    </g>
    <g id="line2d_25">
     <path d="M 214.179062 291.525394 
L 222.179062 291.525394 
L 230.179062 291.525394 
" style="fill: none; stroke: #5cb85c; stroke-linecap: square"/>
    </g>
    <g id="text_23">
     <!-- TK9_1_22GH5GLT3_AGAGAACCTA-GGTTATGCTA_L003_T1_2 -->
     <g transform="translate(236.579062 294.325394) scale(0.08 -0.08)">
      <use xlink:href="#DejaVuSans-54"/>
      <use xlink:href="#DejaVuSans-4b" x="61.083984"/>
      <use xlink:href="#DejaVuSans-39" x="126.660156"/>
      <use xlink:href="#DejaVuSans-5f" x="190.283203"/>
      <use xlink:href="#DejaVuSans-31" x="240.283203"/>
      <use xlink:href="#DejaVuSans-5f" x="303.90625"/>
      <use xlink:href="#DejaVuSans-32" x="353.90625"/>
      <use xlink:href="#DejaVuSans-32" x="417.529297"/>
      <use xlink:href="#DejaVuSans-47" x="481.152344"/>
      <use xlink:href="#DejaVuSans-48" x="558.642578"/>
      <use xlink:href="#DejaVuSans-35" x="633.837891"/>
      <use xlink:href="#DejaVuSans-47" x="697.460938"/>
      <use xlink:href="#DejaVuSans-4c" x="774.951172"/>
      <use xlink:href="#DejaVuSans-54" x="816.914062"/>
      <use xlink:href="#DejaVuSans-33" x="877.998047"/>
      <use xlink:href="#DejaVuSans-5f" x="941.621094"/>
      <use xlink:href="#DejaVuSans-41" x="991.621094"/>
      <use xlink:href="#DejaVuSans-47" x="1058.279297"/>
      <use xlink:href="#DejaVuSans-41" x="1135.769531"/>
      <use xlink:href="#DejaVuSans-47" x="1202.427734"/>
      <use xlink:href="#DejaVuSans-41" x="1279.917969"/>
      <use xlink:href="#DejaVuSans-41" x="1351.076172"/>
      <use xlink:href="#DejaVuSans-43" x="1417.734375"/>
      <use xlink:href="#DejaVuSans-43" x="1487.558594"/>
      <use xlink:href="#DejaVuSans-54" x="1557.382812"/>
      <use xlink:href="#DejaVuSans-41" x="1610.716797"/>
      <use xlink:href="#DejaVuSans-2d" x="1676.875"/>
      <use xlink:href="#DejaVuSans-47" x="1716.583984"/>
      <use xlink:href="#DejaVuSans-47" x="1794.074219"/>
      <use xlink:href="#DejaVuSans-54" x="1867.939453"/>
      <use xlink:href="#DejaVuSans-54" x="1927.273438"/>
      <use xlink:href="#DejaVuSans-41" x="1980.607422"/>
      <use xlink:href="#DejaVuSans-54" x="2041.265625"/>
      <use xlink:href="#DejaVuSans-47" x="2102.349609"/>
      <use xlink:href="#DejaVuSans-43" x="2179.839844"/>
      <use xlink:href="#DejaVuSans-54" x="2249.664062"/>
      <use xlink:href="#DejaVuSans-41" x="2302.998047"/>
      <use xlink:href="#DejaVuSans-5f" x="2371.40625"/>
      <use xlink:href="#DejaVuSans-4c" x="2421.40625"/>
      <use xlink:href="#DejaVuSans-30" x="2477.119141"/>
      <use xlink:href="#DejaVuSans-30" x="2540.742188"/>
      <use xlink:href="#DejaVuSans-33" x="2604.365234"/>
      <use xlink:href="#DejaVuSans-5f" x="2667.988281"/>
      <use xlink:href="#DejaVuSans-54" x="2717.988281"/>
      <use xlink:href="#DejaVuSans-31" x="2779.072266"/>
      <use xlink:href="#DejaVuSans-5f" x="2842.695312"/>
      <use xlink:href="#DejaVuSans-32" x="2892.695312"/>
     </g>
    </g>
    <g id="line2d_26">
     <path d="M 214.179062 303.490394 
L 222.179062 303.490394 
L 230.179062 303.490394 
" style="fill: none; stroke: #5cb85c; stroke-linecap: square"/>
    </g>
    <g id="text_24">
     <!-- TK9_2_22GH5GLT3_GATATTGTGT-ACCACACGGT_L002_T1_1 -->
     <g transform="translate(236.579062 306.290394) scale(0.08 -0.08)">
      <use xlink:href="#DejaVuSans-54"/>
      <use xlink:href="#DejaVuSans-4b" x="61.083984"/>
      <use xlink:href="#DejaVuSans-39" x="126.660156"/>
      <use xlink:href="#DejaVuSans-5f" x="190.283203"/>
      <use xlink:href="#DejaVuSans-32" x="240.283203"/>
      <use xlink:href="#DejaVuSans-5f" x="303.90625"/>
      <use xlink:href="#DejaVuSans-32" x="353.90625"/>
      <use xlink:href="#DejaVuSans-32" x="417.529297"/>
      <use xlink:href="#DejaVuSans-47" x="481.152344"/>
      <use xlink:href="#DejaVuSans-48" x="558.642578"/>
      <use xlink:href="#DejaVuSans-35" x="633.837891"/>
      <use xlink:href="#DejaVuSans-47" x="697.460938"/>
      <use xlink:href="#DejaVuSans-4c" x="774.951172"/>
      <use xlink:href="#DejaVuSans-54" x="816.914062"/>
      <use xlink:href="#DejaVuSans-33" x="877.998047"/>
      <use xlink:href="#DejaVuSans-5f" x="941.621094"/>
      <use xlink:href="#DejaVuSans-47" x="991.621094"/>
      <use xlink:href="#DejaVuSans-41" x="1069.111328"/>
      <use xlink:href="#DejaVuSans-54" x="1129.769531"/>
      <use xlink:href="#DejaVuSans-41" x="1183.103516"/>
      <use xlink:href="#DejaVuSans-54" x="1243.761719"/>
      <use xlink:href="#DejaVuSans-54" x="1303.095703"/>
      <use xlink:href="#DejaVuSans-47" x="1364.179688"/>
      <use xlink:href="#DejaVuSans-54" x="1438.044922"/>
      <use xlink:href="#DejaVuSans-47" x="1499.128906"/>
      <use xlink:href="#DejaVuSans-54" x="1572.994141"/>
      <use xlink:href="#DejaVuSans-2d" x="1624.953125"/>
      <use xlink:href="#DejaVuSans-41" x="1658.787109"/>
      <use xlink:href="#DejaVuSans-43" x="1725.445312"/>
      <use xlink:href="#DejaVuSans-43" x="1795.269531"/>
      <use xlink:href="#DejaVuSans-41" x="1865.09375"/>
      <use xlink:href="#DejaVuSans-43" x="1931.751953"/>
      <use xlink:href="#DejaVuSans-41" x="2001.576172"/>
      <use xlink:href="#DejaVuSans-43" x="2068.234375"/>
      <use xlink:href="#DejaVuSans-47" x="2138.058594"/>
      <use xlink:href="#DejaVuSans-47" x="2215.548828"/>
      <use xlink:href="#DejaVuSans-54" x="2289.414062"/>
      <use xlink:href="#DejaVuSans-5f" x="2350.498047"/>
      <use xlink:href="#DejaVuSans-4c" x="2400.498047"/>
      <use xlink:href="#DejaVuSans-30" x="2456.210938"/>
      <use xlink:href="#DejaVuSans-30" x="2519.833984"/>
      <use xlink:href="#DejaVuSans-32" x="2583.457031"/>
      <use xlink:href="#DejaVuSans-5f" x="2647.080078"/>
      <use xlink:href="#DejaVuSans-54" x="2697.080078"/>
      <use xlink:href="#DejaVuSans-31" x="2758.164062"/>
      <use xlink:href="#DejaVuSans-5f" x="2821.787109"/>
      <use xlink:href="#DejaVuSans-31" x="2871.787109"/>
     </g>
    </g>
    <g id="line2d_27">
     <path d="M 214.179062 315.455394 
L 222.179062 315.455394 
L 230.179062 315.455394 
" style="fill: none; stroke: #5cb85c; stroke-linecap: square"/>
    </g>
    <g id="text_25">
     <!-- TK9_2_22GH5GLT3_GATATTGTGT-ACCACACGGT_L002_T1_2 -->
     <g transform="translate(236.579062 318.255394) scale(0.08 -0.08)">
      <use xlink:href="#DejaVuSans-54"/>
      <use xlink:href="#DejaVuSans-4b" x="61.083984"/>
      <use xlink:href="#DejaVuSans-39" x="126.660156"/>
      <use xlink:href="#DejaVuSans-5f" x="190.283203"/>
      <use xlink:href="#DejaVuSans-32" x="240.283203"/>
      <use xlink:href="#DejaVuSans-5f" x="303.90625"/>
      <use xlink:href="#DejaVuSans-32" x="353.90625"/>
      <use xlink:href="#DejaVuSans-32" x="417.529297"/>
      <use xlink:href="#DejaVuSans-47" x="481.152344"/>
      <use xlink:href="#DejaVuSans-48" x="558.642578"/>
      <use xlink:href="#DejaVuSans-35" x="633.837891"/>
      <use xlink:href="#DejaVuSans-47" x="697.460938"/>
      <use xlink:href="#DejaVuSans-4c" x="774.951172"/>
      <use xlink:href="#DejaVuSans-54" x="816.914062"/>
      <use xlink:href="#DejaVuSans-33" x="877.998047"/>
      <use xlink:href="#DejaVuSans-5f" x="941.621094"/>
      <use xlink:href="#DejaVuSans-47" x="991.621094"/>
      <use xlink:href="#DejaVuSans-41" x="1069.111328"/>
      <use xlink:href="#DejaVuSans-54" x="1129.769531"/>
      <use xlink:href="#DejaVuSans-41" x="1183.103516"/>
      <use xlink:href="#DejaVuSans-54" x="1243.761719"/>
      <use xlink:href="#DejaVuSans-54" x="1303.095703"/>
      <use xlink:href="#DejaVuSans-47" x="1364.179688"/>
      <use xlink:href="#DejaVuSans-54" x="1438.044922"/>
      <use xlink:href="#DejaVuSans-47" x="1499.128906"/>
      <use xlink:href="#DejaVuSans-54" x="1572.994141"/>
      <use xlink:href="#DejaVuSans-2d" x="1624.953125"/>
      <use xlink:href="#DejaVuSans-41" x="1658.787109"/>
      <use xlink:href="#DejaVuSans-43" x="1725.445312"/>
      <use xlink:href="#DejaVuSans-43" x="1795.269531"/>
      <use xlink:href="#DejaVuSans-41" x="1865.09375"/>
      <use xlink:href="#DejaVuSans-43" x="1931.751953"/>
      <use xlink:href="#DejaVuSans-41" x="2001.576172"/>
      <use xlink:href="#DejaVuSans-43" x="2068.234375"/>
      <use xlink:href="#DejaVuSans-47" x="2138.058594"/>
      <use xlink:href="#DejaVuSans-47" x="2215.548828"/>
      <use xlink:href="#DejaVuSans-54" x="2289.414062"/>
      <use xlink:href="#DejaVuSans-5f" x="2350.498047"/>
      <use xlink:href="#DejaVuSans-4c" x="2400.498047"/>
      <use xlink:href="#DejaVuSans-30" x="2456.210938"/>
      <use xlink:href="#DejaVuSans-30" x="2519.833984"/>
      <use xlink:href="#DejaVuSans-32" x="2583.457031"/>
      <use xlink:href="#DejaVuSans-5f" x="2647.080078"/>
      <use xlink:href="#DejaVuSans-54" x="2697.080078"/>
      <use xlink:href="#DejaVuSans-31" x="2758.164062"/>
      <use xlink:href="#DejaVuSans-5f" x="2821.787109"/>
      <use xlink:href="#DejaVuSans-32" x="2871.787109"/>
     </g>
    </g>
    <g id="line2d_28">
     <path d="M 383.1 291.525394 
L 391.1 291.525394 
L 399.1 291.525394 
" style="fill: none; stroke: #5cb85c; stroke-linecap: square"/>
    </g>
    <g id="text_26">
     <!-- TK9_2_22GH5GLT3_GATATTGTGT-ACCACACGGT_L003_T1_1 -->
     <g transform="translate(405.5 294.325394) scale(0.08 -0.08)">
      <use xlink:href="#DejaVuSans-54"/>
      <use xlink:href="#DejaVuSans-4b" x="61.083984"/>
      <use xlink:href="#DejaVuSans-39" x="126.660156"/>
      <use xlink:href="#DejaVuSans-5f" x="190.283203"/>
      <use xlink:href="#DejaVuSans-32" x="240.283203"/>
      <use xlink:href="#DejaVuSans-5f" x="303.90625"/>
      <use xlink:href="#DejaVuSans-32" x="353.90625"/>
      <use xlink:href="#DejaVuSans-32" x="417.529297"/>
      <use xlink:href="#DejaVuSans-47" x="481.152344"/>
      <use xlink:href="#DejaVuSans-48" x="558.642578"/>
      <use xlink:href="#DejaVuSans-35" x="633.837891"/>
      <use xlink:href="#DejaVuSans-47" x="697.460938"/>
      <use xlink:href="#DejaVuSans-4c" x="774.951172"/>
      <use xlink:href="#DejaVuSans-54" x="816.914062"/>
      <use xlink:href="#DejaVuSans-33" x="877.998047"/>
      <use xlink:href="#DejaVuSans-5f" x="941.621094"/>
      <use xlink:href="#DejaVuSans-47" x="991.621094"/>
      <use xlink:href="#DejaVuSans-41" x="1069.111328"/>
      <use xlink:href="#DejaVuSans-54" x="1129.769531"/>
      <use xlink:href="#DejaVuSans-41" x="1183.103516"/>
      <use xlink:href="#DejaVuSans-54" x="1243.761719"/>
      <use xlink:href="#DejaVuSans-54" x="1303.095703"/>
      <use xlink:href="#DejaVuSans-47" x="1364.179688"/>
      <use xlink:href="#DejaVuSans-54" x="1438.044922"/>
      <use xlink:href="#DejaVuSans-47" x="1499.128906"/>
      <use xlink:href="#DejaVuSans-54" x="1572.994141"/>
      <use xlink:href="#DejaVuSans-2d" x="1624.953125"/>
      <use xlink:href="#DejaVuSans-41" x="1658.787109"/>
      <use xlink:href="#DejaVuSans-43" x="1725.445312"/>
      <use xlink:href="#DejaVuSans-43" x="1795.269531"/>
      <use xlink:href="#DejaVuSans-41" x="1865.09375"/>
      <use xlink:href="#DejaVuSans-43" x="1931.751953"/>
      <use xlink:href="#DejaVuSans-41" x="2001.576172"/>
      <use xlink:href="#DejaVuSans-43" x="2068.234375"/>
      <use xlink:href="#DejaVuSans-47" x="2138.058594"/>
      <use xlink:href="#DejaVuSans-47" x="2215.548828"/>
      <use xlink:href="#DejaVuSans-54" x="2289.414062"/>
      <use xlink:href="#DejaVuSans-5f" x="2350.498047"/>
      <use xlink:href="#DejaVuSans-4c" x="2400.498047"/>
      <use xlink:href="#DejaVuSans-30" x="2456.210938"/>
      <use xlink:href="#DejaVuSans-30" x="2519.833984"/>
      <use xlink:href="#DejaVuSans-33" x="2583.457031"/>
      <use xlink:href="#DejaVuSans-5f" x="2647.080078"/>
      <use xlink:href="#DejaVuSans-54" x="2697.080078"/>
      <use xlink:href="#DejaVuSans-31" x="2758.164062"/>
      <use xlink:href="#DejaVuSans-5f" x="2821.787109"/>
      <use xlink:href="#DejaVuSans-31" x="2871.787109"/>
     </g>
    </g>
    <g id="line2d_29">
     <path d="M 383.1 303.490394 
L 391.1 303.490394 
L 399.1 303.490394 
" style="fill: none; stroke: #5cb85c; stroke-linecap: square"/>
    </g>
    <g id="text_27">
     <!-- TK9_2_22GH5GLT3_GATATTGTGT-ACCACACGGT_L003_T1_2 -->
     <g transform="translate(405.5 306.290394) scale(0.08 -0.08)">
      <use xlink:href="#DejaVuSans-54"/>
      <use xlink:href="#DejaVuSans-4b" x="61.083984"/>
      <use xlink:href="#DejaVuSans-39" x="126.660156"/>
      <use xlink:href="#DejaVuSans-5f" x="190.283203"/>
      <use xlink:href="#DejaVuSans-32" x="240.283203"/>
      <use xlink:href="#DejaVuSans-5f" x="303.90625"/>
      <use xlink:href="#DejaVuSans-32" x="353.90625"/>
      <use xlink:href="#DejaVuSans-32" x="417.529297"/>
      <use xlink:href="#DejaVuSans-47" x="481.152344"/>
      <use xlink:href="#DejaVuSans-48" x="558.642578"/>
      <use xlink:href="#DejaVuSans-35" x="633.837891"/>
      <use xlink:href="#DejaVuSans-47" x="697.460938"/>
      <use xlink:href="#DejaVuSans-4c" x="774.951172"/>
      <use xlink:href="#DejaVuSans-54" x="816.914062"/>
      <use xlink:href="#DejaVuSans-33" x="877.998047"/>
      <use xlink:href="#DejaVuSans-5f" x="941.621094"/>
      <use xlink:href="#DejaVuSans-47" x="991.621094"/>
      <use xlink:href="#DejaVuSans-41" x="1069.111328"/>
      <use xlink:href="#DejaVuSans-54" x="1129.769531"/>
      <use xlink:href="#DejaVuSans-41" x="1183.103516"/>
      <use xlink:href="#DejaVuSans-54" x="1243.761719"/>
      <use xlink:href="#DejaVuSans-54" x="1303.095703"/>
      <use xlink:href="#DejaVuSans-47" x="1364.179688"/>
      <use xlink:href="#DejaVuSans-54" x="1438.044922"/>
      <use xlink:href="#DejaVuSans-47" x="1499.128906"/>
      <use xlink:href="#DejaVuSans-54" x="1572.994141"/>
      <use xlink:href="#DejaVuSans-2d" x="1624.953125"/>
      <use xlink:href="#DejaVuSans-41" x="1658.787109"/>
      <use xlink:href="#DejaVuSans-43" x="1725.445312"/>
      <use xlink:href="#DejaVuSans-43" x="1795.269531"/>
      <use xlink:href="#DejaVuSans-41" x="1865.09375"/>
      <use xlink:href="#DejaVuSans-43" x="1931.751953"/>
      <use xlink:href="#DejaVuSans-41" x="2001.576172"/>
      <use xlink:href="#DejaVuSans-43" x="2068.234375"/>
      <use xlink:href="#DejaVuSans-47" x="2138.058594"/>
      <use xlink:href="#DejaVuSans-47" x="2215.548828"/>
      <use xlink:href="#DejaVuSans-54" x="2289.414062"/>
      <use xlink:href="#DejaVuSans-5f" x="2350.498047"/>
      <use xlink:href="#DejaVuSans-4c" x="2400.498047"/>
      <use xlink:href="#DejaVuSans-30" x="2456.210938"/>
      <use xlink:href="#DejaVuSans-30" x="2519.833984"/>
      <use xlink:href="#DejaVuSans-33" x="2583.457031"/>
      <use xlink:href="#DejaVuSans-5f" x="2647.080078"/>
      <use xlink:href="#DejaVuSans-54" x="2697.080078"/>
      <use xlink:href="#DejaVuSans-31" x="2758.164062"/>
      <use xlink:href="#DejaVuSans-5f" x="2821.787109"/>
      <use xlink:href="#DejaVuSans-32" x="2871.787109"/>
     </g>
    </g>
    <g id="line2d_30">
     <path d="M 550.348438 291.525394 
L 558.348438 291.525394 
L 566.348438 291.525394 
" style="fill: none; stroke: #5cb85c; stroke-linecap: square"/>
    </g>
    <g id="text_28">
     <!-- TK9_3_22GH5GLT3_GGCGCCATTG-ACCGCGCAAT_L002_T1_1 -->
     <g transform="translate(572.748438 294.325394) scale(0.08 -0.08)">
      <use xlink:href="#DejaVuSans-54"/>
      <use xlink:href="#DejaVuSans-4b" x="61.083984"/>
      <use xlink:href="#DejaVuSans-39" x="126.660156"/>
      <use xlink:href="#DejaVuSans-5f" x="190.283203"/>
      <use xlink:href="#DejaVuSans-33" x="240.283203"/>
      <use xlink:href="#DejaVuSans-5f" x="303.90625"/>
      <use xlink:href="#DejaVuSans-32" x="353.90625"/>
      <use xlink:href="#DejaVuSans-32" x="417.529297"/>
      <use xlink:href="#DejaVuSans-47" x="481.152344"/>
      <use xlink:href="#DejaVuSans-48" x="558.642578"/>
      <use xlink:href="#DejaVuSans-35" x="633.837891"/>
      <use xlink:href="#DejaVuSans-47" x="697.460938"/>
      <use xlink:href="#DejaVuSans-4c" x="774.951172"/>
      <use xlink:href="#DejaVuSans-54" x="816.914062"/>
      <use xlink:href="#DejaVuSans-33" x="877.998047"/>
      <use xlink:href="#DejaVuSans-5f" x="941.621094"/>
      <use xlink:href="#DejaVuSans-47" x="991.621094"/>
      <use xlink:href="#DejaVuSans-47" x="1069.111328"/>
      <use xlink:href="#DejaVuSans-43" x="1146.601562"/>
      <use xlink:href="#DejaVuSans-47" x="1216.425781"/>
      <use xlink:href="#DejaVuSans-43" x="1293.916016"/>
      <use xlink:href="#DejaVuSans-43" x="1363.740234"/>
      <use xlink:href="#DejaVuSans-41" x="1433.564453"/>
      <use xlink:href="#DejaVuSans-54" x="1494.222656"/>
      <use xlink:href="#DejaVuSans-54" x="1553.556641"/>
      <use xlink:href="#DejaVuSans-47" x="1614.640625"/>
      <use xlink:href="#DejaVuSans-2d" x="1692.130859"/>
      <use xlink:href="#DejaVuSans-41" x="1725.964844"/>
      <use xlink:href="#DejaVuSans-43" x="1792.623047"/>
      <use xlink:href="#DejaVuSans-43" x="1862.447266"/>
      <use xlink:href="#DejaVuSans-47" x="1932.271484"/>
      <use xlink:href="#DejaVuSans-43" x="2009.761719"/>
      <use xlink:href="#DejaVuSans-47" x="2079.585938"/>
      <use xlink:href="#DejaVuSans-43" x="2157.076172"/>
      <use xlink:href="#DejaVuSans-41" x="2226.900391"/>
      <use xlink:href="#DejaVuSans-41" x="2298.058594"/>
      <use xlink:href="#DejaVuSans-54" x="2358.716797"/>
      <use xlink:href="#DejaVuSans-5f" x="2419.800781"/>
      <use xlink:href="#DejaVuSans-4c" x="2469.800781"/>
      <use xlink:href="#DejaVuSans-30" x="2525.513672"/>
      <use xlink:href="#DejaVuSans-30" x="2589.136719"/>
      <use xlink:href="#DejaVuSans-32" x="2652.759766"/>
      <use xlink:href="#DejaVuSans-5f" x="2716.382812"/>
      <use xlink:href="#DejaVuSans-54" x="2766.382812"/>
      <use xlink:href="#DejaVuSans-31" x="2827.466797"/>
      <use xlink:href="#DejaVuSans-5f" x="2891.089844"/>
      <use xlink:href="#DejaVuSans-31" x="2941.089844"/>
     </g>
    </g>
    <g id="line2d_31">
     <path d="M 550.348438 303.490394 
L 558.348438 303.490394 
L 566.348438 303.490394 
" style="fill: none; stroke: #5cb85c; stroke-linecap: square"/>
    </g>
    <g id="text_29">
     <!-- TK9_3_22GH5GLT3_GGCGCCATTG-ACCGCGCAAT_L002_T1_2 -->
     <g transform="translate(572.748438 306.290394) scale(0.08 -0.08)">
      <use xlink:href="#DejaVuSans-54"/>
      <use xlink:href="#DejaVuSans-4b" x="61.083984"/>
      <use xlink:href="#DejaVuSans-39" x="126.660156"/>
      <use xlink:href="#DejaVuSans-5f" x="190.283203"/>
      <use xlink:href="#DejaVuSans-33" x="240.283203"/>
      <use xlink:href="#DejaVuSans-5f" x="303.90625"/>
      <use xlink:href="#DejaVuSans-32" x="353.90625"/>
      <use xlink:href="#DejaVuSans-32" x="417.529297"/>
      <use xlink:href="#DejaVuSans-47" x="481.152344"/>
      <use xlink:href="#DejaVuSans-48" x="558.642578"/>
      <use xlink:href="#DejaVuSans-35" x="633.837891"/>
      <use xlink:href="#DejaVuSans-47" x="697.460938"/>
      <use xlink:href="#DejaVuSans-4c" x="774.951172"/>
      <use xlink:href="#DejaVuSans-54" x="816.914062"/>
      <use xlink:href="#DejaVuSans-33" x="877.998047"/>
      <use xlink:href="#DejaVuSans-5f" x="941.621094"/>
      <use xlink:href="#DejaVuSans-47" x="991.621094"/>
      <use xlink:href="#DejaVuSans-47" x="1069.111328"/>
      <use xlink:href="#DejaVuSans-43" x="1146.601562"/>
      <use xlink:href="#DejaVuSans-47" x="1216.425781"/>
      <use xlink:href="#DejaVuSans-43" x="1293.916016"/>
      <use xlink:href="#DejaVuSans-43" x="1363.740234"/>
      <use xlink:href="#DejaVuSans-41" x="1433.564453"/>
      <use xlink:href="#DejaVuSans-54" x="1494.222656"/>
      <use xlink:href="#DejaVuSans-54" x="1553.556641"/>
      <use xlink:href="#DejaVuSans-47" x="1614.640625"/>
      <use xlink:href="#DejaVuSans-2d" x="1692.130859"/>
      <use xlink:href="#DejaVuSans-41" x="1725.964844"/>
      <use xlink:href="#DejaVuSans-43" x="1792.623047"/>
      <use xlink:href="#DejaVuSans-43" x="1862.447266"/>
      <use xlink:href="#DejaVuSans-47" x="1932.271484"/>
      <use xlink:href="#DejaVuSans-43" x="2009.761719"/>
      <use xlink:href="#DejaVuSans-47" x="2079.585938"/>
      <use xlink:href="#DejaVuSans-43" x="2157.076172"/>
      <use xlink:href="#DejaVuSans-41" x="2226.900391"/>
      <use xlink:href="#DejaVuSans-41" x="2298.058594"/>
      <use xlink:href="#DejaVuSans-54" x="2358.716797"/>
      <use xlink:href="#DejaVuSans-5f" x="2419.800781"/>
      <use xlink:href="#DejaVuSans-4c" x="2469.800781"/>
      <use xlink:href="#DejaVuSans-30" x="2525.513672"/>
      <use xlink:href="#DejaVuSans-30" x="2589.136719"/>
      <use xlink:href="#DejaVuSans-32" x="2652.759766"/>
      <use xlink:href="#DejaVuSans-5f" x="2716.382812"/>
      <use xlink:href="#DejaVuSans-54" x="2766.382812"/>
      <use xlink:href="#DejaVuSans-31" x="2827.466797"/>
      <use xlink:href="#DejaVuSans-5f" x="2891.089844"/>
      <use xlink:href="#DejaVuSans-32" x="2941.089844"/>
     </g>
    </g>
    <g id="line2d_32">
     <path d="M 723.143125 291.525394 
L 731.143125 291.525394 
L 739.143125 291.525394 
" style="fill: none; stroke: #5cb85c; stroke-linecap: square"/>
    </g>
    <g id="text_30">
     <!-- TK9_3_22GH5GLT3_GGCGCCATTG-ACCGCGCAAT_L003_T1_1 -->
     <g transform="translate(745.543125 294.325394) scale(0.08 -0.08)">
      <use xlink:href="#DejaVuSans-54"/>
      <use xlink:href="#DejaVuSans-4b" x="61.083984"/>
      <use xlink:href="#DejaVuSans-39" x="126.660156"/>
      <use xlink:href="#DejaVuSans-5f" x="190.283203"/>
      <use xlink:href="#DejaVuSans-33" x="240.283203"/>
      <use xlink:href="#DejaVuSans-5f" x="303.90625"/>
      <use xlink:href="#DejaVuSans-32" x="353.90625"/>
      <use xlink:href="#DejaVuSans-32" x="417.529297"/>
      <use xlink:href="#DejaVuSans-47" x="481.152344"/>
      <use xlink:href="#DejaVuSans-48" x="558.642578"/>
      <use xlink:href="#DejaVuSans-35" x="633.837891"/>
      <use xlink:href="#DejaVuSans-47" x="697.460938"/>
      <use xlink:href="#DejaVuSans-4c" x="774.951172"/>
      <use xlink:href="#DejaVuSans-54" x="816.914062"/>
      <use xlink:href="#DejaVuSans-33" x="877.998047"/>
      <use xlink:href="#DejaVuSans-5f" x="941.621094"/>
      <use xlink:href="#DejaVuSans-47" x="991.621094"/>
      <use xlink:href="#DejaVuSans-47" x="1069.111328"/>
      <use xlink:href="#DejaVuSans-43" x="1146.601562"/>
      <use xlink:href="#DejaVuSans-47" x="1216.425781"/>
      <use xlink:href="#DejaVuSans-43" x="1293.916016"/>
      <use xlink:href="#DejaVuSans-43" x="1363.740234"/>
      <use xlink:href="#DejaVuSans-41" x="1433.564453"/>
      <use xlink:href="#DejaVuSans-54" x="1494.222656"/>
      <use xlink:href="#DejaVuSans-54" x="1553.556641"/>
      <use xlink:href="#DejaVuSans-47" x="1614.640625"/>
      <use xlink:href="#DejaVuSans-2d" x="1692.130859"/>
      <use xlink:href="#DejaVuSans-41" x="1725.964844"/>
      <use xlink:href="#DejaVuSans-43" x="1792.623047"/>
      <use xlink:href="#DejaVuSans-43" x="1862.447266"/>
      <use xlink:href="#DejaVuSans-47" x="1932.271484"/>
      <use xlink:href="#DejaVuSans-43" x="2009.761719"/>
      <use xlink:href="#DejaVuSans-47" x="2079.585938"/>
      <use xlink:href="#DejaVuSans-43" x="2157.076172"/>
      <use xlink:href="#DejaVuSans-41" x="2226.900391"/>
      <use xlink:href="#DejaVuSans-41" x="2298.058594"/>
      <use xlink:href="#DejaVuSans-54" x="2358.716797"/>
      <use xlink:href="#DejaVuSans-5f" x="2419.800781"/>
      <use xlink:href="#DejaVuSans-4c" x="2469.800781"/>
      <use xlink:href="#DejaVuSans-30" x="2525.513672"/>
      <use xlink:href="#DejaVuSans-30" x="2589.136719"/>
      <use xlink:href="#DejaVuSans-33" x="2652.759766"/>
      <use xlink:href="#DejaVuSans-5f" x="2716.382812"/>
      <use xlink:href="#DejaVuSans-54" x="2766.382812"/>
      <use xlink:href="#DejaVuSans-31" x="2827.466797"/>
      <use xlink:href="#DejaVuSans-5f" x="2891.089844"/>
      <use xlink:href="#DejaVuSans-31" x="2941.089844"/>
     </g>
    </g>
    <g id="line2d_33">
     <path d="M 723.143125 303.490394 
L 731.143125 303.490394 
L 739.143125 303.490394 
" style="fill: none; stroke: #5cb85c; stroke-linecap: square"/>
    </g>
    <g id="text_31">
     <!-- TK9_3_22GH5GLT3_GGCGCCATTG-ACCGCGCAAT_L003_T1_2 -->
     <g transform="translate(745.543125 306.290394) scale(0.08 -0.08)">
      <use xlink:href="#DejaVuSans-54"/>
      <use xlink:href="#DejaVuSans-4b" x="61.083984"/>
      <use xlink:href="#DejaVuSans-39" x="126.660156"/>
      <use xlink:href="#DejaVuSans-5f" x="190.283203"/>
      <use xlink:href="#DejaVuSans-33" x="240.283203"/>
      <use xlink:href="#DejaVuSans-5f" x="303.90625"/>
      <use xlink:href="#DejaVuSans-32" x="353.90625"/>
      <use xlink:href="#DejaVuSans-32" x="417.529297"/>
      <use xlink:href="#DejaVuSans-47" x="481.152344"/>
      <use xlink:href="#DejaVuSans-48" x="558.642578"/>
      <use xlink:href="#DejaVuSans-35" x="633.837891"/>
      <use xlink:href="#DejaVuSans-47" x="697.460938"/>
      <use xlink:href="#DejaVuSans-4c" x="774.951172"/>
      <use xlink:href="#DejaVuSans-54" x="816.914062"/>
      <use xlink:href="#DejaVuSans-33" x="877.998047"/>
      <use xlink:href="#DejaVuSans-5f" x="941.621094"/>
      <use xlink:href="#DejaVuSans-47" x="991.621094"/>
      <use xlink:href="#DejaVuSans-47" x="1069.111328"/>
      <use xlink:href="#DejaVuSans-43" x="1146.601562"/>
      <use xlink:href="#DejaVuSans-47" x="1216.425781"/>
      <use xlink:href="#DejaVuSans-43" x="1293.916016"/>
      <use xlink:href="#DejaVuSans-43" x="1363.740234"/>
      <use xlink:href="#DejaVuSans-41" x="1433.564453"/>
      <use xlink:href="#DejaVuSans-54" x="1494.222656"/>
      <use xlink:href="#DejaVuSans-54" x="1553.556641"/>
      <use xlink:href="#DejaVuSans-47" x="1614.640625"/>
      <use xlink:href="#DejaVuSans-2d" x="1692.130859"/>
      <use xlink:href="#DejaVuSans-41" x="1725.964844"/>
      <use xlink:href="#DejaVuSans-43" x="1792.623047"/>
      <use xlink:href="#DejaVuSans-43" x="1862.447266"/>
      <use xlink:href="#DejaVuSans-47" x="1932.271484"/>
      <use xlink:href="#DejaVuSans-43" x="2009.761719"/>
      <use xlink:href="#DejaVuSans-47" x="2079.585938"/>
      <use xlink:href="#DejaVuSans-43" x="2157.076172"/>
      <use xlink:href="#DejaVuSans-41" x="2226.900391"/>
      <use xlink:href="#DejaVuSans-41" x="2298.058594"/>
      <use xlink:href="#DejaVuSans-54" x="2358.716797"/>
      <use xlink:href="#DejaVuSans-5f" x="2419.800781"/>
      <use xlink:href="#DejaVuSans-4c" x="2469.800781"/>
      <use xlink:href="#DejaVuSans-30" x="2525.513672"/>
      <use xlink:href="#DejaVuSans-30" x="2589.136719"/>
      <use xlink:href="#DejaVuSans-33" x="2652.759766"/>
      <use xlink:href="#DejaVuSans-5f" x="2716.382812"/>
      <use xlink:href="#DejaVuSans-54" x="2766.382812"/>
      <use xlink:href="#DejaVuSans-31" x="2827.466797"/>
      <use xlink:href="#DejaVuSans-5f" x="2891.089844"/>
      <use xlink:href="#DejaVuSans-32" x="2941.089844"/>
     </g>
    </g>
   </g>
  </g>
 </g>
 <defs>
  <clipPath id="p9a17b69943">
   <rect x="38.058125" y="31.48286" width="955.06" height="242.5072"/>
  </clipPath>
 </defs>
</svg>
