<?xml version="1.0" encoding="utf-8" standalone="no"?>
<!DOCTYPE svg PUBLIC "-//W3C//DTD SVG 1.1//EN"
  "http://www.w3.org/Graphics/SVG/1.1/DTD/svg11.dtd">
<svg xmlns:xlink="http://www.w3.org/1999/xlink" width="1000.280625pt" height="330.541644pt" viewBox="0 0 1000.280625 330.541644" xmlns="http://www.w3.org/2000/svg" version="1.1">
 <metadata>
  <rdf:RDF xmlns:dc="http://purl.org/dc/elements/1.1/" xmlns:cc="http://creativecommons.org/ns#" xmlns:rdf="http://www.w3.org/1999/02/22-rdf-syntax-ns#">
   <cc:Work>
    <dc:type rdf:resource="http://purl.org/dc/dcmitype/StillImage"/>
    <dc:date>2023-11-28T12:11:14.172458</dc:date>
    <dc:format>image/svg+xml</dc:format>
    <dc:creator>
     <cc:Agent>
      <dc:title>Matplotlib v3.6.2, https://matplotlib.org/</dc:title>
     </cc:Agent>
    </dc:creator>
   </cc:Work>
  </rdf:RDF>
 </metadata>
 <defs>
  <style type="text/css">*{stroke-linejoin: round; stroke-linecap: butt}</style>
 </defs>
 <g id="figure_1">
  <g id="axes_1">
   <g id="patch_1">
    <path d="M 40.600625 273.99006 
L 985.445625 273.99006 
L 985.445625 31.48286 
L 40.600625 31.48286 
z
" style="fill: #ffffff"/>
   </g>
   <g id="matplotlib.axis_1">
    <g id="xtick_1">
     <g id="text_1">
      <!-- 0 -->
      <g transform="translate(38.055625 287.06881) scale(0.08 -0.08)">
       <defs>
        <path id="DejaVuSans-30" d="M 2034 4250 
Q 1547 4250 1301 3770 
Q 1056 3291 1056 2328 
Q 1056 1369 1301 889 
Q 1547 409 2034 409 
Q 2525 409 2770 889 
Q 3016 1369 3016 2328 
Q 3016 3291 2770 3770 
Q 2525 4250 2034 4250 
z
M 2034 4750 
Q 2819 4750 3233 4129 
Q 3647 3509 3647 2328 
Q 3647 1150 3233 529 
Q 2819 -91 2034 -91 
Q 1250 -91 836 529 
Q 422 1150 422 2328 
Q 422 3509 836 4129 
Q 1250 4750 2034 4750 
z
" transform="scale(0.015625)"/>
       </defs>
       <use xlink:href="#DejaVuSans-30"/>
      </g>
     </g>
    </g>
    <g id="xtick_2">
     <g id="text_2">
      <!-- 20 -->
      <g transform="translate(224.479625 287.06881) scale(0.08 -0.08)">
       <defs>
        <path id="DejaVuSans-32" d="M 1228 531 
L 3431 531 
L 3431 0 
L 469 0 
L 469 531 
Q 828 903 1448 1529 
Q 2069 2156 2228 2338 
Q 2531 2678 2651 2914 
Q 2772 3150 2772 3378 
Q 2772 3750 2511 3984 
Q 2250 4219 1831 4219 
Q 1534 4219 1204 4116 
Q 875 4013 500 3803 
L 500 4441 
Q 881 4594 1212 4672 
Q 1544 4750 1819 4750 
Q 2544 4750 2975 4387 
Q 3406 4025 3406 3419 
Q 3406 3131 3298 2873 
Q 3191 2616 2906 2266 
Q 2828 2175 2409 1742 
Q 1991 1309 1228 531 
z
" transform="scale(0.015625)"/>
       </defs>
       <use xlink:href="#DejaVuSans-32"/>
       <use xlink:href="#DejaVuSans-30" x="63.623047"/>
      </g>
     </g>
    </g>
    <g id="xtick_3">
     <g id="text_3">
      <!-- 40 -->
      <g transform="translate(413.448625 287.06881) scale(0.08 -0.08)">
       <defs>
        <path id="DejaVuSans-34" d="M 2419 4116 
L 825 1625 
L 2419 1625 
L 2419 4116 
z
M 2253 4666 
L 3047 4666 
L 3047 1625 
L 3713 1625 
L 3713 1100 
L 3047 1100 
L 3047 0 
L 2419 0 
L 2419 1100 
L 313 1100 
L 313 1709 
L 2253 4666 
z
" transform="scale(0.015625)"/>
       </defs>
       <use xlink:href="#DejaVuSans-34"/>
       <use xlink:href="#DejaVuSans-30" x="63.623047"/>
      </g>
     </g>
    </g>
    <g id="xtick_4">
     <g id="text_4">
      <!-- 60 -->
      <g transform="translate(602.417625 287.06881) scale(0.08 -0.08)">
       <defs>
        <path id="DejaVuSans-36" d="M 2113 2584 
Q 1688 2584 1439 2293 
Q 1191 2003 1191 1497 
Q 1191 994 1439 701 
Q 1688 409 2113 409 
Q 2538 409 2786 701 
Q 3034 994 3034 1497 
Q 3034 2003 2786 2293 
Q 2538 2584 2113 2584 
z
M 3366 4563 
L 3366 3988 
Q 3128 4100 2886 4159 
Q 2644 4219 2406 4219 
Q 1781 4219 1451 3797 
Q 1122 3375 1075 2522 
Q 1259 2794 1537 2939 
Q 1816 3084 2150 3084 
Q 2853 3084 3261 2657 
Q 3669 2231 3669 1497 
Q 3669 778 3244 343 
Q 2819 -91 2113 -91 
Q 1303 -91 875 529 
Q 447 1150 447 2328 
Q 447 3434 972 4092 
Q 1497 4750 2381 4750 
Q 2619 4750 2861 4703 
Q 3103 4656 3366 4563 
z
" transform="scale(0.015625)"/>
       </defs>
       <use xlink:href="#DejaVuSans-36"/>
       <use xlink:href="#DejaVuSans-30" x="63.623047"/>
      </g>
     </g>
    </g>
    <g id="xtick_5">
     <g id="text_5">
      <!-- 80 -->
      <g transform="translate(791.386625 287.06881) scale(0.08 -0.08)">
       <defs>
        <path id="DejaVuSans-38" d="M 2034 2216 
Q 1584 2216 1326 1975 
Q 1069 1734 1069 1313 
Q 1069 891 1326 650 
Q 1584 409 2034 409 
Q 2484 409 2743 651 
Q 3003 894 3003 1313 
Q 3003 1734 2745 1975 
Q 2488 2216 2034 2216 
z
M 1403 2484 
Q 997 2584 770 2862 
Q 544 3141 544 3541 
Q 544 4100 942 4425 
Q 1341 4750 2034 4750 
Q 2731 4750 3128 4425 
Q 3525 4100 3525 3541 
Q 3525 3141 3298 2862 
Q 3072 2584 2669 2484 
Q 3125 2378 3379 2068 
Q 3634 1759 3634 1313 
Q 3634 634 3220 271 
Q 2806 -91 2034 -91 
Q 1263 -91 848 271 
Q 434 634 434 1313 
Q 434 1759 690 2068 
Q 947 2378 1403 2484 
z
M 1172 3481 
Q 1172 3119 1398 2916 
Q 1625 2713 2034 2713 
Q 2441 2713 2670 2916 
Q 2900 3119 2900 3481 
Q 2900 3844 2670 4047 
Q 2441 4250 2034 4250 
Q 1625 4250 1398 4047 
Q 1172 3844 1172 3481 
z
" transform="scale(0.015625)"/>
       </defs>
       <use xlink:href="#DejaVuSans-38"/>
       <use xlink:href="#DejaVuSans-30" x="63.623047"/>
      </g>
     </g>
    </g>
    <g id="xtick_6">
     <g id="text_6">
      <!-- 100 -->
      <g transform="translate(977.810625 287.06881) scale(0.08 -0.08)">
       <defs>
        <path id="DejaVuSans-31" d="M 794 531 
L 1825 531 
L 1825 4091 
L 703 3866 
L 703 4441 
L 1819 4666 
L 2450 4666 
L 2450 531 
L 3481 531 
L 3481 0 
L 794 0 
L 794 531 
z
" transform="scale(0.015625)"/>
       </defs>
       <use xlink:href="#DejaVuSans-31"/>
       <use xlink:href="#DejaVuSans-30" x="63.623047"/>
       <use xlink:href="#DejaVuSans-30" x="127.246094"/>
      </g>
     </g>
    </g>
    <g id="text_7">
     <!-- % GC -->
     <g transform="translate(499.317656 300.330997) scale(0.1 -0.1)">
      <defs>
       <path id="DejaVuSans-25" d="M 4653 2053 
Q 4381 2053 4226 1822 
Q 4072 1591 4072 1178 
Q 4072 772 4226 539 
Q 4381 306 4653 306 
Q 4919 306 5073 539 
Q 5228 772 5228 1178 
Q 5228 1588 5073 1820 
Q 4919 2053 4653 2053 
z
M 4653 2450 
Q 5147 2450 5437 2106 
Q 5728 1763 5728 1178 
Q 5728 594 5436 251 
Q 5144 -91 4653 -91 
Q 4153 -91 3862 251 
Q 3572 594 3572 1178 
Q 3572 1766 3864 2108 
Q 4156 2450 4653 2450 
z
M 1428 4353 
Q 1159 4353 1004 4120 
Q 850 3888 850 3481 
Q 850 3069 1003 2837 
Q 1156 2606 1428 2606 
Q 1700 2606 1854 2837 
Q 2009 3069 2009 3481 
Q 2009 3884 1853 4118 
Q 1697 4353 1428 4353 
z
M 4250 4750 
L 4750 4750 
L 1831 -91 
L 1331 -91 
L 4250 4750 
z
M 1428 4750 
Q 1922 4750 2215 4408 
Q 2509 4066 2509 3481 
Q 2509 2891 2217 2550 
Q 1925 2209 1428 2209 
Q 931 2209 642 2551 
Q 353 2894 353 3481 
Q 353 4063 643 4406 
Q 934 4750 1428 4750 
z
" transform="scale(0.015625)"/>
       <path id="DejaVuSans-20" transform="scale(0.015625)"/>
       <path id="DejaVuSans-47" d="M 3809 666 
L 3809 1919 
L 2778 1919 
L 2778 2438 
L 4434 2438 
L 4434 434 
Q 4069 175 3628 42 
Q 3188 -91 2688 -91 
Q 1594 -91 976 548 
Q 359 1188 359 2328 
Q 359 3472 976 4111 
Q 1594 4750 2688 4750 
Q 3144 4750 3555 4637 
Q 3966 4525 4313 4306 
L 4313 3634 
Q 3963 3931 3569 4081 
Q 3175 4231 2741 4231 
Q 1884 4231 1454 3753 
Q 1025 3275 1025 2328 
Q 1025 1384 1454 906 
Q 1884 428 2741 428 
Q 3075 428 3337 486 
Q 3600 544 3809 666 
z
" transform="scale(0.015625)"/>
       <path id="DejaVuSans-43" d="M 4122 4306 
L 4122 3641 
Q 3803 3938 3442 4084 
Q 3081 4231 2675 4231 
Q 1875 4231 1450 3742 
Q 1025 3253 1025 2328 
Q 1025 1406 1450 917 
Q 1875 428 2675 428 
Q 3081 428 3442 575 
Q 3803 722 4122 1019 
L 4122 359 
Q 3791 134 3420 21 
Q 3050 -91 2638 -91 
Q 1578 -91 968 557 
Q 359 1206 359 2328 
Q 359 3453 968 4101 
Q 1578 4750 2638 4750 
Q 3056 4750 3426 4639 
Q 3797 4528 4122 4306 
z
" transform="scale(0.015625)"/>
      </defs>
      <use xlink:href="#DejaVuSans-25"/>
      <use xlink:href="#DejaVuSans-20" x="95.019531"/>
      <use xlink:href="#DejaVuSans-47" x="126.806641"/>
      <use xlink:href="#DejaVuSans-43" x="204.296875"/>
     </g>
    </g>
   </g>
   <g id="matplotlib.axis_2">
    <g id="ytick_1">
     <g id="line2d_1">
      <path d="M 40.600625 273.99006 
L 985.445625 273.99006 
" clip-path="url(#p2a52a66f78)" style="fill: none; stroke: #dedede; stroke-linecap: square"/>
     </g>
     <g id="text_8">
      <!-- 0.0 -->
      <g transform="translate(20.878125 277.029435) scale(0.08 -0.08)">
       <defs>
        <path id="DejaVuSans-2e" d="M 684 794 
L 1344 794 
L 1344 0 
L 684 0 
L 684 794 
z
" transform="scale(0.015625)"/>
       </defs>
       <use xlink:href="#DejaVuSans-30"/>
       <use xlink:href="#DejaVuSans-2e" x="63.623047"/>
       <use xlink:href="#DejaVuSans-30" x="95.410156"/>
      </g>
     </g>
    </g>
    <g id="ytick_2">
     <g id="line2d_2">
      <path d="M 40.600625 239.284135 
L 985.445625 239.284135 
" clip-path="url(#p2a52a66f78)" style="fill: none; stroke: #dedede; stroke-linecap: square"/>
     </g>
     <g id="text_9">
      <!-- 0.5 -->
      <g transform="translate(20.878125 242.32351) scale(0.08 -0.08)">
       <defs>
        <path id="DejaVuSans-35" d="M 691 4666 
L 3169 4666 
L 3169 4134 
L 1269 4134 
L 1269 2991 
Q 1406 3038 1543 3061 
Q 1681 3084 1819 3084 
Q 2600 3084 3056 2656 
Q 3513 2228 3513 1497 
Q 3513 744 3044 326 
Q 2575 -91 1722 -91 
Q 1428 -91 1123 -41 
Q 819 9 494 109 
L 494 744 
Q 775 591 1075 516 
Q 1375 441 1709 441 
Q 2250 441 2565 725 
Q 2881 1009 2881 1497 
Q 2881 1984 2565 2268 
Q 2250 2553 1709 2553 
Q 1456 2553 1204 2497 
Q 953 2441 691 2322 
L 691 4666 
z
" transform="scale(0.015625)"/>
       </defs>
       <use xlink:href="#DejaVuSans-30"/>
       <use xlink:href="#DejaVuSans-2e" x="63.623047"/>
       <use xlink:href="#DejaVuSans-35" x="95.410156"/>
      </g>
     </g>
    </g>
    <g id="ytick_3">
     <g id="line2d_3">
      <path d="M 40.600625 204.578211 
L 985.445625 204.578211 
" clip-path="url(#p2a52a66f78)" style="fill: none; stroke: #dedede; stroke-linecap: square"/>
     </g>
     <g id="text_10">
      <!-- 1.0 -->
      <g transform="translate(20.878125 207.617586) scale(0.08 -0.08)">
       <use xlink:href="#DejaVuSans-31"/>
       <use xlink:href="#DejaVuSans-2e" x="63.623047"/>
       <use xlink:href="#DejaVuSans-30" x="95.410156"/>
      </g>
     </g>
    </g>
    <g id="ytick_4">
     <g id="line2d_4">
      <path d="M 40.600625 169.872286 
L 985.445625 169.872286 
" clip-path="url(#p2a52a66f78)" style="fill: none; stroke: #dedede; stroke-linecap: square"/>
     </g>
     <g id="text_11">
      <!-- 1.5 -->
      <g transform="translate(20.878125 172.911661) scale(0.08 -0.08)">
       <use xlink:href="#DejaVuSans-31"/>
       <use xlink:href="#DejaVuSans-2e" x="63.623047"/>
       <use xlink:href="#DejaVuSans-35" x="95.410156"/>
      </g>
     </g>
    </g>
    <g id="ytick_5">
     <g id="line2d_5">
      <path d="M 40.600625 135.166361 
L 985.445625 135.166361 
" clip-path="url(#p2a52a66f78)" style="fill: none; stroke: #dedede; stroke-linecap: square"/>
     </g>
     <g id="text_12">
      <!-- 2.0 -->
      <g transform="translate(20.878125 138.205736) scale(0.08 -0.08)">
       <use xlink:href="#DejaVuSans-32"/>
       <use xlink:href="#DejaVuSans-2e" x="63.623047"/>
       <use xlink:href="#DejaVuSans-30" x="95.410156"/>
      </g>
     </g>
    </g>
    <g id="ytick_6">
     <g id="line2d_6">
      <path d="M 40.600625 100.460437 
L 985.445625 100.460437 
" clip-path="url(#p2a52a66f78)" style="fill: none; stroke: #dedede; stroke-linecap: square"/>
     </g>
     <g id="text_13">
      <!-- 2.5 -->
      <g transform="translate(20.878125 103.499812) scale(0.08 -0.08)">
       <use xlink:href="#DejaVuSans-32"/>
       <use xlink:href="#DejaVuSans-2e" x="63.623047"/>
       <use xlink:href="#DejaVuSans-35" x="95.410156"/>
      </g>
     </g>
    </g>
    <g id="ytick_7">
     <g id="line2d_7">
      <path d="M 40.600625 65.754512 
L 985.445625 65.754512 
" clip-path="url(#p2a52a66f78)" style="fill: none; stroke: #dedede; stroke-linecap: square"/>
     </g>
     <g id="text_14">
      <!-- 3.0 -->
      <g transform="translate(20.878125 68.793887) scale(0.08 -0.08)">
       <defs>
        <path id="DejaVuSans-33" d="M 2597 2516 
Q 3050 2419 3304 2112 
Q 3559 1806 3559 1356 
Q 3559 666 3084 287 
Q 2609 -91 1734 -91 
Q 1441 -91 1130 -33 
Q 819 25 488 141 
L 488 750 
Q 750 597 1062 519 
Q 1375 441 1716 441 
Q 2309 441 2620 675 
Q 2931 909 2931 1356 
Q 2931 1769 2642 2001 
Q 2353 2234 1838 2234 
L 1294 2234 
L 1294 2753 
L 1863 2753 
Q 2328 2753 2575 2939 
Q 2822 3125 2822 3475 
Q 2822 3834 2567 4026 
Q 2313 4219 1838 4219 
Q 1578 4219 1281 4162 
Q 984 4106 628 3988 
L 628 4550 
Q 988 4650 1302 4700 
Q 1616 4750 1894 4750 
Q 2613 4750 3031 4423 
Q 3450 4097 3450 3541 
Q 3450 3153 3228 2886 
Q 3006 2619 2597 2516 
z
" transform="scale(0.015625)"/>
       </defs>
       <use xlink:href="#DejaVuSans-33"/>
       <use xlink:href="#DejaVuSans-2e" x="63.623047"/>
       <use xlink:href="#DejaVuSans-30" x="95.410156"/>
      </g>
     </g>
    </g>
    <g id="text_15">
     <!-- Percentage -->
     <g transform="translate(14.798438 180.859116) rotate(-90) scale(0.1 -0.1)">
      <defs>
       <path id="DejaVuSans-50" d="M 1259 4147 
L 1259 2394 
L 2053 2394 
Q 2494 2394 2734 2622 
Q 2975 2850 2975 3272 
Q 2975 3691 2734 3919 
Q 2494 4147 2053 4147 
L 1259 4147 
z
M 628 4666 
L 2053 4666 
Q 2838 4666 3239 4311 
Q 3641 3956 3641 3272 
Q 3641 2581 3239 2228 
Q 2838 1875 2053 1875 
L 1259 1875 
L 1259 0 
L 628 0 
L 628 4666 
z
" transform="scale(0.015625)"/>
       <path id="DejaVuSans-65" d="M 3597 1894 
L 3597 1613 
L 953 1613 
Q 991 1019 1311 708 
Q 1631 397 2203 397 
Q 2534 397 2845 478 
Q 3156 559 3463 722 
L 3463 178 
Q 3153 47 2828 -22 
Q 2503 -91 2169 -91 
Q 1331 -91 842 396 
Q 353 884 353 1716 
Q 353 2575 817 3079 
Q 1281 3584 2069 3584 
Q 2775 3584 3186 3129 
Q 3597 2675 3597 1894 
z
M 3022 2063 
Q 3016 2534 2758 2815 
Q 2500 3097 2075 3097 
Q 1594 3097 1305 2825 
Q 1016 2553 972 2059 
L 3022 2063 
z
" transform="scale(0.015625)"/>
       <path id="DejaVuSans-72" d="M 2631 2963 
Q 2534 3019 2420 3045 
Q 2306 3072 2169 3072 
Q 1681 3072 1420 2755 
Q 1159 2438 1159 1844 
L 1159 0 
L 581 0 
L 581 3500 
L 1159 3500 
L 1159 2956 
Q 1341 3275 1631 3429 
Q 1922 3584 2338 3584 
Q 2397 3584 2469 3576 
Q 2541 3569 2628 3553 
L 2631 2963 
z
" transform="scale(0.015625)"/>
       <path id="DejaVuSans-63" d="M 3122 3366 
L 3122 2828 
Q 2878 2963 2633 3030 
Q 2388 3097 2138 3097 
Q 1578 3097 1268 2742 
Q 959 2388 959 1747 
Q 959 1106 1268 751 
Q 1578 397 2138 397 
Q 2388 397 2633 464 
Q 2878 531 3122 666 
L 3122 134 
Q 2881 22 2623 -34 
Q 2366 -91 2075 -91 
Q 1284 -91 818 406 
Q 353 903 353 1747 
Q 353 2603 823 3093 
Q 1294 3584 2113 3584 
Q 2378 3584 2631 3529 
Q 2884 3475 3122 3366 
z
" transform="scale(0.015625)"/>
       <path id="DejaVuSans-6e" d="M 3513 2113 
L 3513 0 
L 2938 0 
L 2938 2094 
Q 2938 2591 2744 2837 
Q 2550 3084 2163 3084 
Q 1697 3084 1428 2787 
Q 1159 2491 1159 1978 
L 1159 0 
L 581 0 
L 581 3500 
L 1159 3500 
L 1159 2956 
Q 1366 3272 1645 3428 
Q 1925 3584 2291 3584 
Q 2894 3584 3203 3211 
Q 3513 2838 3513 2113 
z
" transform="scale(0.015625)"/>
       <path id="DejaVuSans-74" d="M 1172 4494 
L 1172 3500 
L 2356 3500 
L 2356 3053 
L 1172 3053 
L 1172 1153 
Q 1172 725 1289 603 
Q 1406 481 1766 481 
L 2356 481 
L 2356 0 
L 1766 0 
Q 1100 0 847 248 
Q 594 497 594 1153 
L 594 3053 
L 172 3053 
L 172 3500 
L 594 3500 
L 594 4494 
L 1172 4494 
z
" transform="scale(0.015625)"/>
       <path id="DejaVuSans-61" d="M 2194 1759 
Q 1497 1759 1228 1600 
Q 959 1441 959 1056 
Q 959 750 1161 570 
Q 1363 391 1709 391 
Q 2188 391 2477 730 
Q 2766 1069 2766 1631 
L 2766 1759 
L 2194 1759 
z
M 3341 1997 
L 3341 0 
L 2766 0 
L 2766 531 
Q 2569 213 2275 61 
Q 1981 -91 1556 -91 
Q 1019 -91 701 211 
Q 384 513 384 1019 
Q 384 1609 779 1909 
Q 1175 2209 1959 2209 
L 2766 2209 
L 2766 2266 
Q 2766 2663 2505 2880 
Q 2244 3097 1772 3097 
Q 1472 3097 1187 3025 
Q 903 2953 641 2809 
L 641 3341 
Q 956 3463 1253 3523 
Q 1550 3584 1831 3584 
Q 2591 3584 2966 3190 
Q 3341 2797 3341 1997 
z
" transform="scale(0.015625)"/>
       <path id="DejaVuSans-67" d="M 2906 1791 
Q 2906 2416 2648 2759 
Q 2391 3103 1925 3103 
Q 1463 3103 1205 2759 
Q 947 2416 947 1791 
Q 947 1169 1205 825 
Q 1463 481 1925 481 
Q 2391 481 2648 825 
Q 2906 1169 2906 1791 
z
M 3481 434 
Q 3481 -459 3084 -895 
Q 2688 -1331 1869 -1331 
Q 1566 -1331 1297 -1286 
Q 1028 -1241 775 -1147 
L 775 -588 
Q 1028 -725 1275 -790 
Q 1522 -856 1778 -856 
Q 2344 -856 2625 -561 
Q 2906 -266 2906 331 
L 2906 616 
Q 2728 306 2450 153 
Q 2172 0 1784 0 
Q 1141 0 747 490 
Q 353 981 353 1791 
Q 353 2603 747 3093 
Q 1141 3584 1784 3584 
Q 2172 3584 2450 3431 
Q 2728 3278 2906 2969 
L 2906 3500 
L 3481 3500 
L 3481 434 
z
" transform="scale(0.015625)"/>
      </defs>
      <use xlink:href="#DejaVuSans-50"/>
      <use xlink:href="#DejaVuSans-65" x="56.677734"/>
      <use xlink:href="#DejaVuSans-72" x="118.201172"/>
      <use xlink:href="#DejaVuSans-63" x="157.064453"/>
      <use xlink:href="#DejaVuSans-65" x="212.044922"/>
      <use xlink:href="#DejaVuSans-6e" x="273.568359"/>
      <use xlink:href="#DejaVuSans-74" x="336.947266"/>
      <use xlink:href="#DejaVuSans-61" x="376.15625"/>
      <use xlink:href="#DejaVuSans-67" x="437.435547"/>
      <use xlink:href="#DejaVuSans-65" x="500.912109"/>
     </g>
    </g>
   </g>
   <g id="line2d_8">
    <path d="M 40.600625 273.952555 
L 50.049075 273.964485 
L 59.497525 273.974855 
L 68.945975 273.969358 
L 78.394425 273.963433 
L 87.842875 273.965265 
L 97.291325 273.968774 
L 106.739775 273.971776 
L 116.188225 273.974154 
L 125.636675 273.971308 
L 135.085125 273.968189 
L 144.533575 273.963666 
L 153.982025 273.95314 
L 163.430475 273.935947 
L 172.878925 273.904174 
L 182.327375 273.866747 
L 191.775825 273.784759 
L 201.224275 273.594975 
L 210.672725 273.309909 
L 220.121175 272.891238 
L 229.569625 272.199781 
L 239.018075 269.813289 
L 248.466525 267.891003 
L 257.914975 267.094206 
L 267.363425 264.297971 
L 276.811875 260.564705 
L 286.260325 256.168325 
L 295.708775 249.783306 
L 305.157225 241.525865 
L 314.605675 232.024222 
L 324.054125 219.863652 
L 333.502575 207.359967 
L 342.951025 196.641803 
L 352.399475 184.237649 
L 361.847925 168.839638 
L 371.296375 155.641143 
L 380.744825 146.635481 
L 390.193275 137.352823 
L 399.641725 128.976435 
L 409.090175 120.644296 
L 418.538625 111.86873 
L 427.987075 104.764301 
L 437.435525 96.745181 
L 446.883975 89.169645 
L 456.332425 86.837343 
L 465.780875 88.227937 
L 475.229325 88.954052 
L 484.677775 86.285028 
L 494.126225 84.59237 
L 503.574675 83.390664 
L 513.023125 84.488589 
L 522.471575 79.599894 
L 531.920025 77.165604 
L 541.368475 82.462094 
L 550.816925 75.746941 
L 560.265375 68.001503 
L 569.713825 64.264807 
L 579.162275 69.906713 
L 588.610725 80.971696 
L 598.059175 70.508229 
L 607.507625 50.992589 
L 616.956075 75.542888 
L 626.404525 108.255658 
L 635.852975 123.580765 
L 645.301425 151.133653 
L 654.749875 174.081041 
L 664.198325 188.560267 
L 673.646775 198.711768 
L 683.095225 207.961794 
L 692.543675 218.99403 
L 701.992125 228.956253 
L 711.440575 234.465178 
L 720.889025 237.633614 
L 730.337475 239.435432 
L 739.785925 238.452282 
L 749.234375 237.246365 
L 758.682825 237.126132 
L 768.131275 228.929938 
L 777.579725 224.156641 
L 787.028175 236.777558 
L 796.476625 245.944895 
L 805.925075 241.104464 
L 815.373525 230.914445 
L 824.821975 235.031216 
L 834.270425 248.186242 
L 843.718875 253.20098 
L 853.167325 251.186999 
L 862.615775 250.641974 
L 872.064225 257.918994 
L 881.512675 266.830895 
L 890.961125 272.367928 
L 900.409575 273.586827 
L 909.858025 273.834973 
L 919.306475 273.903394 
L 928.754925 273.937663 
L 938.203375 273.969904 
L 947.651825 273.976883 
L 957.100275 273.977429 
L 966.548725 273.976649 
L 975.997175 273.982302 
L 985.445625 273.986629 
" clip-path="url(#p2a52a66f78)" style="fill: none; stroke: #d9534f; stroke-linecap: square"/>
   </g>
   <g id="line2d_9">
    <path d="M 40.600625 273.935522 
L 50.049075 273.956501 
L 59.497525 273.978223 
L 68.945975 273.978184 
L 78.394425 273.9758 
L 87.842875 273.970995 
L 97.291325 273.972323 
L 106.739775 273.978301 
L 116.188225 273.978379 
L 125.636675 273.97541 
L 135.085125 273.971464 
L 144.533575 273.964158 
L 153.982025 273.944742 
L 163.430475 273.926966 
L 172.878925 273.908019 
L 182.327375 273.855591 
L 191.775825 273.757024 
L 201.224275 273.612085 
L 210.672725 273.371626 
L 220.121175 272.901414 
L 229.569625 272.173553 
L 239.018075 271.066194 
L 248.466525 269.398728 
L 257.914975 266.656876 
L 267.363425 262.736835 
L 276.811875 258.693342 
L 286.260325 253.698407 
L 295.708775 246.16051 
L 305.157225 236.239125 
L 314.605675 226.326178 
L 324.054125 216.617474 
L 333.502575 205.43414 
L 342.951025 193.987884 
L 352.399475 182.174592 
L 361.847925 171.84804 
L 371.296375 161.490274 
L 380.744825 150.780356 
L 390.193275 141.059346 
L 399.641725 132.173437 
L 409.090175 124.226702 
L 418.538625 116.24676 
L 427.987075 107.472778 
L 437.435525 98.126188 
L 446.883975 92.437224 
L 456.332425 93.226733 
L 465.780875 94.166455 
L 475.229325 93.432812 
L 484.677775 93.498367 
L 494.126225 93.109531 
L 503.574675 94.192903 
L 513.023125 95.878223 
L 522.471575 94.620377 
L 531.920025 87.052867 
L 541.368475 82.535411 
L 550.816925 83.432042 
L 560.265375 83.284837 
L 569.713825 79.593574 
L 579.162275 75.957512 
L 588.610725 73.665011 
L 598.059175 60.363571 
L 607.507625 52.38277 
L 616.956075 61.008219 
L 626.404525 85.001879 
L 635.852975 120.485198 
L 645.301425 148.207235 
L 654.749875 170.656803 
L 664.198325 188.399127 
L 673.646775 198.093142 
L 683.095225 205.301624 
L 692.543675 214.738498 
L 701.992125 224.668948 
L 711.440575 230.718775 
L 720.889025 234.762932 
L 730.337475 237.75962 
L 739.785925 237.695081 
L 749.234375 233.937247 
L 758.682825 231.779097 
L 768.131275 227.208744 
L 777.579725 220.855131 
L 787.028175 230.103506 
L 796.476625 241.268009 
L 805.925075 240.602109 
L 815.373525 238.506584 
L 824.821975 240.491119 
L 834.270425 244.688459 
L 843.718875 248.553024 
L 853.167325 250.885687 
L 862.615775 251.695823 
L 872.064225 257.77706 
L 881.512675 265.895144 
L 890.961125 270.241876 
L 900.409575 272.179647 
L 909.858025 273.025296 
L 919.306475 273.342092 
L 928.754925 273.472146 
L 938.203375 273.531411 
L 947.651825 273.515316 
L 957.100275 273.36897 
L 966.548725 272.998222 
L 975.997175 271.84535 
L 985.445625 258.016308 
" clip-path="url(#p2a52a66f78)" style="fill: none; stroke: #d9534f; stroke-linecap: square"/>
   </g>
   <g id="line2d_10">
    <path d="M 40.600625 273.953921 
L 50.049075 273.965016 
L 59.497525 273.97413 
L 68.945975 273.970207 
L 78.394425 273.9668 
L 87.842875 273.96779 
L 97.291325 273.971238 
L 106.739775 273.972625 
L 116.188225 273.973338 
L 125.636675 273.971713 
L 135.085125 273.968781 
L 144.533575 273.964858 
L 153.982025 273.955823 
L 163.430475 273.939458 
L 172.878925 273.910016 
L 182.327375 273.87669 
L 191.775825 273.791535 
L 201.224275 273.590631 
L 210.672725 273.306197 
L 220.121175 272.888778 
L 229.569625 272.214941 
L 239.018075 269.882801 
L 248.466525 267.97343 
L 257.914975 267.152937 
L 267.363425 264.411264 
L 276.811875 260.712984 
L 286.260325 256.385525 
L 295.708775 250.096665 
L 305.157225 241.846048 
L 314.605675 232.370201 
L 324.054125 220.284198 
L 333.502575 207.744956 
L 342.951025 197.056082 
L 352.399475 184.830081 
L 361.847925 169.51164 
L 371.296375 156.416526 
L 380.744825 147.281025 
L 390.193275 137.912167 
L 399.641725 129.520482 
L 409.090175 120.943824 
L 418.538625 112.098662 
L 427.987075 105.217554 
L 437.435525 97.224308 
L 446.883975 89.606159 
L 456.332425 87.24541 
L 465.780875 88.576759 
L 475.229325 89.281703 
L 484.677775 86.559645 
L 494.126225 84.74494 
L 503.574675 83.52268 
L 513.023125 84.715379 
L 522.471575 79.812591 
L 531.920025 77.441539 
L 541.368475 82.657252 
L 550.816925 75.741789 
L 560.265375 67.977896 
L 569.713825 64.405626 
L 579.162275 70.03634 
L 588.610725 80.802207 
L 598.059175 70.346373 
L 607.507625 51.278455 
L 616.956075 75.578332 
L 626.404525 107.898758 
L 635.852975 123.312301 
L 645.301425 150.921214 
L 654.749875 173.830025 
L 664.198325 188.208145 
L 673.646775 198.391037 
L 683.095225 207.588354 
L 692.543675 218.629185 
L 701.992125 228.729734 
L 711.440575 234.208404 
L 720.889025 237.333298 
L 730.337475 239.118799 
L 739.785925 238.001945 
L 749.234375 236.783846 
L 758.682825 236.690528 
L 768.131275 228.365652 
L 777.579725 223.526663 
L 787.028175 236.232651 
L 796.476625 245.411186 
L 805.925075 240.450545 
L 815.373525 230.283939 
L 824.821975 234.549622 
L 834.270425 247.728109 
L 843.718875 252.659784 
L 853.167325 250.658361 
L 862.615775 250.245817 
L 872.064225 257.63148 
L 881.512675 266.65698 
L 890.961125 272.328707 
L 900.409575 273.590156 
L 909.858025 273.832547 
L 919.306475 273.904032 
L 928.754925 273.942588 
L 938.203375 273.968543 
L 947.651825 273.974408 
L 957.100275 273.977657 
L 966.548725 273.977419 
L 975.997175 273.982888 
L 985.445625 273.98689 
" clip-path="url(#p2a52a66f78)" style="fill: none; stroke: #d9534f; stroke-linecap: square"/>
   </g>
   <g id="line2d_11">
    <path d="M 40.600625 273.936213 
L 50.049075 273.957379 
L 59.497525 273.978147 
L 68.945975 273.978465 
L 78.394425 273.976519 
L 87.842875 273.971039 
L 97.291325 273.972429 
L 106.739775 273.977948 
L 116.188225 273.977948 
L 125.636675 273.974772 
L 135.085125 273.971158 
L 144.533575 273.964963 
L 153.982025 273.944632 
L 163.430475 273.925968 
L 172.878925 273.906192 
L 182.327375 273.852226 
L 191.775825 273.761886 
L 201.224275 273.624648 
L 210.672725 273.377055 
L 220.121175 272.908396 
L 229.569625 272.189882 
L 239.018075 271.095193 
L 248.466525 269.462989 
L 257.914975 266.786806 
L 267.363425 262.932305 
L 276.811875 258.88926 
L 286.260325 253.91545 
L 295.708775 246.438157 
L 305.157225 236.581195 
L 314.605675 226.641915 
L 324.054125 216.985648 
L 333.502575 205.947867 
L 342.951025 194.582359 
L 352.399475 182.568543 
L 361.847925 172.032181 
L 371.296375 161.932155 
L 380.744825 151.32634 
L 390.193275 141.396352 
L 399.641725 132.481195 
L 409.090175 124.587303 
L 418.538625 116.781209 
L 427.987075 108.024059 
L 437.435525 98.534178 
L 446.883975 92.791739 
L 456.332425 93.575339 
L 465.780875 94.594777 
L 475.229325 93.677513 
L 484.677775 93.752883 
L 494.126225 93.359514 
L 503.574675 94.440662 
L 513.023125 96.187033 
L 522.471575 94.784869 
L 531.920025 87.21104 
L 541.368475 82.616978 
L 550.816925 83.35364 
L 560.265375 83.166725 
L 569.713825 79.694632 
L 579.162275 76.28548 
L 588.610725 73.896043 
L 598.059175 60.385593 
L 607.507625 52.251058 
L 616.956075 60.838487 
L 626.404525 84.97961 
L 635.852975 120.37001 
L 645.301425 148.117247 
L 654.749875 170.698676 
L 664.198325 188.210475 
L 673.646775 197.760478 
L 683.095225 205.054827 
L 692.543675 214.62385 
L 701.992125 224.543276 
L 711.440575 230.505589 
L 720.889025 234.482079 
L 730.337475 237.47372 
L 739.785925 237.423725 
L 749.234375 233.446877 
L 758.682825 231.147821 
L 768.131275 226.535373 
L 777.579725 220.090859 
L 787.028175 229.397161 
L 796.476625 240.614273 
L 805.925075 239.967594 
L 815.373525 237.886466 
L 824.821975 239.941067 
L 834.270425 244.302269 
L 843.718875 248.194058 
L 853.167325 250.40599 
L 862.615775 251.000729 
L 872.064225 257.111717 
L 881.512675 265.677583 
L 890.961125 270.336413 
L 900.409575 272.330495 
L 909.858025 273.162859 
L 919.306475 273.456277 
L 928.754925 273.575288 
L 938.203375 273.62028 
L 947.651825 273.585493 
L 957.100275 273.422086 
L 966.548725 273.027964 
L 975.997175 271.785395 
L 985.445625 257.630648 
" clip-path="url(#p2a52a66f78)" style="fill: none; stroke: #d9534f; stroke-linecap: square"/>
   </g>
   <g id="line2d_12">
    <path d="M 40.600625 273.95343 
L 50.049075 273.964794 
L 59.497525 273.97522 
L 68.945975 273.969704 
L 78.394425 273.965235 
L 87.842875 273.968711 
L 97.291325 273.973234 
L 106.739775 273.973896 
L 116.188225 273.974503 
L 125.636675 273.971138 
L 135.085125 273.967001 
L 144.533575 273.964353 
L 153.982025 273.954643 
L 163.430475 273.93699 
L 172.878925 273.909132 
L 182.327375 273.876198 
L 191.775825 273.784015 
L 201.224275 273.590493 
L 210.672725 273.317201 
L 220.121175 272.926958 
L 229.569625 272.310092 
L 239.018075 270.023079 
L 248.466525 268.228477 
L 257.914975 267.53653 
L 267.363425 264.898993 
L 276.811875 261.436504 
L 286.260325 257.30877 
L 295.708775 251.357857 
L 305.157225 243.860974 
L 314.605675 235.130637 
L 324.054125 223.601788 
L 333.502575 211.393626 
L 342.951025 200.758796 
L 352.399475 188.417849 
L 361.847925 173.133967 
L 371.296375 160.060031 
L 380.744825 150.137227 
L 390.193275 140.416772 
L 399.641725 132.525674 
L 409.090175 124.372482 
L 418.538625 115.865346 
L 427.987075 108.583335 
L 437.435525 99.464464 
L 446.883975 91.178047 
L 456.332425 88.242062 
L 465.780875 89.402256 
L 475.229325 90.703013 
L 484.677775 87.674956 
L 494.126225 85.920128 
L 503.574675 83.345701 
L 513.023125 82.968145 
L 522.471575 77.293669 
L 531.920025 74.777661 
L 541.368475 82.116935 
L 550.816925 73.471333 
L 560.265375 64.055504 
L 569.713825 55.676353 
L 579.162275 56.718051 
L 588.610725 71.58019 
L 598.059175 67.957113 
L 607.507625 44.137188 
L 616.956075 65.309921 
L 626.404525 105.064136 
L 635.852975 121.463252 
L 645.301425 147.668166 
L 654.749875 171.307092 
L 664.198325 187.560571 
L 673.646775 198.904504 
L 683.095225 208.833045 
L 692.543675 219.309107 
L 701.992125 228.391348 
L 711.440575 233.201099 
L 720.889025 235.815963 
L 730.337475 237.693314 
L 739.785925 237.911937 
L 749.234375 238.709691 
L 758.682825 238.860625 
L 768.131275 231.265272 
L 777.579725 227.052857 
L 787.028175 238.230796 
L 796.476625 246.86189 
L 805.925075 243.778336 
L 815.373525 236.708548 
L 824.821975 239.658876 
L 834.270425 249.007458 
L 843.718875 252.129242 
L 853.167325 248.281143 
L 862.615775 246.797235 
L 872.064225 255.019108 
L 881.512675 265.271032 
L 890.961125 271.764115 
L 900.409575 273.40999 
L 909.858025 273.845194 
L 919.306475 273.932301 
L 928.754925 273.95696 
L 938.203375 273.97329 
L 947.651825 273.978585 
L 957.100275 273.979689 
L 966.548725 273.978972 
L 975.997175 273.982557 
L 985.445625 273.985481 
" clip-path="url(#p2a52a66f78)" style="fill: none; stroke: #d9534f; stroke-linecap: square"/>
   </g>
   <g id="line2d_13">
    <path d="M 40.600625 273.947489 
L 50.049075 273.96402 
L 59.497525 273.979113 
L 68.945975 273.977178 
L 78.394425 273.974635 
L 87.842875 273.968774 
L 97.291325 273.970765 
L 106.739775 273.978284 
L 116.188225 273.977731 
L 125.636675 273.973584 
L 135.085125 273.970046 
L 144.533575 273.963909 
L 153.982025 273.944282 
L 163.430475 273.924158 
L 172.878925 273.900218 
L 182.327375 273.842498 
L 191.775825 273.751329 
L 201.224275 273.608356 
L 210.672725 273.352653 
L 220.121175 272.903443 
L 229.569625 272.235075 
L 239.018075 271.210103 
L 248.466525 269.639667 
L 257.914975 267.051612 
L 267.363425 263.680524 
L 276.811875 259.973454 
L 286.260325 255.034361 
L 295.708775 248.045768 
L 305.157225 238.916063 
L 314.605675 229.364682 
L 324.054125 219.754585 
L 333.502575 208.802555 
L 342.951025 197.152688 
L 352.399475 184.480891 
L 361.847925 173.793908 
L 371.296375 163.513563 
L 380.744825 152.603054 
L 390.193275 142.849763 
L 399.641725 134.158984 
L 409.090175 126.616965 
L 418.538625 118.767438 
L 427.987075 109.561492 
L 437.435525 99.043467 
L 446.883975 92.31113 
L 456.332425 93.434513 
L 465.780875 95.449902 
L 475.229325 95.262478 
L 484.677775 95.105683 
L 494.126225 94.100007 
L 503.574675 94.379926 
L 513.023125 95.383281 
L 522.471575 94.037532 
L 531.920025 87.644605 
L 541.368475 83.763767 
L 550.816925 82.894982 
L 560.265375 81.56781 
L 569.713825 78.177979 
L 579.162275 72.077687 
L 588.610725 68.788644 
L 598.059175 59.103523 
L 607.507625 43.030671 
L 616.956075 45.266379 
L 626.404525 75.690602 
L 635.852975 115.35035 
L 645.301425 144.287178 
L 654.749875 168.170746 
L 664.198325 187.534022 
L 673.646775 196.872935 
L 683.095225 204.729373 
L 692.543675 215.109843 
L 701.992125 225.246274 
L 711.440575 231.389525 
L 720.889025 235.658922 
L 730.337475 239.145948 
L 739.785925 239.016907 
L 749.234375 234.588725 
L 758.682825 233.483034 
L 768.131275 230.80652 
L 777.579725 225.600611 
L 787.028175 233.95657 
L 796.476625 244.045233 
L 805.925075 244.14171 
L 815.373525 241.903569 
L 824.821975 242.527265 
L 834.270425 245.260006 
L 843.718875 247.602641 
L 853.167325 248.085133 
L 862.615775 247.961842 
L 872.064225 254.051519 
L 881.512675 262.565876 
L 890.961125 268.165541 
L 900.409575 271.48748 
L 909.858025 272.963098 
L 919.306475 273.487443 
L 928.754925 273.610236 
L 938.203375 273.64186 
L 947.651825 273.592102 
L 957.100275 273.401029 
L 966.548725 272.963098 
L 975.997175 271.714489 
L 985.445625 257.098237 
" clip-path="url(#p2a52a66f78)" style="fill: none; stroke: #d9534f; stroke-linecap: square"/>
   </g>
   <g id="line2d_14">
    <path d="M 40.600625 273.95717 
L 50.049075 273.966679 
L 59.497525 273.976076 
L 68.945975 273.97065 
L 78.394425 273.964777 
L 87.842875 273.966455 
L 97.291325 273.968972 
L 106.739775 273.971434 
L 116.188225 273.974063 
L 125.636675 273.971266 
L 135.085125 273.96735 
L 144.533575 273.963659 
L 153.982025 273.95387 
L 163.430475 273.937089 
L 172.878925 273.907611 
L 182.327375 273.873435 
L 191.775825 273.78942 
L 201.224275 273.608581 
L 210.672725 273.337128 
L 220.121175 272.94133 
L 229.569625 272.336054 
L 239.018075 270.104293 
L 248.466525 268.32723 
L 257.914975 267.620879 
L 267.363425 265.011107 
L 276.811875 261.567341 
L 286.260325 257.505489 
L 295.708775 251.654717 
L 305.157225 244.140876 
L 314.605675 235.387902 
L 324.054125 223.989246 
L 333.502575 211.863934 
L 342.951025 201.16693 
L 352.399475 188.792259 
L 361.847925 173.744385 
L 371.296375 160.628349 
L 380.744825 150.592499 
L 390.193275 140.972136 
L 399.641725 133.062498 
L 409.090175 125.033326 
L 418.538625 116.464547 
L 427.987075 108.969109 
L 437.435525 99.748237 
L 446.883975 91.240762 
L 456.332425 88.269761 
L 465.780875 89.366931 
L 475.229325 90.491789 
L 484.677775 87.541539 
L 494.126225 85.780082 
L 503.574675 83.226469 
L 513.023125 83.09228 
L 522.471575 77.497132 
L 531.920025 74.691251 
L 541.368475 82.08304 
L 550.816925 73.69152 
L 560.265375 64.33713 
L 569.713825 56.081755 
L 579.162275 57.073767 
L 588.610725 71.736806 
L 598.059175 67.949988 
L 607.507625 44.660893 
L 616.956075 65.782888 
L 626.404525 104.963529 
L 635.852975 121.327839 
L 645.301425 147.637774 
L 654.749875 171.311984 
L 664.198325 187.386046 
L 673.646775 198.708407 
L 683.095225 208.546246 
L 692.543675 219.053014 
L 701.992125 228.170239 
L 711.440575 232.941909 
L 720.889025 235.44132 
L 730.337475 237.287184 
L 739.785925 237.639129 
L 749.234375 238.369755 
L 758.682825 238.444596 
L 768.131275 230.771117 
L 777.579725 226.524232 
L 787.028175 237.705356 
L 796.476625 246.282134 
L 805.925075 243.250275 
L 815.373525 236.171499 
L 824.821975 239.156205 
L 834.270425 248.53062 
L 843.718875 251.534847 
L 853.167325 247.634929 
L 862.615775 246.245776 
L 872.064225 254.681206 
L 881.512675 265.114923 
L 890.961125 271.711201 
L 900.409575 273.409732 
L 909.858025 273.844125 
L 919.306475 273.932111 
L 928.754925 273.957506 
L 938.203375 273.971713 
L 947.651825 273.977419 
L 957.100275 273.980159 
L 966.548725 273.980383 
L 975.997175 273.9829 
L 985.445625 273.985641 
" clip-path="url(#p2a52a66f78)" style="fill: none; stroke: #d9534f; stroke-linecap: square"/>
   </g>
   <g id="line2d_15">
    <path d="M 40.600625 273.945884 
L 50.049075 273.963375 
L 59.497525 273.980922 
L 68.945975 273.980361 
L 78.394425 273.976549 
L 87.842875 273.968364 
L 97.291325 273.971616 
L 106.739775 273.97924 
L 116.188225 273.977727 
L 125.636675 273.975204 
L 135.085125 273.973466 
L 144.533575 273.96786 
L 153.982025 273.947285 
L 163.430475 273.927664 
L 172.878925 273.90182 
L 182.327375 273.848113 
L 191.775825 273.760097 
L 201.224275 273.616413 
L 210.672725 273.362456 
L 220.121175 272.921143 
L 229.569625 272.231872 
L 239.018075 271.195582 
L 248.466525 269.703797 
L 257.914975 267.194446 
L 267.363425 263.778082 
L 276.811875 260.054392 
L 286.260325 255.20079 
L 295.708775 248.269004 
L 305.157225 239.205606 
L 314.605675 229.749052 
L 324.054125 220.188784 
L 333.502575 209.189485 
L 342.951025 197.636246 
L 352.399475 185.057649 
L 361.847925 174.164248 
L 371.296375 163.787059 
L 380.744825 152.942936 
L 390.193275 143.233659 
L 399.641725 134.649415 
L 409.090175 126.990292 
L 418.538625 119.015657 
L 427.987075 109.837334 
L 437.435525 99.587515 
L 446.883975 92.878179 
L 456.332425 93.708163 
L 465.780875 95.600786 
L 475.229325 95.373682 
L 484.677775 95.280228 
L 494.126225 94.091733 
L 503.574675 94.300953 
L 513.023125 95.298168 
L 522.471575 93.977088 
L 531.920025 87.512122 
L 541.368475 83.495625 
L 550.816925 82.649999 
L 560.265375 81.480565 
L 569.713825 78.270675 
L 579.162275 72.330441 
L 588.610725 68.998225 
L 598.059175 59.22173 
L 607.507625 43.381274 
L 616.956075 45.614524 
L 626.404525 76.063998 
L 635.852975 115.747743 
L 645.301425 144.402364 
L 654.749875 168.04176 
L 664.198325 187.387716 
L 673.646775 196.83474 
L 683.095225 204.680435 
L 692.543675 214.961479 
L 701.992125 225.167346 
L 711.440575 231.459027 
L 720.889025 235.599756 
L 730.337475 238.970598 
L 739.785925 238.850403 
L 749.234375 234.174739 
L 758.682825 232.928052 
L 768.131275 230.309999 
L 777.579725 225.118685 
L 787.028175 233.510583 
L 796.476625 243.606739 
L 805.925075 243.656801 
L 815.373525 241.421421 
L 824.821975 242.043475 
L 834.270425 244.720504 
L 843.718875 247.107025 
L 853.167325 247.461163 
L 862.615775 247.037229 
L 872.064225 253.21875 
L 881.512675 262.120075 
L 890.961125 268.045734 
L 900.409575 271.54574 
L 909.858025 273.062305 
L 919.306475 273.562987 
L 928.754925 273.665747 
L 938.203375 273.676959 
L 947.651825 273.613554 
L 957.100275 273.428776 
L 966.548725 272.993742 
L 975.997175 271.65719 
L 985.445625 256.683158 
" clip-path="url(#p2a52a66f78)" style="fill: none; stroke: #d9534f; stroke-linecap: square"/>
   </g>
   <g id="line2d_16">
    <path d="M 40.600625 273.942557 
L 50.049075 273.955762 
L 59.497525 273.968624 
L 68.945975 273.964251 
L 78.394425 273.961164 
L 87.842875 273.964336 
L 97.291325 273.968023 
L 106.739775 273.971024 
L 116.188225 273.968109 
L 125.636675 273.960821 
L 135.085125 273.956619 
L 144.533575 273.950188 
L 153.982025 273.929438 
L 163.430475 273.885364 
L 172.878925 273.823284 
L 182.327375 273.736424 
L 191.775825 273.504053 
L 201.224275 272.938131 
L 210.672725 272.403249 
L 220.121175 271.600583 
L 229.569625 270.11761 
L 239.018075 266.394872 
L 248.466525 263.139963 
L 257.914975 261.335615 
L 267.363425 256.759021 
L 276.811875 250.974526 
L 286.260325 244.765504 
L 295.708775 236.476032 
L 305.157225 226.38187 
L 314.605675 215.766202 
L 324.054125 203.690712 
L 333.502575 191.442445 
L 342.951025 181.460523 
L 352.399475 170.985993 
L 361.847925 158.198041 
L 371.296375 148.354857 
L 380.744825 142.657394 
L 390.193275 135.29149 
L 399.641725 127.70239 
L 409.090175 120.800456 
L 418.538625 113.363126 
L 427.987075 107.045379 
L 437.435525 99.482345 
L 446.883975 92.661613 
L 456.332425 92.594045 
L 465.780875 95.343312 
L 475.229325 95.265969 
L 484.677775 92.651066 
L 494.126225 92.039785 
L 503.574675 91.620574 
L 513.023125 91.78229 
L 522.471575 84.316064 
L 531.920025 81.282636 
L 541.368475 87.336458 
L 550.816925 75.831864 
L 560.265375 67.538277 
L 569.713825 70.086898 
L 579.162275 73.9055 
L 588.610725 83.345165 
L 598.059175 79.433529 
L 607.507625 62.720737 
L 616.956075 82.02185 
L 626.404525 106.997704 
L 635.852975 123.336044 
L 645.301425 152.663324 
L 654.749875 172.907984 
L 664.198325 187.663972 
L 673.646775 199.250368 
L 683.095225 209.522881 
L 692.543675 219.842298 
L 701.992125 230.137363 
L 711.440575 235.691116 
L 720.889025 239.180882 
L 730.337475 240.559931 
L 739.785925 240.117483 
L 749.234375 239.869764 
L 758.682825 239.047976 
L 768.131275 229.337698 
L 777.579725 226.143411 
L 787.028175 239.786162 
L 796.476625 246.57654 
L 805.925075 241.890706 
L 815.373525 235.049652 
L 824.821975 242.374569 
L 834.270425 254.56753 
L 843.718875 259.234072 
L 853.167325 260.069836 
L 862.615775 258.972204 
L 872.064225 262.713121 
L 881.512675 268.727414 
L 890.961125 272.614355 
L 900.409575 273.683433 
L 909.858025 273.838547 
L 919.306475 273.900456 
L 928.754925 273.944015 
L 938.203375 273.971282 
L 947.651825 273.979685 
L 957.100275 273.982171 
L 966.548725 273.979771 
L 975.997175 273.982514 
L 985.445625 273.986887 
" clip-path="url(#p2a52a66f78)" style="fill: none; stroke: #d9534f; stroke-linecap: square"/>
   </g>
   <g id="line2d_17">
    <path d="M 40.600625 273.947908 
L 50.049075 273.960554 
L 59.497525 273.97621 
L 68.945975 273.9775 
L 78.394425 273.972425 
L 87.842875 273.967436 
L 97.291325 273.970533 
L 106.739775 273.976726 
L 116.188225 273.974404 
L 125.636675 273.968812 
L 135.085125 273.966833 
L 144.533575 273.957199 
L 153.982025 273.910143 
L 163.430475 273.880809 
L 172.878925 273.854744 
L 182.327375 273.767773 
L 191.775825 273.637791 
L 201.224275 273.40845 
L 210.672725 272.965856 
L 220.121175 272.158174 
L 229.569625 270.830218 
L 239.018075 268.788949 
L 248.466525 265.792812 
L 257.914975 261.08049 
L 267.363425 254.715472 
L 276.811875 248.788059 
L 286.260325 242.728254 
L 295.708775 234.410572 
L 305.157225 223.408675 
L 314.605675 213.250763 
L 324.054125 204.907617 
L 333.502575 195.390929 
L 342.951025 185.885166 
L 352.399475 175.925711 
L 361.847925 167.758743 
L 371.296375 159.50773 
L 380.744825 150.0904 
L 390.193275 141.702608 
L 399.641725 133.943222 
L 409.090175 126.593915 
L 418.538625 119.417258 
L 427.987075 111.753531 
L 437.435525 102.117958 
L 446.883975 96.425305 
L 456.332425 98.147768 
L 465.780875 99.796422 
L 475.229325 99.978019 
L 484.677775 99.764421 
L 494.126225 97.913266 
L 503.574675 98.067335 
L 513.023125 100.271448 
L 522.471575 99.478218 
L 531.920025 93.731456 
L 541.368475 88.918315 
L 550.816925 88.740072 
L 560.265375 90.187 
L 569.713825 86.986899 
L 579.162275 81.882307 
L 588.610725 79.06596 
L 598.059175 73.187408 
L 607.507625 58.996766 
L 616.956075 56.727189 
L 626.404525 77.614903 
L 635.852975 109.739102 
L 645.301425 141.762738 
L 654.749875 167.787992 
L 664.198325 185.993385 
L 673.646775 194.202849 
L 683.095225 201.08341 
L 692.543675 212.517406 
L 701.992125 223.435085 
L 711.440575 228.891343 
L 720.889025 232.162157 
L 730.337475 236.021891 
L 739.785925 238.763312 
L 749.234375 236.981492 
L 758.682825 234.363602 
L 768.131275 227.094211 
L 777.579725 219.401839 
L 787.028175 230.665765 
L 796.476625 243.514085 
L 805.925075 244.036941 
L 815.373525 243.780072 
L 824.821975 245.555354 
L 834.270425 249.858716 
L 843.718875 255.274974 
L 853.167325 258.078331 
L 862.615775 259.458762 
L 872.064225 264.059767 
L 881.512675 268.972353 
L 890.961125 271.693385 
L 900.409575 273.057299 
L 909.858025 273.504883 
L 919.306475 273.607854 
L 928.754925 273.61921 
L 938.203375 273.593316 
L 947.651825 273.49456 
L 957.100275 273.219111 
L 966.548725 272.60593 
L 975.997175 270.862821 
L 985.445625 249.226008 
" clip-path="url(#p2a52a66f78)" style="fill: none; stroke: #d9534f; stroke-linecap: square"/>
   </g>
   <g id="line2d_18">
    <path d="M 40.600625 273.949387 
L 50.049075 273.958678 
L 59.497525 273.968496 
L 68.945975 273.967619 
L 78.394425 273.965691 
L 87.842875 273.966743 
L 97.291325 273.966217 
L 106.739775 273.965954 
L 116.188225 273.966918 
L 125.636675 273.963149 
L 135.085125 273.958065 
L 144.533575 273.949211 
L 153.982025 273.928787 
L 163.430475 273.886623 
L 172.878925 273.824736 
L 182.327375 273.733835 
L 191.775825 273.50978 
L 201.224275 272.957795 
L 210.672725 272.41931 
L 220.121175 271.61224 
L 229.569625 270.10846 
L 239.018075 266.430053 
L 248.466525 263.197739 
L 257.914975 261.391188 
L 267.363425 256.927625 
L 276.811875 251.231497 
L 286.260325 245.042029 
L 295.708775 236.635417 
L 305.157225 226.511666 
L 314.605675 216.121171 
L 324.054125 204.044568 
L 333.502575 191.804919 
L 342.951025 181.996213 
L 352.399475 171.576001 
L 361.847925 158.772359 
L 371.296375 148.980571 
L 380.744825 143.0319 
L 390.193275 135.540617 
L 399.641725 128.37253 
L 409.090175 121.361791 
L 418.538625 113.731569 
L 427.987075 107.448657 
L 437.435525 99.786791 
L 446.883975 93.045776 
L 456.332425 93.005979 
L 465.780875 95.500473 
L 475.229325 95.513271 
L 484.677775 92.931469 
L 494.126225 91.964422 
L 503.574675 91.552691 
L 513.023125 91.755796 
L 522.471575 84.584466 
L 531.920025 81.705678 
L 541.368475 87.715359 
L 550.816925 76.195649 
L 560.265375 67.629587 
L 569.713825 70.058074 
L 579.162275 74.018391 
L 588.610725 83.447186 
L 598.059175 79.380891 
L 607.507625 62.797596 
L 616.956075 82.127139 
L 626.404525 106.913152 
L 635.852975 123.158173 
L 645.301425 152.42046 
L 654.749875 172.546379 
L 664.198325 187.229942 
L 673.646775 198.658663 
L 683.095225 209.042759 
L 692.543675 219.617512 
L 701.992125 229.836986 
L 711.440575 235.461584 
L 720.889025 239.121233 
L 730.337475 240.275167 
L 739.785925 239.681983 
L 749.234375 239.598883 
L 758.682825 238.777612 
L 768.131275 228.775531 
L 777.579725 225.494917 
L 787.028175 239.189957 
L 796.476625 245.938598 
L 805.925075 241.281398 
L 815.373525 234.458071 
L 824.821975 241.872303 
L 834.270425 254.144472 
L 843.718875 258.792907 
L 853.167325 259.700171 
L 862.615775 258.65204 
L 872.064225 262.405746 
L 881.512675 268.551385 
L 890.961125 272.568943 
L 900.409575 273.687902 
L 909.858025 273.841567 
L 919.306475 273.896003 
L 928.754925 273.943513 
L 938.203375 273.970863 
L 947.651825 273.977613 
L 957.100275 273.981732 
L 966.548725 273.981207 
L 975.997175 273.983047 
L 985.445625 273.986291 
" clip-path="url(#p2a52a66f78)" style="fill: none; stroke: #d9534f; stroke-linecap: square"/>
   </g>
   <g id="line2d_19">
    <path d="M 40.600625 273.948021 
L 50.049075 273.961125 
L 59.497525 273.975373 
L 68.945975 273.976076 
L 78.394425 273.972558 
L 87.842875 273.968601 
L 97.291325 273.97291 
L 106.739775 273.977923 
L 116.188225 273.974933 
L 125.636675 273.970184 
L 135.085125 273.964379 
L 144.533575 273.955497 
L 153.982025 273.911787 
L 163.430475 273.876344 
L 172.878925 273.854181 
L 182.327375 273.785758 
L 191.775825 273.6614 
L 201.224275 273.420599 
L 210.672725 272.988864 
L 220.121175 272.175788 
L 229.569625 270.859739 
L 239.018075 268.804227 
L 248.466525 265.759127 
L 257.914975 261.153748 
L 267.363425 254.836381 
L 276.811875 248.898243 
L 286.260325 242.954037 
L 295.708775 234.581949 
L 305.157225 223.619802 
L 314.605675 213.582864 
L 324.054125 205.298195 
L 333.502575 195.848572 
L 342.951025 186.32217 
L 352.399475 176.438261 
L 361.847925 168.052628 
L 371.296375 159.752129 
L 380.744825 150.59458 
L 390.193275 142.172009 
L 399.641725 134.400427 
L 409.090175 127.208859 
L 418.538625 119.879918 
L 427.987075 111.749421 
L 437.435525 102.139733 
L 446.883975 96.616357 
L 456.332425 98.432036 
L 465.780875 100.149214 
L 475.229325 100.061882 
L 484.677775 99.764531 
L 494.126225 98.067581 
L 503.574675 98.24717 
L 513.023125 100.202246 
L 522.471575 99.622232 
L 531.920025 94.36903 
L 541.368475 89.394096 
L 550.816925 88.906778 
L 560.265375 90.10313 
L 569.713825 87.154509 
L 579.162275 82.318883 
L 588.610725 79.161386 
L 598.059175 73.350509 
L 607.507625 59.092436 
L 616.956075 56.559544 
L 626.404525 77.544029 
L 635.852975 109.757407 
L 645.301425 141.69375 
L 654.749875 167.647278 
L 664.198325 185.800376 
L 673.646775 194.134736 
L 683.095225 201.146362 
L 692.543675 212.312636 
L 701.992125 223.169773 
L 711.440575 228.752866 
L 720.889025 231.895324 
L 730.337475 235.700379 
L 739.785925 238.520156 
L 749.234375 236.62893 
L 758.682825 233.936853 
L 768.131275 226.65593 
L 777.579725 218.822873 
L 787.028175 230.065837 
L 796.476625 243.050252 
L 805.925075 243.451557 
L 815.373525 243.079275 
L 824.821975 244.977009 
L 834.270425 249.389519 
L 843.718875 254.802609 
L 853.167325 257.597321 
L 862.615775 258.920933 
L 872.064225 263.621648 
L 881.512675 268.783999 
L 890.961125 271.653203 
L 900.409575 273.090619 
L 909.858025 273.54311 
L 919.306475 273.641084 
L 928.754925 273.644162 
L 938.203375 273.610918 
L 947.651825 273.527719 
L 957.100275 273.274342 
L 966.548725 272.678585 
L 975.997175 270.783137 
L 985.445625 248.731758 
" clip-path="url(#p2a52a66f78)" style="fill: none; stroke: #d9534f; stroke-linecap: square"/>
   </g>
   <g id="line2d_20">
    <path d="M 40.600625 273.99006 
L 985.445625 273.99006 
" clip-path="url(#p2a52a66f78)" style="fill: none; stroke: #dedede; stroke-width: 2; stroke-linecap: square"/>
   </g>
   <g id="text_16">
    <!-- FastQC: Per Sequence GC Content -->
    <g transform="translate(376.386875 19.3575) scale(0.16 -0.16)">
     <defs>
      <path id="DejaVuSans-46" d="M 628 4666 
L 3309 4666 
L 3309 4134 
L 1259 4134 
L 1259 2759 
L 3109 2759 
L 3109 2228 
L 1259 2228 
L 1259 0 
L 628 0 
L 628 4666 
z
" transform="scale(0.015625)"/>
      <path id="DejaVuSans-73" d="M 2834 3397 
L 2834 2853 
Q 2591 2978 2328 3040 
Q 2066 3103 1784 3103 
Q 1356 3103 1142 2972 
Q 928 2841 928 2578 
Q 928 2378 1081 2264 
Q 1234 2150 1697 2047 
L 1894 2003 
Q 2506 1872 2764 1633 
Q 3022 1394 3022 966 
Q 3022 478 2636 193 
Q 2250 -91 1575 -91 
Q 1294 -91 989 -36 
Q 684 19 347 128 
L 347 722 
Q 666 556 975 473 
Q 1284 391 1588 391 
Q 1994 391 2212 530 
Q 2431 669 2431 922 
Q 2431 1156 2273 1281 
Q 2116 1406 1581 1522 
L 1381 1569 
Q 847 1681 609 1914 
Q 372 2147 372 2553 
Q 372 3047 722 3315 
Q 1072 3584 1716 3584 
Q 2034 3584 2315 3537 
Q 2597 3491 2834 3397 
z
" transform="scale(0.015625)"/>
      <path id="DejaVuSans-51" d="M 2522 4238 
Q 1834 4238 1429 3725 
Q 1025 3213 1025 2328 
Q 1025 1447 1429 934 
Q 1834 422 2522 422 
Q 3209 422 3611 934 
Q 4013 1447 4013 2328 
Q 4013 3213 3611 3725 
Q 3209 4238 2522 4238 
z
M 3406 84 
L 4238 -825 
L 3475 -825 
L 2784 -78 
Q 2681 -84 2626 -87 
Q 2572 -91 2522 -91 
Q 1538 -91 948 567 
Q 359 1225 359 2328 
Q 359 3434 948 4092 
Q 1538 4750 2522 4750 
Q 3503 4750 4090 4092 
Q 4678 3434 4678 2328 
Q 4678 1516 4351 937 
Q 4025 359 3406 84 
z
" transform="scale(0.015625)"/>
      <path id="DejaVuSans-3a" d="M 750 794 
L 1409 794 
L 1409 0 
L 750 0 
L 750 794 
z
M 750 3309 
L 1409 3309 
L 1409 2516 
L 750 2516 
L 750 3309 
z
" transform="scale(0.015625)"/>
      <path id="DejaVuSans-53" d="M 3425 4513 
L 3425 3897 
Q 3066 4069 2747 4153 
Q 2428 4238 2131 4238 
Q 1616 4238 1336 4038 
Q 1056 3838 1056 3469 
Q 1056 3159 1242 3001 
Q 1428 2844 1947 2747 
L 2328 2669 
Q 3034 2534 3370 2195 
Q 3706 1856 3706 1288 
Q 3706 609 3251 259 
Q 2797 -91 1919 -91 
Q 1588 -91 1214 -16 
Q 841 59 441 206 
L 441 856 
Q 825 641 1194 531 
Q 1563 422 1919 422 
Q 2459 422 2753 634 
Q 3047 847 3047 1241 
Q 3047 1584 2836 1778 
Q 2625 1972 2144 2069 
L 1759 2144 
Q 1053 2284 737 2584 
Q 422 2884 422 3419 
Q 422 4038 858 4394 
Q 1294 4750 2059 4750 
Q 2388 4750 2728 4690 
Q 3069 4631 3425 4513 
z
" transform="scale(0.015625)"/>
      <path id="DejaVuSans-71" d="M 947 1747 
Q 947 1113 1208 752 
Q 1469 391 1925 391 
Q 2381 391 2643 752 
Q 2906 1113 2906 1747 
Q 2906 2381 2643 2742 
Q 2381 3103 1925 3103 
Q 1469 3103 1208 2742 
Q 947 2381 947 1747 
z
M 2906 525 
Q 2725 213 2448 61 
Q 2172 -91 1784 -91 
Q 1150 -91 751 415 
Q 353 922 353 1747 
Q 353 2572 751 3078 
Q 1150 3584 1784 3584 
Q 2172 3584 2448 3432 
Q 2725 3281 2906 2969 
L 2906 3500 
L 3481 3500 
L 3481 -1331 
L 2906 -1331 
L 2906 525 
z
" transform="scale(0.015625)"/>
      <path id="DejaVuSans-75" d="M 544 1381 
L 544 3500 
L 1119 3500 
L 1119 1403 
Q 1119 906 1312 657 
Q 1506 409 1894 409 
Q 2359 409 2629 706 
Q 2900 1003 2900 1516 
L 2900 3500 
L 3475 3500 
L 3475 0 
L 2900 0 
L 2900 538 
Q 2691 219 2414 64 
Q 2138 -91 1772 -91 
Q 1169 -91 856 284 
Q 544 659 544 1381 
z
M 1991 3584 
L 1991 3584 
z
" transform="scale(0.015625)"/>
      <path id="DejaVuSans-6f" d="M 1959 3097 
Q 1497 3097 1228 2736 
Q 959 2375 959 1747 
Q 959 1119 1226 758 
Q 1494 397 1959 397 
Q 2419 397 2687 759 
Q 2956 1122 2956 1747 
Q 2956 2369 2687 2733 
Q 2419 3097 1959 3097 
z
M 1959 3584 
Q 2709 3584 3137 3096 
Q 3566 2609 3566 1747 
Q 3566 888 3137 398 
Q 2709 -91 1959 -91 
Q 1206 -91 779 398 
Q 353 888 353 1747 
Q 353 2609 779 3096 
Q 1206 3584 1959 3584 
z
" transform="scale(0.015625)"/>
     </defs>
     <use xlink:href="#DejaVuSans-46"/>
     <use xlink:href="#DejaVuSans-61" x="48.394531"/>
     <use xlink:href="#DejaVuSans-73" x="109.673828"/>
     <use xlink:href="#DejaVuSans-74" x="161.773438"/>
     <use xlink:href="#DejaVuSans-51" x="200.982422"/>
     <use xlink:href="#DejaVuSans-43" x="279.693359"/>
     <use xlink:href="#DejaVuSans-3a" x="349.517578"/>
     <use xlink:href="#DejaVuSans-20" x="383.208984"/>
     <use xlink:href="#DejaVuSans-50" x="414.996094"/>
     <use xlink:href="#DejaVuSans-65" x="471.673828"/>
     <use xlink:href="#DejaVuSans-72" x="533.197266"/>
     <use xlink:href="#DejaVuSans-20" x="574.310547"/>
     <use xlink:href="#DejaVuSans-53" x="606.097656"/>
     <use xlink:href="#DejaVuSans-65" x="669.574219"/>
     <use xlink:href="#DejaVuSans-71" x="731.097656"/>
     <use xlink:href="#DejaVuSans-75" x="794.574219"/>
     <use xlink:href="#DejaVuSans-65" x="857.953125"/>
     <use xlink:href="#DejaVuSans-6e" x="919.476562"/>
     <use xlink:href="#DejaVuSans-63" x="982.855469"/>
     <use xlink:href="#DejaVuSans-65" x="1037.835938"/>
     <use xlink:href="#DejaVuSans-20" x="1099.359375"/>
     <use xlink:href="#DejaVuSans-47" x="1131.146484"/>
     <use xlink:href="#DejaVuSans-43" x="1208.636719"/>
     <use xlink:href="#DejaVuSans-20" x="1278.460938"/>
     <use xlink:href="#DejaVuSans-43" x="1310.248047"/>
     <use xlink:href="#DejaVuSans-6f" x="1380.072266"/>
     <use xlink:href="#DejaVuSans-6e" x="1441.253906"/>
     <use xlink:href="#DejaVuSans-74" x="1504.632812"/>
     <use xlink:href="#DejaVuSans-65" x="1543.841797"/>
     <use xlink:href="#DejaVuSans-6e" x="1605.365234"/>
     <use xlink:href="#DejaVuSans-74" x="1668.744141"/>
    </g>
   </g>
   <g id="legend_1">
    <g id="line2d_21">
     <path d="M 47.800625 291.525394 
L 55.800625 291.525394 
L 63.800625 291.525394 
" style="fill: none; stroke: #d9534f; stroke-linecap: square"/>
    </g>
    <g id="text_17">
     <!-- TK9_1_22GH5GLT3_AGAGAACCTA-GGTTATGCTA_L002_T1_1 -->
     <g transform="translate(70.200625 294.325394) scale(0.08 -0.08)">
      <defs>
       <path id="DejaVuSans-54" d="M -19 4666 
L 3928 4666 
L 3928 4134 
L 2272 4134 
L 2272 0 
L 1638 0 
L 1638 4134 
L -19 4134 
L -19 4666 
z
" transform="scale(0.015625)"/>
       <path id="DejaVuSans-4b" d="M 628 4666 
L 1259 4666 
L 1259 2694 
L 3353 4666 
L 4166 4666 
L 1850 2491 
L 4331 0 
L 3500 0 
L 1259 2247 
L 1259 0 
L 628 0 
L 628 4666 
z
" transform="scale(0.015625)"/>
       <path id="DejaVuSans-39" d="M 703 97 
L 703 672 
Q 941 559 1184 500 
Q 1428 441 1663 441 
Q 2288 441 2617 861 
Q 2947 1281 2994 2138 
Q 2813 1869 2534 1725 
Q 2256 1581 1919 1581 
Q 1219 1581 811 2004 
Q 403 2428 403 3163 
Q 403 3881 828 4315 
Q 1253 4750 1959 4750 
Q 2769 4750 3195 4129 
Q 3622 3509 3622 2328 
Q 3622 1225 3098 567 
Q 2575 -91 1691 -91 
Q 1453 -91 1209 -44 
Q 966 3 703 97 
z
M 1959 2075 
Q 2384 2075 2632 2365 
Q 2881 2656 2881 3163 
Q 2881 3666 2632 3958 
Q 2384 4250 1959 4250 
Q 1534 4250 1286 3958 
Q 1038 3666 1038 3163 
Q 1038 2656 1286 2365 
Q 1534 2075 1959 2075 
z
" transform="scale(0.015625)"/>
       <path id="DejaVuSans-5f" d="M 3263 -1063 
L 3263 -1509 
L -63 -1509 
L -63 -1063 
L 3263 -1063 
z
" transform="scale(0.015625)"/>
       <path id="DejaVuSans-48" d="M 628 4666 
L 1259 4666 
L 1259 2753 
L 3553 2753 
L 3553 4666 
L 4184 4666 
L 4184 0 
L 3553 0 
L 3553 2222 
L 1259 2222 
L 1259 0 
L 628 0 
L 628 4666 
z
" transform="scale(0.015625)"/>
       <path id="DejaVuSans-4c" d="M 628 4666 
L 1259 4666 
L 1259 531 
L 3531 531 
L 3531 0 
L 628 0 
L 628 4666 
z
" transform="scale(0.015625)"/>
       <path id="DejaVuSans-41" d="M 2188 4044 
L 1331 1722 
L 3047 1722 
L 2188 4044 
z
M 1831 4666 
L 2547 4666 
L 4325 0 
L 3669 0 
L 3244 1197 
L 1141 1197 
L 716 0 
L 50 0 
L 1831 4666 
z
" transform="scale(0.015625)"/>
       <path id="DejaVuSans-2d" d="M 313 2009 
L 1997 2009 
L 1997 1497 
L 313 1497 
L 313 2009 
z
" transform="scale(0.015625)"/>
      </defs>
      <use xlink:href="#DejaVuSans-54"/>
      <use xlink:href="#DejaVuSans-4b" x="61.083984"/>
      <use xlink:href="#DejaVuSans-39" x="126.660156"/>
      <use xlink:href="#DejaVuSans-5f" x="190.283203"/>
      <use xlink:href="#DejaVuSans-31" x="240.283203"/>
      <use xlink:href="#DejaVuSans-5f" x="303.90625"/>
      <use xlink:href="#DejaVuSans-32" x="353.90625"/>
      <use xlink:href="#DejaVuSans-32" x="417.529297"/>
      <use xlink:href="#DejaVuSans-47" x="481.152344"/>
      <use xlink:href="#DejaVuSans-48" x="558.642578"/>
      <use xlink:href="#DejaVuSans-35" x="633.837891"/>
      <use xlink:href="#DejaVuSans-47" x="697.460938"/>
      <use xlink:href="#DejaVuSans-4c" x="774.951172"/>
      <use xlink:href="#DejaVuSans-54" x="816.914062"/>
      <use xlink:href="#DejaVuSans-33" x="877.998047"/>
      <use xlink:href="#DejaVuSans-5f" x="941.621094"/>
      <use xlink:href="#DejaVuSans-41" x="991.621094"/>
      <use xlink:href="#DejaVuSans-47" x="1058.279297"/>
      <use xlink:href="#DejaVuSans-41" x="1135.769531"/>
      <use xlink:href="#DejaVuSans-47" x="1202.427734"/>
      <use xlink:href="#DejaVuSans-41" x="1279.917969"/>
      <use xlink:href="#DejaVuSans-41" x="1351.076172"/>
      <use xlink:href="#DejaVuSans-43" x="1417.734375"/>
      <use xlink:href="#DejaVuSans-43" x="1487.558594"/>
      <use xlink:href="#DejaVuSans-54" x="1557.382812"/>
      <use xlink:href="#DejaVuSans-41" x="1610.716797"/>
      <use xlink:href="#DejaVuSans-2d" x="1676.875"/>
      <use xlink:href="#DejaVuSans-47" x="1716.583984"/>
      <use xlink:href="#DejaVuSans-47" x="1794.074219"/>
      <use xlink:href="#DejaVuSans-54" x="1867.939453"/>
      <use xlink:href="#DejaVuSans-54" x="1927.273438"/>
      <use xlink:href="#DejaVuSans-41" x="1980.607422"/>
      <use xlink:href="#DejaVuSans-54" x="2041.265625"/>
      <use xlink:href="#DejaVuSans-47" x="2102.349609"/>
      <use xlink:href="#DejaVuSans-43" x="2179.839844"/>
      <use xlink:href="#DejaVuSans-54" x="2249.664062"/>
      <use xlink:href="#DejaVuSans-41" x="2302.998047"/>
      <use xlink:href="#DejaVuSans-5f" x="2371.40625"/>
      <use xlink:href="#DejaVuSans-4c" x="2421.40625"/>
      <use xlink:href="#DejaVuSans-30" x="2477.119141"/>
      <use xlink:href="#DejaVuSans-30" x="2540.742188"/>
      <use xlink:href="#DejaVuSans-32" x="2604.365234"/>
      <use xlink:href="#DejaVuSans-5f" x="2667.988281"/>
      <use xlink:href="#DejaVuSans-54" x="2717.988281"/>
      <use xlink:href="#DejaVuSans-31" x="2779.072266"/>
      <use xlink:href="#DejaVuSans-5f" x="2842.695312"/>
      <use xlink:href="#DejaVuSans-31" x="2892.695312"/>
     </g>
    </g>
    <g id="line2d_22">
     <path d="M 47.800625 303.490394 
L 55.800625 303.490394 
L 63.800625 303.490394 
" style="fill: none; stroke: #d9534f; stroke-linecap: square"/>
    </g>
    <g id="text_18">
     <!-- TK9_1_22GH5GLT3_AGAGAACCTA-GGTTATGCTA_L002_T1_2 -->
     <g transform="translate(70.200625 306.290394) scale(0.08 -0.08)">
      <use xlink:href="#DejaVuSans-54"/>
      <use xlink:href="#DejaVuSans-4b" x="61.083984"/>
      <use xlink:href="#DejaVuSans-39" x="126.660156"/>
      <use xlink:href="#DejaVuSans-5f" x="190.283203"/>
      <use xlink:href="#DejaVuSans-31" x="240.283203"/>
      <use xlink:href="#DejaVuSans-5f" x="303.90625"/>
      <use xlink:href="#DejaVuSans-32" x="353.90625"/>
      <use xlink:href="#DejaVuSans-32" x="417.529297"/>
      <use xlink:href="#DejaVuSans-47" x="481.152344"/>
      <use xlink:href="#DejaVuSans-48" x="558.642578"/>
      <use xlink:href="#DejaVuSans-35" x="633.837891"/>
      <use xlink:href="#DejaVuSans-47" x="697.460938"/>
      <use xlink:href="#DejaVuSans-4c" x="774.951172"/>
      <use xlink:href="#DejaVuSans-54" x="816.914062"/>
      <use xlink:href="#DejaVuSans-33" x="877.998047"/>
      <use xlink:href="#DejaVuSans-5f" x="941.621094"/>
      <use xlink:href="#DejaVuSans-41" x="991.621094"/>
      <use xlink:href="#DejaVuSans-47" x="1058.279297"/>
      <use xlink:href="#DejaVuSans-41" x="1135.769531"/>
      <use xlink:href="#DejaVuSans-47" x="1202.427734"/>
      <use xlink:href="#DejaVuSans-41" x="1279.917969"/>
      <use xlink:href="#DejaVuSans-41" x="1351.076172"/>
      <use xlink:href="#DejaVuSans-43" x="1417.734375"/>
      <use xlink:href="#DejaVuSans-43" x="1487.558594"/>
      <use xlink:href="#DejaVuSans-54" x="1557.382812"/>
      <use xlink:href="#DejaVuSans-41" x="1610.716797"/>
      <use xlink:href="#DejaVuSans-2d" x="1676.875"/>
      <use xlink:href="#DejaVuSans-47" x="1716.583984"/>
      <use xlink:href="#DejaVuSans-47" x="1794.074219"/>
      <use xlink:href="#DejaVuSans-54" x="1867.939453"/>
      <use xlink:href="#DejaVuSans-54" x="1927.273438"/>
      <use xlink:href="#DejaVuSans-41" x="1980.607422"/>
      <use xlink:href="#DejaVuSans-54" x="2041.265625"/>
      <use xlink:href="#DejaVuSans-47" x="2102.349609"/>
      <use xlink:href="#DejaVuSans-43" x="2179.839844"/>
      <use xlink:href="#DejaVuSans-54" x="2249.664062"/>
      <use xlink:href="#DejaVuSans-41" x="2302.998047"/>
      <use xlink:href="#DejaVuSans-5f" x="2371.40625"/>
      <use xlink:href="#DejaVuSans-4c" x="2421.40625"/>
      <use xlink:href="#DejaVuSans-30" x="2477.119141"/>
      <use xlink:href="#DejaVuSans-30" x="2540.742188"/>
      <use xlink:href="#DejaVuSans-32" x="2604.365234"/>
      <use xlink:href="#DejaVuSans-5f" x="2667.988281"/>
      <use xlink:href="#DejaVuSans-54" x="2717.988281"/>
      <use xlink:href="#DejaVuSans-31" x="2779.072266"/>
      <use xlink:href="#DejaVuSans-5f" x="2842.695312"/>
      <use xlink:href="#DejaVuSans-32" x="2892.695312"/>
     </g>
    </g>
    <g id="line2d_23">
     <path d="M 47.800625 315.455394 
L 55.800625 315.455394 
L 63.800625 315.455394 
" style="fill: none; stroke: #d9534f; stroke-linecap: square"/>
    </g>
    <g id="text_19">
     <!-- TK9_1_22GH5GLT3_AGAGAACCTA-GGTTATGCTA_L003_T1_1 -->
     <g transform="translate(70.200625 318.255394) scale(0.08 -0.08)">
      <use xlink:href="#DejaVuSans-54"/>
      <use xlink:href="#DejaVuSans-4b" x="61.083984"/>
      <use xlink:href="#DejaVuSans-39" x="126.660156"/>
      <use xlink:href="#DejaVuSans-5f" x="190.283203"/>
      <use xlink:href="#DejaVuSans-31" x="240.283203"/>
      <use xlink:href="#DejaVuSans-5f" x="303.90625"/>
      <use xlink:href="#DejaVuSans-32" x="353.90625"/>
      <use xlink:href="#DejaVuSans-32" x="417.529297"/>
      <use xlink:href="#DejaVuSans-47" x="481.152344"/>
      <use xlink:href="#DejaVuSans-48" x="558.642578"/>
      <use xlink:href="#DejaVuSans-35" x="633.837891"/>
      <use xlink:href="#DejaVuSans-47" x="697.460938"/>
      <use xlink:href="#DejaVuSans-4c" x="774.951172"/>
      <use xlink:href="#DejaVuSans-54" x="816.914062"/>
      <use xlink:href="#DejaVuSans-33" x="877.998047"/>
      <use xlink:href="#DejaVuSans-5f" x="941.621094"/>
      <use xlink:href="#DejaVuSans-41" x="991.621094"/>
      <use xlink:href="#DejaVuSans-47" x="1058.279297"/>
      <use xlink:href="#DejaVuSans-41" x="1135.769531"/>
      <use xlink:href="#DejaVuSans-47" x="1202.427734"/>
      <use xlink:href="#DejaVuSans-41" x="1279.917969"/>
      <use xlink:href="#DejaVuSans-41" x="1351.076172"/>
      <use xlink:href="#DejaVuSans-43" x="1417.734375"/>
      <use xlink:href="#DejaVuSans-43" x="1487.558594"/>
      <use xlink:href="#DejaVuSans-54" x="1557.382812"/>
      <use xlink:href="#DejaVuSans-41" x="1610.716797"/>
      <use xlink:href="#DejaVuSans-2d" x="1676.875"/>
      <use xlink:href="#DejaVuSans-47" x="1716.583984"/>
      <use xlink:href="#DejaVuSans-47" x="1794.074219"/>
      <use xlink:href="#DejaVuSans-54" x="1867.939453"/>
      <use xlink:href="#DejaVuSans-54" x="1927.273438"/>
      <use xlink:href="#DejaVuSans-41" x="1980.607422"/>
      <use xlink:href="#DejaVuSans-54" x="2041.265625"/>
      <use xlink:href="#DejaVuSans-47" x="2102.349609"/>
      <use xlink:href="#DejaVuSans-43" x="2179.839844"/>
      <use xlink:href="#DejaVuSans-54" x="2249.664062"/>
      <use xlink:href="#DejaVuSans-41" x="2302.998047"/>
      <use xlink:href="#DejaVuSans-5f" x="2371.40625"/>
      <use xlink:href="#DejaVuSans-4c" x="2421.40625"/>
      <use xlink:href="#DejaVuSans-30" x="2477.119141"/>
      <use xlink:href="#DejaVuSans-30" x="2540.742188"/>
      <use xlink:href="#DejaVuSans-33" x="2604.365234"/>
      <use xlink:href="#DejaVuSans-5f" x="2667.988281"/>
      <use xlink:href="#DejaVuSans-54" x="2717.988281"/>
      <use xlink:href="#DejaVuSans-31" x="2779.072266"/>
      <use xlink:href="#DejaVuSans-5f" x="2842.695312"/>
      <use xlink:href="#DejaVuSans-31" x="2892.695312"/>
     </g>
    </g>
    <g id="line2d_24">
     <path d="M 214.167812 291.525394 
L 222.167812 291.525394 
L 230.167812 291.525394 
" style="fill: none; stroke: #d9534f; stroke-linecap: square"/>
    </g>
    <g id="text_20">
     <!-- TK9_1_22GH5GLT3_AGAGAACCTA-GGTTATGCTA_L003_T1_2 -->
     <g transform="translate(236.567812 294.325394) scale(0.08 -0.08)">
      <use xlink:href="#DejaVuSans-54"/>
      <use xlink:href="#DejaVuSans-4b" x="61.083984"/>
      <use xlink:href="#DejaVuSans-39" x="126.660156"/>
      <use xlink:href="#DejaVuSans-5f" x="190.283203"/>
      <use xlink:href="#DejaVuSans-31" x="240.283203"/>
      <use xlink:href="#DejaVuSans-5f" x="303.90625"/>
      <use xlink:href="#DejaVuSans-32" x="353.90625"/>
      <use xlink:href="#DejaVuSans-32" x="417.529297"/>
      <use xlink:href="#DejaVuSans-47" x="481.152344"/>
      <use xlink:href="#DejaVuSans-48" x="558.642578"/>
      <use xlink:href="#DejaVuSans-35" x="633.837891"/>
      <use xlink:href="#DejaVuSans-47" x="697.460938"/>
      <use xlink:href="#DejaVuSans-4c" x="774.951172"/>
      <use xlink:href="#DejaVuSans-54" x="816.914062"/>
      <use xlink:href="#DejaVuSans-33" x="877.998047"/>
      <use xlink:href="#DejaVuSans-5f" x="941.621094"/>
      <use xlink:href="#DejaVuSans-41" x="991.621094"/>
      <use xlink:href="#DejaVuSans-47" x="1058.279297"/>
      <use xlink:href="#DejaVuSans-41" x="1135.769531"/>
      <use xlink:href="#DejaVuSans-47" x="1202.427734"/>
      <use xlink:href="#DejaVuSans-41" x="1279.917969"/>
      <use xlink:href="#DejaVuSans-41" x="1351.076172"/>
      <use xlink:href="#DejaVuSans-43" x="1417.734375"/>
      <use xlink:href="#DejaVuSans-43" x="1487.558594"/>
      <use xlink:href="#DejaVuSans-54" x="1557.382812"/>
      <use xlink:href="#DejaVuSans-41" x="1610.716797"/>
      <use xlink:href="#DejaVuSans-2d" x="1676.875"/>
      <use xlink:href="#DejaVuSans-47" x="1716.583984"/>
      <use xlink:href="#DejaVuSans-47" x="1794.074219"/>
      <use xlink:href="#DejaVuSans-54" x="1867.939453"/>
      <use xlink:href="#DejaVuSans-54" x="1927.273438"/>
      <use xlink:href="#DejaVuSans-41" x="1980.607422"/>
      <use xlink:href="#DejaVuSans-54" x="2041.265625"/>
      <use xlink:href="#DejaVuSans-47" x="2102.349609"/>
      <use xlink:href="#DejaVuSans-43" x="2179.839844"/>
      <use xlink:href="#DejaVuSans-54" x="2249.664062"/>
      <use xlink:href="#DejaVuSans-41" x="2302.998047"/>
      <use xlink:href="#DejaVuSans-5f" x="2371.40625"/>
      <use xlink:href="#DejaVuSans-4c" x="2421.40625"/>
      <use xlink:href="#DejaVuSans-30" x="2477.119141"/>
      <use xlink:href="#DejaVuSans-30" x="2540.742188"/>
      <use xlink:href="#DejaVuSans-33" x="2604.365234"/>
      <use xlink:href="#DejaVuSans-5f" x="2667.988281"/>
      <use xlink:href="#DejaVuSans-54" x="2717.988281"/>
      <use xlink:href="#DejaVuSans-31" x="2779.072266"/>
      <use xlink:href="#DejaVuSans-5f" x="2842.695312"/>
      <use xlink:href="#DejaVuSans-32" x="2892.695312"/>
     </g>
    </g>
    <g id="line2d_25">
     <path d="M 214.167812 303.490394 
L 222.167812 303.490394 
L 230.167812 303.490394 
" style="fill: none; stroke: #d9534f; stroke-linecap: square"/>
    </g>
    <g id="text_21">
     <!-- TK9_2_22GH5GLT3_GATATTGTGT-ACCACACGGT_L002_T1_1 -->
     <g transform="translate(236.567812 306.290394) scale(0.08 -0.08)">
      <use xlink:href="#DejaVuSans-54"/>
      <use xlink:href="#DejaVuSans-4b" x="61.083984"/>
      <use xlink:href="#DejaVuSans-39" x="126.660156"/>
      <use xlink:href="#DejaVuSans-5f" x="190.283203"/>
      <use xlink:href="#DejaVuSans-32" x="240.283203"/>
      <use xlink:href="#DejaVuSans-5f" x="303.90625"/>
      <use xlink:href="#DejaVuSans-32" x="353.90625"/>
      <use xlink:href="#DejaVuSans-32" x="417.529297"/>
      <use xlink:href="#DejaVuSans-47" x="481.152344"/>
      <use xlink:href="#DejaVuSans-48" x="558.642578"/>
      <use xlink:href="#DejaVuSans-35" x="633.837891"/>
      <use xlink:href="#DejaVuSans-47" x="697.460938"/>
      <use xlink:href="#DejaVuSans-4c" x="774.951172"/>
      <use xlink:href="#DejaVuSans-54" x="816.914062"/>
      <use xlink:href="#DejaVuSans-33" x="877.998047"/>
      <use xlink:href="#DejaVuSans-5f" x="941.621094"/>
      <use xlink:href="#DejaVuSans-47" x="991.621094"/>
      <use xlink:href="#DejaVuSans-41" x="1069.111328"/>
      <use xlink:href="#DejaVuSans-54" x="1129.769531"/>
      <use xlink:href="#DejaVuSans-41" x="1183.103516"/>
      <use xlink:href="#DejaVuSans-54" x="1243.761719"/>
      <use xlink:href="#DejaVuSans-54" x="1303.095703"/>
      <use xlink:href="#DejaVuSans-47" x="1364.179688"/>
      <use xlink:href="#DejaVuSans-54" x="1438.044922"/>
      <use xlink:href="#DejaVuSans-47" x="1499.128906"/>
      <use xlink:href="#DejaVuSans-54" x="1572.994141"/>
      <use xlink:href="#DejaVuSans-2d" x="1624.953125"/>
      <use xlink:href="#DejaVuSans-41" x="1658.787109"/>
      <use xlink:href="#DejaVuSans-43" x="1725.445312"/>
      <use xlink:href="#DejaVuSans-43" x="1795.269531"/>
      <use xlink:href="#DejaVuSans-41" x="1865.09375"/>
      <use xlink:href="#DejaVuSans-43" x="1931.751953"/>
      <use xlink:href="#DejaVuSans-41" x="2001.576172"/>
      <use xlink:href="#DejaVuSans-43" x="2068.234375"/>
      <use xlink:href="#DejaVuSans-47" x="2138.058594"/>
      <use xlink:href="#DejaVuSans-47" x="2215.548828"/>
      <use xlink:href="#DejaVuSans-54" x="2289.414062"/>
      <use xlink:href="#DejaVuSans-5f" x="2350.498047"/>
      <use xlink:href="#DejaVuSans-4c" x="2400.498047"/>
      <use xlink:href="#DejaVuSans-30" x="2456.210938"/>
      <use xlink:href="#DejaVuSans-30" x="2519.833984"/>
      <use xlink:href="#DejaVuSans-32" x="2583.457031"/>
      <use xlink:href="#DejaVuSans-5f" x="2647.080078"/>
      <use xlink:href="#DejaVuSans-54" x="2697.080078"/>
      <use xlink:href="#DejaVuSans-31" x="2758.164062"/>
      <use xlink:href="#DejaVuSans-5f" x="2821.787109"/>
      <use xlink:href="#DejaVuSans-31" x="2871.787109"/>
     </g>
    </g>
    <g id="line2d_26">
     <path d="M 214.167812 315.455394 
L 222.167812 315.455394 
L 230.167812 315.455394 
" style="fill: none; stroke: #d9534f; stroke-linecap: square"/>
    </g>
    <g id="text_22">
     <!-- TK9_2_22GH5GLT3_GATATTGTGT-ACCACACGGT_L002_T1_2 -->
     <g transform="translate(236.567812 318.255394) scale(0.08 -0.08)">
      <use xlink:href="#DejaVuSans-54"/>
      <use xlink:href="#DejaVuSans-4b" x="61.083984"/>
      <use xlink:href="#DejaVuSans-39" x="126.660156"/>
      <use xlink:href="#DejaVuSans-5f" x="190.283203"/>
      <use xlink:href="#DejaVuSans-32" x="240.283203"/>
      <use xlink:href="#DejaVuSans-5f" x="303.90625"/>
      <use xlink:href="#DejaVuSans-32" x="353.90625"/>
      <use xlink:href="#DejaVuSans-32" x="417.529297"/>
      <use xlink:href="#DejaVuSans-47" x="481.152344"/>
      <use xlink:href="#DejaVuSans-48" x="558.642578"/>
      <use xlink:href="#DejaVuSans-35" x="633.837891"/>
      <use xlink:href="#DejaVuSans-47" x="697.460938"/>
      <use xlink:href="#DejaVuSans-4c" x="774.951172"/>
      <use xlink:href="#DejaVuSans-54" x="816.914062"/>
      <use xlink:href="#DejaVuSans-33" x="877.998047"/>
      <use xlink:href="#DejaVuSans-5f" x="941.621094"/>
      <use xlink:href="#DejaVuSans-47" x="991.621094"/>
      <use xlink:href="#DejaVuSans-41" x="1069.111328"/>
      <use xlink:href="#DejaVuSans-54" x="1129.769531"/>
      <use xlink:href="#DejaVuSans-41" x="1183.103516"/>
      <use xlink:href="#DejaVuSans-54" x="1243.761719"/>
      <use xlink:href="#DejaVuSans-54" x="1303.095703"/>
      <use xlink:href="#DejaVuSans-47" x="1364.179688"/>
      <use xlink:href="#DejaVuSans-54" x="1438.044922"/>
      <use xlink:href="#DejaVuSans-47" x="1499.128906"/>
      <use xlink:href="#DejaVuSans-54" x="1572.994141"/>
      <use xlink:href="#DejaVuSans-2d" x="1624.953125"/>
      <use xlink:href="#DejaVuSans-41" x="1658.787109"/>
      <use xlink:href="#DejaVuSans-43" x="1725.445312"/>
      <use xlink:href="#DejaVuSans-43" x="1795.269531"/>
      <use xlink:href="#DejaVuSans-41" x="1865.09375"/>
      <use xlink:href="#DejaVuSans-43" x="1931.751953"/>
      <use xlink:href="#DejaVuSans-41" x="2001.576172"/>
      <use xlink:href="#DejaVuSans-43" x="2068.234375"/>
      <use xlink:href="#DejaVuSans-47" x="2138.058594"/>
      <use xlink:href="#DejaVuSans-47" x="2215.548828"/>
      <use xlink:href="#DejaVuSans-54" x="2289.414062"/>
      <use xlink:href="#DejaVuSans-5f" x="2350.498047"/>
      <use xlink:href="#DejaVuSans-4c" x="2400.498047"/>
      <use xlink:href="#DejaVuSans-30" x="2456.210938"/>
      <use xlink:href="#DejaVuSans-30" x="2519.833984"/>
      <use xlink:href="#DejaVuSans-32" x="2583.457031"/>
      <use xlink:href="#DejaVuSans-5f" x="2647.080078"/>
      <use xlink:href="#DejaVuSans-54" x="2697.080078"/>
      <use xlink:href="#DejaVuSans-31" x="2758.164062"/>
      <use xlink:href="#DejaVuSans-5f" x="2821.787109"/>
      <use xlink:href="#DejaVuSans-32" x="2871.787109"/>
     </g>
    </g>
    <g id="line2d_27">
     <path d="M 380.535 291.525394 
L 388.535 291.525394 
L 396.535 291.525394 
" style="fill: none; stroke: #d9534f; stroke-linecap: square"/>
    </g>
    <g id="text_23">
     <!-- TK9_2_22GH5GLT3_GATATTGTGT-ACCACACGGT_L003_T1_1 -->
     <g transform="translate(402.935 294.325394) scale(0.08 -0.08)">
      <use xlink:href="#DejaVuSans-54"/>
      <use xlink:href="#DejaVuSans-4b" x="61.083984"/>
      <use xlink:href="#DejaVuSans-39" x="126.660156"/>
      <use xlink:href="#DejaVuSans-5f" x="190.283203"/>
      <use xlink:href="#DejaVuSans-32" x="240.283203"/>
      <use xlink:href="#DejaVuSans-5f" x="303.90625"/>
      <use xlink:href="#DejaVuSans-32" x="353.90625"/>
      <use xlink:href="#DejaVuSans-32" x="417.529297"/>
      <use xlink:href="#DejaVuSans-47" x="481.152344"/>
      <use xlink:href="#DejaVuSans-48" x="558.642578"/>
      <use xlink:href="#DejaVuSans-35" x="633.837891"/>
      <use xlink:href="#DejaVuSans-47" x="697.460938"/>
      <use xlink:href="#DejaVuSans-4c" x="774.951172"/>
      <use xlink:href="#DejaVuSans-54" x="816.914062"/>
      <use xlink:href="#DejaVuSans-33" x="877.998047"/>
      <use xlink:href="#DejaVuSans-5f" x="941.621094"/>
      <use xlink:href="#DejaVuSans-47" x="991.621094"/>
      <use xlink:href="#DejaVuSans-41" x="1069.111328"/>
      <use xlink:href="#DejaVuSans-54" x="1129.769531"/>
      <use xlink:href="#DejaVuSans-41" x="1183.103516"/>
      <use xlink:href="#DejaVuSans-54" x="1243.761719"/>
      <use xlink:href="#DejaVuSans-54" x="1303.095703"/>
      <use xlink:href="#DejaVuSans-47" x="1364.179688"/>
      <use xlink:href="#DejaVuSans-54" x="1438.044922"/>
      <use xlink:href="#DejaVuSans-47" x="1499.128906"/>
      <use xlink:href="#DejaVuSans-54" x="1572.994141"/>
      <use xlink:href="#DejaVuSans-2d" x="1624.953125"/>
      <use xlink:href="#DejaVuSans-41" x="1658.787109"/>
      <use xlink:href="#DejaVuSans-43" x="1725.445312"/>
      <use xlink:href="#DejaVuSans-43" x="1795.269531"/>
      <use xlink:href="#DejaVuSans-41" x="1865.09375"/>
      <use xlink:href="#DejaVuSans-43" x="1931.751953"/>
      <use xlink:href="#DejaVuSans-41" x="2001.576172"/>
      <use xlink:href="#DejaVuSans-43" x="2068.234375"/>
      <use xlink:href="#DejaVuSans-47" x="2138.058594"/>
      <use xlink:href="#DejaVuSans-47" x="2215.548828"/>
      <use xlink:href="#DejaVuSans-54" x="2289.414062"/>
      <use xlink:href="#DejaVuSans-5f" x="2350.498047"/>
      <use xlink:href="#DejaVuSans-4c" x="2400.498047"/>
      <use xlink:href="#DejaVuSans-30" x="2456.210938"/>
      <use xlink:href="#DejaVuSans-30" x="2519.833984"/>
      <use xlink:href="#DejaVuSans-33" x="2583.457031"/>
      <use xlink:href="#DejaVuSans-5f" x="2647.080078"/>
      <use xlink:href="#DejaVuSans-54" x="2697.080078"/>
      <use xlink:href="#DejaVuSans-31" x="2758.164062"/>
      <use xlink:href="#DejaVuSans-5f" x="2821.787109"/>
      <use xlink:href="#DejaVuSans-31" x="2871.787109"/>
     </g>
    </g>
    <g id="line2d_28">
     <path d="M 380.535 303.490394 
L 388.535 303.490394 
L 396.535 303.490394 
" style="fill: none; stroke: #d9534f; stroke-linecap: square"/>
    </g>
    <g id="text_24">
     <!-- TK9_2_22GH5GLT3_GATATTGTGT-ACCACACGGT_L003_T1_2 -->
     <g transform="translate(402.935 306.290394) scale(0.08 -0.08)">
      <use xlink:href="#DejaVuSans-54"/>
      <use xlink:href="#DejaVuSans-4b" x="61.083984"/>
      <use xlink:href="#DejaVuSans-39" x="126.660156"/>
      <use xlink:href="#DejaVuSans-5f" x="190.283203"/>
      <use xlink:href="#DejaVuSans-32" x="240.283203"/>
      <use xlink:href="#DejaVuSans-5f" x="303.90625"/>
      <use xlink:href="#DejaVuSans-32" x="353.90625"/>
      <use xlink:href="#DejaVuSans-32" x="417.529297"/>
      <use xlink:href="#DejaVuSans-47" x="481.152344"/>
      <use xlink:href="#DejaVuSans-48" x="558.642578"/>
      <use xlink:href="#DejaVuSans-35" x="633.837891"/>
      <use xlink:href="#DejaVuSans-47" x="697.460938"/>
      <use xlink:href="#DejaVuSans-4c" x="774.951172"/>
      <use xlink:href="#DejaVuSans-54" x="816.914062"/>
      <use xlink:href="#DejaVuSans-33" x="877.998047"/>
      <use xlink:href="#DejaVuSans-5f" x="941.621094"/>
      <use xlink:href="#DejaVuSans-47" x="991.621094"/>
      <use xlink:href="#DejaVuSans-41" x="1069.111328"/>
      <use xlink:href="#DejaVuSans-54" x="1129.769531"/>
      <use xlink:href="#DejaVuSans-41" x="1183.103516"/>
      <use xlink:href="#DejaVuSans-54" x="1243.761719"/>
      <use xlink:href="#DejaVuSans-54" x="1303.095703"/>
      <use xlink:href="#DejaVuSans-47" x="1364.179688"/>
      <use xlink:href="#DejaVuSans-54" x="1438.044922"/>
      <use xlink:href="#DejaVuSans-47" x="1499.128906"/>
      <use xlink:href="#DejaVuSans-54" x="1572.994141"/>
      <use xlink:href="#DejaVuSans-2d" x="1624.953125"/>
      <use xlink:href="#DejaVuSans-41" x="1658.787109"/>
      <use xlink:href="#DejaVuSans-43" x="1725.445312"/>
      <use xlink:href="#DejaVuSans-43" x="1795.269531"/>
      <use xlink:href="#DejaVuSans-41" x="1865.09375"/>
      <use xlink:href="#DejaVuSans-43" x="1931.751953"/>
      <use xlink:href="#DejaVuSans-41" x="2001.576172"/>
      <use xlink:href="#DejaVuSans-43" x="2068.234375"/>
      <use xlink:href="#DejaVuSans-47" x="2138.058594"/>
      <use xlink:href="#DejaVuSans-47" x="2215.548828"/>
      <use xlink:href="#DejaVuSans-54" x="2289.414062"/>
      <use xlink:href="#DejaVuSans-5f" x="2350.498047"/>
      <use xlink:href="#DejaVuSans-4c" x="2400.498047"/>
      <use xlink:href="#DejaVuSans-30" x="2456.210938"/>
      <use xlink:href="#DejaVuSans-30" x="2519.833984"/>
      <use xlink:href="#DejaVuSans-33" x="2583.457031"/>
      <use xlink:href="#DejaVuSans-5f" x="2647.080078"/>
      <use xlink:href="#DejaVuSans-54" x="2697.080078"/>
      <use xlink:href="#DejaVuSans-31" x="2758.164062"/>
      <use xlink:href="#DejaVuSans-5f" x="2821.787109"/>
      <use xlink:href="#DejaVuSans-32" x="2871.787109"/>
     </g>
    </g>
    <g id="line2d_29">
     <path d="M 545.229687 291.525394 
L 553.229687 291.525394 
L 561.229687 291.525394 
" style="fill: none; stroke: #d9534f; stroke-linecap: square"/>
    </g>
    <g id="text_25">
     <!-- TK9_3_22GH5GLT3_GGCGCCATTG-ACCGCGCAAT_L002_T1_1 -->
     <g transform="translate(567.629687 294.325394) scale(0.08 -0.08)">
      <use xlink:href="#DejaVuSans-54"/>
      <use xlink:href="#DejaVuSans-4b" x="61.083984"/>
      <use xlink:href="#DejaVuSans-39" x="126.660156"/>
      <use xlink:href="#DejaVuSans-5f" x="190.283203"/>
      <use xlink:href="#DejaVuSans-33" x="240.283203"/>
      <use xlink:href="#DejaVuSans-5f" x="303.90625"/>
      <use xlink:href="#DejaVuSans-32" x="353.90625"/>
      <use xlink:href="#DejaVuSans-32" x="417.529297"/>
      <use xlink:href="#DejaVuSans-47" x="481.152344"/>
      <use xlink:href="#DejaVuSans-48" x="558.642578"/>
      <use xlink:href="#DejaVuSans-35" x="633.837891"/>
      <use xlink:href="#DejaVuSans-47" x="697.460938"/>
      <use xlink:href="#DejaVuSans-4c" x="774.951172"/>
      <use xlink:href="#DejaVuSans-54" x="816.914062"/>
      <use xlink:href="#DejaVuSans-33" x="877.998047"/>
      <use xlink:href="#DejaVuSans-5f" x="941.621094"/>
      <use xlink:href="#DejaVuSans-47" x="991.621094"/>
      <use xlink:href="#DejaVuSans-47" x="1069.111328"/>
      <use xlink:href="#DejaVuSans-43" x="1146.601562"/>
      <use xlink:href="#DejaVuSans-47" x="1216.425781"/>
      <use xlink:href="#DejaVuSans-43" x="1293.916016"/>
      <use xlink:href="#DejaVuSans-43" x="1363.740234"/>
      <use xlink:href="#DejaVuSans-41" x="1433.564453"/>
      <use xlink:href="#DejaVuSans-54" x="1494.222656"/>
      <use xlink:href="#DejaVuSans-54" x="1553.556641"/>
      <use xlink:href="#DejaVuSans-47" x="1614.640625"/>
      <use xlink:href="#DejaVuSans-2d" x="1692.130859"/>
      <use xlink:href="#DejaVuSans-41" x="1725.964844"/>
      <use xlink:href="#DejaVuSans-43" x="1792.623047"/>
      <use xlink:href="#DejaVuSans-43" x="1862.447266"/>
      <use xlink:href="#DejaVuSans-47" x="1932.271484"/>
      <use xlink:href="#DejaVuSans-43" x="2009.761719"/>
      <use xlink:href="#DejaVuSans-47" x="2079.585938"/>
      <use xlink:href="#DejaVuSans-43" x="2157.076172"/>
      <use xlink:href="#DejaVuSans-41" x="2226.900391"/>
      <use xlink:href="#DejaVuSans-41" x="2298.058594"/>
      <use xlink:href="#DejaVuSans-54" x="2358.716797"/>
      <use xlink:href="#DejaVuSans-5f" x="2419.800781"/>
      <use xlink:href="#DejaVuSans-4c" x="2469.800781"/>
      <use xlink:href="#DejaVuSans-30" x="2525.513672"/>
      <use xlink:href="#DejaVuSans-30" x="2589.136719"/>
      <use xlink:href="#DejaVuSans-32" x="2652.759766"/>
      <use xlink:href="#DejaVuSans-5f" x="2716.382812"/>
      <use xlink:href="#DejaVuSans-54" x="2766.382812"/>
      <use xlink:href="#DejaVuSans-31" x="2827.466797"/>
      <use xlink:href="#DejaVuSans-5f" x="2891.089844"/>
      <use xlink:href="#DejaVuSans-31" x="2941.089844"/>
     </g>
    </g>
    <g id="line2d_30">
     <path d="M 545.229687 303.490394 
L 553.229687 303.490394 
L 561.229687 303.490394 
" style="fill: none; stroke: #d9534f; stroke-linecap: square"/>
    </g>
    <g id="text_26">
     <!-- TK9_3_22GH5GLT3_GGCGCCATTG-ACCGCGCAAT_L002_T1_2 -->
     <g transform="translate(567.629687 306.290394) scale(0.08 -0.08)">
      <use xlink:href="#DejaVuSans-54"/>
      <use xlink:href="#DejaVuSans-4b" x="61.083984"/>
      <use xlink:href="#DejaVuSans-39" x="126.660156"/>
      <use xlink:href="#DejaVuSans-5f" x="190.283203"/>
      <use xlink:href="#DejaVuSans-33" x="240.283203"/>
      <use xlink:href="#DejaVuSans-5f" x="303.90625"/>
      <use xlink:href="#DejaVuSans-32" x="353.90625"/>
      <use xlink:href="#DejaVuSans-32" x="417.529297"/>
      <use xlink:href="#DejaVuSans-47" x="481.152344"/>
      <use xlink:href="#DejaVuSans-48" x="558.642578"/>
      <use xlink:href="#DejaVuSans-35" x="633.837891"/>
      <use xlink:href="#DejaVuSans-47" x="697.460938"/>
      <use xlink:href="#DejaVuSans-4c" x="774.951172"/>
      <use xlink:href="#DejaVuSans-54" x="816.914062"/>
      <use xlink:href="#DejaVuSans-33" x="877.998047"/>
      <use xlink:href="#DejaVuSans-5f" x="941.621094"/>
      <use xlink:href="#DejaVuSans-47" x="991.621094"/>
      <use xlink:href="#DejaVuSans-47" x="1069.111328"/>
      <use xlink:href="#DejaVuSans-43" x="1146.601562"/>
      <use xlink:href="#DejaVuSans-47" x="1216.425781"/>
      <use xlink:href="#DejaVuSans-43" x="1293.916016"/>
      <use xlink:href="#DejaVuSans-43" x="1363.740234"/>
      <use xlink:href="#DejaVuSans-41" x="1433.564453"/>
      <use xlink:href="#DejaVuSans-54" x="1494.222656"/>
      <use xlink:href="#DejaVuSans-54" x="1553.556641"/>
      <use xlink:href="#DejaVuSans-47" x="1614.640625"/>
      <use xlink:href="#DejaVuSans-2d" x="1692.130859"/>
      <use xlink:href="#DejaVuSans-41" x="1725.964844"/>
      <use xlink:href="#DejaVuSans-43" x="1792.623047"/>
      <use xlink:href="#DejaVuSans-43" x="1862.447266"/>
      <use xlink:href="#DejaVuSans-47" x="1932.271484"/>
      <use xlink:href="#DejaVuSans-43" x="2009.761719"/>
      <use xlink:href="#DejaVuSans-47" x="2079.585938"/>
      <use xlink:href="#DejaVuSans-43" x="2157.076172"/>
      <use xlink:href="#DejaVuSans-41" x="2226.900391"/>
      <use xlink:href="#DejaVuSans-41" x="2298.058594"/>
      <use xlink:href="#DejaVuSans-54" x="2358.716797"/>
      <use xlink:href="#DejaVuSans-5f" x="2419.800781"/>
      <use xlink:href="#DejaVuSans-4c" x="2469.800781"/>
      <use xlink:href="#DejaVuSans-30" x="2525.513672"/>
      <use xlink:href="#DejaVuSans-30" x="2589.136719"/>
      <use xlink:href="#DejaVuSans-32" x="2652.759766"/>
      <use xlink:href="#DejaVuSans-5f" x="2716.382812"/>
      <use xlink:href="#DejaVuSans-54" x="2766.382812"/>
      <use xlink:href="#DejaVuSans-31" x="2827.466797"/>
      <use xlink:href="#DejaVuSans-5f" x="2891.089844"/>
      <use xlink:href="#DejaVuSans-32" x="2941.089844"/>
     </g>
    </g>
    <g id="line2d_31">
     <path d="M 715.470625 291.525394 
L 723.470625 291.525394 
L 731.470625 291.525394 
" style="fill: none; stroke: #d9534f; stroke-linecap: square"/>
    </g>
    <g id="text_27">
     <!-- TK9_3_22GH5GLT3_GGCGCCATTG-ACCGCGCAAT_L003_T1_1 -->
     <g transform="translate(737.870625 294.325394) scale(0.08 -0.08)">
      <use xlink:href="#DejaVuSans-54"/>
      <use xlink:href="#DejaVuSans-4b" x="61.083984"/>
      <use xlink:href="#DejaVuSans-39" x="126.660156"/>
      <use xlink:href="#DejaVuSans-5f" x="190.283203"/>
      <use xlink:href="#DejaVuSans-33" x="240.283203"/>
      <use xlink:href="#DejaVuSans-5f" x="303.90625"/>
      <use xlink:href="#DejaVuSans-32" x="353.90625"/>
      <use xlink:href="#DejaVuSans-32" x="417.529297"/>
      <use xlink:href="#DejaVuSans-47" x="481.152344"/>
      <use xlink:href="#DejaVuSans-48" x="558.642578"/>
      <use xlink:href="#DejaVuSans-35" x="633.837891"/>
      <use xlink:href="#DejaVuSans-47" x="697.460938"/>
      <use xlink:href="#DejaVuSans-4c" x="774.951172"/>
      <use xlink:href="#DejaVuSans-54" x="816.914062"/>
      <use xlink:href="#DejaVuSans-33" x="877.998047"/>
      <use xlink:href="#DejaVuSans-5f" x="941.621094"/>
      <use xlink:href="#DejaVuSans-47" x="991.621094"/>
      <use xlink:href="#DejaVuSans-47" x="1069.111328"/>
      <use xlink:href="#DejaVuSans-43" x="1146.601562"/>
      <use xlink:href="#DejaVuSans-47" x="1216.425781"/>
      <use xlink:href="#DejaVuSans-43" x="1293.916016"/>
      <use xlink:href="#DejaVuSans-43" x="1363.740234"/>
      <use xlink:href="#DejaVuSans-41" x="1433.564453"/>
      <use xlink:href="#DejaVuSans-54" x="1494.222656"/>
      <use xlink:href="#DejaVuSans-54" x="1553.556641"/>
      <use xlink:href="#DejaVuSans-47" x="1614.640625"/>
      <use xlink:href="#DejaVuSans-2d" x="1692.130859"/>
      <use xlink:href="#DejaVuSans-41" x="1725.964844"/>
      <use xlink:href="#DejaVuSans-43" x="1792.623047"/>
      <use xlink:href="#DejaVuSans-43" x="1862.447266"/>
      <use xlink:href="#DejaVuSans-47" x="1932.271484"/>
      <use xlink:href="#DejaVuSans-43" x="2009.761719"/>
      <use xlink:href="#DejaVuSans-47" x="2079.585938"/>
      <use xlink:href="#DejaVuSans-43" x="2157.076172"/>
      <use xlink:href="#DejaVuSans-41" x="2226.900391"/>
      <use xlink:href="#DejaVuSans-41" x="2298.058594"/>
      <use xlink:href="#DejaVuSans-54" x="2358.716797"/>
      <use xlink:href="#DejaVuSans-5f" x="2419.800781"/>
      <use xlink:href="#DejaVuSans-4c" x="2469.800781"/>
      <use xlink:href="#DejaVuSans-30" x="2525.513672"/>
      <use xlink:href="#DejaVuSans-30" x="2589.136719"/>
      <use xlink:href="#DejaVuSans-33" x="2652.759766"/>
      <use xlink:href="#DejaVuSans-5f" x="2716.382812"/>
      <use xlink:href="#DejaVuSans-54" x="2766.382812"/>
      <use xlink:href="#DejaVuSans-31" x="2827.466797"/>
      <use xlink:href="#DejaVuSans-5f" x="2891.089844"/>
      <use xlink:href="#DejaVuSans-31" x="2941.089844"/>
     </g>
    </g>
    <g id="line2d_32">
     <path d="M 715.470625 303.490394 
L 723.470625 303.490394 
L 731.470625 303.490394 
" style="fill: none; stroke: #d9534f; stroke-linecap: square"/>
    </g>
    <g id="text_28">
     <!-- TK9_3_22GH5GLT3_GGCGCCATTG-ACCGCGCAAT_L003_T1_2 -->
     <g transform="translate(737.870625 306.290394) scale(0.08 -0.08)">
      <use xlink:href="#DejaVuSans-54"/>
      <use xlink:href="#DejaVuSans-4b" x="61.083984"/>
      <use xlink:href="#DejaVuSans-39" x="126.660156"/>
      <use xlink:href="#DejaVuSans-5f" x="190.283203"/>
      <use xlink:href="#DejaVuSans-33" x="240.283203"/>
      <use xlink:href="#DejaVuSans-5f" x="303.90625"/>
      <use xlink:href="#DejaVuSans-32" x="353.90625"/>
      <use xlink:href="#DejaVuSans-32" x="417.529297"/>
      <use xlink:href="#DejaVuSans-47" x="481.152344"/>
      <use xlink:href="#DejaVuSans-48" x="558.642578"/>
      <use xlink:href="#DejaVuSans-35" x="633.837891"/>
      <use xlink:href="#DejaVuSans-47" x="697.460938"/>
      <use xlink:href="#DejaVuSans-4c" x="774.951172"/>
      <use xlink:href="#DejaVuSans-54" x="816.914062"/>
      <use xlink:href="#DejaVuSans-33" x="877.998047"/>
      <use xlink:href="#DejaVuSans-5f" x="941.621094"/>
      <use xlink:href="#DejaVuSans-47" x="991.621094"/>
      <use xlink:href="#DejaVuSans-47" x="1069.111328"/>
      <use xlink:href="#DejaVuSans-43" x="1146.601562"/>
      <use xlink:href="#DejaVuSans-47" x="1216.425781"/>
      <use xlink:href="#DejaVuSans-43" x="1293.916016"/>
      <use xlink:href="#DejaVuSans-43" x="1363.740234"/>
      <use xlink:href="#DejaVuSans-41" x="1433.564453"/>
      <use xlink:href="#DejaVuSans-54" x="1494.222656"/>
      <use xlink:href="#DejaVuSans-54" x="1553.556641"/>
      <use xlink:href="#DejaVuSans-47" x="1614.640625"/>
      <use xlink:href="#DejaVuSans-2d" x="1692.130859"/>
      <use xlink:href="#DejaVuSans-41" x="1725.964844"/>
      <use xlink:href="#DejaVuSans-43" x="1792.623047"/>
      <use xlink:href="#DejaVuSans-43" x="1862.447266"/>
      <use xlink:href="#DejaVuSans-47" x="1932.271484"/>
      <use xlink:href="#DejaVuSans-43" x="2009.761719"/>
      <use xlink:href="#DejaVuSans-47" x="2079.585938"/>
      <use xlink:href="#DejaVuSans-43" x="2157.076172"/>
      <use xlink:href="#DejaVuSans-41" x="2226.900391"/>
      <use xlink:href="#DejaVuSans-41" x="2298.058594"/>
      <use xlink:href="#DejaVuSans-54" x="2358.716797"/>
      <use xlink:href="#DejaVuSans-5f" x="2419.800781"/>
      <use xlink:href="#DejaVuSans-4c" x="2469.800781"/>
      <use xlink:href="#DejaVuSans-30" x="2525.513672"/>
      <use xlink:href="#DejaVuSans-30" x="2589.136719"/>
      <use xlink:href="#DejaVuSans-33" x="2652.759766"/>
      <use xlink:href="#DejaVuSans-5f" x="2716.382812"/>
      <use xlink:href="#DejaVuSans-54" x="2766.382812"/>
      <use xlink:href="#DejaVuSans-31" x="2827.466797"/>
      <use xlink:href="#DejaVuSans-5f" x="2891.089844"/>
      <use xlink:href="#DejaVuSans-32" x="2941.089844"/>
     </g>
    </g>
   </g>
  </g>
 </g>
 <defs>
  <clipPath id="p2a52a66f78">
   <rect x="40.600625" y="31.48286" width="944.845" height="242.5072"/>
  </clipPath>
 </defs>
</svg>
