<?xml version="1.0" encoding="utf-8" standalone="no"?>
<!DOCTYPE svg PUBLIC "-//W3C//DTD SVG 1.1//EN"
  "http://www.w3.org/Graphics/SVG/1.1/DTD/svg11.dtd">
<svg xmlns:xlink="http://www.w3.org/1999/xlink" width="1000.280625pt" height="330.541644pt" viewBox="0 0 1000.280625 330.541644" xmlns="http://www.w3.org/2000/svg" version="1.1">
 <metadata>
  <rdf:RDF xmlns:dc="http://purl.org/dc/elements/1.1/" xmlns:cc="http://creativecommons.org/ns#" xmlns:rdf="http://www.w3.org/1999/02/22-rdf-syntax-ns#">
   <cc:Work>
    <dc:type rdf:resource="http://purl.org/dc/dcmitype/StillImage"/>
    <dc:date>2023-10-18T13:16:33.822656</dc:date>
    <dc:format>image/svg+xml</dc:format>
    <dc:creator>
     <cc:Agent>
      <dc:title>Matplotlib v3.6.2, https://matplotlib.org/</dc:title>
     </cc:Agent>
    </dc:creator>
   </cc:Work>
  </rdf:RDF>
 </metadata>
 <defs>
  <style type="text/css">*{stroke-linejoin: round; stroke-linecap: butt}</style>
 </defs>
 <g id="figure_1">
  <g id="axes_1">
   <g id="patch_1">
    <path d="M 40.600625 273.99006 
L 985.445625 273.99006 
L 985.445625 31.48286 
L 40.600625 31.48286 
z
" style="fill: #ffffff"/>
   </g>
   <g id="matplotlib.axis_1">
    <g id="xtick_1">
     <g id="text_1">
      <!-- 0 -->
      <g transform="translate(38.055625 287.06881) scale(0.08 -0.08)">
       <defs>
        <path id="DejaVuSans-30" d="M 2034 4250 
Q 1547 4250 1301 3770 
Q 1056 3291 1056 2328 
Q 1056 1369 1301 889 
Q 1547 409 2034 409 
Q 2525 409 2770 889 
Q 3016 1369 3016 2328 
Q 3016 3291 2770 3770 
Q 2525 4250 2034 4250 
z
M 2034 4750 
Q 2819 4750 3233 4129 
Q 3647 3509 3647 2328 
Q 3647 1150 3233 529 
Q 2819 -91 2034 -91 
Q 1250 -91 836 529 
Q 422 1150 422 2328 
Q 422 3509 836 4129 
Q 1250 4750 2034 4750 
z
" transform="scale(0.015625)"/>
       </defs>
       <use xlink:href="#DejaVuSans-30"/>
      </g>
     </g>
    </g>
    <g id="xtick_2">
     <g id="text_2">
      <!-- 20 -->
      <g transform="translate(224.479625 287.06881) scale(0.08 -0.08)">
       <defs>
        <path id="DejaVuSans-32" d="M 1228 531 
L 3431 531 
L 3431 0 
L 469 0 
L 469 531 
Q 828 903 1448 1529 
Q 2069 2156 2228 2338 
Q 2531 2678 2651 2914 
Q 2772 3150 2772 3378 
Q 2772 3750 2511 3984 
Q 2250 4219 1831 4219 
Q 1534 4219 1204 4116 
Q 875 4013 500 3803 
L 500 4441 
Q 881 4594 1212 4672 
Q 1544 4750 1819 4750 
Q 2544 4750 2975 4387 
Q 3406 4025 3406 3419 
Q 3406 3131 3298 2873 
Q 3191 2616 2906 2266 
Q 2828 2175 2409 1742 
Q 1991 1309 1228 531 
z
" transform="scale(0.015625)"/>
       </defs>
       <use xlink:href="#DejaVuSans-32"/>
       <use xlink:href="#DejaVuSans-30" x="63.623047"/>
      </g>
     </g>
    </g>
    <g id="xtick_3">
     <g id="text_3">
      <!-- 40 -->
      <g transform="translate(413.448625 287.06881) scale(0.08 -0.08)">
       <defs>
        <path id="DejaVuSans-34" d="M 2419 4116 
L 825 1625 
L 2419 1625 
L 2419 4116 
z
M 2253 4666 
L 3047 4666 
L 3047 1625 
L 3713 1625 
L 3713 1100 
L 3047 1100 
L 3047 0 
L 2419 0 
L 2419 1100 
L 313 1100 
L 313 1709 
L 2253 4666 
z
" transform="scale(0.015625)"/>
       </defs>
       <use xlink:href="#DejaVuSans-34"/>
       <use xlink:href="#DejaVuSans-30" x="63.623047"/>
      </g>
     </g>
    </g>
    <g id="xtick_4">
     <g id="text_4">
      <!-- 60 -->
      <g transform="translate(602.417625 287.06881) scale(0.08 -0.08)">
       <defs>
        <path id="DejaVuSans-36" d="M 2113 2584 
Q 1688 2584 1439 2293 
Q 1191 2003 1191 1497 
Q 1191 994 1439 701 
Q 1688 409 2113 409 
Q 2538 409 2786 701 
Q 3034 994 3034 1497 
Q 3034 2003 2786 2293 
Q 2538 2584 2113 2584 
z
M 3366 4563 
L 3366 3988 
Q 3128 4100 2886 4159 
Q 2644 4219 2406 4219 
Q 1781 4219 1451 3797 
Q 1122 3375 1075 2522 
Q 1259 2794 1537 2939 
Q 1816 3084 2150 3084 
Q 2853 3084 3261 2657 
Q 3669 2231 3669 1497 
Q 3669 778 3244 343 
Q 2819 -91 2113 -91 
Q 1303 -91 875 529 
Q 447 1150 447 2328 
Q 447 3434 972 4092 
Q 1497 4750 2381 4750 
Q 2619 4750 2861 4703 
Q 3103 4656 3366 4563 
z
" transform="scale(0.015625)"/>
       </defs>
       <use xlink:href="#DejaVuSans-36"/>
       <use xlink:href="#DejaVuSans-30" x="63.623047"/>
      </g>
     </g>
    </g>
    <g id="xtick_5">
     <g id="text_5">
      <!-- 80 -->
      <g transform="translate(791.386625 287.06881) scale(0.08 -0.08)">
       <defs>
        <path id="DejaVuSans-38" d="M 2034 2216 
Q 1584 2216 1326 1975 
Q 1069 1734 1069 1313 
Q 1069 891 1326 650 
Q 1584 409 2034 409 
Q 2484 409 2743 651 
Q 3003 894 3003 1313 
Q 3003 1734 2745 1975 
Q 2488 2216 2034 2216 
z
M 1403 2484 
Q 997 2584 770 2862 
Q 544 3141 544 3541 
Q 544 4100 942 4425 
Q 1341 4750 2034 4750 
Q 2731 4750 3128 4425 
Q 3525 4100 3525 3541 
Q 3525 3141 3298 2862 
Q 3072 2584 2669 2484 
Q 3125 2378 3379 2068 
Q 3634 1759 3634 1313 
Q 3634 634 3220 271 
Q 2806 -91 2034 -91 
Q 1263 -91 848 271 
Q 434 634 434 1313 
Q 434 1759 690 2068 
Q 947 2378 1403 2484 
z
M 1172 3481 
Q 1172 3119 1398 2916 
Q 1625 2713 2034 2713 
Q 2441 2713 2670 2916 
Q 2900 3119 2900 3481 
Q 2900 3844 2670 4047 
Q 2441 4250 2034 4250 
Q 1625 4250 1398 4047 
Q 1172 3844 1172 3481 
z
" transform="scale(0.015625)"/>
       </defs>
       <use xlink:href="#DejaVuSans-38"/>
       <use xlink:href="#DejaVuSans-30" x="63.623047"/>
      </g>
     </g>
    </g>
    <g id="xtick_6">
     <g id="text_6">
      <!-- 100 -->
      <g transform="translate(977.810625 287.06881) scale(0.08 -0.08)">
       <defs>
        <path id="DejaVuSans-31" d="M 794 531 
L 1825 531 
L 1825 4091 
L 703 3866 
L 703 4441 
L 1819 4666 
L 2450 4666 
L 2450 531 
L 3481 531 
L 3481 0 
L 794 0 
L 794 531 
z
" transform="scale(0.015625)"/>
       </defs>
       <use xlink:href="#DejaVuSans-31"/>
       <use xlink:href="#DejaVuSans-30" x="63.623047"/>
       <use xlink:href="#DejaVuSans-30" x="127.246094"/>
      </g>
     </g>
    </g>
    <g id="text_7">
     <!-- % GC -->
     <g transform="translate(499.317656 300.330997) scale(0.1 -0.1)">
      <defs>
       <path id="DejaVuSans-25" d="M 4653 2053 
Q 4381 2053 4226 1822 
Q 4072 1591 4072 1178 
Q 4072 772 4226 539 
Q 4381 306 4653 306 
Q 4919 306 5073 539 
Q 5228 772 5228 1178 
Q 5228 1588 5073 1820 
Q 4919 2053 4653 2053 
z
M 4653 2450 
Q 5147 2450 5437 2106 
Q 5728 1763 5728 1178 
Q 5728 594 5436 251 
Q 5144 -91 4653 -91 
Q 4153 -91 3862 251 
Q 3572 594 3572 1178 
Q 3572 1766 3864 2108 
Q 4156 2450 4653 2450 
z
M 1428 4353 
Q 1159 4353 1004 4120 
Q 850 3888 850 3481 
Q 850 3069 1003 2837 
Q 1156 2606 1428 2606 
Q 1700 2606 1854 2837 
Q 2009 3069 2009 3481 
Q 2009 3884 1853 4118 
Q 1697 4353 1428 4353 
z
M 4250 4750 
L 4750 4750 
L 1831 -91 
L 1331 -91 
L 4250 4750 
z
M 1428 4750 
Q 1922 4750 2215 4408 
Q 2509 4066 2509 3481 
Q 2509 2891 2217 2550 
Q 1925 2209 1428 2209 
Q 931 2209 642 2551 
Q 353 2894 353 3481 
Q 353 4063 643 4406 
Q 934 4750 1428 4750 
z
" transform="scale(0.015625)"/>
       <path id="DejaVuSans-20" transform="scale(0.015625)"/>
       <path id="DejaVuSans-47" d="M 3809 666 
L 3809 1919 
L 2778 1919 
L 2778 2438 
L 4434 2438 
L 4434 434 
Q 4069 175 3628 42 
Q 3188 -91 2688 -91 
Q 1594 -91 976 548 
Q 359 1188 359 2328 
Q 359 3472 976 4111 
Q 1594 4750 2688 4750 
Q 3144 4750 3555 4637 
Q 3966 4525 4313 4306 
L 4313 3634 
Q 3963 3931 3569 4081 
Q 3175 4231 2741 4231 
Q 1884 4231 1454 3753 
Q 1025 3275 1025 2328 
Q 1025 1384 1454 906 
Q 1884 428 2741 428 
Q 3075 428 3337 486 
Q 3600 544 3809 666 
z
" transform="scale(0.015625)"/>
       <path id="DejaVuSans-43" d="M 4122 4306 
L 4122 3641 
Q 3803 3938 3442 4084 
Q 3081 4231 2675 4231 
Q 1875 4231 1450 3742 
Q 1025 3253 1025 2328 
Q 1025 1406 1450 917 
Q 1875 428 2675 428 
Q 3081 428 3442 575 
Q 3803 722 4122 1019 
L 4122 359 
Q 3791 134 3420 21 
Q 3050 -91 2638 -91 
Q 1578 -91 968 557 
Q 359 1206 359 2328 
Q 359 3453 968 4101 
Q 1578 4750 2638 4750 
Q 3056 4750 3426 4639 
Q 3797 4528 4122 4306 
z
" transform="scale(0.015625)"/>
      </defs>
      <use xlink:href="#DejaVuSans-25"/>
      <use xlink:href="#DejaVuSans-20" x="95.019531"/>
      <use xlink:href="#DejaVuSans-47" x="126.806641"/>
      <use xlink:href="#DejaVuSans-43" x="204.296875"/>
     </g>
    </g>
   </g>
   <g id="matplotlib.axis_2">
    <g id="ytick_1">
     <g id="line2d_1">
      <path d="M 40.600625 273.99006 
L 985.445625 273.99006 
" clip-path="url(#p3972605d59)" style="fill: none; stroke: #dedede; stroke-linecap: square"/>
     </g>
     <g id="text_8">
      <!-- 0.0 -->
      <g transform="translate(20.878125 277.029435) scale(0.08 -0.08)">
       <defs>
        <path id="DejaVuSans-2e" d="M 684 794 
L 1344 794 
L 1344 0 
L 684 0 
L 684 794 
z
" transform="scale(0.015625)"/>
       </defs>
       <use xlink:href="#DejaVuSans-30"/>
       <use xlink:href="#DejaVuSans-2e" x="63.623047"/>
       <use xlink:href="#DejaVuSans-30" x="95.410156"/>
      </g>
     </g>
    </g>
    <g id="ytick_2">
     <g id="line2d_2">
      <path d="M 40.600625 242.913956 
L 985.445625 242.913956 
" clip-path="url(#p3972605d59)" style="fill: none; stroke: #dedede; stroke-linecap: square"/>
     </g>
     <g id="text_9">
      <!-- 0.5 -->
      <g transform="translate(20.878125 245.953331) scale(0.08 -0.08)">
       <defs>
        <path id="DejaVuSans-35" d="M 691 4666 
L 3169 4666 
L 3169 4134 
L 1269 4134 
L 1269 2991 
Q 1406 3038 1543 3061 
Q 1681 3084 1819 3084 
Q 2600 3084 3056 2656 
Q 3513 2228 3513 1497 
Q 3513 744 3044 326 
Q 2575 -91 1722 -91 
Q 1428 -91 1123 -41 
Q 819 9 494 109 
L 494 744 
Q 775 591 1075 516 
Q 1375 441 1709 441 
Q 2250 441 2565 725 
Q 2881 1009 2881 1497 
Q 2881 1984 2565 2268 
Q 2250 2553 1709 2553 
Q 1456 2553 1204 2497 
Q 953 2441 691 2322 
L 691 4666 
z
" transform="scale(0.015625)"/>
       </defs>
       <use xlink:href="#DejaVuSans-30"/>
       <use xlink:href="#DejaVuSans-2e" x="63.623047"/>
       <use xlink:href="#DejaVuSans-35" x="95.410156"/>
      </g>
     </g>
    </g>
    <g id="ytick_3">
     <g id="line2d_3">
      <path d="M 40.600625 211.837851 
L 985.445625 211.837851 
" clip-path="url(#p3972605d59)" style="fill: none; stroke: #dedede; stroke-linecap: square"/>
     </g>
     <g id="text_10">
      <!-- 1.0 -->
      <g transform="translate(20.878125 214.877226) scale(0.08 -0.08)">
       <use xlink:href="#DejaVuSans-31"/>
       <use xlink:href="#DejaVuSans-2e" x="63.623047"/>
       <use xlink:href="#DejaVuSans-30" x="95.410156"/>
      </g>
     </g>
    </g>
    <g id="ytick_4">
     <g id="line2d_4">
      <path d="M 40.600625 180.761747 
L 985.445625 180.761747 
" clip-path="url(#p3972605d59)" style="fill: none; stroke: #dedede; stroke-linecap: square"/>
     </g>
     <g id="text_11">
      <!-- 1.5 -->
      <g transform="translate(20.878125 183.801122) scale(0.08 -0.08)">
       <use xlink:href="#DejaVuSans-31"/>
       <use xlink:href="#DejaVuSans-2e" x="63.623047"/>
       <use xlink:href="#DejaVuSans-35" x="95.410156"/>
      </g>
     </g>
    </g>
    <g id="ytick_5">
     <g id="line2d_5">
      <path d="M 40.600625 149.685642 
L 985.445625 149.685642 
" clip-path="url(#p3972605d59)" style="fill: none; stroke: #dedede; stroke-linecap: square"/>
     </g>
     <g id="text_12">
      <!-- 2.0 -->
      <g transform="translate(20.878125 152.725017) scale(0.08 -0.08)">
       <use xlink:href="#DejaVuSans-32"/>
       <use xlink:href="#DejaVuSans-2e" x="63.623047"/>
       <use xlink:href="#DejaVuSans-30" x="95.410156"/>
      </g>
     </g>
    </g>
    <g id="ytick_6">
     <g id="line2d_6">
      <path d="M 40.600625 118.609538 
L 985.445625 118.609538 
" clip-path="url(#p3972605d59)" style="fill: none; stroke: #dedede; stroke-linecap: square"/>
     </g>
     <g id="text_13">
      <!-- 2.5 -->
      <g transform="translate(20.878125 121.648913) scale(0.08 -0.08)">
       <use xlink:href="#DejaVuSans-32"/>
       <use xlink:href="#DejaVuSans-2e" x="63.623047"/>
       <use xlink:href="#DejaVuSans-35" x="95.410156"/>
      </g>
     </g>
    </g>
    <g id="ytick_7">
     <g id="line2d_7">
      <path d="M 40.600625 87.533433 
L 985.445625 87.533433 
" clip-path="url(#p3972605d59)" style="fill: none; stroke: #dedede; stroke-linecap: square"/>
     </g>
     <g id="text_14">
      <!-- 3.0 -->
      <g transform="translate(20.878125 90.572808) scale(0.08 -0.08)">
       <defs>
        <path id="DejaVuSans-33" d="M 2597 2516 
Q 3050 2419 3304 2112 
Q 3559 1806 3559 1356 
Q 3559 666 3084 287 
Q 2609 -91 1734 -91 
Q 1441 -91 1130 -33 
Q 819 25 488 141 
L 488 750 
Q 750 597 1062 519 
Q 1375 441 1716 441 
Q 2309 441 2620 675 
Q 2931 909 2931 1356 
Q 2931 1769 2642 2001 
Q 2353 2234 1838 2234 
L 1294 2234 
L 1294 2753 
L 1863 2753 
Q 2328 2753 2575 2939 
Q 2822 3125 2822 3475 
Q 2822 3834 2567 4026 
Q 2313 4219 1838 4219 
Q 1578 4219 1281 4162 
Q 984 4106 628 3988 
L 628 4550 
Q 988 4650 1302 4700 
Q 1616 4750 1894 4750 
Q 2613 4750 3031 4423 
Q 3450 4097 3450 3541 
Q 3450 3153 3228 2886 
Q 3006 2619 2597 2516 
z
" transform="scale(0.015625)"/>
       </defs>
       <use xlink:href="#DejaVuSans-33"/>
       <use xlink:href="#DejaVuSans-2e" x="63.623047"/>
       <use xlink:href="#DejaVuSans-30" x="95.410156"/>
      </g>
     </g>
    </g>
    <g id="ytick_8">
     <g id="line2d_8">
      <path d="M 40.600625 56.457329 
L 985.445625 56.457329 
" clip-path="url(#p3972605d59)" style="fill: none; stroke: #dedede; stroke-linecap: square"/>
     </g>
     <g id="text_15">
      <!-- 3.5 -->
      <g transform="translate(20.878125 59.496704) scale(0.08 -0.08)">
       <use xlink:href="#DejaVuSans-33"/>
       <use xlink:href="#DejaVuSans-2e" x="63.623047"/>
       <use xlink:href="#DejaVuSans-35" x="95.410156"/>
      </g>
     </g>
    </g>
    <g id="text_16">
     <!-- Percentage -->
     <g transform="translate(14.798438 180.859116) rotate(-90) scale(0.1 -0.1)">
      <defs>
       <path id="DejaVuSans-50" d="M 1259 4147 
L 1259 2394 
L 2053 2394 
Q 2494 2394 2734 2622 
Q 2975 2850 2975 3272 
Q 2975 3691 2734 3919 
Q 2494 4147 2053 4147 
L 1259 4147 
z
M 628 4666 
L 2053 4666 
Q 2838 4666 3239 4311 
Q 3641 3956 3641 3272 
Q 3641 2581 3239 2228 
Q 2838 1875 2053 1875 
L 1259 1875 
L 1259 0 
L 628 0 
L 628 4666 
z
" transform="scale(0.015625)"/>
       <path id="DejaVuSans-65" d="M 3597 1894 
L 3597 1613 
L 953 1613 
Q 991 1019 1311 708 
Q 1631 397 2203 397 
Q 2534 397 2845 478 
Q 3156 559 3463 722 
L 3463 178 
Q 3153 47 2828 -22 
Q 2503 -91 2169 -91 
Q 1331 -91 842 396 
Q 353 884 353 1716 
Q 353 2575 817 3079 
Q 1281 3584 2069 3584 
Q 2775 3584 3186 3129 
Q 3597 2675 3597 1894 
z
M 3022 2063 
Q 3016 2534 2758 2815 
Q 2500 3097 2075 3097 
Q 1594 3097 1305 2825 
Q 1016 2553 972 2059 
L 3022 2063 
z
" transform="scale(0.015625)"/>
       <path id="DejaVuSans-72" d="M 2631 2963 
Q 2534 3019 2420 3045 
Q 2306 3072 2169 3072 
Q 1681 3072 1420 2755 
Q 1159 2438 1159 1844 
L 1159 0 
L 581 0 
L 581 3500 
L 1159 3500 
L 1159 2956 
Q 1341 3275 1631 3429 
Q 1922 3584 2338 3584 
Q 2397 3584 2469 3576 
Q 2541 3569 2628 3553 
L 2631 2963 
z
" transform="scale(0.015625)"/>
       <path id="DejaVuSans-63" d="M 3122 3366 
L 3122 2828 
Q 2878 2963 2633 3030 
Q 2388 3097 2138 3097 
Q 1578 3097 1268 2742 
Q 959 2388 959 1747 
Q 959 1106 1268 751 
Q 1578 397 2138 397 
Q 2388 397 2633 464 
Q 2878 531 3122 666 
L 3122 134 
Q 2881 22 2623 -34 
Q 2366 -91 2075 -91 
Q 1284 -91 818 406 
Q 353 903 353 1747 
Q 353 2603 823 3093 
Q 1294 3584 2113 3584 
Q 2378 3584 2631 3529 
Q 2884 3475 3122 3366 
z
" transform="scale(0.015625)"/>
       <path id="DejaVuSans-6e" d="M 3513 2113 
L 3513 0 
L 2938 0 
L 2938 2094 
Q 2938 2591 2744 2837 
Q 2550 3084 2163 3084 
Q 1697 3084 1428 2787 
Q 1159 2491 1159 1978 
L 1159 0 
L 581 0 
L 581 3500 
L 1159 3500 
L 1159 2956 
Q 1366 3272 1645 3428 
Q 1925 3584 2291 3584 
Q 2894 3584 3203 3211 
Q 3513 2838 3513 2113 
z
" transform="scale(0.015625)"/>
       <path id="DejaVuSans-74" d="M 1172 4494 
L 1172 3500 
L 2356 3500 
L 2356 3053 
L 1172 3053 
L 1172 1153 
Q 1172 725 1289 603 
Q 1406 481 1766 481 
L 2356 481 
L 2356 0 
L 1766 0 
Q 1100 0 847 248 
Q 594 497 594 1153 
L 594 3053 
L 172 3053 
L 172 3500 
L 594 3500 
L 594 4494 
L 1172 4494 
z
" transform="scale(0.015625)"/>
       <path id="DejaVuSans-61" d="M 2194 1759 
Q 1497 1759 1228 1600 
Q 959 1441 959 1056 
Q 959 750 1161 570 
Q 1363 391 1709 391 
Q 2188 391 2477 730 
Q 2766 1069 2766 1631 
L 2766 1759 
L 2194 1759 
z
M 3341 1997 
L 3341 0 
L 2766 0 
L 2766 531 
Q 2569 213 2275 61 
Q 1981 -91 1556 -91 
Q 1019 -91 701 211 
Q 384 513 384 1019 
Q 384 1609 779 1909 
Q 1175 2209 1959 2209 
L 2766 2209 
L 2766 2266 
Q 2766 2663 2505 2880 
Q 2244 3097 1772 3097 
Q 1472 3097 1187 3025 
Q 903 2953 641 2809 
L 641 3341 
Q 956 3463 1253 3523 
Q 1550 3584 1831 3584 
Q 2591 3584 2966 3190 
Q 3341 2797 3341 1997 
z
" transform="scale(0.015625)"/>
       <path id="DejaVuSans-67" d="M 2906 1791 
Q 2906 2416 2648 2759 
Q 2391 3103 1925 3103 
Q 1463 3103 1205 2759 
Q 947 2416 947 1791 
Q 947 1169 1205 825 
Q 1463 481 1925 481 
Q 2391 481 2648 825 
Q 2906 1169 2906 1791 
z
M 3481 434 
Q 3481 -459 3084 -895 
Q 2688 -1331 1869 -1331 
Q 1566 -1331 1297 -1286 
Q 1028 -1241 775 -1147 
L 775 -588 
Q 1028 -725 1275 -790 
Q 1522 -856 1778 -856 
Q 2344 -856 2625 -561 
Q 2906 -266 2906 331 
L 2906 616 
Q 2728 306 2450 153 
Q 2172 0 1784 0 
Q 1141 0 747 490 
Q 353 981 353 1791 
Q 353 2603 747 3093 
Q 1141 3584 1784 3584 
Q 2172 3584 2450 3431 
Q 2728 3278 2906 2969 
L 2906 3500 
L 3481 3500 
L 3481 434 
z
" transform="scale(0.015625)"/>
      </defs>
      <use xlink:href="#DejaVuSans-50"/>
      <use xlink:href="#DejaVuSans-65" x="56.677734"/>
      <use xlink:href="#DejaVuSans-72" x="118.201172"/>
      <use xlink:href="#DejaVuSans-63" x="157.064453"/>
      <use xlink:href="#DejaVuSans-65" x="212.044922"/>
      <use xlink:href="#DejaVuSans-6e" x="273.568359"/>
      <use xlink:href="#DejaVuSans-74" x="336.947266"/>
      <use xlink:href="#DejaVuSans-61" x="376.15625"/>
      <use xlink:href="#DejaVuSans-67" x="437.435547"/>
      <use xlink:href="#DejaVuSans-65" x="500.912109"/>
     </g>
    </g>
   </g>
   <g id="line2d_9">
    <path d="M 40.600625 273.962235 
L 50.049075 273.970224 
L 59.497525 273.97601 
L 68.945975 273.971464 
L 78.394425 273.969811 
L 87.842875 273.972015 
L 97.291325 273.972566 
L 106.739775 273.972153 
L 116.188225 273.973944 
L 125.636675 273.975734 
L 135.085125 273.973117 
L 144.533575 273.966505 
L 153.982025 273.955899 
L 163.430475 273.932206 
L 172.878925 273.903555 
L 182.327375 273.865123 
L 191.775825 273.775588 
L 201.224275 273.599822 
L 210.672725 273.334797 
L 220.121175 272.930096 
L 229.569625 271.292007 
L 239.018075 269.874176 
L 248.466525 269.072075 
L 257.914975 267.180393 
L 267.363425 264.472285 
L 276.811875 261.003813 
L 286.260325 256.402646 
L 295.708775 250.338467 
L 305.157225 242.665677 
L 314.605675 232.455998 
L 324.054125 221.267626 
L 333.502575 210.510954 
L 342.951025 199.469558 
L 352.399475 188.270304 
L 361.847925 174.569012 
L 371.296375 163.397307 
L 380.744825 154.850512 
L 390.193275 145.385081 
L 399.641725 138.724181 
L 409.090175 130.807028 
L 418.538625 122.362303 
L 427.987075 116.311072 
L 437.435525 108.92576 
L 446.883975 103.684896 
L 456.332425 103.968792 
L 465.780875 104.505042 
L 475.229325 102.528784 
L 484.677775 101.472677 
L 494.126225 99.489118 
L 503.574675 101.239747 
L 513.023125 98.299121 
L 522.471575 93.528525 
L 531.920025 98.434664 
L 541.368475 97.853785 
L 550.816925 93.2427 
L 560.265375 86.083156 
L 569.713825 85.359708 
L 579.162275 99.162796 
L 588.610725 92.809347 
L 598.059175 84.579646 
L 607.507625 90.310202 
L 616.956075 110.571701 
L 626.404525 132.731768 
L 635.852975 150.121515 
L 645.301425 176.707398 
L 654.749875 193.226996 
L 664.198325 204.132573 
L 673.646775 212.689011 
L 683.095225 222.48655 
L 692.543675 231.667947 
L 701.992125 237.558289 
L 711.440575 240.608974 
L 720.889025 242.401478 
L 730.337475 242.740611 
L 739.785925 242.822984 
L 749.234375 243.408409 
L 758.682825 236.526701 
L 768.131275 231.356087 
L 777.579725 238.100186 
L 787.028175 246.286773 
L 796.476625 246.738583 
L 805.925075 238.36714 
L 815.373525 239.043616 
L 824.821975 250.338467 
L 834.270425 256.681033 
L 843.718875 254.688383 
L 853.167325 253.469045 
L 862.615775 258.198593 
L 872.064225 265.855817 
L 881.512675 272.105679 
L 890.961125 273.465932 
L 900.409575 273.83964 
L 909.858025 273.941986 
L 919.306475 273.96926 
L 928.754925 273.980004 
L 938.203375 273.982208 
L 947.651825 273.980555 
L 957.100275 273.974357 
L 966.548725 273.949011 
L 975.997175 273.957827 
L 985.445625 273.988269 
" clip-path="url(#p3972605d59)" style="fill: none; stroke: #f0ad4e; stroke-linecap: square"/>
   </g>
   <g id="line2d_10">
    <path d="M 40.600625 273.950919 
L 50.049075 273.961806 
L 59.497525 273.977932 
L 68.945975 273.982755 
L 78.394425 273.979448 
L 87.842875 273.973521 
L 97.291325 273.97421 
L 106.739775 273.978896 
L 116.188225 273.979034 
L 125.636675 273.976553 
L 135.085125 273.974624 
L 144.533575 273.967457 
L 153.982025 273.946922 
L 163.430475 273.930797 
L 172.878925 273.913431 
L 182.327375 273.867398 
L 191.775825 273.777814 
L 201.224275 273.629931 
L 210.672725 273.398665 
L 220.121175 272.965077 
L 229.569625 272.215325 
L 239.018075 271.12722 
L 248.466525 269.573413 
L 257.914975 266.720772 
L 267.363425 263.278527 
L 276.811875 259.652153 
L 286.260325 254.551495 
L 295.708775 247.142731 
L 305.157225 237.776617 
L 314.605675 228.757402 
L 324.054125 219.668035 
L 333.502575 209.053529 
L 342.951025 197.859068 
L 352.399475 187.658166 
L 361.847925 178.543854 
L 371.296375 168.561951 
L 380.744825 159.097019 
L 390.193275 150.336496 
L 399.641725 142.078059 
L 409.090175 134.827514 
L 418.538625 127.607291 
L 427.987075 118.335723 
L 437.435525 110.084039 
L 446.883975 108.503357 
L 456.332425 109.024876 
L 465.780875 108.514245 
L 475.229325 107.747265 
L 484.677775 107.625017 
L 494.126225 109.054921 
L 503.574675 111.060095 
L 513.023125 111.266552 
L 522.471575 106.700645 
L 531.920025 101.258602 
L 541.368475 99.520114 
L 550.816925 99.695837 
L 560.265375 99.36975 
L 569.713825 97.032701 
L 579.162275 93.7054 
L 588.610725 86.72099 
L 598.059175 79.440125 
L 607.507625 78.747155 
L 616.956075 89.620077 
L 626.404525 120.39258 
L 635.852975 151.207256 
L 645.301425 171.924121 
L 654.749875 190.563042 
L 664.198325 202.360613 
L 673.646775 211.605857 
L 683.095225 218.149925 
L 692.543675 224.995961 
L 701.992125 233.745321 
L 711.440575 238.868995 
L 720.889025 241.841266 
L 730.337475 242.08783 
L 739.785925 240.280982 
L 749.234375 238.353403 
L 758.682825 234.992887 
L 768.131275 230.956491 
L 777.579725 233.568771 
L 787.028175 241.50815 
L 796.476625 244.699559 
L 805.925075 243.837481 
L 815.373525 245.418576 
L 824.821975 247.988683 
L 834.270425 251.262922 
L 843.718875 253.1147 
L 853.167325 252.424762 
L 862.615775 256.79896 
L 872.064225 264.770038 
L 881.512675 270.053861 
L 890.961125 272.223456 
L 900.409575 273.189865 
L 909.858025 273.612979 
L 919.306475 273.722134 
L 928.754925 273.755211 
L 938.203375 273.777263 
L 947.651825 273.764583 
L 957.100275 273.68506 
L 966.548725 273.493349 
L 975.997175 272.815127 
L 985.445625 269.741832 
" clip-path="url(#p3972605d59)" style="fill: none; stroke: #d9534f; stroke-linecap: square"/>
   </g>
   <g id="line2d_11">
    <path d="M 40.600625 273.971991 
L 50.049075 273.976112 
L 59.497525 273.976746 
L 68.945975 273.974686 
L 78.394425 273.974052 
L 87.842875 273.972784 
L 97.291325 273.973418 
L 106.739775 273.97532 
L 116.188225 273.975795 
L 125.636675 273.973259 
L 135.085125 273.975478 
L 144.533575 273.972942 
L 153.982025 273.963274 
L 163.430475 273.945997 
L 172.878925 273.919053 
L 182.327375 273.884342 
L 191.775825 273.798911 
L 201.224275 273.623454 
L 210.672725 273.375404 
L 220.121175 273.014028 
L 229.569625 271.618134 
L 239.018075 270.362828 
L 248.466525 269.592526 
L 257.914975 267.879636 
L 267.363425 265.357612 
L 276.811875 262.204923 
L 286.260325 257.973338 
L 295.708775 252.069912 
L 305.157225 244.725104 
L 314.605675 235.107589 
L 324.054125 224.196412 
L 333.502575 213.526311 
L 342.951025 202.568218 
L 352.399475 191.239556 
L 361.847925 177.789554 
L 371.296375 166.632229 
L 380.744825 158.060486 
L 390.193275 148.449945 
L 399.641725 141.240336 
L 409.090175 133.347758 
L 418.538625 124.440632 
L 427.987075 118.161883 
L 437.435525 111.015673 
L 446.883975 105.482024 
L 456.332425 105.442558 
L 465.780875 105.535913 
L 475.229325 103.338969 
L 484.677775 102.070666 
L 494.126225 99.935378 
L 503.574675 101.173883 
L 513.023125 98.132778 
L 522.471575 93.45391 
L 531.920025 97.570743 
L 541.368475 96.730227 
L 550.816925 92.041849 
L 560.265375 85.067609 
L 569.713825 84.772327 
L 579.162275 97.349321 
L 588.610725 90.082811 
L 598.059175 81.818713 
L 607.507625 88.693574 
L 616.956075 108.561486 
L 626.404525 129.525414 
L 635.852975 147.751127 
L 645.301425 174.351252 
L 654.749875 191.254297 
L 664.198325 202.325716 
L 673.646775 210.482986 
L 683.095225 220.389918 
L 692.543675 229.942449 
L 701.992125 236.053665 
L 711.440575 239.197636 
L 720.889025 240.81099 
L 730.337475 241.211039 
L 739.785925 241.483339 
L 749.234375 241.802872 
L 758.682825 235.123598 
L 768.131275 230.307629 
L 777.579725 237.178369 
L 787.028175 245.089491 
L 796.476625 245.094088 
L 805.925075 236.884196 
L 815.373525 237.78082 
L 824.821975 249.442804 
L 834.270425 256.055667 
L 843.718875 254.46799 
L 853.167325 253.1878 
L 862.615775 257.830689 
L 872.064225 265.751956 
L 881.512675 271.985691 
L 890.961125 273.441022 
L 900.409575 273.82966 
L 909.858025 273.932684 
L 919.306475 273.961055 
L 928.754925 273.976746 
L 938.203375 273.981026 
L 947.651825 273.982452 
L 957.100275 273.973259 
L 966.548725 273.950435 
L 975.997175 273.962164 
L 985.445625 273.988792 
" clip-path="url(#p3972605d59)" style="fill: none; stroke: #f0ad4e; stroke-linecap: square"/>
   </g>
   <g id="line2d_12">
    <path d="M 40.600625 273.963097 
L 50.049075 273.9696 
L 59.497525 273.978799 
L 68.945975 273.981971 
L 78.394425 273.981495 
L 87.842875 273.97642 
L 97.291325 273.975786 
L 106.739775 273.98213 
L 116.188225 273.982447 
L 125.636675 273.976737 
L 135.085125 273.97531 
L 144.533575 273.97071 
L 153.982025 273.953264 
L 163.430475 273.935659 
L 172.878925 273.92075 
L 182.327375 273.881575 
L 191.775825 273.801321 
L 201.224275 273.687285 
L 210.672725 273.492043 
L 220.121175 273.113613 
L 229.569625 272.478879 
L 239.018075 271.48792 
L 248.466525 270.143274 
L 257.914975 267.647479 
L 267.363425 264.470954 
L 276.811875 261.154382 
L 286.260325 256.39134 
L 295.708775 249.389124 
L 305.157225 240.583103 
L 314.605675 231.694132 
L 324.054125 222.689221 
L 333.502575 212.588989 
L 342.951025 201.549345 
L 352.399475 191.257362 
L 361.847925 181.677669 
L 371.296375 171.593139 
L 380.744825 162.393621 
L 390.193275 153.553341 
L 399.641725 145.111634 
L 409.090175 137.671988 
L 418.538625 130.308789 
L 427.987075 121.104988 
L 437.435525 112.886437 
L 446.883975 110.538143 
L 456.332425 110.605709 
L 465.780875 110.004916 
L 475.229325 109.102141 
L 484.677775 108.561935 
L 494.126225 109.575416 
L 503.574675 111.335922 
L 513.023125 110.864868 
L 522.471575 106.626171 
L 531.920025 101.82665 
L 541.368475 99.350046 
L 550.816925 98.752267 
L 560.265375 98.467413 
L 569.713825 96.068525 
L 579.162275 92.193508 
L 588.610725 84.686296 
L 598.059175 77.654738 
L 607.507625 76.861559 
L 616.956075 86.800807 
L 626.404525 115.675491 
L 635.852975 146.377613 
L 645.301425 168.417408 
L 654.749875 187.066405 
L 664.198325 199.702082 
L 673.646775 209.463853 
L 683.095225 216.330938 
L 692.543675 223.32681 
L 701.992125 231.716653 
L 711.440575 237.023391 
L 720.889025 240.298726 
L 730.337475 240.775648 
L 739.785925 239.146308 
L 749.234375 237.132193 
L 758.682825 233.643218 
L 768.131275 229.504125 
L 777.579725 231.59088 
L 787.028175 239.253841 
L 796.476625 243.001341 
L 805.925075 242.708399 
L 815.373525 244.219738 
L 824.821975 247.053836 
L 834.270425 250.298243 
L 843.718875 252.367235 
L 853.167325 252.314896 
L 862.615775 256.384044 
L 872.064225 263.998948 
L 881.512675 269.434155 
L 890.961125 271.910759 
L 900.409575 272.998308 
L 909.858025 273.508221 
L 919.306475 273.675231 
L 928.754925 273.711868 
L 938.203375 273.730425 
L 947.651825 273.736769 
L 957.100275 273.678244 
L 966.548725 273.49918 
L 975.997175 272.873011 
L 985.445625 269.022577 
" clip-path="url(#p3972605d59)" style="fill: none; stroke: #d9534f; stroke-linecap: square"/>
   </g>
   <g id="line2d_13">
    <path d="M 40.600625 273.964467 
L 50.049075 273.970177 
L 59.497525 273.977756 
L 68.945975 273.976575 
L 78.394425 273.971653 
L 87.842875 273.972342 
L 97.291325 273.975689 
L 106.739775 273.975 
L 116.188225 273.974901 
L 125.636675 273.976575 
L 135.085125 273.975295 
L 144.533575 273.97057 
L 153.982025 273.960038 
L 163.430475 273.941434 
L 172.878925 273.915743 
L 182.327375 273.876074 
L 191.775825 273.788764 
L 201.224275 273.623101 
L 210.672725 273.368947 
L 220.121175 272.990472 
L 229.569625 271.562897 
L 239.018075 270.323034 
L 248.466525 269.588329 
L 257.914975 267.820373 
L 267.363425 265.420475 
L 276.811875 262.380566 
L 286.260325 258.139183 
L 295.708775 252.558421 
L 305.157225 245.792918 
L 314.605675 236.727723 
L 324.054125 225.973908 
L 333.502575 215.453282 
L 342.951025 204.607235 
L 352.399475 193.249435 
L 361.847925 179.48908 
L 371.296375 168.121043 
L 380.744825 159.095221 
L 390.193275 149.202401 
L 399.641725 142.714873 
L 409.090175 134.874087 
L 418.538625 126.008219 
L 427.987075 119.513801 
L 437.435525 110.983589 
L 446.883975 104.940684 
L 456.332425 105.654914 
L 465.780875 105.536696 
L 475.229325 102.590298 
L 484.677775 102.341952 
L 494.126225 99.969518 
L 503.574675 99.911048 
L 513.023125 96.095782 
L 522.471575 90.885423 
L 531.920025 96.691991 
L 541.368475 96.326312 
L 550.816925 89.768208 
L 560.265375 79.628517 
L 569.713825 74.284979 
L 579.162275 89.304686 
L 588.610725 88.306673 
L 598.059175 80.793965 
L 607.507625 83.128896 
L 616.956075 103.365459 
L 626.404525 129.557027 
L 635.852975 146.99809 
L 645.301425 173.451884 
L 654.749875 191.421434 
L 664.198325 203.296599 
L 673.646775 212.594489 
L 683.095225 222.145255 
L 692.543675 230.809827 
L 701.992125 236.101492 
L 711.440575 238.696089 
L 720.889025 240.490229 
L 730.337475 241.758244 
L 739.785925 243.420878 
L 749.234375 244.395168 
L 758.682825 237.98806 
L 768.131275 233.948169 
L 777.579725 241.818879 
L 787.028175 248.773373 
L 796.476625 248.343516 
L 805.925075 242.321282 
L 815.373525 242.747005 
L 824.821975 251.010856 
L 834.270425 255.690168 
L 843.718875 252.153566 
L 853.167325 249.192305 
L 862.615775 254.526787 
L 872.064225 263.879899 
L 881.512675 271.269468 
L 890.961125 273.18409 
L 900.409575 273.822428 
L 909.858025 273.945667 
L 919.306475 273.968503 
L 928.754925 273.979134 
L 938.203375 273.982284 
L 947.651825 273.981201 
L 957.100275 273.972047 
L 966.548725 273.934642 
L 975.997175 273.945667 
L 985.445625 273.987796 
" clip-path="url(#p3972605d59)" style="fill: none; stroke: #d9534f; stroke-linecap: square"/>
   </g>
   <g id="line2d_14">
    <path d="M 40.600625 273.957756 
L 50.049075 273.966423 
L 59.497525 273.978537 
L 68.945975 273.979916 
L 78.394425 273.97834 
L 87.842875 273.975188 
L 97.291325 273.974597 
L 106.739775 273.979226 
L 116.188225 273.978143 
L 125.636675 273.976469 
L 135.085125 273.974597 
L 144.533575 273.968786 
L 153.982025 273.953028 
L 163.430475 273.934906 
L 172.878925 273.909989 
L 182.327375 273.861926 
L 191.775825 273.776241 
L 201.224275 273.64407 
L 210.672725 273.431236 
L 220.121175 273.036691 
L 229.569625 272.365786 
L 239.018075 271.409955 
L 248.466525 270.007576 
L 257.914975 267.467556 
L 267.363425 264.490739 
L 276.811875 261.24298 
L 286.260325 256.491103 
L 295.708775 249.885081 
L 305.157225 241.490506 
L 314.605675 232.790124 
L 324.054125 223.872771 
L 333.502575 213.584163 
L 342.951025 202.196816 
L 352.399475 191.332246 
L 361.847925 181.587097 
L 371.296375 171.361226 
L 380.744825 161.64523 
L 390.193275 152.806274 
L 399.641725 144.812942 
L 409.090175 137.771994 
L 418.538625 130.080529 
L 427.987075 120.078916 
L 437.435525 111.086614 
L 446.883975 108.900857 
L 456.332425 109.487652 
L 465.780875 109.620907 
L 475.229325 109.28772 
L 484.677775 108.531722 
L 494.126225 109.161851 
L 503.574675 110.746336 
L 513.023125 110.288265 
L 522.471575 106.001944 
L 531.920025 101.893198 
L 541.368475 99.907373 
L 550.816925 97.919283 
L 560.265375 97.106259 
L 569.713825 94.019234 
L 579.162275 90.364027 
L 588.610725 85.454667 
L 598.059175 74.173491 
L 607.507625 65.523338 
L 616.956075 77.690715 
L 626.404525 113.823217 
L 635.852975 145.924878 
L 645.301425 168.170491 
L 654.749875 188.355232 
L 664.198325 200.762231 
L 673.646775 210.262143 
L 683.095225 217.905644 
L 692.543675 225.361919 
L 701.992125 233.989419 
L 711.440575 239.301991 
L 720.889025 242.820495 
L 730.337475 243.565069 
L 739.785925 241.071338 
L 749.234375 239.243686 
L 758.682825 237.641572 
L 768.131275 235.18832 
L 777.579725 237.408647 
L 787.028175 244.317325 
L 796.476625 247.729757 
L 805.925075 246.803964 
L 815.373525 247.283308 
L 824.821975 248.645996 
L 834.270425 250.610843 
L 843.718875 250.541113 
L 853.167325 248.259428 
L 862.615775 251.747007 
L 872.064225 259.585023 
L 881.512675 266.585197 
L 890.961125 270.779825 
L 900.409575 272.677503 
L 909.858025 273.537702 
L 919.306475 273.743642 
L 928.754925 273.78678 
L 938.203375 273.795742 
L 947.651825 273.770529 
L 957.100275 273.682185 
L 966.548725 273.480579 
L 975.997175 272.813417 
L 985.445625 269.628888 
" clip-path="url(#p3972605d59)" style="fill: none; stroke: #d9534f; stroke-linecap: square"/>
   </g>
   <g id="line2d_15">
    <path d="M 40.600625 273.97214 
L 50.049075 273.976735 
L 59.497525 273.979836 
L 68.945975 273.973978 
L 78.394425 273.973404 
L 87.842875 273.97708 
L 97.291325 273.97685 
L 106.739775 273.978113 
L 116.188225 273.978113 
L 125.636675 273.976275 
L 135.085125 273.973404 
L 144.533575 273.968349 
L 153.982025 273.959619 
L 163.430475 273.944226 
L 172.878925 273.921941 
L 182.327375 273.890926 
L 191.775825 273.812813 
L 201.224275 273.659804 
L 210.672725 273.433162 
L 220.121175 273.104744 
L 229.569625 271.900545 
L 239.018075 270.720929 
L 248.466525 270.006542 
L 257.914975 268.472891 
L 267.363425 266.248288 
L 276.811875 263.40533 
L 286.260325 259.462936 
L 295.708775 254.24742 
L 305.157225 247.738335 
L 314.605675 239.142607 
L 324.054125 228.854935 
L 333.502575 218.336716 
L 342.951025 207.499269 
L 352.399475 196.211409 
L 361.847925 182.963151 
L 371.296375 171.631641 
L 380.744825 162.294991 
L 390.193275 152.40937 
L 399.641725 145.567272 
L 409.090175 137.617122 
L 418.538625 128.661042 
L 427.987075 122.010895 
L 437.435525 113.45273 
L 446.883975 107.103546 
L 456.332425 107.122959 
L 465.780875 106.959842 
L 475.229325 104.287583 
L 484.677775 103.483712 
L 494.126225 100.979396 
L 503.574675 100.656491 
L 513.023125 96.601294 
L 522.471575 91.03071 
L 531.920025 95.939404 
L 541.368475 95.280385 
L 550.816925 88.669409 
L 560.265375 78.859028 
L 569.713825 74.037637 
L 579.162275 87.572155 
L 588.610725 85.192934 
L 598.059175 77.428877 
L 607.507625 80.990241 
L 616.956075 100.565169 
L 626.404525 125.572719 
L 635.852975 144.10576 
L 645.301425 170.619622 
L 654.749875 189.127162 
L 664.198325 201.30183 
L 673.646775 210.586903 
L 683.095225 220.291716 
L 692.543675 229.352904 
L 701.992125 234.638376 
L 711.440575 237.263767 
L 720.889025 239.081036 
L 730.337475 240.212522 
L 739.785925 241.891944 
L 749.234375 242.667558 
L 758.682825 236.426009 
L 768.131275 232.514285 
L 777.579725 240.074101 
L 787.028175 247.158463 
L 796.476625 246.747682 
L 805.925075 240.826625 
L 815.373525 241.550546 
L 824.821975 250.04243 
L 834.270425 254.99937 
L 843.718875 251.844191 
L 853.167325 248.714514 
L 862.615775 253.838248 
L 872.064225 263.577293 
L 881.512675 271.094951 
L 890.961125 273.118759 
L 900.409575 273.797765 
L 909.858025 273.936415 
L 919.306475 273.96789 
L 928.754925 273.979951 
L 938.203375 273.98087 
L 947.651825 273.979836 
L 957.100275 273.96766 
L 966.548725 273.936185 
L 975.997175 273.950659 
L 985.445625 273.987992 
" clip-path="url(#p3972605d59)" style="fill: none; stroke: #d9534f; stroke-linecap: square"/>
   </g>
   <g id="line2d_16">
    <path d="M 40.600625 273.968449 
L 50.049075 273.970518 
L 59.497525 273.976496 
L 68.945975 273.980289 
L 78.394425 273.980289 
L 87.842875 273.977185 
L 97.291325 273.975921 
L 106.739775 273.978565 
L 116.188225 273.979254 
L 125.636675 273.979254 
L 135.085125 273.975116 
L 144.533575 273.969943 
L 153.982025 273.955459 
L 163.430475 273.936492 
L 172.878925 273.912696 
L 182.327375 273.874877 
L 191.775825 273.80464 
L 201.224275 273.686238 
L 210.672725 273.510015 
L 220.121175 273.195158 
L 229.569625 272.641312 
L 239.018075 271.764678 
L 248.466525 270.528585 
L 257.914975 268.420226 
L 267.363425 265.701579 
L 276.811875 262.71923 
L 286.260325 258.439862 
L 295.708775 252.202033 
L 305.157225 244.315199 
L 314.605675 236.002693 
L 324.054125 227.31475 
L 333.502575 217.34657 
L 342.951025 206.14977 
L 352.399475 195.282541 
L 361.847925 185.313672 
L 371.296375 175.175247 
L 380.744825 165.553077 
L 390.193275 156.736616 
L 399.641725 148.679536 
L 409.090175 141.268034 
L 418.538625 133.570413 
L 427.987075 124.070784 
L 437.435525 115.138794 
L 446.883975 111.574091 
L 456.332425 111.249463 
L 465.780875 111.243141 
L 475.229325 110.818388 
L 484.677775 110.0874 
L 494.126225 110.455825 
L 503.574675 111.394304 
L 513.023125 110.73838 
L 522.471575 107.140456 
L 531.920025 102.557956 
L 541.368475 99.777579 
L 550.816925 97.678991 
L 560.265375 96.236327 
L 569.713825 93.09925 
L 579.162275 89.559032 
L 588.610725 84.881465 
L 598.059175 73.537295 
L 607.507625 62.865716 
L 616.956075 72.994715 
L 626.404525 106.958485 
L 635.852975 139.546378 
L 645.301425 163.236882 
L 654.749875 183.454417 
L 664.198325 197.260773 
L 673.646775 207.427821 
L 683.095225 215.440069 
L 692.543675 222.957443 
L 701.992125 231.372832 
L 711.440575 237.2189 
L 720.889025 240.931088 
L 730.337475 241.860256 
L 739.785925 239.756035 
L 749.234375 237.735845 
L 758.682825 235.856358 
L 768.131275 233.38739 
L 777.579725 234.986276 
L 787.028175 241.412972 
L 796.476625 245.708089 
L 805.925075 245.616356 
L 815.373525 245.841895 
L 824.821975 247.357899 
L 834.270425 249.395332 
L 843.718875 249.842501 
L 853.167325 248.323278 
L 862.615775 251.264359 
L 872.064225 258.650341 
L 881.512675 265.660541 
L 890.961125 270.214992 
L 900.409575 272.414739 
L 909.858025 273.376094 
L 919.306475 273.688767 
L 928.754925 273.751992 
L 938.203375 273.760383 
L 947.651825 273.743945 
L 957.100275 273.665317 
L 966.548725 273.464953 
L 975.997175 272.756151 
L 985.445625 268.665191 
" clip-path="url(#p3972605d59)" style="fill: none; stroke: #d9534f; stroke-linecap: square"/>
   </g>
   <g id="line2d_17">
    <path d="M 40.600625 273.94404 
L 50.049075 273.956733 
L 59.497525 273.971122 
L 68.945975 273.97377 
L 78.394425 273.974313 
L 87.842875 273.976281 
L 97.291325 273.978453 
L 106.739775 273.978249 
L 116.188225 273.978657 
L 125.636675 273.977774 
L 135.085125 273.975738 
L 144.533575 273.970172 
L 153.982025 273.956529 
L 163.430475 273.937456 
L 172.878925 273.916685 
L 182.327375 273.856614 
L 191.775825 273.758872 
L 201.224275 273.647554 
L 210.672725 273.446028 
L 220.121175 272.800045 
L 229.569625 271.63046 
L 239.018075 270.860534 
L 248.466525 270.114975 
L 257.914975 268.553606 
L 267.363425 266.37802 
L 276.811875 263.460812 
L 286.260325 259.457712 
L 295.708775 254.441416 
L 305.157225 248.318185 
L 314.605675 240.815766 
L 324.054125 232.93188 
L 333.502575 223.801776 
L 342.951025 211.676338 
L 352.399475 202.004849 
L 361.847925 194.222846 
L 371.296375 185.829002 
L 380.744825 177.507582 
L 390.193275 169.601364 
L 399.641725 162.794614 
L 409.090175 154.077065 
L 418.538625 145.319605 
L 427.987075 138.119305 
L 437.435525 128.529472 
L 446.883975 123.37077 
L 456.332425 124.332245 
L 465.780875 122.274153 
L 475.229325 117.337544 
L 484.677775 114.333183 
L 494.126225 112.640947 
L 503.574675 112.725182 
L 513.023125 110.768906 
L 522.471575 98.104391 
L 531.920025 96.434351 
L 541.368475 93.801751 
L 550.816925 78.487191 
L 560.265375 80.630332 
L 569.713825 91.857964 
L 579.162275 96.334912 
L 588.610725 89.578187 
L 598.059175 79.664106 
L 607.507625 79.714403 
L 616.956075 97.982756 
L 626.404525 117.131606 
L 635.852975 131.308076 
L 645.301425 154.416381 
L 654.749875 174.414913 
L 664.198325 187.303421 
L 673.646775 197.691281 
L 683.095225 208.955159 
L 692.543675 217.231101 
L 701.992125 220.99799 
L 711.440575 223.128167 
L 720.889025 225.710946 
L 730.337475 230.550423 
L 739.785925 234.881165 
L 749.234375 232.365584 
L 758.682825 226.420326 
L 768.131275 225.557205 
L 777.579725 231.992669 
L 787.028175 238.778038 
L 796.476625 236.053532 
L 805.925075 226.576306 
L 815.373525 231.011035 
L 824.821975 242.736611 
L 834.270425 248.304813 
L 843.718875 247.169303 
L 853.167325 241.432698 
L 862.615775 238.839262 
L 872.064225 250.668214 
L 881.512675 267.438323 
L 890.961125 271.979279 
L 900.409575 273.494017 
L 909.858025 273.893811 
L 919.306475 273.957683 
L 928.754925 273.968272 
L 938.203375 273.97377 
L 947.651825 273.973837 
L 957.100275 273.950488 
L 966.548725 273.855121 
L 975.997175 273.882 
L 985.445625 273.986802 
" clip-path="url(#p3972605d59)" style="fill: none; stroke: #f0ad4e; stroke-linecap: square"/>
   </g>
   <g id="line2d_18">
    <path d="M 40.600625 273.956618 
L 50.049075 273.967018 
L 59.497525 273.980204 
L 68.945975 273.983195 
L 78.394425 273.982923 
L 87.842875 273.982923 
L 97.291325 273.985234 
L 106.739775 273.985846 
L 116.188225 273.982379 
L 125.636675 273.978709 
L 135.085125 273.976126 
L 144.533575 273.974427 
L 153.982025 273.963959 
L 163.430475 273.94785 
L 172.878925 273.930381 
L 182.327375 273.899522 
L 191.775825 273.845757 
L 201.224275 273.756646 
L 210.672725 273.601332 
L 220.121175 273.343721 
L 229.569625 272.909724 
L 239.018075 272.224912 
L 248.466525 271.216761 
L 257.914975 269.478462 
L 267.363425 267.220047 
L 276.811875 264.644409 
L 286.260325 260.789822 
L 295.708775 255.454208 
L 305.157225 249.146876 
L 314.605675 242.538431 
L 324.054125 235.464721 
L 333.502575 226.993046 
L 342.951025 217.829082 
L 352.399475 209.132013 
L 361.847925 200.652793 
L 371.296375 191.975776 
L 380.744825 183.313712 
L 390.193275 174.804653 
L 399.641725 167.175414 
L 409.090175 159.791823 
L 418.538625 151.739395 
L 427.987075 141.139265 
L 437.435525 131.624909 
L 446.883975 126.495112 
L 456.332425 124.83899 
L 465.780875 125.166884 
L 475.229325 123.833354 
L 484.677775 120.324402 
L 494.126225 117.952202 
L 503.574675 117.721915 
L 513.023125 116.129959 
L 522.471575 112.307998 
L 531.920025 107.358597 
L 541.368475 103.182846 
L 550.816925 100.660973 
L 560.265375 97.960336 
L 569.713825 91.877581 
L 579.162275 78.050716 
L 588.610725 46.764257 
L 598.059175 47.968845 
L 607.507625 75.368635 
L 616.956075 76.757289 
L 626.404525 92.366703 
L 635.852975 126.390844 
L 645.301425 155.009156 
L 654.749875 177.081488 
L 664.198325 188.985105 
L 673.646775 198.734574 
L 683.095225 210.178704 
L 692.543675 217.844036 
L 701.992125 224.286699 
L 711.440575 229.784357 
L 720.889025 233.538821 
L 730.337475 235.549074 
L 739.785925 233.355571 
L 749.234375 229.044557 
L 758.682825 225.61683 
L 768.131275 222.327153 
L 777.579725 223.979197 
L 787.028175 230.91438 
L 796.476625 235.005643 
L 805.925075 235.001497 
L 815.373525 236.919172 
L 824.821975 239.123347 
L 834.270425 240.933016 
L 843.718875 239.087458 
L 853.167325 234.697461 
L 862.615775 237.421888 
L 872.064225 248.854599 
L 881.512675 262.210083 
L 890.961125 269.049223 
L 900.409575 271.947657 
L 909.858025 273.328427 
L 919.306475 273.642183 
L 928.754925 273.684393 
L 938.203375 273.661419 
L 947.651825 273.574075 
L 957.100275 273.360645 
L 966.548725 272.7748 
L 975.997175 270.167896 
L 985.445625 262.337122 
" clip-path="url(#p3972605d59)" style="fill: none; stroke: #d9534f; stroke-linecap: square"/>
   </g>
   <g id="line2d_19">
    <path d="M 40.600625 273.952884 
L 50.049075 273.962729 
L 59.497525 273.974937 
L 68.945975 273.977694 
L 78.394425 273.977852 
L 87.842875 273.977694 
L 97.291325 273.979191 
L 106.739775 273.981475 
L 116.188225 273.981002 
L 125.636675 273.979742 
L 135.085125 273.976513 
L 144.533575 273.971944 
L 153.982025 273.959972 
L 163.430475 273.939258 
L 172.878925 273.923899 
L 182.327375 273.875853 
L 191.775825 273.783149 
L 201.224275 273.679496 
L 210.672725 273.496057 
L 220.121175 272.922108 
L 229.569625 271.920318 
L 239.018075 271.183802 
L 248.466525 270.45855 
L 257.914975 269.041362 
L 267.363425 267.072752 
L 276.811875 264.404645 
L 286.260325 260.649684 
L 295.708775 255.91664 
L 305.157225 250.141794 
L 314.605675 243.017732 
L 324.054125 235.292549 
L 333.502575 226.580934 
L 342.951025 215.089527 
L 352.399475 205.31256 
L 361.847925 197.412207 
L 371.296375 189.07527 
L 380.744825 180.811897 
L 390.193275 172.761185 
L 399.641725 165.687217 
L 409.090175 157.172984 
L 418.538625 148.411512 
L 427.987075 140.954282 
L 437.435525 131.185506 
L 446.883975 125.778484 
L 456.332425 126.256026 
L 465.780875 123.787506 
L 475.229325 119.002399 
L 484.677775 115.993405 
L 494.126225 114.183345 
L 503.574675 113.623417 
L 513.023125 110.890803 
L 522.471575 98.504093 
L 531.920025 96.214287 
L 541.368475 93.197495 
L 550.816925 78.728598 
L 560.265375 80.617106 
L 569.713825 91.012443 
L 579.162275 95.064106 
L 588.610725 88.232178 
L 598.059175 78.918418 
L 607.507625 79.817107 
L 616.956075 97.166535 
L 626.404525 115.46254 
L 635.852975 130.171665 
L 645.301425 152.380001 
L 654.749875 171.05084 
L 664.198325 183.144708 
L 673.646775 193.060535 
L 683.095225 204.380081 
L 692.543675 213.1666 
L 701.992125 217.609716 
L 711.440575 220.330909 
L 720.889025 223.518933 
L 730.337475 228.559311 
L 739.785925 232.781418 
L 749.234375 230.166791 
L 758.682825 224.370994 
L 768.131275 223.803583 
L 777.579725 230.131663 
L 787.028175 236.872383 
L 796.476625 234.397798 
L 805.925075 225.175403 
L 815.373525 229.737767 
L 824.821975 241.927018 
L 834.270425 247.5786 
L 843.718875 246.556488 
L 853.167325 240.868518 
L 862.615775 238.28075 
L 872.064225 250.455665 
L 881.512675 267.23973 
L 890.961125 271.935598 
L 900.409575 273.467466 
L 909.858025 273.889716 
L 919.306475 273.954223 
L 928.754925 273.963753 
L 938.203375 273.971236 
L 947.651825 273.967691 
L 957.100275 273.938628 
L 966.548725 273.835684 
L 975.997175 273.868528 
L 985.445625 273.986122 
" clip-path="url(#p3972605d59)" style="fill: none; stroke: #f0ad4e; stroke-linecap: square"/>
   </g>
   <g id="line2d_20">
    <path d="M 40.600625 273.969706 
L 50.049075 273.972309 
L 59.497525 273.979488 
L 68.945975 273.984301 
L 78.394425 273.98367 
L 87.842875 273.982407 
L 97.291325 273.984143 
L 106.739775 273.985405 
L 116.188225 273.982644 
L 125.636675 273.980593 
L 135.085125 273.979725 
L 144.533575 273.976727 
L 153.982025 273.97081 
L 163.430475 273.958582 
L 172.878925 273.940358 
L 182.327375 273.911168 
L 191.775825 273.864148 
L 201.224275 273.786123 
L 210.672725 273.664786 
L 220.121175 273.449489 
L 229.569625 273.071199 
L 239.018075 272.468303 
L 248.466525 271.573347 
L 257.914975 270.06295 
L 267.363425 268.050324 
L 276.811875 265.748636 
L 286.260325 262.297485 
L 295.708775 257.336805 
L 305.157225 251.422236 
L 314.605675 245.08725 
L 324.054125 238.23599 
L 333.502575 230.193139 
L 342.951025 221.326335 
L 352.399475 212.582366 
L 361.847925 204.192309 
L 371.296375 195.770774 
L 380.744825 187.100413 
L 390.193275 178.607243 
L 399.641725 170.871678 
L 409.090175 163.271098 
L 418.538625 155.490328 
L 427.987075 145.387594 
L 437.435525 135.277602 
L 446.883975 129.40887 
L 456.332425 127.307806 
L 465.780875 127.218973 
L 475.229325 125.840564 
L 484.677775 122.270442 
L 494.126225 119.637248 
L 503.574675 118.8899 
L 513.023125 117.215723 
L 522.471575 113.63503 
L 531.920025 108.530056 
L 541.368475 104.146632 
L 550.816925 101.152741 
L 560.265375 98.102364 
L 569.713825 92.099909 
L 579.162275 76.865377 
L 588.610725 43.922325 
L 598.059175 43.030762 
L 607.507625 70.603682 
L 616.956075 75.729799 
L 626.404525 89.168659 
L 635.852975 120.441399 
L 645.301425 150.295732 
L 654.749875 172.866317 
L 664.198325 186.29634 
L 673.646775 196.265825 
L 683.095225 207.269668 
L 692.543675 215.512038 
L 701.992125 222.145476 
L 711.440575 227.702425 
L 720.889025 231.549774 
L 730.337475 233.61723 
L 739.785925 231.822269 
L 749.234375 227.655247 
L 758.682825 223.815629 
L 768.131275 220.271622 
L 777.579725 221.221645 
L 787.028175 227.781238 
L 796.476625 232.469897 
L 805.925075 233.129912 
L 815.373525 234.937575 
L 824.821975 237.421899 
L 834.270425 239.526198 
L 843.718875 238.616094 
L 853.167325 235.122499 
L 862.615775 237.698496 
L 872.064225 248.301566 
L 881.512675 260.807443 
L 890.961125 268.348696 
L 900.409575 271.603799 
L 909.858025 273.089345 
L 919.306475 273.546763 
L 928.754925 273.620054 
L 938.203375 273.611613 
L 947.651825 273.535482 
L 957.100275 273.304642 
L 966.548725 272.706953 
L 975.997175 270.334893 
L 985.445625 261.002623 
" clip-path="url(#p3972605d59)" style="fill: none; stroke: #d9534f; stroke-linecap: square"/>
   </g>
   <g id="line2d_21">
    <path d="M 40.600625 273.99006 
L 985.445625 273.99006 
" clip-path="url(#p3972605d59)" style="fill: none; stroke: #dedede; stroke-width: 2; stroke-linecap: square"/>
   </g>
   <g id="text_17">
    <!-- FastQC: Per Sequence GC Content -->
    <g transform="translate(376.386875 19.3575) scale(0.16 -0.16)">
     <defs>
      <path id="DejaVuSans-46" d="M 628 4666 
L 3309 4666 
L 3309 4134 
L 1259 4134 
L 1259 2759 
L 3109 2759 
L 3109 2228 
L 1259 2228 
L 1259 0 
L 628 0 
L 628 4666 
z
" transform="scale(0.015625)"/>
      <path id="DejaVuSans-73" d="M 2834 3397 
L 2834 2853 
Q 2591 2978 2328 3040 
Q 2066 3103 1784 3103 
Q 1356 3103 1142 2972 
Q 928 2841 928 2578 
Q 928 2378 1081 2264 
Q 1234 2150 1697 2047 
L 1894 2003 
Q 2506 1872 2764 1633 
Q 3022 1394 3022 966 
Q 3022 478 2636 193 
Q 2250 -91 1575 -91 
Q 1294 -91 989 -36 
Q 684 19 347 128 
L 347 722 
Q 666 556 975 473 
Q 1284 391 1588 391 
Q 1994 391 2212 530 
Q 2431 669 2431 922 
Q 2431 1156 2273 1281 
Q 2116 1406 1581 1522 
L 1381 1569 
Q 847 1681 609 1914 
Q 372 2147 372 2553 
Q 372 3047 722 3315 
Q 1072 3584 1716 3584 
Q 2034 3584 2315 3537 
Q 2597 3491 2834 3397 
z
" transform="scale(0.015625)"/>
      <path id="DejaVuSans-51" d="M 2522 4238 
Q 1834 4238 1429 3725 
Q 1025 3213 1025 2328 
Q 1025 1447 1429 934 
Q 1834 422 2522 422 
Q 3209 422 3611 934 
Q 4013 1447 4013 2328 
Q 4013 3213 3611 3725 
Q 3209 4238 2522 4238 
z
M 3406 84 
L 4238 -825 
L 3475 -825 
L 2784 -78 
Q 2681 -84 2626 -87 
Q 2572 -91 2522 -91 
Q 1538 -91 948 567 
Q 359 1225 359 2328 
Q 359 3434 948 4092 
Q 1538 4750 2522 4750 
Q 3503 4750 4090 4092 
Q 4678 3434 4678 2328 
Q 4678 1516 4351 937 
Q 4025 359 3406 84 
z
" transform="scale(0.015625)"/>
      <path id="DejaVuSans-3a" d="M 750 794 
L 1409 794 
L 1409 0 
L 750 0 
L 750 794 
z
M 750 3309 
L 1409 3309 
L 1409 2516 
L 750 2516 
L 750 3309 
z
" transform="scale(0.015625)"/>
      <path id="DejaVuSans-53" d="M 3425 4513 
L 3425 3897 
Q 3066 4069 2747 4153 
Q 2428 4238 2131 4238 
Q 1616 4238 1336 4038 
Q 1056 3838 1056 3469 
Q 1056 3159 1242 3001 
Q 1428 2844 1947 2747 
L 2328 2669 
Q 3034 2534 3370 2195 
Q 3706 1856 3706 1288 
Q 3706 609 3251 259 
Q 2797 -91 1919 -91 
Q 1588 -91 1214 -16 
Q 841 59 441 206 
L 441 856 
Q 825 641 1194 531 
Q 1563 422 1919 422 
Q 2459 422 2753 634 
Q 3047 847 3047 1241 
Q 3047 1584 2836 1778 
Q 2625 1972 2144 2069 
L 1759 2144 
Q 1053 2284 737 2584 
Q 422 2884 422 3419 
Q 422 4038 858 4394 
Q 1294 4750 2059 4750 
Q 2388 4750 2728 4690 
Q 3069 4631 3425 4513 
z
" transform="scale(0.015625)"/>
      <path id="DejaVuSans-71" d="M 947 1747 
Q 947 1113 1208 752 
Q 1469 391 1925 391 
Q 2381 391 2643 752 
Q 2906 1113 2906 1747 
Q 2906 2381 2643 2742 
Q 2381 3103 1925 3103 
Q 1469 3103 1208 2742 
Q 947 2381 947 1747 
z
M 2906 525 
Q 2725 213 2448 61 
Q 2172 -91 1784 -91 
Q 1150 -91 751 415 
Q 353 922 353 1747 
Q 353 2572 751 3078 
Q 1150 3584 1784 3584 
Q 2172 3584 2448 3432 
Q 2725 3281 2906 2969 
L 2906 3500 
L 3481 3500 
L 3481 -1331 
L 2906 -1331 
L 2906 525 
z
" transform="scale(0.015625)"/>
      <path id="DejaVuSans-75" d="M 544 1381 
L 544 3500 
L 1119 3500 
L 1119 1403 
Q 1119 906 1312 657 
Q 1506 409 1894 409 
Q 2359 409 2629 706 
Q 2900 1003 2900 1516 
L 2900 3500 
L 3475 3500 
L 3475 0 
L 2900 0 
L 2900 538 
Q 2691 219 2414 64 
Q 2138 -91 1772 -91 
Q 1169 -91 856 284 
Q 544 659 544 1381 
z
M 1991 3584 
L 1991 3584 
z
" transform="scale(0.015625)"/>
      <path id="DejaVuSans-6f" d="M 1959 3097 
Q 1497 3097 1228 2736 
Q 959 2375 959 1747 
Q 959 1119 1226 758 
Q 1494 397 1959 397 
Q 2419 397 2687 759 
Q 2956 1122 2956 1747 
Q 2956 2369 2687 2733 
Q 2419 3097 1959 3097 
z
M 1959 3584 
Q 2709 3584 3137 3096 
Q 3566 2609 3566 1747 
Q 3566 888 3137 398 
Q 2709 -91 1959 -91 
Q 1206 -91 779 398 
Q 353 888 353 1747 
Q 353 2609 779 3096 
Q 1206 3584 1959 3584 
z
" transform="scale(0.015625)"/>
     </defs>
     <use xlink:href="#DejaVuSans-46"/>
     <use xlink:href="#DejaVuSans-61" x="48.394531"/>
     <use xlink:href="#DejaVuSans-73" x="109.673828"/>
     <use xlink:href="#DejaVuSans-74" x="161.773438"/>
     <use xlink:href="#DejaVuSans-51" x="200.982422"/>
     <use xlink:href="#DejaVuSans-43" x="279.693359"/>
     <use xlink:href="#DejaVuSans-3a" x="349.517578"/>
     <use xlink:href="#DejaVuSans-20" x="383.208984"/>
     <use xlink:href="#DejaVuSans-50" x="414.996094"/>
     <use xlink:href="#DejaVuSans-65" x="471.673828"/>
     <use xlink:href="#DejaVuSans-72" x="533.197266"/>
     <use xlink:href="#DejaVuSans-20" x="574.310547"/>
     <use xlink:href="#DejaVuSans-53" x="606.097656"/>
     <use xlink:href="#DejaVuSans-65" x="669.574219"/>
     <use xlink:href="#DejaVuSans-71" x="731.097656"/>
     <use xlink:href="#DejaVuSans-75" x="794.574219"/>
     <use xlink:href="#DejaVuSans-65" x="857.953125"/>
     <use xlink:href="#DejaVuSans-6e" x="919.476562"/>
     <use xlink:href="#DejaVuSans-63" x="982.855469"/>
     <use xlink:href="#DejaVuSans-65" x="1037.835938"/>
     <use xlink:href="#DejaVuSans-20" x="1099.359375"/>
     <use xlink:href="#DejaVuSans-47" x="1131.146484"/>
     <use xlink:href="#DejaVuSans-43" x="1208.636719"/>
     <use xlink:href="#DejaVuSans-20" x="1278.460938"/>
     <use xlink:href="#DejaVuSans-43" x="1310.248047"/>
     <use xlink:href="#DejaVuSans-6f" x="1380.072266"/>
     <use xlink:href="#DejaVuSans-6e" x="1441.253906"/>
     <use xlink:href="#DejaVuSans-74" x="1504.632812"/>
     <use xlink:href="#DejaVuSans-65" x="1543.841797"/>
     <use xlink:href="#DejaVuSans-6e" x="1605.365234"/>
     <use xlink:href="#DejaVuSans-74" x="1668.744141"/>
    </g>
   </g>
   <g id="legend_1">
    <g id="line2d_22">
     <path d="M 47.800625 291.525394 
L 55.800625 291.525394 
L 63.800625 291.525394 
" style="fill: none; stroke: #f0ad4e; stroke-linecap: square"/>
    </g>
    <g id="text_18">
     <!-- TK9_1_22FFLLLT3_AGAGAACCTA-GGTTATGCTA_L005_T1_1 -->
     <g transform="translate(70.200625 294.325394) scale(0.08 -0.08)">
      <defs>
       <path id="DejaVuSans-54" d="M -19 4666 
L 3928 4666 
L 3928 4134 
L 2272 4134 
L 2272 0 
L 1638 0 
L 1638 4134 
L -19 4134 
L -19 4666 
z
" transform="scale(0.015625)"/>
       <path id="DejaVuSans-4b" d="M 628 4666 
L 1259 4666 
L 1259 2694 
L 3353 4666 
L 4166 4666 
L 1850 2491 
L 4331 0 
L 3500 0 
L 1259 2247 
L 1259 0 
L 628 0 
L 628 4666 
z
" transform="scale(0.015625)"/>
       <path id="DejaVuSans-39" d="M 703 97 
L 703 672 
Q 941 559 1184 500 
Q 1428 441 1663 441 
Q 2288 441 2617 861 
Q 2947 1281 2994 2138 
Q 2813 1869 2534 1725 
Q 2256 1581 1919 1581 
Q 1219 1581 811 2004 
Q 403 2428 403 3163 
Q 403 3881 828 4315 
Q 1253 4750 1959 4750 
Q 2769 4750 3195 4129 
Q 3622 3509 3622 2328 
Q 3622 1225 3098 567 
Q 2575 -91 1691 -91 
Q 1453 -91 1209 -44 
Q 966 3 703 97 
z
M 1959 2075 
Q 2384 2075 2632 2365 
Q 2881 2656 2881 3163 
Q 2881 3666 2632 3958 
Q 2384 4250 1959 4250 
Q 1534 4250 1286 3958 
Q 1038 3666 1038 3163 
Q 1038 2656 1286 2365 
Q 1534 2075 1959 2075 
z
" transform="scale(0.015625)"/>
       <path id="DejaVuSans-5f" d="M 3263 -1063 
L 3263 -1509 
L -63 -1509 
L -63 -1063 
L 3263 -1063 
z
" transform="scale(0.015625)"/>
       <path id="DejaVuSans-4c" d="M 628 4666 
L 1259 4666 
L 1259 531 
L 3531 531 
L 3531 0 
L 628 0 
L 628 4666 
z
" transform="scale(0.015625)"/>
       <path id="DejaVuSans-41" d="M 2188 4044 
L 1331 1722 
L 3047 1722 
L 2188 4044 
z
M 1831 4666 
L 2547 4666 
L 4325 0 
L 3669 0 
L 3244 1197 
L 1141 1197 
L 716 0 
L 50 0 
L 1831 4666 
z
" transform="scale(0.015625)"/>
       <path id="DejaVuSans-2d" d="M 313 2009 
L 1997 2009 
L 1997 1497 
L 313 1497 
L 313 2009 
z
" transform="scale(0.015625)"/>
      </defs>
      <use xlink:href="#DejaVuSans-54"/>
      <use xlink:href="#DejaVuSans-4b" x="61.083984"/>
      <use xlink:href="#DejaVuSans-39" x="126.660156"/>
      <use xlink:href="#DejaVuSans-5f" x="190.283203"/>
      <use xlink:href="#DejaVuSans-31" x="240.283203"/>
      <use xlink:href="#DejaVuSans-5f" x="303.90625"/>
      <use xlink:href="#DejaVuSans-32" x="353.90625"/>
      <use xlink:href="#DejaVuSans-32" x="417.529297"/>
      <use xlink:href="#DejaVuSans-46" x="481.152344"/>
      <use xlink:href="#DejaVuSans-46" x="538.671875"/>
      <use xlink:href="#DejaVuSans-4c" x="596.191406"/>
      <use xlink:href="#DejaVuSans-4c" x="651.904297"/>
      <use xlink:href="#DejaVuSans-4c" x="707.617188"/>
      <use xlink:href="#DejaVuSans-54" x="749.580078"/>
      <use xlink:href="#DejaVuSans-33" x="810.664062"/>
      <use xlink:href="#DejaVuSans-5f" x="874.287109"/>
      <use xlink:href="#DejaVuSans-41" x="924.287109"/>
      <use xlink:href="#DejaVuSans-47" x="990.945312"/>
      <use xlink:href="#DejaVuSans-41" x="1068.435547"/>
      <use xlink:href="#DejaVuSans-47" x="1135.09375"/>
      <use xlink:href="#DejaVuSans-41" x="1212.583984"/>
      <use xlink:href="#DejaVuSans-41" x="1283.742188"/>
      <use xlink:href="#DejaVuSans-43" x="1350.400391"/>
      <use xlink:href="#DejaVuSans-43" x="1420.224609"/>
      <use xlink:href="#DejaVuSans-54" x="1490.048828"/>
      <use xlink:href="#DejaVuSans-41" x="1543.382812"/>
      <use xlink:href="#DejaVuSans-2d" x="1609.541016"/>
      <use xlink:href="#DejaVuSans-47" x="1649.25"/>
      <use xlink:href="#DejaVuSans-47" x="1726.740234"/>
      <use xlink:href="#DejaVuSans-54" x="1800.605469"/>
      <use xlink:href="#DejaVuSans-54" x="1859.939453"/>
      <use xlink:href="#DejaVuSans-41" x="1913.273438"/>
      <use xlink:href="#DejaVuSans-54" x="1973.931641"/>
      <use xlink:href="#DejaVuSans-47" x="2035.015625"/>
      <use xlink:href="#DejaVuSans-43" x="2112.505859"/>
      <use xlink:href="#DejaVuSans-54" x="2182.330078"/>
      <use xlink:href="#DejaVuSans-41" x="2235.664062"/>
      <use xlink:href="#DejaVuSans-5f" x="2304.072266"/>
      <use xlink:href="#DejaVuSans-4c" x="2354.072266"/>
      <use xlink:href="#DejaVuSans-30" x="2409.785156"/>
      <use xlink:href="#DejaVuSans-30" x="2473.408203"/>
      <use xlink:href="#DejaVuSans-35" x="2537.03125"/>
      <use xlink:href="#DejaVuSans-5f" x="2600.654297"/>
      <use xlink:href="#DejaVuSans-54" x="2650.654297"/>
      <use xlink:href="#DejaVuSans-31" x="2711.738281"/>
      <use xlink:href="#DejaVuSans-5f" x="2775.361328"/>
      <use xlink:href="#DejaVuSans-31" x="2825.361328"/>
     </g>
    </g>
    <g id="line2d_23">
     <path d="M 47.800625 303.490394 
L 55.800625 303.490394 
L 63.800625 303.490394 
" style="fill: none; stroke: #d9534f; stroke-linecap: square"/>
    </g>
    <g id="text_19">
     <!-- TK9_1_22FFLLLT3_AGAGAACCTA-GGTTATGCTA_L005_T1_2 -->
     <g transform="translate(70.200625 306.290394) scale(0.08 -0.08)">
      <use xlink:href="#DejaVuSans-54"/>
      <use xlink:href="#DejaVuSans-4b" x="61.083984"/>
      <use xlink:href="#DejaVuSans-39" x="126.660156"/>
      <use xlink:href="#DejaVuSans-5f" x="190.283203"/>
      <use xlink:href="#DejaVuSans-31" x="240.283203"/>
      <use xlink:href="#DejaVuSans-5f" x="303.90625"/>
      <use xlink:href="#DejaVuSans-32" x="353.90625"/>
      <use xlink:href="#DejaVuSans-32" x="417.529297"/>
      <use xlink:href="#DejaVuSans-46" x="481.152344"/>
      <use xlink:href="#DejaVuSans-46" x="538.671875"/>
      <use xlink:href="#DejaVuSans-4c" x="596.191406"/>
      <use xlink:href="#DejaVuSans-4c" x="651.904297"/>
      <use xlink:href="#DejaVuSans-4c" x="707.617188"/>
      <use xlink:href="#DejaVuSans-54" x="749.580078"/>
      <use xlink:href="#DejaVuSans-33" x="810.664062"/>
      <use xlink:href="#DejaVuSans-5f" x="874.287109"/>
      <use xlink:href="#DejaVuSans-41" x="924.287109"/>
      <use xlink:href="#DejaVuSans-47" x="990.945312"/>
      <use xlink:href="#DejaVuSans-41" x="1068.435547"/>
      <use xlink:href="#DejaVuSans-47" x="1135.09375"/>
      <use xlink:href="#DejaVuSans-41" x="1212.583984"/>
      <use xlink:href="#DejaVuSans-41" x="1283.742188"/>
      <use xlink:href="#DejaVuSans-43" x="1350.400391"/>
      <use xlink:href="#DejaVuSans-43" x="1420.224609"/>
      <use xlink:href="#DejaVuSans-54" x="1490.048828"/>
      <use xlink:href="#DejaVuSans-41" x="1543.382812"/>
      <use xlink:href="#DejaVuSans-2d" x="1609.541016"/>
      <use xlink:href="#DejaVuSans-47" x="1649.25"/>
      <use xlink:href="#DejaVuSans-47" x="1726.740234"/>
      <use xlink:href="#DejaVuSans-54" x="1800.605469"/>
      <use xlink:href="#DejaVuSans-54" x="1859.939453"/>
      <use xlink:href="#DejaVuSans-41" x="1913.273438"/>
      <use xlink:href="#DejaVuSans-54" x="1973.931641"/>
      <use xlink:href="#DejaVuSans-47" x="2035.015625"/>
      <use xlink:href="#DejaVuSans-43" x="2112.505859"/>
      <use xlink:href="#DejaVuSans-54" x="2182.330078"/>
      <use xlink:href="#DejaVuSans-41" x="2235.664062"/>
      <use xlink:href="#DejaVuSans-5f" x="2304.072266"/>
      <use xlink:href="#DejaVuSans-4c" x="2354.072266"/>
      <use xlink:href="#DejaVuSans-30" x="2409.785156"/>
      <use xlink:href="#DejaVuSans-30" x="2473.408203"/>
      <use xlink:href="#DejaVuSans-35" x="2537.03125"/>
      <use xlink:href="#DejaVuSans-5f" x="2600.654297"/>
      <use xlink:href="#DejaVuSans-54" x="2650.654297"/>
      <use xlink:href="#DejaVuSans-31" x="2711.738281"/>
      <use xlink:href="#DejaVuSans-5f" x="2775.361328"/>
      <use xlink:href="#DejaVuSans-32" x="2825.361328"/>
     </g>
    </g>
    <g id="line2d_24">
     <path d="M 47.800625 315.455394 
L 55.800625 315.455394 
L 63.800625 315.455394 
" style="fill: none; stroke: #f0ad4e; stroke-linecap: square"/>
    </g>
    <g id="text_20">
     <!-- TK9_1_22FFLLLT3_AGAGAACCTA-GGTTATGCTA_L006_T1_1 -->
     <g transform="translate(70.200625 318.255394) scale(0.08 -0.08)">
      <use xlink:href="#DejaVuSans-54"/>
      <use xlink:href="#DejaVuSans-4b" x="61.083984"/>
      <use xlink:href="#DejaVuSans-39" x="126.660156"/>
      <use xlink:href="#DejaVuSans-5f" x="190.283203"/>
      <use xlink:href="#DejaVuSans-31" x="240.283203"/>
      <use xlink:href="#DejaVuSans-5f" x="303.90625"/>
      <use xlink:href="#DejaVuSans-32" x="353.90625"/>
      <use xlink:href="#DejaVuSans-32" x="417.529297"/>
      <use xlink:href="#DejaVuSans-46" x="481.152344"/>
      <use xlink:href="#DejaVuSans-46" x="538.671875"/>
      <use xlink:href="#DejaVuSans-4c" x="596.191406"/>
      <use xlink:href="#DejaVuSans-4c" x="651.904297"/>
      <use xlink:href="#DejaVuSans-4c" x="707.617188"/>
      <use xlink:href="#DejaVuSans-54" x="749.580078"/>
      <use xlink:href="#DejaVuSans-33" x="810.664062"/>
      <use xlink:href="#DejaVuSans-5f" x="874.287109"/>
      <use xlink:href="#DejaVuSans-41" x="924.287109"/>
      <use xlink:href="#DejaVuSans-47" x="990.945312"/>
      <use xlink:href="#DejaVuSans-41" x="1068.435547"/>
      <use xlink:href="#DejaVuSans-47" x="1135.09375"/>
      <use xlink:href="#DejaVuSans-41" x="1212.583984"/>
      <use xlink:href="#DejaVuSans-41" x="1283.742188"/>
      <use xlink:href="#DejaVuSans-43" x="1350.400391"/>
      <use xlink:href="#DejaVuSans-43" x="1420.224609"/>
      <use xlink:href="#DejaVuSans-54" x="1490.048828"/>
      <use xlink:href="#DejaVuSans-41" x="1543.382812"/>
      <use xlink:href="#DejaVuSans-2d" x="1609.541016"/>
      <use xlink:href="#DejaVuSans-47" x="1649.25"/>
      <use xlink:href="#DejaVuSans-47" x="1726.740234"/>
      <use xlink:href="#DejaVuSans-54" x="1800.605469"/>
      <use xlink:href="#DejaVuSans-54" x="1859.939453"/>
      <use xlink:href="#DejaVuSans-41" x="1913.273438"/>
      <use xlink:href="#DejaVuSans-54" x="1973.931641"/>
      <use xlink:href="#DejaVuSans-47" x="2035.015625"/>
      <use xlink:href="#DejaVuSans-43" x="2112.505859"/>
      <use xlink:href="#DejaVuSans-54" x="2182.330078"/>
      <use xlink:href="#DejaVuSans-41" x="2235.664062"/>
      <use xlink:href="#DejaVuSans-5f" x="2304.072266"/>
      <use xlink:href="#DejaVuSans-4c" x="2354.072266"/>
      <use xlink:href="#DejaVuSans-30" x="2409.785156"/>
      <use xlink:href="#DejaVuSans-30" x="2473.408203"/>
      <use xlink:href="#DejaVuSans-36" x="2537.03125"/>
      <use xlink:href="#DejaVuSans-5f" x="2600.654297"/>
      <use xlink:href="#DejaVuSans-54" x="2650.654297"/>
      <use xlink:href="#DejaVuSans-31" x="2711.738281"/>
      <use xlink:href="#DejaVuSans-5f" x="2775.361328"/>
      <use xlink:href="#DejaVuSans-31" x="2825.361328"/>
     </g>
    </g>
    <g id="line2d_25">
     <path d="M 218.1925 291.525394 
L 226.1925 291.525394 
L 234.1925 291.525394 
" style="fill: none; stroke: #d9534f; stroke-linecap: square"/>
    </g>
    <g id="text_21">
     <!-- TK9_1_22FFLLLT3_AGAGAACCTA-GGTTATGCTA_L006_T1_2 -->
     <g transform="translate(240.5925 294.325394) scale(0.08 -0.08)">
      <use xlink:href="#DejaVuSans-54"/>
      <use xlink:href="#DejaVuSans-4b" x="61.083984"/>
      <use xlink:href="#DejaVuSans-39" x="126.660156"/>
      <use xlink:href="#DejaVuSans-5f" x="190.283203"/>
      <use xlink:href="#DejaVuSans-31" x="240.283203"/>
      <use xlink:href="#DejaVuSans-5f" x="303.90625"/>
      <use xlink:href="#DejaVuSans-32" x="353.90625"/>
      <use xlink:href="#DejaVuSans-32" x="417.529297"/>
      <use xlink:href="#DejaVuSans-46" x="481.152344"/>
      <use xlink:href="#DejaVuSans-46" x="538.671875"/>
      <use xlink:href="#DejaVuSans-4c" x="596.191406"/>
      <use xlink:href="#DejaVuSans-4c" x="651.904297"/>
      <use xlink:href="#DejaVuSans-4c" x="707.617188"/>
      <use xlink:href="#DejaVuSans-54" x="749.580078"/>
      <use xlink:href="#DejaVuSans-33" x="810.664062"/>
      <use xlink:href="#DejaVuSans-5f" x="874.287109"/>
      <use xlink:href="#DejaVuSans-41" x="924.287109"/>
      <use xlink:href="#DejaVuSans-47" x="990.945312"/>
      <use xlink:href="#DejaVuSans-41" x="1068.435547"/>
      <use xlink:href="#DejaVuSans-47" x="1135.09375"/>
      <use xlink:href="#DejaVuSans-41" x="1212.583984"/>
      <use xlink:href="#DejaVuSans-41" x="1283.742188"/>
      <use xlink:href="#DejaVuSans-43" x="1350.400391"/>
      <use xlink:href="#DejaVuSans-43" x="1420.224609"/>
      <use xlink:href="#DejaVuSans-54" x="1490.048828"/>
      <use xlink:href="#DejaVuSans-41" x="1543.382812"/>
      <use xlink:href="#DejaVuSans-2d" x="1609.541016"/>
      <use xlink:href="#DejaVuSans-47" x="1649.25"/>
      <use xlink:href="#DejaVuSans-47" x="1726.740234"/>
      <use xlink:href="#DejaVuSans-54" x="1800.605469"/>
      <use xlink:href="#DejaVuSans-54" x="1859.939453"/>
      <use xlink:href="#DejaVuSans-41" x="1913.273438"/>
      <use xlink:href="#DejaVuSans-54" x="1973.931641"/>
      <use xlink:href="#DejaVuSans-47" x="2035.015625"/>
      <use xlink:href="#DejaVuSans-43" x="2112.505859"/>
      <use xlink:href="#DejaVuSans-54" x="2182.330078"/>
      <use xlink:href="#DejaVuSans-41" x="2235.664062"/>
      <use xlink:href="#DejaVuSans-5f" x="2304.072266"/>
      <use xlink:href="#DejaVuSans-4c" x="2354.072266"/>
      <use xlink:href="#DejaVuSans-30" x="2409.785156"/>
      <use xlink:href="#DejaVuSans-30" x="2473.408203"/>
      <use xlink:href="#DejaVuSans-36" x="2537.03125"/>
      <use xlink:href="#DejaVuSans-5f" x="2600.654297"/>
      <use xlink:href="#DejaVuSans-54" x="2650.654297"/>
      <use xlink:href="#DejaVuSans-31" x="2711.738281"/>
      <use xlink:href="#DejaVuSans-5f" x="2775.361328"/>
      <use xlink:href="#DejaVuSans-32" x="2825.361328"/>
     </g>
    </g>
    <g id="line2d_26">
     <path d="M 218.1925 303.490394 
L 226.1925 303.490394 
L 234.1925 303.490394 
" style="fill: none; stroke: #d9534f; stroke-linecap: square"/>
    </g>
    <g id="text_22">
     <!-- TK9_2_22FFLLLT3_GATATTGTGT-ACCACACGGT_L005_T1_1 -->
     <g transform="translate(240.5925 306.290394) scale(0.08 -0.08)">
      <use xlink:href="#DejaVuSans-54"/>
      <use xlink:href="#DejaVuSans-4b" x="61.083984"/>
      <use xlink:href="#DejaVuSans-39" x="126.660156"/>
      <use xlink:href="#DejaVuSans-5f" x="190.283203"/>
      <use xlink:href="#DejaVuSans-32" x="240.283203"/>
      <use xlink:href="#DejaVuSans-5f" x="303.90625"/>
      <use xlink:href="#DejaVuSans-32" x="353.90625"/>
      <use xlink:href="#DejaVuSans-32" x="417.529297"/>
      <use xlink:href="#DejaVuSans-46" x="481.152344"/>
      <use xlink:href="#DejaVuSans-46" x="538.671875"/>
      <use xlink:href="#DejaVuSans-4c" x="596.191406"/>
      <use xlink:href="#DejaVuSans-4c" x="651.904297"/>
      <use xlink:href="#DejaVuSans-4c" x="707.617188"/>
      <use xlink:href="#DejaVuSans-54" x="749.580078"/>
      <use xlink:href="#DejaVuSans-33" x="810.664062"/>
      <use xlink:href="#DejaVuSans-5f" x="874.287109"/>
      <use xlink:href="#DejaVuSans-47" x="924.287109"/>
      <use xlink:href="#DejaVuSans-41" x="1001.777344"/>
      <use xlink:href="#DejaVuSans-54" x="1062.435547"/>
      <use xlink:href="#DejaVuSans-41" x="1115.769531"/>
      <use xlink:href="#DejaVuSans-54" x="1176.427734"/>
      <use xlink:href="#DejaVuSans-54" x="1235.761719"/>
      <use xlink:href="#DejaVuSans-47" x="1296.845703"/>
      <use xlink:href="#DejaVuSans-54" x="1370.710938"/>
      <use xlink:href="#DejaVuSans-47" x="1431.794922"/>
      <use xlink:href="#DejaVuSans-54" x="1505.660156"/>
      <use xlink:href="#DejaVuSans-2d" x="1557.619141"/>
      <use xlink:href="#DejaVuSans-41" x="1591.453125"/>
      <use xlink:href="#DejaVuSans-43" x="1658.111328"/>
      <use xlink:href="#DejaVuSans-43" x="1727.935547"/>
      <use xlink:href="#DejaVuSans-41" x="1797.759766"/>
      <use xlink:href="#DejaVuSans-43" x="1864.417969"/>
      <use xlink:href="#DejaVuSans-41" x="1934.242188"/>
      <use xlink:href="#DejaVuSans-43" x="2000.900391"/>
      <use xlink:href="#DejaVuSans-47" x="2070.724609"/>
      <use xlink:href="#DejaVuSans-47" x="2148.214844"/>
      <use xlink:href="#DejaVuSans-54" x="2222.080078"/>
      <use xlink:href="#DejaVuSans-5f" x="2283.164062"/>
      <use xlink:href="#DejaVuSans-4c" x="2333.164062"/>
      <use xlink:href="#DejaVuSans-30" x="2388.876953"/>
      <use xlink:href="#DejaVuSans-30" x="2452.5"/>
      <use xlink:href="#DejaVuSans-35" x="2516.123047"/>
      <use xlink:href="#DejaVuSans-5f" x="2579.746094"/>
      <use xlink:href="#DejaVuSans-54" x="2629.746094"/>
      <use xlink:href="#DejaVuSans-31" x="2690.830078"/>
      <use xlink:href="#DejaVuSans-5f" x="2754.453125"/>
      <use xlink:href="#DejaVuSans-31" x="2804.453125"/>
     </g>
    </g>
    <g id="line2d_27">
     <path d="M 218.1925 315.455394 
L 226.1925 315.455394 
L 234.1925 315.455394 
" style="fill: none; stroke: #d9534f; stroke-linecap: square"/>
    </g>
    <g id="text_23">
     <!-- TK9_2_22FFLLLT3_GATATTGTGT-ACCACACGGT_L005_T1_2 -->
     <g transform="translate(240.5925 318.255394) scale(0.08 -0.08)">
      <use xlink:href="#DejaVuSans-54"/>
      <use xlink:href="#DejaVuSans-4b" x="61.083984"/>
      <use xlink:href="#DejaVuSans-39" x="126.660156"/>
      <use xlink:href="#DejaVuSans-5f" x="190.283203"/>
      <use xlink:href="#DejaVuSans-32" x="240.283203"/>
      <use xlink:href="#DejaVuSans-5f" x="303.90625"/>
      <use xlink:href="#DejaVuSans-32" x="353.90625"/>
      <use xlink:href="#DejaVuSans-32" x="417.529297"/>
      <use xlink:href="#DejaVuSans-46" x="481.152344"/>
      <use xlink:href="#DejaVuSans-46" x="538.671875"/>
      <use xlink:href="#DejaVuSans-4c" x="596.191406"/>
      <use xlink:href="#DejaVuSans-4c" x="651.904297"/>
      <use xlink:href="#DejaVuSans-4c" x="707.617188"/>
      <use xlink:href="#DejaVuSans-54" x="749.580078"/>
      <use xlink:href="#DejaVuSans-33" x="810.664062"/>
      <use xlink:href="#DejaVuSans-5f" x="874.287109"/>
      <use xlink:href="#DejaVuSans-47" x="924.287109"/>
      <use xlink:href="#DejaVuSans-41" x="1001.777344"/>
      <use xlink:href="#DejaVuSans-54" x="1062.435547"/>
      <use xlink:href="#DejaVuSans-41" x="1115.769531"/>
      <use xlink:href="#DejaVuSans-54" x="1176.427734"/>
      <use xlink:href="#DejaVuSans-54" x="1235.761719"/>
      <use xlink:href="#DejaVuSans-47" x="1296.845703"/>
      <use xlink:href="#DejaVuSans-54" x="1370.710938"/>
      <use xlink:href="#DejaVuSans-47" x="1431.794922"/>
      <use xlink:href="#DejaVuSans-54" x="1505.660156"/>
      <use xlink:href="#DejaVuSans-2d" x="1557.619141"/>
      <use xlink:href="#DejaVuSans-41" x="1591.453125"/>
      <use xlink:href="#DejaVuSans-43" x="1658.111328"/>
      <use xlink:href="#DejaVuSans-43" x="1727.935547"/>
      <use xlink:href="#DejaVuSans-41" x="1797.759766"/>
      <use xlink:href="#DejaVuSans-43" x="1864.417969"/>
      <use xlink:href="#DejaVuSans-41" x="1934.242188"/>
      <use xlink:href="#DejaVuSans-43" x="2000.900391"/>
      <use xlink:href="#DejaVuSans-47" x="2070.724609"/>
      <use xlink:href="#DejaVuSans-47" x="2148.214844"/>
      <use xlink:href="#DejaVuSans-54" x="2222.080078"/>
      <use xlink:href="#DejaVuSans-5f" x="2283.164062"/>
      <use xlink:href="#DejaVuSans-4c" x="2333.164062"/>
      <use xlink:href="#DejaVuSans-30" x="2388.876953"/>
      <use xlink:href="#DejaVuSans-30" x="2452.5"/>
      <use xlink:href="#DejaVuSans-35" x="2516.123047"/>
      <use xlink:href="#DejaVuSans-5f" x="2579.746094"/>
      <use xlink:href="#DejaVuSans-54" x="2629.746094"/>
      <use xlink:href="#DejaVuSans-31" x="2690.830078"/>
      <use xlink:href="#DejaVuSans-5f" x="2754.453125"/>
      <use xlink:href="#DejaVuSans-32" x="2804.453125"/>
     </g>
    </g>
    <g id="line2d_28">
     <path d="M 388.584375 291.525394 
L 396.584375 291.525394 
L 404.584375 291.525394 
" style="fill: none; stroke: #d9534f; stroke-linecap: square"/>
    </g>
    <g id="text_24">
     <!-- TK9_2_22FFLLLT3_GATATTGTGT-ACCACACGGT_L006_T1_1 -->
     <g transform="translate(410.984375 294.325394) scale(0.08 -0.08)">
      <use xlink:href="#DejaVuSans-54"/>
      <use xlink:href="#DejaVuSans-4b" x="61.083984"/>
      <use xlink:href="#DejaVuSans-39" x="126.660156"/>
      <use xlink:href="#DejaVuSans-5f" x="190.283203"/>
      <use xlink:href="#DejaVuSans-32" x="240.283203"/>
      <use xlink:href="#DejaVuSans-5f" x="303.90625"/>
      <use xlink:href="#DejaVuSans-32" x="353.90625"/>
      <use xlink:href="#DejaVuSans-32" x="417.529297"/>
      <use xlink:href="#DejaVuSans-46" x="481.152344"/>
      <use xlink:href="#DejaVuSans-46" x="538.671875"/>
      <use xlink:href="#DejaVuSans-4c" x="596.191406"/>
      <use xlink:href="#DejaVuSans-4c" x="651.904297"/>
      <use xlink:href="#DejaVuSans-4c" x="707.617188"/>
      <use xlink:href="#DejaVuSans-54" x="749.580078"/>
      <use xlink:href="#DejaVuSans-33" x="810.664062"/>
      <use xlink:href="#DejaVuSans-5f" x="874.287109"/>
      <use xlink:href="#DejaVuSans-47" x="924.287109"/>
      <use xlink:href="#DejaVuSans-41" x="1001.777344"/>
      <use xlink:href="#DejaVuSans-54" x="1062.435547"/>
      <use xlink:href="#DejaVuSans-41" x="1115.769531"/>
      <use xlink:href="#DejaVuSans-54" x="1176.427734"/>
      <use xlink:href="#DejaVuSans-54" x="1235.761719"/>
      <use xlink:href="#DejaVuSans-47" x="1296.845703"/>
      <use xlink:href="#DejaVuSans-54" x="1370.710938"/>
      <use xlink:href="#DejaVuSans-47" x="1431.794922"/>
      <use xlink:href="#DejaVuSans-54" x="1505.660156"/>
      <use xlink:href="#DejaVuSans-2d" x="1557.619141"/>
      <use xlink:href="#DejaVuSans-41" x="1591.453125"/>
      <use xlink:href="#DejaVuSans-43" x="1658.111328"/>
      <use xlink:href="#DejaVuSans-43" x="1727.935547"/>
      <use xlink:href="#DejaVuSans-41" x="1797.759766"/>
      <use xlink:href="#DejaVuSans-43" x="1864.417969"/>
      <use xlink:href="#DejaVuSans-41" x="1934.242188"/>
      <use xlink:href="#DejaVuSans-43" x="2000.900391"/>
      <use xlink:href="#DejaVuSans-47" x="2070.724609"/>
      <use xlink:href="#DejaVuSans-47" x="2148.214844"/>
      <use xlink:href="#DejaVuSans-54" x="2222.080078"/>
      <use xlink:href="#DejaVuSans-5f" x="2283.164062"/>
      <use xlink:href="#DejaVuSans-4c" x="2333.164062"/>
      <use xlink:href="#DejaVuSans-30" x="2388.876953"/>
      <use xlink:href="#DejaVuSans-30" x="2452.5"/>
      <use xlink:href="#DejaVuSans-36" x="2516.123047"/>
      <use xlink:href="#DejaVuSans-5f" x="2579.746094"/>
      <use xlink:href="#DejaVuSans-54" x="2629.746094"/>
      <use xlink:href="#DejaVuSans-31" x="2690.830078"/>
      <use xlink:href="#DejaVuSans-5f" x="2754.453125"/>
      <use xlink:href="#DejaVuSans-31" x="2804.453125"/>
     </g>
    </g>
    <g id="line2d_29">
     <path d="M 388.584375 303.490394 
L 396.584375 303.490394 
L 404.584375 303.490394 
" style="fill: none; stroke: #d9534f; stroke-linecap: square"/>
    </g>
    <g id="text_25">
     <!-- TK9_2_22FFLLLT3_GATATTGTGT-ACCACACGGT_L006_T1_2 -->
     <g transform="translate(410.984375 306.290394) scale(0.08 -0.08)">
      <use xlink:href="#DejaVuSans-54"/>
      <use xlink:href="#DejaVuSans-4b" x="61.083984"/>
      <use xlink:href="#DejaVuSans-39" x="126.660156"/>
      <use xlink:href="#DejaVuSans-5f" x="190.283203"/>
      <use xlink:href="#DejaVuSans-32" x="240.283203"/>
      <use xlink:href="#DejaVuSans-5f" x="303.90625"/>
      <use xlink:href="#DejaVuSans-32" x="353.90625"/>
      <use xlink:href="#DejaVuSans-32" x="417.529297"/>
      <use xlink:href="#DejaVuSans-46" x="481.152344"/>
      <use xlink:href="#DejaVuSans-46" x="538.671875"/>
      <use xlink:href="#DejaVuSans-4c" x="596.191406"/>
      <use xlink:href="#DejaVuSans-4c" x="651.904297"/>
      <use xlink:href="#DejaVuSans-4c" x="707.617188"/>
      <use xlink:href="#DejaVuSans-54" x="749.580078"/>
      <use xlink:href="#DejaVuSans-33" x="810.664062"/>
      <use xlink:href="#DejaVuSans-5f" x="874.287109"/>
      <use xlink:href="#DejaVuSans-47" x="924.287109"/>
      <use xlink:href="#DejaVuSans-41" x="1001.777344"/>
      <use xlink:href="#DejaVuSans-54" x="1062.435547"/>
      <use xlink:href="#DejaVuSans-41" x="1115.769531"/>
      <use xlink:href="#DejaVuSans-54" x="1176.427734"/>
      <use xlink:href="#DejaVuSans-54" x="1235.761719"/>
      <use xlink:href="#DejaVuSans-47" x="1296.845703"/>
      <use xlink:href="#DejaVuSans-54" x="1370.710938"/>
      <use xlink:href="#DejaVuSans-47" x="1431.794922"/>
      <use xlink:href="#DejaVuSans-54" x="1505.660156"/>
      <use xlink:href="#DejaVuSans-2d" x="1557.619141"/>
      <use xlink:href="#DejaVuSans-41" x="1591.453125"/>
      <use xlink:href="#DejaVuSans-43" x="1658.111328"/>
      <use xlink:href="#DejaVuSans-43" x="1727.935547"/>
      <use xlink:href="#DejaVuSans-41" x="1797.759766"/>
      <use xlink:href="#DejaVuSans-43" x="1864.417969"/>
      <use xlink:href="#DejaVuSans-41" x="1934.242188"/>
      <use xlink:href="#DejaVuSans-43" x="2000.900391"/>
      <use xlink:href="#DejaVuSans-47" x="2070.724609"/>
      <use xlink:href="#DejaVuSans-47" x="2148.214844"/>
      <use xlink:href="#DejaVuSans-54" x="2222.080078"/>
      <use xlink:href="#DejaVuSans-5f" x="2283.164062"/>
      <use xlink:href="#DejaVuSans-4c" x="2333.164062"/>
      <use xlink:href="#DejaVuSans-30" x="2388.876953"/>
      <use xlink:href="#DejaVuSans-30" x="2452.5"/>
      <use xlink:href="#DejaVuSans-36" x="2516.123047"/>
      <use xlink:href="#DejaVuSans-5f" x="2579.746094"/>
      <use xlink:href="#DejaVuSans-54" x="2629.746094"/>
      <use xlink:href="#DejaVuSans-31" x="2690.830078"/>
      <use xlink:href="#DejaVuSans-5f" x="2754.453125"/>
      <use xlink:href="#DejaVuSans-32" x="2804.453125"/>
     </g>
    </g>
    <g id="line2d_30">
     <path d="M 557.30375 291.525394 
L 565.30375 291.525394 
L 573.30375 291.525394 
" style="fill: none; stroke: #f0ad4e; stroke-linecap: square"/>
    </g>
    <g id="text_26">
     <!-- TK9_3_22FFLLLT3_CGTACAGGAA-TAGGTTCTCT_L005_T1_1 -->
     <g transform="translate(579.70375 294.325394) scale(0.08 -0.08)">
      <use xlink:href="#DejaVuSans-54"/>
      <use xlink:href="#DejaVuSans-4b" x="61.083984"/>
      <use xlink:href="#DejaVuSans-39" x="126.660156"/>
      <use xlink:href="#DejaVuSans-5f" x="190.283203"/>
      <use xlink:href="#DejaVuSans-33" x="240.283203"/>
      <use xlink:href="#DejaVuSans-5f" x="303.90625"/>
      <use xlink:href="#DejaVuSans-32" x="353.90625"/>
      <use xlink:href="#DejaVuSans-32" x="417.529297"/>
      <use xlink:href="#DejaVuSans-46" x="481.152344"/>
      <use xlink:href="#DejaVuSans-46" x="538.671875"/>
      <use xlink:href="#DejaVuSans-4c" x="596.191406"/>
      <use xlink:href="#DejaVuSans-4c" x="651.904297"/>
      <use xlink:href="#DejaVuSans-4c" x="707.617188"/>
      <use xlink:href="#DejaVuSans-54" x="749.580078"/>
      <use xlink:href="#DejaVuSans-33" x="810.664062"/>
      <use xlink:href="#DejaVuSans-5f" x="874.287109"/>
      <use xlink:href="#DejaVuSans-43" x="924.287109"/>
      <use xlink:href="#DejaVuSans-47" x="994.111328"/>
      <use xlink:href="#DejaVuSans-54" x="1067.976562"/>
      <use xlink:href="#DejaVuSans-41" x="1121.310547"/>
      <use xlink:href="#DejaVuSans-43" x="1187.96875"/>
      <use xlink:href="#DejaVuSans-41" x="1257.792969"/>
      <use xlink:href="#DejaVuSans-47" x="1324.451172"/>
      <use xlink:href="#DejaVuSans-47" x="1401.941406"/>
      <use xlink:href="#DejaVuSans-41" x="1479.431641"/>
      <use xlink:href="#DejaVuSans-41" x="1550.589844"/>
      <use xlink:href="#DejaVuSans-2d" x="1616.748047"/>
      <use xlink:href="#DejaVuSans-54" x="1643.707031"/>
      <use xlink:href="#DejaVuSans-41" x="1697.041016"/>
      <use xlink:href="#DejaVuSans-47" x="1763.699219"/>
      <use xlink:href="#DejaVuSans-47" x="1841.189453"/>
      <use xlink:href="#DejaVuSans-54" x="1915.054688"/>
      <use xlink:href="#DejaVuSans-54" x="1974.388672"/>
      <use xlink:href="#DejaVuSans-43" x="2029.597656"/>
      <use xlink:href="#DejaVuSans-54" x="2099.421875"/>
      <use xlink:href="#DejaVuSans-43" x="2154.630859"/>
      <use xlink:href="#DejaVuSans-54" x="2224.455078"/>
      <use xlink:href="#DejaVuSans-5f" x="2285.539062"/>
      <use xlink:href="#DejaVuSans-4c" x="2335.539062"/>
      <use xlink:href="#DejaVuSans-30" x="2391.251953"/>
      <use xlink:href="#DejaVuSans-30" x="2454.875"/>
      <use xlink:href="#DejaVuSans-35" x="2518.498047"/>
      <use xlink:href="#DejaVuSans-5f" x="2582.121094"/>
      <use xlink:href="#DejaVuSans-54" x="2632.121094"/>
      <use xlink:href="#DejaVuSans-31" x="2693.205078"/>
      <use xlink:href="#DejaVuSans-5f" x="2756.828125"/>
      <use xlink:href="#DejaVuSans-31" x="2806.828125"/>
     </g>
    </g>
    <g id="line2d_31">
     <path d="M 557.30375 303.490394 
L 565.30375 303.490394 
L 573.30375 303.490394 
" style="fill: none; stroke: #d9534f; stroke-linecap: square"/>
    </g>
    <g id="text_27">
     <!-- TK9_3_22FFLLLT3_CGTACAGGAA-TAGGTTCTCT_L005_T1_2 -->
     <g transform="translate(579.70375 306.290394) scale(0.08 -0.08)">
      <use xlink:href="#DejaVuSans-54"/>
      <use xlink:href="#DejaVuSans-4b" x="61.083984"/>
      <use xlink:href="#DejaVuSans-39" x="126.660156"/>
      <use xlink:href="#DejaVuSans-5f" x="190.283203"/>
      <use xlink:href="#DejaVuSans-33" x="240.283203"/>
      <use xlink:href="#DejaVuSans-5f" x="303.90625"/>
      <use xlink:href="#DejaVuSans-32" x="353.90625"/>
      <use xlink:href="#DejaVuSans-32" x="417.529297"/>
      <use xlink:href="#DejaVuSans-46" x="481.152344"/>
      <use xlink:href="#DejaVuSans-46" x="538.671875"/>
      <use xlink:href="#DejaVuSans-4c" x="596.191406"/>
      <use xlink:href="#DejaVuSans-4c" x="651.904297"/>
      <use xlink:href="#DejaVuSans-4c" x="707.617188"/>
      <use xlink:href="#DejaVuSans-54" x="749.580078"/>
      <use xlink:href="#DejaVuSans-33" x="810.664062"/>
      <use xlink:href="#DejaVuSans-5f" x="874.287109"/>
      <use xlink:href="#DejaVuSans-43" x="924.287109"/>
      <use xlink:href="#DejaVuSans-47" x="994.111328"/>
      <use xlink:href="#DejaVuSans-54" x="1067.976562"/>
      <use xlink:href="#DejaVuSans-41" x="1121.310547"/>
      <use xlink:href="#DejaVuSans-43" x="1187.96875"/>
      <use xlink:href="#DejaVuSans-41" x="1257.792969"/>
      <use xlink:href="#DejaVuSans-47" x="1324.451172"/>
      <use xlink:href="#DejaVuSans-47" x="1401.941406"/>
      <use xlink:href="#DejaVuSans-41" x="1479.431641"/>
      <use xlink:href="#DejaVuSans-41" x="1550.589844"/>
      <use xlink:href="#DejaVuSans-2d" x="1616.748047"/>
      <use xlink:href="#DejaVuSans-54" x="1643.707031"/>
      <use xlink:href="#DejaVuSans-41" x="1697.041016"/>
      <use xlink:href="#DejaVuSans-47" x="1763.699219"/>
      <use xlink:href="#DejaVuSans-47" x="1841.189453"/>
      <use xlink:href="#DejaVuSans-54" x="1915.054688"/>
      <use xlink:href="#DejaVuSans-54" x="1974.388672"/>
      <use xlink:href="#DejaVuSans-43" x="2029.597656"/>
      <use xlink:href="#DejaVuSans-54" x="2099.421875"/>
      <use xlink:href="#DejaVuSans-43" x="2154.630859"/>
      <use xlink:href="#DejaVuSans-54" x="2224.455078"/>
      <use xlink:href="#DejaVuSans-5f" x="2285.539062"/>
      <use xlink:href="#DejaVuSans-4c" x="2335.539062"/>
      <use xlink:href="#DejaVuSans-30" x="2391.251953"/>
      <use xlink:href="#DejaVuSans-30" x="2454.875"/>
      <use xlink:href="#DejaVuSans-35" x="2518.498047"/>
      <use xlink:href="#DejaVuSans-5f" x="2582.121094"/>
      <use xlink:href="#DejaVuSans-54" x="2632.121094"/>
      <use xlink:href="#DejaVuSans-31" x="2693.205078"/>
      <use xlink:href="#DejaVuSans-5f" x="2756.828125"/>
      <use xlink:href="#DejaVuSans-32" x="2806.828125"/>
     </g>
    </g>
    <g id="line2d_32">
     <path d="M 726.213125 291.525394 
L 734.213125 291.525394 
L 742.213125 291.525394 
" style="fill: none; stroke: #f0ad4e; stroke-linecap: square"/>
    </g>
    <g id="text_28">
     <!-- TK9_3_22FFLLLT3_CGTACAGGAA-TAGGTTCTCT_L006_T1_1 -->
     <g transform="translate(748.613125 294.325394) scale(0.08 -0.08)">
      <use xlink:href="#DejaVuSans-54"/>
      <use xlink:href="#DejaVuSans-4b" x="61.083984"/>
      <use xlink:href="#DejaVuSans-39" x="126.660156"/>
      <use xlink:href="#DejaVuSans-5f" x="190.283203"/>
      <use xlink:href="#DejaVuSans-33" x="240.283203"/>
      <use xlink:href="#DejaVuSans-5f" x="303.90625"/>
      <use xlink:href="#DejaVuSans-32" x="353.90625"/>
      <use xlink:href="#DejaVuSans-32" x="417.529297"/>
      <use xlink:href="#DejaVuSans-46" x="481.152344"/>
      <use xlink:href="#DejaVuSans-46" x="538.671875"/>
      <use xlink:href="#DejaVuSans-4c" x="596.191406"/>
      <use xlink:href="#DejaVuSans-4c" x="651.904297"/>
      <use xlink:href="#DejaVuSans-4c" x="707.617188"/>
      <use xlink:href="#DejaVuSans-54" x="749.580078"/>
      <use xlink:href="#DejaVuSans-33" x="810.664062"/>
      <use xlink:href="#DejaVuSans-5f" x="874.287109"/>
      <use xlink:href="#DejaVuSans-43" x="924.287109"/>
      <use xlink:href="#DejaVuSans-47" x="994.111328"/>
      <use xlink:href="#DejaVuSans-54" x="1067.976562"/>
      <use xlink:href="#DejaVuSans-41" x="1121.310547"/>
      <use xlink:href="#DejaVuSans-43" x="1187.96875"/>
      <use xlink:href="#DejaVuSans-41" x="1257.792969"/>
      <use xlink:href="#DejaVuSans-47" x="1324.451172"/>
      <use xlink:href="#DejaVuSans-47" x="1401.941406"/>
      <use xlink:href="#DejaVuSans-41" x="1479.431641"/>
      <use xlink:href="#DejaVuSans-41" x="1550.589844"/>
      <use xlink:href="#DejaVuSans-2d" x="1616.748047"/>
      <use xlink:href="#DejaVuSans-54" x="1643.707031"/>
      <use xlink:href="#DejaVuSans-41" x="1697.041016"/>
      <use xlink:href="#DejaVuSans-47" x="1763.699219"/>
      <use xlink:href="#DejaVuSans-47" x="1841.189453"/>
      <use xlink:href="#DejaVuSans-54" x="1915.054688"/>
      <use xlink:href="#DejaVuSans-54" x="1974.388672"/>
      <use xlink:href="#DejaVuSans-43" x="2029.597656"/>
      <use xlink:href="#DejaVuSans-54" x="2099.421875"/>
      <use xlink:href="#DejaVuSans-43" x="2154.630859"/>
      <use xlink:href="#DejaVuSans-54" x="2224.455078"/>
      <use xlink:href="#DejaVuSans-5f" x="2285.539062"/>
      <use xlink:href="#DejaVuSans-4c" x="2335.539062"/>
      <use xlink:href="#DejaVuSans-30" x="2391.251953"/>
      <use xlink:href="#DejaVuSans-30" x="2454.875"/>
      <use xlink:href="#DejaVuSans-36" x="2518.498047"/>
      <use xlink:href="#DejaVuSans-5f" x="2582.121094"/>
      <use xlink:href="#DejaVuSans-54" x="2632.121094"/>
      <use xlink:href="#DejaVuSans-31" x="2693.205078"/>
      <use xlink:href="#DejaVuSans-5f" x="2756.828125"/>
      <use xlink:href="#DejaVuSans-31" x="2806.828125"/>
     </g>
    </g>
    <g id="line2d_33">
     <path d="M 726.213125 303.490394 
L 734.213125 303.490394 
L 742.213125 303.490394 
" style="fill: none; stroke: #d9534f; stroke-linecap: square"/>
    </g>
    <g id="text_29">
     <!-- TK9_3_22FFLLLT3_CGTACAGGAA-TAGGTTCTCT_L006_T1_2 -->
     <g transform="translate(748.613125 306.290394) scale(0.08 -0.08)">
      <use xlink:href="#DejaVuSans-54"/>
      <use xlink:href="#DejaVuSans-4b" x="61.083984"/>
      <use xlink:href="#DejaVuSans-39" x="126.660156"/>
      <use xlink:href="#DejaVuSans-5f" x="190.283203"/>
      <use xlink:href="#DejaVuSans-33" x="240.283203"/>
      <use xlink:href="#DejaVuSans-5f" x="303.90625"/>
      <use xlink:href="#DejaVuSans-32" x="353.90625"/>
      <use xlink:href="#DejaVuSans-32" x="417.529297"/>
      <use xlink:href="#DejaVuSans-46" x="481.152344"/>
      <use xlink:href="#DejaVuSans-46" x="538.671875"/>
      <use xlink:href="#DejaVuSans-4c" x="596.191406"/>
      <use xlink:href="#DejaVuSans-4c" x="651.904297"/>
      <use xlink:href="#DejaVuSans-4c" x="707.617188"/>
      <use xlink:href="#DejaVuSans-54" x="749.580078"/>
      <use xlink:href="#DejaVuSans-33" x="810.664062"/>
      <use xlink:href="#DejaVuSans-5f" x="874.287109"/>
      <use xlink:href="#DejaVuSans-43" x="924.287109"/>
      <use xlink:href="#DejaVuSans-47" x="994.111328"/>
      <use xlink:href="#DejaVuSans-54" x="1067.976562"/>
      <use xlink:href="#DejaVuSans-41" x="1121.310547"/>
      <use xlink:href="#DejaVuSans-43" x="1187.96875"/>
      <use xlink:href="#DejaVuSans-41" x="1257.792969"/>
      <use xlink:href="#DejaVuSans-47" x="1324.451172"/>
      <use xlink:href="#DejaVuSans-47" x="1401.941406"/>
      <use xlink:href="#DejaVuSans-41" x="1479.431641"/>
      <use xlink:href="#DejaVuSans-41" x="1550.589844"/>
      <use xlink:href="#DejaVuSans-2d" x="1616.748047"/>
      <use xlink:href="#DejaVuSans-54" x="1643.707031"/>
      <use xlink:href="#DejaVuSans-41" x="1697.041016"/>
      <use xlink:href="#DejaVuSans-47" x="1763.699219"/>
      <use xlink:href="#DejaVuSans-47" x="1841.189453"/>
      <use xlink:href="#DejaVuSans-54" x="1915.054688"/>
      <use xlink:href="#DejaVuSans-54" x="1974.388672"/>
      <use xlink:href="#DejaVuSans-43" x="2029.597656"/>
      <use xlink:href="#DejaVuSans-54" x="2099.421875"/>
      <use xlink:href="#DejaVuSans-43" x="2154.630859"/>
      <use xlink:href="#DejaVuSans-54" x="2224.455078"/>
      <use xlink:href="#DejaVuSans-5f" x="2285.539062"/>
      <use xlink:href="#DejaVuSans-4c" x="2335.539062"/>
      <use xlink:href="#DejaVuSans-30" x="2391.251953"/>
      <use xlink:href="#DejaVuSans-30" x="2454.875"/>
      <use xlink:href="#DejaVuSans-36" x="2518.498047"/>
      <use xlink:href="#DejaVuSans-5f" x="2582.121094"/>
      <use xlink:href="#DejaVuSans-54" x="2632.121094"/>
      <use xlink:href="#DejaVuSans-31" x="2693.205078"/>
      <use xlink:href="#DejaVuSans-5f" x="2756.828125"/>
      <use xlink:href="#DejaVuSans-32" x="2806.828125"/>
     </g>
    </g>
   </g>
  </g>
 </g>
 <defs>
  <clipPath id="p3972605d59">
   <rect x="40.600625" y="31.48286" width="944.845" height="242.5072"/>
  </clipPath>
 </defs>
</svg>
